G04 #@! TF.FileFunction,Copper,L2,Bot,Signal*
%FSLAX46Y46*%
G04 Gerber Fmt 4.6, Leading zero omitted, Abs format (unit mm)*
G04 Created by KiCad (PCBNEW 4.0.2-stable) date 03/06/2016 13:11:46*
%MOMM*%
G01*
G04 APERTURE LIST*
%ADD10C,0.100000*%
%ADD11C,0.150000*%
%ADD12O,1.600000X2.600000*%
%ADD13O,1.600000X2.000000*%
%ADD14R,1.727200X2.032000*%
%ADD15O,1.727200X2.032000*%
%ADD16O,1.270000X2.500000*%
%ADD17C,0.889000*%
%ADD18C,0.254000*%
G04 APERTURE END LIST*
D10*
D11*
X169703333Y-49538571D02*
X169655714Y-49490951D01*
X169512857Y-49395713D01*
X169417619Y-49348094D01*
X169274762Y-49300475D01*
X169036667Y-49252856D01*
X168846190Y-49252856D01*
X168608095Y-49300475D01*
X168465238Y-49348094D01*
X168370000Y-49395713D01*
X168227143Y-49490951D01*
X168179524Y-49538571D01*
X169274762Y-50348095D02*
X169322381Y-50252857D01*
X169322381Y-50062380D01*
X169274762Y-49967142D01*
X169227143Y-49919523D01*
X169131905Y-49871904D01*
X168846190Y-49871904D01*
X168750952Y-49919523D01*
X168703333Y-49967142D01*
X168655714Y-50062380D01*
X168655714Y-50252857D01*
X168703333Y-50348095D01*
X169703333Y-50681428D02*
X169655714Y-50729047D01*
X169512857Y-50824285D01*
X169417619Y-50871904D01*
X169274762Y-50919523D01*
X169036667Y-50967142D01*
X168846190Y-50967142D01*
X168608095Y-50919523D01*
X168465238Y-50871904D01*
X168370000Y-50824285D01*
X168227143Y-50729047D01*
X168179524Y-50681428D01*
X169322381Y-52776667D02*
X168846190Y-52443333D01*
X169322381Y-52205238D02*
X168322381Y-52205238D01*
X168322381Y-52586191D01*
X168370000Y-52681429D01*
X168417619Y-52729048D01*
X168512857Y-52776667D01*
X168655714Y-52776667D01*
X168750952Y-52729048D01*
X168798571Y-52681429D01*
X168846190Y-52586191D01*
X168846190Y-52205238D01*
X169227143Y-53205238D02*
X169274762Y-53252857D01*
X169322381Y-53205238D01*
X169274762Y-53157619D01*
X169227143Y-53205238D01*
X169322381Y-53205238D01*
X169322381Y-54443333D02*
X168322381Y-54443333D01*
X169036667Y-54776667D01*
X168322381Y-55110000D01*
X169322381Y-55110000D01*
X169322381Y-56014762D02*
X168798571Y-56014762D01*
X168703333Y-55967143D01*
X168655714Y-55871905D01*
X168655714Y-55681428D01*
X168703333Y-55586190D01*
X169274762Y-56014762D02*
X169322381Y-55919524D01*
X169322381Y-55681428D01*
X169274762Y-55586190D01*
X169179524Y-55538571D01*
X169084286Y-55538571D01*
X168989048Y-55586190D01*
X168941429Y-55681428D01*
X168941429Y-55919524D01*
X168893810Y-56014762D01*
X168655714Y-56490952D02*
X169322381Y-56490952D01*
X168750952Y-56490952D02*
X168703333Y-56538571D01*
X168655714Y-56633809D01*
X168655714Y-56776667D01*
X168703333Y-56871905D01*
X168798571Y-56919524D01*
X169322381Y-56919524D01*
X168655714Y-57300476D02*
X168655714Y-57824286D01*
X169322381Y-57300476D01*
X169322381Y-57824286D01*
X169322381Y-58205238D02*
X168322381Y-58205238D01*
X168941429Y-58300476D02*
X169322381Y-58586191D01*
X168655714Y-58586191D02*
X169036667Y-58205238D01*
X169274762Y-59395715D02*
X169322381Y-59300477D01*
X169322381Y-59110000D01*
X169274762Y-59014762D01*
X169179524Y-58967143D01*
X168798571Y-58967143D01*
X168703333Y-59014762D01*
X168655714Y-59110000D01*
X168655714Y-59300477D01*
X168703333Y-59395715D01*
X168798571Y-59443334D01*
X168893810Y-59443334D01*
X168989048Y-58967143D01*
X168417619Y-60586191D02*
X168370000Y-60633810D01*
X168322381Y-60729048D01*
X168322381Y-60967144D01*
X168370000Y-61062382D01*
X168417619Y-61110001D01*
X168512857Y-61157620D01*
X168608095Y-61157620D01*
X168750952Y-61110001D01*
X169322381Y-60538572D01*
X169322381Y-61157620D01*
X168322381Y-61776667D02*
X168322381Y-61871906D01*
X168370000Y-61967144D01*
X168417619Y-62014763D01*
X168512857Y-62062382D01*
X168703333Y-62110001D01*
X168941429Y-62110001D01*
X169131905Y-62062382D01*
X169227143Y-62014763D01*
X169274762Y-61967144D01*
X169322381Y-61871906D01*
X169322381Y-61776667D01*
X169274762Y-61681429D01*
X169227143Y-61633810D01*
X169131905Y-61586191D01*
X168941429Y-61538572D01*
X168703333Y-61538572D01*
X168512857Y-61586191D01*
X168417619Y-61633810D01*
X168370000Y-61681429D01*
X168322381Y-61776667D01*
X169322381Y-63062382D02*
X169322381Y-62490953D01*
X169322381Y-62776667D02*
X168322381Y-62776667D01*
X168465238Y-62681429D01*
X168560476Y-62586191D01*
X168608095Y-62490953D01*
X168322381Y-63919525D02*
X168322381Y-63729048D01*
X168370000Y-63633810D01*
X168417619Y-63586191D01*
X168560476Y-63490953D01*
X168750952Y-63443334D01*
X169131905Y-63443334D01*
X169227143Y-63490953D01*
X169274762Y-63538572D01*
X169322381Y-63633810D01*
X169322381Y-63824287D01*
X169274762Y-63919525D01*
X169227143Y-63967144D01*
X169131905Y-64014763D01*
X168893810Y-64014763D01*
X168798571Y-63967144D01*
X168750952Y-63919525D01*
X168703333Y-63824287D01*
X168703333Y-63633810D01*
X168750952Y-63538572D01*
X168798571Y-63490953D01*
X168893810Y-63443334D01*
D12*
X164560000Y-73120000D03*
X138160000Y-69120000D03*
X168385000Y-68670000D03*
X134335000Y-68670000D03*
D13*
X168385000Y-73570000D03*
X134335000Y-73570000D03*
D14*
X165500000Y-49060000D03*
D15*
X162960000Y-49060000D03*
X160420000Y-49060000D03*
X157880000Y-49060000D03*
X155340000Y-49060000D03*
X152800000Y-49060000D03*
X150260000Y-49060000D03*
X147720000Y-49060000D03*
X145180000Y-49060000D03*
D14*
X165500000Y-92240000D03*
D15*
X162960000Y-92240000D03*
X160420000Y-92240000D03*
X157880000Y-92240000D03*
X155340000Y-92240000D03*
X152800000Y-92240000D03*
D16*
X165500000Y-63500000D03*
X138500000Y-54940000D03*
X139300000Y-59220000D03*
X140100000Y-63500000D03*
X141040000Y-54940000D03*
X141840000Y-59220000D03*
X142640000Y-63500000D03*
X143580000Y-54940000D03*
X144380000Y-59220000D03*
X145180000Y-63500000D03*
X146120000Y-54940000D03*
X146920000Y-59220000D03*
X147720000Y-63500000D03*
X148660000Y-54940000D03*
X149460000Y-59220000D03*
X150260000Y-63500000D03*
X151200000Y-54940000D03*
X152000000Y-59220000D03*
X152800000Y-63500000D03*
X153740000Y-54940000D03*
X154540000Y-59220000D03*
X155340000Y-63500000D03*
X156280000Y-54940000D03*
X157080000Y-59220000D03*
X157880000Y-63500000D03*
X158820000Y-54940000D03*
X159620000Y-59220000D03*
X160420000Y-63500000D03*
X161360000Y-54940000D03*
X162160000Y-59220000D03*
X162960000Y-63500000D03*
X138500000Y-87820000D03*
X139300000Y-83680000D03*
X140100000Y-79540000D03*
X141040000Y-87820000D03*
X141840000Y-83680000D03*
X142640000Y-79540000D03*
X143580000Y-87820000D03*
X144380000Y-83680000D03*
X145180000Y-79540000D03*
X146120000Y-87820000D03*
X146920000Y-83680000D03*
X147720000Y-79540000D03*
X148660000Y-87820000D03*
X149460000Y-83680000D03*
X150260000Y-79540000D03*
X151200000Y-87820000D03*
X152000000Y-83680000D03*
X152800000Y-79540000D03*
X165500000Y-79540000D03*
X153740000Y-87820000D03*
X154540000Y-83680000D03*
X155340000Y-79540000D03*
X156280000Y-87820000D03*
X157080000Y-83680000D03*
X157880000Y-79540000D03*
X158820000Y-87820000D03*
X137560000Y-63500000D03*
X159620000Y-83680000D03*
X160420000Y-79540000D03*
X135020000Y-63500000D03*
X161360000Y-87820000D03*
X162160000Y-83680000D03*
X162960000Y-79540000D03*
D17*
X149460000Y-70050000D03*
X144530000Y-70120000D03*
X144990000Y-71220000D03*
X161350000Y-70300000D03*
X159900000Y-70690000D03*
X141880000Y-47350000D03*
D18*
X160420000Y-92240000D02*
X160420000Y-90970000D01*
X160420000Y-90970000D02*
X160290000Y-90840000D01*
X160585210Y-84694803D02*
X160585210Y-81209210D01*
X160290000Y-90840000D02*
X160290000Y-84990013D01*
X160290000Y-84990013D02*
X160585210Y-84694803D01*
X160585210Y-81209210D02*
X160420000Y-81044000D01*
X160420000Y-81044000D02*
X160420000Y-79540000D01*
X149294790Y-69884790D02*
X149460000Y-70050000D01*
X152800000Y-49060000D02*
X152800000Y-50330000D01*
X152800000Y-50330000D02*
X150234790Y-52895210D01*
X150234790Y-52895210D02*
X150234790Y-58014777D01*
X150234790Y-58014777D02*
X150425210Y-58205197D01*
X150425210Y-58205197D02*
X150425210Y-61354777D01*
X150425210Y-61354777D02*
X149294790Y-62485197D01*
X149294790Y-62485197D02*
X149294790Y-69884790D01*
X143414790Y-62294777D02*
X143775501Y-62655488D01*
X144545210Y-52387190D02*
X144545210Y-57074777D01*
X147720000Y-49212400D02*
X144545210Y-52387190D01*
X143775501Y-69365501D02*
X144085501Y-69675501D01*
X147720000Y-49060000D02*
X147720000Y-49212400D01*
X144085501Y-69675501D02*
X144530000Y-70120000D01*
X143414790Y-58205197D02*
X143414790Y-62294777D01*
X144545210Y-57074777D02*
X143414790Y-58205197D01*
X143775501Y-62655488D02*
X143775501Y-69365501D01*
X158845210Y-68094790D02*
X155720000Y-71220000D01*
X155720000Y-71220000D02*
X144990000Y-71220000D01*
X162960000Y-49060000D02*
X162960000Y-56439987D01*
X162960000Y-56439987D02*
X160585210Y-58814777D01*
X160585210Y-61354777D02*
X158845210Y-63094777D01*
X160585210Y-58814777D02*
X160585210Y-61354777D01*
X158845210Y-63094777D02*
X158845210Y-68094790D01*
X162960000Y-49060000D02*
X162960000Y-49212400D01*
X162960000Y-92240000D02*
X162960000Y-92087600D01*
X162960000Y-92087600D02*
X164077600Y-90970000D01*
X164077600Y-90970000D02*
X164077600Y-78677587D01*
X164077600Y-78677587D02*
X161350000Y-75949987D01*
X161350000Y-75949987D02*
X161350000Y-70300000D01*
X157880000Y-92240000D02*
X157880000Y-90970000D01*
X157880000Y-90970000D02*
X157854790Y-90944790D01*
X157854790Y-90944790D02*
X157854790Y-84885223D01*
X157854790Y-84885223D02*
X158045210Y-84694803D01*
X158045210Y-84694803D02*
X158045210Y-81354803D01*
X158045210Y-81354803D02*
X158845210Y-80554803D01*
X158845210Y-80554803D02*
X158845210Y-71744790D01*
X158845210Y-71744790D02*
X159900000Y-70690000D01*
X155340000Y-49060000D02*
X155340000Y-50330000D01*
X155340000Y-50330000D02*
X152165210Y-53504790D01*
X152165210Y-53504790D02*
X152165210Y-57550790D01*
X152165210Y-57550790D02*
X152000000Y-57716000D01*
X152000000Y-57716000D02*
X152000000Y-59220000D01*
X150260000Y-49060000D02*
X150260000Y-50330000D01*
X150260000Y-50330000D02*
X147085210Y-53504790D01*
X147085210Y-53504790D02*
X147085210Y-57074777D01*
X147085210Y-57074777D02*
X145345210Y-58814777D01*
X145345210Y-58814777D02*
X145345210Y-61830790D01*
X145345210Y-61830790D02*
X145180000Y-61996000D01*
X145180000Y-61996000D02*
X145180000Y-63500000D01*
X160420000Y-49060000D02*
X160420000Y-47790000D01*
X160420000Y-47790000D02*
X159910000Y-47280000D01*
X159910000Y-47280000D02*
X144050000Y-47280000D01*
X143500000Y-47830000D02*
X143500000Y-50710000D01*
X144050000Y-47280000D02*
X143500000Y-47830000D01*
X143580000Y-50790000D02*
X143580000Y-54940000D01*
X143500000Y-50710000D02*
X143580000Y-50790000D01*
X141040000Y-48350000D02*
X141880000Y-47510000D01*
X141880000Y-47510000D02*
X141880000Y-47350000D01*
X141040000Y-54940000D02*
X141040000Y-48350000D01*
G36*
X141054643Y-47185077D02*
X141054357Y-47513482D01*
X141084689Y-47586891D01*
X140680790Y-47990790D01*
X140570669Y-48155597D01*
X140532000Y-48350000D01*
X140532000Y-53434028D01*
X140321580Y-53574627D01*
X140101338Y-53904241D01*
X140024000Y-54293047D01*
X140024000Y-55586953D01*
X140101338Y-55975759D01*
X140321580Y-56305373D01*
X140651194Y-56525615D01*
X141040000Y-56602953D01*
X141428806Y-56525615D01*
X141758420Y-56305373D01*
X141978662Y-55975759D01*
X142056000Y-55586953D01*
X142056000Y-54293047D01*
X141978662Y-53904241D01*
X141758420Y-53574627D01*
X141548000Y-53434028D01*
X141548000Y-48560420D01*
X141932874Y-48175547D01*
X142043482Y-48175643D01*
X142346998Y-48050233D01*
X142579417Y-47818219D01*
X142705357Y-47514923D01*
X142705643Y-47186518D01*
X142598413Y-46927000D01*
X143684579Y-46927000D01*
X143140790Y-47470790D01*
X143030669Y-47635597D01*
X142992000Y-47830000D01*
X142992000Y-50710000D01*
X143030669Y-50904403D01*
X143072000Y-50966259D01*
X143072000Y-53434028D01*
X142861580Y-53574627D01*
X142641338Y-53904241D01*
X142564000Y-54293047D01*
X142564000Y-55586953D01*
X142641338Y-55975759D01*
X142861580Y-56305373D01*
X143191194Y-56525615D01*
X143580000Y-56602953D01*
X143968806Y-56525615D01*
X144037210Y-56479909D01*
X144037210Y-56864357D01*
X143055580Y-57845987D01*
X142945459Y-58010794D01*
X142906790Y-58205197D01*
X142906790Y-61890115D01*
X142640000Y-61837047D01*
X142251194Y-61914385D01*
X141921580Y-62134627D01*
X141701338Y-62464241D01*
X141624000Y-62853047D01*
X141624000Y-64146953D01*
X141701338Y-64535759D01*
X141921580Y-64865373D01*
X142251194Y-65085615D01*
X142640000Y-65162953D01*
X143028806Y-65085615D01*
X143267501Y-64926123D01*
X143267501Y-69365501D01*
X143306170Y-69559904D01*
X143416291Y-69724711D01*
X143704593Y-70013013D01*
X143704357Y-70283482D01*
X143829767Y-70586998D01*
X144061781Y-70819417D01*
X144232979Y-70890505D01*
X144164643Y-71055077D01*
X144164357Y-71383482D01*
X144289767Y-71686998D01*
X144521781Y-71919417D01*
X144825077Y-72045357D01*
X145153482Y-72045643D01*
X145456998Y-71920233D01*
X145649567Y-71728000D01*
X155720000Y-71728000D01*
X155914403Y-71689331D01*
X156079210Y-71579210D01*
X158861420Y-68797000D01*
X166950000Y-68797000D01*
X166950000Y-69297000D01*
X167107834Y-69836483D01*
X167460104Y-70274500D01*
X167953181Y-70544367D01*
X168035961Y-70561904D01*
X168258000Y-70439915D01*
X168258000Y-68797000D01*
X166950000Y-68797000D01*
X158861420Y-68797000D01*
X159204420Y-68454001D01*
X159314541Y-68289194D01*
X159320956Y-68256940D01*
X159353210Y-68094790D01*
X159353210Y-68043000D01*
X166950000Y-68043000D01*
X166950000Y-68543000D01*
X168258000Y-68543000D01*
X168258000Y-66900085D01*
X168035961Y-66778096D01*
X167953181Y-66795633D01*
X167460104Y-67065500D01*
X167107834Y-67503517D01*
X166950000Y-68043000D01*
X159353210Y-68043000D01*
X159353210Y-63305197D01*
X159404000Y-63254407D01*
X159404000Y-64146953D01*
X159481338Y-64535759D01*
X159701580Y-64865373D01*
X160031194Y-65085615D01*
X160420000Y-65162953D01*
X160808806Y-65085615D01*
X161138420Y-64865373D01*
X161358662Y-64535759D01*
X161436000Y-64146953D01*
X161436000Y-63627000D01*
X161690000Y-63627000D01*
X161690000Y-64242000D01*
X161835274Y-64718341D01*
X162151777Y-65102828D01*
X162591325Y-65336928D01*
X162636888Y-65343209D01*
X162833000Y-65218969D01*
X162833000Y-63627000D01*
X163087000Y-63627000D01*
X163087000Y-65218969D01*
X163283112Y-65343209D01*
X163328675Y-65336928D01*
X163768223Y-65102828D01*
X164084726Y-64718341D01*
X164230000Y-64242000D01*
X164375274Y-64718341D01*
X164691777Y-65102828D01*
X165131325Y-65336928D01*
X165176888Y-65343209D01*
X165373000Y-65218969D01*
X165373000Y-63627000D01*
X165627000Y-63627000D01*
X165627000Y-65218969D01*
X165823112Y-65343209D01*
X165868675Y-65336928D01*
X166308223Y-65102828D01*
X166624726Y-64718341D01*
X166770000Y-64242000D01*
X166770000Y-63627000D01*
X165627000Y-63627000D01*
X165373000Y-63627000D01*
X163087000Y-63627000D01*
X162833000Y-63627000D01*
X161690000Y-63627000D01*
X161436000Y-63627000D01*
X161436000Y-62853047D01*
X161417095Y-62758000D01*
X161690000Y-62758000D01*
X161690000Y-63373000D01*
X162833000Y-63373000D01*
X162833000Y-61781031D01*
X163087000Y-61781031D01*
X163087000Y-63373000D01*
X165373000Y-63373000D01*
X165373000Y-61781031D01*
X165627000Y-61781031D01*
X165627000Y-63373000D01*
X166770000Y-63373000D01*
X166770000Y-62758000D01*
X166624726Y-62281659D01*
X166308223Y-61897172D01*
X165868675Y-61663072D01*
X165823112Y-61656791D01*
X165627000Y-61781031D01*
X165373000Y-61781031D01*
X165176888Y-61656791D01*
X165131325Y-61663072D01*
X164691777Y-61897172D01*
X164375274Y-62281659D01*
X164230000Y-62758000D01*
X164084726Y-62281659D01*
X163768223Y-61897172D01*
X163328675Y-61663072D01*
X163283112Y-61656791D01*
X163087000Y-61781031D01*
X162833000Y-61781031D01*
X162636888Y-61656791D01*
X162591325Y-61663072D01*
X162151777Y-61897172D01*
X161835274Y-62281659D01*
X161690000Y-62758000D01*
X161417095Y-62758000D01*
X161358662Y-62464241D01*
X161138420Y-62134627D01*
X160808806Y-61914385D01*
X160754771Y-61903637D01*
X160944421Y-61713987D01*
X161054541Y-61549180D01*
X161093210Y-61354777D01*
X161093210Y-59025197D01*
X161144000Y-58974407D01*
X161144000Y-59866953D01*
X161221338Y-60255759D01*
X161441580Y-60585373D01*
X161771194Y-60805615D01*
X162160000Y-60882953D01*
X162548806Y-60805615D01*
X162878420Y-60585373D01*
X163098662Y-60255759D01*
X163176000Y-59866953D01*
X163176000Y-58573047D01*
X163098662Y-58184241D01*
X162878420Y-57854627D01*
X162548806Y-57634385D01*
X162494770Y-57623637D01*
X163319210Y-56799197D01*
X163429331Y-56634391D01*
X163442780Y-56566777D01*
X163468000Y-56439987D01*
X163468000Y-50368440D01*
X163840065Y-50119834D01*
X164001400Y-49878379D01*
X164001400Y-50202309D01*
X164098073Y-50435698D01*
X164276701Y-50614327D01*
X164510090Y-50711000D01*
X165214250Y-50711000D01*
X165373000Y-50552250D01*
X165373000Y-49187000D01*
X165627000Y-49187000D01*
X165627000Y-50552250D01*
X165785750Y-50711000D01*
X166489910Y-50711000D01*
X166723299Y-50614327D01*
X166901927Y-50435698D01*
X166998600Y-50202309D01*
X166998600Y-49345750D01*
X166839850Y-49187000D01*
X165627000Y-49187000D01*
X165373000Y-49187000D01*
X165353000Y-49187000D01*
X165353000Y-48933000D01*
X165373000Y-48933000D01*
X165373000Y-47567750D01*
X165627000Y-47567750D01*
X165627000Y-48933000D01*
X166839850Y-48933000D01*
X166998600Y-48774250D01*
X166998600Y-47917691D01*
X166901927Y-47684302D01*
X166723299Y-47505673D01*
X166489910Y-47409000D01*
X165785750Y-47409000D01*
X165627000Y-47567750D01*
X165373000Y-47567750D01*
X165214250Y-47409000D01*
X164510090Y-47409000D01*
X164276701Y-47505673D01*
X164098073Y-47684302D01*
X164001400Y-47917691D01*
X164001400Y-48241621D01*
X163840065Y-48000166D01*
X163436288Y-47730371D01*
X162960000Y-47635631D01*
X162483712Y-47730371D01*
X162079935Y-48000166D01*
X161810140Y-48403943D01*
X161715400Y-48880231D01*
X161715400Y-49239769D01*
X161810140Y-49716057D01*
X162079935Y-50119834D01*
X162452000Y-50368440D01*
X162452000Y-56229567D01*
X160534094Y-58147473D01*
X160338420Y-57854627D01*
X160008806Y-57634385D01*
X159620000Y-57557047D01*
X159231194Y-57634385D01*
X158901580Y-57854627D01*
X158681338Y-58184241D01*
X158604000Y-58573047D01*
X158604000Y-59866953D01*
X158681338Y-60255759D01*
X158901580Y-60585373D01*
X159231194Y-60805615D01*
X159620000Y-60882953D01*
X160008806Y-60805615D01*
X160077210Y-60759909D01*
X160077210Y-61144356D01*
X158794094Y-62427473D01*
X158598420Y-62134627D01*
X158268806Y-61914385D01*
X157880000Y-61837047D01*
X157491194Y-61914385D01*
X157161580Y-62134627D01*
X156941338Y-62464241D01*
X156864000Y-62853047D01*
X156864000Y-64146953D01*
X156941338Y-64535759D01*
X157161580Y-64865373D01*
X157491194Y-65085615D01*
X157880000Y-65162953D01*
X158268806Y-65085615D01*
X158337210Y-65039909D01*
X158337210Y-67884369D01*
X155509580Y-70712000D01*
X149965298Y-70712000D01*
X150159417Y-70518219D01*
X150285357Y-70214923D01*
X150285643Y-69886518D01*
X150160233Y-69583002D01*
X149928219Y-69350583D01*
X149802790Y-69298500D01*
X149802790Y-65039909D01*
X149871194Y-65085615D01*
X150260000Y-65162953D01*
X150648806Y-65085615D01*
X150978420Y-64865373D01*
X151198662Y-64535759D01*
X151276000Y-64146953D01*
X151276000Y-62853047D01*
X151784000Y-62853047D01*
X151784000Y-64146953D01*
X151861338Y-64535759D01*
X152081580Y-64865373D01*
X152411194Y-65085615D01*
X152800000Y-65162953D01*
X153188806Y-65085615D01*
X153518420Y-64865373D01*
X153738662Y-64535759D01*
X153816000Y-64146953D01*
X153816000Y-62853047D01*
X154324000Y-62853047D01*
X154324000Y-64146953D01*
X154401338Y-64535759D01*
X154621580Y-64865373D01*
X154951194Y-65085615D01*
X155340000Y-65162953D01*
X155728806Y-65085615D01*
X156058420Y-64865373D01*
X156278662Y-64535759D01*
X156356000Y-64146953D01*
X156356000Y-62853047D01*
X156278662Y-62464241D01*
X156058420Y-62134627D01*
X155728806Y-61914385D01*
X155340000Y-61837047D01*
X154951194Y-61914385D01*
X154621580Y-62134627D01*
X154401338Y-62464241D01*
X154324000Y-62853047D01*
X153816000Y-62853047D01*
X153738662Y-62464241D01*
X153518420Y-62134627D01*
X153188806Y-61914385D01*
X152800000Y-61837047D01*
X152411194Y-61914385D01*
X152081580Y-62134627D01*
X151861338Y-62464241D01*
X151784000Y-62853047D01*
X151276000Y-62853047D01*
X151198662Y-62464241D01*
X150978420Y-62134627D01*
X150648806Y-61914385D01*
X150594770Y-61903637D01*
X150784420Y-61713987D01*
X150894541Y-61549181D01*
X150906710Y-61488000D01*
X150933210Y-61354777D01*
X150933210Y-58205197D01*
X150894541Y-58010794D01*
X150827462Y-57910403D01*
X150784421Y-57845987D01*
X150742790Y-57804356D01*
X150742790Y-56479909D01*
X150811194Y-56525615D01*
X151200000Y-56602953D01*
X151588806Y-56525615D01*
X151657210Y-56479909D01*
X151657210Y-57340370D01*
X151640790Y-57356790D01*
X151530669Y-57521597D01*
X151492452Y-57713726D01*
X151281580Y-57854627D01*
X151061338Y-58184241D01*
X150984000Y-58573047D01*
X150984000Y-59866953D01*
X151061338Y-60255759D01*
X151281580Y-60585373D01*
X151611194Y-60805615D01*
X152000000Y-60882953D01*
X152388806Y-60805615D01*
X152718420Y-60585373D01*
X152938662Y-60255759D01*
X153016000Y-59866953D01*
X153016000Y-58573047D01*
X153524000Y-58573047D01*
X153524000Y-59866953D01*
X153601338Y-60255759D01*
X153821580Y-60585373D01*
X154151194Y-60805615D01*
X154540000Y-60882953D01*
X154928806Y-60805615D01*
X155258420Y-60585373D01*
X155478662Y-60255759D01*
X155556000Y-59866953D01*
X155556000Y-58573047D01*
X156064000Y-58573047D01*
X156064000Y-59866953D01*
X156141338Y-60255759D01*
X156361580Y-60585373D01*
X156691194Y-60805615D01*
X157080000Y-60882953D01*
X157468806Y-60805615D01*
X157798420Y-60585373D01*
X158018662Y-60255759D01*
X158096000Y-59866953D01*
X158096000Y-58573047D01*
X158018662Y-58184241D01*
X157798420Y-57854627D01*
X157468806Y-57634385D01*
X157080000Y-57557047D01*
X156691194Y-57634385D01*
X156361580Y-57854627D01*
X156141338Y-58184241D01*
X156064000Y-58573047D01*
X155556000Y-58573047D01*
X155478662Y-58184241D01*
X155258420Y-57854627D01*
X154928806Y-57634385D01*
X154540000Y-57557047D01*
X154151194Y-57634385D01*
X153821580Y-57854627D01*
X153601338Y-58184241D01*
X153524000Y-58573047D01*
X153016000Y-58573047D01*
X152938662Y-58184241D01*
X152718420Y-57854627D01*
X152609879Y-57782102D01*
X152634541Y-57745194D01*
X152644088Y-57697197D01*
X152673210Y-57550790D01*
X152673210Y-54293047D01*
X152724000Y-54293047D01*
X152724000Y-55586953D01*
X152801338Y-55975759D01*
X153021580Y-56305373D01*
X153351194Y-56525615D01*
X153740000Y-56602953D01*
X154128806Y-56525615D01*
X154458420Y-56305373D01*
X154678662Y-55975759D01*
X154756000Y-55586953D01*
X154756000Y-54293047D01*
X155264000Y-54293047D01*
X155264000Y-55586953D01*
X155341338Y-55975759D01*
X155561580Y-56305373D01*
X155891194Y-56525615D01*
X156280000Y-56602953D01*
X156668806Y-56525615D01*
X156998420Y-56305373D01*
X157218662Y-55975759D01*
X157296000Y-55586953D01*
X157296000Y-54293047D01*
X157804000Y-54293047D01*
X157804000Y-55586953D01*
X157881338Y-55975759D01*
X158101580Y-56305373D01*
X158431194Y-56525615D01*
X158820000Y-56602953D01*
X159208806Y-56525615D01*
X159538420Y-56305373D01*
X159758662Y-55975759D01*
X159836000Y-55586953D01*
X159836000Y-54293047D01*
X160344000Y-54293047D01*
X160344000Y-55586953D01*
X160421338Y-55975759D01*
X160641580Y-56305373D01*
X160971194Y-56525615D01*
X161360000Y-56602953D01*
X161748806Y-56525615D01*
X162078420Y-56305373D01*
X162298662Y-55975759D01*
X162376000Y-55586953D01*
X162376000Y-54293047D01*
X162298662Y-53904241D01*
X162078420Y-53574627D01*
X161748806Y-53354385D01*
X161360000Y-53277047D01*
X160971194Y-53354385D01*
X160641580Y-53574627D01*
X160421338Y-53904241D01*
X160344000Y-54293047D01*
X159836000Y-54293047D01*
X159758662Y-53904241D01*
X159538420Y-53574627D01*
X159208806Y-53354385D01*
X158820000Y-53277047D01*
X158431194Y-53354385D01*
X158101580Y-53574627D01*
X157881338Y-53904241D01*
X157804000Y-54293047D01*
X157296000Y-54293047D01*
X157218662Y-53904241D01*
X156998420Y-53574627D01*
X156668806Y-53354385D01*
X156280000Y-53277047D01*
X155891194Y-53354385D01*
X155561580Y-53574627D01*
X155341338Y-53904241D01*
X155264000Y-54293047D01*
X154756000Y-54293047D01*
X154678662Y-53904241D01*
X154458420Y-53574627D01*
X154128806Y-53354385D01*
X153740000Y-53277047D01*
X153351194Y-53354385D01*
X153021580Y-53574627D01*
X152801338Y-53904241D01*
X152724000Y-54293047D01*
X152673210Y-54293047D01*
X152673210Y-53715210D01*
X155699210Y-50689210D01*
X155809331Y-50524404D01*
X155839182Y-50374332D01*
X156220065Y-50119834D01*
X156489860Y-49716057D01*
X156584600Y-49239769D01*
X156584600Y-48880231D01*
X156489860Y-48403943D01*
X156220065Y-48000166D01*
X155902536Y-47788000D01*
X157317464Y-47788000D01*
X156999935Y-48000166D01*
X156730140Y-48403943D01*
X156635400Y-48880231D01*
X156635400Y-49239769D01*
X156730140Y-49716057D01*
X156999935Y-50119834D01*
X157403712Y-50389629D01*
X157880000Y-50484369D01*
X158356288Y-50389629D01*
X158760065Y-50119834D01*
X159029860Y-49716057D01*
X159124600Y-49239769D01*
X159124600Y-48880231D01*
X159029860Y-48403943D01*
X158760065Y-48000166D01*
X158442536Y-47788000D01*
X159699580Y-47788000D01*
X159762819Y-47851239D01*
X159539935Y-48000166D01*
X159270140Y-48403943D01*
X159175400Y-48880231D01*
X159175400Y-49239769D01*
X159270140Y-49716057D01*
X159539935Y-50119834D01*
X159943712Y-50389629D01*
X160420000Y-50484369D01*
X160896288Y-50389629D01*
X161300065Y-50119834D01*
X161569860Y-49716057D01*
X161664600Y-49239769D01*
X161664600Y-48880231D01*
X161569860Y-48403943D01*
X161300065Y-48000166D01*
X160919182Y-47745668D01*
X160889331Y-47595597D01*
X160779210Y-47430790D01*
X160275420Y-46927000D01*
X169347394Y-46927000D01*
X169773000Y-47352606D01*
X169773000Y-48558761D01*
X167564000Y-48558761D01*
X167564000Y-64661239D01*
X169773000Y-64661239D01*
X169773000Y-67882352D01*
X169662166Y-67503517D01*
X169309896Y-67065500D01*
X168816819Y-66795633D01*
X168734039Y-66778096D01*
X168512000Y-66900085D01*
X168512000Y-68543000D01*
X168532000Y-68543000D01*
X168532000Y-68797000D01*
X168512000Y-68797000D01*
X168512000Y-70439915D01*
X168734039Y-70561904D01*
X168816819Y-70544367D01*
X169309896Y-70274500D01*
X169662166Y-69836483D01*
X169773000Y-69457648D01*
X169773000Y-94747394D01*
X169347394Y-95173000D01*
X133452606Y-95173000D01*
X133027000Y-94747394D01*
X133027000Y-92060231D01*
X151555400Y-92060231D01*
X151555400Y-92419769D01*
X151650140Y-92896057D01*
X151919935Y-93299834D01*
X152323712Y-93569629D01*
X152800000Y-93664369D01*
X153276288Y-93569629D01*
X153680065Y-93299834D01*
X153949860Y-92896057D01*
X154044600Y-92419769D01*
X154044600Y-92060231D01*
X154095400Y-92060231D01*
X154095400Y-92419769D01*
X154190140Y-92896057D01*
X154459935Y-93299834D01*
X154863712Y-93569629D01*
X155340000Y-93664369D01*
X155816288Y-93569629D01*
X156220065Y-93299834D01*
X156489860Y-92896057D01*
X156584600Y-92419769D01*
X156584600Y-92060231D01*
X156489860Y-91583943D01*
X156220065Y-91180166D01*
X155816288Y-90910371D01*
X155340000Y-90815631D01*
X154863712Y-90910371D01*
X154459935Y-91180166D01*
X154190140Y-91583943D01*
X154095400Y-92060231D01*
X154044600Y-92060231D01*
X153949860Y-91583943D01*
X153680065Y-91180166D01*
X153276288Y-90910371D01*
X152800000Y-90815631D01*
X152323712Y-90910371D01*
X151919935Y-91180166D01*
X151650140Y-91583943D01*
X151555400Y-92060231D01*
X133027000Y-92060231D01*
X133027000Y-87173047D01*
X137484000Y-87173047D01*
X137484000Y-88466953D01*
X137561338Y-88855759D01*
X137781580Y-89185373D01*
X138111194Y-89405615D01*
X138500000Y-89482953D01*
X138888806Y-89405615D01*
X139218420Y-89185373D01*
X139438662Y-88855759D01*
X139516000Y-88466953D01*
X139516000Y-87173047D01*
X140024000Y-87173047D01*
X140024000Y-88466953D01*
X140101338Y-88855759D01*
X140321580Y-89185373D01*
X140651194Y-89405615D01*
X141040000Y-89482953D01*
X141428806Y-89405615D01*
X141758420Y-89185373D01*
X141978662Y-88855759D01*
X142056000Y-88466953D01*
X142056000Y-87173047D01*
X142564000Y-87173047D01*
X142564000Y-88466953D01*
X142641338Y-88855759D01*
X142861580Y-89185373D01*
X143191194Y-89405615D01*
X143580000Y-89482953D01*
X143968806Y-89405615D01*
X144298420Y-89185373D01*
X144518662Y-88855759D01*
X144596000Y-88466953D01*
X144596000Y-87173047D01*
X145104000Y-87173047D01*
X145104000Y-88466953D01*
X145181338Y-88855759D01*
X145401580Y-89185373D01*
X145731194Y-89405615D01*
X146120000Y-89482953D01*
X146508806Y-89405615D01*
X146838420Y-89185373D01*
X147058662Y-88855759D01*
X147136000Y-88466953D01*
X147136000Y-87173047D01*
X147644000Y-87173047D01*
X147644000Y-88466953D01*
X147721338Y-88855759D01*
X147941580Y-89185373D01*
X148271194Y-89405615D01*
X148660000Y-89482953D01*
X149048806Y-89405615D01*
X149378420Y-89185373D01*
X149598662Y-88855759D01*
X149676000Y-88466953D01*
X149676000Y-87173047D01*
X150184000Y-87173047D01*
X150184000Y-88466953D01*
X150261338Y-88855759D01*
X150481580Y-89185373D01*
X150811194Y-89405615D01*
X151200000Y-89482953D01*
X151588806Y-89405615D01*
X151918420Y-89185373D01*
X152138662Y-88855759D01*
X152216000Y-88466953D01*
X152216000Y-87173047D01*
X152724000Y-87173047D01*
X152724000Y-88466953D01*
X152801338Y-88855759D01*
X153021580Y-89185373D01*
X153351194Y-89405615D01*
X153740000Y-89482953D01*
X154128806Y-89405615D01*
X154458420Y-89185373D01*
X154678662Y-88855759D01*
X154756000Y-88466953D01*
X154756000Y-87173047D01*
X155264000Y-87173047D01*
X155264000Y-88466953D01*
X155341338Y-88855759D01*
X155561580Y-89185373D01*
X155891194Y-89405615D01*
X156280000Y-89482953D01*
X156668806Y-89405615D01*
X156998420Y-89185373D01*
X157218662Y-88855759D01*
X157296000Y-88466953D01*
X157296000Y-87173047D01*
X157218662Y-86784241D01*
X156998420Y-86454627D01*
X156668806Y-86234385D01*
X156280000Y-86157047D01*
X155891194Y-86234385D01*
X155561580Y-86454627D01*
X155341338Y-86784241D01*
X155264000Y-87173047D01*
X154756000Y-87173047D01*
X154678662Y-86784241D01*
X154458420Y-86454627D01*
X154128806Y-86234385D01*
X153740000Y-86157047D01*
X153351194Y-86234385D01*
X153021580Y-86454627D01*
X152801338Y-86784241D01*
X152724000Y-87173047D01*
X152216000Y-87173047D01*
X152138662Y-86784241D01*
X151918420Y-86454627D01*
X151588806Y-86234385D01*
X151200000Y-86157047D01*
X150811194Y-86234385D01*
X150481580Y-86454627D01*
X150261338Y-86784241D01*
X150184000Y-87173047D01*
X149676000Y-87173047D01*
X149598662Y-86784241D01*
X149378420Y-86454627D01*
X149048806Y-86234385D01*
X148660000Y-86157047D01*
X148271194Y-86234385D01*
X147941580Y-86454627D01*
X147721338Y-86784241D01*
X147644000Y-87173047D01*
X147136000Y-87173047D01*
X147058662Y-86784241D01*
X146838420Y-86454627D01*
X146508806Y-86234385D01*
X146120000Y-86157047D01*
X145731194Y-86234385D01*
X145401580Y-86454627D01*
X145181338Y-86784241D01*
X145104000Y-87173047D01*
X144596000Y-87173047D01*
X144518662Y-86784241D01*
X144298420Y-86454627D01*
X143968806Y-86234385D01*
X143580000Y-86157047D01*
X143191194Y-86234385D01*
X142861580Y-86454627D01*
X142641338Y-86784241D01*
X142564000Y-87173047D01*
X142056000Y-87173047D01*
X141978662Y-86784241D01*
X141758420Y-86454627D01*
X141428806Y-86234385D01*
X141040000Y-86157047D01*
X140651194Y-86234385D01*
X140321580Y-86454627D01*
X140101338Y-86784241D01*
X140024000Y-87173047D01*
X139516000Y-87173047D01*
X139438662Y-86784241D01*
X139218420Y-86454627D01*
X138888806Y-86234385D01*
X138500000Y-86157047D01*
X138111194Y-86234385D01*
X137781580Y-86454627D01*
X137561338Y-86784241D01*
X137484000Y-87173047D01*
X133027000Y-87173047D01*
X133027000Y-83033047D01*
X138284000Y-83033047D01*
X138284000Y-84326953D01*
X138361338Y-84715759D01*
X138581580Y-85045373D01*
X138911194Y-85265615D01*
X139300000Y-85342953D01*
X139688806Y-85265615D01*
X140018420Y-85045373D01*
X140238662Y-84715759D01*
X140316000Y-84326953D01*
X140316000Y-83033047D01*
X140824000Y-83033047D01*
X140824000Y-84326953D01*
X140901338Y-84715759D01*
X141121580Y-85045373D01*
X141451194Y-85265615D01*
X141840000Y-85342953D01*
X142228806Y-85265615D01*
X142558420Y-85045373D01*
X142778662Y-84715759D01*
X142856000Y-84326953D01*
X142856000Y-83033047D01*
X143364000Y-83033047D01*
X143364000Y-84326953D01*
X143441338Y-84715759D01*
X143661580Y-85045373D01*
X143991194Y-85265615D01*
X144380000Y-85342953D01*
X144768806Y-85265615D01*
X145098420Y-85045373D01*
X145318662Y-84715759D01*
X145396000Y-84326953D01*
X145396000Y-83033047D01*
X145904000Y-83033047D01*
X145904000Y-84326953D01*
X145981338Y-84715759D01*
X146201580Y-85045373D01*
X146531194Y-85265615D01*
X146920000Y-85342953D01*
X147308806Y-85265615D01*
X147638420Y-85045373D01*
X147858662Y-84715759D01*
X147936000Y-84326953D01*
X147936000Y-83033047D01*
X148444000Y-83033047D01*
X148444000Y-84326953D01*
X148521338Y-84715759D01*
X148741580Y-85045373D01*
X149071194Y-85265615D01*
X149460000Y-85342953D01*
X149848806Y-85265615D01*
X150178420Y-85045373D01*
X150398662Y-84715759D01*
X150476000Y-84326953D01*
X150476000Y-83033047D01*
X150984000Y-83033047D01*
X150984000Y-84326953D01*
X151061338Y-84715759D01*
X151281580Y-85045373D01*
X151611194Y-85265615D01*
X152000000Y-85342953D01*
X152388806Y-85265615D01*
X152718420Y-85045373D01*
X152938662Y-84715759D01*
X153016000Y-84326953D01*
X153016000Y-83033047D01*
X153524000Y-83033047D01*
X153524000Y-84326953D01*
X153601338Y-84715759D01*
X153821580Y-85045373D01*
X154151194Y-85265615D01*
X154540000Y-85342953D01*
X154928806Y-85265615D01*
X155258420Y-85045373D01*
X155478662Y-84715759D01*
X155556000Y-84326953D01*
X155556000Y-83033047D01*
X156064000Y-83033047D01*
X156064000Y-84326953D01*
X156141338Y-84715759D01*
X156361580Y-85045373D01*
X156691194Y-85265615D01*
X157080000Y-85342953D01*
X157346790Y-85289885D01*
X157346790Y-90944790D01*
X157347425Y-90947981D01*
X156999935Y-91180166D01*
X156730140Y-91583943D01*
X156635400Y-92060231D01*
X156635400Y-92419769D01*
X156730140Y-92896057D01*
X156999935Y-93299834D01*
X157403712Y-93569629D01*
X157880000Y-93664369D01*
X158356288Y-93569629D01*
X158760065Y-93299834D01*
X159029860Y-92896057D01*
X159124600Y-92419769D01*
X159124600Y-92060231D01*
X159029860Y-91583943D01*
X158760065Y-91180166D01*
X158379182Y-90925668D01*
X158362790Y-90843260D01*
X158362790Y-89359909D01*
X158431194Y-89405615D01*
X158820000Y-89482953D01*
X159208806Y-89405615D01*
X159538420Y-89185373D01*
X159758662Y-88855759D01*
X159782000Y-88738430D01*
X159782000Y-90840000D01*
X159813327Y-90997492D01*
X159539935Y-91180166D01*
X159270140Y-91583943D01*
X159175400Y-92060231D01*
X159175400Y-92419769D01*
X159270140Y-92896057D01*
X159539935Y-93299834D01*
X159943712Y-93569629D01*
X160420000Y-93664369D01*
X160896288Y-93569629D01*
X161300065Y-93299834D01*
X161569860Y-92896057D01*
X161664600Y-92419769D01*
X161664600Y-92060231D01*
X161569860Y-91583943D01*
X161300065Y-91180166D01*
X160919182Y-90925668D01*
X160889331Y-90775597D01*
X160798000Y-90638911D01*
X160798000Y-89289890D01*
X160971194Y-89405615D01*
X161360000Y-89482953D01*
X161748806Y-89405615D01*
X162078420Y-89185373D01*
X162298662Y-88855759D01*
X162376000Y-88466953D01*
X162376000Y-87173047D01*
X162298662Y-86784241D01*
X162078420Y-86454627D01*
X161748806Y-86234385D01*
X161360000Y-86157047D01*
X160971194Y-86234385D01*
X160798000Y-86350110D01*
X160798000Y-85200433D01*
X160944420Y-85054013D01*
X161054541Y-84889206D01*
X161093210Y-84694803D01*
X161093210Y-83033047D01*
X161144000Y-83033047D01*
X161144000Y-84326953D01*
X161221338Y-84715759D01*
X161441580Y-85045373D01*
X161771194Y-85265615D01*
X162160000Y-85342953D01*
X162548806Y-85265615D01*
X162878420Y-85045373D01*
X163098662Y-84715759D01*
X163176000Y-84326953D01*
X163176000Y-83033047D01*
X163098662Y-82644241D01*
X162878420Y-82314627D01*
X162548806Y-82094385D01*
X162160000Y-82017047D01*
X161771194Y-82094385D01*
X161441580Y-82314627D01*
X161221338Y-82644241D01*
X161144000Y-83033047D01*
X161093210Y-83033047D01*
X161093210Y-81209210D01*
X161054541Y-81014807D01*
X161054541Y-81014806D01*
X161029879Y-80977898D01*
X161138420Y-80905373D01*
X161358662Y-80575759D01*
X161436000Y-80186953D01*
X161436000Y-79667000D01*
X161690000Y-79667000D01*
X161690000Y-80282000D01*
X161835274Y-80758341D01*
X162151777Y-81142828D01*
X162591325Y-81376928D01*
X162636888Y-81383209D01*
X162833000Y-81258969D01*
X162833000Y-79667000D01*
X161690000Y-79667000D01*
X161436000Y-79667000D01*
X161436000Y-78893047D01*
X161358662Y-78504241D01*
X161138420Y-78174627D01*
X160808806Y-77954385D01*
X160420000Y-77877047D01*
X160031194Y-77954385D01*
X159701580Y-78174627D01*
X159481338Y-78504241D01*
X159404000Y-78893047D01*
X159404000Y-80186953D01*
X159481338Y-80575759D01*
X159701580Y-80905373D01*
X159912452Y-81046274D01*
X159950669Y-81238403D01*
X160060790Y-81403210D01*
X160077210Y-81419630D01*
X160077210Y-82140091D01*
X160008806Y-82094385D01*
X159620000Y-82017047D01*
X159231194Y-82094385D01*
X158901580Y-82314627D01*
X158681338Y-82644241D01*
X158604000Y-83033047D01*
X158604000Y-84326953D01*
X158681338Y-84715759D01*
X158901580Y-85045373D01*
X159231194Y-85265615D01*
X159620000Y-85342953D01*
X159782000Y-85310729D01*
X159782000Y-86901570D01*
X159758662Y-86784241D01*
X159538420Y-86454627D01*
X159208806Y-86234385D01*
X158820000Y-86157047D01*
X158431194Y-86234385D01*
X158362790Y-86280091D01*
X158362790Y-85095644D01*
X158404421Y-85054013D01*
X158514541Y-84889206D01*
X158553210Y-84694803D01*
X158553210Y-81565223D01*
X159204420Y-80914013D01*
X159314541Y-80749206D01*
X159353210Y-80554803D01*
X159353210Y-71955210D01*
X159793013Y-71515407D01*
X160063482Y-71515643D01*
X160366998Y-71390233D01*
X160599417Y-71158219D01*
X160725357Y-70854923D01*
X160725368Y-70842731D01*
X160842000Y-70959567D01*
X160842000Y-75949987D01*
X160880669Y-76144390D01*
X160990790Y-76309197D01*
X162456482Y-77774889D01*
X162151777Y-77937172D01*
X161835274Y-78321659D01*
X161690000Y-78798000D01*
X161690000Y-79413000D01*
X162833000Y-79413000D01*
X162833000Y-79393000D01*
X163087000Y-79393000D01*
X163087000Y-79413000D01*
X163107000Y-79413000D01*
X163107000Y-79667000D01*
X163087000Y-79667000D01*
X163087000Y-81258969D01*
X163283112Y-81383209D01*
X163328675Y-81376928D01*
X163569600Y-81248613D01*
X163569600Y-90759580D01*
X163421709Y-90907471D01*
X162960000Y-90815631D01*
X162483712Y-90910371D01*
X162079935Y-91180166D01*
X161810140Y-91583943D01*
X161715400Y-92060231D01*
X161715400Y-92419769D01*
X161810140Y-92896057D01*
X162079935Y-93299834D01*
X162483712Y-93569629D01*
X162960000Y-93664369D01*
X163436288Y-93569629D01*
X163840065Y-93299834D01*
X164001400Y-93058379D01*
X164001400Y-93382309D01*
X164098073Y-93615698D01*
X164276701Y-93794327D01*
X164510090Y-93891000D01*
X165214250Y-93891000D01*
X165373000Y-93732250D01*
X165373000Y-92367000D01*
X165627000Y-92367000D01*
X165627000Y-93732250D01*
X165785750Y-93891000D01*
X166489910Y-93891000D01*
X166723299Y-93794327D01*
X166901927Y-93615698D01*
X166998600Y-93382309D01*
X166998600Y-92525750D01*
X166839850Y-92367000D01*
X165627000Y-92367000D01*
X165373000Y-92367000D01*
X165353000Y-92367000D01*
X165353000Y-92113000D01*
X165373000Y-92113000D01*
X165373000Y-90747750D01*
X165627000Y-90747750D01*
X165627000Y-92113000D01*
X166839850Y-92113000D01*
X166998600Y-91954250D01*
X166998600Y-91097691D01*
X166901927Y-90864302D01*
X166723299Y-90685673D01*
X166489910Y-90589000D01*
X165785750Y-90589000D01*
X165627000Y-90747750D01*
X165373000Y-90747750D01*
X165214250Y-90589000D01*
X164585600Y-90589000D01*
X164585600Y-80612069D01*
X164781580Y-80905373D01*
X165111194Y-81125615D01*
X165500000Y-81202953D01*
X165888806Y-81125615D01*
X166218420Y-80905373D01*
X166438662Y-80575759D01*
X166516000Y-80186953D01*
X166516000Y-78893047D01*
X166438662Y-78504241D01*
X166218420Y-78174627D01*
X165888806Y-77954385D01*
X165500000Y-77877047D01*
X165111194Y-77954385D01*
X164781580Y-78174627D01*
X164561338Y-78504241D01*
X164556229Y-78529927D01*
X164546931Y-78483184D01*
X164436810Y-78318377D01*
X161858000Y-75739567D01*
X161858000Y-72587067D01*
X163379000Y-72587067D01*
X163379000Y-73652933D01*
X163468898Y-74104882D01*
X163724907Y-74488026D01*
X164108051Y-74744035D01*
X164560000Y-74833933D01*
X165011949Y-74744035D01*
X165395093Y-74488026D01*
X165651102Y-74104882D01*
X165741000Y-73652933D01*
X165741000Y-73342945D01*
X167204000Y-73342945D01*
X167204000Y-73797055D01*
X167293898Y-74249004D01*
X167549907Y-74632148D01*
X167933051Y-74888157D01*
X168385000Y-74978055D01*
X168836949Y-74888157D01*
X169220093Y-74632148D01*
X169476102Y-74249004D01*
X169566000Y-73797055D01*
X169566000Y-73342945D01*
X169476102Y-72890996D01*
X169220093Y-72507852D01*
X168836949Y-72251843D01*
X168385000Y-72161945D01*
X167933051Y-72251843D01*
X167549907Y-72507852D01*
X167293898Y-72890996D01*
X167204000Y-73342945D01*
X165741000Y-73342945D01*
X165741000Y-72587067D01*
X165651102Y-72135118D01*
X165395093Y-71751974D01*
X165011949Y-71495965D01*
X164560000Y-71406067D01*
X164108051Y-71495965D01*
X163724907Y-71751974D01*
X163468898Y-72135118D01*
X163379000Y-72587067D01*
X161858000Y-72587067D01*
X161858000Y-70959302D01*
X162049417Y-70768219D01*
X162175357Y-70464923D01*
X162175643Y-70136518D01*
X162050233Y-69833002D01*
X161818219Y-69600583D01*
X161514923Y-69474643D01*
X161186518Y-69474357D01*
X160883002Y-69599767D01*
X160650583Y-69831781D01*
X160524643Y-70135077D01*
X160524632Y-70147269D01*
X160368219Y-69990583D01*
X160064923Y-69864643D01*
X159736518Y-69864357D01*
X159433002Y-69989767D01*
X159200583Y-70221781D01*
X159074643Y-70525077D01*
X159074406Y-70797174D01*
X158486000Y-71385580D01*
X158375879Y-71550387D01*
X158337210Y-71744790D01*
X158337210Y-78000091D01*
X158268806Y-77954385D01*
X157880000Y-77877047D01*
X157491194Y-77954385D01*
X157161580Y-78174627D01*
X156941338Y-78504241D01*
X156864000Y-78893047D01*
X156864000Y-80186953D01*
X156941338Y-80575759D01*
X157161580Y-80905373D01*
X157491194Y-81125615D01*
X157586460Y-81144565D01*
X157575879Y-81160400D01*
X157537210Y-81354803D01*
X157537210Y-82140091D01*
X157468806Y-82094385D01*
X157080000Y-82017047D01*
X156691194Y-82094385D01*
X156361580Y-82314627D01*
X156141338Y-82644241D01*
X156064000Y-83033047D01*
X155556000Y-83033047D01*
X155478662Y-82644241D01*
X155258420Y-82314627D01*
X154928806Y-82094385D01*
X154540000Y-82017047D01*
X154151194Y-82094385D01*
X153821580Y-82314627D01*
X153601338Y-82644241D01*
X153524000Y-83033047D01*
X153016000Y-83033047D01*
X152938662Y-82644241D01*
X152718420Y-82314627D01*
X152388806Y-82094385D01*
X152000000Y-82017047D01*
X151611194Y-82094385D01*
X151281580Y-82314627D01*
X151061338Y-82644241D01*
X150984000Y-83033047D01*
X150476000Y-83033047D01*
X150398662Y-82644241D01*
X150178420Y-82314627D01*
X149848806Y-82094385D01*
X149460000Y-82017047D01*
X149071194Y-82094385D01*
X148741580Y-82314627D01*
X148521338Y-82644241D01*
X148444000Y-83033047D01*
X147936000Y-83033047D01*
X147858662Y-82644241D01*
X147638420Y-82314627D01*
X147308806Y-82094385D01*
X146920000Y-82017047D01*
X146531194Y-82094385D01*
X146201580Y-82314627D01*
X145981338Y-82644241D01*
X145904000Y-83033047D01*
X145396000Y-83033047D01*
X145318662Y-82644241D01*
X145098420Y-82314627D01*
X144768806Y-82094385D01*
X144380000Y-82017047D01*
X143991194Y-82094385D01*
X143661580Y-82314627D01*
X143441338Y-82644241D01*
X143364000Y-83033047D01*
X142856000Y-83033047D01*
X142778662Y-82644241D01*
X142558420Y-82314627D01*
X142228806Y-82094385D01*
X141840000Y-82017047D01*
X141451194Y-82094385D01*
X141121580Y-82314627D01*
X140901338Y-82644241D01*
X140824000Y-83033047D01*
X140316000Y-83033047D01*
X140238662Y-82644241D01*
X140018420Y-82314627D01*
X139688806Y-82094385D01*
X139300000Y-82017047D01*
X138911194Y-82094385D01*
X138581580Y-82314627D01*
X138361338Y-82644241D01*
X138284000Y-83033047D01*
X133027000Y-83033047D01*
X133027000Y-78893047D01*
X139084000Y-78893047D01*
X139084000Y-80186953D01*
X139161338Y-80575759D01*
X139381580Y-80905373D01*
X139711194Y-81125615D01*
X140100000Y-81202953D01*
X140488806Y-81125615D01*
X140818420Y-80905373D01*
X141038662Y-80575759D01*
X141116000Y-80186953D01*
X141116000Y-78893047D01*
X141624000Y-78893047D01*
X141624000Y-80186953D01*
X141701338Y-80575759D01*
X141921580Y-80905373D01*
X142251194Y-81125615D01*
X142640000Y-81202953D01*
X143028806Y-81125615D01*
X143358420Y-80905373D01*
X143578662Y-80575759D01*
X143656000Y-80186953D01*
X143656000Y-78893047D01*
X144164000Y-78893047D01*
X144164000Y-80186953D01*
X144241338Y-80575759D01*
X144461580Y-80905373D01*
X144791194Y-81125615D01*
X145180000Y-81202953D01*
X145568806Y-81125615D01*
X145898420Y-80905373D01*
X146118662Y-80575759D01*
X146196000Y-80186953D01*
X146196000Y-78893047D01*
X146704000Y-78893047D01*
X146704000Y-80186953D01*
X146781338Y-80575759D01*
X147001580Y-80905373D01*
X147331194Y-81125615D01*
X147720000Y-81202953D01*
X148108806Y-81125615D01*
X148438420Y-80905373D01*
X148658662Y-80575759D01*
X148736000Y-80186953D01*
X148736000Y-78893047D01*
X149244000Y-78893047D01*
X149244000Y-80186953D01*
X149321338Y-80575759D01*
X149541580Y-80905373D01*
X149871194Y-81125615D01*
X150260000Y-81202953D01*
X150648806Y-81125615D01*
X150978420Y-80905373D01*
X151198662Y-80575759D01*
X151276000Y-80186953D01*
X151276000Y-78893047D01*
X151784000Y-78893047D01*
X151784000Y-80186953D01*
X151861338Y-80575759D01*
X152081580Y-80905373D01*
X152411194Y-81125615D01*
X152800000Y-81202953D01*
X153188806Y-81125615D01*
X153518420Y-80905373D01*
X153738662Y-80575759D01*
X153816000Y-80186953D01*
X153816000Y-78893047D01*
X154324000Y-78893047D01*
X154324000Y-80186953D01*
X154401338Y-80575759D01*
X154621580Y-80905373D01*
X154951194Y-81125615D01*
X155340000Y-81202953D01*
X155728806Y-81125615D01*
X156058420Y-80905373D01*
X156278662Y-80575759D01*
X156356000Y-80186953D01*
X156356000Y-78893047D01*
X156278662Y-78504241D01*
X156058420Y-78174627D01*
X155728806Y-77954385D01*
X155340000Y-77877047D01*
X154951194Y-77954385D01*
X154621580Y-78174627D01*
X154401338Y-78504241D01*
X154324000Y-78893047D01*
X153816000Y-78893047D01*
X153738662Y-78504241D01*
X153518420Y-78174627D01*
X153188806Y-77954385D01*
X152800000Y-77877047D01*
X152411194Y-77954385D01*
X152081580Y-78174627D01*
X151861338Y-78504241D01*
X151784000Y-78893047D01*
X151276000Y-78893047D01*
X151198662Y-78504241D01*
X150978420Y-78174627D01*
X150648806Y-77954385D01*
X150260000Y-77877047D01*
X149871194Y-77954385D01*
X149541580Y-78174627D01*
X149321338Y-78504241D01*
X149244000Y-78893047D01*
X148736000Y-78893047D01*
X148658662Y-78504241D01*
X148438420Y-78174627D01*
X148108806Y-77954385D01*
X147720000Y-77877047D01*
X147331194Y-77954385D01*
X147001580Y-78174627D01*
X146781338Y-78504241D01*
X146704000Y-78893047D01*
X146196000Y-78893047D01*
X146118662Y-78504241D01*
X145898420Y-78174627D01*
X145568806Y-77954385D01*
X145180000Y-77877047D01*
X144791194Y-77954385D01*
X144461580Y-78174627D01*
X144241338Y-78504241D01*
X144164000Y-78893047D01*
X143656000Y-78893047D01*
X143578662Y-78504241D01*
X143358420Y-78174627D01*
X143028806Y-77954385D01*
X142640000Y-77877047D01*
X142251194Y-77954385D01*
X141921580Y-78174627D01*
X141701338Y-78504241D01*
X141624000Y-78893047D01*
X141116000Y-78893047D01*
X141038662Y-78504241D01*
X140818420Y-78174627D01*
X140488806Y-77954385D01*
X140100000Y-77877047D01*
X139711194Y-77954385D01*
X139381580Y-78174627D01*
X139161338Y-78504241D01*
X139084000Y-78893047D01*
X133027000Y-78893047D01*
X133027000Y-73342945D01*
X133154000Y-73342945D01*
X133154000Y-73797055D01*
X133243898Y-74249004D01*
X133499907Y-74632148D01*
X133883051Y-74888157D01*
X134335000Y-74978055D01*
X134786949Y-74888157D01*
X135170093Y-74632148D01*
X135426102Y-74249004D01*
X135516000Y-73797055D01*
X135516000Y-73342945D01*
X135426102Y-72890996D01*
X135170093Y-72507852D01*
X134786949Y-72251843D01*
X134335000Y-72161945D01*
X133883051Y-72251843D01*
X133499907Y-72507852D01*
X133243898Y-72890996D01*
X133154000Y-73342945D01*
X133027000Y-73342945D01*
X133027000Y-68137067D01*
X133154000Y-68137067D01*
X133154000Y-69202933D01*
X133243898Y-69654882D01*
X133499907Y-70038026D01*
X133883051Y-70294035D01*
X134335000Y-70383933D01*
X134786949Y-70294035D01*
X135170093Y-70038026D01*
X135426102Y-69654882D01*
X135516000Y-69202933D01*
X135516000Y-68587067D01*
X136979000Y-68587067D01*
X136979000Y-69652933D01*
X137068898Y-70104882D01*
X137324907Y-70488026D01*
X137708051Y-70744035D01*
X138160000Y-70833933D01*
X138611949Y-70744035D01*
X138995093Y-70488026D01*
X139251102Y-70104882D01*
X139341000Y-69652933D01*
X139341000Y-68587067D01*
X139251102Y-68135118D01*
X138995093Y-67751974D01*
X138611949Y-67495965D01*
X138160000Y-67406067D01*
X137708051Y-67495965D01*
X137324907Y-67751974D01*
X137068898Y-68135118D01*
X136979000Y-68587067D01*
X135516000Y-68587067D01*
X135516000Y-68137067D01*
X135426102Y-67685118D01*
X135170093Y-67301974D01*
X134786949Y-67045965D01*
X134335000Y-66956067D01*
X133883051Y-67045965D01*
X133499907Y-67301974D01*
X133243898Y-67685118D01*
X133154000Y-68137067D01*
X133027000Y-68137067D01*
X133027000Y-62853047D01*
X134004000Y-62853047D01*
X134004000Y-64146953D01*
X134081338Y-64535759D01*
X134301580Y-64865373D01*
X134631194Y-65085615D01*
X135020000Y-65162953D01*
X135408806Y-65085615D01*
X135738420Y-64865373D01*
X135958662Y-64535759D01*
X136036000Y-64146953D01*
X136036000Y-62853047D01*
X136544000Y-62853047D01*
X136544000Y-64146953D01*
X136621338Y-64535759D01*
X136841580Y-64865373D01*
X137171194Y-65085615D01*
X137560000Y-65162953D01*
X137948806Y-65085615D01*
X138278420Y-64865373D01*
X138498662Y-64535759D01*
X138576000Y-64146953D01*
X138576000Y-62853047D01*
X139084000Y-62853047D01*
X139084000Y-64146953D01*
X139161338Y-64535759D01*
X139381580Y-64865373D01*
X139711194Y-65085615D01*
X140100000Y-65162953D01*
X140488806Y-65085615D01*
X140818420Y-64865373D01*
X141038662Y-64535759D01*
X141116000Y-64146953D01*
X141116000Y-62853047D01*
X141038662Y-62464241D01*
X140818420Y-62134627D01*
X140488806Y-61914385D01*
X140100000Y-61837047D01*
X139711194Y-61914385D01*
X139381580Y-62134627D01*
X139161338Y-62464241D01*
X139084000Y-62853047D01*
X138576000Y-62853047D01*
X138498662Y-62464241D01*
X138278420Y-62134627D01*
X137948806Y-61914385D01*
X137560000Y-61837047D01*
X137171194Y-61914385D01*
X136841580Y-62134627D01*
X136621338Y-62464241D01*
X136544000Y-62853047D01*
X136036000Y-62853047D01*
X135958662Y-62464241D01*
X135738420Y-62134627D01*
X135408806Y-61914385D01*
X135020000Y-61837047D01*
X134631194Y-61914385D01*
X134301580Y-62134627D01*
X134081338Y-62464241D01*
X134004000Y-62853047D01*
X133027000Y-62853047D01*
X133027000Y-58573047D01*
X138284000Y-58573047D01*
X138284000Y-59866953D01*
X138361338Y-60255759D01*
X138581580Y-60585373D01*
X138911194Y-60805615D01*
X139300000Y-60882953D01*
X139688806Y-60805615D01*
X140018420Y-60585373D01*
X140238662Y-60255759D01*
X140316000Y-59866953D01*
X140316000Y-58573047D01*
X140824000Y-58573047D01*
X140824000Y-59866953D01*
X140901338Y-60255759D01*
X141121580Y-60585373D01*
X141451194Y-60805615D01*
X141840000Y-60882953D01*
X142228806Y-60805615D01*
X142558420Y-60585373D01*
X142778662Y-60255759D01*
X142856000Y-59866953D01*
X142856000Y-58573047D01*
X142778662Y-58184241D01*
X142558420Y-57854627D01*
X142228806Y-57634385D01*
X141840000Y-57557047D01*
X141451194Y-57634385D01*
X141121580Y-57854627D01*
X140901338Y-58184241D01*
X140824000Y-58573047D01*
X140316000Y-58573047D01*
X140238662Y-58184241D01*
X140018420Y-57854627D01*
X139688806Y-57634385D01*
X139300000Y-57557047D01*
X138911194Y-57634385D01*
X138581580Y-57854627D01*
X138361338Y-58184241D01*
X138284000Y-58573047D01*
X133027000Y-58573047D01*
X133027000Y-54293047D01*
X137484000Y-54293047D01*
X137484000Y-55586953D01*
X137561338Y-55975759D01*
X137781580Y-56305373D01*
X138111194Y-56525615D01*
X138500000Y-56602953D01*
X138888806Y-56525615D01*
X139218420Y-56305373D01*
X139438662Y-55975759D01*
X139516000Y-55586953D01*
X139516000Y-54293047D01*
X139438662Y-53904241D01*
X139218420Y-53574627D01*
X138888806Y-53354385D01*
X138500000Y-53277047D01*
X138111194Y-53354385D01*
X137781580Y-53574627D01*
X137561338Y-53904241D01*
X137484000Y-54293047D01*
X133027000Y-54293047D01*
X133027000Y-47352606D01*
X133452606Y-46927000D01*
X141161806Y-46927000D01*
X141054643Y-47185077D01*
X141054643Y-47185077D01*
G37*
X141054643Y-47185077D02*
X141054357Y-47513482D01*
X141084689Y-47586891D01*
X140680790Y-47990790D01*
X140570669Y-48155597D01*
X140532000Y-48350000D01*
X140532000Y-53434028D01*
X140321580Y-53574627D01*
X140101338Y-53904241D01*
X140024000Y-54293047D01*
X140024000Y-55586953D01*
X140101338Y-55975759D01*
X140321580Y-56305373D01*
X140651194Y-56525615D01*
X141040000Y-56602953D01*
X141428806Y-56525615D01*
X141758420Y-56305373D01*
X141978662Y-55975759D01*
X142056000Y-55586953D01*
X142056000Y-54293047D01*
X141978662Y-53904241D01*
X141758420Y-53574627D01*
X141548000Y-53434028D01*
X141548000Y-48560420D01*
X141932874Y-48175547D01*
X142043482Y-48175643D01*
X142346998Y-48050233D01*
X142579417Y-47818219D01*
X142705357Y-47514923D01*
X142705643Y-47186518D01*
X142598413Y-46927000D01*
X143684579Y-46927000D01*
X143140790Y-47470790D01*
X143030669Y-47635597D01*
X142992000Y-47830000D01*
X142992000Y-50710000D01*
X143030669Y-50904403D01*
X143072000Y-50966259D01*
X143072000Y-53434028D01*
X142861580Y-53574627D01*
X142641338Y-53904241D01*
X142564000Y-54293047D01*
X142564000Y-55586953D01*
X142641338Y-55975759D01*
X142861580Y-56305373D01*
X143191194Y-56525615D01*
X143580000Y-56602953D01*
X143968806Y-56525615D01*
X144037210Y-56479909D01*
X144037210Y-56864357D01*
X143055580Y-57845987D01*
X142945459Y-58010794D01*
X142906790Y-58205197D01*
X142906790Y-61890115D01*
X142640000Y-61837047D01*
X142251194Y-61914385D01*
X141921580Y-62134627D01*
X141701338Y-62464241D01*
X141624000Y-62853047D01*
X141624000Y-64146953D01*
X141701338Y-64535759D01*
X141921580Y-64865373D01*
X142251194Y-65085615D01*
X142640000Y-65162953D01*
X143028806Y-65085615D01*
X143267501Y-64926123D01*
X143267501Y-69365501D01*
X143306170Y-69559904D01*
X143416291Y-69724711D01*
X143704593Y-70013013D01*
X143704357Y-70283482D01*
X143829767Y-70586998D01*
X144061781Y-70819417D01*
X144232979Y-70890505D01*
X144164643Y-71055077D01*
X144164357Y-71383482D01*
X144289767Y-71686998D01*
X144521781Y-71919417D01*
X144825077Y-72045357D01*
X145153482Y-72045643D01*
X145456998Y-71920233D01*
X145649567Y-71728000D01*
X155720000Y-71728000D01*
X155914403Y-71689331D01*
X156079210Y-71579210D01*
X158861420Y-68797000D01*
X166950000Y-68797000D01*
X166950000Y-69297000D01*
X167107834Y-69836483D01*
X167460104Y-70274500D01*
X167953181Y-70544367D01*
X168035961Y-70561904D01*
X168258000Y-70439915D01*
X168258000Y-68797000D01*
X166950000Y-68797000D01*
X158861420Y-68797000D01*
X159204420Y-68454001D01*
X159314541Y-68289194D01*
X159320956Y-68256940D01*
X159353210Y-68094790D01*
X159353210Y-68043000D01*
X166950000Y-68043000D01*
X166950000Y-68543000D01*
X168258000Y-68543000D01*
X168258000Y-66900085D01*
X168035961Y-66778096D01*
X167953181Y-66795633D01*
X167460104Y-67065500D01*
X167107834Y-67503517D01*
X166950000Y-68043000D01*
X159353210Y-68043000D01*
X159353210Y-63305197D01*
X159404000Y-63254407D01*
X159404000Y-64146953D01*
X159481338Y-64535759D01*
X159701580Y-64865373D01*
X160031194Y-65085615D01*
X160420000Y-65162953D01*
X160808806Y-65085615D01*
X161138420Y-64865373D01*
X161358662Y-64535759D01*
X161436000Y-64146953D01*
X161436000Y-63627000D01*
X161690000Y-63627000D01*
X161690000Y-64242000D01*
X161835274Y-64718341D01*
X162151777Y-65102828D01*
X162591325Y-65336928D01*
X162636888Y-65343209D01*
X162833000Y-65218969D01*
X162833000Y-63627000D01*
X163087000Y-63627000D01*
X163087000Y-65218969D01*
X163283112Y-65343209D01*
X163328675Y-65336928D01*
X163768223Y-65102828D01*
X164084726Y-64718341D01*
X164230000Y-64242000D01*
X164375274Y-64718341D01*
X164691777Y-65102828D01*
X165131325Y-65336928D01*
X165176888Y-65343209D01*
X165373000Y-65218969D01*
X165373000Y-63627000D01*
X165627000Y-63627000D01*
X165627000Y-65218969D01*
X165823112Y-65343209D01*
X165868675Y-65336928D01*
X166308223Y-65102828D01*
X166624726Y-64718341D01*
X166770000Y-64242000D01*
X166770000Y-63627000D01*
X165627000Y-63627000D01*
X165373000Y-63627000D01*
X163087000Y-63627000D01*
X162833000Y-63627000D01*
X161690000Y-63627000D01*
X161436000Y-63627000D01*
X161436000Y-62853047D01*
X161417095Y-62758000D01*
X161690000Y-62758000D01*
X161690000Y-63373000D01*
X162833000Y-63373000D01*
X162833000Y-61781031D01*
X163087000Y-61781031D01*
X163087000Y-63373000D01*
X165373000Y-63373000D01*
X165373000Y-61781031D01*
X165627000Y-61781031D01*
X165627000Y-63373000D01*
X166770000Y-63373000D01*
X166770000Y-62758000D01*
X166624726Y-62281659D01*
X166308223Y-61897172D01*
X165868675Y-61663072D01*
X165823112Y-61656791D01*
X165627000Y-61781031D01*
X165373000Y-61781031D01*
X165176888Y-61656791D01*
X165131325Y-61663072D01*
X164691777Y-61897172D01*
X164375274Y-62281659D01*
X164230000Y-62758000D01*
X164084726Y-62281659D01*
X163768223Y-61897172D01*
X163328675Y-61663072D01*
X163283112Y-61656791D01*
X163087000Y-61781031D01*
X162833000Y-61781031D01*
X162636888Y-61656791D01*
X162591325Y-61663072D01*
X162151777Y-61897172D01*
X161835274Y-62281659D01*
X161690000Y-62758000D01*
X161417095Y-62758000D01*
X161358662Y-62464241D01*
X161138420Y-62134627D01*
X160808806Y-61914385D01*
X160754771Y-61903637D01*
X160944421Y-61713987D01*
X161054541Y-61549180D01*
X161093210Y-61354777D01*
X161093210Y-59025197D01*
X161144000Y-58974407D01*
X161144000Y-59866953D01*
X161221338Y-60255759D01*
X161441580Y-60585373D01*
X161771194Y-60805615D01*
X162160000Y-60882953D01*
X162548806Y-60805615D01*
X162878420Y-60585373D01*
X163098662Y-60255759D01*
X163176000Y-59866953D01*
X163176000Y-58573047D01*
X163098662Y-58184241D01*
X162878420Y-57854627D01*
X162548806Y-57634385D01*
X162494770Y-57623637D01*
X163319210Y-56799197D01*
X163429331Y-56634391D01*
X163442780Y-56566777D01*
X163468000Y-56439987D01*
X163468000Y-50368440D01*
X163840065Y-50119834D01*
X164001400Y-49878379D01*
X164001400Y-50202309D01*
X164098073Y-50435698D01*
X164276701Y-50614327D01*
X164510090Y-50711000D01*
X165214250Y-50711000D01*
X165373000Y-50552250D01*
X165373000Y-49187000D01*
X165627000Y-49187000D01*
X165627000Y-50552250D01*
X165785750Y-50711000D01*
X166489910Y-50711000D01*
X166723299Y-50614327D01*
X166901927Y-50435698D01*
X166998600Y-50202309D01*
X166998600Y-49345750D01*
X166839850Y-49187000D01*
X165627000Y-49187000D01*
X165373000Y-49187000D01*
X165353000Y-49187000D01*
X165353000Y-48933000D01*
X165373000Y-48933000D01*
X165373000Y-47567750D01*
X165627000Y-47567750D01*
X165627000Y-48933000D01*
X166839850Y-48933000D01*
X166998600Y-48774250D01*
X166998600Y-47917691D01*
X166901927Y-47684302D01*
X166723299Y-47505673D01*
X166489910Y-47409000D01*
X165785750Y-47409000D01*
X165627000Y-47567750D01*
X165373000Y-47567750D01*
X165214250Y-47409000D01*
X164510090Y-47409000D01*
X164276701Y-47505673D01*
X164098073Y-47684302D01*
X164001400Y-47917691D01*
X164001400Y-48241621D01*
X163840065Y-48000166D01*
X163436288Y-47730371D01*
X162960000Y-47635631D01*
X162483712Y-47730371D01*
X162079935Y-48000166D01*
X161810140Y-48403943D01*
X161715400Y-48880231D01*
X161715400Y-49239769D01*
X161810140Y-49716057D01*
X162079935Y-50119834D01*
X162452000Y-50368440D01*
X162452000Y-56229567D01*
X160534094Y-58147473D01*
X160338420Y-57854627D01*
X160008806Y-57634385D01*
X159620000Y-57557047D01*
X159231194Y-57634385D01*
X158901580Y-57854627D01*
X158681338Y-58184241D01*
X158604000Y-58573047D01*
X158604000Y-59866953D01*
X158681338Y-60255759D01*
X158901580Y-60585373D01*
X159231194Y-60805615D01*
X159620000Y-60882953D01*
X160008806Y-60805615D01*
X160077210Y-60759909D01*
X160077210Y-61144356D01*
X158794094Y-62427473D01*
X158598420Y-62134627D01*
X158268806Y-61914385D01*
X157880000Y-61837047D01*
X157491194Y-61914385D01*
X157161580Y-62134627D01*
X156941338Y-62464241D01*
X156864000Y-62853047D01*
X156864000Y-64146953D01*
X156941338Y-64535759D01*
X157161580Y-64865373D01*
X157491194Y-65085615D01*
X157880000Y-65162953D01*
X158268806Y-65085615D01*
X158337210Y-65039909D01*
X158337210Y-67884369D01*
X155509580Y-70712000D01*
X149965298Y-70712000D01*
X150159417Y-70518219D01*
X150285357Y-70214923D01*
X150285643Y-69886518D01*
X150160233Y-69583002D01*
X149928219Y-69350583D01*
X149802790Y-69298500D01*
X149802790Y-65039909D01*
X149871194Y-65085615D01*
X150260000Y-65162953D01*
X150648806Y-65085615D01*
X150978420Y-64865373D01*
X151198662Y-64535759D01*
X151276000Y-64146953D01*
X151276000Y-62853047D01*
X151784000Y-62853047D01*
X151784000Y-64146953D01*
X151861338Y-64535759D01*
X152081580Y-64865373D01*
X152411194Y-65085615D01*
X152800000Y-65162953D01*
X153188806Y-65085615D01*
X153518420Y-64865373D01*
X153738662Y-64535759D01*
X153816000Y-64146953D01*
X153816000Y-62853047D01*
X154324000Y-62853047D01*
X154324000Y-64146953D01*
X154401338Y-64535759D01*
X154621580Y-64865373D01*
X154951194Y-65085615D01*
X155340000Y-65162953D01*
X155728806Y-65085615D01*
X156058420Y-64865373D01*
X156278662Y-64535759D01*
X156356000Y-64146953D01*
X156356000Y-62853047D01*
X156278662Y-62464241D01*
X156058420Y-62134627D01*
X155728806Y-61914385D01*
X155340000Y-61837047D01*
X154951194Y-61914385D01*
X154621580Y-62134627D01*
X154401338Y-62464241D01*
X154324000Y-62853047D01*
X153816000Y-62853047D01*
X153738662Y-62464241D01*
X153518420Y-62134627D01*
X153188806Y-61914385D01*
X152800000Y-61837047D01*
X152411194Y-61914385D01*
X152081580Y-62134627D01*
X151861338Y-62464241D01*
X151784000Y-62853047D01*
X151276000Y-62853047D01*
X151198662Y-62464241D01*
X150978420Y-62134627D01*
X150648806Y-61914385D01*
X150594770Y-61903637D01*
X150784420Y-61713987D01*
X150894541Y-61549181D01*
X150906710Y-61488000D01*
X150933210Y-61354777D01*
X150933210Y-58205197D01*
X150894541Y-58010794D01*
X150827462Y-57910403D01*
X150784421Y-57845987D01*
X150742790Y-57804356D01*
X150742790Y-56479909D01*
X150811194Y-56525615D01*
X151200000Y-56602953D01*
X151588806Y-56525615D01*
X151657210Y-56479909D01*
X151657210Y-57340370D01*
X151640790Y-57356790D01*
X151530669Y-57521597D01*
X151492452Y-57713726D01*
X151281580Y-57854627D01*
X151061338Y-58184241D01*
X150984000Y-58573047D01*
X150984000Y-59866953D01*
X151061338Y-60255759D01*
X151281580Y-60585373D01*
X151611194Y-60805615D01*
X152000000Y-60882953D01*
X152388806Y-60805615D01*
X152718420Y-60585373D01*
X152938662Y-60255759D01*
X153016000Y-59866953D01*
X153016000Y-58573047D01*
X153524000Y-58573047D01*
X153524000Y-59866953D01*
X153601338Y-60255759D01*
X153821580Y-60585373D01*
X154151194Y-60805615D01*
X154540000Y-60882953D01*
X154928806Y-60805615D01*
X155258420Y-60585373D01*
X155478662Y-60255759D01*
X155556000Y-59866953D01*
X155556000Y-58573047D01*
X156064000Y-58573047D01*
X156064000Y-59866953D01*
X156141338Y-60255759D01*
X156361580Y-60585373D01*
X156691194Y-60805615D01*
X157080000Y-60882953D01*
X157468806Y-60805615D01*
X157798420Y-60585373D01*
X158018662Y-60255759D01*
X158096000Y-59866953D01*
X158096000Y-58573047D01*
X158018662Y-58184241D01*
X157798420Y-57854627D01*
X157468806Y-57634385D01*
X157080000Y-57557047D01*
X156691194Y-57634385D01*
X156361580Y-57854627D01*
X156141338Y-58184241D01*
X156064000Y-58573047D01*
X155556000Y-58573047D01*
X155478662Y-58184241D01*
X155258420Y-57854627D01*
X154928806Y-57634385D01*
X154540000Y-57557047D01*
X154151194Y-57634385D01*
X153821580Y-57854627D01*
X153601338Y-58184241D01*
X153524000Y-58573047D01*
X153016000Y-58573047D01*
X152938662Y-58184241D01*
X152718420Y-57854627D01*
X152609879Y-57782102D01*
X152634541Y-57745194D01*
X152644088Y-57697197D01*
X152673210Y-57550790D01*
X152673210Y-54293047D01*
X152724000Y-54293047D01*
X152724000Y-55586953D01*
X152801338Y-55975759D01*
X153021580Y-56305373D01*
X153351194Y-56525615D01*
X153740000Y-56602953D01*
X154128806Y-56525615D01*
X154458420Y-56305373D01*
X154678662Y-55975759D01*
X154756000Y-55586953D01*
X154756000Y-54293047D01*
X155264000Y-54293047D01*
X155264000Y-55586953D01*
X155341338Y-55975759D01*
X155561580Y-56305373D01*
X155891194Y-56525615D01*
X156280000Y-56602953D01*
X156668806Y-56525615D01*
X156998420Y-56305373D01*
X157218662Y-55975759D01*
X157296000Y-55586953D01*
X157296000Y-54293047D01*
X157804000Y-54293047D01*
X157804000Y-55586953D01*
X157881338Y-55975759D01*
X158101580Y-56305373D01*
X158431194Y-56525615D01*
X158820000Y-56602953D01*
X159208806Y-56525615D01*
X159538420Y-56305373D01*
X159758662Y-55975759D01*
X159836000Y-55586953D01*
X159836000Y-54293047D01*
X160344000Y-54293047D01*
X160344000Y-55586953D01*
X160421338Y-55975759D01*
X160641580Y-56305373D01*
X160971194Y-56525615D01*
X161360000Y-56602953D01*
X161748806Y-56525615D01*
X162078420Y-56305373D01*
X162298662Y-55975759D01*
X162376000Y-55586953D01*
X162376000Y-54293047D01*
X162298662Y-53904241D01*
X162078420Y-53574627D01*
X161748806Y-53354385D01*
X161360000Y-53277047D01*
X160971194Y-53354385D01*
X160641580Y-53574627D01*
X160421338Y-53904241D01*
X160344000Y-54293047D01*
X159836000Y-54293047D01*
X159758662Y-53904241D01*
X159538420Y-53574627D01*
X159208806Y-53354385D01*
X158820000Y-53277047D01*
X158431194Y-53354385D01*
X158101580Y-53574627D01*
X157881338Y-53904241D01*
X157804000Y-54293047D01*
X157296000Y-54293047D01*
X157218662Y-53904241D01*
X156998420Y-53574627D01*
X156668806Y-53354385D01*
X156280000Y-53277047D01*
X155891194Y-53354385D01*
X155561580Y-53574627D01*
X155341338Y-53904241D01*
X155264000Y-54293047D01*
X154756000Y-54293047D01*
X154678662Y-53904241D01*
X154458420Y-53574627D01*
X154128806Y-53354385D01*
X153740000Y-53277047D01*
X153351194Y-53354385D01*
X153021580Y-53574627D01*
X152801338Y-53904241D01*
X152724000Y-54293047D01*
X152673210Y-54293047D01*
X152673210Y-53715210D01*
X155699210Y-50689210D01*
X155809331Y-50524404D01*
X155839182Y-50374332D01*
X156220065Y-50119834D01*
X156489860Y-49716057D01*
X156584600Y-49239769D01*
X156584600Y-48880231D01*
X156489860Y-48403943D01*
X156220065Y-48000166D01*
X155902536Y-47788000D01*
X157317464Y-47788000D01*
X156999935Y-48000166D01*
X156730140Y-48403943D01*
X156635400Y-48880231D01*
X156635400Y-49239769D01*
X156730140Y-49716057D01*
X156999935Y-50119834D01*
X157403712Y-50389629D01*
X157880000Y-50484369D01*
X158356288Y-50389629D01*
X158760065Y-50119834D01*
X159029860Y-49716057D01*
X159124600Y-49239769D01*
X159124600Y-48880231D01*
X159029860Y-48403943D01*
X158760065Y-48000166D01*
X158442536Y-47788000D01*
X159699580Y-47788000D01*
X159762819Y-47851239D01*
X159539935Y-48000166D01*
X159270140Y-48403943D01*
X159175400Y-48880231D01*
X159175400Y-49239769D01*
X159270140Y-49716057D01*
X159539935Y-50119834D01*
X159943712Y-50389629D01*
X160420000Y-50484369D01*
X160896288Y-50389629D01*
X161300065Y-50119834D01*
X161569860Y-49716057D01*
X161664600Y-49239769D01*
X161664600Y-48880231D01*
X161569860Y-48403943D01*
X161300065Y-48000166D01*
X160919182Y-47745668D01*
X160889331Y-47595597D01*
X160779210Y-47430790D01*
X160275420Y-46927000D01*
X169347394Y-46927000D01*
X169773000Y-47352606D01*
X169773000Y-48558761D01*
X167564000Y-48558761D01*
X167564000Y-64661239D01*
X169773000Y-64661239D01*
X169773000Y-67882352D01*
X169662166Y-67503517D01*
X169309896Y-67065500D01*
X168816819Y-66795633D01*
X168734039Y-66778096D01*
X168512000Y-66900085D01*
X168512000Y-68543000D01*
X168532000Y-68543000D01*
X168532000Y-68797000D01*
X168512000Y-68797000D01*
X168512000Y-70439915D01*
X168734039Y-70561904D01*
X168816819Y-70544367D01*
X169309896Y-70274500D01*
X169662166Y-69836483D01*
X169773000Y-69457648D01*
X169773000Y-94747394D01*
X169347394Y-95173000D01*
X133452606Y-95173000D01*
X133027000Y-94747394D01*
X133027000Y-92060231D01*
X151555400Y-92060231D01*
X151555400Y-92419769D01*
X151650140Y-92896057D01*
X151919935Y-93299834D01*
X152323712Y-93569629D01*
X152800000Y-93664369D01*
X153276288Y-93569629D01*
X153680065Y-93299834D01*
X153949860Y-92896057D01*
X154044600Y-92419769D01*
X154044600Y-92060231D01*
X154095400Y-92060231D01*
X154095400Y-92419769D01*
X154190140Y-92896057D01*
X154459935Y-93299834D01*
X154863712Y-93569629D01*
X155340000Y-93664369D01*
X155816288Y-93569629D01*
X156220065Y-93299834D01*
X156489860Y-92896057D01*
X156584600Y-92419769D01*
X156584600Y-92060231D01*
X156489860Y-91583943D01*
X156220065Y-91180166D01*
X155816288Y-90910371D01*
X155340000Y-90815631D01*
X154863712Y-90910371D01*
X154459935Y-91180166D01*
X154190140Y-91583943D01*
X154095400Y-92060231D01*
X154044600Y-92060231D01*
X153949860Y-91583943D01*
X153680065Y-91180166D01*
X153276288Y-90910371D01*
X152800000Y-90815631D01*
X152323712Y-90910371D01*
X151919935Y-91180166D01*
X151650140Y-91583943D01*
X151555400Y-92060231D01*
X133027000Y-92060231D01*
X133027000Y-87173047D01*
X137484000Y-87173047D01*
X137484000Y-88466953D01*
X137561338Y-88855759D01*
X137781580Y-89185373D01*
X138111194Y-89405615D01*
X138500000Y-89482953D01*
X138888806Y-89405615D01*
X139218420Y-89185373D01*
X139438662Y-88855759D01*
X139516000Y-88466953D01*
X139516000Y-87173047D01*
X140024000Y-87173047D01*
X140024000Y-88466953D01*
X140101338Y-88855759D01*
X140321580Y-89185373D01*
X140651194Y-89405615D01*
X141040000Y-89482953D01*
X141428806Y-89405615D01*
X141758420Y-89185373D01*
X141978662Y-88855759D01*
X142056000Y-88466953D01*
X142056000Y-87173047D01*
X142564000Y-87173047D01*
X142564000Y-88466953D01*
X142641338Y-88855759D01*
X142861580Y-89185373D01*
X143191194Y-89405615D01*
X143580000Y-89482953D01*
X143968806Y-89405615D01*
X144298420Y-89185373D01*
X144518662Y-88855759D01*
X144596000Y-88466953D01*
X144596000Y-87173047D01*
X145104000Y-87173047D01*
X145104000Y-88466953D01*
X145181338Y-88855759D01*
X145401580Y-89185373D01*
X145731194Y-89405615D01*
X146120000Y-89482953D01*
X146508806Y-89405615D01*
X146838420Y-89185373D01*
X147058662Y-88855759D01*
X147136000Y-88466953D01*
X147136000Y-87173047D01*
X147644000Y-87173047D01*
X147644000Y-88466953D01*
X147721338Y-88855759D01*
X147941580Y-89185373D01*
X148271194Y-89405615D01*
X148660000Y-89482953D01*
X149048806Y-89405615D01*
X149378420Y-89185373D01*
X149598662Y-88855759D01*
X149676000Y-88466953D01*
X149676000Y-87173047D01*
X150184000Y-87173047D01*
X150184000Y-88466953D01*
X150261338Y-88855759D01*
X150481580Y-89185373D01*
X150811194Y-89405615D01*
X151200000Y-89482953D01*
X151588806Y-89405615D01*
X151918420Y-89185373D01*
X152138662Y-88855759D01*
X152216000Y-88466953D01*
X152216000Y-87173047D01*
X152724000Y-87173047D01*
X152724000Y-88466953D01*
X152801338Y-88855759D01*
X153021580Y-89185373D01*
X153351194Y-89405615D01*
X153740000Y-89482953D01*
X154128806Y-89405615D01*
X154458420Y-89185373D01*
X154678662Y-88855759D01*
X154756000Y-88466953D01*
X154756000Y-87173047D01*
X155264000Y-87173047D01*
X155264000Y-88466953D01*
X155341338Y-88855759D01*
X155561580Y-89185373D01*
X155891194Y-89405615D01*
X156280000Y-89482953D01*
X156668806Y-89405615D01*
X156998420Y-89185373D01*
X157218662Y-88855759D01*
X157296000Y-88466953D01*
X157296000Y-87173047D01*
X157218662Y-86784241D01*
X156998420Y-86454627D01*
X156668806Y-86234385D01*
X156280000Y-86157047D01*
X155891194Y-86234385D01*
X155561580Y-86454627D01*
X155341338Y-86784241D01*
X155264000Y-87173047D01*
X154756000Y-87173047D01*
X154678662Y-86784241D01*
X154458420Y-86454627D01*
X154128806Y-86234385D01*
X153740000Y-86157047D01*
X153351194Y-86234385D01*
X153021580Y-86454627D01*
X152801338Y-86784241D01*
X152724000Y-87173047D01*
X152216000Y-87173047D01*
X152138662Y-86784241D01*
X151918420Y-86454627D01*
X151588806Y-86234385D01*
X151200000Y-86157047D01*
X150811194Y-86234385D01*
X150481580Y-86454627D01*
X150261338Y-86784241D01*
X150184000Y-87173047D01*
X149676000Y-87173047D01*
X149598662Y-86784241D01*
X149378420Y-86454627D01*
X149048806Y-86234385D01*
X148660000Y-86157047D01*
X148271194Y-86234385D01*
X147941580Y-86454627D01*
X147721338Y-86784241D01*
X147644000Y-87173047D01*
X147136000Y-87173047D01*
X147058662Y-86784241D01*
X146838420Y-86454627D01*
X146508806Y-86234385D01*
X146120000Y-86157047D01*
X145731194Y-86234385D01*
X145401580Y-86454627D01*
X145181338Y-86784241D01*
X145104000Y-87173047D01*
X144596000Y-87173047D01*
X144518662Y-86784241D01*
X144298420Y-86454627D01*
X143968806Y-86234385D01*
X143580000Y-86157047D01*
X143191194Y-86234385D01*
X142861580Y-86454627D01*
X142641338Y-86784241D01*
X142564000Y-87173047D01*
X142056000Y-87173047D01*
X141978662Y-86784241D01*
X141758420Y-86454627D01*
X141428806Y-86234385D01*
X141040000Y-86157047D01*
X140651194Y-86234385D01*
X140321580Y-86454627D01*
X140101338Y-86784241D01*
X140024000Y-87173047D01*
X139516000Y-87173047D01*
X139438662Y-86784241D01*
X139218420Y-86454627D01*
X138888806Y-86234385D01*
X138500000Y-86157047D01*
X138111194Y-86234385D01*
X137781580Y-86454627D01*
X137561338Y-86784241D01*
X137484000Y-87173047D01*
X133027000Y-87173047D01*
X133027000Y-83033047D01*
X138284000Y-83033047D01*
X138284000Y-84326953D01*
X138361338Y-84715759D01*
X138581580Y-85045373D01*
X138911194Y-85265615D01*
X139300000Y-85342953D01*
X139688806Y-85265615D01*
X140018420Y-85045373D01*
X140238662Y-84715759D01*
X140316000Y-84326953D01*
X140316000Y-83033047D01*
X140824000Y-83033047D01*
X140824000Y-84326953D01*
X140901338Y-84715759D01*
X141121580Y-85045373D01*
X141451194Y-85265615D01*
X141840000Y-85342953D01*
X142228806Y-85265615D01*
X142558420Y-85045373D01*
X142778662Y-84715759D01*
X142856000Y-84326953D01*
X142856000Y-83033047D01*
X143364000Y-83033047D01*
X143364000Y-84326953D01*
X143441338Y-84715759D01*
X143661580Y-85045373D01*
X143991194Y-85265615D01*
X144380000Y-85342953D01*
X144768806Y-85265615D01*
X145098420Y-85045373D01*
X145318662Y-84715759D01*
X145396000Y-84326953D01*
X145396000Y-83033047D01*
X145904000Y-83033047D01*
X145904000Y-84326953D01*
X145981338Y-84715759D01*
X146201580Y-85045373D01*
X146531194Y-85265615D01*
X146920000Y-85342953D01*
X147308806Y-85265615D01*
X147638420Y-85045373D01*
X147858662Y-84715759D01*
X147936000Y-84326953D01*
X147936000Y-83033047D01*
X148444000Y-83033047D01*
X148444000Y-84326953D01*
X148521338Y-84715759D01*
X148741580Y-85045373D01*
X149071194Y-85265615D01*
X149460000Y-85342953D01*
X149848806Y-85265615D01*
X150178420Y-85045373D01*
X150398662Y-84715759D01*
X150476000Y-84326953D01*
X150476000Y-83033047D01*
X150984000Y-83033047D01*
X150984000Y-84326953D01*
X151061338Y-84715759D01*
X151281580Y-85045373D01*
X151611194Y-85265615D01*
X152000000Y-85342953D01*
X152388806Y-85265615D01*
X152718420Y-85045373D01*
X152938662Y-84715759D01*
X153016000Y-84326953D01*
X153016000Y-83033047D01*
X153524000Y-83033047D01*
X153524000Y-84326953D01*
X153601338Y-84715759D01*
X153821580Y-85045373D01*
X154151194Y-85265615D01*
X154540000Y-85342953D01*
X154928806Y-85265615D01*
X155258420Y-85045373D01*
X155478662Y-84715759D01*
X155556000Y-84326953D01*
X155556000Y-83033047D01*
X156064000Y-83033047D01*
X156064000Y-84326953D01*
X156141338Y-84715759D01*
X156361580Y-85045373D01*
X156691194Y-85265615D01*
X157080000Y-85342953D01*
X157346790Y-85289885D01*
X157346790Y-90944790D01*
X157347425Y-90947981D01*
X156999935Y-91180166D01*
X156730140Y-91583943D01*
X156635400Y-92060231D01*
X156635400Y-92419769D01*
X156730140Y-92896057D01*
X156999935Y-93299834D01*
X157403712Y-93569629D01*
X157880000Y-93664369D01*
X158356288Y-93569629D01*
X158760065Y-93299834D01*
X159029860Y-92896057D01*
X159124600Y-92419769D01*
X159124600Y-92060231D01*
X159029860Y-91583943D01*
X158760065Y-91180166D01*
X158379182Y-90925668D01*
X158362790Y-90843260D01*
X158362790Y-89359909D01*
X158431194Y-89405615D01*
X158820000Y-89482953D01*
X159208806Y-89405615D01*
X159538420Y-89185373D01*
X159758662Y-88855759D01*
X159782000Y-88738430D01*
X159782000Y-90840000D01*
X159813327Y-90997492D01*
X159539935Y-91180166D01*
X159270140Y-91583943D01*
X159175400Y-92060231D01*
X159175400Y-92419769D01*
X159270140Y-92896057D01*
X159539935Y-93299834D01*
X159943712Y-93569629D01*
X160420000Y-93664369D01*
X160896288Y-93569629D01*
X161300065Y-93299834D01*
X161569860Y-92896057D01*
X161664600Y-92419769D01*
X161664600Y-92060231D01*
X161569860Y-91583943D01*
X161300065Y-91180166D01*
X160919182Y-90925668D01*
X160889331Y-90775597D01*
X160798000Y-90638911D01*
X160798000Y-89289890D01*
X160971194Y-89405615D01*
X161360000Y-89482953D01*
X161748806Y-89405615D01*
X162078420Y-89185373D01*
X162298662Y-88855759D01*
X162376000Y-88466953D01*
X162376000Y-87173047D01*
X162298662Y-86784241D01*
X162078420Y-86454627D01*
X161748806Y-86234385D01*
X161360000Y-86157047D01*
X160971194Y-86234385D01*
X160798000Y-86350110D01*
X160798000Y-85200433D01*
X160944420Y-85054013D01*
X161054541Y-84889206D01*
X161093210Y-84694803D01*
X161093210Y-83033047D01*
X161144000Y-83033047D01*
X161144000Y-84326953D01*
X161221338Y-84715759D01*
X161441580Y-85045373D01*
X161771194Y-85265615D01*
X162160000Y-85342953D01*
X162548806Y-85265615D01*
X162878420Y-85045373D01*
X163098662Y-84715759D01*
X163176000Y-84326953D01*
X163176000Y-83033047D01*
X163098662Y-82644241D01*
X162878420Y-82314627D01*
X162548806Y-82094385D01*
X162160000Y-82017047D01*
X161771194Y-82094385D01*
X161441580Y-82314627D01*
X161221338Y-82644241D01*
X161144000Y-83033047D01*
X161093210Y-83033047D01*
X161093210Y-81209210D01*
X161054541Y-81014807D01*
X161054541Y-81014806D01*
X161029879Y-80977898D01*
X161138420Y-80905373D01*
X161358662Y-80575759D01*
X161436000Y-80186953D01*
X161436000Y-79667000D01*
X161690000Y-79667000D01*
X161690000Y-80282000D01*
X161835274Y-80758341D01*
X162151777Y-81142828D01*
X162591325Y-81376928D01*
X162636888Y-81383209D01*
X162833000Y-81258969D01*
X162833000Y-79667000D01*
X161690000Y-79667000D01*
X161436000Y-79667000D01*
X161436000Y-78893047D01*
X161358662Y-78504241D01*
X161138420Y-78174627D01*
X160808806Y-77954385D01*
X160420000Y-77877047D01*
X160031194Y-77954385D01*
X159701580Y-78174627D01*
X159481338Y-78504241D01*
X159404000Y-78893047D01*
X159404000Y-80186953D01*
X159481338Y-80575759D01*
X159701580Y-80905373D01*
X159912452Y-81046274D01*
X159950669Y-81238403D01*
X160060790Y-81403210D01*
X160077210Y-81419630D01*
X160077210Y-82140091D01*
X160008806Y-82094385D01*
X159620000Y-82017047D01*
X159231194Y-82094385D01*
X158901580Y-82314627D01*
X158681338Y-82644241D01*
X158604000Y-83033047D01*
X158604000Y-84326953D01*
X158681338Y-84715759D01*
X158901580Y-85045373D01*
X159231194Y-85265615D01*
X159620000Y-85342953D01*
X159782000Y-85310729D01*
X159782000Y-86901570D01*
X159758662Y-86784241D01*
X159538420Y-86454627D01*
X159208806Y-86234385D01*
X158820000Y-86157047D01*
X158431194Y-86234385D01*
X158362790Y-86280091D01*
X158362790Y-85095644D01*
X158404421Y-85054013D01*
X158514541Y-84889206D01*
X158553210Y-84694803D01*
X158553210Y-81565223D01*
X159204420Y-80914013D01*
X159314541Y-80749206D01*
X159353210Y-80554803D01*
X159353210Y-71955210D01*
X159793013Y-71515407D01*
X160063482Y-71515643D01*
X160366998Y-71390233D01*
X160599417Y-71158219D01*
X160725357Y-70854923D01*
X160725368Y-70842731D01*
X160842000Y-70959567D01*
X160842000Y-75949987D01*
X160880669Y-76144390D01*
X160990790Y-76309197D01*
X162456482Y-77774889D01*
X162151777Y-77937172D01*
X161835274Y-78321659D01*
X161690000Y-78798000D01*
X161690000Y-79413000D01*
X162833000Y-79413000D01*
X162833000Y-79393000D01*
X163087000Y-79393000D01*
X163087000Y-79413000D01*
X163107000Y-79413000D01*
X163107000Y-79667000D01*
X163087000Y-79667000D01*
X163087000Y-81258969D01*
X163283112Y-81383209D01*
X163328675Y-81376928D01*
X163569600Y-81248613D01*
X163569600Y-90759580D01*
X163421709Y-90907471D01*
X162960000Y-90815631D01*
X162483712Y-90910371D01*
X162079935Y-91180166D01*
X161810140Y-91583943D01*
X161715400Y-92060231D01*
X161715400Y-92419769D01*
X161810140Y-92896057D01*
X162079935Y-93299834D01*
X162483712Y-93569629D01*
X162960000Y-93664369D01*
X163436288Y-93569629D01*
X163840065Y-93299834D01*
X164001400Y-93058379D01*
X164001400Y-93382309D01*
X164098073Y-93615698D01*
X164276701Y-93794327D01*
X164510090Y-93891000D01*
X165214250Y-93891000D01*
X165373000Y-93732250D01*
X165373000Y-92367000D01*
X165627000Y-92367000D01*
X165627000Y-93732250D01*
X165785750Y-93891000D01*
X166489910Y-93891000D01*
X166723299Y-93794327D01*
X166901927Y-93615698D01*
X166998600Y-93382309D01*
X166998600Y-92525750D01*
X166839850Y-92367000D01*
X165627000Y-92367000D01*
X165373000Y-92367000D01*
X165353000Y-92367000D01*
X165353000Y-92113000D01*
X165373000Y-92113000D01*
X165373000Y-90747750D01*
X165627000Y-90747750D01*
X165627000Y-92113000D01*
X166839850Y-92113000D01*
X166998600Y-91954250D01*
X166998600Y-91097691D01*
X166901927Y-90864302D01*
X166723299Y-90685673D01*
X166489910Y-90589000D01*
X165785750Y-90589000D01*
X165627000Y-90747750D01*
X165373000Y-90747750D01*
X165214250Y-90589000D01*
X164585600Y-90589000D01*
X164585600Y-80612069D01*
X164781580Y-80905373D01*
X165111194Y-81125615D01*
X165500000Y-81202953D01*
X165888806Y-81125615D01*
X166218420Y-80905373D01*
X166438662Y-80575759D01*
X166516000Y-80186953D01*
X166516000Y-78893047D01*
X166438662Y-78504241D01*
X166218420Y-78174627D01*
X165888806Y-77954385D01*
X165500000Y-77877047D01*
X165111194Y-77954385D01*
X164781580Y-78174627D01*
X164561338Y-78504241D01*
X164556229Y-78529927D01*
X164546931Y-78483184D01*
X164436810Y-78318377D01*
X161858000Y-75739567D01*
X161858000Y-72587067D01*
X163379000Y-72587067D01*
X163379000Y-73652933D01*
X163468898Y-74104882D01*
X163724907Y-74488026D01*
X164108051Y-74744035D01*
X164560000Y-74833933D01*
X165011949Y-74744035D01*
X165395093Y-74488026D01*
X165651102Y-74104882D01*
X165741000Y-73652933D01*
X165741000Y-73342945D01*
X167204000Y-73342945D01*
X167204000Y-73797055D01*
X167293898Y-74249004D01*
X167549907Y-74632148D01*
X167933051Y-74888157D01*
X168385000Y-74978055D01*
X168836949Y-74888157D01*
X169220093Y-74632148D01*
X169476102Y-74249004D01*
X169566000Y-73797055D01*
X169566000Y-73342945D01*
X169476102Y-72890996D01*
X169220093Y-72507852D01*
X168836949Y-72251843D01*
X168385000Y-72161945D01*
X167933051Y-72251843D01*
X167549907Y-72507852D01*
X167293898Y-72890996D01*
X167204000Y-73342945D01*
X165741000Y-73342945D01*
X165741000Y-72587067D01*
X165651102Y-72135118D01*
X165395093Y-71751974D01*
X165011949Y-71495965D01*
X164560000Y-71406067D01*
X164108051Y-71495965D01*
X163724907Y-71751974D01*
X163468898Y-72135118D01*
X163379000Y-72587067D01*
X161858000Y-72587067D01*
X161858000Y-70959302D01*
X162049417Y-70768219D01*
X162175357Y-70464923D01*
X162175643Y-70136518D01*
X162050233Y-69833002D01*
X161818219Y-69600583D01*
X161514923Y-69474643D01*
X161186518Y-69474357D01*
X160883002Y-69599767D01*
X160650583Y-69831781D01*
X160524643Y-70135077D01*
X160524632Y-70147269D01*
X160368219Y-69990583D01*
X160064923Y-69864643D01*
X159736518Y-69864357D01*
X159433002Y-69989767D01*
X159200583Y-70221781D01*
X159074643Y-70525077D01*
X159074406Y-70797174D01*
X158486000Y-71385580D01*
X158375879Y-71550387D01*
X158337210Y-71744790D01*
X158337210Y-78000091D01*
X158268806Y-77954385D01*
X157880000Y-77877047D01*
X157491194Y-77954385D01*
X157161580Y-78174627D01*
X156941338Y-78504241D01*
X156864000Y-78893047D01*
X156864000Y-80186953D01*
X156941338Y-80575759D01*
X157161580Y-80905373D01*
X157491194Y-81125615D01*
X157586460Y-81144565D01*
X157575879Y-81160400D01*
X157537210Y-81354803D01*
X157537210Y-82140091D01*
X157468806Y-82094385D01*
X157080000Y-82017047D01*
X156691194Y-82094385D01*
X156361580Y-82314627D01*
X156141338Y-82644241D01*
X156064000Y-83033047D01*
X155556000Y-83033047D01*
X155478662Y-82644241D01*
X155258420Y-82314627D01*
X154928806Y-82094385D01*
X154540000Y-82017047D01*
X154151194Y-82094385D01*
X153821580Y-82314627D01*
X153601338Y-82644241D01*
X153524000Y-83033047D01*
X153016000Y-83033047D01*
X152938662Y-82644241D01*
X152718420Y-82314627D01*
X152388806Y-82094385D01*
X152000000Y-82017047D01*
X151611194Y-82094385D01*
X151281580Y-82314627D01*
X151061338Y-82644241D01*
X150984000Y-83033047D01*
X150476000Y-83033047D01*
X150398662Y-82644241D01*
X150178420Y-82314627D01*
X149848806Y-82094385D01*
X149460000Y-82017047D01*
X149071194Y-82094385D01*
X148741580Y-82314627D01*
X148521338Y-82644241D01*
X148444000Y-83033047D01*
X147936000Y-83033047D01*
X147858662Y-82644241D01*
X147638420Y-82314627D01*
X147308806Y-82094385D01*
X146920000Y-82017047D01*
X146531194Y-82094385D01*
X146201580Y-82314627D01*
X145981338Y-82644241D01*
X145904000Y-83033047D01*
X145396000Y-83033047D01*
X145318662Y-82644241D01*
X145098420Y-82314627D01*
X144768806Y-82094385D01*
X144380000Y-82017047D01*
X143991194Y-82094385D01*
X143661580Y-82314627D01*
X143441338Y-82644241D01*
X143364000Y-83033047D01*
X142856000Y-83033047D01*
X142778662Y-82644241D01*
X142558420Y-82314627D01*
X142228806Y-82094385D01*
X141840000Y-82017047D01*
X141451194Y-82094385D01*
X141121580Y-82314627D01*
X140901338Y-82644241D01*
X140824000Y-83033047D01*
X140316000Y-83033047D01*
X140238662Y-82644241D01*
X140018420Y-82314627D01*
X139688806Y-82094385D01*
X139300000Y-82017047D01*
X138911194Y-82094385D01*
X138581580Y-82314627D01*
X138361338Y-82644241D01*
X138284000Y-83033047D01*
X133027000Y-83033047D01*
X133027000Y-78893047D01*
X139084000Y-78893047D01*
X139084000Y-80186953D01*
X139161338Y-80575759D01*
X139381580Y-80905373D01*
X139711194Y-81125615D01*
X140100000Y-81202953D01*
X140488806Y-81125615D01*
X140818420Y-80905373D01*
X141038662Y-80575759D01*
X141116000Y-80186953D01*
X141116000Y-78893047D01*
X141624000Y-78893047D01*
X141624000Y-80186953D01*
X141701338Y-80575759D01*
X141921580Y-80905373D01*
X142251194Y-81125615D01*
X142640000Y-81202953D01*
X143028806Y-81125615D01*
X143358420Y-80905373D01*
X143578662Y-80575759D01*
X143656000Y-80186953D01*
X143656000Y-78893047D01*
X144164000Y-78893047D01*
X144164000Y-80186953D01*
X144241338Y-80575759D01*
X144461580Y-80905373D01*
X144791194Y-81125615D01*
X145180000Y-81202953D01*
X145568806Y-81125615D01*
X145898420Y-80905373D01*
X146118662Y-80575759D01*
X146196000Y-80186953D01*
X146196000Y-78893047D01*
X146704000Y-78893047D01*
X146704000Y-80186953D01*
X146781338Y-80575759D01*
X147001580Y-80905373D01*
X147331194Y-81125615D01*
X147720000Y-81202953D01*
X148108806Y-81125615D01*
X148438420Y-80905373D01*
X148658662Y-80575759D01*
X148736000Y-80186953D01*
X148736000Y-78893047D01*
X149244000Y-78893047D01*
X149244000Y-80186953D01*
X149321338Y-80575759D01*
X149541580Y-80905373D01*
X149871194Y-81125615D01*
X150260000Y-81202953D01*
X150648806Y-81125615D01*
X150978420Y-80905373D01*
X151198662Y-80575759D01*
X151276000Y-80186953D01*
X151276000Y-78893047D01*
X151784000Y-78893047D01*
X151784000Y-80186953D01*
X151861338Y-80575759D01*
X152081580Y-80905373D01*
X152411194Y-81125615D01*
X152800000Y-81202953D01*
X153188806Y-81125615D01*
X153518420Y-80905373D01*
X153738662Y-80575759D01*
X153816000Y-80186953D01*
X153816000Y-78893047D01*
X154324000Y-78893047D01*
X154324000Y-80186953D01*
X154401338Y-80575759D01*
X154621580Y-80905373D01*
X154951194Y-81125615D01*
X155340000Y-81202953D01*
X155728806Y-81125615D01*
X156058420Y-80905373D01*
X156278662Y-80575759D01*
X156356000Y-80186953D01*
X156356000Y-78893047D01*
X156278662Y-78504241D01*
X156058420Y-78174627D01*
X155728806Y-77954385D01*
X155340000Y-77877047D01*
X154951194Y-77954385D01*
X154621580Y-78174627D01*
X154401338Y-78504241D01*
X154324000Y-78893047D01*
X153816000Y-78893047D01*
X153738662Y-78504241D01*
X153518420Y-78174627D01*
X153188806Y-77954385D01*
X152800000Y-77877047D01*
X152411194Y-77954385D01*
X152081580Y-78174627D01*
X151861338Y-78504241D01*
X151784000Y-78893047D01*
X151276000Y-78893047D01*
X151198662Y-78504241D01*
X150978420Y-78174627D01*
X150648806Y-77954385D01*
X150260000Y-77877047D01*
X149871194Y-77954385D01*
X149541580Y-78174627D01*
X149321338Y-78504241D01*
X149244000Y-78893047D01*
X148736000Y-78893047D01*
X148658662Y-78504241D01*
X148438420Y-78174627D01*
X148108806Y-77954385D01*
X147720000Y-77877047D01*
X147331194Y-77954385D01*
X147001580Y-78174627D01*
X146781338Y-78504241D01*
X146704000Y-78893047D01*
X146196000Y-78893047D01*
X146118662Y-78504241D01*
X145898420Y-78174627D01*
X145568806Y-77954385D01*
X145180000Y-77877047D01*
X144791194Y-77954385D01*
X144461580Y-78174627D01*
X144241338Y-78504241D01*
X144164000Y-78893047D01*
X143656000Y-78893047D01*
X143578662Y-78504241D01*
X143358420Y-78174627D01*
X143028806Y-77954385D01*
X142640000Y-77877047D01*
X142251194Y-77954385D01*
X141921580Y-78174627D01*
X141701338Y-78504241D01*
X141624000Y-78893047D01*
X141116000Y-78893047D01*
X141038662Y-78504241D01*
X140818420Y-78174627D01*
X140488806Y-77954385D01*
X140100000Y-77877047D01*
X139711194Y-77954385D01*
X139381580Y-78174627D01*
X139161338Y-78504241D01*
X139084000Y-78893047D01*
X133027000Y-78893047D01*
X133027000Y-73342945D01*
X133154000Y-73342945D01*
X133154000Y-73797055D01*
X133243898Y-74249004D01*
X133499907Y-74632148D01*
X133883051Y-74888157D01*
X134335000Y-74978055D01*
X134786949Y-74888157D01*
X135170093Y-74632148D01*
X135426102Y-74249004D01*
X135516000Y-73797055D01*
X135516000Y-73342945D01*
X135426102Y-72890996D01*
X135170093Y-72507852D01*
X134786949Y-72251843D01*
X134335000Y-72161945D01*
X133883051Y-72251843D01*
X133499907Y-72507852D01*
X133243898Y-72890996D01*
X133154000Y-73342945D01*
X133027000Y-73342945D01*
X133027000Y-68137067D01*
X133154000Y-68137067D01*
X133154000Y-69202933D01*
X133243898Y-69654882D01*
X133499907Y-70038026D01*
X133883051Y-70294035D01*
X134335000Y-70383933D01*
X134786949Y-70294035D01*
X135170093Y-70038026D01*
X135426102Y-69654882D01*
X135516000Y-69202933D01*
X135516000Y-68587067D01*
X136979000Y-68587067D01*
X136979000Y-69652933D01*
X137068898Y-70104882D01*
X137324907Y-70488026D01*
X137708051Y-70744035D01*
X138160000Y-70833933D01*
X138611949Y-70744035D01*
X138995093Y-70488026D01*
X139251102Y-70104882D01*
X139341000Y-69652933D01*
X139341000Y-68587067D01*
X139251102Y-68135118D01*
X138995093Y-67751974D01*
X138611949Y-67495965D01*
X138160000Y-67406067D01*
X137708051Y-67495965D01*
X137324907Y-67751974D01*
X137068898Y-68135118D01*
X136979000Y-68587067D01*
X135516000Y-68587067D01*
X135516000Y-68137067D01*
X135426102Y-67685118D01*
X135170093Y-67301974D01*
X134786949Y-67045965D01*
X134335000Y-66956067D01*
X133883051Y-67045965D01*
X133499907Y-67301974D01*
X133243898Y-67685118D01*
X133154000Y-68137067D01*
X133027000Y-68137067D01*
X133027000Y-62853047D01*
X134004000Y-62853047D01*
X134004000Y-64146953D01*
X134081338Y-64535759D01*
X134301580Y-64865373D01*
X134631194Y-65085615D01*
X135020000Y-65162953D01*
X135408806Y-65085615D01*
X135738420Y-64865373D01*
X135958662Y-64535759D01*
X136036000Y-64146953D01*
X136036000Y-62853047D01*
X136544000Y-62853047D01*
X136544000Y-64146953D01*
X136621338Y-64535759D01*
X136841580Y-64865373D01*
X137171194Y-65085615D01*
X137560000Y-65162953D01*
X137948806Y-65085615D01*
X138278420Y-64865373D01*
X138498662Y-64535759D01*
X138576000Y-64146953D01*
X138576000Y-62853047D01*
X139084000Y-62853047D01*
X139084000Y-64146953D01*
X139161338Y-64535759D01*
X139381580Y-64865373D01*
X139711194Y-65085615D01*
X140100000Y-65162953D01*
X140488806Y-65085615D01*
X140818420Y-64865373D01*
X141038662Y-64535759D01*
X141116000Y-64146953D01*
X141116000Y-62853047D01*
X141038662Y-62464241D01*
X140818420Y-62134627D01*
X140488806Y-61914385D01*
X140100000Y-61837047D01*
X139711194Y-61914385D01*
X139381580Y-62134627D01*
X139161338Y-62464241D01*
X139084000Y-62853047D01*
X138576000Y-62853047D01*
X138498662Y-62464241D01*
X138278420Y-62134627D01*
X137948806Y-61914385D01*
X137560000Y-61837047D01*
X137171194Y-61914385D01*
X136841580Y-62134627D01*
X136621338Y-62464241D01*
X136544000Y-62853047D01*
X136036000Y-62853047D01*
X135958662Y-62464241D01*
X135738420Y-62134627D01*
X135408806Y-61914385D01*
X135020000Y-61837047D01*
X134631194Y-61914385D01*
X134301580Y-62134627D01*
X134081338Y-62464241D01*
X134004000Y-62853047D01*
X133027000Y-62853047D01*
X133027000Y-58573047D01*
X138284000Y-58573047D01*
X138284000Y-59866953D01*
X138361338Y-60255759D01*
X138581580Y-60585373D01*
X138911194Y-60805615D01*
X139300000Y-60882953D01*
X139688806Y-60805615D01*
X140018420Y-60585373D01*
X140238662Y-60255759D01*
X140316000Y-59866953D01*
X140316000Y-58573047D01*
X140824000Y-58573047D01*
X140824000Y-59866953D01*
X140901338Y-60255759D01*
X141121580Y-60585373D01*
X141451194Y-60805615D01*
X141840000Y-60882953D01*
X142228806Y-60805615D01*
X142558420Y-60585373D01*
X142778662Y-60255759D01*
X142856000Y-59866953D01*
X142856000Y-58573047D01*
X142778662Y-58184241D01*
X142558420Y-57854627D01*
X142228806Y-57634385D01*
X141840000Y-57557047D01*
X141451194Y-57634385D01*
X141121580Y-57854627D01*
X140901338Y-58184241D01*
X140824000Y-58573047D01*
X140316000Y-58573047D01*
X140238662Y-58184241D01*
X140018420Y-57854627D01*
X139688806Y-57634385D01*
X139300000Y-57557047D01*
X138911194Y-57634385D01*
X138581580Y-57854627D01*
X138361338Y-58184241D01*
X138284000Y-58573047D01*
X133027000Y-58573047D01*
X133027000Y-54293047D01*
X137484000Y-54293047D01*
X137484000Y-55586953D01*
X137561338Y-55975759D01*
X137781580Y-56305373D01*
X138111194Y-56525615D01*
X138500000Y-56602953D01*
X138888806Y-56525615D01*
X139218420Y-56305373D01*
X139438662Y-55975759D01*
X139516000Y-55586953D01*
X139516000Y-54293047D01*
X139438662Y-53904241D01*
X139218420Y-53574627D01*
X138888806Y-53354385D01*
X138500000Y-53277047D01*
X138111194Y-53354385D01*
X137781580Y-53574627D01*
X137561338Y-53904241D01*
X137484000Y-54293047D01*
X133027000Y-54293047D01*
X133027000Y-47352606D01*
X133452606Y-46927000D01*
X141161806Y-46927000D01*
X141054643Y-47185077D01*
M02*
