G04 #@! TF.FileFunction,Soldermask,Bot*
%FSLAX46Y46*%
G04 Gerber Fmt 4.6, Leading zero omitted, Abs format (unit mm)*
G04 Created by KiCad (PCBNEW 4.0.2-stable) date 02/06/2016 21:55:55*
%MOMM*%
G01*
G04 APERTURE LIST*
%ADD10C,0.100000*%
G04 APERTURE END LIST*
D10*
G36*
X152981265Y-91199211D02*
X152981270Y-91199213D01*
X152981312Y-91199217D01*
X153149423Y-91251256D01*
X153304224Y-91334957D01*
X153439820Y-91447131D01*
X153551045Y-91583507D01*
X153633663Y-91738889D01*
X153684527Y-91907359D01*
X153701700Y-92082500D01*
X153701700Y-92397534D01*
X153701627Y-92408035D01*
X153701626Y-92408041D01*
X153701612Y-92410090D01*
X153681996Y-92584974D01*
X153628784Y-92752717D01*
X153544005Y-92906931D01*
X153430886Y-93041740D01*
X153293738Y-93152010D01*
X153137783Y-93233542D01*
X152968962Y-93283228D01*
X152968931Y-93283231D01*
X152968917Y-93283235D01*
X152793708Y-93299180D01*
X152618735Y-93280789D01*
X152618730Y-93280787D01*
X152618688Y-93280783D01*
X152450577Y-93228744D01*
X152295776Y-93145043D01*
X152160180Y-93032869D01*
X152048955Y-92896493D01*
X151966337Y-92741111D01*
X151915473Y-92572641D01*
X151898300Y-92397500D01*
X151898300Y-92082466D01*
X151898373Y-92071965D01*
X151898374Y-92071959D01*
X151898388Y-92069910D01*
X151918004Y-91895026D01*
X151971216Y-91727283D01*
X152055995Y-91573069D01*
X152169114Y-91438260D01*
X152306262Y-91327990D01*
X152462217Y-91246458D01*
X152631038Y-91196772D01*
X152631069Y-91196769D01*
X152631083Y-91196765D01*
X152806292Y-91180820D01*
X152981265Y-91199211D01*
X152981265Y-91199211D01*
G37*
G36*
X155521265Y-91199211D02*
X155521270Y-91199213D01*
X155521312Y-91199217D01*
X155689423Y-91251256D01*
X155844224Y-91334957D01*
X155979820Y-91447131D01*
X156091045Y-91583507D01*
X156173663Y-91738889D01*
X156224527Y-91907359D01*
X156241700Y-92082500D01*
X156241700Y-92397534D01*
X156241627Y-92408035D01*
X156241626Y-92408041D01*
X156241612Y-92410090D01*
X156221996Y-92584974D01*
X156168784Y-92752717D01*
X156084005Y-92906931D01*
X155970886Y-93041740D01*
X155833738Y-93152010D01*
X155677783Y-93233542D01*
X155508962Y-93283228D01*
X155508931Y-93283231D01*
X155508917Y-93283235D01*
X155333708Y-93299180D01*
X155158735Y-93280789D01*
X155158730Y-93280787D01*
X155158688Y-93280783D01*
X154990577Y-93228744D01*
X154835776Y-93145043D01*
X154700180Y-93032869D01*
X154588955Y-92896493D01*
X154506337Y-92741111D01*
X154455473Y-92572641D01*
X154438300Y-92397500D01*
X154438300Y-92082466D01*
X154438373Y-92071965D01*
X154438374Y-92071959D01*
X154438388Y-92069910D01*
X154458004Y-91895026D01*
X154511216Y-91727283D01*
X154595995Y-91573069D01*
X154709114Y-91438260D01*
X154846262Y-91327990D01*
X155002217Y-91246458D01*
X155171038Y-91196772D01*
X155171069Y-91196769D01*
X155171083Y-91196765D01*
X155346292Y-91180820D01*
X155521265Y-91199211D01*
X155521265Y-91199211D01*
G37*
G36*
X160601265Y-91199211D02*
X160601270Y-91199213D01*
X160601312Y-91199217D01*
X160769423Y-91251256D01*
X160924224Y-91334957D01*
X161059820Y-91447131D01*
X161171045Y-91583507D01*
X161253663Y-91738889D01*
X161304527Y-91907359D01*
X161321700Y-92082500D01*
X161321700Y-92397534D01*
X161321627Y-92408035D01*
X161321626Y-92408041D01*
X161321612Y-92410090D01*
X161301996Y-92584974D01*
X161248784Y-92752717D01*
X161164005Y-92906931D01*
X161050886Y-93041740D01*
X160913738Y-93152010D01*
X160757783Y-93233542D01*
X160588962Y-93283228D01*
X160588931Y-93283231D01*
X160588917Y-93283235D01*
X160413708Y-93299180D01*
X160238735Y-93280789D01*
X160238730Y-93280787D01*
X160238688Y-93280783D01*
X160070577Y-93228744D01*
X159915776Y-93145043D01*
X159780180Y-93032869D01*
X159668955Y-92896493D01*
X159586337Y-92741111D01*
X159535473Y-92572641D01*
X159518300Y-92397500D01*
X159518300Y-92082466D01*
X159518373Y-92071965D01*
X159518374Y-92071959D01*
X159518388Y-92069910D01*
X159538004Y-91895026D01*
X159591216Y-91727283D01*
X159675995Y-91573069D01*
X159789114Y-91438260D01*
X159926262Y-91327990D01*
X160082217Y-91246458D01*
X160251038Y-91196772D01*
X160251069Y-91196769D01*
X160251083Y-91196765D01*
X160426292Y-91180820D01*
X160601265Y-91199211D01*
X160601265Y-91199211D01*
G37*
G36*
X163141265Y-91199211D02*
X163141270Y-91199213D01*
X163141312Y-91199217D01*
X163309423Y-91251256D01*
X163464224Y-91334957D01*
X163599820Y-91447131D01*
X163711045Y-91583507D01*
X163793663Y-91738889D01*
X163844527Y-91907359D01*
X163861700Y-92082500D01*
X163861700Y-92397534D01*
X163861627Y-92408035D01*
X163861626Y-92408041D01*
X163861612Y-92410090D01*
X163841996Y-92584974D01*
X163788784Y-92752717D01*
X163704005Y-92906931D01*
X163590886Y-93041740D01*
X163453738Y-93152010D01*
X163297783Y-93233542D01*
X163128962Y-93283228D01*
X163128931Y-93283231D01*
X163128917Y-93283235D01*
X162953708Y-93299180D01*
X162778735Y-93280789D01*
X162778730Y-93280787D01*
X162778688Y-93280783D01*
X162610577Y-93228744D01*
X162455776Y-93145043D01*
X162320180Y-93032869D01*
X162208955Y-92896493D01*
X162126337Y-92741111D01*
X162075473Y-92572641D01*
X162058300Y-92397500D01*
X162058300Y-92082466D01*
X162058373Y-92071965D01*
X162058374Y-92071959D01*
X162058388Y-92069910D01*
X162078004Y-91895026D01*
X162131216Y-91727283D01*
X162215995Y-91573069D01*
X162329114Y-91438260D01*
X162466262Y-91327990D01*
X162622217Y-91246458D01*
X162791038Y-91196772D01*
X162791069Y-91196769D01*
X162791083Y-91196765D01*
X162966292Y-91180820D01*
X163141265Y-91199211D01*
X163141265Y-91199211D01*
G37*
G36*
X158061265Y-91199211D02*
X158061270Y-91199213D01*
X158061312Y-91199217D01*
X158229423Y-91251256D01*
X158384224Y-91334957D01*
X158519820Y-91447131D01*
X158631045Y-91583507D01*
X158713663Y-91738889D01*
X158764527Y-91907359D01*
X158781700Y-92082500D01*
X158781700Y-92397534D01*
X158781627Y-92408035D01*
X158781626Y-92408041D01*
X158781612Y-92410090D01*
X158761996Y-92584974D01*
X158708784Y-92752717D01*
X158624005Y-92906931D01*
X158510886Y-93041740D01*
X158373738Y-93152010D01*
X158217783Y-93233542D01*
X158048962Y-93283228D01*
X158048931Y-93283231D01*
X158048917Y-93283235D01*
X157873708Y-93299180D01*
X157698735Y-93280789D01*
X157698730Y-93280787D01*
X157698688Y-93280783D01*
X157530577Y-93228744D01*
X157375776Y-93145043D01*
X157240180Y-93032869D01*
X157128955Y-92896493D01*
X157046337Y-92741111D01*
X156995473Y-92572641D01*
X156978300Y-92397500D01*
X156978300Y-92082466D01*
X156978373Y-92071965D01*
X156978374Y-92071959D01*
X156978388Y-92069910D01*
X156998004Y-91895026D01*
X157051216Y-91727283D01*
X157135995Y-91573069D01*
X157249114Y-91438260D01*
X157386262Y-91327990D01*
X157542217Y-91246458D01*
X157711038Y-91196772D01*
X157711069Y-91196769D01*
X157711083Y-91196765D01*
X157886292Y-91180820D01*
X158061265Y-91199211D01*
X158061265Y-91199211D01*
G37*
G36*
X166401700Y-93294100D02*
X164598300Y-93294100D01*
X164598300Y-91185900D01*
X166401700Y-91185900D01*
X166401700Y-93294100D01*
X166401700Y-93294100D01*
G37*
G36*
X151328261Y-86538695D02*
X151328308Y-86538700D01*
X151447274Y-86575526D01*
X151556821Y-86634758D01*
X151652777Y-86714140D01*
X151731487Y-86810648D01*
X151789953Y-86920606D01*
X151825947Y-87039826D01*
X151838100Y-87163767D01*
X151838100Y-88476268D01*
X151838053Y-88483086D01*
X151838052Y-88483093D01*
X151838038Y-88485142D01*
X151824156Y-88608901D01*
X151786500Y-88727607D01*
X151726505Y-88836738D01*
X151646455Y-88932138D01*
X151549400Y-89010172D01*
X151439036Y-89067869D01*
X151319568Y-89103030D01*
X151319532Y-89103033D01*
X151319523Y-89103036D01*
X151195549Y-89114318D01*
X151071739Y-89101305D01*
X151071692Y-89101300D01*
X150952726Y-89064474D01*
X150843179Y-89005242D01*
X150747223Y-88925860D01*
X150668513Y-88829352D01*
X150610047Y-88719394D01*
X150574053Y-88600174D01*
X150561900Y-88476233D01*
X150561900Y-87163732D01*
X150561947Y-87156914D01*
X150561948Y-87156907D01*
X150561962Y-87154858D01*
X150575844Y-87031099D01*
X150613500Y-86912393D01*
X150673495Y-86803262D01*
X150753545Y-86707862D01*
X150850600Y-86629828D01*
X150960964Y-86572131D01*
X151080432Y-86536970D01*
X151080468Y-86536967D01*
X151080477Y-86536964D01*
X151204451Y-86525682D01*
X151328261Y-86538695D01*
X151328261Y-86538695D01*
G37*
G36*
X156408261Y-86538695D02*
X156408308Y-86538700D01*
X156527274Y-86575526D01*
X156636821Y-86634758D01*
X156732777Y-86714140D01*
X156811487Y-86810648D01*
X156869953Y-86920606D01*
X156905947Y-87039826D01*
X156918100Y-87163767D01*
X156918100Y-88476268D01*
X156918053Y-88483086D01*
X156918052Y-88483093D01*
X156918038Y-88485142D01*
X156904156Y-88608901D01*
X156866500Y-88727607D01*
X156806505Y-88836738D01*
X156726455Y-88932138D01*
X156629400Y-89010172D01*
X156519036Y-89067869D01*
X156399568Y-89103030D01*
X156399532Y-89103033D01*
X156399523Y-89103036D01*
X156275549Y-89114318D01*
X156151739Y-89101305D01*
X156151692Y-89101300D01*
X156032726Y-89064474D01*
X155923179Y-89005242D01*
X155827223Y-88925860D01*
X155748513Y-88829352D01*
X155690047Y-88719394D01*
X155654053Y-88600174D01*
X155641900Y-88476233D01*
X155641900Y-87163732D01*
X155641947Y-87156914D01*
X155641948Y-87156907D01*
X155641962Y-87154858D01*
X155655844Y-87031099D01*
X155693500Y-86912393D01*
X155753495Y-86803262D01*
X155833545Y-86707862D01*
X155930600Y-86629828D01*
X156040964Y-86572131D01*
X156160432Y-86536970D01*
X156160468Y-86536967D01*
X156160477Y-86536964D01*
X156284451Y-86525682D01*
X156408261Y-86538695D01*
X156408261Y-86538695D01*
G37*
G36*
X158948261Y-86538695D02*
X158948308Y-86538700D01*
X159067274Y-86575526D01*
X159176821Y-86634758D01*
X159272777Y-86714140D01*
X159351487Y-86810648D01*
X159409953Y-86920606D01*
X159445947Y-87039826D01*
X159458100Y-87163767D01*
X159458100Y-88476268D01*
X159458053Y-88483086D01*
X159458052Y-88483093D01*
X159458038Y-88485142D01*
X159444156Y-88608901D01*
X159406500Y-88727607D01*
X159346505Y-88836738D01*
X159266455Y-88932138D01*
X159169400Y-89010172D01*
X159059036Y-89067869D01*
X158939568Y-89103030D01*
X158939532Y-89103033D01*
X158939523Y-89103036D01*
X158815549Y-89114318D01*
X158691739Y-89101305D01*
X158691692Y-89101300D01*
X158572726Y-89064474D01*
X158463179Y-89005242D01*
X158367223Y-88925860D01*
X158288513Y-88829352D01*
X158230047Y-88719394D01*
X158194053Y-88600174D01*
X158181900Y-88476233D01*
X158181900Y-87163732D01*
X158181947Y-87156914D01*
X158181948Y-87156907D01*
X158181962Y-87154858D01*
X158195844Y-87031099D01*
X158233500Y-86912393D01*
X158293495Y-86803262D01*
X158373545Y-86707862D01*
X158470600Y-86629828D01*
X158580964Y-86572131D01*
X158700432Y-86536970D01*
X158700468Y-86536967D01*
X158700477Y-86536964D01*
X158824451Y-86525682D01*
X158948261Y-86538695D01*
X158948261Y-86538695D01*
G37*
G36*
X161488261Y-86538695D02*
X161488308Y-86538700D01*
X161607274Y-86575526D01*
X161716821Y-86634758D01*
X161812777Y-86714140D01*
X161891487Y-86810648D01*
X161949953Y-86920606D01*
X161985947Y-87039826D01*
X161998100Y-87163767D01*
X161998100Y-88476268D01*
X161998053Y-88483086D01*
X161998052Y-88483093D01*
X161998038Y-88485142D01*
X161984156Y-88608901D01*
X161946500Y-88727607D01*
X161886505Y-88836738D01*
X161806455Y-88932138D01*
X161709400Y-89010172D01*
X161599036Y-89067869D01*
X161479568Y-89103030D01*
X161479532Y-89103033D01*
X161479523Y-89103036D01*
X161355549Y-89114318D01*
X161231739Y-89101305D01*
X161231692Y-89101300D01*
X161112726Y-89064474D01*
X161003179Y-89005242D01*
X160907223Y-88925860D01*
X160828513Y-88829352D01*
X160770047Y-88719394D01*
X160734053Y-88600174D01*
X160721900Y-88476233D01*
X160721900Y-87163732D01*
X160721947Y-87156914D01*
X160721948Y-87156907D01*
X160721962Y-87154858D01*
X160735844Y-87031099D01*
X160773500Y-86912393D01*
X160833495Y-86803262D01*
X160913545Y-86707862D01*
X161010600Y-86629828D01*
X161120964Y-86572131D01*
X161240432Y-86536970D01*
X161240468Y-86536967D01*
X161240477Y-86536964D01*
X161364451Y-86525682D01*
X161488261Y-86538695D01*
X161488261Y-86538695D01*
G37*
G36*
X148788261Y-86538695D02*
X148788308Y-86538700D01*
X148907274Y-86575526D01*
X149016821Y-86634758D01*
X149112777Y-86714140D01*
X149191487Y-86810648D01*
X149249953Y-86920606D01*
X149285947Y-87039826D01*
X149298100Y-87163767D01*
X149298100Y-88476268D01*
X149298053Y-88483086D01*
X149298052Y-88483093D01*
X149298038Y-88485142D01*
X149284156Y-88608901D01*
X149246500Y-88727607D01*
X149186505Y-88836738D01*
X149106455Y-88932138D01*
X149009400Y-89010172D01*
X148899036Y-89067869D01*
X148779568Y-89103030D01*
X148779532Y-89103033D01*
X148779523Y-89103036D01*
X148655549Y-89114318D01*
X148531739Y-89101305D01*
X148531692Y-89101300D01*
X148412726Y-89064474D01*
X148303179Y-89005242D01*
X148207223Y-88925860D01*
X148128513Y-88829352D01*
X148070047Y-88719394D01*
X148034053Y-88600174D01*
X148021900Y-88476233D01*
X148021900Y-87163732D01*
X148021947Y-87156914D01*
X148021948Y-87156907D01*
X148021962Y-87154858D01*
X148035844Y-87031099D01*
X148073500Y-86912393D01*
X148133495Y-86803262D01*
X148213545Y-86707862D01*
X148310600Y-86629828D01*
X148420964Y-86572131D01*
X148540432Y-86536970D01*
X148540468Y-86536967D01*
X148540477Y-86536964D01*
X148664451Y-86525682D01*
X148788261Y-86538695D01*
X148788261Y-86538695D01*
G37*
G36*
X146248261Y-86538695D02*
X146248308Y-86538700D01*
X146367274Y-86575526D01*
X146476821Y-86634758D01*
X146572777Y-86714140D01*
X146651487Y-86810648D01*
X146709953Y-86920606D01*
X146745947Y-87039826D01*
X146758100Y-87163767D01*
X146758100Y-88476268D01*
X146758053Y-88483086D01*
X146758052Y-88483093D01*
X146758038Y-88485142D01*
X146744156Y-88608901D01*
X146706500Y-88727607D01*
X146646505Y-88836738D01*
X146566455Y-88932138D01*
X146469400Y-89010172D01*
X146359036Y-89067869D01*
X146239568Y-89103030D01*
X146239532Y-89103033D01*
X146239523Y-89103036D01*
X146115549Y-89114318D01*
X145991739Y-89101305D01*
X145991692Y-89101300D01*
X145872726Y-89064474D01*
X145763179Y-89005242D01*
X145667223Y-88925860D01*
X145588513Y-88829352D01*
X145530047Y-88719394D01*
X145494053Y-88600174D01*
X145481900Y-88476233D01*
X145481900Y-87163732D01*
X145481947Y-87156914D01*
X145481948Y-87156907D01*
X145481962Y-87154858D01*
X145495844Y-87031099D01*
X145533500Y-86912393D01*
X145593495Y-86803262D01*
X145673545Y-86707862D01*
X145770600Y-86629828D01*
X145880964Y-86572131D01*
X146000432Y-86536970D01*
X146000468Y-86536967D01*
X146000477Y-86536964D01*
X146124451Y-86525682D01*
X146248261Y-86538695D01*
X146248261Y-86538695D01*
G37*
G36*
X143708261Y-86538695D02*
X143708308Y-86538700D01*
X143827274Y-86575526D01*
X143936821Y-86634758D01*
X144032777Y-86714140D01*
X144111487Y-86810648D01*
X144169953Y-86920606D01*
X144205947Y-87039826D01*
X144218100Y-87163767D01*
X144218100Y-88476268D01*
X144218053Y-88483086D01*
X144218052Y-88483093D01*
X144218038Y-88485142D01*
X144204156Y-88608901D01*
X144166500Y-88727607D01*
X144106505Y-88836738D01*
X144026455Y-88932138D01*
X143929400Y-89010172D01*
X143819036Y-89067869D01*
X143699568Y-89103030D01*
X143699532Y-89103033D01*
X143699523Y-89103036D01*
X143575549Y-89114318D01*
X143451739Y-89101305D01*
X143451692Y-89101300D01*
X143332726Y-89064474D01*
X143223179Y-89005242D01*
X143127223Y-88925860D01*
X143048513Y-88829352D01*
X142990047Y-88719394D01*
X142954053Y-88600174D01*
X142941900Y-88476233D01*
X142941900Y-87163732D01*
X142941947Y-87156914D01*
X142941948Y-87156907D01*
X142941962Y-87154858D01*
X142955844Y-87031099D01*
X142993500Y-86912393D01*
X143053495Y-86803262D01*
X143133545Y-86707862D01*
X143230600Y-86629828D01*
X143340964Y-86572131D01*
X143460432Y-86536970D01*
X143460468Y-86536967D01*
X143460477Y-86536964D01*
X143584451Y-86525682D01*
X143708261Y-86538695D01*
X143708261Y-86538695D01*
G37*
G36*
X141168261Y-86538695D02*
X141168308Y-86538700D01*
X141287274Y-86575526D01*
X141396821Y-86634758D01*
X141492777Y-86714140D01*
X141571487Y-86810648D01*
X141629953Y-86920606D01*
X141665947Y-87039826D01*
X141678100Y-87163767D01*
X141678100Y-88476268D01*
X141678053Y-88483086D01*
X141678052Y-88483093D01*
X141678038Y-88485142D01*
X141664156Y-88608901D01*
X141626500Y-88727607D01*
X141566505Y-88836738D01*
X141486455Y-88932138D01*
X141389400Y-89010172D01*
X141279036Y-89067869D01*
X141159568Y-89103030D01*
X141159532Y-89103033D01*
X141159523Y-89103036D01*
X141035549Y-89114318D01*
X140911739Y-89101305D01*
X140911692Y-89101300D01*
X140792726Y-89064474D01*
X140683179Y-89005242D01*
X140587223Y-88925860D01*
X140508513Y-88829352D01*
X140450047Y-88719394D01*
X140414053Y-88600174D01*
X140401900Y-88476233D01*
X140401900Y-87163732D01*
X140401947Y-87156914D01*
X140401948Y-87156907D01*
X140401962Y-87154858D01*
X140415844Y-87031099D01*
X140453500Y-86912393D01*
X140513495Y-86803262D01*
X140593545Y-86707862D01*
X140690600Y-86629828D01*
X140800964Y-86572131D01*
X140920432Y-86536970D01*
X140920468Y-86536967D01*
X140920477Y-86536964D01*
X141044451Y-86525682D01*
X141168261Y-86538695D01*
X141168261Y-86538695D01*
G37*
G36*
X138628261Y-86538695D02*
X138628308Y-86538700D01*
X138747274Y-86575526D01*
X138856821Y-86634758D01*
X138952777Y-86714140D01*
X139031487Y-86810648D01*
X139089953Y-86920606D01*
X139125947Y-87039826D01*
X139138100Y-87163767D01*
X139138100Y-88476268D01*
X139138053Y-88483086D01*
X139138052Y-88483093D01*
X139138038Y-88485142D01*
X139124156Y-88608901D01*
X139086500Y-88727607D01*
X139026505Y-88836738D01*
X138946455Y-88932138D01*
X138849400Y-89010172D01*
X138739036Y-89067869D01*
X138619568Y-89103030D01*
X138619532Y-89103033D01*
X138619523Y-89103036D01*
X138495549Y-89114318D01*
X138371739Y-89101305D01*
X138371692Y-89101300D01*
X138252726Y-89064474D01*
X138143179Y-89005242D01*
X138047223Y-88925860D01*
X137968513Y-88829352D01*
X137910047Y-88719394D01*
X137874053Y-88600174D01*
X137861900Y-88476233D01*
X137861900Y-87163732D01*
X137861947Y-87156914D01*
X137861948Y-87156907D01*
X137861962Y-87154858D01*
X137875844Y-87031099D01*
X137913500Y-86912393D01*
X137973495Y-86803262D01*
X138053545Y-86707862D01*
X138150600Y-86629828D01*
X138260964Y-86572131D01*
X138380432Y-86536970D01*
X138380468Y-86536967D01*
X138380477Y-86536964D01*
X138504451Y-86525682D01*
X138628261Y-86538695D01*
X138628261Y-86538695D01*
G37*
G36*
X153868261Y-86538695D02*
X153868308Y-86538700D01*
X153987274Y-86575526D01*
X154096821Y-86634758D01*
X154192777Y-86714140D01*
X154271487Y-86810648D01*
X154329953Y-86920606D01*
X154365947Y-87039826D01*
X154378100Y-87163767D01*
X154378100Y-88476268D01*
X154378053Y-88483086D01*
X154378052Y-88483093D01*
X154378038Y-88485142D01*
X154364156Y-88608901D01*
X154326500Y-88727607D01*
X154266505Y-88836738D01*
X154186455Y-88932138D01*
X154089400Y-89010172D01*
X153979036Y-89067869D01*
X153859568Y-89103030D01*
X153859532Y-89103033D01*
X153859523Y-89103036D01*
X153735549Y-89114318D01*
X153611739Y-89101305D01*
X153611692Y-89101300D01*
X153492726Y-89064474D01*
X153383179Y-89005242D01*
X153287223Y-88925860D01*
X153208513Y-88829352D01*
X153150047Y-88719394D01*
X153114053Y-88600174D01*
X153101900Y-88476233D01*
X153101900Y-87163732D01*
X153101947Y-87156914D01*
X153101948Y-87156907D01*
X153101962Y-87154858D01*
X153115844Y-87031099D01*
X153153500Y-86912393D01*
X153213495Y-86803262D01*
X153293545Y-86707862D01*
X153390600Y-86629828D01*
X153500964Y-86572131D01*
X153620432Y-86536970D01*
X153620468Y-86536967D01*
X153620477Y-86536964D01*
X153744451Y-86525682D01*
X153868261Y-86538695D01*
X153868261Y-86538695D01*
G37*
G36*
X157208261Y-82398695D02*
X157208308Y-82398700D01*
X157327274Y-82435526D01*
X157436821Y-82494758D01*
X157532777Y-82574140D01*
X157611487Y-82670648D01*
X157669953Y-82780606D01*
X157705947Y-82899826D01*
X157718100Y-83023767D01*
X157718100Y-84336268D01*
X157718053Y-84343086D01*
X157718052Y-84343093D01*
X157718038Y-84345142D01*
X157704156Y-84468901D01*
X157666500Y-84587607D01*
X157606505Y-84696738D01*
X157526455Y-84792138D01*
X157429400Y-84870172D01*
X157319036Y-84927869D01*
X157199568Y-84963030D01*
X157199532Y-84963033D01*
X157199523Y-84963036D01*
X157075549Y-84974318D01*
X156951739Y-84961305D01*
X156951692Y-84961300D01*
X156832726Y-84924474D01*
X156723179Y-84865242D01*
X156627223Y-84785860D01*
X156548513Y-84689352D01*
X156490047Y-84579394D01*
X156454053Y-84460174D01*
X156441900Y-84336233D01*
X156441900Y-83023732D01*
X156441947Y-83016914D01*
X156441948Y-83016907D01*
X156441962Y-83014858D01*
X156455844Y-82891099D01*
X156493500Y-82772393D01*
X156553495Y-82663262D01*
X156633545Y-82567862D01*
X156730600Y-82489828D01*
X156840964Y-82432131D01*
X156960432Y-82396970D01*
X156960468Y-82396967D01*
X156960477Y-82396964D01*
X157084451Y-82385682D01*
X157208261Y-82398695D01*
X157208261Y-82398695D01*
G37*
G36*
X139428261Y-82398695D02*
X139428308Y-82398700D01*
X139547274Y-82435526D01*
X139656821Y-82494758D01*
X139752777Y-82574140D01*
X139831487Y-82670648D01*
X139889953Y-82780606D01*
X139925947Y-82899826D01*
X139938100Y-83023767D01*
X139938100Y-84336268D01*
X139938053Y-84343086D01*
X139938052Y-84343093D01*
X139938038Y-84345142D01*
X139924156Y-84468901D01*
X139886500Y-84587607D01*
X139826505Y-84696738D01*
X139746455Y-84792138D01*
X139649400Y-84870172D01*
X139539036Y-84927869D01*
X139419568Y-84963030D01*
X139419532Y-84963033D01*
X139419523Y-84963036D01*
X139295549Y-84974318D01*
X139171739Y-84961305D01*
X139171692Y-84961300D01*
X139052726Y-84924474D01*
X138943179Y-84865242D01*
X138847223Y-84785860D01*
X138768513Y-84689352D01*
X138710047Y-84579394D01*
X138674053Y-84460174D01*
X138661900Y-84336233D01*
X138661900Y-83023732D01*
X138661947Y-83016914D01*
X138661948Y-83016907D01*
X138661962Y-83014858D01*
X138675844Y-82891099D01*
X138713500Y-82772393D01*
X138773495Y-82663262D01*
X138853545Y-82567862D01*
X138950600Y-82489828D01*
X139060964Y-82432131D01*
X139180432Y-82396970D01*
X139180468Y-82396967D01*
X139180477Y-82396964D01*
X139304451Y-82385682D01*
X139428261Y-82398695D01*
X139428261Y-82398695D01*
G37*
G36*
X141968261Y-82398695D02*
X141968308Y-82398700D01*
X142087274Y-82435526D01*
X142196821Y-82494758D01*
X142292777Y-82574140D01*
X142371487Y-82670648D01*
X142429953Y-82780606D01*
X142465947Y-82899826D01*
X142478100Y-83023767D01*
X142478100Y-84336268D01*
X142478053Y-84343086D01*
X142478052Y-84343093D01*
X142478038Y-84345142D01*
X142464156Y-84468901D01*
X142426500Y-84587607D01*
X142366505Y-84696738D01*
X142286455Y-84792138D01*
X142189400Y-84870172D01*
X142079036Y-84927869D01*
X141959568Y-84963030D01*
X141959532Y-84963033D01*
X141959523Y-84963036D01*
X141835549Y-84974318D01*
X141711739Y-84961305D01*
X141711692Y-84961300D01*
X141592726Y-84924474D01*
X141483179Y-84865242D01*
X141387223Y-84785860D01*
X141308513Y-84689352D01*
X141250047Y-84579394D01*
X141214053Y-84460174D01*
X141201900Y-84336233D01*
X141201900Y-83023732D01*
X141201947Y-83016914D01*
X141201948Y-83016907D01*
X141201962Y-83014858D01*
X141215844Y-82891099D01*
X141253500Y-82772393D01*
X141313495Y-82663262D01*
X141393545Y-82567862D01*
X141490600Y-82489828D01*
X141600964Y-82432131D01*
X141720432Y-82396970D01*
X141720468Y-82396967D01*
X141720477Y-82396964D01*
X141844451Y-82385682D01*
X141968261Y-82398695D01*
X141968261Y-82398695D01*
G37*
G36*
X162288261Y-82398695D02*
X162288308Y-82398700D01*
X162407274Y-82435526D01*
X162516821Y-82494758D01*
X162612777Y-82574140D01*
X162691487Y-82670648D01*
X162749953Y-82780606D01*
X162785947Y-82899826D01*
X162798100Y-83023767D01*
X162798100Y-84336268D01*
X162798053Y-84343086D01*
X162798052Y-84343093D01*
X162798038Y-84345142D01*
X162784156Y-84468901D01*
X162746500Y-84587607D01*
X162686505Y-84696738D01*
X162606455Y-84792138D01*
X162509400Y-84870172D01*
X162399036Y-84927869D01*
X162279568Y-84963030D01*
X162279532Y-84963033D01*
X162279523Y-84963036D01*
X162155549Y-84974318D01*
X162031739Y-84961305D01*
X162031692Y-84961300D01*
X161912726Y-84924474D01*
X161803179Y-84865242D01*
X161707223Y-84785860D01*
X161628513Y-84689352D01*
X161570047Y-84579394D01*
X161534053Y-84460174D01*
X161521900Y-84336233D01*
X161521900Y-83023732D01*
X161521947Y-83016914D01*
X161521948Y-83016907D01*
X161521962Y-83014858D01*
X161535844Y-82891099D01*
X161573500Y-82772393D01*
X161633495Y-82663262D01*
X161713545Y-82567862D01*
X161810600Y-82489828D01*
X161920964Y-82432131D01*
X162040432Y-82396970D01*
X162040468Y-82396967D01*
X162040477Y-82396964D01*
X162164451Y-82385682D01*
X162288261Y-82398695D01*
X162288261Y-82398695D01*
G37*
G36*
X154668261Y-82398695D02*
X154668308Y-82398700D01*
X154787274Y-82435526D01*
X154896821Y-82494758D01*
X154992777Y-82574140D01*
X155071487Y-82670648D01*
X155129953Y-82780606D01*
X155165947Y-82899826D01*
X155178100Y-83023767D01*
X155178100Y-84336268D01*
X155178053Y-84343086D01*
X155178052Y-84343093D01*
X155178038Y-84345142D01*
X155164156Y-84468901D01*
X155126500Y-84587607D01*
X155066505Y-84696738D01*
X154986455Y-84792138D01*
X154889400Y-84870172D01*
X154779036Y-84927869D01*
X154659568Y-84963030D01*
X154659532Y-84963033D01*
X154659523Y-84963036D01*
X154535549Y-84974318D01*
X154411739Y-84961305D01*
X154411692Y-84961300D01*
X154292726Y-84924474D01*
X154183179Y-84865242D01*
X154087223Y-84785860D01*
X154008513Y-84689352D01*
X153950047Y-84579394D01*
X153914053Y-84460174D01*
X153901900Y-84336233D01*
X153901900Y-83023732D01*
X153901947Y-83016914D01*
X153901948Y-83016907D01*
X153901962Y-83014858D01*
X153915844Y-82891099D01*
X153953500Y-82772393D01*
X154013495Y-82663262D01*
X154093545Y-82567862D01*
X154190600Y-82489828D01*
X154300964Y-82432131D01*
X154420432Y-82396970D01*
X154420468Y-82396967D01*
X154420477Y-82396964D01*
X154544451Y-82385682D01*
X154668261Y-82398695D01*
X154668261Y-82398695D01*
G37*
G36*
X149588261Y-82398695D02*
X149588308Y-82398700D01*
X149707274Y-82435526D01*
X149816821Y-82494758D01*
X149912777Y-82574140D01*
X149991487Y-82670648D01*
X150049953Y-82780606D01*
X150085947Y-82899826D01*
X150098100Y-83023767D01*
X150098100Y-84336268D01*
X150098053Y-84343086D01*
X150098052Y-84343093D01*
X150098038Y-84345142D01*
X150084156Y-84468901D01*
X150046500Y-84587607D01*
X149986505Y-84696738D01*
X149906455Y-84792138D01*
X149809400Y-84870172D01*
X149699036Y-84927869D01*
X149579568Y-84963030D01*
X149579532Y-84963033D01*
X149579523Y-84963036D01*
X149455549Y-84974318D01*
X149331739Y-84961305D01*
X149331692Y-84961300D01*
X149212726Y-84924474D01*
X149103179Y-84865242D01*
X149007223Y-84785860D01*
X148928513Y-84689352D01*
X148870047Y-84579394D01*
X148834053Y-84460174D01*
X148821900Y-84336233D01*
X148821900Y-83023732D01*
X148821947Y-83016914D01*
X148821948Y-83016907D01*
X148821962Y-83014858D01*
X148835844Y-82891099D01*
X148873500Y-82772393D01*
X148933495Y-82663262D01*
X149013545Y-82567862D01*
X149110600Y-82489828D01*
X149220964Y-82432131D01*
X149340432Y-82396970D01*
X149340468Y-82396967D01*
X149340477Y-82396964D01*
X149464451Y-82385682D01*
X149588261Y-82398695D01*
X149588261Y-82398695D01*
G37*
G36*
X144508261Y-82398695D02*
X144508308Y-82398700D01*
X144627274Y-82435526D01*
X144736821Y-82494758D01*
X144832777Y-82574140D01*
X144911487Y-82670648D01*
X144969953Y-82780606D01*
X145005947Y-82899826D01*
X145018100Y-83023767D01*
X145018100Y-84336268D01*
X145018053Y-84343086D01*
X145018052Y-84343093D01*
X145018038Y-84345142D01*
X145004156Y-84468901D01*
X144966500Y-84587607D01*
X144906505Y-84696738D01*
X144826455Y-84792138D01*
X144729400Y-84870172D01*
X144619036Y-84927869D01*
X144499568Y-84963030D01*
X144499532Y-84963033D01*
X144499523Y-84963036D01*
X144375549Y-84974318D01*
X144251739Y-84961305D01*
X144251692Y-84961300D01*
X144132726Y-84924474D01*
X144023179Y-84865242D01*
X143927223Y-84785860D01*
X143848513Y-84689352D01*
X143790047Y-84579394D01*
X143754053Y-84460174D01*
X143741900Y-84336233D01*
X143741900Y-83023732D01*
X143741947Y-83016914D01*
X143741948Y-83016907D01*
X143741962Y-83014858D01*
X143755844Y-82891099D01*
X143793500Y-82772393D01*
X143853495Y-82663262D01*
X143933545Y-82567862D01*
X144030600Y-82489828D01*
X144140964Y-82432131D01*
X144260432Y-82396970D01*
X144260468Y-82396967D01*
X144260477Y-82396964D01*
X144384451Y-82385682D01*
X144508261Y-82398695D01*
X144508261Y-82398695D01*
G37*
G36*
X159748261Y-82398695D02*
X159748308Y-82398700D01*
X159867274Y-82435526D01*
X159976821Y-82494758D01*
X160072777Y-82574140D01*
X160151487Y-82670648D01*
X160209953Y-82780606D01*
X160245947Y-82899826D01*
X160258100Y-83023767D01*
X160258100Y-84336268D01*
X160258053Y-84343086D01*
X160258052Y-84343093D01*
X160258038Y-84345142D01*
X160244156Y-84468901D01*
X160206500Y-84587607D01*
X160146505Y-84696738D01*
X160066455Y-84792138D01*
X159969400Y-84870172D01*
X159859036Y-84927869D01*
X159739568Y-84963030D01*
X159739532Y-84963033D01*
X159739523Y-84963036D01*
X159615549Y-84974318D01*
X159491739Y-84961305D01*
X159491692Y-84961300D01*
X159372726Y-84924474D01*
X159263179Y-84865242D01*
X159167223Y-84785860D01*
X159088513Y-84689352D01*
X159030047Y-84579394D01*
X158994053Y-84460174D01*
X158981900Y-84336233D01*
X158981900Y-83023732D01*
X158981947Y-83016914D01*
X158981948Y-83016907D01*
X158981962Y-83014858D01*
X158995844Y-82891099D01*
X159033500Y-82772393D01*
X159093495Y-82663262D01*
X159173545Y-82567862D01*
X159270600Y-82489828D01*
X159380964Y-82432131D01*
X159500432Y-82396970D01*
X159500468Y-82396967D01*
X159500477Y-82396964D01*
X159624451Y-82385682D01*
X159748261Y-82398695D01*
X159748261Y-82398695D01*
G37*
G36*
X147048261Y-82398695D02*
X147048308Y-82398700D01*
X147167274Y-82435526D01*
X147276821Y-82494758D01*
X147372777Y-82574140D01*
X147451487Y-82670648D01*
X147509953Y-82780606D01*
X147545947Y-82899826D01*
X147558100Y-83023767D01*
X147558100Y-84336268D01*
X147558053Y-84343086D01*
X147558052Y-84343093D01*
X147558038Y-84345142D01*
X147544156Y-84468901D01*
X147506500Y-84587607D01*
X147446505Y-84696738D01*
X147366455Y-84792138D01*
X147269400Y-84870172D01*
X147159036Y-84927869D01*
X147039568Y-84963030D01*
X147039532Y-84963033D01*
X147039523Y-84963036D01*
X146915549Y-84974318D01*
X146791739Y-84961305D01*
X146791692Y-84961300D01*
X146672726Y-84924474D01*
X146563179Y-84865242D01*
X146467223Y-84785860D01*
X146388513Y-84689352D01*
X146330047Y-84579394D01*
X146294053Y-84460174D01*
X146281900Y-84336233D01*
X146281900Y-83023732D01*
X146281947Y-83016914D01*
X146281948Y-83016907D01*
X146281962Y-83014858D01*
X146295844Y-82891099D01*
X146333500Y-82772393D01*
X146393495Y-82663262D01*
X146473545Y-82567862D01*
X146570600Y-82489828D01*
X146680964Y-82432131D01*
X146800432Y-82396970D01*
X146800468Y-82396967D01*
X146800477Y-82396964D01*
X146924451Y-82385682D01*
X147048261Y-82398695D01*
X147048261Y-82398695D01*
G37*
G36*
X152128261Y-82398695D02*
X152128308Y-82398700D01*
X152247274Y-82435526D01*
X152356821Y-82494758D01*
X152452777Y-82574140D01*
X152531487Y-82670648D01*
X152589953Y-82780606D01*
X152625947Y-82899826D01*
X152638100Y-83023767D01*
X152638100Y-84336268D01*
X152638053Y-84343086D01*
X152638052Y-84343093D01*
X152638038Y-84345142D01*
X152624156Y-84468901D01*
X152586500Y-84587607D01*
X152526505Y-84696738D01*
X152446455Y-84792138D01*
X152349400Y-84870172D01*
X152239036Y-84927869D01*
X152119568Y-84963030D01*
X152119532Y-84963033D01*
X152119523Y-84963036D01*
X151995549Y-84974318D01*
X151871739Y-84961305D01*
X151871692Y-84961300D01*
X151752726Y-84924474D01*
X151643179Y-84865242D01*
X151547223Y-84785860D01*
X151468513Y-84689352D01*
X151410047Y-84579394D01*
X151374053Y-84460174D01*
X151361900Y-84336233D01*
X151361900Y-83023732D01*
X151361947Y-83016914D01*
X151361948Y-83016907D01*
X151361962Y-83014858D01*
X151375844Y-82891099D01*
X151413500Y-82772393D01*
X151473495Y-82663262D01*
X151553545Y-82567862D01*
X151650600Y-82489828D01*
X151760964Y-82432131D01*
X151880432Y-82396970D01*
X151880468Y-82396967D01*
X151880477Y-82396964D01*
X152004451Y-82385682D01*
X152128261Y-82398695D01*
X152128261Y-82398695D01*
G37*
G36*
X152928261Y-78258695D02*
X152928308Y-78258700D01*
X153047274Y-78295526D01*
X153156821Y-78354758D01*
X153252777Y-78434140D01*
X153331487Y-78530648D01*
X153389953Y-78640606D01*
X153425947Y-78759826D01*
X153438100Y-78883767D01*
X153438100Y-80196268D01*
X153438053Y-80203086D01*
X153438052Y-80203093D01*
X153438038Y-80205142D01*
X153424156Y-80328901D01*
X153386500Y-80447607D01*
X153326505Y-80556738D01*
X153246455Y-80652138D01*
X153149400Y-80730172D01*
X153039036Y-80787869D01*
X152919568Y-80823030D01*
X152919532Y-80823033D01*
X152919523Y-80823036D01*
X152795549Y-80834318D01*
X152671739Y-80821305D01*
X152671692Y-80821300D01*
X152552726Y-80784474D01*
X152443179Y-80725242D01*
X152347223Y-80645860D01*
X152268513Y-80549352D01*
X152210047Y-80439394D01*
X152174053Y-80320174D01*
X152161900Y-80196233D01*
X152161900Y-78883732D01*
X152161947Y-78876914D01*
X152161948Y-78876907D01*
X152161962Y-78874858D01*
X152175844Y-78751099D01*
X152213500Y-78632393D01*
X152273495Y-78523262D01*
X152353545Y-78427862D01*
X152450600Y-78349828D01*
X152560964Y-78292131D01*
X152680432Y-78256970D01*
X152680468Y-78256967D01*
X152680477Y-78256964D01*
X152804451Y-78245682D01*
X152928261Y-78258695D01*
X152928261Y-78258695D01*
G37*
G36*
X163088261Y-78258695D02*
X163088308Y-78258700D01*
X163207274Y-78295526D01*
X163316821Y-78354758D01*
X163412777Y-78434140D01*
X163491487Y-78530648D01*
X163549953Y-78640606D01*
X163585947Y-78759826D01*
X163598100Y-78883767D01*
X163598100Y-80196268D01*
X163598053Y-80203086D01*
X163598052Y-80203093D01*
X163598038Y-80205142D01*
X163584156Y-80328901D01*
X163546500Y-80447607D01*
X163486505Y-80556738D01*
X163406455Y-80652138D01*
X163309400Y-80730172D01*
X163199036Y-80787869D01*
X163079568Y-80823030D01*
X163079532Y-80823033D01*
X163079523Y-80823036D01*
X162955549Y-80834318D01*
X162831739Y-80821305D01*
X162831692Y-80821300D01*
X162712726Y-80784474D01*
X162603179Y-80725242D01*
X162507223Y-80645860D01*
X162428513Y-80549352D01*
X162370047Y-80439394D01*
X162334053Y-80320174D01*
X162321900Y-80196233D01*
X162321900Y-78883732D01*
X162321947Y-78876914D01*
X162321948Y-78876907D01*
X162321962Y-78874858D01*
X162335844Y-78751099D01*
X162373500Y-78632393D01*
X162433495Y-78523262D01*
X162513545Y-78427862D01*
X162610600Y-78349828D01*
X162720964Y-78292131D01*
X162840432Y-78256970D01*
X162840468Y-78256967D01*
X162840477Y-78256964D01*
X162964451Y-78245682D01*
X163088261Y-78258695D01*
X163088261Y-78258695D01*
G37*
G36*
X160548261Y-78258695D02*
X160548308Y-78258700D01*
X160667274Y-78295526D01*
X160776821Y-78354758D01*
X160872777Y-78434140D01*
X160951487Y-78530648D01*
X161009953Y-78640606D01*
X161045947Y-78759826D01*
X161058100Y-78883767D01*
X161058100Y-80196268D01*
X161058053Y-80203086D01*
X161058052Y-80203093D01*
X161058038Y-80205142D01*
X161044156Y-80328901D01*
X161006500Y-80447607D01*
X160946505Y-80556738D01*
X160866455Y-80652138D01*
X160769400Y-80730172D01*
X160659036Y-80787869D01*
X160539568Y-80823030D01*
X160539532Y-80823033D01*
X160539523Y-80823036D01*
X160415549Y-80834318D01*
X160291739Y-80821305D01*
X160291692Y-80821300D01*
X160172726Y-80784474D01*
X160063179Y-80725242D01*
X159967223Y-80645860D01*
X159888513Y-80549352D01*
X159830047Y-80439394D01*
X159794053Y-80320174D01*
X159781900Y-80196233D01*
X159781900Y-78883732D01*
X159781947Y-78876914D01*
X159781948Y-78876907D01*
X159781962Y-78874858D01*
X159795844Y-78751099D01*
X159833500Y-78632393D01*
X159893495Y-78523262D01*
X159973545Y-78427862D01*
X160070600Y-78349828D01*
X160180964Y-78292131D01*
X160300432Y-78256970D01*
X160300468Y-78256967D01*
X160300477Y-78256964D01*
X160424451Y-78245682D01*
X160548261Y-78258695D01*
X160548261Y-78258695D01*
G37*
G36*
X165628261Y-78258695D02*
X165628308Y-78258700D01*
X165747274Y-78295526D01*
X165856821Y-78354758D01*
X165952777Y-78434140D01*
X166031487Y-78530648D01*
X166089953Y-78640606D01*
X166125947Y-78759826D01*
X166138100Y-78883767D01*
X166138100Y-80196268D01*
X166138053Y-80203086D01*
X166138052Y-80203093D01*
X166138038Y-80205142D01*
X166124156Y-80328901D01*
X166086500Y-80447607D01*
X166026505Y-80556738D01*
X165946455Y-80652138D01*
X165849400Y-80730172D01*
X165739036Y-80787869D01*
X165619568Y-80823030D01*
X165619532Y-80823033D01*
X165619523Y-80823036D01*
X165495549Y-80834318D01*
X165371739Y-80821305D01*
X165371692Y-80821300D01*
X165252726Y-80784474D01*
X165143179Y-80725242D01*
X165047223Y-80645860D01*
X164968513Y-80549352D01*
X164910047Y-80439394D01*
X164874053Y-80320174D01*
X164861900Y-80196233D01*
X164861900Y-78883732D01*
X164861947Y-78876914D01*
X164861948Y-78876907D01*
X164861962Y-78874858D01*
X164875844Y-78751099D01*
X164913500Y-78632393D01*
X164973495Y-78523262D01*
X165053545Y-78427862D01*
X165150600Y-78349828D01*
X165260964Y-78292131D01*
X165380432Y-78256970D01*
X165380468Y-78256967D01*
X165380477Y-78256964D01*
X165504451Y-78245682D01*
X165628261Y-78258695D01*
X165628261Y-78258695D01*
G37*
G36*
X158008261Y-78258695D02*
X158008308Y-78258700D01*
X158127274Y-78295526D01*
X158236821Y-78354758D01*
X158332777Y-78434140D01*
X158411487Y-78530648D01*
X158469953Y-78640606D01*
X158505947Y-78759826D01*
X158518100Y-78883767D01*
X158518100Y-80196268D01*
X158518053Y-80203086D01*
X158518052Y-80203093D01*
X158518038Y-80205142D01*
X158504156Y-80328901D01*
X158466500Y-80447607D01*
X158406505Y-80556738D01*
X158326455Y-80652138D01*
X158229400Y-80730172D01*
X158119036Y-80787869D01*
X157999568Y-80823030D01*
X157999532Y-80823033D01*
X157999523Y-80823036D01*
X157875549Y-80834318D01*
X157751739Y-80821305D01*
X157751692Y-80821300D01*
X157632726Y-80784474D01*
X157523179Y-80725242D01*
X157427223Y-80645860D01*
X157348513Y-80549352D01*
X157290047Y-80439394D01*
X157254053Y-80320174D01*
X157241900Y-80196233D01*
X157241900Y-78883732D01*
X157241947Y-78876914D01*
X157241948Y-78876907D01*
X157241962Y-78874858D01*
X157255844Y-78751099D01*
X157293500Y-78632393D01*
X157353495Y-78523262D01*
X157433545Y-78427862D01*
X157530600Y-78349828D01*
X157640964Y-78292131D01*
X157760432Y-78256970D01*
X157760468Y-78256967D01*
X157760477Y-78256964D01*
X157884451Y-78245682D01*
X158008261Y-78258695D01*
X158008261Y-78258695D01*
G37*
G36*
X155468261Y-78258695D02*
X155468308Y-78258700D01*
X155587274Y-78295526D01*
X155696821Y-78354758D01*
X155792777Y-78434140D01*
X155871487Y-78530648D01*
X155929953Y-78640606D01*
X155965947Y-78759826D01*
X155978100Y-78883767D01*
X155978100Y-80196268D01*
X155978053Y-80203086D01*
X155978052Y-80203093D01*
X155978038Y-80205142D01*
X155964156Y-80328901D01*
X155926500Y-80447607D01*
X155866505Y-80556738D01*
X155786455Y-80652138D01*
X155689400Y-80730172D01*
X155579036Y-80787869D01*
X155459568Y-80823030D01*
X155459532Y-80823033D01*
X155459523Y-80823036D01*
X155335549Y-80834318D01*
X155211739Y-80821305D01*
X155211692Y-80821300D01*
X155092726Y-80784474D01*
X154983179Y-80725242D01*
X154887223Y-80645860D01*
X154808513Y-80549352D01*
X154750047Y-80439394D01*
X154714053Y-80320174D01*
X154701900Y-80196233D01*
X154701900Y-78883732D01*
X154701947Y-78876914D01*
X154701948Y-78876907D01*
X154701962Y-78874858D01*
X154715844Y-78751099D01*
X154753500Y-78632393D01*
X154813495Y-78523262D01*
X154893545Y-78427862D01*
X154990600Y-78349828D01*
X155100964Y-78292131D01*
X155220432Y-78256970D01*
X155220468Y-78256967D01*
X155220477Y-78256964D01*
X155344451Y-78245682D01*
X155468261Y-78258695D01*
X155468261Y-78258695D01*
G37*
G36*
X150388261Y-78258695D02*
X150388308Y-78258700D01*
X150507274Y-78295526D01*
X150616821Y-78354758D01*
X150712777Y-78434140D01*
X150791487Y-78530648D01*
X150849953Y-78640606D01*
X150885947Y-78759826D01*
X150898100Y-78883767D01*
X150898100Y-80196268D01*
X150898053Y-80203086D01*
X150898052Y-80203093D01*
X150898038Y-80205142D01*
X150884156Y-80328901D01*
X150846500Y-80447607D01*
X150786505Y-80556738D01*
X150706455Y-80652138D01*
X150609400Y-80730172D01*
X150499036Y-80787869D01*
X150379568Y-80823030D01*
X150379532Y-80823033D01*
X150379523Y-80823036D01*
X150255549Y-80834318D01*
X150131739Y-80821305D01*
X150131692Y-80821300D01*
X150012726Y-80784474D01*
X149903179Y-80725242D01*
X149807223Y-80645860D01*
X149728513Y-80549352D01*
X149670047Y-80439394D01*
X149634053Y-80320174D01*
X149621900Y-80196233D01*
X149621900Y-78883732D01*
X149621947Y-78876914D01*
X149621948Y-78876907D01*
X149621962Y-78874858D01*
X149635844Y-78751099D01*
X149673500Y-78632393D01*
X149733495Y-78523262D01*
X149813545Y-78427862D01*
X149910600Y-78349828D01*
X150020964Y-78292131D01*
X150140432Y-78256970D01*
X150140468Y-78256967D01*
X150140477Y-78256964D01*
X150264451Y-78245682D01*
X150388261Y-78258695D01*
X150388261Y-78258695D01*
G37*
G36*
X147848261Y-78258695D02*
X147848308Y-78258700D01*
X147967274Y-78295526D01*
X148076821Y-78354758D01*
X148172777Y-78434140D01*
X148251487Y-78530648D01*
X148309953Y-78640606D01*
X148345947Y-78759826D01*
X148358100Y-78883767D01*
X148358100Y-80196268D01*
X148358053Y-80203086D01*
X148358052Y-80203093D01*
X148358038Y-80205142D01*
X148344156Y-80328901D01*
X148306500Y-80447607D01*
X148246505Y-80556738D01*
X148166455Y-80652138D01*
X148069400Y-80730172D01*
X147959036Y-80787869D01*
X147839568Y-80823030D01*
X147839532Y-80823033D01*
X147839523Y-80823036D01*
X147715549Y-80834318D01*
X147591739Y-80821305D01*
X147591692Y-80821300D01*
X147472726Y-80784474D01*
X147363179Y-80725242D01*
X147267223Y-80645860D01*
X147188513Y-80549352D01*
X147130047Y-80439394D01*
X147094053Y-80320174D01*
X147081900Y-80196233D01*
X147081900Y-78883732D01*
X147081947Y-78876914D01*
X147081948Y-78876907D01*
X147081962Y-78874858D01*
X147095844Y-78751099D01*
X147133500Y-78632393D01*
X147193495Y-78523262D01*
X147273545Y-78427862D01*
X147370600Y-78349828D01*
X147480964Y-78292131D01*
X147600432Y-78256970D01*
X147600468Y-78256967D01*
X147600477Y-78256964D01*
X147724451Y-78245682D01*
X147848261Y-78258695D01*
X147848261Y-78258695D01*
G37*
G36*
X145308261Y-78258695D02*
X145308308Y-78258700D01*
X145427274Y-78295526D01*
X145536821Y-78354758D01*
X145632777Y-78434140D01*
X145711487Y-78530648D01*
X145769953Y-78640606D01*
X145805947Y-78759826D01*
X145818100Y-78883767D01*
X145818100Y-80196268D01*
X145818053Y-80203086D01*
X145818052Y-80203093D01*
X145818038Y-80205142D01*
X145804156Y-80328901D01*
X145766500Y-80447607D01*
X145706505Y-80556738D01*
X145626455Y-80652138D01*
X145529400Y-80730172D01*
X145419036Y-80787869D01*
X145299568Y-80823030D01*
X145299532Y-80823033D01*
X145299523Y-80823036D01*
X145175549Y-80834318D01*
X145051739Y-80821305D01*
X145051692Y-80821300D01*
X144932726Y-80784474D01*
X144823179Y-80725242D01*
X144727223Y-80645860D01*
X144648513Y-80549352D01*
X144590047Y-80439394D01*
X144554053Y-80320174D01*
X144541900Y-80196233D01*
X144541900Y-78883732D01*
X144541947Y-78876914D01*
X144541948Y-78876907D01*
X144541962Y-78874858D01*
X144555844Y-78751099D01*
X144593500Y-78632393D01*
X144653495Y-78523262D01*
X144733545Y-78427862D01*
X144830600Y-78349828D01*
X144940964Y-78292131D01*
X145060432Y-78256970D01*
X145060468Y-78256967D01*
X145060477Y-78256964D01*
X145184451Y-78245682D01*
X145308261Y-78258695D01*
X145308261Y-78258695D01*
G37*
G36*
X142768261Y-78258695D02*
X142768308Y-78258700D01*
X142887274Y-78295526D01*
X142996821Y-78354758D01*
X143092777Y-78434140D01*
X143171487Y-78530648D01*
X143229953Y-78640606D01*
X143265947Y-78759826D01*
X143278100Y-78883767D01*
X143278100Y-80196268D01*
X143278053Y-80203086D01*
X143278052Y-80203093D01*
X143278038Y-80205142D01*
X143264156Y-80328901D01*
X143226500Y-80447607D01*
X143166505Y-80556738D01*
X143086455Y-80652138D01*
X142989400Y-80730172D01*
X142879036Y-80787869D01*
X142759568Y-80823030D01*
X142759532Y-80823033D01*
X142759523Y-80823036D01*
X142635549Y-80834318D01*
X142511739Y-80821305D01*
X142511692Y-80821300D01*
X142392726Y-80784474D01*
X142283179Y-80725242D01*
X142187223Y-80645860D01*
X142108513Y-80549352D01*
X142050047Y-80439394D01*
X142014053Y-80320174D01*
X142001900Y-80196233D01*
X142001900Y-78883732D01*
X142001947Y-78876914D01*
X142001948Y-78876907D01*
X142001962Y-78874858D01*
X142015844Y-78751099D01*
X142053500Y-78632393D01*
X142113495Y-78523262D01*
X142193545Y-78427862D01*
X142290600Y-78349828D01*
X142400964Y-78292131D01*
X142520432Y-78256970D01*
X142520468Y-78256967D01*
X142520477Y-78256964D01*
X142644451Y-78245682D01*
X142768261Y-78258695D01*
X142768261Y-78258695D01*
G37*
G36*
X140228261Y-78258695D02*
X140228308Y-78258700D01*
X140347274Y-78295526D01*
X140456821Y-78354758D01*
X140552777Y-78434140D01*
X140631487Y-78530648D01*
X140689953Y-78640606D01*
X140725947Y-78759826D01*
X140738100Y-78883767D01*
X140738100Y-80196268D01*
X140738053Y-80203086D01*
X140738052Y-80203093D01*
X140738038Y-80205142D01*
X140724156Y-80328901D01*
X140686500Y-80447607D01*
X140626505Y-80556738D01*
X140546455Y-80652138D01*
X140449400Y-80730172D01*
X140339036Y-80787869D01*
X140219568Y-80823030D01*
X140219532Y-80823033D01*
X140219523Y-80823036D01*
X140095549Y-80834318D01*
X139971739Y-80821305D01*
X139971692Y-80821300D01*
X139852726Y-80784474D01*
X139743179Y-80725242D01*
X139647223Y-80645860D01*
X139568513Y-80549352D01*
X139510047Y-80439394D01*
X139474053Y-80320174D01*
X139461900Y-80196233D01*
X139461900Y-78883732D01*
X139461947Y-78876914D01*
X139461948Y-78876907D01*
X139461962Y-78874858D01*
X139475844Y-78751099D01*
X139513500Y-78632393D01*
X139573495Y-78523262D01*
X139653545Y-78427862D01*
X139750600Y-78349828D01*
X139860964Y-78292131D01*
X139980432Y-78256970D01*
X139980468Y-78256967D01*
X139980477Y-78256964D01*
X140104451Y-78245682D01*
X140228261Y-78258695D01*
X140228261Y-78258695D01*
G37*
G36*
X134503476Y-72543989D02*
X134503481Y-72543991D01*
X134503523Y-72543995D01*
X134659777Y-72592363D01*
X134803660Y-72670161D01*
X134929691Y-72774423D01*
X135033071Y-72901180D01*
X135109862Y-73045602D01*
X135157139Y-73202189D01*
X135173100Y-73364977D01*
X135173100Y-73775056D01*
X135173033Y-73784668D01*
X135173032Y-73784674D01*
X135173018Y-73786725D01*
X135154786Y-73949274D01*
X135105327Y-74105186D01*
X135026528Y-74248522D01*
X134921388Y-74373823D01*
X134793913Y-74476315D01*
X134648958Y-74552096D01*
X134492044Y-74598278D01*
X134492008Y-74598281D01*
X134491999Y-74598284D01*
X134329152Y-74613104D01*
X134166524Y-74596011D01*
X134166519Y-74596009D01*
X134166477Y-74596005D01*
X134010223Y-74547637D01*
X133866340Y-74469839D01*
X133740309Y-74365577D01*
X133636929Y-74238820D01*
X133560138Y-74094398D01*
X133512861Y-73937811D01*
X133496900Y-73775023D01*
X133496900Y-73364944D01*
X133496967Y-73355332D01*
X133496968Y-73355326D01*
X133496982Y-73353275D01*
X133515214Y-73190726D01*
X133564673Y-73034814D01*
X133643472Y-72891478D01*
X133748612Y-72766177D01*
X133876087Y-72663685D01*
X134021042Y-72587904D01*
X134177956Y-72541722D01*
X134177992Y-72541719D01*
X134178001Y-72541716D01*
X134340848Y-72526896D01*
X134503476Y-72543989D01*
X134503476Y-72543989D01*
G37*
G36*
X168553476Y-72543989D02*
X168553481Y-72543991D01*
X168553523Y-72543995D01*
X168709777Y-72592363D01*
X168853660Y-72670161D01*
X168979691Y-72774423D01*
X169083071Y-72901180D01*
X169159862Y-73045602D01*
X169207139Y-73202189D01*
X169223100Y-73364977D01*
X169223100Y-73775056D01*
X169223033Y-73784668D01*
X169223032Y-73784674D01*
X169223018Y-73786725D01*
X169204786Y-73949274D01*
X169155327Y-74105186D01*
X169076528Y-74248522D01*
X168971388Y-74373823D01*
X168843913Y-74476315D01*
X168698958Y-74552096D01*
X168542044Y-74598278D01*
X168542008Y-74598281D01*
X168541999Y-74598284D01*
X168379152Y-74613104D01*
X168216524Y-74596011D01*
X168216519Y-74596009D01*
X168216477Y-74596005D01*
X168060223Y-74547637D01*
X167916340Y-74469839D01*
X167790309Y-74365577D01*
X167686929Y-74238820D01*
X167610138Y-74094398D01*
X167562861Y-73937811D01*
X167546900Y-73775023D01*
X167546900Y-73364944D01*
X167546967Y-73355332D01*
X167546968Y-73355326D01*
X167546982Y-73353275D01*
X167565214Y-73190726D01*
X167614673Y-73034814D01*
X167693472Y-72891478D01*
X167798612Y-72766177D01*
X167926087Y-72663685D01*
X168071042Y-72587904D01*
X168227956Y-72541722D01*
X168227992Y-72541719D01*
X168228001Y-72541716D01*
X168390848Y-72526896D01*
X168553476Y-72543989D01*
X168553476Y-72543989D01*
G37*
G36*
X164728476Y-71792538D02*
X164728481Y-71792540D01*
X164728523Y-71792544D01*
X164884777Y-71840912D01*
X165028660Y-71918710D01*
X165154691Y-72022972D01*
X165258071Y-72149729D01*
X165334862Y-72294151D01*
X165382139Y-72450738D01*
X165398100Y-72613526D01*
X165398100Y-73626507D01*
X165398033Y-73636119D01*
X165398032Y-73636125D01*
X165398018Y-73638176D01*
X165379786Y-73800725D01*
X165330327Y-73956637D01*
X165251528Y-74099973D01*
X165146388Y-74225274D01*
X165018913Y-74327766D01*
X164873958Y-74403547D01*
X164717044Y-74449729D01*
X164717008Y-74449732D01*
X164716999Y-74449735D01*
X164554152Y-74464555D01*
X164391524Y-74447462D01*
X164391519Y-74447460D01*
X164391477Y-74447456D01*
X164235223Y-74399088D01*
X164091340Y-74321290D01*
X163965309Y-74217028D01*
X163861929Y-74090271D01*
X163785138Y-73945849D01*
X163737861Y-73789262D01*
X163721900Y-73626474D01*
X163721900Y-72613493D01*
X163721967Y-72603881D01*
X163721968Y-72603875D01*
X163721982Y-72601824D01*
X163740214Y-72439275D01*
X163789673Y-72283363D01*
X163868472Y-72140027D01*
X163973612Y-72014726D01*
X164101087Y-71912234D01*
X164246042Y-71836453D01*
X164402956Y-71790271D01*
X164402992Y-71790268D01*
X164403001Y-71790265D01*
X164565848Y-71775445D01*
X164728476Y-71792538D01*
X164728476Y-71792538D01*
G37*
G36*
X138328476Y-67792538D02*
X138328481Y-67792540D01*
X138328523Y-67792544D01*
X138484777Y-67840912D01*
X138628660Y-67918710D01*
X138754691Y-68022972D01*
X138858071Y-68149729D01*
X138934862Y-68294151D01*
X138982139Y-68450738D01*
X138998100Y-68613526D01*
X138998100Y-69626507D01*
X138998033Y-69636119D01*
X138998032Y-69636125D01*
X138998018Y-69638176D01*
X138979786Y-69800725D01*
X138930327Y-69956637D01*
X138851528Y-70099973D01*
X138746388Y-70225274D01*
X138618913Y-70327766D01*
X138473958Y-70403547D01*
X138317044Y-70449729D01*
X138317008Y-70449732D01*
X138316999Y-70449735D01*
X138154152Y-70464555D01*
X137991524Y-70447462D01*
X137991519Y-70447460D01*
X137991477Y-70447456D01*
X137835223Y-70399088D01*
X137691340Y-70321290D01*
X137565309Y-70217028D01*
X137461929Y-70090271D01*
X137385138Y-69945849D01*
X137337861Y-69789262D01*
X137321900Y-69626474D01*
X137321900Y-68613493D01*
X137321967Y-68603881D01*
X137321968Y-68603875D01*
X137321982Y-68601824D01*
X137340214Y-68439275D01*
X137389673Y-68283363D01*
X137468472Y-68140027D01*
X137573612Y-68014726D01*
X137701087Y-67912234D01*
X137846042Y-67836453D01*
X138002956Y-67790271D01*
X138002992Y-67790268D01*
X138003001Y-67790265D01*
X138165848Y-67775445D01*
X138328476Y-67792538D01*
X138328476Y-67792538D01*
G37*
G36*
X134503476Y-67342538D02*
X134503481Y-67342540D01*
X134503523Y-67342544D01*
X134659777Y-67390912D01*
X134803660Y-67468710D01*
X134929691Y-67572972D01*
X135033071Y-67699729D01*
X135109862Y-67844151D01*
X135157139Y-68000738D01*
X135173100Y-68163526D01*
X135173100Y-69176507D01*
X135173033Y-69186119D01*
X135173032Y-69186125D01*
X135173018Y-69188176D01*
X135154786Y-69350725D01*
X135105327Y-69506637D01*
X135026528Y-69649973D01*
X134921388Y-69775274D01*
X134793913Y-69877766D01*
X134648958Y-69953547D01*
X134492044Y-69999729D01*
X134492008Y-69999732D01*
X134491999Y-69999735D01*
X134329152Y-70014555D01*
X134166524Y-69997462D01*
X134166519Y-69997460D01*
X134166477Y-69997456D01*
X134010223Y-69949088D01*
X133866340Y-69871290D01*
X133740309Y-69767028D01*
X133636929Y-69640271D01*
X133560138Y-69495849D01*
X133512861Y-69339262D01*
X133496900Y-69176474D01*
X133496900Y-68163493D01*
X133496967Y-68153881D01*
X133496968Y-68153875D01*
X133496982Y-68151824D01*
X133515214Y-67989275D01*
X133564673Y-67833363D01*
X133643472Y-67690027D01*
X133748612Y-67564726D01*
X133876087Y-67462234D01*
X134021042Y-67386453D01*
X134177956Y-67340271D01*
X134177992Y-67340268D01*
X134178001Y-67340265D01*
X134340848Y-67325445D01*
X134503476Y-67342538D01*
X134503476Y-67342538D01*
G37*
G36*
X168553476Y-67342538D02*
X168553481Y-67342540D01*
X168553523Y-67342544D01*
X168709777Y-67390912D01*
X168853660Y-67468710D01*
X168979691Y-67572972D01*
X169083071Y-67699729D01*
X169159862Y-67844151D01*
X169207139Y-68000738D01*
X169223100Y-68163526D01*
X169223100Y-69176507D01*
X169223033Y-69186119D01*
X169223032Y-69186125D01*
X169223018Y-69188176D01*
X169204786Y-69350725D01*
X169155327Y-69506637D01*
X169076528Y-69649973D01*
X168971388Y-69775274D01*
X168843913Y-69877766D01*
X168698958Y-69953547D01*
X168542044Y-69999729D01*
X168542008Y-69999732D01*
X168541999Y-69999735D01*
X168379152Y-70014555D01*
X168216524Y-69997462D01*
X168216519Y-69997460D01*
X168216477Y-69997456D01*
X168060223Y-69949088D01*
X167916340Y-69871290D01*
X167790309Y-69767028D01*
X167686929Y-69640271D01*
X167610138Y-69495849D01*
X167562861Y-69339262D01*
X167546900Y-69176474D01*
X167546900Y-68163493D01*
X167546967Y-68153881D01*
X167546968Y-68153875D01*
X167546982Y-68151824D01*
X167565214Y-67989275D01*
X167614673Y-67833363D01*
X167693472Y-67690027D01*
X167798612Y-67564726D01*
X167926087Y-67462234D01*
X168071042Y-67386453D01*
X168227956Y-67340271D01*
X168227992Y-67340268D01*
X168228001Y-67340265D01*
X168390848Y-67325445D01*
X168553476Y-67342538D01*
X168553476Y-67342538D01*
G37*
G36*
X152928261Y-62218695D02*
X152928308Y-62218700D01*
X153047274Y-62255526D01*
X153156821Y-62314758D01*
X153252777Y-62394140D01*
X153331487Y-62490648D01*
X153389953Y-62600606D01*
X153425947Y-62719826D01*
X153438100Y-62843767D01*
X153438100Y-64156268D01*
X153438053Y-64163086D01*
X153438052Y-64163093D01*
X153438038Y-64165142D01*
X153424156Y-64288901D01*
X153386500Y-64407607D01*
X153326505Y-64516738D01*
X153246455Y-64612138D01*
X153149400Y-64690172D01*
X153039036Y-64747869D01*
X152919568Y-64783030D01*
X152919532Y-64783033D01*
X152919523Y-64783036D01*
X152795549Y-64794318D01*
X152671739Y-64781305D01*
X152671692Y-64781300D01*
X152552726Y-64744474D01*
X152443179Y-64685242D01*
X152347223Y-64605860D01*
X152268513Y-64509352D01*
X152210047Y-64399394D01*
X152174053Y-64280174D01*
X152161900Y-64156233D01*
X152161900Y-62843732D01*
X152161947Y-62836914D01*
X152161948Y-62836907D01*
X152161962Y-62834858D01*
X152175844Y-62711099D01*
X152213500Y-62592393D01*
X152273495Y-62483262D01*
X152353545Y-62387862D01*
X152450600Y-62309828D01*
X152560964Y-62252131D01*
X152680432Y-62216970D01*
X152680468Y-62216967D01*
X152680477Y-62216964D01*
X152804451Y-62205682D01*
X152928261Y-62218695D01*
X152928261Y-62218695D01*
G37*
G36*
X165628261Y-62218695D02*
X165628308Y-62218700D01*
X165747274Y-62255526D01*
X165856821Y-62314758D01*
X165952777Y-62394140D01*
X166031487Y-62490648D01*
X166089953Y-62600606D01*
X166125947Y-62719826D01*
X166138100Y-62843767D01*
X166138100Y-64156268D01*
X166138053Y-64163086D01*
X166138052Y-64163093D01*
X166138038Y-64165142D01*
X166124156Y-64288901D01*
X166086500Y-64407607D01*
X166026505Y-64516738D01*
X165946455Y-64612138D01*
X165849400Y-64690172D01*
X165739036Y-64747869D01*
X165619568Y-64783030D01*
X165619532Y-64783033D01*
X165619523Y-64783036D01*
X165495549Y-64794318D01*
X165371739Y-64781305D01*
X165371692Y-64781300D01*
X165252726Y-64744474D01*
X165143179Y-64685242D01*
X165047223Y-64605860D01*
X164968513Y-64509352D01*
X164910047Y-64399394D01*
X164874053Y-64280174D01*
X164861900Y-64156233D01*
X164861900Y-62843732D01*
X164861947Y-62836914D01*
X164861948Y-62836907D01*
X164861962Y-62834858D01*
X164875844Y-62711099D01*
X164913500Y-62592393D01*
X164973495Y-62483262D01*
X165053545Y-62387862D01*
X165150600Y-62309828D01*
X165260964Y-62252131D01*
X165380432Y-62216970D01*
X165380468Y-62216967D01*
X165380477Y-62216964D01*
X165504451Y-62205682D01*
X165628261Y-62218695D01*
X165628261Y-62218695D01*
G37*
G36*
X163088261Y-62218695D02*
X163088308Y-62218700D01*
X163207274Y-62255526D01*
X163316821Y-62314758D01*
X163412777Y-62394140D01*
X163491487Y-62490648D01*
X163549953Y-62600606D01*
X163585947Y-62719826D01*
X163598100Y-62843767D01*
X163598100Y-64156268D01*
X163598053Y-64163086D01*
X163598052Y-64163093D01*
X163598038Y-64165142D01*
X163584156Y-64288901D01*
X163546500Y-64407607D01*
X163486505Y-64516738D01*
X163406455Y-64612138D01*
X163309400Y-64690172D01*
X163199036Y-64747869D01*
X163079568Y-64783030D01*
X163079532Y-64783033D01*
X163079523Y-64783036D01*
X162955549Y-64794318D01*
X162831739Y-64781305D01*
X162831692Y-64781300D01*
X162712726Y-64744474D01*
X162603179Y-64685242D01*
X162507223Y-64605860D01*
X162428513Y-64509352D01*
X162370047Y-64399394D01*
X162334053Y-64280174D01*
X162321900Y-64156233D01*
X162321900Y-62843732D01*
X162321947Y-62836914D01*
X162321948Y-62836907D01*
X162321962Y-62834858D01*
X162335844Y-62711099D01*
X162373500Y-62592393D01*
X162433495Y-62483262D01*
X162513545Y-62387862D01*
X162610600Y-62309828D01*
X162720964Y-62252131D01*
X162840432Y-62216970D01*
X162840468Y-62216967D01*
X162840477Y-62216964D01*
X162964451Y-62205682D01*
X163088261Y-62218695D01*
X163088261Y-62218695D01*
G37*
G36*
X160548261Y-62218695D02*
X160548308Y-62218700D01*
X160667274Y-62255526D01*
X160776821Y-62314758D01*
X160872777Y-62394140D01*
X160951487Y-62490648D01*
X161009953Y-62600606D01*
X161045947Y-62719826D01*
X161058100Y-62843767D01*
X161058100Y-64156268D01*
X161058053Y-64163086D01*
X161058052Y-64163093D01*
X161058038Y-64165142D01*
X161044156Y-64288901D01*
X161006500Y-64407607D01*
X160946505Y-64516738D01*
X160866455Y-64612138D01*
X160769400Y-64690172D01*
X160659036Y-64747869D01*
X160539568Y-64783030D01*
X160539532Y-64783033D01*
X160539523Y-64783036D01*
X160415549Y-64794318D01*
X160291739Y-64781305D01*
X160291692Y-64781300D01*
X160172726Y-64744474D01*
X160063179Y-64685242D01*
X159967223Y-64605860D01*
X159888513Y-64509352D01*
X159830047Y-64399394D01*
X159794053Y-64280174D01*
X159781900Y-64156233D01*
X159781900Y-62843732D01*
X159781947Y-62836914D01*
X159781948Y-62836907D01*
X159781962Y-62834858D01*
X159795844Y-62711099D01*
X159833500Y-62592393D01*
X159893495Y-62483262D01*
X159973545Y-62387862D01*
X160070600Y-62309828D01*
X160180964Y-62252131D01*
X160300432Y-62216970D01*
X160300468Y-62216967D01*
X160300477Y-62216964D01*
X160424451Y-62205682D01*
X160548261Y-62218695D01*
X160548261Y-62218695D01*
G37*
G36*
X158008261Y-62218695D02*
X158008308Y-62218700D01*
X158127274Y-62255526D01*
X158236821Y-62314758D01*
X158332777Y-62394140D01*
X158411487Y-62490648D01*
X158469953Y-62600606D01*
X158505947Y-62719826D01*
X158518100Y-62843767D01*
X158518100Y-64156268D01*
X158518053Y-64163086D01*
X158518052Y-64163093D01*
X158518038Y-64165142D01*
X158504156Y-64288901D01*
X158466500Y-64407607D01*
X158406505Y-64516738D01*
X158326455Y-64612138D01*
X158229400Y-64690172D01*
X158119036Y-64747869D01*
X157999568Y-64783030D01*
X157999532Y-64783033D01*
X157999523Y-64783036D01*
X157875549Y-64794318D01*
X157751739Y-64781305D01*
X157751692Y-64781300D01*
X157632726Y-64744474D01*
X157523179Y-64685242D01*
X157427223Y-64605860D01*
X157348513Y-64509352D01*
X157290047Y-64399394D01*
X157254053Y-64280174D01*
X157241900Y-64156233D01*
X157241900Y-62843732D01*
X157241947Y-62836914D01*
X157241948Y-62836907D01*
X157241962Y-62834858D01*
X157255844Y-62711099D01*
X157293500Y-62592393D01*
X157353495Y-62483262D01*
X157433545Y-62387862D01*
X157530600Y-62309828D01*
X157640964Y-62252131D01*
X157760432Y-62216970D01*
X157760468Y-62216967D01*
X157760477Y-62216964D01*
X157884451Y-62205682D01*
X158008261Y-62218695D01*
X158008261Y-62218695D01*
G37*
G36*
X155468261Y-62218695D02*
X155468308Y-62218700D01*
X155587274Y-62255526D01*
X155696821Y-62314758D01*
X155792777Y-62394140D01*
X155871487Y-62490648D01*
X155929953Y-62600606D01*
X155965947Y-62719826D01*
X155978100Y-62843767D01*
X155978100Y-64156268D01*
X155978053Y-64163086D01*
X155978052Y-64163093D01*
X155978038Y-64165142D01*
X155964156Y-64288901D01*
X155926500Y-64407607D01*
X155866505Y-64516738D01*
X155786455Y-64612138D01*
X155689400Y-64690172D01*
X155579036Y-64747869D01*
X155459568Y-64783030D01*
X155459532Y-64783033D01*
X155459523Y-64783036D01*
X155335549Y-64794318D01*
X155211739Y-64781305D01*
X155211692Y-64781300D01*
X155092726Y-64744474D01*
X154983179Y-64685242D01*
X154887223Y-64605860D01*
X154808513Y-64509352D01*
X154750047Y-64399394D01*
X154714053Y-64280174D01*
X154701900Y-64156233D01*
X154701900Y-62843732D01*
X154701947Y-62836914D01*
X154701948Y-62836907D01*
X154701962Y-62834858D01*
X154715844Y-62711099D01*
X154753500Y-62592393D01*
X154813495Y-62483262D01*
X154893545Y-62387862D01*
X154990600Y-62309828D01*
X155100964Y-62252131D01*
X155220432Y-62216970D01*
X155220468Y-62216967D01*
X155220477Y-62216964D01*
X155344451Y-62205682D01*
X155468261Y-62218695D01*
X155468261Y-62218695D01*
G37*
G36*
X150388261Y-62218695D02*
X150388308Y-62218700D01*
X150507274Y-62255526D01*
X150616821Y-62314758D01*
X150712777Y-62394140D01*
X150791487Y-62490648D01*
X150849953Y-62600606D01*
X150885947Y-62719826D01*
X150898100Y-62843767D01*
X150898100Y-64156268D01*
X150898053Y-64163086D01*
X150898052Y-64163093D01*
X150898038Y-64165142D01*
X150884156Y-64288901D01*
X150846500Y-64407607D01*
X150786505Y-64516738D01*
X150706455Y-64612138D01*
X150609400Y-64690172D01*
X150499036Y-64747869D01*
X150379568Y-64783030D01*
X150379532Y-64783033D01*
X150379523Y-64783036D01*
X150255549Y-64794318D01*
X150131739Y-64781305D01*
X150131692Y-64781300D01*
X150012726Y-64744474D01*
X149903179Y-64685242D01*
X149807223Y-64605860D01*
X149728513Y-64509352D01*
X149670047Y-64399394D01*
X149634053Y-64280174D01*
X149621900Y-64156233D01*
X149621900Y-62843732D01*
X149621947Y-62836914D01*
X149621948Y-62836907D01*
X149621962Y-62834858D01*
X149635844Y-62711099D01*
X149673500Y-62592393D01*
X149733495Y-62483262D01*
X149813545Y-62387862D01*
X149910600Y-62309828D01*
X150020964Y-62252131D01*
X150140432Y-62216970D01*
X150140468Y-62216967D01*
X150140477Y-62216964D01*
X150264451Y-62205682D01*
X150388261Y-62218695D01*
X150388261Y-62218695D01*
G37*
G36*
X147848261Y-62218695D02*
X147848308Y-62218700D01*
X147967274Y-62255526D01*
X148076821Y-62314758D01*
X148172777Y-62394140D01*
X148251487Y-62490648D01*
X148309953Y-62600606D01*
X148345947Y-62719826D01*
X148358100Y-62843767D01*
X148358100Y-64156268D01*
X148358053Y-64163086D01*
X148358052Y-64163093D01*
X148358038Y-64165142D01*
X148344156Y-64288901D01*
X148306500Y-64407607D01*
X148246505Y-64516738D01*
X148166455Y-64612138D01*
X148069400Y-64690172D01*
X147959036Y-64747869D01*
X147839568Y-64783030D01*
X147839532Y-64783033D01*
X147839523Y-64783036D01*
X147715549Y-64794318D01*
X147591739Y-64781305D01*
X147591692Y-64781300D01*
X147472726Y-64744474D01*
X147363179Y-64685242D01*
X147267223Y-64605860D01*
X147188513Y-64509352D01*
X147130047Y-64399394D01*
X147094053Y-64280174D01*
X147081900Y-64156233D01*
X147081900Y-62843732D01*
X147081947Y-62836914D01*
X147081948Y-62836907D01*
X147081962Y-62834858D01*
X147095844Y-62711099D01*
X147133500Y-62592393D01*
X147193495Y-62483262D01*
X147273545Y-62387862D01*
X147370600Y-62309828D01*
X147480964Y-62252131D01*
X147600432Y-62216970D01*
X147600468Y-62216967D01*
X147600477Y-62216964D01*
X147724451Y-62205682D01*
X147848261Y-62218695D01*
X147848261Y-62218695D01*
G37*
G36*
X145308261Y-62218695D02*
X145308308Y-62218700D01*
X145427274Y-62255526D01*
X145536821Y-62314758D01*
X145632777Y-62394140D01*
X145711487Y-62490648D01*
X145769953Y-62600606D01*
X145805947Y-62719826D01*
X145818100Y-62843767D01*
X145818100Y-64156268D01*
X145818053Y-64163086D01*
X145818052Y-64163093D01*
X145818038Y-64165142D01*
X145804156Y-64288901D01*
X145766500Y-64407607D01*
X145706505Y-64516738D01*
X145626455Y-64612138D01*
X145529400Y-64690172D01*
X145419036Y-64747869D01*
X145299568Y-64783030D01*
X145299532Y-64783033D01*
X145299523Y-64783036D01*
X145175549Y-64794318D01*
X145051739Y-64781305D01*
X145051692Y-64781300D01*
X144932726Y-64744474D01*
X144823179Y-64685242D01*
X144727223Y-64605860D01*
X144648513Y-64509352D01*
X144590047Y-64399394D01*
X144554053Y-64280174D01*
X144541900Y-64156233D01*
X144541900Y-62843732D01*
X144541947Y-62836914D01*
X144541948Y-62836907D01*
X144541962Y-62834858D01*
X144555844Y-62711099D01*
X144593500Y-62592393D01*
X144653495Y-62483262D01*
X144733545Y-62387862D01*
X144830600Y-62309828D01*
X144940964Y-62252131D01*
X145060432Y-62216970D01*
X145060468Y-62216967D01*
X145060477Y-62216964D01*
X145184451Y-62205682D01*
X145308261Y-62218695D01*
X145308261Y-62218695D01*
G37*
G36*
X135148261Y-62218695D02*
X135148308Y-62218700D01*
X135267274Y-62255526D01*
X135376821Y-62314758D01*
X135472777Y-62394140D01*
X135551487Y-62490648D01*
X135609953Y-62600606D01*
X135645947Y-62719826D01*
X135658100Y-62843767D01*
X135658100Y-64156268D01*
X135658053Y-64163086D01*
X135658052Y-64163093D01*
X135658038Y-64165142D01*
X135644156Y-64288901D01*
X135606500Y-64407607D01*
X135546505Y-64516738D01*
X135466455Y-64612138D01*
X135369400Y-64690172D01*
X135259036Y-64747869D01*
X135139568Y-64783030D01*
X135139532Y-64783033D01*
X135139523Y-64783036D01*
X135015549Y-64794318D01*
X134891739Y-64781305D01*
X134891692Y-64781300D01*
X134772726Y-64744474D01*
X134663179Y-64685242D01*
X134567223Y-64605860D01*
X134488513Y-64509352D01*
X134430047Y-64399394D01*
X134394053Y-64280174D01*
X134381900Y-64156233D01*
X134381900Y-62843732D01*
X134381947Y-62836914D01*
X134381948Y-62836907D01*
X134381962Y-62834858D01*
X134395844Y-62711099D01*
X134433500Y-62592393D01*
X134493495Y-62483262D01*
X134573545Y-62387862D01*
X134670600Y-62309828D01*
X134780964Y-62252131D01*
X134900432Y-62216970D01*
X134900468Y-62216967D01*
X134900477Y-62216964D01*
X135024451Y-62205682D01*
X135148261Y-62218695D01*
X135148261Y-62218695D01*
G37*
G36*
X137688261Y-62218695D02*
X137688308Y-62218700D01*
X137807274Y-62255526D01*
X137916821Y-62314758D01*
X138012777Y-62394140D01*
X138091487Y-62490648D01*
X138149953Y-62600606D01*
X138185947Y-62719826D01*
X138198100Y-62843767D01*
X138198100Y-64156268D01*
X138198053Y-64163086D01*
X138198052Y-64163093D01*
X138198038Y-64165142D01*
X138184156Y-64288901D01*
X138146500Y-64407607D01*
X138086505Y-64516738D01*
X138006455Y-64612138D01*
X137909400Y-64690172D01*
X137799036Y-64747869D01*
X137679568Y-64783030D01*
X137679532Y-64783033D01*
X137679523Y-64783036D01*
X137555549Y-64794318D01*
X137431739Y-64781305D01*
X137431692Y-64781300D01*
X137312726Y-64744474D01*
X137203179Y-64685242D01*
X137107223Y-64605860D01*
X137028513Y-64509352D01*
X136970047Y-64399394D01*
X136934053Y-64280174D01*
X136921900Y-64156233D01*
X136921900Y-62843732D01*
X136921947Y-62836914D01*
X136921948Y-62836907D01*
X136921962Y-62834858D01*
X136935844Y-62711099D01*
X136973500Y-62592393D01*
X137033495Y-62483262D01*
X137113545Y-62387862D01*
X137210600Y-62309828D01*
X137320964Y-62252131D01*
X137440432Y-62216970D01*
X137440468Y-62216967D01*
X137440477Y-62216964D01*
X137564451Y-62205682D01*
X137688261Y-62218695D01*
X137688261Y-62218695D01*
G37*
G36*
X140228261Y-62218695D02*
X140228308Y-62218700D01*
X140347274Y-62255526D01*
X140456821Y-62314758D01*
X140552777Y-62394140D01*
X140631487Y-62490648D01*
X140689953Y-62600606D01*
X140725947Y-62719826D01*
X140738100Y-62843767D01*
X140738100Y-64156268D01*
X140738053Y-64163086D01*
X140738052Y-64163093D01*
X140738038Y-64165142D01*
X140724156Y-64288901D01*
X140686500Y-64407607D01*
X140626505Y-64516738D01*
X140546455Y-64612138D01*
X140449400Y-64690172D01*
X140339036Y-64747869D01*
X140219568Y-64783030D01*
X140219532Y-64783033D01*
X140219523Y-64783036D01*
X140095549Y-64794318D01*
X139971739Y-64781305D01*
X139971692Y-64781300D01*
X139852726Y-64744474D01*
X139743179Y-64685242D01*
X139647223Y-64605860D01*
X139568513Y-64509352D01*
X139510047Y-64399394D01*
X139474053Y-64280174D01*
X139461900Y-64156233D01*
X139461900Y-62843732D01*
X139461947Y-62836914D01*
X139461948Y-62836907D01*
X139461962Y-62834858D01*
X139475844Y-62711099D01*
X139513500Y-62592393D01*
X139573495Y-62483262D01*
X139653545Y-62387862D01*
X139750600Y-62309828D01*
X139860964Y-62252131D01*
X139980432Y-62216970D01*
X139980468Y-62216967D01*
X139980477Y-62216964D01*
X140104451Y-62205682D01*
X140228261Y-62218695D01*
X140228261Y-62218695D01*
G37*
G36*
X142768261Y-62218695D02*
X142768308Y-62218700D01*
X142887274Y-62255526D01*
X142996821Y-62314758D01*
X143092777Y-62394140D01*
X143171487Y-62490648D01*
X143229953Y-62600606D01*
X143265947Y-62719826D01*
X143278100Y-62843767D01*
X143278100Y-64156268D01*
X143278053Y-64163086D01*
X143278052Y-64163093D01*
X143278038Y-64165142D01*
X143264156Y-64288901D01*
X143226500Y-64407607D01*
X143166505Y-64516738D01*
X143086455Y-64612138D01*
X142989400Y-64690172D01*
X142879036Y-64747869D01*
X142759568Y-64783030D01*
X142759532Y-64783033D01*
X142759523Y-64783036D01*
X142635549Y-64794318D01*
X142511739Y-64781305D01*
X142511692Y-64781300D01*
X142392726Y-64744474D01*
X142283179Y-64685242D01*
X142187223Y-64605860D01*
X142108513Y-64509352D01*
X142050047Y-64399394D01*
X142014053Y-64280174D01*
X142001900Y-64156233D01*
X142001900Y-62843732D01*
X142001947Y-62836914D01*
X142001948Y-62836907D01*
X142001962Y-62834858D01*
X142015844Y-62711099D01*
X142053500Y-62592393D01*
X142113495Y-62483262D01*
X142193545Y-62387862D01*
X142290600Y-62309828D01*
X142400964Y-62252131D01*
X142520432Y-62216970D01*
X142520468Y-62216967D01*
X142520477Y-62216964D01*
X142644451Y-62205682D01*
X142768261Y-62218695D01*
X142768261Y-62218695D01*
G37*
G36*
X139428261Y-57938695D02*
X139428308Y-57938700D01*
X139547274Y-57975526D01*
X139656821Y-58034758D01*
X139752777Y-58114140D01*
X139831487Y-58210648D01*
X139889953Y-58320606D01*
X139925947Y-58439826D01*
X139938100Y-58563767D01*
X139938100Y-59876268D01*
X139938053Y-59883086D01*
X139938052Y-59883093D01*
X139938038Y-59885142D01*
X139924156Y-60008901D01*
X139886500Y-60127607D01*
X139826505Y-60236738D01*
X139746455Y-60332138D01*
X139649400Y-60410172D01*
X139539036Y-60467869D01*
X139419568Y-60503030D01*
X139419532Y-60503033D01*
X139419523Y-60503036D01*
X139295549Y-60514318D01*
X139171739Y-60501305D01*
X139171692Y-60501300D01*
X139052726Y-60464474D01*
X138943179Y-60405242D01*
X138847223Y-60325860D01*
X138768513Y-60229352D01*
X138710047Y-60119394D01*
X138674053Y-60000174D01*
X138661900Y-59876233D01*
X138661900Y-58563732D01*
X138661947Y-58556914D01*
X138661948Y-58556907D01*
X138661962Y-58554858D01*
X138675844Y-58431099D01*
X138713500Y-58312393D01*
X138773495Y-58203262D01*
X138853545Y-58107862D01*
X138950600Y-58029828D01*
X139060964Y-57972131D01*
X139180432Y-57936970D01*
X139180468Y-57936967D01*
X139180477Y-57936964D01*
X139304451Y-57925682D01*
X139428261Y-57938695D01*
X139428261Y-57938695D01*
G37*
G36*
X141968261Y-57938695D02*
X141968308Y-57938700D01*
X142087274Y-57975526D01*
X142196821Y-58034758D01*
X142292777Y-58114140D01*
X142371487Y-58210648D01*
X142429953Y-58320606D01*
X142465947Y-58439826D01*
X142478100Y-58563767D01*
X142478100Y-59876268D01*
X142478053Y-59883086D01*
X142478052Y-59883093D01*
X142478038Y-59885142D01*
X142464156Y-60008901D01*
X142426500Y-60127607D01*
X142366505Y-60236738D01*
X142286455Y-60332138D01*
X142189400Y-60410172D01*
X142079036Y-60467869D01*
X141959568Y-60503030D01*
X141959532Y-60503033D01*
X141959523Y-60503036D01*
X141835549Y-60514318D01*
X141711739Y-60501305D01*
X141711692Y-60501300D01*
X141592726Y-60464474D01*
X141483179Y-60405242D01*
X141387223Y-60325860D01*
X141308513Y-60229352D01*
X141250047Y-60119394D01*
X141214053Y-60000174D01*
X141201900Y-59876233D01*
X141201900Y-58563732D01*
X141201947Y-58556914D01*
X141201948Y-58556907D01*
X141201962Y-58554858D01*
X141215844Y-58431099D01*
X141253500Y-58312393D01*
X141313495Y-58203262D01*
X141393545Y-58107862D01*
X141490600Y-58029828D01*
X141600964Y-57972131D01*
X141720432Y-57936970D01*
X141720468Y-57936967D01*
X141720477Y-57936964D01*
X141844451Y-57925682D01*
X141968261Y-57938695D01*
X141968261Y-57938695D01*
G37*
G36*
X144508261Y-57938695D02*
X144508308Y-57938700D01*
X144627274Y-57975526D01*
X144736821Y-58034758D01*
X144832777Y-58114140D01*
X144911487Y-58210648D01*
X144969953Y-58320606D01*
X145005947Y-58439826D01*
X145018100Y-58563767D01*
X145018100Y-59876268D01*
X145018053Y-59883086D01*
X145018052Y-59883093D01*
X145018038Y-59885142D01*
X145004156Y-60008901D01*
X144966500Y-60127607D01*
X144906505Y-60236738D01*
X144826455Y-60332138D01*
X144729400Y-60410172D01*
X144619036Y-60467869D01*
X144499568Y-60503030D01*
X144499532Y-60503033D01*
X144499523Y-60503036D01*
X144375549Y-60514318D01*
X144251739Y-60501305D01*
X144251692Y-60501300D01*
X144132726Y-60464474D01*
X144023179Y-60405242D01*
X143927223Y-60325860D01*
X143848513Y-60229352D01*
X143790047Y-60119394D01*
X143754053Y-60000174D01*
X143741900Y-59876233D01*
X143741900Y-58563732D01*
X143741947Y-58556914D01*
X143741948Y-58556907D01*
X143741962Y-58554858D01*
X143755844Y-58431099D01*
X143793500Y-58312393D01*
X143853495Y-58203262D01*
X143933545Y-58107862D01*
X144030600Y-58029828D01*
X144140964Y-57972131D01*
X144260432Y-57936970D01*
X144260468Y-57936967D01*
X144260477Y-57936964D01*
X144384451Y-57925682D01*
X144508261Y-57938695D01*
X144508261Y-57938695D01*
G37*
G36*
X147048261Y-57938695D02*
X147048308Y-57938700D01*
X147167274Y-57975526D01*
X147276821Y-58034758D01*
X147372777Y-58114140D01*
X147451487Y-58210648D01*
X147509953Y-58320606D01*
X147545947Y-58439826D01*
X147558100Y-58563767D01*
X147558100Y-59876268D01*
X147558053Y-59883086D01*
X147558052Y-59883093D01*
X147558038Y-59885142D01*
X147544156Y-60008901D01*
X147506500Y-60127607D01*
X147446505Y-60236738D01*
X147366455Y-60332138D01*
X147269400Y-60410172D01*
X147159036Y-60467869D01*
X147039568Y-60503030D01*
X147039532Y-60503033D01*
X147039523Y-60503036D01*
X146915549Y-60514318D01*
X146791739Y-60501305D01*
X146791692Y-60501300D01*
X146672726Y-60464474D01*
X146563179Y-60405242D01*
X146467223Y-60325860D01*
X146388513Y-60229352D01*
X146330047Y-60119394D01*
X146294053Y-60000174D01*
X146281900Y-59876233D01*
X146281900Y-58563732D01*
X146281947Y-58556914D01*
X146281948Y-58556907D01*
X146281962Y-58554858D01*
X146295844Y-58431099D01*
X146333500Y-58312393D01*
X146393495Y-58203262D01*
X146473545Y-58107862D01*
X146570600Y-58029828D01*
X146680964Y-57972131D01*
X146800432Y-57936970D01*
X146800468Y-57936967D01*
X146800477Y-57936964D01*
X146924451Y-57925682D01*
X147048261Y-57938695D01*
X147048261Y-57938695D01*
G37*
G36*
X149588261Y-57938695D02*
X149588308Y-57938700D01*
X149707274Y-57975526D01*
X149816821Y-58034758D01*
X149912777Y-58114140D01*
X149991487Y-58210648D01*
X150049953Y-58320606D01*
X150085947Y-58439826D01*
X150098100Y-58563767D01*
X150098100Y-59876268D01*
X150098053Y-59883086D01*
X150098052Y-59883093D01*
X150098038Y-59885142D01*
X150084156Y-60008901D01*
X150046500Y-60127607D01*
X149986505Y-60236738D01*
X149906455Y-60332138D01*
X149809400Y-60410172D01*
X149699036Y-60467869D01*
X149579568Y-60503030D01*
X149579532Y-60503033D01*
X149579523Y-60503036D01*
X149455549Y-60514318D01*
X149331739Y-60501305D01*
X149331692Y-60501300D01*
X149212726Y-60464474D01*
X149103179Y-60405242D01*
X149007223Y-60325860D01*
X148928513Y-60229352D01*
X148870047Y-60119394D01*
X148834053Y-60000174D01*
X148821900Y-59876233D01*
X148821900Y-58563732D01*
X148821947Y-58556914D01*
X148821948Y-58556907D01*
X148821962Y-58554858D01*
X148835844Y-58431099D01*
X148873500Y-58312393D01*
X148933495Y-58203262D01*
X149013545Y-58107862D01*
X149110600Y-58029828D01*
X149220964Y-57972131D01*
X149340432Y-57936970D01*
X149340468Y-57936967D01*
X149340477Y-57936964D01*
X149464451Y-57925682D01*
X149588261Y-57938695D01*
X149588261Y-57938695D01*
G37*
G36*
X154668261Y-57938695D02*
X154668308Y-57938700D01*
X154787274Y-57975526D01*
X154896821Y-58034758D01*
X154992777Y-58114140D01*
X155071487Y-58210648D01*
X155129953Y-58320606D01*
X155165947Y-58439826D01*
X155178100Y-58563767D01*
X155178100Y-59876268D01*
X155178053Y-59883086D01*
X155178052Y-59883093D01*
X155178038Y-59885142D01*
X155164156Y-60008901D01*
X155126500Y-60127607D01*
X155066505Y-60236738D01*
X154986455Y-60332138D01*
X154889400Y-60410172D01*
X154779036Y-60467869D01*
X154659568Y-60503030D01*
X154659532Y-60503033D01*
X154659523Y-60503036D01*
X154535549Y-60514318D01*
X154411739Y-60501305D01*
X154411692Y-60501300D01*
X154292726Y-60464474D01*
X154183179Y-60405242D01*
X154087223Y-60325860D01*
X154008513Y-60229352D01*
X153950047Y-60119394D01*
X153914053Y-60000174D01*
X153901900Y-59876233D01*
X153901900Y-58563732D01*
X153901947Y-58556914D01*
X153901948Y-58556907D01*
X153901962Y-58554858D01*
X153915844Y-58431099D01*
X153953500Y-58312393D01*
X154013495Y-58203262D01*
X154093545Y-58107862D01*
X154190600Y-58029828D01*
X154300964Y-57972131D01*
X154420432Y-57936970D01*
X154420468Y-57936967D01*
X154420477Y-57936964D01*
X154544451Y-57925682D01*
X154668261Y-57938695D01*
X154668261Y-57938695D01*
G37*
G36*
X157208261Y-57938695D02*
X157208308Y-57938700D01*
X157327274Y-57975526D01*
X157436821Y-58034758D01*
X157532777Y-58114140D01*
X157611487Y-58210648D01*
X157669953Y-58320606D01*
X157705947Y-58439826D01*
X157718100Y-58563767D01*
X157718100Y-59876268D01*
X157718053Y-59883086D01*
X157718052Y-59883093D01*
X157718038Y-59885142D01*
X157704156Y-60008901D01*
X157666500Y-60127607D01*
X157606505Y-60236738D01*
X157526455Y-60332138D01*
X157429400Y-60410172D01*
X157319036Y-60467869D01*
X157199568Y-60503030D01*
X157199532Y-60503033D01*
X157199523Y-60503036D01*
X157075549Y-60514318D01*
X156951739Y-60501305D01*
X156951692Y-60501300D01*
X156832726Y-60464474D01*
X156723179Y-60405242D01*
X156627223Y-60325860D01*
X156548513Y-60229352D01*
X156490047Y-60119394D01*
X156454053Y-60000174D01*
X156441900Y-59876233D01*
X156441900Y-58563732D01*
X156441947Y-58556914D01*
X156441948Y-58556907D01*
X156441962Y-58554858D01*
X156455844Y-58431099D01*
X156493500Y-58312393D01*
X156553495Y-58203262D01*
X156633545Y-58107862D01*
X156730600Y-58029828D01*
X156840964Y-57972131D01*
X156960432Y-57936970D01*
X156960468Y-57936967D01*
X156960477Y-57936964D01*
X157084451Y-57925682D01*
X157208261Y-57938695D01*
X157208261Y-57938695D01*
G37*
G36*
X159748261Y-57938695D02*
X159748308Y-57938700D01*
X159867274Y-57975526D01*
X159976821Y-58034758D01*
X160072777Y-58114140D01*
X160151487Y-58210648D01*
X160209953Y-58320606D01*
X160245947Y-58439826D01*
X160258100Y-58563767D01*
X160258100Y-59876268D01*
X160258053Y-59883086D01*
X160258052Y-59883093D01*
X160258038Y-59885142D01*
X160244156Y-60008901D01*
X160206500Y-60127607D01*
X160146505Y-60236738D01*
X160066455Y-60332138D01*
X159969400Y-60410172D01*
X159859036Y-60467869D01*
X159739568Y-60503030D01*
X159739532Y-60503033D01*
X159739523Y-60503036D01*
X159615549Y-60514318D01*
X159491739Y-60501305D01*
X159491692Y-60501300D01*
X159372726Y-60464474D01*
X159263179Y-60405242D01*
X159167223Y-60325860D01*
X159088513Y-60229352D01*
X159030047Y-60119394D01*
X158994053Y-60000174D01*
X158981900Y-59876233D01*
X158981900Y-58563732D01*
X158981947Y-58556914D01*
X158981948Y-58556907D01*
X158981962Y-58554858D01*
X158995844Y-58431099D01*
X159033500Y-58312393D01*
X159093495Y-58203262D01*
X159173545Y-58107862D01*
X159270600Y-58029828D01*
X159380964Y-57972131D01*
X159500432Y-57936970D01*
X159500468Y-57936967D01*
X159500477Y-57936964D01*
X159624451Y-57925682D01*
X159748261Y-57938695D01*
X159748261Y-57938695D01*
G37*
G36*
X162288261Y-57938695D02*
X162288308Y-57938700D01*
X162407274Y-57975526D01*
X162516821Y-58034758D01*
X162612777Y-58114140D01*
X162691487Y-58210648D01*
X162749953Y-58320606D01*
X162785947Y-58439826D01*
X162798100Y-58563767D01*
X162798100Y-59876268D01*
X162798053Y-59883086D01*
X162798052Y-59883093D01*
X162798038Y-59885142D01*
X162784156Y-60008901D01*
X162746500Y-60127607D01*
X162686505Y-60236738D01*
X162606455Y-60332138D01*
X162509400Y-60410172D01*
X162399036Y-60467869D01*
X162279568Y-60503030D01*
X162279532Y-60503033D01*
X162279523Y-60503036D01*
X162155549Y-60514318D01*
X162031739Y-60501305D01*
X162031692Y-60501300D01*
X161912726Y-60464474D01*
X161803179Y-60405242D01*
X161707223Y-60325860D01*
X161628513Y-60229352D01*
X161570047Y-60119394D01*
X161534053Y-60000174D01*
X161521900Y-59876233D01*
X161521900Y-58563732D01*
X161521947Y-58556914D01*
X161521948Y-58556907D01*
X161521962Y-58554858D01*
X161535844Y-58431099D01*
X161573500Y-58312393D01*
X161633495Y-58203262D01*
X161713545Y-58107862D01*
X161810600Y-58029828D01*
X161920964Y-57972131D01*
X162040432Y-57936970D01*
X162040468Y-57936967D01*
X162040477Y-57936964D01*
X162164451Y-57925682D01*
X162288261Y-57938695D01*
X162288261Y-57938695D01*
G37*
G36*
X152128261Y-57938695D02*
X152128308Y-57938700D01*
X152247274Y-57975526D01*
X152356821Y-58034758D01*
X152452777Y-58114140D01*
X152531487Y-58210648D01*
X152589953Y-58320606D01*
X152625947Y-58439826D01*
X152638100Y-58563767D01*
X152638100Y-59876268D01*
X152638053Y-59883086D01*
X152638052Y-59883093D01*
X152638038Y-59885142D01*
X152624156Y-60008901D01*
X152586500Y-60127607D01*
X152526505Y-60236738D01*
X152446455Y-60332138D01*
X152349400Y-60410172D01*
X152239036Y-60467869D01*
X152119568Y-60503030D01*
X152119532Y-60503033D01*
X152119523Y-60503036D01*
X151995549Y-60514318D01*
X151871739Y-60501305D01*
X151871692Y-60501300D01*
X151752726Y-60464474D01*
X151643179Y-60405242D01*
X151547223Y-60325860D01*
X151468513Y-60229352D01*
X151410047Y-60119394D01*
X151374053Y-60000174D01*
X151361900Y-59876233D01*
X151361900Y-58563732D01*
X151361947Y-58556914D01*
X151361948Y-58556907D01*
X151361962Y-58554858D01*
X151375844Y-58431099D01*
X151413500Y-58312393D01*
X151473495Y-58203262D01*
X151553545Y-58107862D01*
X151650600Y-58029828D01*
X151760964Y-57972131D01*
X151880432Y-57936970D01*
X151880468Y-57936967D01*
X151880477Y-57936964D01*
X152004451Y-57925682D01*
X152128261Y-57938695D01*
X152128261Y-57938695D01*
G37*
G36*
X161488261Y-53658695D02*
X161488308Y-53658700D01*
X161607274Y-53695526D01*
X161716821Y-53754758D01*
X161812777Y-53834140D01*
X161891487Y-53930648D01*
X161949953Y-54040606D01*
X161985947Y-54159826D01*
X161998100Y-54283767D01*
X161998100Y-55596268D01*
X161998053Y-55603086D01*
X161998052Y-55603093D01*
X161998038Y-55605142D01*
X161984156Y-55728901D01*
X161946500Y-55847607D01*
X161886505Y-55956738D01*
X161806455Y-56052138D01*
X161709400Y-56130172D01*
X161599036Y-56187869D01*
X161479568Y-56223030D01*
X161479532Y-56223033D01*
X161479523Y-56223036D01*
X161355549Y-56234318D01*
X161231739Y-56221305D01*
X161231692Y-56221300D01*
X161112726Y-56184474D01*
X161003179Y-56125242D01*
X160907223Y-56045860D01*
X160828513Y-55949352D01*
X160770047Y-55839394D01*
X160734053Y-55720174D01*
X160721900Y-55596233D01*
X160721900Y-54283732D01*
X160721947Y-54276914D01*
X160721948Y-54276907D01*
X160721962Y-54274858D01*
X160735844Y-54151099D01*
X160773500Y-54032393D01*
X160833495Y-53923262D01*
X160913545Y-53827862D01*
X161010600Y-53749828D01*
X161120964Y-53692131D01*
X161240432Y-53656970D01*
X161240468Y-53656967D01*
X161240477Y-53656964D01*
X161364451Y-53645682D01*
X161488261Y-53658695D01*
X161488261Y-53658695D01*
G37*
G36*
X158948261Y-53658695D02*
X158948308Y-53658700D01*
X159067274Y-53695526D01*
X159176821Y-53754758D01*
X159272777Y-53834140D01*
X159351487Y-53930648D01*
X159409953Y-54040606D01*
X159445947Y-54159826D01*
X159458100Y-54283767D01*
X159458100Y-55596268D01*
X159458053Y-55603086D01*
X159458052Y-55603093D01*
X159458038Y-55605142D01*
X159444156Y-55728901D01*
X159406500Y-55847607D01*
X159346505Y-55956738D01*
X159266455Y-56052138D01*
X159169400Y-56130172D01*
X159059036Y-56187869D01*
X158939568Y-56223030D01*
X158939532Y-56223033D01*
X158939523Y-56223036D01*
X158815549Y-56234318D01*
X158691739Y-56221305D01*
X158691692Y-56221300D01*
X158572726Y-56184474D01*
X158463179Y-56125242D01*
X158367223Y-56045860D01*
X158288513Y-55949352D01*
X158230047Y-55839394D01*
X158194053Y-55720174D01*
X158181900Y-55596233D01*
X158181900Y-54283732D01*
X158181947Y-54276914D01*
X158181948Y-54276907D01*
X158181962Y-54274858D01*
X158195844Y-54151099D01*
X158233500Y-54032393D01*
X158293495Y-53923262D01*
X158373545Y-53827862D01*
X158470600Y-53749828D01*
X158580964Y-53692131D01*
X158700432Y-53656970D01*
X158700468Y-53656967D01*
X158700477Y-53656964D01*
X158824451Y-53645682D01*
X158948261Y-53658695D01*
X158948261Y-53658695D01*
G37*
G36*
X146248261Y-53658695D02*
X146248308Y-53658700D01*
X146367274Y-53695526D01*
X146476821Y-53754758D01*
X146572777Y-53834140D01*
X146651487Y-53930648D01*
X146709953Y-54040606D01*
X146745947Y-54159826D01*
X146758100Y-54283767D01*
X146758100Y-55596268D01*
X146758053Y-55603086D01*
X146758052Y-55603093D01*
X146758038Y-55605142D01*
X146744156Y-55728901D01*
X146706500Y-55847607D01*
X146646505Y-55956738D01*
X146566455Y-56052138D01*
X146469400Y-56130172D01*
X146359036Y-56187869D01*
X146239568Y-56223030D01*
X146239532Y-56223033D01*
X146239523Y-56223036D01*
X146115549Y-56234318D01*
X145991739Y-56221305D01*
X145991692Y-56221300D01*
X145872726Y-56184474D01*
X145763179Y-56125242D01*
X145667223Y-56045860D01*
X145588513Y-55949352D01*
X145530047Y-55839394D01*
X145494053Y-55720174D01*
X145481900Y-55596233D01*
X145481900Y-54283732D01*
X145481947Y-54276914D01*
X145481948Y-54276907D01*
X145481962Y-54274858D01*
X145495844Y-54151099D01*
X145533500Y-54032393D01*
X145593495Y-53923262D01*
X145673545Y-53827862D01*
X145770600Y-53749828D01*
X145880964Y-53692131D01*
X146000432Y-53656970D01*
X146000468Y-53656967D01*
X146000477Y-53656964D01*
X146124451Y-53645682D01*
X146248261Y-53658695D01*
X146248261Y-53658695D01*
G37*
G36*
X156408261Y-53658695D02*
X156408308Y-53658700D01*
X156527274Y-53695526D01*
X156636821Y-53754758D01*
X156732777Y-53834140D01*
X156811487Y-53930648D01*
X156869953Y-54040606D01*
X156905947Y-54159826D01*
X156918100Y-54283767D01*
X156918100Y-55596268D01*
X156918053Y-55603086D01*
X156918052Y-55603093D01*
X156918038Y-55605142D01*
X156904156Y-55728901D01*
X156866500Y-55847607D01*
X156806505Y-55956738D01*
X156726455Y-56052138D01*
X156629400Y-56130172D01*
X156519036Y-56187869D01*
X156399568Y-56223030D01*
X156399532Y-56223033D01*
X156399523Y-56223036D01*
X156275549Y-56234318D01*
X156151739Y-56221305D01*
X156151692Y-56221300D01*
X156032726Y-56184474D01*
X155923179Y-56125242D01*
X155827223Y-56045860D01*
X155748513Y-55949352D01*
X155690047Y-55839394D01*
X155654053Y-55720174D01*
X155641900Y-55596233D01*
X155641900Y-54283732D01*
X155641947Y-54276914D01*
X155641948Y-54276907D01*
X155641962Y-54274858D01*
X155655844Y-54151099D01*
X155693500Y-54032393D01*
X155753495Y-53923262D01*
X155833545Y-53827862D01*
X155930600Y-53749828D01*
X156040964Y-53692131D01*
X156160432Y-53656970D01*
X156160468Y-53656967D01*
X156160477Y-53656964D01*
X156284451Y-53645682D01*
X156408261Y-53658695D01*
X156408261Y-53658695D01*
G37*
G36*
X143708261Y-53658695D02*
X143708308Y-53658700D01*
X143827274Y-53695526D01*
X143936821Y-53754758D01*
X144032777Y-53834140D01*
X144111487Y-53930648D01*
X144169953Y-54040606D01*
X144205947Y-54159826D01*
X144218100Y-54283767D01*
X144218100Y-55596268D01*
X144218053Y-55603086D01*
X144218052Y-55603093D01*
X144218038Y-55605142D01*
X144204156Y-55728901D01*
X144166500Y-55847607D01*
X144106505Y-55956738D01*
X144026455Y-56052138D01*
X143929400Y-56130172D01*
X143819036Y-56187869D01*
X143699568Y-56223030D01*
X143699532Y-56223033D01*
X143699523Y-56223036D01*
X143575549Y-56234318D01*
X143451739Y-56221305D01*
X143451692Y-56221300D01*
X143332726Y-56184474D01*
X143223179Y-56125242D01*
X143127223Y-56045860D01*
X143048513Y-55949352D01*
X142990047Y-55839394D01*
X142954053Y-55720174D01*
X142941900Y-55596233D01*
X142941900Y-54283732D01*
X142941947Y-54276914D01*
X142941948Y-54276907D01*
X142941962Y-54274858D01*
X142955844Y-54151099D01*
X142993500Y-54032393D01*
X143053495Y-53923262D01*
X143133545Y-53827862D01*
X143230600Y-53749828D01*
X143340964Y-53692131D01*
X143460432Y-53656970D01*
X143460468Y-53656967D01*
X143460477Y-53656964D01*
X143584451Y-53645682D01*
X143708261Y-53658695D01*
X143708261Y-53658695D01*
G37*
G36*
X153868261Y-53658695D02*
X153868308Y-53658700D01*
X153987274Y-53695526D01*
X154096821Y-53754758D01*
X154192777Y-53834140D01*
X154271487Y-53930648D01*
X154329953Y-54040606D01*
X154365947Y-54159826D01*
X154378100Y-54283767D01*
X154378100Y-55596268D01*
X154378053Y-55603086D01*
X154378052Y-55603093D01*
X154378038Y-55605142D01*
X154364156Y-55728901D01*
X154326500Y-55847607D01*
X154266505Y-55956738D01*
X154186455Y-56052138D01*
X154089400Y-56130172D01*
X153979036Y-56187869D01*
X153859568Y-56223030D01*
X153859532Y-56223033D01*
X153859523Y-56223036D01*
X153735549Y-56234318D01*
X153611739Y-56221305D01*
X153611692Y-56221300D01*
X153492726Y-56184474D01*
X153383179Y-56125242D01*
X153287223Y-56045860D01*
X153208513Y-55949352D01*
X153150047Y-55839394D01*
X153114053Y-55720174D01*
X153101900Y-55596233D01*
X153101900Y-54283732D01*
X153101947Y-54276914D01*
X153101948Y-54276907D01*
X153101962Y-54274858D01*
X153115844Y-54151099D01*
X153153500Y-54032393D01*
X153213495Y-53923262D01*
X153293545Y-53827862D01*
X153390600Y-53749828D01*
X153500964Y-53692131D01*
X153620432Y-53656970D01*
X153620468Y-53656967D01*
X153620477Y-53656964D01*
X153744451Y-53645682D01*
X153868261Y-53658695D01*
X153868261Y-53658695D01*
G37*
G36*
X138628261Y-53658695D02*
X138628308Y-53658700D01*
X138747274Y-53695526D01*
X138856821Y-53754758D01*
X138952777Y-53834140D01*
X139031487Y-53930648D01*
X139089953Y-54040606D01*
X139125947Y-54159826D01*
X139138100Y-54283767D01*
X139138100Y-55596268D01*
X139138053Y-55603086D01*
X139138052Y-55603093D01*
X139138038Y-55605142D01*
X139124156Y-55728901D01*
X139086500Y-55847607D01*
X139026505Y-55956738D01*
X138946455Y-56052138D01*
X138849400Y-56130172D01*
X138739036Y-56187869D01*
X138619568Y-56223030D01*
X138619532Y-56223033D01*
X138619523Y-56223036D01*
X138495549Y-56234318D01*
X138371739Y-56221305D01*
X138371692Y-56221300D01*
X138252726Y-56184474D01*
X138143179Y-56125242D01*
X138047223Y-56045860D01*
X137968513Y-55949352D01*
X137910047Y-55839394D01*
X137874053Y-55720174D01*
X137861900Y-55596233D01*
X137861900Y-54283732D01*
X137861947Y-54276914D01*
X137861948Y-54276907D01*
X137861962Y-54274858D01*
X137875844Y-54151099D01*
X137913500Y-54032393D01*
X137973495Y-53923262D01*
X138053545Y-53827862D01*
X138150600Y-53749828D01*
X138260964Y-53692131D01*
X138380432Y-53656970D01*
X138380468Y-53656967D01*
X138380477Y-53656964D01*
X138504451Y-53645682D01*
X138628261Y-53658695D01*
X138628261Y-53658695D01*
G37*
G36*
X148788261Y-53658695D02*
X148788308Y-53658700D01*
X148907274Y-53695526D01*
X149016821Y-53754758D01*
X149112777Y-53834140D01*
X149191487Y-53930648D01*
X149249953Y-54040606D01*
X149285947Y-54159826D01*
X149298100Y-54283767D01*
X149298100Y-55596268D01*
X149298053Y-55603086D01*
X149298052Y-55603093D01*
X149298038Y-55605142D01*
X149284156Y-55728901D01*
X149246500Y-55847607D01*
X149186505Y-55956738D01*
X149106455Y-56052138D01*
X149009400Y-56130172D01*
X148899036Y-56187869D01*
X148779568Y-56223030D01*
X148779532Y-56223033D01*
X148779523Y-56223036D01*
X148655549Y-56234318D01*
X148531739Y-56221305D01*
X148531692Y-56221300D01*
X148412726Y-56184474D01*
X148303179Y-56125242D01*
X148207223Y-56045860D01*
X148128513Y-55949352D01*
X148070047Y-55839394D01*
X148034053Y-55720174D01*
X148021900Y-55596233D01*
X148021900Y-54283732D01*
X148021947Y-54276914D01*
X148021948Y-54276907D01*
X148021962Y-54274858D01*
X148035844Y-54151099D01*
X148073500Y-54032393D01*
X148133495Y-53923262D01*
X148213545Y-53827862D01*
X148310600Y-53749828D01*
X148420964Y-53692131D01*
X148540432Y-53656970D01*
X148540468Y-53656967D01*
X148540477Y-53656964D01*
X148664451Y-53645682D01*
X148788261Y-53658695D01*
X148788261Y-53658695D01*
G37*
G36*
X151328261Y-53658695D02*
X151328308Y-53658700D01*
X151447274Y-53695526D01*
X151556821Y-53754758D01*
X151652777Y-53834140D01*
X151731487Y-53930648D01*
X151789953Y-54040606D01*
X151825947Y-54159826D01*
X151838100Y-54283767D01*
X151838100Y-55596268D01*
X151838053Y-55603086D01*
X151838052Y-55603093D01*
X151838038Y-55605142D01*
X151824156Y-55728901D01*
X151786500Y-55847607D01*
X151726505Y-55956738D01*
X151646455Y-56052138D01*
X151549400Y-56130172D01*
X151439036Y-56187869D01*
X151319568Y-56223030D01*
X151319532Y-56223033D01*
X151319523Y-56223036D01*
X151195549Y-56234318D01*
X151071739Y-56221305D01*
X151071692Y-56221300D01*
X150952726Y-56184474D01*
X150843179Y-56125242D01*
X150747223Y-56045860D01*
X150668513Y-55949352D01*
X150610047Y-55839394D01*
X150574053Y-55720174D01*
X150561900Y-55596233D01*
X150561900Y-54283732D01*
X150561947Y-54276914D01*
X150561948Y-54276907D01*
X150561962Y-54274858D01*
X150575844Y-54151099D01*
X150613500Y-54032393D01*
X150673495Y-53923262D01*
X150753545Y-53827862D01*
X150850600Y-53749828D01*
X150960964Y-53692131D01*
X151080432Y-53656970D01*
X151080468Y-53656967D01*
X151080477Y-53656964D01*
X151204451Y-53645682D01*
X151328261Y-53658695D01*
X151328261Y-53658695D01*
G37*
G36*
X141168261Y-53658695D02*
X141168308Y-53658700D01*
X141287274Y-53695526D01*
X141396821Y-53754758D01*
X141492777Y-53834140D01*
X141571487Y-53930648D01*
X141629953Y-54040606D01*
X141665947Y-54159826D01*
X141678100Y-54283767D01*
X141678100Y-55596268D01*
X141678053Y-55603086D01*
X141678052Y-55603093D01*
X141678038Y-55605142D01*
X141664156Y-55728901D01*
X141626500Y-55847607D01*
X141566505Y-55956738D01*
X141486455Y-56052138D01*
X141389400Y-56130172D01*
X141279036Y-56187869D01*
X141159568Y-56223030D01*
X141159532Y-56223033D01*
X141159523Y-56223036D01*
X141035549Y-56234318D01*
X140911739Y-56221305D01*
X140911692Y-56221300D01*
X140792726Y-56184474D01*
X140683179Y-56125242D01*
X140587223Y-56045860D01*
X140508513Y-55949352D01*
X140450047Y-55839394D01*
X140414053Y-55720174D01*
X140401900Y-55596233D01*
X140401900Y-54283732D01*
X140401947Y-54276914D01*
X140401948Y-54276907D01*
X140401962Y-54274858D01*
X140415844Y-54151099D01*
X140453500Y-54032393D01*
X140513495Y-53923262D01*
X140593545Y-53827862D01*
X140690600Y-53749828D01*
X140800964Y-53692131D01*
X140920432Y-53656970D01*
X140920468Y-53656967D01*
X140920477Y-53656964D01*
X141044451Y-53645682D01*
X141168261Y-53658695D01*
X141168261Y-53658695D01*
G37*
G36*
X163141265Y-48019211D02*
X163141270Y-48019213D01*
X163141312Y-48019217D01*
X163309423Y-48071256D01*
X163464224Y-48154957D01*
X163599820Y-48267131D01*
X163711045Y-48403507D01*
X163793663Y-48558889D01*
X163844527Y-48727359D01*
X163861700Y-48902500D01*
X163861700Y-49217534D01*
X163861627Y-49228035D01*
X163861626Y-49228041D01*
X163861612Y-49230090D01*
X163841996Y-49404974D01*
X163788784Y-49572717D01*
X163704005Y-49726931D01*
X163590886Y-49861740D01*
X163453738Y-49972010D01*
X163297783Y-50053542D01*
X163128962Y-50103228D01*
X163128931Y-50103231D01*
X163128917Y-50103235D01*
X162953708Y-50119180D01*
X162778735Y-50100789D01*
X162778730Y-50100787D01*
X162778688Y-50100783D01*
X162610577Y-50048744D01*
X162455776Y-49965043D01*
X162320180Y-49852869D01*
X162208955Y-49716493D01*
X162126337Y-49561111D01*
X162075473Y-49392641D01*
X162058300Y-49217500D01*
X162058300Y-48902466D01*
X162058373Y-48891965D01*
X162058374Y-48891959D01*
X162058388Y-48889910D01*
X162078004Y-48715026D01*
X162131216Y-48547283D01*
X162215995Y-48393069D01*
X162329114Y-48258260D01*
X162466262Y-48147990D01*
X162622217Y-48066458D01*
X162791038Y-48016772D01*
X162791069Y-48016769D01*
X162791083Y-48016765D01*
X162966292Y-48000820D01*
X163141265Y-48019211D01*
X163141265Y-48019211D01*
G37*
G36*
X160601265Y-48019211D02*
X160601270Y-48019213D01*
X160601312Y-48019217D01*
X160769423Y-48071256D01*
X160924224Y-48154957D01*
X161059820Y-48267131D01*
X161171045Y-48403507D01*
X161253663Y-48558889D01*
X161304527Y-48727359D01*
X161321700Y-48902500D01*
X161321700Y-49217534D01*
X161321627Y-49228035D01*
X161321626Y-49228041D01*
X161321612Y-49230090D01*
X161301996Y-49404974D01*
X161248784Y-49572717D01*
X161164005Y-49726931D01*
X161050886Y-49861740D01*
X160913738Y-49972010D01*
X160757783Y-50053542D01*
X160588962Y-50103228D01*
X160588931Y-50103231D01*
X160588917Y-50103235D01*
X160413708Y-50119180D01*
X160238735Y-50100789D01*
X160238730Y-50100787D01*
X160238688Y-50100783D01*
X160070577Y-50048744D01*
X159915776Y-49965043D01*
X159780180Y-49852869D01*
X159668955Y-49716493D01*
X159586337Y-49561111D01*
X159535473Y-49392641D01*
X159518300Y-49217500D01*
X159518300Y-48902466D01*
X159518373Y-48891965D01*
X159518374Y-48891959D01*
X159518388Y-48889910D01*
X159538004Y-48715026D01*
X159591216Y-48547283D01*
X159675995Y-48393069D01*
X159789114Y-48258260D01*
X159926262Y-48147990D01*
X160082217Y-48066458D01*
X160251038Y-48016772D01*
X160251069Y-48016769D01*
X160251083Y-48016765D01*
X160426292Y-48000820D01*
X160601265Y-48019211D01*
X160601265Y-48019211D01*
G37*
G36*
X158061265Y-48019211D02*
X158061270Y-48019213D01*
X158061312Y-48019217D01*
X158229423Y-48071256D01*
X158384224Y-48154957D01*
X158519820Y-48267131D01*
X158631045Y-48403507D01*
X158713663Y-48558889D01*
X158764527Y-48727359D01*
X158781700Y-48902500D01*
X158781700Y-49217534D01*
X158781627Y-49228035D01*
X158781626Y-49228041D01*
X158781612Y-49230090D01*
X158761996Y-49404974D01*
X158708784Y-49572717D01*
X158624005Y-49726931D01*
X158510886Y-49861740D01*
X158373738Y-49972010D01*
X158217783Y-50053542D01*
X158048962Y-50103228D01*
X158048931Y-50103231D01*
X158048917Y-50103235D01*
X157873708Y-50119180D01*
X157698735Y-50100789D01*
X157698730Y-50100787D01*
X157698688Y-50100783D01*
X157530577Y-50048744D01*
X157375776Y-49965043D01*
X157240180Y-49852869D01*
X157128955Y-49716493D01*
X157046337Y-49561111D01*
X156995473Y-49392641D01*
X156978300Y-49217500D01*
X156978300Y-48902466D01*
X156978373Y-48891965D01*
X156978374Y-48891959D01*
X156978388Y-48889910D01*
X156998004Y-48715026D01*
X157051216Y-48547283D01*
X157135995Y-48393069D01*
X157249114Y-48258260D01*
X157386262Y-48147990D01*
X157542217Y-48066458D01*
X157711038Y-48016772D01*
X157711069Y-48016769D01*
X157711083Y-48016765D01*
X157886292Y-48000820D01*
X158061265Y-48019211D01*
X158061265Y-48019211D01*
G37*
G36*
X155521265Y-48019211D02*
X155521270Y-48019213D01*
X155521312Y-48019217D01*
X155689423Y-48071256D01*
X155844224Y-48154957D01*
X155979820Y-48267131D01*
X156091045Y-48403507D01*
X156173663Y-48558889D01*
X156224527Y-48727359D01*
X156241700Y-48902500D01*
X156241700Y-49217534D01*
X156241627Y-49228035D01*
X156241626Y-49228041D01*
X156241612Y-49230090D01*
X156221996Y-49404974D01*
X156168784Y-49572717D01*
X156084005Y-49726931D01*
X155970886Y-49861740D01*
X155833738Y-49972010D01*
X155677783Y-50053542D01*
X155508962Y-50103228D01*
X155508931Y-50103231D01*
X155508917Y-50103235D01*
X155333708Y-50119180D01*
X155158735Y-50100789D01*
X155158730Y-50100787D01*
X155158688Y-50100783D01*
X154990577Y-50048744D01*
X154835776Y-49965043D01*
X154700180Y-49852869D01*
X154588955Y-49716493D01*
X154506337Y-49561111D01*
X154455473Y-49392641D01*
X154438300Y-49217500D01*
X154438300Y-48902466D01*
X154438373Y-48891965D01*
X154438374Y-48891959D01*
X154438388Y-48889910D01*
X154458004Y-48715026D01*
X154511216Y-48547283D01*
X154595995Y-48393069D01*
X154709114Y-48258260D01*
X154846262Y-48147990D01*
X155002217Y-48066458D01*
X155171038Y-48016772D01*
X155171069Y-48016769D01*
X155171083Y-48016765D01*
X155346292Y-48000820D01*
X155521265Y-48019211D01*
X155521265Y-48019211D01*
G37*
G36*
X150441265Y-48019211D02*
X150441270Y-48019213D01*
X150441312Y-48019217D01*
X150609423Y-48071256D01*
X150764224Y-48154957D01*
X150899820Y-48267131D01*
X151011045Y-48403507D01*
X151093663Y-48558889D01*
X151144527Y-48727359D01*
X151161700Y-48902500D01*
X151161700Y-49217534D01*
X151161627Y-49228035D01*
X151161626Y-49228041D01*
X151161612Y-49230090D01*
X151141996Y-49404974D01*
X151088784Y-49572717D01*
X151004005Y-49726931D01*
X150890886Y-49861740D01*
X150753738Y-49972010D01*
X150597783Y-50053542D01*
X150428962Y-50103228D01*
X150428931Y-50103231D01*
X150428917Y-50103235D01*
X150253708Y-50119180D01*
X150078735Y-50100789D01*
X150078730Y-50100787D01*
X150078688Y-50100783D01*
X149910577Y-50048744D01*
X149755776Y-49965043D01*
X149620180Y-49852869D01*
X149508955Y-49716493D01*
X149426337Y-49561111D01*
X149375473Y-49392641D01*
X149358300Y-49217500D01*
X149358300Y-48902466D01*
X149358373Y-48891965D01*
X149358374Y-48891959D01*
X149358388Y-48889910D01*
X149378004Y-48715026D01*
X149431216Y-48547283D01*
X149515995Y-48393069D01*
X149629114Y-48258260D01*
X149766262Y-48147990D01*
X149922217Y-48066458D01*
X150091038Y-48016772D01*
X150091069Y-48016769D01*
X150091083Y-48016765D01*
X150266292Y-48000820D01*
X150441265Y-48019211D01*
X150441265Y-48019211D01*
G37*
G36*
X152981265Y-48019211D02*
X152981270Y-48019213D01*
X152981312Y-48019217D01*
X153149423Y-48071256D01*
X153304224Y-48154957D01*
X153439820Y-48267131D01*
X153551045Y-48403507D01*
X153633663Y-48558889D01*
X153684527Y-48727359D01*
X153701700Y-48902500D01*
X153701700Y-49217534D01*
X153701627Y-49228035D01*
X153701626Y-49228041D01*
X153701612Y-49230090D01*
X153681996Y-49404974D01*
X153628784Y-49572717D01*
X153544005Y-49726931D01*
X153430886Y-49861740D01*
X153293738Y-49972010D01*
X153137783Y-50053542D01*
X152968962Y-50103228D01*
X152968931Y-50103231D01*
X152968917Y-50103235D01*
X152793708Y-50119180D01*
X152618735Y-50100789D01*
X152618730Y-50100787D01*
X152618688Y-50100783D01*
X152450577Y-50048744D01*
X152295776Y-49965043D01*
X152160180Y-49852869D01*
X152048955Y-49716493D01*
X151966337Y-49561111D01*
X151915473Y-49392641D01*
X151898300Y-49217500D01*
X151898300Y-48902466D01*
X151898373Y-48891965D01*
X151898374Y-48891959D01*
X151898388Y-48889910D01*
X151918004Y-48715026D01*
X151971216Y-48547283D01*
X152055995Y-48393069D01*
X152169114Y-48258260D01*
X152306262Y-48147990D01*
X152462217Y-48066458D01*
X152631038Y-48016772D01*
X152631069Y-48016769D01*
X152631083Y-48016765D01*
X152806292Y-48000820D01*
X152981265Y-48019211D01*
X152981265Y-48019211D01*
G37*
G36*
X147901265Y-48019211D02*
X147901270Y-48019213D01*
X147901312Y-48019217D01*
X148069423Y-48071256D01*
X148224224Y-48154957D01*
X148359820Y-48267131D01*
X148471045Y-48403507D01*
X148553663Y-48558889D01*
X148604527Y-48727359D01*
X148621700Y-48902500D01*
X148621700Y-49217534D01*
X148621627Y-49228035D01*
X148621626Y-49228041D01*
X148621612Y-49230090D01*
X148601996Y-49404974D01*
X148548784Y-49572717D01*
X148464005Y-49726931D01*
X148350886Y-49861740D01*
X148213738Y-49972010D01*
X148057783Y-50053542D01*
X147888962Y-50103228D01*
X147888931Y-50103231D01*
X147888917Y-50103235D01*
X147713708Y-50119180D01*
X147538735Y-50100789D01*
X147538730Y-50100787D01*
X147538688Y-50100783D01*
X147370577Y-50048744D01*
X147215776Y-49965043D01*
X147080180Y-49852869D01*
X146968955Y-49716493D01*
X146886337Y-49561111D01*
X146835473Y-49392641D01*
X146818300Y-49217500D01*
X146818300Y-48902466D01*
X146818373Y-48891965D01*
X146818374Y-48891959D01*
X146818388Y-48889910D01*
X146838004Y-48715026D01*
X146891216Y-48547283D01*
X146975995Y-48393069D01*
X147089114Y-48258260D01*
X147226262Y-48147990D01*
X147382217Y-48066458D01*
X147551038Y-48016772D01*
X147551069Y-48016769D01*
X147551083Y-48016765D01*
X147726292Y-48000820D01*
X147901265Y-48019211D01*
X147901265Y-48019211D01*
G37*
G36*
X145361265Y-48019211D02*
X145361270Y-48019213D01*
X145361312Y-48019217D01*
X145529423Y-48071256D01*
X145684224Y-48154957D01*
X145819820Y-48267131D01*
X145931045Y-48403507D01*
X146013663Y-48558889D01*
X146064527Y-48727359D01*
X146081700Y-48902500D01*
X146081700Y-49217534D01*
X146081627Y-49228035D01*
X146081626Y-49228041D01*
X146081612Y-49230090D01*
X146061996Y-49404974D01*
X146008784Y-49572717D01*
X145924005Y-49726931D01*
X145810886Y-49861740D01*
X145673738Y-49972010D01*
X145517783Y-50053542D01*
X145348962Y-50103228D01*
X145348931Y-50103231D01*
X145348917Y-50103235D01*
X145173708Y-50119180D01*
X144998735Y-50100789D01*
X144998730Y-50100787D01*
X144998688Y-50100783D01*
X144830577Y-50048744D01*
X144675776Y-49965043D01*
X144540180Y-49852869D01*
X144428955Y-49716493D01*
X144346337Y-49561111D01*
X144295473Y-49392641D01*
X144278300Y-49217500D01*
X144278300Y-48902466D01*
X144278373Y-48891965D01*
X144278374Y-48891959D01*
X144278388Y-48889910D01*
X144298004Y-48715026D01*
X144351216Y-48547283D01*
X144435995Y-48393069D01*
X144549114Y-48258260D01*
X144686262Y-48147990D01*
X144842217Y-48066458D01*
X145011038Y-48016772D01*
X145011069Y-48016769D01*
X145011083Y-48016765D01*
X145186292Y-48000820D01*
X145361265Y-48019211D01*
X145361265Y-48019211D01*
G37*
G36*
X166401700Y-50114100D02*
X164598300Y-50114100D01*
X164598300Y-48005900D01*
X166401700Y-48005900D01*
X166401700Y-50114100D01*
X166401700Y-50114100D01*
G37*
M02*
