G04 #@! TF.FileFunction,Copper,L2,Bot,Signal*
%FSLAX46Y46*%
G04 Gerber Fmt 4.6, Leading zero omitted, Abs format (unit mm)*
G04 Created by KiCad (PCBNEW 4.0.2-stable) date 02/06/2016 21:55:55*
%MOMM*%
G01*
G04 APERTURE LIST*
%ADD10C,0.100000*%
%ADD11C,0.150000*%
%ADD12O,1.600000X2.600000*%
%ADD13O,1.600000X2.000000*%
%ADD14R,1.727200X2.032000*%
%ADD15O,1.727200X2.032000*%
%ADD16O,1.200000X2.500000*%
%ADD17C,0.889000*%
%ADD18C,0.254000*%
G04 APERTURE END LIST*
D10*
D11*
X169703333Y-49538571D02*
X169655714Y-49490951D01*
X169512857Y-49395713D01*
X169417619Y-49348094D01*
X169274762Y-49300475D01*
X169036667Y-49252856D01*
X168846190Y-49252856D01*
X168608095Y-49300475D01*
X168465238Y-49348094D01*
X168370000Y-49395713D01*
X168227143Y-49490951D01*
X168179524Y-49538571D01*
X169274762Y-50348095D02*
X169322381Y-50252857D01*
X169322381Y-50062380D01*
X169274762Y-49967142D01*
X169227143Y-49919523D01*
X169131905Y-49871904D01*
X168846190Y-49871904D01*
X168750952Y-49919523D01*
X168703333Y-49967142D01*
X168655714Y-50062380D01*
X168655714Y-50252857D01*
X168703333Y-50348095D01*
X169703333Y-50681428D02*
X169655714Y-50729047D01*
X169512857Y-50824285D01*
X169417619Y-50871904D01*
X169274762Y-50919523D01*
X169036667Y-50967142D01*
X168846190Y-50967142D01*
X168608095Y-50919523D01*
X168465238Y-50871904D01*
X168370000Y-50824285D01*
X168227143Y-50729047D01*
X168179524Y-50681428D01*
X169322381Y-52776667D02*
X168846190Y-52443333D01*
X169322381Y-52205238D02*
X168322381Y-52205238D01*
X168322381Y-52586191D01*
X168370000Y-52681429D01*
X168417619Y-52729048D01*
X168512857Y-52776667D01*
X168655714Y-52776667D01*
X168750952Y-52729048D01*
X168798571Y-52681429D01*
X168846190Y-52586191D01*
X168846190Y-52205238D01*
X169227143Y-53205238D02*
X169274762Y-53252857D01*
X169322381Y-53205238D01*
X169274762Y-53157619D01*
X169227143Y-53205238D01*
X169322381Y-53205238D01*
X169322381Y-54443333D02*
X168322381Y-54443333D01*
X169036667Y-54776667D01*
X168322381Y-55110000D01*
X169322381Y-55110000D01*
X169322381Y-56014762D02*
X168798571Y-56014762D01*
X168703333Y-55967143D01*
X168655714Y-55871905D01*
X168655714Y-55681428D01*
X168703333Y-55586190D01*
X169274762Y-56014762D02*
X169322381Y-55919524D01*
X169322381Y-55681428D01*
X169274762Y-55586190D01*
X169179524Y-55538571D01*
X169084286Y-55538571D01*
X168989048Y-55586190D01*
X168941429Y-55681428D01*
X168941429Y-55919524D01*
X168893810Y-56014762D01*
X168655714Y-56490952D02*
X169322381Y-56490952D01*
X168750952Y-56490952D02*
X168703333Y-56538571D01*
X168655714Y-56633809D01*
X168655714Y-56776667D01*
X168703333Y-56871905D01*
X168798571Y-56919524D01*
X169322381Y-56919524D01*
X168655714Y-57300476D02*
X168655714Y-57824286D01*
X169322381Y-57300476D01*
X169322381Y-57824286D01*
X169322381Y-58205238D02*
X168322381Y-58205238D01*
X168941429Y-58300476D02*
X169322381Y-58586191D01*
X168655714Y-58586191D02*
X169036667Y-58205238D01*
X169274762Y-59395715D02*
X169322381Y-59300477D01*
X169322381Y-59110000D01*
X169274762Y-59014762D01*
X169179524Y-58967143D01*
X168798571Y-58967143D01*
X168703333Y-59014762D01*
X168655714Y-59110000D01*
X168655714Y-59300477D01*
X168703333Y-59395715D01*
X168798571Y-59443334D01*
X168893810Y-59443334D01*
X168989048Y-58967143D01*
X168417619Y-60586191D02*
X168370000Y-60633810D01*
X168322381Y-60729048D01*
X168322381Y-60967144D01*
X168370000Y-61062382D01*
X168417619Y-61110001D01*
X168512857Y-61157620D01*
X168608095Y-61157620D01*
X168750952Y-61110001D01*
X169322381Y-60538572D01*
X169322381Y-61157620D01*
X168322381Y-61776667D02*
X168322381Y-61871906D01*
X168370000Y-61967144D01*
X168417619Y-62014763D01*
X168512857Y-62062382D01*
X168703333Y-62110001D01*
X168941429Y-62110001D01*
X169131905Y-62062382D01*
X169227143Y-62014763D01*
X169274762Y-61967144D01*
X169322381Y-61871906D01*
X169322381Y-61776667D01*
X169274762Y-61681429D01*
X169227143Y-61633810D01*
X169131905Y-61586191D01*
X168941429Y-61538572D01*
X168703333Y-61538572D01*
X168512857Y-61586191D01*
X168417619Y-61633810D01*
X168370000Y-61681429D01*
X168322381Y-61776667D01*
X169322381Y-63062382D02*
X169322381Y-62490953D01*
X169322381Y-62776667D02*
X168322381Y-62776667D01*
X168465238Y-62681429D01*
X168560476Y-62586191D01*
X168608095Y-62490953D01*
X168322381Y-63919525D02*
X168322381Y-63729048D01*
X168370000Y-63633810D01*
X168417619Y-63586191D01*
X168560476Y-63490953D01*
X168750952Y-63443334D01*
X169131905Y-63443334D01*
X169227143Y-63490953D01*
X169274762Y-63538572D01*
X169322381Y-63633810D01*
X169322381Y-63824287D01*
X169274762Y-63919525D01*
X169227143Y-63967144D01*
X169131905Y-64014763D01*
X168893810Y-64014763D01*
X168798571Y-63967144D01*
X168750952Y-63919525D01*
X168703333Y-63824287D01*
X168703333Y-63633810D01*
X168750952Y-63538572D01*
X168798571Y-63490953D01*
X168893810Y-63443334D01*
D12*
X164560000Y-73120000D03*
X138160000Y-69120000D03*
X168385000Y-68670000D03*
X134335000Y-68670000D03*
D13*
X168385000Y-73570000D03*
X134335000Y-73570000D03*
D14*
X165500000Y-49060000D03*
D15*
X162960000Y-49060000D03*
X160420000Y-49060000D03*
X157880000Y-49060000D03*
X155340000Y-49060000D03*
X152800000Y-49060000D03*
X150260000Y-49060000D03*
X147720000Y-49060000D03*
X145180000Y-49060000D03*
D14*
X165500000Y-92240000D03*
D15*
X162960000Y-92240000D03*
X160420000Y-92240000D03*
X157880000Y-92240000D03*
X155340000Y-92240000D03*
X152800000Y-92240000D03*
D16*
X162960000Y-79540000D03*
X162160000Y-83680000D03*
X161360000Y-87820000D03*
X135020000Y-63500000D03*
X160420000Y-79540000D03*
X159620000Y-83680000D03*
X137560000Y-63500000D03*
X158820000Y-87820000D03*
X157880000Y-79540000D03*
X157080000Y-83680000D03*
X156280000Y-87820000D03*
X155340000Y-79540000D03*
X154540000Y-83680000D03*
X153740000Y-87820000D03*
X165500000Y-79540000D03*
X152800000Y-79540000D03*
X152000000Y-83680000D03*
X151200000Y-87820000D03*
X150260000Y-79540000D03*
X149460000Y-83680000D03*
X148660000Y-87820000D03*
X147720000Y-79540000D03*
X146920000Y-83680000D03*
X146120000Y-87820000D03*
X145180000Y-79540000D03*
X144380000Y-83680000D03*
X143580000Y-87820000D03*
X142640000Y-79540000D03*
X141840000Y-83680000D03*
X141040000Y-87820000D03*
X140100000Y-79540000D03*
X139300000Y-83680000D03*
X138500000Y-87820000D03*
X162960000Y-63500000D03*
X162160000Y-59220000D03*
X161360000Y-54940000D03*
X160420000Y-63500000D03*
X159620000Y-59220000D03*
X158820000Y-54940000D03*
X157880000Y-63500000D03*
X157080000Y-59220000D03*
X156280000Y-54940000D03*
X155340000Y-63500000D03*
X154540000Y-59220000D03*
X153740000Y-54940000D03*
X152800000Y-63500000D03*
X152000000Y-59220000D03*
X151200000Y-54940000D03*
X150260000Y-63500000D03*
X149460000Y-59220000D03*
X148660000Y-54940000D03*
X147720000Y-63500000D03*
X146920000Y-59220000D03*
X146120000Y-54940000D03*
X145180000Y-63500000D03*
X144380000Y-59220000D03*
X143580000Y-54940000D03*
X142640000Y-63500000D03*
X141840000Y-59220000D03*
X141040000Y-54940000D03*
X140100000Y-63500000D03*
X139300000Y-59220000D03*
X138500000Y-54940000D03*
X165500000Y-63500000D03*
D17*
X149350000Y-71880000D03*
X147010000Y-71700000D03*
X157990000Y-70360000D03*
X161280000Y-70490000D03*
X159950000Y-70870000D03*
X141880000Y-47350000D03*
D18*
X160420000Y-92240000D02*
X160420000Y-86794485D01*
X160420000Y-86794485D02*
X160550210Y-86664275D01*
X160550210Y-86664275D02*
X160550210Y-81174210D01*
X160550210Y-81174210D02*
X160420000Y-81044000D01*
X160420000Y-81044000D02*
X160420000Y-79540000D01*
X152800000Y-49060000D02*
X152800000Y-58054485D01*
X152800000Y-58054485D02*
X152930210Y-58184695D01*
X152930210Y-58184695D02*
X152930210Y-61404275D01*
X152930210Y-61404275D02*
X151869790Y-62464695D01*
X151869790Y-62464695D02*
X151869790Y-69360210D01*
X151869790Y-69360210D02*
X149350000Y-71880000D01*
X147720000Y-49060000D02*
X147720000Y-58054485D01*
X147720000Y-58054485D02*
X147850210Y-58184695D01*
X147850210Y-58184695D02*
X147850210Y-61404275D01*
X146789790Y-62464695D02*
X146789790Y-71479790D01*
X147850210Y-61404275D02*
X146789790Y-62464695D01*
X146789790Y-71479790D02*
X147010000Y-71700000D01*
X162960000Y-49060000D02*
X162960000Y-49212400D01*
X162960000Y-49212400D02*
X164077600Y-50330000D01*
X164077600Y-50330000D02*
X164077600Y-60416885D01*
X164077600Y-60416885D02*
X162029790Y-62464695D01*
X162029790Y-62464695D02*
X162029790Y-66320210D01*
X162029790Y-66320210D02*
X157990000Y-70360000D01*
X162980000Y-90950000D02*
X163890210Y-90039790D01*
X163890210Y-90039790D02*
X163890210Y-78504695D01*
X163890210Y-78504695D02*
X161280000Y-75894485D01*
X161280000Y-75894485D02*
X161280000Y-70490000D01*
X162960000Y-92240000D02*
X162960000Y-90970000D01*
X162960000Y-90970000D02*
X162980000Y-90950000D01*
X157880000Y-92240000D02*
X157880000Y-84845515D01*
X157880000Y-84845515D02*
X158010210Y-84715305D01*
X158010210Y-84715305D02*
X158010210Y-81375305D01*
X158010210Y-81375305D02*
X158810210Y-80575305D01*
X158810210Y-80575305D02*
X158810210Y-72009790D01*
X158810210Y-72009790D02*
X159950000Y-70870000D01*
X142670000Y-49880000D02*
X143580000Y-50790000D01*
X143580000Y-50790000D02*
X143580000Y-54940000D01*
X142670000Y-47820000D02*
X142670000Y-49880000D01*
X143210000Y-47280000D02*
X142670000Y-47820000D01*
X159910000Y-47280000D02*
X143210000Y-47280000D01*
X160420000Y-49060000D02*
X160420000Y-47790000D01*
X160420000Y-47790000D02*
X159910000Y-47280000D01*
X141040000Y-48350000D02*
X141880000Y-47510000D01*
X141880000Y-47510000D02*
X141880000Y-47350000D01*
X141040000Y-54940000D02*
X141040000Y-48350000D01*
G36*
X141054643Y-47185077D02*
X141054357Y-47513482D01*
X141084689Y-47586891D01*
X140680790Y-47990790D01*
X140570669Y-48155597D01*
X140532000Y-48350000D01*
X140532000Y-53440313D01*
X140346328Y-53564375D01*
X140133674Y-53882635D01*
X140059000Y-54258047D01*
X140059000Y-55621953D01*
X140133674Y-55997365D01*
X140346328Y-56315625D01*
X140664588Y-56528279D01*
X141040000Y-56602953D01*
X141415412Y-56528279D01*
X141733672Y-56315625D01*
X141946326Y-55997365D01*
X142021000Y-55621953D01*
X142021000Y-54258047D01*
X141946326Y-53882635D01*
X141733672Y-53564375D01*
X141548000Y-53440313D01*
X141548000Y-48560420D01*
X141932874Y-48175547D01*
X142043482Y-48175643D01*
X142162000Y-48126672D01*
X142162000Y-49880000D01*
X142200669Y-50074403D01*
X142310790Y-50239210D01*
X143072000Y-51000420D01*
X143072000Y-53440313D01*
X142886328Y-53564375D01*
X142673674Y-53882635D01*
X142599000Y-54258047D01*
X142599000Y-55621953D01*
X142673674Y-55997365D01*
X142886328Y-56315625D01*
X143204588Y-56528279D01*
X143580000Y-56602953D01*
X143955412Y-56528279D01*
X144273672Y-56315625D01*
X144486326Y-55997365D01*
X144561000Y-55621953D01*
X144561000Y-54258047D01*
X145139000Y-54258047D01*
X145139000Y-55621953D01*
X145213674Y-55997365D01*
X145426328Y-56315625D01*
X145744588Y-56528279D01*
X146120000Y-56602953D01*
X146495412Y-56528279D01*
X146813672Y-56315625D01*
X147026326Y-55997365D01*
X147101000Y-55621953D01*
X147101000Y-54258047D01*
X147026326Y-53882635D01*
X146813672Y-53564375D01*
X146495412Y-53351721D01*
X146120000Y-53277047D01*
X145744588Y-53351721D01*
X145426328Y-53564375D01*
X145213674Y-53882635D01*
X145139000Y-54258047D01*
X144561000Y-54258047D01*
X144486326Y-53882635D01*
X144273672Y-53564375D01*
X144088000Y-53440313D01*
X144088000Y-50790000D01*
X144049331Y-50595597D01*
X144049331Y-50595596D01*
X143939210Y-50430790D01*
X143178000Y-49669580D01*
X143178000Y-48030420D01*
X143420420Y-47788000D01*
X144617464Y-47788000D01*
X144299935Y-48000166D01*
X144030140Y-48403943D01*
X143935400Y-48880231D01*
X143935400Y-49239769D01*
X144030140Y-49716057D01*
X144299935Y-50119834D01*
X144703712Y-50389629D01*
X145180000Y-50484369D01*
X145656288Y-50389629D01*
X146060065Y-50119834D01*
X146329860Y-49716057D01*
X146424600Y-49239769D01*
X146424600Y-48880231D01*
X146329860Y-48403943D01*
X146060065Y-48000166D01*
X145742536Y-47788000D01*
X147157464Y-47788000D01*
X146839935Y-48000166D01*
X146570140Y-48403943D01*
X146475400Y-48880231D01*
X146475400Y-49239769D01*
X146570140Y-49716057D01*
X146839935Y-50119834D01*
X147212000Y-50368440D01*
X147212000Y-57615129D01*
X146920000Y-57557047D01*
X146544588Y-57631721D01*
X146226328Y-57844375D01*
X146013674Y-58162635D01*
X145939000Y-58538047D01*
X145939000Y-59901953D01*
X146013674Y-60277365D01*
X146226328Y-60595625D01*
X146544588Y-60808279D01*
X146920000Y-60882953D01*
X147295412Y-60808279D01*
X147342210Y-60777010D01*
X147342210Y-61193855D01*
X146430580Y-62105485D01*
X146320459Y-62270292D01*
X146281790Y-62464695D01*
X146281790Y-71301122D01*
X146184643Y-71535077D01*
X146184357Y-71863482D01*
X146309767Y-72166998D01*
X146541781Y-72399417D01*
X146845077Y-72525357D01*
X147173482Y-72525643D01*
X147476998Y-72400233D01*
X147709417Y-72168219D01*
X147835357Y-71864923D01*
X147835643Y-71536518D01*
X147710233Y-71233002D01*
X147478219Y-71000583D01*
X147297790Y-70925662D01*
X147297790Y-65057010D01*
X147344588Y-65088279D01*
X147720000Y-65162953D01*
X148095412Y-65088279D01*
X148413672Y-64875625D01*
X148626326Y-64557365D01*
X148701000Y-64181953D01*
X148701000Y-62818047D01*
X149279000Y-62818047D01*
X149279000Y-64181953D01*
X149353674Y-64557365D01*
X149566328Y-64875625D01*
X149884588Y-65088279D01*
X150260000Y-65162953D01*
X150635412Y-65088279D01*
X150953672Y-64875625D01*
X151166326Y-64557365D01*
X151241000Y-64181953D01*
X151241000Y-62818047D01*
X151166326Y-62442635D01*
X150953672Y-62124375D01*
X150635412Y-61911721D01*
X150260000Y-61837047D01*
X149884588Y-61911721D01*
X149566328Y-62124375D01*
X149353674Y-62442635D01*
X149279000Y-62818047D01*
X148701000Y-62818047D01*
X148626326Y-62442635D01*
X148413672Y-62124375D01*
X148095412Y-61911721D01*
X148066863Y-61906042D01*
X148209420Y-61763485D01*
X148319541Y-61598679D01*
X148325956Y-61566425D01*
X148358210Y-61404275D01*
X148358210Y-58538047D01*
X148479000Y-58538047D01*
X148479000Y-59901953D01*
X148553674Y-60277365D01*
X148766328Y-60595625D01*
X149084588Y-60808279D01*
X149460000Y-60882953D01*
X149835412Y-60808279D01*
X150153672Y-60595625D01*
X150366326Y-60277365D01*
X150441000Y-59901953D01*
X150441000Y-58538047D01*
X150366326Y-58162635D01*
X150153672Y-57844375D01*
X149835412Y-57631721D01*
X149460000Y-57557047D01*
X149084588Y-57631721D01*
X148766328Y-57844375D01*
X148553674Y-58162635D01*
X148479000Y-58538047D01*
X148358210Y-58538047D01*
X148358210Y-58184695D01*
X148319541Y-57990292D01*
X148228000Y-57853292D01*
X148228000Y-56490468D01*
X148284588Y-56528279D01*
X148660000Y-56602953D01*
X149035412Y-56528279D01*
X149353672Y-56315625D01*
X149566326Y-55997365D01*
X149641000Y-55621953D01*
X149641000Y-54258047D01*
X150219000Y-54258047D01*
X150219000Y-55621953D01*
X150293674Y-55997365D01*
X150506328Y-56315625D01*
X150824588Y-56528279D01*
X151200000Y-56602953D01*
X151575412Y-56528279D01*
X151893672Y-56315625D01*
X152106326Y-55997365D01*
X152181000Y-55621953D01*
X152181000Y-54258047D01*
X152106326Y-53882635D01*
X151893672Y-53564375D01*
X151575412Y-53351721D01*
X151200000Y-53277047D01*
X150824588Y-53351721D01*
X150506328Y-53564375D01*
X150293674Y-53882635D01*
X150219000Y-54258047D01*
X149641000Y-54258047D01*
X149566326Y-53882635D01*
X149353672Y-53564375D01*
X149035412Y-53351721D01*
X148660000Y-53277047D01*
X148284588Y-53351721D01*
X148228000Y-53389532D01*
X148228000Y-50368440D01*
X148600065Y-50119834D01*
X148869860Y-49716057D01*
X148964600Y-49239769D01*
X148964600Y-48880231D01*
X148869860Y-48403943D01*
X148600065Y-48000166D01*
X148282536Y-47788000D01*
X149697464Y-47788000D01*
X149379935Y-48000166D01*
X149110140Y-48403943D01*
X149015400Y-48880231D01*
X149015400Y-49239769D01*
X149110140Y-49716057D01*
X149379935Y-50119834D01*
X149783712Y-50389629D01*
X150260000Y-50484369D01*
X150736288Y-50389629D01*
X151140065Y-50119834D01*
X151409860Y-49716057D01*
X151504600Y-49239769D01*
X151504600Y-48880231D01*
X151409860Y-48403943D01*
X151140065Y-48000166D01*
X150822536Y-47788000D01*
X152237464Y-47788000D01*
X151919935Y-48000166D01*
X151650140Y-48403943D01*
X151555400Y-48880231D01*
X151555400Y-49239769D01*
X151650140Y-49716057D01*
X151919935Y-50119834D01*
X152292000Y-50368440D01*
X152292000Y-57615129D01*
X152000000Y-57557047D01*
X151624588Y-57631721D01*
X151306328Y-57844375D01*
X151093674Y-58162635D01*
X151019000Y-58538047D01*
X151019000Y-59901953D01*
X151093674Y-60277365D01*
X151306328Y-60595625D01*
X151624588Y-60808279D01*
X152000000Y-60882953D01*
X152375412Y-60808279D01*
X152422210Y-60777010D01*
X152422210Y-61193855D01*
X151510580Y-62105485D01*
X151400459Y-62270292D01*
X151361790Y-62464695D01*
X151361790Y-69149790D01*
X149456987Y-71054593D01*
X149186518Y-71054357D01*
X148883002Y-71179767D01*
X148650583Y-71411781D01*
X148524643Y-71715077D01*
X148524357Y-72043482D01*
X148649767Y-72346998D01*
X148881781Y-72579417D01*
X149185077Y-72705357D01*
X149513482Y-72705643D01*
X149816998Y-72580233D01*
X150049417Y-72348219D01*
X150175357Y-72044923D01*
X150175594Y-71772826D01*
X151424938Y-70523482D01*
X157164357Y-70523482D01*
X157289767Y-70826998D01*
X157521781Y-71059417D01*
X157825077Y-71185357D01*
X158153482Y-71185643D01*
X158456998Y-71060233D01*
X158689417Y-70828219D01*
X158815357Y-70524923D01*
X158815594Y-70252826D01*
X160271420Y-68797000D01*
X166950000Y-68797000D01*
X166950000Y-69297000D01*
X167107834Y-69836483D01*
X167460104Y-70274500D01*
X167953181Y-70544367D01*
X168035961Y-70561904D01*
X168258000Y-70439915D01*
X168258000Y-68797000D01*
X166950000Y-68797000D01*
X160271420Y-68797000D01*
X161025420Y-68043000D01*
X166950000Y-68043000D01*
X166950000Y-68543000D01*
X168258000Y-68543000D01*
X168258000Y-66900085D01*
X168035961Y-66778096D01*
X167953181Y-66795633D01*
X167460104Y-67065500D01*
X167107834Y-67503517D01*
X166950000Y-68043000D01*
X161025420Y-68043000D01*
X162389000Y-66679420D01*
X162499121Y-66514613D01*
X162537790Y-66320210D01*
X162537790Y-65304187D01*
X162604719Y-65339592D01*
X162642391Y-65343462D01*
X162833000Y-65218731D01*
X162833000Y-63627000D01*
X163087000Y-63627000D01*
X163087000Y-65218731D01*
X163277609Y-65343462D01*
X163315281Y-65339592D01*
X163743474Y-65113080D01*
X164052390Y-64739947D01*
X164195000Y-64277000D01*
X164195000Y-63627000D01*
X164265000Y-63627000D01*
X164265000Y-64277000D01*
X164407610Y-64739947D01*
X164716526Y-65113080D01*
X165144719Y-65339592D01*
X165182391Y-65343462D01*
X165373000Y-65218731D01*
X165373000Y-63627000D01*
X165627000Y-63627000D01*
X165627000Y-65218731D01*
X165817609Y-65343462D01*
X165855281Y-65339592D01*
X166283474Y-65113080D01*
X166592390Y-64739947D01*
X166735000Y-64277000D01*
X166735000Y-63627000D01*
X165627000Y-63627000D01*
X165373000Y-63627000D01*
X164265000Y-63627000D01*
X164195000Y-63627000D01*
X163087000Y-63627000D01*
X162833000Y-63627000D01*
X162813000Y-63627000D01*
X162813000Y-63373000D01*
X162833000Y-63373000D01*
X162833000Y-63353000D01*
X163087000Y-63353000D01*
X163087000Y-63373000D01*
X164195000Y-63373000D01*
X164195000Y-62723000D01*
X164265000Y-62723000D01*
X164265000Y-63373000D01*
X165373000Y-63373000D01*
X165373000Y-61781269D01*
X165627000Y-61781269D01*
X165627000Y-63373000D01*
X166735000Y-63373000D01*
X166735000Y-62723000D01*
X166592390Y-62260053D01*
X166283474Y-61886920D01*
X165855281Y-61660408D01*
X165817609Y-61656538D01*
X165627000Y-61781269D01*
X165373000Y-61781269D01*
X165182391Y-61656538D01*
X165144719Y-61660408D01*
X164716526Y-61886920D01*
X164407610Y-62260053D01*
X164265000Y-62723000D01*
X164195000Y-62723000D01*
X164052390Y-62260053D01*
X163743474Y-61886920D01*
X163470426Y-61742479D01*
X164436810Y-60776095D01*
X164546931Y-60611288D01*
X164585600Y-60416885D01*
X164585600Y-50711000D01*
X165214250Y-50711000D01*
X165373000Y-50552250D01*
X165373000Y-49187000D01*
X165627000Y-49187000D01*
X165627000Y-50552250D01*
X165785750Y-50711000D01*
X166489910Y-50711000D01*
X166723299Y-50614327D01*
X166901927Y-50435698D01*
X166998600Y-50202309D01*
X166998600Y-49345750D01*
X166839850Y-49187000D01*
X165627000Y-49187000D01*
X165373000Y-49187000D01*
X165353000Y-49187000D01*
X165353000Y-48933000D01*
X165373000Y-48933000D01*
X165373000Y-47567750D01*
X165627000Y-47567750D01*
X165627000Y-48933000D01*
X166839850Y-48933000D01*
X166998600Y-48774250D01*
X166998600Y-47917691D01*
X166901927Y-47684302D01*
X166723299Y-47505673D01*
X166489910Y-47409000D01*
X165785750Y-47409000D01*
X165627000Y-47567750D01*
X165373000Y-47567750D01*
X165214250Y-47409000D01*
X164510090Y-47409000D01*
X164276701Y-47505673D01*
X164098073Y-47684302D01*
X164001400Y-47917691D01*
X164001400Y-48241621D01*
X163840065Y-48000166D01*
X163436288Y-47730371D01*
X162960000Y-47635631D01*
X162483712Y-47730371D01*
X162079935Y-48000166D01*
X161810140Y-48403943D01*
X161715400Y-48880231D01*
X161715400Y-49239769D01*
X161810140Y-49716057D01*
X162079935Y-50119834D01*
X162483712Y-50389629D01*
X162960000Y-50484369D01*
X163421709Y-50392529D01*
X163569600Y-50540420D01*
X163569600Y-60206465D01*
X161670580Y-62105485D01*
X161560459Y-62270292D01*
X161521790Y-62464695D01*
X161521790Y-66109790D01*
X158096987Y-69534593D01*
X157826518Y-69534357D01*
X157523002Y-69659767D01*
X157290583Y-69891781D01*
X157164643Y-70195077D01*
X157164357Y-70523482D01*
X151424938Y-70523482D01*
X152229000Y-69719420D01*
X152339121Y-69554614D01*
X152377790Y-69360210D01*
X152377790Y-65057010D01*
X152424588Y-65088279D01*
X152800000Y-65162953D01*
X153175412Y-65088279D01*
X153493672Y-64875625D01*
X153706326Y-64557365D01*
X153781000Y-64181953D01*
X153781000Y-62818047D01*
X154359000Y-62818047D01*
X154359000Y-64181953D01*
X154433674Y-64557365D01*
X154646328Y-64875625D01*
X154964588Y-65088279D01*
X155340000Y-65162953D01*
X155715412Y-65088279D01*
X156033672Y-64875625D01*
X156246326Y-64557365D01*
X156321000Y-64181953D01*
X156321000Y-62818047D01*
X156899000Y-62818047D01*
X156899000Y-64181953D01*
X156973674Y-64557365D01*
X157186328Y-64875625D01*
X157504588Y-65088279D01*
X157880000Y-65162953D01*
X158255412Y-65088279D01*
X158573672Y-64875625D01*
X158786326Y-64557365D01*
X158861000Y-64181953D01*
X158861000Y-62818047D01*
X159439000Y-62818047D01*
X159439000Y-64181953D01*
X159513674Y-64557365D01*
X159726328Y-64875625D01*
X160044588Y-65088279D01*
X160420000Y-65162953D01*
X160795412Y-65088279D01*
X161113672Y-64875625D01*
X161326326Y-64557365D01*
X161401000Y-64181953D01*
X161401000Y-62818047D01*
X161326326Y-62442635D01*
X161113672Y-62124375D01*
X160795412Y-61911721D01*
X160420000Y-61837047D01*
X160044588Y-61911721D01*
X159726328Y-62124375D01*
X159513674Y-62442635D01*
X159439000Y-62818047D01*
X158861000Y-62818047D01*
X158786326Y-62442635D01*
X158573672Y-62124375D01*
X158255412Y-61911721D01*
X157880000Y-61837047D01*
X157504588Y-61911721D01*
X157186328Y-62124375D01*
X156973674Y-62442635D01*
X156899000Y-62818047D01*
X156321000Y-62818047D01*
X156246326Y-62442635D01*
X156033672Y-62124375D01*
X155715412Y-61911721D01*
X155340000Y-61837047D01*
X154964588Y-61911721D01*
X154646328Y-62124375D01*
X154433674Y-62442635D01*
X154359000Y-62818047D01*
X153781000Y-62818047D01*
X153706326Y-62442635D01*
X153493672Y-62124375D01*
X153175412Y-61911721D01*
X153146863Y-61906042D01*
X153289420Y-61763485D01*
X153399541Y-61598679D01*
X153405956Y-61566425D01*
X153438210Y-61404275D01*
X153438210Y-58538047D01*
X153559000Y-58538047D01*
X153559000Y-59901953D01*
X153633674Y-60277365D01*
X153846328Y-60595625D01*
X154164588Y-60808279D01*
X154540000Y-60882953D01*
X154915412Y-60808279D01*
X155233672Y-60595625D01*
X155446326Y-60277365D01*
X155521000Y-59901953D01*
X155521000Y-58538047D01*
X156099000Y-58538047D01*
X156099000Y-59901953D01*
X156173674Y-60277365D01*
X156386328Y-60595625D01*
X156704588Y-60808279D01*
X157080000Y-60882953D01*
X157455412Y-60808279D01*
X157773672Y-60595625D01*
X157986326Y-60277365D01*
X158061000Y-59901953D01*
X158061000Y-58538047D01*
X158639000Y-58538047D01*
X158639000Y-59901953D01*
X158713674Y-60277365D01*
X158926328Y-60595625D01*
X159244588Y-60808279D01*
X159620000Y-60882953D01*
X159995412Y-60808279D01*
X160313672Y-60595625D01*
X160526326Y-60277365D01*
X160601000Y-59901953D01*
X160601000Y-58538047D01*
X161179000Y-58538047D01*
X161179000Y-59901953D01*
X161253674Y-60277365D01*
X161466328Y-60595625D01*
X161784588Y-60808279D01*
X162160000Y-60882953D01*
X162535412Y-60808279D01*
X162853672Y-60595625D01*
X163066326Y-60277365D01*
X163141000Y-59901953D01*
X163141000Y-58538047D01*
X163066326Y-58162635D01*
X162853672Y-57844375D01*
X162535412Y-57631721D01*
X162160000Y-57557047D01*
X161784588Y-57631721D01*
X161466328Y-57844375D01*
X161253674Y-58162635D01*
X161179000Y-58538047D01*
X160601000Y-58538047D01*
X160526326Y-58162635D01*
X160313672Y-57844375D01*
X159995412Y-57631721D01*
X159620000Y-57557047D01*
X159244588Y-57631721D01*
X158926328Y-57844375D01*
X158713674Y-58162635D01*
X158639000Y-58538047D01*
X158061000Y-58538047D01*
X157986326Y-58162635D01*
X157773672Y-57844375D01*
X157455412Y-57631721D01*
X157080000Y-57557047D01*
X156704588Y-57631721D01*
X156386328Y-57844375D01*
X156173674Y-58162635D01*
X156099000Y-58538047D01*
X155521000Y-58538047D01*
X155446326Y-58162635D01*
X155233672Y-57844375D01*
X154915412Y-57631721D01*
X154540000Y-57557047D01*
X154164588Y-57631721D01*
X153846328Y-57844375D01*
X153633674Y-58162635D01*
X153559000Y-58538047D01*
X153438210Y-58538047D01*
X153438210Y-58184695D01*
X153399541Y-57990292D01*
X153308000Y-57853292D01*
X153308000Y-56490468D01*
X153364588Y-56528279D01*
X153740000Y-56602953D01*
X154115412Y-56528279D01*
X154433672Y-56315625D01*
X154646326Y-55997365D01*
X154721000Y-55621953D01*
X154721000Y-54258047D01*
X155299000Y-54258047D01*
X155299000Y-55621953D01*
X155373674Y-55997365D01*
X155586328Y-56315625D01*
X155904588Y-56528279D01*
X156280000Y-56602953D01*
X156655412Y-56528279D01*
X156973672Y-56315625D01*
X157186326Y-55997365D01*
X157261000Y-55621953D01*
X157261000Y-54258047D01*
X157839000Y-54258047D01*
X157839000Y-55621953D01*
X157913674Y-55997365D01*
X158126328Y-56315625D01*
X158444588Y-56528279D01*
X158820000Y-56602953D01*
X159195412Y-56528279D01*
X159513672Y-56315625D01*
X159726326Y-55997365D01*
X159801000Y-55621953D01*
X159801000Y-54258047D01*
X160379000Y-54258047D01*
X160379000Y-55621953D01*
X160453674Y-55997365D01*
X160666328Y-56315625D01*
X160984588Y-56528279D01*
X161360000Y-56602953D01*
X161735412Y-56528279D01*
X162053672Y-56315625D01*
X162266326Y-55997365D01*
X162341000Y-55621953D01*
X162341000Y-54258047D01*
X162266326Y-53882635D01*
X162053672Y-53564375D01*
X161735412Y-53351721D01*
X161360000Y-53277047D01*
X160984588Y-53351721D01*
X160666328Y-53564375D01*
X160453674Y-53882635D01*
X160379000Y-54258047D01*
X159801000Y-54258047D01*
X159726326Y-53882635D01*
X159513672Y-53564375D01*
X159195412Y-53351721D01*
X158820000Y-53277047D01*
X158444588Y-53351721D01*
X158126328Y-53564375D01*
X157913674Y-53882635D01*
X157839000Y-54258047D01*
X157261000Y-54258047D01*
X157186326Y-53882635D01*
X156973672Y-53564375D01*
X156655412Y-53351721D01*
X156280000Y-53277047D01*
X155904588Y-53351721D01*
X155586328Y-53564375D01*
X155373674Y-53882635D01*
X155299000Y-54258047D01*
X154721000Y-54258047D01*
X154646326Y-53882635D01*
X154433672Y-53564375D01*
X154115412Y-53351721D01*
X153740000Y-53277047D01*
X153364588Y-53351721D01*
X153308000Y-53389532D01*
X153308000Y-50368440D01*
X153680065Y-50119834D01*
X153949860Y-49716057D01*
X154044600Y-49239769D01*
X154044600Y-48880231D01*
X153949860Y-48403943D01*
X153680065Y-48000166D01*
X153362536Y-47788000D01*
X154777464Y-47788000D01*
X154459935Y-48000166D01*
X154190140Y-48403943D01*
X154095400Y-48880231D01*
X154095400Y-49239769D01*
X154190140Y-49716057D01*
X154459935Y-50119834D01*
X154863712Y-50389629D01*
X155340000Y-50484369D01*
X155816288Y-50389629D01*
X156220065Y-50119834D01*
X156489860Y-49716057D01*
X156584600Y-49239769D01*
X156584600Y-48880231D01*
X156489860Y-48403943D01*
X156220065Y-48000166D01*
X155902536Y-47788000D01*
X157317464Y-47788000D01*
X156999935Y-48000166D01*
X156730140Y-48403943D01*
X156635400Y-48880231D01*
X156635400Y-49239769D01*
X156730140Y-49716057D01*
X156999935Y-50119834D01*
X157403712Y-50389629D01*
X157880000Y-50484369D01*
X158356288Y-50389629D01*
X158760065Y-50119834D01*
X159029860Y-49716057D01*
X159124600Y-49239769D01*
X159124600Y-48880231D01*
X159029860Y-48403943D01*
X158760065Y-48000166D01*
X158442536Y-47788000D01*
X159699580Y-47788000D01*
X159762819Y-47851239D01*
X159539935Y-48000166D01*
X159270140Y-48403943D01*
X159175400Y-48880231D01*
X159175400Y-49239769D01*
X159270140Y-49716057D01*
X159539935Y-50119834D01*
X159943712Y-50389629D01*
X160420000Y-50484369D01*
X160896288Y-50389629D01*
X161300065Y-50119834D01*
X161569860Y-49716057D01*
X161664600Y-49239769D01*
X161664600Y-48880231D01*
X161569860Y-48403943D01*
X161300065Y-48000166D01*
X160919182Y-47745668D01*
X160889331Y-47595597D01*
X160779210Y-47430790D01*
X160275420Y-46927000D01*
X169347394Y-46927000D01*
X169773000Y-47352606D01*
X169773000Y-48558761D01*
X167564000Y-48558761D01*
X167564000Y-64661239D01*
X169773000Y-64661239D01*
X169773000Y-67882352D01*
X169662166Y-67503517D01*
X169309896Y-67065500D01*
X168816819Y-66795633D01*
X168734039Y-66778096D01*
X168512000Y-66900085D01*
X168512000Y-68543000D01*
X168532000Y-68543000D01*
X168532000Y-68797000D01*
X168512000Y-68797000D01*
X168512000Y-70439915D01*
X168734039Y-70561904D01*
X168816819Y-70544367D01*
X169309896Y-70274500D01*
X169662166Y-69836483D01*
X169773000Y-69457648D01*
X169773000Y-94747394D01*
X169347394Y-95173000D01*
X133452606Y-95173000D01*
X133027000Y-94747394D01*
X133027000Y-92060231D01*
X151555400Y-92060231D01*
X151555400Y-92419769D01*
X151650140Y-92896057D01*
X151919935Y-93299834D01*
X152323712Y-93569629D01*
X152800000Y-93664369D01*
X153276288Y-93569629D01*
X153680065Y-93299834D01*
X153949860Y-92896057D01*
X154044600Y-92419769D01*
X154044600Y-92060231D01*
X154095400Y-92060231D01*
X154095400Y-92419769D01*
X154190140Y-92896057D01*
X154459935Y-93299834D01*
X154863712Y-93569629D01*
X155340000Y-93664369D01*
X155816288Y-93569629D01*
X156220065Y-93299834D01*
X156489860Y-92896057D01*
X156584600Y-92419769D01*
X156584600Y-92060231D01*
X156489860Y-91583943D01*
X156220065Y-91180166D01*
X155816288Y-90910371D01*
X155340000Y-90815631D01*
X154863712Y-90910371D01*
X154459935Y-91180166D01*
X154190140Y-91583943D01*
X154095400Y-92060231D01*
X154044600Y-92060231D01*
X153949860Y-91583943D01*
X153680065Y-91180166D01*
X153276288Y-90910371D01*
X152800000Y-90815631D01*
X152323712Y-90910371D01*
X151919935Y-91180166D01*
X151650140Y-91583943D01*
X151555400Y-92060231D01*
X133027000Y-92060231D01*
X133027000Y-87138047D01*
X137519000Y-87138047D01*
X137519000Y-88501953D01*
X137593674Y-88877365D01*
X137806328Y-89195625D01*
X138124588Y-89408279D01*
X138500000Y-89482953D01*
X138875412Y-89408279D01*
X139193672Y-89195625D01*
X139406326Y-88877365D01*
X139481000Y-88501953D01*
X139481000Y-87138047D01*
X140059000Y-87138047D01*
X140059000Y-88501953D01*
X140133674Y-88877365D01*
X140346328Y-89195625D01*
X140664588Y-89408279D01*
X141040000Y-89482953D01*
X141415412Y-89408279D01*
X141733672Y-89195625D01*
X141946326Y-88877365D01*
X142021000Y-88501953D01*
X142021000Y-87138047D01*
X142599000Y-87138047D01*
X142599000Y-88501953D01*
X142673674Y-88877365D01*
X142886328Y-89195625D01*
X143204588Y-89408279D01*
X143580000Y-89482953D01*
X143955412Y-89408279D01*
X144273672Y-89195625D01*
X144486326Y-88877365D01*
X144561000Y-88501953D01*
X144561000Y-87138047D01*
X145139000Y-87138047D01*
X145139000Y-88501953D01*
X145213674Y-88877365D01*
X145426328Y-89195625D01*
X145744588Y-89408279D01*
X146120000Y-89482953D01*
X146495412Y-89408279D01*
X146813672Y-89195625D01*
X147026326Y-88877365D01*
X147101000Y-88501953D01*
X147101000Y-87138047D01*
X147679000Y-87138047D01*
X147679000Y-88501953D01*
X147753674Y-88877365D01*
X147966328Y-89195625D01*
X148284588Y-89408279D01*
X148660000Y-89482953D01*
X149035412Y-89408279D01*
X149353672Y-89195625D01*
X149566326Y-88877365D01*
X149641000Y-88501953D01*
X149641000Y-87138047D01*
X150219000Y-87138047D01*
X150219000Y-88501953D01*
X150293674Y-88877365D01*
X150506328Y-89195625D01*
X150824588Y-89408279D01*
X151200000Y-89482953D01*
X151575412Y-89408279D01*
X151893672Y-89195625D01*
X152106326Y-88877365D01*
X152181000Y-88501953D01*
X152181000Y-87138047D01*
X152759000Y-87138047D01*
X152759000Y-88501953D01*
X152833674Y-88877365D01*
X153046328Y-89195625D01*
X153364588Y-89408279D01*
X153740000Y-89482953D01*
X154115412Y-89408279D01*
X154433672Y-89195625D01*
X154646326Y-88877365D01*
X154721000Y-88501953D01*
X154721000Y-87138047D01*
X155299000Y-87138047D01*
X155299000Y-88501953D01*
X155373674Y-88877365D01*
X155586328Y-89195625D01*
X155904588Y-89408279D01*
X156280000Y-89482953D01*
X156655412Y-89408279D01*
X156973672Y-89195625D01*
X157186326Y-88877365D01*
X157261000Y-88501953D01*
X157261000Y-87138047D01*
X157186326Y-86762635D01*
X156973672Y-86444375D01*
X156655412Y-86231721D01*
X156280000Y-86157047D01*
X155904588Y-86231721D01*
X155586328Y-86444375D01*
X155373674Y-86762635D01*
X155299000Y-87138047D01*
X154721000Y-87138047D01*
X154646326Y-86762635D01*
X154433672Y-86444375D01*
X154115412Y-86231721D01*
X153740000Y-86157047D01*
X153364588Y-86231721D01*
X153046328Y-86444375D01*
X152833674Y-86762635D01*
X152759000Y-87138047D01*
X152181000Y-87138047D01*
X152106326Y-86762635D01*
X151893672Y-86444375D01*
X151575412Y-86231721D01*
X151200000Y-86157047D01*
X150824588Y-86231721D01*
X150506328Y-86444375D01*
X150293674Y-86762635D01*
X150219000Y-87138047D01*
X149641000Y-87138047D01*
X149566326Y-86762635D01*
X149353672Y-86444375D01*
X149035412Y-86231721D01*
X148660000Y-86157047D01*
X148284588Y-86231721D01*
X147966328Y-86444375D01*
X147753674Y-86762635D01*
X147679000Y-87138047D01*
X147101000Y-87138047D01*
X147026326Y-86762635D01*
X146813672Y-86444375D01*
X146495412Y-86231721D01*
X146120000Y-86157047D01*
X145744588Y-86231721D01*
X145426328Y-86444375D01*
X145213674Y-86762635D01*
X145139000Y-87138047D01*
X144561000Y-87138047D01*
X144486326Y-86762635D01*
X144273672Y-86444375D01*
X143955412Y-86231721D01*
X143580000Y-86157047D01*
X143204588Y-86231721D01*
X142886328Y-86444375D01*
X142673674Y-86762635D01*
X142599000Y-87138047D01*
X142021000Y-87138047D01*
X141946326Y-86762635D01*
X141733672Y-86444375D01*
X141415412Y-86231721D01*
X141040000Y-86157047D01*
X140664588Y-86231721D01*
X140346328Y-86444375D01*
X140133674Y-86762635D01*
X140059000Y-87138047D01*
X139481000Y-87138047D01*
X139406326Y-86762635D01*
X139193672Y-86444375D01*
X138875412Y-86231721D01*
X138500000Y-86157047D01*
X138124588Y-86231721D01*
X137806328Y-86444375D01*
X137593674Y-86762635D01*
X137519000Y-87138047D01*
X133027000Y-87138047D01*
X133027000Y-82998047D01*
X138319000Y-82998047D01*
X138319000Y-84361953D01*
X138393674Y-84737365D01*
X138606328Y-85055625D01*
X138924588Y-85268279D01*
X139300000Y-85342953D01*
X139675412Y-85268279D01*
X139993672Y-85055625D01*
X140206326Y-84737365D01*
X140281000Y-84361953D01*
X140281000Y-82998047D01*
X140859000Y-82998047D01*
X140859000Y-84361953D01*
X140933674Y-84737365D01*
X141146328Y-85055625D01*
X141464588Y-85268279D01*
X141840000Y-85342953D01*
X142215412Y-85268279D01*
X142533672Y-85055625D01*
X142746326Y-84737365D01*
X142821000Y-84361953D01*
X142821000Y-82998047D01*
X143399000Y-82998047D01*
X143399000Y-84361953D01*
X143473674Y-84737365D01*
X143686328Y-85055625D01*
X144004588Y-85268279D01*
X144380000Y-85342953D01*
X144755412Y-85268279D01*
X145073672Y-85055625D01*
X145286326Y-84737365D01*
X145361000Y-84361953D01*
X145361000Y-82998047D01*
X145939000Y-82998047D01*
X145939000Y-84361953D01*
X146013674Y-84737365D01*
X146226328Y-85055625D01*
X146544588Y-85268279D01*
X146920000Y-85342953D01*
X147295412Y-85268279D01*
X147613672Y-85055625D01*
X147826326Y-84737365D01*
X147901000Y-84361953D01*
X147901000Y-82998047D01*
X148479000Y-82998047D01*
X148479000Y-84361953D01*
X148553674Y-84737365D01*
X148766328Y-85055625D01*
X149084588Y-85268279D01*
X149460000Y-85342953D01*
X149835412Y-85268279D01*
X150153672Y-85055625D01*
X150366326Y-84737365D01*
X150441000Y-84361953D01*
X150441000Y-82998047D01*
X151019000Y-82998047D01*
X151019000Y-84361953D01*
X151093674Y-84737365D01*
X151306328Y-85055625D01*
X151624588Y-85268279D01*
X152000000Y-85342953D01*
X152375412Y-85268279D01*
X152693672Y-85055625D01*
X152906326Y-84737365D01*
X152981000Y-84361953D01*
X152981000Y-82998047D01*
X153559000Y-82998047D01*
X153559000Y-84361953D01*
X153633674Y-84737365D01*
X153846328Y-85055625D01*
X154164588Y-85268279D01*
X154540000Y-85342953D01*
X154915412Y-85268279D01*
X155233672Y-85055625D01*
X155446326Y-84737365D01*
X155521000Y-84361953D01*
X155521000Y-82998047D01*
X156099000Y-82998047D01*
X156099000Y-84361953D01*
X156173674Y-84737365D01*
X156386328Y-85055625D01*
X156704588Y-85268279D01*
X157080000Y-85342953D01*
X157372000Y-85284871D01*
X157372000Y-90931560D01*
X156999935Y-91180166D01*
X156730140Y-91583943D01*
X156635400Y-92060231D01*
X156635400Y-92419769D01*
X156730140Y-92896057D01*
X156999935Y-93299834D01*
X157403712Y-93569629D01*
X157880000Y-93664369D01*
X158356288Y-93569629D01*
X158760065Y-93299834D01*
X159029860Y-92896057D01*
X159124600Y-92419769D01*
X159124600Y-92060231D01*
X159029860Y-91583943D01*
X158760065Y-91180166D01*
X158388000Y-90931560D01*
X158388000Y-89370468D01*
X158444588Y-89408279D01*
X158820000Y-89482953D01*
X159195412Y-89408279D01*
X159513672Y-89195625D01*
X159726326Y-88877365D01*
X159801000Y-88501953D01*
X159801000Y-87138047D01*
X159726326Y-86762635D01*
X159513672Y-86444375D01*
X159195412Y-86231721D01*
X158820000Y-86157047D01*
X158444588Y-86231721D01*
X158388000Y-86269532D01*
X158388000Y-85046708D01*
X158479541Y-84909708D01*
X158518210Y-84715305D01*
X158518210Y-82998047D01*
X158639000Y-82998047D01*
X158639000Y-84361953D01*
X158713674Y-84737365D01*
X158926328Y-85055625D01*
X159244588Y-85268279D01*
X159620000Y-85342953D01*
X159995412Y-85268279D01*
X160042210Y-85237010D01*
X160042210Y-86463082D01*
X159950669Y-86600082D01*
X159912000Y-86794485D01*
X159912000Y-90931560D01*
X159539935Y-91180166D01*
X159270140Y-91583943D01*
X159175400Y-92060231D01*
X159175400Y-92419769D01*
X159270140Y-92896057D01*
X159539935Y-93299834D01*
X159943712Y-93569629D01*
X160420000Y-93664369D01*
X160896288Y-93569629D01*
X161300065Y-93299834D01*
X161569860Y-92896057D01*
X161664600Y-92419769D01*
X161664600Y-92060231D01*
X161569860Y-91583943D01*
X161300065Y-91180166D01*
X160928000Y-90931560D01*
X160928000Y-89370468D01*
X160984588Y-89408279D01*
X161360000Y-89482953D01*
X161735412Y-89408279D01*
X162053672Y-89195625D01*
X162266326Y-88877365D01*
X162341000Y-88501953D01*
X162341000Y-87138047D01*
X162266326Y-86762635D01*
X162053672Y-86444375D01*
X161735412Y-86231721D01*
X161360000Y-86157047D01*
X161058210Y-86217077D01*
X161058210Y-82998047D01*
X161179000Y-82998047D01*
X161179000Y-84361953D01*
X161253674Y-84737365D01*
X161466328Y-85055625D01*
X161784588Y-85268279D01*
X162160000Y-85342953D01*
X162535412Y-85268279D01*
X162853672Y-85055625D01*
X163066326Y-84737365D01*
X163141000Y-84361953D01*
X163141000Y-82998047D01*
X163066326Y-82622635D01*
X162853672Y-82304375D01*
X162535412Y-82091721D01*
X162160000Y-82017047D01*
X161784588Y-82091721D01*
X161466328Y-82304375D01*
X161253674Y-82622635D01*
X161179000Y-82998047D01*
X161058210Y-82998047D01*
X161058210Y-81174210D01*
X161019541Y-80979807D01*
X161018947Y-80978918D01*
X161113672Y-80915625D01*
X161326326Y-80597365D01*
X161401000Y-80221953D01*
X161401000Y-79667000D01*
X161725000Y-79667000D01*
X161725000Y-80317000D01*
X161867610Y-80779947D01*
X162176526Y-81153080D01*
X162604719Y-81379592D01*
X162642391Y-81383462D01*
X162833000Y-81258731D01*
X162833000Y-79667000D01*
X161725000Y-79667000D01*
X161401000Y-79667000D01*
X161401000Y-78858047D01*
X161326326Y-78482635D01*
X161113672Y-78164375D01*
X160795412Y-77951721D01*
X160420000Y-77877047D01*
X160044588Y-77951721D01*
X159726328Y-78164375D01*
X159513674Y-78482635D01*
X159439000Y-78858047D01*
X159439000Y-80221953D01*
X159513674Y-80597365D01*
X159726328Y-80915625D01*
X159912000Y-81039687D01*
X159912000Y-81044000D01*
X159950669Y-81238403D01*
X160042210Y-81375403D01*
X160042210Y-82122990D01*
X159995412Y-82091721D01*
X159620000Y-82017047D01*
X159244588Y-82091721D01*
X158926328Y-82304375D01*
X158713674Y-82622635D01*
X158639000Y-82998047D01*
X158518210Y-82998047D01*
X158518210Y-81585725D01*
X159169420Y-80934515D01*
X159279541Y-80769708D01*
X159318210Y-80575305D01*
X159318210Y-72220210D01*
X159843013Y-71695407D01*
X160113482Y-71695643D01*
X160416998Y-71570233D01*
X160649417Y-71338219D01*
X160740751Y-71118263D01*
X160772000Y-71149567D01*
X160772000Y-75894485D01*
X160810669Y-76088888D01*
X160920790Y-76253695D01*
X162449574Y-77782479D01*
X162176526Y-77926920D01*
X161867610Y-78300053D01*
X161725000Y-78763000D01*
X161725000Y-79413000D01*
X162833000Y-79413000D01*
X162833000Y-79393000D01*
X163087000Y-79393000D01*
X163087000Y-79413000D01*
X163107000Y-79413000D01*
X163107000Y-79667000D01*
X163087000Y-79667000D01*
X163087000Y-81258731D01*
X163277609Y-81383462D01*
X163315281Y-81379592D01*
X163382210Y-81344187D01*
X163382210Y-89829370D01*
X162600790Y-90610790D01*
X162490669Y-90775597D01*
X162460818Y-90925668D01*
X162079935Y-91180166D01*
X161810140Y-91583943D01*
X161715400Y-92060231D01*
X161715400Y-92419769D01*
X161810140Y-92896057D01*
X162079935Y-93299834D01*
X162483712Y-93569629D01*
X162960000Y-93664369D01*
X163436288Y-93569629D01*
X163840065Y-93299834D01*
X164001400Y-93058379D01*
X164001400Y-93382309D01*
X164098073Y-93615698D01*
X164276701Y-93794327D01*
X164510090Y-93891000D01*
X165214250Y-93891000D01*
X165373000Y-93732250D01*
X165373000Y-92367000D01*
X165627000Y-92367000D01*
X165627000Y-93732250D01*
X165785750Y-93891000D01*
X166489910Y-93891000D01*
X166723299Y-93794327D01*
X166901927Y-93615698D01*
X166998600Y-93382309D01*
X166998600Y-92525750D01*
X166839850Y-92367000D01*
X165627000Y-92367000D01*
X165373000Y-92367000D01*
X165353000Y-92367000D01*
X165353000Y-92113000D01*
X165373000Y-92113000D01*
X165373000Y-90747750D01*
X165627000Y-90747750D01*
X165627000Y-92113000D01*
X166839850Y-92113000D01*
X166998600Y-91954250D01*
X166998600Y-91097691D01*
X166901927Y-90864302D01*
X166723299Y-90685673D01*
X166489910Y-90589000D01*
X165785750Y-90589000D01*
X165627000Y-90747750D01*
X165373000Y-90747750D01*
X165214250Y-90589000D01*
X164510090Y-90589000D01*
X164276701Y-90685673D01*
X164098073Y-90864302D01*
X164001400Y-91097691D01*
X164001400Y-91421621D01*
X163840065Y-91180166D01*
X163617181Y-91031239D01*
X164249420Y-90399000D01*
X164359541Y-90234194D01*
X164365956Y-90201940D01*
X164398210Y-90039790D01*
X164398210Y-78858047D01*
X164519000Y-78858047D01*
X164519000Y-80221953D01*
X164593674Y-80597365D01*
X164806328Y-80915625D01*
X165124588Y-81128279D01*
X165500000Y-81202953D01*
X165875412Y-81128279D01*
X166193672Y-80915625D01*
X166406326Y-80597365D01*
X166481000Y-80221953D01*
X166481000Y-78858047D01*
X166406326Y-78482635D01*
X166193672Y-78164375D01*
X165875412Y-77951721D01*
X165500000Y-77877047D01*
X165124588Y-77951721D01*
X164806328Y-78164375D01*
X164593674Y-78482635D01*
X164519000Y-78858047D01*
X164398210Y-78858047D01*
X164398210Y-78504695D01*
X164359541Y-78310292D01*
X164359541Y-78310291D01*
X164249420Y-78145484D01*
X161788000Y-75684065D01*
X161788000Y-72587067D01*
X163379000Y-72587067D01*
X163379000Y-73652933D01*
X163468898Y-74104882D01*
X163724907Y-74488026D01*
X164108051Y-74744035D01*
X164560000Y-74833933D01*
X165011949Y-74744035D01*
X165395093Y-74488026D01*
X165651102Y-74104882D01*
X165741000Y-73652933D01*
X165741000Y-73342945D01*
X167204000Y-73342945D01*
X167204000Y-73797055D01*
X167293898Y-74249004D01*
X167549907Y-74632148D01*
X167933051Y-74888157D01*
X168385000Y-74978055D01*
X168836949Y-74888157D01*
X169220093Y-74632148D01*
X169476102Y-74249004D01*
X169566000Y-73797055D01*
X169566000Y-73342945D01*
X169476102Y-72890996D01*
X169220093Y-72507852D01*
X168836949Y-72251843D01*
X168385000Y-72161945D01*
X167933051Y-72251843D01*
X167549907Y-72507852D01*
X167293898Y-72890996D01*
X167204000Y-73342945D01*
X165741000Y-73342945D01*
X165741000Y-72587067D01*
X165651102Y-72135118D01*
X165395093Y-71751974D01*
X165011949Y-71495965D01*
X164560000Y-71406067D01*
X164108051Y-71495965D01*
X163724907Y-71751974D01*
X163468898Y-72135118D01*
X163379000Y-72587067D01*
X161788000Y-72587067D01*
X161788000Y-71149302D01*
X161979417Y-70958219D01*
X162105357Y-70654923D01*
X162105643Y-70326518D01*
X161980233Y-70023002D01*
X161748219Y-69790583D01*
X161444923Y-69664643D01*
X161116518Y-69664357D01*
X160813002Y-69789767D01*
X160580583Y-70021781D01*
X160489249Y-70241737D01*
X160418219Y-70170583D01*
X160114923Y-70044643D01*
X159786518Y-70044357D01*
X159483002Y-70169767D01*
X159250583Y-70401781D01*
X159124643Y-70705077D01*
X159124406Y-70977173D01*
X158451000Y-71650580D01*
X158340879Y-71815387D01*
X158302210Y-72009790D01*
X158302210Y-77982990D01*
X158255412Y-77951721D01*
X157880000Y-77877047D01*
X157504588Y-77951721D01*
X157186328Y-78164375D01*
X156973674Y-78482635D01*
X156899000Y-78858047D01*
X156899000Y-80221953D01*
X156973674Y-80597365D01*
X157186328Y-80915625D01*
X157504588Y-81128279D01*
X157567658Y-81140824D01*
X157540879Y-81180902D01*
X157502210Y-81375305D01*
X157502210Y-82122990D01*
X157455412Y-82091721D01*
X157080000Y-82017047D01*
X156704588Y-82091721D01*
X156386328Y-82304375D01*
X156173674Y-82622635D01*
X156099000Y-82998047D01*
X155521000Y-82998047D01*
X155446326Y-82622635D01*
X155233672Y-82304375D01*
X154915412Y-82091721D01*
X154540000Y-82017047D01*
X154164588Y-82091721D01*
X153846328Y-82304375D01*
X153633674Y-82622635D01*
X153559000Y-82998047D01*
X152981000Y-82998047D01*
X152906326Y-82622635D01*
X152693672Y-82304375D01*
X152375412Y-82091721D01*
X152000000Y-82017047D01*
X151624588Y-82091721D01*
X151306328Y-82304375D01*
X151093674Y-82622635D01*
X151019000Y-82998047D01*
X150441000Y-82998047D01*
X150366326Y-82622635D01*
X150153672Y-82304375D01*
X149835412Y-82091721D01*
X149460000Y-82017047D01*
X149084588Y-82091721D01*
X148766328Y-82304375D01*
X148553674Y-82622635D01*
X148479000Y-82998047D01*
X147901000Y-82998047D01*
X147826326Y-82622635D01*
X147613672Y-82304375D01*
X147295412Y-82091721D01*
X146920000Y-82017047D01*
X146544588Y-82091721D01*
X146226328Y-82304375D01*
X146013674Y-82622635D01*
X145939000Y-82998047D01*
X145361000Y-82998047D01*
X145286326Y-82622635D01*
X145073672Y-82304375D01*
X144755412Y-82091721D01*
X144380000Y-82017047D01*
X144004588Y-82091721D01*
X143686328Y-82304375D01*
X143473674Y-82622635D01*
X143399000Y-82998047D01*
X142821000Y-82998047D01*
X142746326Y-82622635D01*
X142533672Y-82304375D01*
X142215412Y-82091721D01*
X141840000Y-82017047D01*
X141464588Y-82091721D01*
X141146328Y-82304375D01*
X140933674Y-82622635D01*
X140859000Y-82998047D01*
X140281000Y-82998047D01*
X140206326Y-82622635D01*
X139993672Y-82304375D01*
X139675412Y-82091721D01*
X139300000Y-82017047D01*
X138924588Y-82091721D01*
X138606328Y-82304375D01*
X138393674Y-82622635D01*
X138319000Y-82998047D01*
X133027000Y-82998047D01*
X133027000Y-78858047D01*
X139119000Y-78858047D01*
X139119000Y-80221953D01*
X139193674Y-80597365D01*
X139406328Y-80915625D01*
X139724588Y-81128279D01*
X140100000Y-81202953D01*
X140475412Y-81128279D01*
X140793672Y-80915625D01*
X141006326Y-80597365D01*
X141081000Y-80221953D01*
X141081000Y-78858047D01*
X141659000Y-78858047D01*
X141659000Y-80221953D01*
X141733674Y-80597365D01*
X141946328Y-80915625D01*
X142264588Y-81128279D01*
X142640000Y-81202953D01*
X143015412Y-81128279D01*
X143333672Y-80915625D01*
X143546326Y-80597365D01*
X143621000Y-80221953D01*
X143621000Y-78858047D01*
X144199000Y-78858047D01*
X144199000Y-80221953D01*
X144273674Y-80597365D01*
X144486328Y-80915625D01*
X144804588Y-81128279D01*
X145180000Y-81202953D01*
X145555412Y-81128279D01*
X145873672Y-80915625D01*
X146086326Y-80597365D01*
X146161000Y-80221953D01*
X146161000Y-78858047D01*
X146739000Y-78858047D01*
X146739000Y-80221953D01*
X146813674Y-80597365D01*
X147026328Y-80915625D01*
X147344588Y-81128279D01*
X147720000Y-81202953D01*
X148095412Y-81128279D01*
X148413672Y-80915625D01*
X148626326Y-80597365D01*
X148701000Y-80221953D01*
X148701000Y-78858047D01*
X149279000Y-78858047D01*
X149279000Y-80221953D01*
X149353674Y-80597365D01*
X149566328Y-80915625D01*
X149884588Y-81128279D01*
X150260000Y-81202953D01*
X150635412Y-81128279D01*
X150953672Y-80915625D01*
X151166326Y-80597365D01*
X151241000Y-80221953D01*
X151241000Y-78858047D01*
X151819000Y-78858047D01*
X151819000Y-80221953D01*
X151893674Y-80597365D01*
X152106328Y-80915625D01*
X152424588Y-81128279D01*
X152800000Y-81202953D01*
X153175412Y-81128279D01*
X153493672Y-80915625D01*
X153706326Y-80597365D01*
X153781000Y-80221953D01*
X153781000Y-78858047D01*
X154359000Y-78858047D01*
X154359000Y-80221953D01*
X154433674Y-80597365D01*
X154646328Y-80915625D01*
X154964588Y-81128279D01*
X155340000Y-81202953D01*
X155715412Y-81128279D01*
X156033672Y-80915625D01*
X156246326Y-80597365D01*
X156321000Y-80221953D01*
X156321000Y-78858047D01*
X156246326Y-78482635D01*
X156033672Y-78164375D01*
X155715412Y-77951721D01*
X155340000Y-77877047D01*
X154964588Y-77951721D01*
X154646328Y-78164375D01*
X154433674Y-78482635D01*
X154359000Y-78858047D01*
X153781000Y-78858047D01*
X153706326Y-78482635D01*
X153493672Y-78164375D01*
X153175412Y-77951721D01*
X152800000Y-77877047D01*
X152424588Y-77951721D01*
X152106328Y-78164375D01*
X151893674Y-78482635D01*
X151819000Y-78858047D01*
X151241000Y-78858047D01*
X151166326Y-78482635D01*
X150953672Y-78164375D01*
X150635412Y-77951721D01*
X150260000Y-77877047D01*
X149884588Y-77951721D01*
X149566328Y-78164375D01*
X149353674Y-78482635D01*
X149279000Y-78858047D01*
X148701000Y-78858047D01*
X148626326Y-78482635D01*
X148413672Y-78164375D01*
X148095412Y-77951721D01*
X147720000Y-77877047D01*
X147344588Y-77951721D01*
X147026328Y-78164375D01*
X146813674Y-78482635D01*
X146739000Y-78858047D01*
X146161000Y-78858047D01*
X146086326Y-78482635D01*
X145873672Y-78164375D01*
X145555412Y-77951721D01*
X145180000Y-77877047D01*
X144804588Y-77951721D01*
X144486328Y-78164375D01*
X144273674Y-78482635D01*
X144199000Y-78858047D01*
X143621000Y-78858047D01*
X143546326Y-78482635D01*
X143333672Y-78164375D01*
X143015412Y-77951721D01*
X142640000Y-77877047D01*
X142264588Y-77951721D01*
X141946328Y-78164375D01*
X141733674Y-78482635D01*
X141659000Y-78858047D01*
X141081000Y-78858047D01*
X141006326Y-78482635D01*
X140793672Y-78164375D01*
X140475412Y-77951721D01*
X140100000Y-77877047D01*
X139724588Y-77951721D01*
X139406328Y-78164375D01*
X139193674Y-78482635D01*
X139119000Y-78858047D01*
X133027000Y-78858047D01*
X133027000Y-73342945D01*
X133154000Y-73342945D01*
X133154000Y-73797055D01*
X133243898Y-74249004D01*
X133499907Y-74632148D01*
X133883051Y-74888157D01*
X134335000Y-74978055D01*
X134786949Y-74888157D01*
X135170093Y-74632148D01*
X135426102Y-74249004D01*
X135516000Y-73797055D01*
X135516000Y-73342945D01*
X135426102Y-72890996D01*
X135170093Y-72507852D01*
X134786949Y-72251843D01*
X134335000Y-72161945D01*
X133883051Y-72251843D01*
X133499907Y-72507852D01*
X133243898Y-72890996D01*
X133154000Y-73342945D01*
X133027000Y-73342945D01*
X133027000Y-68137067D01*
X133154000Y-68137067D01*
X133154000Y-69202933D01*
X133243898Y-69654882D01*
X133499907Y-70038026D01*
X133883051Y-70294035D01*
X134335000Y-70383933D01*
X134786949Y-70294035D01*
X135170093Y-70038026D01*
X135426102Y-69654882D01*
X135516000Y-69202933D01*
X135516000Y-68587067D01*
X136979000Y-68587067D01*
X136979000Y-69652933D01*
X137068898Y-70104882D01*
X137324907Y-70488026D01*
X137708051Y-70744035D01*
X138160000Y-70833933D01*
X138611949Y-70744035D01*
X138995093Y-70488026D01*
X139251102Y-70104882D01*
X139341000Y-69652933D01*
X139341000Y-68587067D01*
X139251102Y-68135118D01*
X138995093Y-67751974D01*
X138611949Y-67495965D01*
X138160000Y-67406067D01*
X137708051Y-67495965D01*
X137324907Y-67751974D01*
X137068898Y-68135118D01*
X136979000Y-68587067D01*
X135516000Y-68587067D01*
X135516000Y-68137067D01*
X135426102Y-67685118D01*
X135170093Y-67301974D01*
X134786949Y-67045965D01*
X134335000Y-66956067D01*
X133883051Y-67045965D01*
X133499907Y-67301974D01*
X133243898Y-67685118D01*
X133154000Y-68137067D01*
X133027000Y-68137067D01*
X133027000Y-62818047D01*
X134039000Y-62818047D01*
X134039000Y-64181953D01*
X134113674Y-64557365D01*
X134326328Y-64875625D01*
X134644588Y-65088279D01*
X135020000Y-65162953D01*
X135395412Y-65088279D01*
X135713672Y-64875625D01*
X135926326Y-64557365D01*
X136001000Y-64181953D01*
X136001000Y-62818047D01*
X136579000Y-62818047D01*
X136579000Y-64181953D01*
X136653674Y-64557365D01*
X136866328Y-64875625D01*
X137184588Y-65088279D01*
X137560000Y-65162953D01*
X137935412Y-65088279D01*
X138253672Y-64875625D01*
X138466326Y-64557365D01*
X138541000Y-64181953D01*
X138541000Y-62818047D01*
X139119000Y-62818047D01*
X139119000Y-64181953D01*
X139193674Y-64557365D01*
X139406328Y-64875625D01*
X139724588Y-65088279D01*
X140100000Y-65162953D01*
X140475412Y-65088279D01*
X140793672Y-64875625D01*
X141006326Y-64557365D01*
X141081000Y-64181953D01*
X141081000Y-62818047D01*
X141659000Y-62818047D01*
X141659000Y-64181953D01*
X141733674Y-64557365D01*
X141946328Y-64875625D01*
X142264588Y-65088279D01*
X142640000Y-65162953D01*
X143015412Y-65088279D01*
X143333672Y-64875625D01*
X143546326Y-64557365D01*
X143621000Y-64181953D01*
X143621000Y-62818047D01*
X144199000Y-62818047D01*
X144199000Y-64181953D01*
X144273674Y-64557365D01*
X144486328Y-64875625D01*
X144804588Y-65088279D01*
X145180000Y-65162953D01*
X145555412Y-65088279D01*
X145873672Y-64875625D01*
X146086326Y-64557365D01*
X146161000Y-64181953D01*
X146161000Y-62818047D01*
X146086326Y-62442635D01*
X145873672Y-62124375D01*
X145555412Y-61911721D01*
X145180000Y-61837047D01*
X144804588Y-61911721D01*
X144486328Y-62124375D01*
X144273674Y-62442635D01*
X144199000Y-62818047D01*
X143621000Y-62818047D01*
X143546326Y-62442635D01*
X143333672Y-62124375D01*
X143015412Y-61911721D01*
X142640000Y-61837047D01*
X142264588Y-61911721D01*
X141946328Y-62124375D01*
X141733674Y-62442635D01*
X141659000Y-62818047D01*
X141081000Y-62818047D01*
X141006326Y-62442635D01*
X140793672Y-62124375D01*
X140475412Y-61911721D01*
X140100000Y-61837047D01*
X139724588Y-61911721D01*
X139406328Y-62124375D01*
X139193674Y-62442635D01*
X139119000Y-62818047D01*
X138541000Y-62818047D01*
X138466326Y-62442635D01*
X138253672Y-62124375D01*
X137935412Y-61911721D01*
X137560000Y-61837047D01*
X137184588Y-61911721D01*
X136866328Y-62124375D01*
X136653674Y-62442635D01*
X136579000Y-62818047D01*
X136001000Y-62818047D01*
X135926326Y-62442635D01*
X135713672Y-62124375D01*
X135395412Y-61911721D01*
X135020000Y-61837047D01*
X134644588Y-61911721D01*
X134326328Y-62124375D01*
X134113674Y-62442635D01*
X134039000Y-62818047D01*
X133027000Y-62818047D01*
X133027000Y-58538047D01*
X138319000Y-58538047D01*
X138319000Y-59901953D01*
X138393674Y-60277365D01*
X138606328Y-60595625D01*
X138924588Y-60808279D01*
X139300000Y-60882953D01*
X139675412Y-60808279D01*
X139993672Y-60595625D01*
X140206326Y-60277365D01*
X140281000Y-59901953D01*
X140281000Y-58538047D01*
X140859000Y-58538047D01*
X140859000Y-59901953D01*
X140933674Y-60277365D01*
X141146328Y-60595625D01*
X141464588Y-60808279D01*
X141840000Y-60882953D01*
X142215412Y-60808279D01*
X142533672Y-60595625D01*
X142746326Y-60277365D01*
X142821000Y-59901953D01*
X142821000Y-58538047D01*
X143399000Y-58538047D01*
X143399000Y-59901953D01*
X143473674Y-60277365D01*
X143686328Y-60595625D01*
X144004588Y-60808279D01*
X144380000Y-60882953D01*
X144755412Y-60808279D01*
X145073672Y-60595625D01*
X145286326Y-60277365D01*
X145361000Y-59901953D01*
X145361000Y-58538047D01*
X145286326Y-58162635D01*
X145073672Y-57844375D01*
X144755412Y-57631721D01*
X144380000Y-57557047D01*
X144004588Y-57631721D01*
X143686328Y-57844375D01*
X143473674Y-58162635D01*
X143399000Y-58538047D01*
X142821000Y-58538047D01*
X142746326Y-58162635D01*
X142533672Y-57844375D01*
X142215412Y-57631721D01*
X141840000Y-57557047D01*
X141464588Y-57631721D01*
X141146328Y-57844375D01*
X140933674Y-58162635D01*
X140859000Y-58538047D01*
X140281000Y-58538047D01*
X140206326Y-58162635D01*
X139993672Y-57844375D01*
X139675412Y-57631721D01*
X139300000Y-57557047D01*
X138924588Y-57631721D01*
X138606328Y-57844375D01*
X138393674Y-58162635D01*
X138319000Y-58538047D01*
X133027000Y-58538047D01*
X133027000Y-54258047D01*
X137519000Y-54258047D01*
X137519000Y-55621953D01*
X137593674Y-55997365D01*
X137806328Y-56315625D01*
X138124588Y-56528279D01*
X138500000Y-56602953D01*
X138875412Y-56528279D01*
X139193672Y-56315625D01*
X139406326Y-55997365D01*
X139481000Y-55621953D01*
X139481000Y-54258047D01*
X139406326Y-53882635D01*
X139193672Y-53564375D01*
X138875412Y-53351721D01*
X138500000Y-53277047D01*
X138124588Y-53351721D01*
X137806328Y-53564375D01*
X137593674Y-53882635D01*
X137519000Y-54258047D01*
X133027000Y-54258047D01*
X133027000Y-47352606D01*
X133452606Y-46927000D01*
X141161806Y-46927000D01*
X141054643Y-47185077D01*
X141054643Y-47185077D01*
G37*
X141054643Y-47185077D02*
X141054357Y-47513482D01*
X141084689Y-47586891D01*
X140680790Y-47990790D01*
X140570669Y-48155597D01*
X140532000Y-48350000D01*
X140532000Y-53440313D01*
X140346328Y-53564375D01*
X140133674Y-53882635D01*
X140059000Y-54258047D01*
X140059000Y-55621953D01*
X140133674Y-55997365D01*
X140346328Y-56315625D01*
X140664588Y-56528279D01*
X141040000Y-56602953D01*
X141415412Y-56528279D01*
X141733672Y-56315625D01*
X141946326Y-55997365D01*
X142021000Y-55621953D01*
X142021000Y-54258047D01*
X141946326Y-53882635D01*
X141733672Y-53564375D01*
X141548000Y-53440313D01*
X141548000Y-48560420D01*
X141932874Y-48175547D01*
X142043482Y-48175643D01*
X142162000Y-48126672D01*
X142162000Y-49880000D01*
X142200669Y-50074403D01*
X142310790Y-50239210D01*
X143072000Y-51000420D01*
X143072000Y-53440313D01*
X142886328Y-53564375D01*
X142673674Y-53882635D01*
X142599000Y-54258047D01*
X142599000Y-55621953D01*
X142673674Y-55997365D01*
X142886328Y-56315625D01*
X143204588Y-56528279D01*
X143580000Y-56602953D01*
X143955412Y-56528279D01*
X144273672Y-56315625D01*
X144486326Y-55997365D01*
X144561000Y-55621953D01*
X144561000Y-54258047D01*
X145139000Y-54258047D01*
X145139000Y-55621953D01*
X145213674Y-55997365D01*
X145426328Y-56315625D01*
X145744588Y-56528279D01*
X146120000Y-56602953D01*
X146495412Y-56528279D01*
X146813672Y-56315625D01*
X147026326Y-55997365D01*
X147101000Y-55621953D01*
X147101000Y-54258047D01*
X147026326Y-53882635D01*
X146813672Y-53564375D01*
X146495412Y-53351721D01*
X146120000Y-53277047D01*
X145744588Y-53351721D01*
X145426328Y-53564375D01*
X145213674Y-53882635D01*
X145139000Y-54258047D01*
X144561000Y-54258047D01*
X144486326Y-53882635D01*
X144273672Y-53564375D01*
X144088000Y-53440313D01*
X144088000Y-50790000D01*
X144049331Y-50595597D01*
X144049331Y-50595596D01*
X143939210Y-50430790D01*
X143178000Y-49669580D01*
X143178000Y-48030420D01*
X143420420Y-47788000D01*
X144617464Y-47788000D01*
X144299935Y-48000166D01*
X144030140Y-48403943D01*
X143935400Y-48880231D01*
X143935400Y-49239769D01*
X144030140Y-49716057D01*
X144299935Y-50119834D01*
X144703712Y-50389629D01*
X145180000Y-50484369D01*
X145656288Y-50389629D01*
X146060065Y-50119834D01*
X146329860Y-49716057D01*
X146424600Y-49239769D01*
X146424600Y-48880231D01*
X146329860Y-48403943D01*
X146060065Y-48000166D01*
X145742536Y-47788000D01*
X147157464Y-47788000D01*
X146839935Y-48000166D01*
X146570140Y-48403943D01*
X146475400Y-48880231D01*
X146475400Y-49239769D01*
X146570140Y-49716057D01*
X146839935Y-50119834D01*
X147212000Y-50368440D01*
X147212000Y-57615129D01*
X146920000Y-57557047D01*
X146544588Y-57631721D01*
X146226328Y-57844375D01*
X146013674Y-58162635D01*
X145939000Y-58538047D01*
X145939000Y-59901953D01*
X146013674Y-60277365D01*
X146226328Y-60595625D01*
X146544588Y-60808279D01*
X146920000Y-60882953D01*
X147295412Y-60808279D01*
X147342210Y-60777010D01*
X147342210Y-61193855D01*
X146430580Y-62105485D01*
X146320459Y-62270292D01*
X146281790Y-62464695D01*
X146281790Y-71301122D01*
X146184643Y-71535077D01*
X146184357Y-71863482D01*
X146309767Y-72166998D01*
X146541781Y-72399417D01*
X146845077Y-72525357D01*
X147173482Y-72525643D01*
X147476998Y-72400233D01*
X147709417Y-72168219D01*
X147835357Y-71864923D01*
X147835643Y-71536518D01*
X147710233Y-71233002D01*
X147478219Y-71000583D01*
X147297790Y-70925662D01*
X147297790Y-65057010D01*
X147344588Y-65088279D01*
X147720000Y-65162953D01*
X148095412Y-65088279D01*
X148413672Y-64875625D01*
X148626326Y-64557365D01*
X148701000Y-64181953D01*
X148701000Y-62818047D01*
X149279000Y-62818047D01*
X149279000Y-64181953D01*
X149353674Y-64557365D01*
X149566328Y-64875625D01*
X149884588Y-65088279D01*
X150260000Y-65162953D01*
X150635412Y-65088279D01*
X150953672Y-64875625D01*
X151166326Y-64557365D01*
X151241000Y-64181953D01*
X151241000Y-62818047D01*
X151166326Y-62442635D01*
X150953672Y-62124375D01*
X150635412Y-61911721D01*
X150260000Y-61837047D01*
X149884588Y-61911721D01*
X149566328Y-62124375D01*
X149353674Y-62442635D01*
X149279000Y-62818047D01*
X148701000Y-62818047D01*
X148626326Y-62442635D01*
X148413672Y-62124375D01*
X148095412Y-61911721D01*
X148066863Y-61906042D01*
X148209420Y-61763485D01*
X148319541Y-61598679D01*
X148325956Y-61566425D01*
X148358210Y-61404275D01*
X148358210Y-58538047D01*
X148479000Y-58538047D01*
X148479000Y-59901953D01*
X148553674Y-60277365D01*
X148766328Y-60595625D01*
X149084588Y-60808279D01*
X149460000Y-60882953D01*
X149835412Y-60808279D01*
X150153672Y-60595625D01*
X150366326Y-60277365D01*
X150441000Y-59901953D01*
X150441000Y-58538047D01*
X150366326Y-58162635D01*
X150153672Y-57844375D01*
X149835412Y-57631721D01*
X149460000Y-57557047D01*
X149084588Y-57631721D01*
X148766328Y-57844375D01*
X148553674Y-58162635D01*
X148479000Y-58538047D01*
X148358210Y-58538047D01*
X148358210Y-58184695D01*
X148319541Y-57990292D01*
X148228000Y-57853292D01*
X148228000Y-56490468D01*
X148284588Y-56528279D01*
X148660000Y-56602953D01*
X149035412Y-56528279D01*
X149353672Y-56315625D01*
X149566326Y-55997365D01*
X149641000Y-55621953D01*
X149641000Y-54258047D01*
X150219000Y-54258047D01*
X150219000Y-55621953D01*
X150293674Y-55997365D01*
X150506328Y-56315625D01*
X150824588Y-56528279D01*
X151200000Y-56602953D01*
X151575412Y-56528279D01*
X151893672Y-56315625D01*
X152106326Y-55997365D01*
X152181000Y-55621953D01*
X152181000Y-54258047D01*
X152106326Y-53882635D01*
X151893672Y-53564375D01*
X151575412Y-53351721D01*
X151200000Y-53277047D01*
X150824588Y-53351721D01*
X150506328Y-53564375D01*
X150293674Y-53882635D01*
X150219000Y-54258047D01*
X149641000Y-54258047D01*
X149566326Y-53882635D01*
X149353672Y-53564375D01*
X149035412Y-53351721D01*
X148660000Y-53277047D01*
X148284588Y-53351721D01*
X148228000Y-53389532D01*
X148228000Y-50368440D01*
X148600065Y-50119834D01*
X148869860Y-49716057D01*
X148964600Y-49239769D01*
X148964600Y-48880231D01*
X148869860Y-48403943D01*
X148600065Y-48000166D01*
X148282536Y-47788000D01*
X149697464Y-47788000D01*
X149379935Y-48000166D01*
X149110140Y-48403943D01*
X149015400Y-48880231D01*
X149015400Y-49239769D01*
X149110140Y-49716057D01*
X149379935Y-50119834D01*
X149783712Y-50389629D01*
X150260000Y-50484369D01*
X150736288Y-50389629D01*
X151140065Y-50119834D01*
X151409860Y-49716057D01*
X151504600Y-49239769D01*
X151504600Y-48880231D01*
X151409860Y-48403943D01*
X151140065Y-48000166D01*
X150822536Y-47788000D01*
X152237464Y-47788000D01*
X151919935Y-48000166D01*
X151650140Y-48403943D01*
X151555400Y-48880231D01*
X151555400Y-49239769D01*
X151650140Y-49716057D01*
X151919935Y-50119834D01*
X152292000Y-50368440D01*
X152292000Y-57615129D01*
X152000000Y-57557047D01*
X151624588Y-57631721D01*
X151306328Y-57844375D01*
X151093674Y-58162635D01*
X151019000Y-58538047D01*
X151019000Y-59901953D01*
X151093674Y-60277365D01*
X151306328Y-60595625D01*
X151624588Y-60808279D01*
X152000000Y-60882953D01*
X152375412Y-60808279D01*
X152422210Y-60777010D01*
X152422210Y-61193855D01*
X151510580Y-62105485D01*
X151400459Y-62270292D01*
X151361790Y-62464695D01*
X151361790Y-69149790D01*
X149456987Y-71054593D01*
X149186518Y-71054357D01*
X148883002Y-71179767D01*
X148650583Y-71411781D01*
X148524643Y-71715077D01*
X148524357Y-72043482D01*
X148649767Y-72346998D01*
X148881781Y-72579417D01*
X149185077Y-72705357D01*
X149513482Y-72705643D01*
X149816998Y-72580233D01*
X150049417Y-72348219D01*
X150175357Y-72044923D01*
X150175594Y-71772826D01*
X151424938Y-70523482D01*
X157164357Y-70523482D01*
X157289767Y-70826998D01*
X157521781Y-71059417D01*
X157825077Y-71185357D01*
X158153482Y-71185643D01*
X158456998Y-71060233D01*
X158689417Y-70828219D01*
X158815357Y-70524923D01*
X158815594Y-70252826D01*
X160271420Y-68797000D01*
X166950000Y-68797000D01*
X166950000Y-69297000D01*
X167107834Y-69836483D01*
X167460104Y-70274500D01*
X167953181Y-70544367D01*
X168035961Y-70561904D01*
X168258000Y-70439915D01*
X168258000Y-68797000D01*
X166950000Y-68797000D01*
X160271420Y-68797000D01*
X161025420Y-68043000D01*
X166950000Y-68043000D01*
X166950000Y-68543000D01*
X168258000Y-68543000D01*
X168258000Y-66900085D01*
X168035961Y-66778096D01*
X167953181Y-66795633D01*
X167460104Y-67065500D01*
X167107834Y-67503517D01*
X166950000Y-68043000D01*
X161025420Y-68043000D01*
X162389000Y-66679420D01*
X162499121Y-66514613D01*
X162537790Y-66320210D01*
X162537790Y-65304187D01*
X162604719Y-65339592D01*
X162642391Y-65343462D01*
X162833000Y-65218731D01*
X162833000Y-63627000D01*
X163087000Y-63627000D01*
X163087000Y-65218731D01*
X163277609Y-65343462D01*
X163315281Y-65339592D01*
X163743474Y-65113080D01*
X164052390Y-64739947D01*
X164195000Y-64277000D01*
X164195000Y-63627000D01*
X164265000Y-63627000D01*
X164265000Y-64277000D01*
X164407610Y-64739947D01*
X164716526Y-65113080D01*
X165144719Y-65339592D01*
X165182391Y-65343462D01*
X165373000Y-65218731D01*
X165373000Y-63627000D01*
X165627000Y-63627000D01*
X165627000Y-65218731D01*
X165817609Y-65343462D01*
X165855281Y-65339592D01*
X166283474Y-65113080D01*
X166592390Y-64739947D01*
X166735000Y-64277000D01*
X166735000Y-63627000D01*
X165627000Y-63627000D01*
X165373000Y-63627000D01*
X164265000Y-63627000D01*
X164195000Y-63627000D01*
X163087000Y-63627000D01*
X162833000Y-63627000D01*
X162813000Y-63627000D01*
X162813000Y-63373000D01*
X162833000Y-63373000D01*
X162833000Y-63353000D01*
X163087000Y-63353000D01*
X163087000Y-63373000D01*
X164195000Y-63373000D01*
X164195000Y-62723000D01*
X164265000Y-62723000D01*
X164265000Y-63373000D01*
X165373000Y-63373000D01*
X165373000Y-61781269D01*
X165627000Y-61781269D01*
X165627000Y-63373000D01*
X166735000Y-63373000D01*
X166735000Y-62723000D01*
X166592390Y-62260053D01*
X166283474Y-61886920D01*
X165855281Y-61660408D01*
X165817609Y-61656538D01*
X165627000Y-61781269D01*
X165373000Y-61781269D01*
X165182391Y-61656538D01*
X165144719Y-61660408D01*
X164716526Y-61886920D01*
X164407610Y-62260053D01*
X164265000Y-62723000D01*
X164195000Y-62723000D01*
X164052390Y-62260053D01*
X163743474Y-61886920D01*
X163470426Y-61742479D01*
X164436810Y-60776095D01*
X164546931Y-60611288D01*
X164585600Y-60416885D01*
X164585600Y-50711000D01*
X165214250Y-50711000D01*
X165373000Y-50552250D01*
X165373000Y-49187000D01*
X165627000Y-49187000D01*
X165627000Y-50552250D01*
X165785750Y-50711000D01*
X166489910Y-50711000D01*
X166723299Y-50614327D01*
X166901927Y-50435698D01*
X166998600Y-50202309D01*
X166998600Y-49345750D01*
X166839850Y-49187000D01*
X165627000Y-49187000D01*
X165373000Y-49187000D01*
X165353000Y-49187000D01*
X165353000Y-48933000D01*
X165373000Y-48933000D01*
X165373000Y-47567750D01*
X165627000Y-47567750D01*
X165627000Y-48933000D01*
X166839850Y-48933000D01*
X166998600Y-48774250D01*
X166998600Y-47917691D01*
X166901927Y-47684302D01*
X166723299Y-47505673D01*
X166489910Y-47409000D01*
X165785750Y-47409000D01*
X165627000Y-47567750D01*
X165373000Y-47567750D01*
X165214250Y-47409000D01*
X164510090Y-47409000D01*
X164276701Y-47505673D01*
X164098073Y-47684302D01*
X164001400Y-47917691D01*
X164001400Y-48241621D01*
X163840065Y-48000166D01*
X163436288Y-47730371D01*
X162960000Y-47635631D01*
X162483712Y-47730371D01*
X162079935Y-48000166D01*
X161810140Y-48403943D01*
X161715400Y-48880231D01*
X161715400Y-49239769D01*
X161810140Y-49716057D01*
X162079935Y-50119834D01*
X162483712Y-50389629D01*
X162960000Y-50484369D01*
X163421709Y-50392529D01*
X163569600Y-50540420D01*
X163569600Y-60206465D01*
X161670580Y-62105485D01*
X161560459Y-62270292D01*
X161521790Y-62464695D01*
X161521790Y-66109790D01*
X158096987Y-69534593D01*
X157826518Y-69534357D01*
X157523002Y-69659767D01*
X157290583Y-69891781D01*
X157164643Y-70195077D01*
X157164357Y-70523482D01*
X151424938Y-70523482D01*
X152229000Y-69719420D01*
X152339121Y-69554614D01*
X152377790Y-69360210D01*
X152377790Y-65057010D01*
X152424588Y-65088279D01*
X152800000Y-65162953D01*
X153175412Y-65088279D01*
X153493672Y-64875625D01*
X153706326Y-64557365D01*
X153781000Y-64181953D01*
X153781000Y-62818047D01*
X154359000Y-62818047D01*
X154359000Y-64181953D01*
X154433674Y-64557365D01*
X154646328Y-64875625D01*
X154964588Y-65088279D01*
X155340000Y-65162953D01*
X155715412Y-65088279D01*
X156033672Y-64875625D01*
X156246326Y-64557365D01*
X156321000Y-64181953D01*
X156321000Y-62818047D01*
X156899000Y-62818047D01*
X156899000Y-64181953D01*
X156973674Y-64557365D01*
X157186328Y-64875625D01*
X157504588Y-65088279D01*
X157880000Y-65162953D01*
X158255412Y-65088279D01*
X158573672Y-64875625D01*
X158786326Y-64557365D01*
X158861000Y-64181953D01*
X158861000Y-62818047D01*
X159439000Y-62818047D01*
X159439000Y-64181953D01*
X159513674Y-64557365D01*
X159726328Y-64875625D01*
X160044588Y-65088279D01*
X160420000Y-65162953D01*
X160795412Y-65088279D01*
X161113672Y-64875625D01*
X161326326Y-64557365D01*
X161401000Y-64181953D01*
X161401000Y-62818047D01*
X161326326Y-62442635D01*
X161113672Y-62124375D01*
X160795412Y-61911721D01*
X160420000Y-61837047D01*
X160044588Y-61911721D01*
X159726328Y-62124375D01*
X159513674Y-62442635D01*
X159439000Y-62818047D01*
X158861000Y-62818047D01*
X158786326Y-62442635D01*
X158573672Y-62124375D01*
X158255412Y-61911721D01*
X157880000Y-61837047D01*
X157504588Y-61911721D01*
X157186328Y-62124375D01*
X156973674Y-62442635D01*
X156899000Y-62818047D01*
X156321000Y-62818047D01*
X156246326Y-62442635D01*
X156033672Y-62124375D01*
X155715412Y-61911721D01*
X155340000Y-61837047D01*
X154964588Y-61911721D01*
X154646328Y-62124375D01*
X154433674Y-62442635D01*
X154359000Y-62818047D01*
X153781000Y-62818047D01*
X153706326Y-62442635D01*
X153493672Y-62124375D01*
X153175412Y-61911721D01*
X153146863Y-61906042D01*
X153289420Y-61763485D01*
X153399541Y-61598679D01*
X153405956Y-61566425D01*
X153438210Y-61404275D01*
X153438210Y-58538047D01*
X153559000Y-58538047D01*
X153559000Y-59901953D01*
X153633674Y-60277365D01*
X153846328Y-60595625D01*
X154164588Y-60808279D01*
X154540000Y-60882953D01*
X154915412Y-60808279D01*
X155233672Y-60595625D01*
X155446326Y-60277365D01*
X155521000Y-59901953D01*
X155521000Y-58538047D01*
X156099000Y-58538047D01*
X156099000Y-59901953D01*
X156173674Y-60277365D01*
X156386328Y-60595625D01*
X156704588Y-60808279D01*
X157080000Y-60882953D01*
X157455412Y-60808279D01*
X157773672Y-60595625D01*
X157986326Y-60277365D01*
X158061000Y-59901953D01*
X158061000Y-58538047D01*
X158639000Y-58538047D01*
X158639000Y-59901953D01*
X158713674Y-60277365D01*
X158926328Y-60595625D01*
X159244588Y-60808279D01*
X159620000Y-60882953D01*
X159995412Y-60808279D01*
X160313672Y-60595625D01*
X160526326Y-60277365D01*
X160601000Y-59901953D01*
X160601000Y-58538047D01*
X161179000Y-58538047D01*
X161179000Y-59901953D01*
X161253674Y-60277365D01*
X161466328Y-60595625D01*
X161784588Y-60808279D01*
X162160000Y-60882953D01*
X162535412Y-60808279D01*
X162853672Y-60595625D01*
X163066326Y-60277365D01*
X163141000Y-59901953D01*
X163141000Y-58538047D01*
X163066326Y-58162635D01*
X162853672Y-57844375D01*
X162535412Y-57631721D01*
X162160000Y-57557047D01*
X161784588Y-57631721D01*
X161466328Y-57844375D01*
X161253674Y-58162635D01*
X161179000Y-58538047D01*
X160601000Y-58538047D01*
X160526326Y-58162635D01*
X160313672Y-57844375D01*
X159995412Y-57631721D01*
X159620000Y-57557047D01*
X159244588Y-57631721D01*
X158926328Y-57844375D01*
X158713674Y-58162635D01*
X158639000Y-58538047D01*
X158061000Y-58538047D01*
X157986326Y-58162635D01*
X157773672Y-57844375D01*
X157455412Y-57631721D01*
X157080000Y-57557047D01*
X156704588Y-57631721D01*
X156386328Y-57844375D01*
X156173674Y-58162635D01*
X156099000Y-58538047D01*
X155521000Y-58538047D01*
X155446326Y-58162635D01*
X155233672Y-57844375D01*
X154915412Y-57631721D01*
X154540000Y-57557047D01*
X154164588Y-57631721D01*
X153846328Y-57844375D01*
X153633674Y-58162635D01*
X153559000Y-58538047D01*
X153438210Y-58538047D01*
X153438210Y-58184695D01*
X153399541Y-57990292D01*
X153308000Y-57853292D01*
X153308000Y-56490468D01*
X153364588Y-56528279D01*
X153740000Y-56602953D01*
X154115412Y-56528279D01*
X154433672Y-56315625D01*
X154646326Y-55997365D01*
X154721000Y-55621953D01*
X154721000Y-54258047D01*
X155299000Y-54258047D01*
X155299000Y-55621953D01*
X155373674Y-55997365D01*
X155586328Y-56315625D01*
X155904588Y-56528279D01*
X156280000Y-56602953D01*
X156655412Y-56528279D01*
X156973672Y-56315625D01*
X157186326Y-55997365D01*
X157261000Y-55621953D01*
X157261000Y-54258047D01*
X157839000Y-54258047D01*
X157839000Y-55621953D01*
X157913674Y-55997365D01*
X158126328Y-56315625D01*
X158444588Y-56528279D01*
X158820000Y-56602953D01*
X159195412Y-56528279D01*
X159513672Y-56315625D01*
X159726326Y-55997365D01*
X159801000Y-55621953D01*
X159801000Y-54258047D01*
X160379000Y-54258047D01*
X160379000Y-55621953D01*
X160453674Y-55997365D01*
X160666328Y-56315625D01*
X160984588Y-56528279D01*
X161360000Y-56602953D01*
X161735412Y-56528279D01*
X162053672Y-56315625D01*
X162266326Y-55997365D01*
X162341000Y-55621953D01*
X162341000Y-54258047D01*
X162266326Y-53882635D01*
X162053672Y-53564375D01*
X161735412Y-53351721D01*
X161360000Y-53277047D01*
X160984588Y-53351721D01*
X160666328Y-53564375D01*
X160453674Y-53882635D01*
X160379000Y-54258047D01*
X159801000Y-54258047D01*
X159726326Y-53882635D01*
X159513672Y-53564375D01*
X159195412Y-53351721D01*
X158820000Y-53277047D01*
X158444588Y-53351721D01*
X158126328Y-53564375D01*
X157913674Y-53882635D01*
X157839000Y-54258047D01*
X157261000Y-54258047D01*
X157186326Y-53882635D01*
X156973672Y-53564375D01*
X156655412Y-53351721D01*
X156280000Y-53277047D01*
X155904588Y-53351721D01*
X155586328Y-53564375D01*
X155373674Y-53882635D01*
X155299000Y-54258047D01*
X154721000Y-54258047D01*
X154646326Y-53882635D01*
X154433672Y-53564375D01*
X154115412Y-53351721D01*
X153740000Y-53277047D01*
X153364588Y-53351721D01*
X153308000Y-53389532D01*
X153308000Y-50368440D01*
X153680065Y-50119834D01*
X153949860Y-49716057D01*
X154044600Y-49239769D01*
X154044600Y-48880231D01*
X153949860Y-48403943D01*
X153680065Y-48000166D01*
X153362536Y-47788000D01*
X154777464Y-47788000D01*
X154459935Y-48000166D01*
X154190140Y-48403943D01*
X154095400Y-48880231D01*
X154095400Y-49239769D01*
X154190140Y-49716057D01*
X154459935Y-50119834D01*
X154863712Y-50389629D01*
X155340000Y-50484369D01*
X155816288Y-50389629D01*
X156220065Y-50119834D01*
X156489860Y-49716057D01*
X156584600Y-49239769D01*
X156584600Y-48880231D01*
X156489860Y-48403943D01*
X156220065Y-48000166D01*
X155902536Y-47788000D01*
X157317464Y-47788000D01*
X156999935Y-48000166D01*
X156730140Y-48403943D01*
X156635400Y-48880231D01*
X156635400Y-49239769D01*
X156730140Y-49716057D01*
X156999935Y-50119834D01*
X157403712Y-50389629D01*
X157880000Y-50484369D01*
X158356288Y-50389629D01*
X158760065Y-50119834D01*
X159029860Y-49716057D01*
X159124600Y-49239769D01*
X159124600Y-48880231D01*
X159029860Y-48403943D01*
X158760065Y-48000166D01*
X158442536Y-47788000D01*
X159699580Y-47788000D01*
X159762819Y-47851239D01*
X159539935Y-48000166D01*
X159270140Y-48403943D01*
X159175400Y-48880231D01*
X159175400Y-49239769D01*
X159270140Y-49716057D01*
X159539935Y-50119834D01*
X159943712Y-50389629D01*
X160420000Y-50484369D01*
X160896288Y-50389629D01*
X161300065Y-50119834D01*
X161569860Y-49716057D01*
X161664600Y-49239769D01*
X161664600Y-48880231D01*
X161569860Y-48403943D01*
X161300065Y-48000166D01*
X160919182Y-47745668D01*
X160889331Y-47595597D01*
X160779210Y-47430790D01*
X160275420Y-46927000D01*
X169347394Y-46927000D01*
X169773000Y-47352606D01*
X169773000Y-48558761D01*
X167564000Y-48558761D01*
X167564000Y-64661239D01*
X169773000Y-64661239D01*
X169773000Y-67882352D01*
X169662166Y-67503517D01*
X169309896Y-67065500D01*
X168816819Y-66795633D01*
X168734039Y-66778096D01*
X168512000Y-66900085D01*
X168512000Y-68543000D01*
X168532000Y-68543000D01*
X168532000Y-68797000D01*
X168512000Y-68797000D01*
X168512000Y-70439915D01*
X168734039Y-70561904D01*
X168816819Y-70544367D01*
X169309896Y-70274500D01*
X169662166Y-69836483D01*
X169773000Y-69457648D01*
X169773000Y-94747394D01*
X169347394Y-95173000D01*
X133452606Y-95173000D01*
X133027000Y-94747394D01*
X133027000Y-92060231D01*
X151555400Y-92060231D01*
X151555400Y-92419769D01*
X151650140Y-92896057D01*
X151919935Y-93299834D01*
X152323712Y-93569629D01*
X152800000Y-93664369D01*
X153276288Y-93569629D01*
X153680065Y-93299834D01*
X153949860Y-92896057D01*
X154044600Y-92419769D01*
X154044600Y-92060231D01*
X154095400Y-92060231D01*
X154095400Y-92419769D01*
X154190140Y-92896057D01*
X154459935Y-93299834D01*
X154863712Y-93569629D01*
X155340000Y-93664369D01*
X155816288Y-93569629D01*
X156220065Y-93299834D01*
X156489860Y-92896057D01*
X156584600Y-92419769D01*
X156584600Y-92060231D01*
X156489860Y-91583943D01*
X156220065Y-91180166D01*
X155816288Y-90910371D01*
X155340000Y-90815631D01*
X154863712Y-90910371D01*
X154459935Y-91180166D01*
X154190140Y-91583943D01*
X154095400Y-92060231D01*
X154044600Y-92060231D01*
X153949860Y-91583943D01*
X153680065Y-91180166D01*
X153276288Y-90910371D01*
X152800000Y-90815631D01*
X152323712Y-90910371D01*
X151919935Y-91180166D01*
X151650140Y-91583943D01*
X151555400Y-92060231D01*
X133027000Y-92060231D01*
X133027000Y-87138047D01*
X137519000Y-87138047D01*
X137519000Y-88501953D01*
X137593674Y-88877365D01*
X137806328Y-89195625D01*
X138124588Y-89408279D01*
X138500000Y-89482953D01*
X138875412Y-89408279D01*
X139193672Y-89195625D01*
X139406326Y-88877365D01*
X139481000Y-88501953D01*
X139481000Y-87138047D01*
X140059000Y-87138047D01*
X140059000Y-88501953D01*
X140133674Y-88877365D01*
X140346328Y-89195625D01*
X140664588Y-89408279D01*
X141040000Y-89482953D01*
X141415412Y-89408279D01*
X141733672Y-89195625D01*
X141946326Y-88877365D01*
X142021000Y-88501953D01*
X142021000Y-87138047D01*
X142599000Y-87138047D01*
X142599000Y-88501953D01*
X142673674Y-88877365D01*
X142886328Y-89195625D01*
X143204588Y-89408279D01*
X143580000Y-89482953D01*
X143955412Y-89408279D01*
X144273672Y-89195625D01*
X144486326Y-88877365D01*
X144561000Y-88501953D01*
X144561000Y-87138047D01*
X145139000Y-87138047D01*
X145139000Y-88501953D01*
X145213674Y-88877365D01*
X145426328Y-89195625D01*
X145744588Y-89408279D01*
X146120000Y-89482953D01*
X146495412Y-89408279D01*
X146813672Y-89195625D01*
X147026326Y-88877365D01*
X147101000Y-88501953D01*
X147101000Y-87138047D01*
X147679000Y-87138047D01*
X147679000Y-88501953D01*
X147753674Y-88877365D01*
X147966328Y-89195625D01*
X148284588Y-89408279D01*
X148660000Y-89482953D01*
X149035412Y-89408279D01*
X149353672Y-89195625D01*
X149566326Y-88877365D01*
X149641000Y-88501953D01*
X149641000Y-87138047D01*
X150219000Y-87138047D01*
X150219000Y-88501953D01*
X150293674Y-88877365D01*
X150506328Y-89195625D01*
X150824588Y-89408279D01*
X151200000Y-89482953D01*
X151575412Y-89408279D01*
X151893672Y-89195625D01*
X152106326Y-88877365D01*
X152181000Y-88501953D01*
X152181000Y-87138047D01*
X152759000Y-87138047D01*
X152759000Y-88501953D01*
X152833674Y-88877365D01*
X153046328Y-89195625D01*
X153364588Y-89408279D01*
X153740000Y-89482953D01*
X154115412Y-89408279D01*
X154433672Y-89195625D01*
X154646326Y-88877365D01*
X154721000Y-88501953D01*
X154721000Y-87138047D01*
X155299000Y-87138047D01*
X155299000Y-88501953D01*
X155373674Y-88877365D01*
X155586328Y-89195625D01*
X155904588Y-89408279D01*
X156280000Y-89482953D01*
X156655412Y-89408279D01*
X156973672Y-89195625D01*
X157186326Y-88877365D01*
X157261000Y-88501953D01*
X157261000Y-87138047D01*
X157186326Y-86762635D01*
X156973672Y-86444375D01*
X156655412Y-86231721D01*
X156280000Y-86157047D01*
X155904588Y-86231721D01*
X155586328Y-86444375D01*
X155373674Y-86762635D01*
X155299000Y-87138047D01*
X154721000Y-87138047D01*
X154646326Y-86762635D01*
X154433672Y-86444375D01*
X154115412Y-86231721D01*
X153740000Y-86157047D01*
X153364588Y-86231721D01*
X153046328Y-86444375D01*
X152833674Y-86762635D01*
X152759000Y-87138047D01*
X152181000Y-87138047D01*
X152106326Y-86762635D01*
X151893672Y-86444375D01*
X151575412Y-86231721D01*
X151200000Y-86157047D01*
X150824588Y-86231721D01*
X150506328Y-86444375D01*
X150293674Y-86762635D01*
X150219000Y-87138047D01*
X149641000Y-87138047D01*
X149566326Y-86762635D01*
X149353672Y-86444375D01*
X149035412Y-86231721D01*
X148660000Y-86157047D01*
X148284588Y-86231721D01*
X147966328Y-86444375D01*
X147753674Y-86762635D01*
X147679000Y-87138047D01*
X147101000Y-87138047D01*
X147026326Y-86762635D01*
X146813672Y-86444375D01*
X146495412Y-86231721D01*
X146120000Y-86157047D01*
X145744588Y-86231721D01*
X145426328Y-86444375D01*
X145213674Y-86762635D01*
X145139000Y-87138047D01*
X144561000Y-87138047D01*
X144486326Y-86762635D01*
X144273672Y-86444375D01*
X143955412Y-86231721D01*
X143580000Y-86157047D01*
X143204588Y-86231721D01*
X142886328Y-86444375D01*
X142673674Y-86762635D01*
X142599000Y-87138047D01*
X142021000Y-87138047D01*
X141946326Y-86762635D01*
X141733672Y-86444375D01*
X141415412Y-86231721D01*
X141040000Y-86157047D01*
X140664588Y-86231721D01*
X140346328Y-86444375D01*
X140133674Y-86762635D01*
X140059000Y-87138047D01*
X139481000Y-87138047D01*
X139406326Y-86762635D01*
X139193672Y-86444375D01*
X138875412Y-86231721D01*
X138500000Y-86157047D01*
X138124588Y-86231721D01*
X137806328Y-86444375D01*
X137593674Y-86762635D01*
X137519000Y-87138047D01*
X133027000Y-87138047D01*
X133027000Y-82998047D01*
X138319000Y-82998047D01*
X138319000Y-84361953D01*
X138393674Y-84737365D01*
X138606328Y-85055625D01*
X138924588Y-85268279D01*
X139300000Y-85342953D01*
X139675412Y-85268279D01*
X139993672Y-85055625D01*
X140206326Y-84737365D01*
X140281000Y-84361953D01*
X140281000Y-82998047D01*
X140859000Y-82998047D01*
X140859000Y-84361953D01*
X140933674Y-84737365D01*
X141146328Y-85055625D01*
X141464588Y-85268279D01*
X141840000Y-85342953D01*
X142215412Y-85268279D01*
X142533672Y-85055625D01*
X142746326Y-84737365D01*
X142821000Y-84361953D01*
X142821000Y-82998047D01*
X143399000Y-82998047D01*
X143399000Y-84361953D01*
X143473674Y-84737365D01*
X143686328Y-85055625D01*
X144004588Y-85268279D01*
X144380000Y-85342953D01*
X144755412Y-85268279D01*
X145073672Y-85055625D01*
X145286326Y-84737365D01*
X145361000Y-84361953D01*
X145361000Y-82998047D01*
X145939000Y-82998047D01*
X145939000Y-84361953D01*
X146013674Y-84737365D01*
X146226328Y-85055625D01*
X146544588Y-85268279D01*
X146920000Y-85342953D01*
X147295412Y-85268279D01*
X147613672Y-85055625D01*
X147826326Y-84737365D01*
X147901000Y-84361953D01*
X147901000Y-82998047D01*
X148479000Y-82998047D01*
X148479000Y-84361953D01*
X148553674Y-84737365D01*
X148766328Y-85055625D01*
X149084588Y-85268279D01*
X149460000Y-85342953D01*
X149835412Y-85268279D01*
X150153672Y-85055625D01*
X150366326Y-84737365D01*
X150441000Y-84361953D01*
X150441000Y-82998047D01*
X151019000Y-82998047D01*
X151019000Y-84361953D01*
X151093674Y-84737365D01*
X151306328Y-85055625D01*
X151624588Y-85268279D01*
X152000000Y-85342953D01*
X152375412Y-85268279D01*
X152693672Y-85055625D01*
X152906326Y-84737365D01*
X152981000Y-84361953D01*
X152981000Y-82998047D01*
X153559000Y-82998047D01*
X153559000Y-84361953D01*
X153633674Y-84737365D01*
X153846328Y-85055625D01*
X154164588Y-85268279D01*
X154540000Y-85342953D01*
X154915412Y-85268279D01*
X155233672Y-85055625D01*
X155446326Y-84737365D01*
X155521000Y-84361953D01*
X155521000Y-82998047D01*
X156099000Y-82998047D01*
X156099000Y-84361953D01*
X156173674Y-84737365D01*
X156386328Y-85055625D01*
X156704588Y-85268279D01*
X157080000Y-85342953D01*
X157372000Y-85284871D01*
X157372000Y-90931560D01*
X156999935Y-91180166D01*
X156730140Y-91583943D01*
X156635400Y-92060231D01*
X156635400Y-92419769D01*
X156730140Y-92896057D01*
X156999935Y-93299834D01*
X157403712Y-93569629D01*
X157880000Y-93664369D01*
X158356288Y-93569629D01*
X158760065Y-93299834D01*
X159029860Y-92896057D01*
X159124600Y-92419769D01*
X159124600Y-92060231D01*
X159029860Y-91583943D01*
X158760065Y-91180166D01*
X158388000Y-90931560D01*
X158388000Y-89370468D01*
X158444588Y-89408279D01*
X158820000Y-89482953D01*
X159195412Y-89408279D01*
X159513672Y-89195625D01*
X159726326Y-88877365D01*
X159801000Y-88501953D01*
X159801000Y-87138047D01*
X159726326Y-86762635D01*
X159513672Y-86444375D01*
X159195412Y-86231721D01*
X158820000Y-86157047D01*
X158444588Y-86231721D01*
X158388000Y-86269532D01*
X158388000Y-85046708D01*
X158479541Y-84909708D01*
X158518210Y-84715305D01*
X158518210Y-82998047D01*
X158639000Y-82998047D01*
X158639000Y-84361953D01*
X158713674Y-84737365D01*
X158926328Y-85055625D01*
X159244588Y-85268279D01*
X159620000Y-85342953D01*
X159995412Y-85268279D01*
X160042210Y-85237010D01*
X160042210Y-86463082D01*
X159950669Y-86600082D01*
X159912000Y-86794485D01*
X159912000Y-90931560D01*
X159539935Y-91180166D01*
X159270140Y-91583943D01*
X159175400Y-92060231D01*
X159175400Y-92419769D01*
X159270140Y-92896057D01*
X159539935Y-93299834D01*
X159943712Y-93569629D01*
X160420000Y-93664369D01*
X160896288Y-93569629D01*
X161300065Y-93299834D01*
X161569860Y-92896057D01*
X161664600Y-92419769D01*
X161664600Y-92060231D01*
X161569860Y-91583943D01*
X161300065Y-91180166D01*
X160928000Y-90931560D01*
X160928000Y-89370468D01*
X160984588Y-89408279D01*
X161360000Y-89482953D01*
X161735412Y-89408279D01*
X162053672Y-89195625D01*
X162266326Y-88877365D01*
X162341000Y-88501953D01*
X162341000Y-87138047D01*
X162266326Y-86762635D01*
X162053672Y-86444375D01*
X161735412Y-86231721D01*
X161360000Y-86157047D01*
X161058210Y-86217077D01*
X161058210Y-82998047D01*
X161179000Y-82998047D01*
X161179000Y-84361953D01*
X161253674Y-84737365D01*
X161466328Y-85055625D01*
X161784588Y-85268279D01*
X162160000Y-85342953D01*
X162535412Y-85268279D01*
X162853672Y-85055625D01*
X163066326Y-84737365D01*
X163141000Y-84361953D01*
X163141000Y-82998047D01*
X163066326Y-82622635D01*
X162853672Y-82304375D01*
X162535412Y-82091721D01*
X162160000Y-82017047D01*
X161784588Y-82091721D01*
X161466328Y-82304375D01*
X161253674Y-82622635D01*
X161179000Y-82998047D01*
X161058210Y-82998047D01*
X161058210Y-81174210D01*
X161019541Y-80979807D01*
X161018947Y-80978918D01*
X161113672Y-80915625D01*
X161326326Y-80597365D01*
X161401000Y-80221953D01*
X161401000Y-79667000D01*
X161725000Y-79667000D01*
X161725000Y-80317000D01*
X161867610Y-80779947D01*
X162176526Y-81153080D01*
X162604719Y-81379592D01*
X162642391Y-81383462D01*
X162833000Y-81258731D01*
X162833000Y-79667000D01*
X161725000Y-79667000D01*
X161401000Y-79667000D01*
X161401000Y-78858047D01*
X161326326Y-78482635D01*
X161113672Y-78164375D01*
X160795412Y-77951721D01*
X160420000Y-77877047D01*
X160044588Y-77951721D01*
X159726328Y-78164375D01*
X159513674Y-78482635D01*
X159439000Y-78858047D01*
X159439000Y-80221953D01*
X159513674Y-80597365D01*
X159726328Y-80915625D01*
X159912000Y-81039687D01*
X159912000Y-81044000D01*
X159950669Y-81238403D01*
X160042210Y-81375403D01*
X160042210Y-82122990D01*
X159995412Y-82091721D01*
X159620000Y-82017047D01*
X159244588Y-82091721D01*
X158926328Y-82304375D01*
X158713674Y-82622635D01*
X158639000Y-82998047D01*
X158518210Y-82998047D01*
X158518210Y-81585725D01*
X159169420Y-80934515D01*
X159279541Y-80769708D01*
X159318210Y-80575305D01*
X159318210Y-72220210D01*
X159843013Y-71695407D01*
X160113482Y-71695643D01*
X160416998Y-71570233D01*
X160649417Y-71338219D01*
X160740751Y-71118263D01*
X160772000Y-71149567D01*
X160772000Y-75894485D01*
X160810669Y-76088888D01*
X160920790Y-76253695D01*
X162449574Y-77782479D01*
X162176526Y-77926920D01*
X161867610Y-78300053D01*
X161725000Y-78763000D01*
X161725000Y-79413000D01*
X162833000Y-79413000D01*
X162833000Y-79393000D01*
X163087000Y-79393000D01*
X163087000Y-79413000D01*
X163107000Y-79413000D01*
X163107000Y-79667000D01*
X163087000Y-79667000D01*
X163087000Y-81258731D01*
X163277609Y-81383462D01*
X163315281Y-81379592D01*
X163382210Y-81344187D01*
X163382210Y-89829370D01*
X162600790Y-90610790D01*
X162490669Y-90775597D01*
X162460818Y-90925668D01*
X162079935Y-91180166D01*
X161810140Y-91583943D01*
X161715400Y-92060231D01*
X161715400Y-92419769D01*
X161810140Y-92896057D01*
X162079935Y-93299834D01*
X162483712Y-93569629D01*
X162960000Y-93664369D01*
X163436288Y-93569629D01*
X163840065Y-93299834D01*
X164001400Y-93058379D01*
X164001400Y-93382309D01*
X164098073Y-93615698D01*
X164276701Y-93794327D01*
X164510090Y-93891000D01*
X165214250Y-93891000D01*
X165373000Y-93732250D01*
X165373000Y-92367000D01*
X165627000Y-92367000D01*
X165627000Y-93732250D01*
X165785750Y-93891000D01*
X166489910Y-93891000D01*
X166723299Y-93794327D01*
X166901927Y-93615698D01*
X166998600Y-93382309D01*
X166998600Y-92525750D01*
X166839850Y-92367000D01*
X165627000Y-92367000D01*
X165373000Y-92367000D01*
X165353000Y-92367000D01*
X165353000Y-92113000D01*
X165373000Y-92113000D01*
X165373000Y-90747750D01*
X165627000Y-90747750D01*
X165627000Y-92113000D01*
X166839850Y-92113000D01*
X166998600Y-91954250D01*
X166998600Y-91097691D01*
X166901927Y-90864302D01*
X166723299Y-90685673D01*
X166489910Y-90589000D01*
X165785750Y-90589000D01*
X165627000Y-90747750D01*
X165373000Y-90747750D01*
X165214250Y-90589000D01*
X164510090Y-90589000D01*
X164276701Y-90685673D01*
X164098073Y-90864302D01*
X164001400Y-91097691D01*
X164001400Y-91421621D01*
X163840065Y-91180166D01*
X163617181Y-91031239D01*
X164249420Y-90399000D01*
X164359541Y-90234194D01*
X164365956Y-90201940D01*
X164398210Y-90039790D01*
X164398210Y-78858047D01*
X164519000Y-78858047D01*
X164519000Y-80221953D01*
X164593674Y-80597365D01*
X164806328Y-80915625D01*
X165124588Y-81128279D01*
X165500000Y-81202953D01*
X165875412Y-81128279D01*
X166193672Y-80915625D01*
X166406326Y-80597365D01*
X166481000Y-80221953D01*
X166481000Y-78858047D01*
X166406326Y-78482635D01*
X166193672Y-78164375D01*
X165875412Y-77951721D01*
X165500000Y-77877047D01*
X165124588Y-77951721D01*
X164806328Y-78164375D01*
X164593674Y-78482635D01*
X164519000Y-78858047D01*
X164398210Y-78858047D01*
X164398210Y-78504695D01*
X164359541Y-78310292D01*
X164359541Y-78310291D01*
X164249420Y-78145484D01*
X161788000Y-75684065D01*
X161788000Y-72587067D01*
X163379000Y-72587067D01*
X163379000Y-73652933D01*
X163468898Y-74104882D01*
X163724907Y-74488026D01*
X164108051Y-74744035D01*
X164560000Y-74833933D01*
X165011949Y-74744035D01*
X165395093Y-74488026D01*
X165651102Y-74104882D01*
X165741000Y-73652933D01*
X165741000Y-73342945D01*
X167204000Y-73342945D01*
X167204000Y-73797055D01*
X167293898Y-74249004D01*
X167549907Y-74632148D01*
X167933051Y-74888157D01*
X168385000Y-74978055D01*
X168836949Y-74888157D01*
X169220093Y-74632148D01*
X169476102Y-74249004D01*
X169566000Y-73797055D01*
X169566000Y-73342945D01*
X169476102Y-72890996D01*
X169220093Y-72507852D01*
X168836949Y-72251843D01*
X168385000Y-72161945D01*
X167933051Y-72251843D01*
X167549907Y-72507852D01*
X167293898Y-72890996D01*
X167204000Y-73342945D01*
X165741000Y-73342945D01*
X165741000Y-72587067D01*
X165651102Y-72135118D01*
X165395093Y-71751974D01*
X165011949Y-71495965D01*
X164560000Y-71406067D01*
X164108051Y-71495965D01*
X163724907Y-71751974D01*
X163468898Y-72135118D01*
X163379000Y-72587067D01*
X161788000Y-72587067D01*
X161788000Y-71149302D01*
X161979417Y-70958219D01*
X162105357Y-70654923D01*
X162105643Y-70326518D01*
X161980233Y-70023002D01*
X161748219Y-69790583D01*
X161444923Y-69664643D01*
X161116518Y-69664357D01*
X160813002Y-69789767D01*
X160580583Y-70021781D01*
X160489249Y-70241737D01*
X160418219Y-70170583D01*
X160114923Y-70044643D01*
X159786518Y-70044357D01*
X159483002Y-70169767D01*
X159250583Y-70401781D01*
X159124643Y-70705077D01*
X159124406Y-70977173D01*
X158451000Y-71650580D01*
X158340879Y-71815387D01*
X158302210Y-72009790D01*
X158302210Y-77982990D01*
X158255412Y-77951721D01*
X157880000Y-77877047D01*
X157504588Y-77951721D01*
X157186328Y-78164375D01*
X156973674Y-78482635D01*
X156899000Y-78858047D01*
X156899000Y-80221953D01*
X156973674Y-80597365D01*
X157186328Y-80915625D01*
X157504588Y-81128279D01*
X157567658Y-81140824D01*
X157540879Y-81180902D01*
X157502210Y-81375305D01*
X157502210Y-82122990D01*
X157455412Y-82091721D01*
X157080000Y-82017047D01*
X156704588Y-82091721D01*
X156386328Y-82304375D01*
X156173674Y-82622635D01*
X156099000Y-82998047D01*
X155521000Y-82998047D01*
X155446326Y-82622635D01*
X155233672Y-82304375D01*
X154915412Y-82091721D01*
X154540000Y-82017047D01*
X154164588Y-82091721D01*
X153846328Y-82304375D01*
X153633674Y-82622635D01*
X153559000Y-82998047D01*
X152981000Y-82998047D01*
X152906326Y-82622635D01*
X152693672Y-82304375D01*
X152375412Y-82091721D01*
X152000000Y-82017047D01*
X151624588Y-82091721D01*
X151306328Y-82304375D01*
X151093674Y-82622635D01*
X151019000Y-82998047D01*
X150441000Y-82998047D01*
X150366326Y-82622635D01*
X150153672Y-82304375D01*
X149835412Y-82091721D01*
X149460000Y-82017047D01*
X149084588Y-82091721D01*
X148766328Y-82304375D01*
X148553674Y-82622635D01*
X148479000Y-82998047D01*
X147901000Y-82998047D01*
X147826326Y-82622635D01*
X147613672Y-82304375D01*
X147295412Y-82091721D01*
X146920000Y-82017047D01*
X146544588Y-82091721D01*
X146226328Y-82304375D01*
X146013674Y-82622635D01*
X145939000Y-82998047D01*
X145361000Y-82998047D01*
X145286326Y-82622635D01*
X145073672Y-82304375D01*
X144755412Y-82091721D01*
X144380000Y-82017047D01*
X144004588Y-82091721D01*
X143686328Y-82304375D01*
X143473674Y-82622635D01*
X143399000Y-82998047D01*
X142821000Y-82998047D01*
X142746326Y-82622635D01*
X142533672Y-82304375D01*
X142215412Y-82091721D01*
X141840000Y-82017047D01*
X141464588Y-82091721D01*
X141146328Y-82304375D01*
X140933674Y-82622635D01*
X140859000Y-82998047D01*
X140281000Y-82998047D01*
X140206326Y-82622635D01*
X139993672Y-82304375D01*
X139675412Y-82091721D01*
X139300000Y-82017047D01*
X138924588Y-82091721D01*
X138606328Y-82304375D01*
X138393674Y-82622635D01*
X138319000Y-82998047D01*
X133027000Y-82998047D01*
X133027000Y-78858047D01*
X139119000Y-78858047D01*
X139119000Y-80221953D01*
X139193674Y-80597365D01*
X139406328Y-80915625D01*
X139724588Y-81128279D01*
X140100000Y-81202953D01*
X140475412Y-81128279D01*
X140793672Y-80915625D01*
X141006326Y-80597365D01*
X141081000Y-80221953D01*
X141081000Y-78858047D01*
X141659000Y-78858047D01*
X141659000Y-80221953D01*
X141733674Y-80597365D01*
X141946328Y-80915625D01*
X142264588Y-81128279D01*
X142640000Y-81202953D01*
X143015412Y-81128279D01*
X143333672Y-80915625D01*
X143546326Y-80597365D01*
X143621000Y-80221953D01*
X143621000Y-78858047D01*
X144199000Y-78858047D01*
X144199000Y-80221953D01*
X144273674Y-80597365D01*
X144486328Y-80915625D01*
X144804588Y-81128279D01*
X145180000Y-81202953D01*
X145555412Y-81128279D01*
X145873672Y-80915625D01*
X146086326Y-80597365D01*
X146161000Y-80221953D01*
X146161000Y-78858047D01*
X146739000Y-78858047D01*
X146739000Y-80221953D01*
X146813674Y-80597365D01*
X147026328Y-80915625D01*
X147344588Y-81128279D01*
X147720000Y-81202953D01*
X148095412Y-81128279D01*
X148413672Y-80915625D01*
X148626326Y-80597365D01*
X148701000Y-80221953D01*
X148701000Y-78858047D01*
X149279000Y-78858047D01*
X149279000Y-80221953D01*
X149353674Y-80597365D01*
X149566328Y-80915625D01*
X149884588Y-81128279D01*
X150260000Y-81202953D01*
X150635412Y-81128279D01*
X150953672Y-80915625D01*
X151166326Y-80597365D01*
X151241000Y-80221953D01*
X151241000Y-78858047D01*
X151819000Y-78858047D01*
X151819000Y-80221953D01*
X151893674Y-80597365D01*
X152106328Y-80915625D01*
X152424588Y-81128279D01*
X152800000Y-81202953D01*
X153175412Y-81128279D01*
X153493672Y-80915625D01*
X153706326Y-80597365D01*
X153781000Y-80221953D01*
X153781000Y-78858047D01*
X154359000Y-78858047D01*
X154359000Y-80221953D01*
X154433674Y-80597365D01*
X154646328Y-80915625D01*
X154964588Y-81128279D01*
X155340000Y-81202953D01*
X155715412Y-81128279D01*
X156033672Y-80915625D01*
X156246326Y-80597365D01*
X156321000Y-80221953D01*
X156321000Y-78858047D01*
X156246326Y-78482635D01*
X156033672Y-78164375D01*
X155715412Y-77951721D01*
X155340000Y-77877047D01*
X154964588Y-77951721D01*
X154646328Y-78164375D01*
X154433674Y-78482635D01*
X154359000Y-78858047D01*
X153781000Y-78858047D01*
X153706326Y-78482635D01*
X153493672Y-78164375D01*
X153175412Y-77951721D01*
X152800000Y-77877047D01*
X152424588Y-77951721D01*
X152106328Y-78164375D01*
X151893674Y-78482635D01*
X151819000Y-78858047D01*
X151241000Y-78858047D01*
X151166326Y-78482635D01*
X150953672Y-78164375D01*
X150635412Y-77951721D01*
X150260000Y-77877047D01*
X149884588Y-77951721D01*
X149566328Y-78164375D01*
X149353674Y-78482635D01*
X149279000Y-78858047D01*
X148701000Y-78858047D01*
X148626326Y-78482635D01*
X148413672Y-78164375D01*
X148095412Y-77951721D01*
X147720000Y-77877047D01*
X147344588Y-77951721D01*
X147026328Y-78164375D01*
X146813674Y-78482635D01*
X146739000Y-78858047D01*
X146161000Y-78858047D01*
X146086326Y-78482635D01*
X145873672Y-78164375D01*
X145555412Y-77951721D01*
X145180000Y-77877047D01*
X144804588Y-77951721D01*
X144486328Y-78164375D01*
X144273674Y-78482635D01*
X144199000Y-78858047D01*
X143621000Y-78858047D01*
X143546326Y-78482635D01*
X143333672Y-78164375D01*
X143015412Y-77951721D01*
X142640000Y-77877047D01*
X142264588Y-77951721D01*
X141946328Y-78164375D01*
X141733674Y-78482635D01*
X141659000Y-78858047D01*
X141081000Y-78858047D01*
X141006326Y-78482635D01*
X140793672Y-78164375D01*
X140475412Y-77951721D01*
X140100000Y-77877047D01*
X139724588Y-77951721D01*
X139406328Y-78164375D01*
X139193674Y-78482635D01*
X139119000Y-78858047D01*
X133027000Y-78858047D01*
X133027000Y-73342945D01*
X133154000Y-73342945D01*
X133154000Y-73797055D01*
X133243898Y-74249004D01*
X133499907Y-74632148D01*
X133883051Y-74888157D01*
X134335000Y-74978055D01*
X134786949Y-74888157D01*
X135170093Y-74632148D01*
X135426102Y-74249004D01*
X135516000Y-73797055D01*
X135516000Y-73342945D01*
X135426102Y-72890996D01*
X135170093Y-72507852D01*
X134786949Y-72251843D01*
X134335000Y-72161945D01*
X133883051Y-72251843D01*
X133499907Y-72507852D01*
X133243898Y-72890996D01*
X133154000Y-73342945D01*
X133027000Y-73342945D01*
X133027000Y-68137067D01*
X133154000Y-68137067D01*
X133154000Y-69202933D01*
X133243898Y-69654882D01*
X133499907Y-70038026D01*
X133883051Y-70294035D01*
X134335000Y-70383933D01*
X134786949Y-70294035D01*
X135170093Y-70038026D01*
X135426102Y-69654882D01*
X135516000Y-69202933D01*
X135516000Y-68587067D01*
X136979000Y-68587067D01*
X136979000Y-69652933D01*
X137068898Y-70104882D01*
X137324907Y-70488026D01*
X137708051Y-70744035D01*
X138160000Y-70833933D01*
X138611949Y-70744035D01*
X138995093Y-70488026D01*
X139251102Y-70104882D01*
X139341000Y-69652933D01*
X139341000Y-68587067D01*
X139251102Y-68135118D01*
X138995093Y-67751974D01*
X138611949Y-67495965D01*
X138160000Y-67406067D01*
X137708051Y-67495965D01*
X137324907Y-67751974D01*
X137068898Y-68135118D01*
X136979000Y-68587067D01*
X135516000Y-68587067D01*
X135516000Y-68137067D01*
X135426102Y-67685118D01*
X135170093Y-67301974D01*
X134786949Y-67045965D01*
X134335000Y-66956067D01*
X133883051Y-67045965D01*
X133499907Y-67301974D01*
X133243898Y-67685118D01*
X133154000Y-68137067D01*
X133027000Y-68137067D01*
X133027000Y-62818047D01*
X134039000Y-62818047D01*
X134039000Y-64181953D01*
X134113674Y-64557365D01*
X134326328Y-64875625D01*
X134644588Y-65088279D01*
X135020000Y-65162953D01*
X135395412Y-65088279D01*
X135713672Y-64875625D01*
X135926326Y-64557365D01*
X136001000Y-64181953D01*
X136001000Y-62818047D01*
X136579000Y-62818047D01*
X136579000Y-64181953D01*
X136653674Y-64557365D01*
X136866328Y-64875625D01*
X137184588Y-65088279D01*
X137560000Y-65162953D01*
X137935412Y-65088279D01*
X138253672Y-64875625D01*
X138466326Y-64557365D01*
X138541000Y-64181953D01*
X138541000Y-62818047D01*
X139119000Y-62818047D01*
X139119000Y-64181953D01*
X139193674Y-64557365D01*
X139406328Y-64875625D01*
X139724588Y-65088279D01*
X140100000Y-65162953D01*
X140475412Y-65088279D01*
X140793672Y-64875625D01*
X141006326Y-64557365D01*
X141081000Y-64181953D01*
X141081000Y-62818047D01*
X141659000Y-62818047D01*
X141659000Y-64181953D01*
X141733674Y-64557365D01*
X141946328Y-64875625D01*
X142264588Y-65088279D01*
X142640000Y-65162953D01*
X143015412Y-65088279D01*
X143333672Y-64875625D01*
X143546326Y-64557365D01*
X143621000Y-64181953D01*
X143621000Y-62818047D01*
X144199000Y-62818047D01*
X144199000Y-64181953D01*
X144273674Y-64557365D01*
X144486328Y-64875625D01*
X144804588Y-65088279D01*
X145180000Y-65162953D01*
X145555412Y-65088279D01*
X145873672Y-64875625D01*
X146086326Y-64557365D01*
X146161000Y-64181953D01*
X146161000Y-62818047D01*
X146086326Y-62442635D01*
X145873672Y-62124375D01*
X145555412Y-61911721D01*
X145180000Y-61837047D01*
X144804588Y-61911721D01*
X144486328Y-62124375D01*
X144273674Y-62442635D01*
X144199000Y-62818047D01*
X143621000Y-62818047D01*
X143546326Y-62442635D01*
X143333672Y-62124375D01*
X143015412Y-61911721D01*
X142640000Y-61837047D01*
X142264588Y-61911721D01*
X141946328Y-62124375D01*
X141733674Y-62442635D01*
X141659000Y-62818047D01*
X141081000Y-62818047D01*
X141006326Y-62442635D01*
X140793672Y-62124375D01*
X140475412Y-61911721D01*
X140100000Y-61837047D01*
X139724588Y-61911721D01*
X139406328Y-62124375D01*
X139193674Y-62442635D01*
X139119000Y-62818047D01*
X138541000Y-62818047D01*
X138466326Y-62442635D01*
X138253672Y-62124375D01*
X137935412Y-61911721D01*
X137560000Y-61837047D01*
X137184588Y-61911721D01*
X136866328Y-62124375D01*
X136653674Y-62442635D01*
X136579000Y-62818047D01*
X136001000Y-62818047D01*
X135926326Y-62442635D01*
X135713672Y-62124375D01*
X135395412Y-61911721D01*
X135020000Y-61837047D01*
X134644588Y-61911721D01*
X134326328Y-62124375D01*
X134113674Y-62442635D01*
X134039000Y-62818047D01*
X133027000Y-62818047D01*
X133027000Y-58538047D01*
X138319000Y-58538047D01*
X138319000Y-59901953D01*
X138393674Y-60277365D01*
X138606328Y-60595625D01*
X138924588Y-60808279D01*
X139300000Y-60882953D01*
X139675412Y-60808279D01*
X139993672Y-60595625D01*
X140206326Y-60277365D01*
X140281000Y-59901953D01*
X140281000Y-58538047D01*
X140859000Y-58538047D01*
X140859000Y-59901953D01*
X140933674Y-60277365D01*
X141146328Y-60595625D01*
X141464588Y-60808279D01*
X141840000Y-60882953D01*
X142215412Y-60808279D01*
X142533672Y-60595625D01*
X142746326Y-60277365D01*
X142821000Y-59901953D01*
X142821000Y-58538047D01*
X143399000Y-58538047D01*
X143399000Y-59901953D01*
X143473674Y-60277365D01*
X143686328Y-60595625D01*
X144004588Y-60808279D01*
X144380000Y-60882953D01*
X144755412Y-60808279D01*
X145073672Y-60595625D01*
X145286326Y-60277365D01*
X145361000Y-59901953D01*
X145361000Y-58538047D01*
X145286326Y-58162635D01*
X145073672Y-57844375D01*
X144755412Y-57631721D01*
X144380000Y-57557047D01*
X144004588Y-57631721D01*
X143686328Y-57844375D01*
X143473674Y-58162635D01*
X143399000Y-58538047D01*
X142821000Y-58538047D01*
X142746326Y-58162635D01*
X142533672Y-57844375D01*
X142215412Y-57631721D01*
X141840000Y-57557047D01*
X141464588Y-57631721D01*
X141146328Y-57844375D01*
X140933674Y-58162635D01*
X140859000Y-58538047D01*
X140281000Y-58538047D01*
X140206326Y-58162635D01*
X139993672Y-57844375D01*
X139675412Y-57631721D01*
X139300000Y-57557047D01*
X138924588Y-57631721D01*
X138606328Y-57844375D01*
X138393674Y-58162635D01*
X138319000Y-58538047D01*
X133027000Y-58538047D01*
X133027000Y-54258047D01*
X137519000Y-54258047D01*
X137519000Y-55621953D01*
X137593674Y-55997365D01*
X137806328Y-56315625D01*
X138124588Y-56528279D01*
X138500000Y-56602953D01*
X138875412Y-56528279D01*
X139193672Y-56315625D01*
X139406326Y-55997365D01*
X139481000Y-55621953D01*
X139481000Y-54258047D01*
X139406326Y-53882635D01*
X139193672Y-53564375D01*
X138875412Y-53351721D01*
X138500000Y-53277047D01*
X138124588Y-53351721D01*
X137806328Y-53564375D01*
X137593674Y-53882635D01*
X137519000Y-54258047D01*
X133027000Y-54258047D01*
X133027000Y-47352606D01*
X133452606Y-46927000D01*
X141161806Y-46927000D01*
X141054643Y-47185077D01*
M02*
