G04 #@! TF.FileFunction,Soldermask,Bot*
%FSLAX46Y46*%
G04 Gerber Fmt 4.6, Leading zero omitted, Abs format (unit mm)*
G04 Created by KiCad (PCBNEW 4.0.2-stable) date 05/06/2016 08:30:43*
%MOMM*%
G01*
G04 APERTURE LIST*
%ADD10C,0.100000*%
G04 APERTURE END LIST*
D10*
G36*
X158061265Y-91199211D02*
X158061270Y-91199213D01*
X158061312Y-91199217D01*
X158229423Y-91251256D01*
X158384224Y-91334957D01*
X158519820Y-91447131D01*
X158631045Y-91583507D01*
X158713663Y-91738889D01*
X158764527Y-91907359D01*
X158781700Y-92082500D01*
X158781700Y-92397534D01*
X158781627Y-92408035D01*
X158781626Y-92408041D01*
X158781612Y-92410090D01*
X158761996Y-92584974D01*
X158708784Y-92752717D01*
X158624005Y-92906931D01*
X158510886Y-93041740D01*
X158373738Y-93152010D01*
X158217783Y-93233542D01*
X158048962Y-93283228D01*
X158048931Y-93283231D01*
X158048917Y-93283235D01*
X157873708Y-93299180D01*
X157698735Y-93280789D01*
X157698730Y-93280787D01*
X157698688Y-93280783D01*
X157530577Y-93228744D01*
X157375776Y-93145043D01*
X157240180Y-93032869D01*
X157128955Y-92896493D01*
X157046337Y-92741111D01*
X156995473Y-92572641D01*
X156978300Y-92397500D01*
X156978300Y-92082466D01*
X156978373Y-92071965D01*
X156978374Y-92071959D01*
X156978388Y-92069910D01*
X156998004Y-91895026D01*
X157051216Y-91727283D01*
X157135995Y-91573069D01*
X157249114Y-91438260D01*
X157386262Y-91327990D01*
X157542217Y-91246458D01*
X157711038Y-91196772D01*
X157711069Y-91196769D01*
X157711083Y-91196765D01*
X157886292Y-91180820D01*
X158061265Y-91199211D01*
X158061265Y-91199211D01*
G37*
G36*
X160601265Y-91199211D02*
X160601270Y-91199213D01*
X160601312Y-91199217D01*
X160769423Y-91251256D01*
X160924224Y-91334957D01*
X161059820Y-91447131D01*
X161171045Y-91583507D01*
X161253663Y-91738889D01*
X161304527Y-91907359D01*
X161321700Y-92082500D01*
X161321700Y-92397534D01*
X161321627Y-92408035D01*
X161321626Y-92408041D01*
X161321612Y-92410090D01*
X161301996Y-92584974D01*
X161248784Y-92752717D01*
X161164005Y-92906931D01*
X161050886Y-93041740D01*
X160913738Y-93152010D01*
X160757783Y-93233542D01*
X160588962Y-93283228D01*
X160588931Y-93283231D01*
X160588917Y-93283235D01*
X160413708Y-93299180D01*
X160238735Y-93280789D01*
X160238730Y-93280787D01*
X160238688Y-93280783D01*
X160070577Y-93228744D01*
X159915776Y-93145043D01*
X159780180Y-93032869D01*
X159668955Y-92896493D01*
X159586337Y-92741111D01*
X159535473Y-92572641D01*
X159518300Y-92397500D01*
X159518300Y-92082466D01*
X159518373Y-92071965D01*
X159518374Y-92071959D01*
X159518388Y-92069910D01*
X159538004Y-91895026D01*
X159591216Y-91727283D01*
X159675995Y-91573069D01*
X159789114Y-91438260D01*
X159926262Y-91327990D01*
X160082217Y-91246458D01*
X160251038Y-91196772D01*
X160251069Y-91196769D01*
X160251083Y-91196765D01*
X160426292Y-91180820D01*
X160601265Y-91199211D01*
X160601265Y-91199211D01*
G37*
G36*
X163141265Y-91199211D02*
X163141270Y-91199213D01*
X163141312Y-91199217D01*
X163309423Y-91251256D01*
X163464224Y-91334957D01*
X163599820Y-91447131D01*
X163711045Y-91583507D01*
X163793663Y-91738889D01*
X163844527Y-91907359D01*
X163861700Y-92082500D01*
X163861700Y-92397534D01*
X163861627Y-92408035D01*
X163861626Y-92408041D01*
X163861612Y-92410090D01*
X163841996Y-92584974D01*
X163788784Y-92752717D01*
X163704005Y-92906931D01*
X163590886Y-93041740D01*
X163453738Y-93152010D01*
X163297783Y-93233542D01*
X163128962Y-93283228D01*
X163128931Y-93283231D01*
X163128917Y-93283235D01*
X162953708Y-93299180D01*
X162778735Y-93280789D01*
X162778730Y-93280787D01*
X162778688Y-93280783D01*
X162610577Y-93228744D01*
X162455776Y-93145043D01*
X162320180Y-93032869D01*
X162208955Y-92896493D01*
X162126337Y-92741111D01*
X162075473Y-92572641D01*
X162058300Y-92397500D01*
X162058300Y-92082466D01*
X162058373Y-92071965D01*
X162058374Y-92071959D01*
X162058388Y-92069910D01*
X162078004Y-91895026D01*
X162131216Y-91727283D01*
X162215995Y-91573069D01*
X162329114Y-91438260D01*
X162466262Y-91327990D01*
X162622217Y-91246458D01*
X162791038Y-91196772D01*
X162791069Y-91196769D01*
X162791083Y-91196765D01*
X162966292Y-91180820D01*
X163141265Y-91199211D01*
X163141265Y-91199211D01*
G37*
G36*
X152981265Y-91199211D02*
X152981270Y-91199213D01*
X152981312Y-91199217D01*
X153149423Y-91251256D01*
X153304224Y-91334957D01*
X153439820Y-91447131D01*
X153551045Y-91583507D01*
X153633663Y-91738889D01*
X153684527Y-91907359D01*
X153701700Y-92082500D01*
X153701700Y-92397534D01*
X153701627Y-92408035D01*
X153701626Y-92408041D01*
X153701612Y-92410090D01*
X153681996Y-92584974D01*
X153628784Y-92752717D01*
X153544005Y-92906931D01*
X153430886Y-93041740D01*
X153293738Y-93152010D01*
X153137783Y-93233542D01*
X152968962Y-93283228D01*
X152968931Y-93283231D01*
X152968917Y-93283235D01*
X152793708Y-93299180D01*
X152618735Y-93280789D01*
X152618730Y-93280787D01*
X152618688Y-93280783D01*
X152450577Y-93228744D01*
X152295776Y-93145043D01*
X152160180Y-93032869D01*
X152048955Y-92896493D01*
X151966337Y-92741111D01*
X151915473Y-92572641D01*
X151898300Y-92397500D01*
X151898300Y-92082466D01*
X151898373Y-92071965D01*
X151898374Y-92071959D01*
X151898388Y-92069910D01*
X151918004Y-91895026D01*
X151971216Y-91727283D01*
X152055995Y-91573069D01*
X152169114Y-91438260D01*
X152306262Y-91327990D01*
X152462217Y-91246458D01*
X152631038Y-91196772D01*
X152631069Y-91196769D01*
X152631083Y-91196765D01*
X152806292Y-91180820D01*
X152981265Y-91199211D01*
X152981265Y-91199211D01*
G37*
G36*
X155521265Y-91199211D02*
X155521270Y-91199213D01*
X155521312Y-91199217D01*
X155689423Y-91251256D01*
X155844224Y-91334957D01*
X155979820Y-91447131D01*
X156091045Y-91583507D01*
X156173663Y-91738889D01*
X156224527Y-91907359D01*
X156241700Y-92082500D01*
X156241700Y-92397534D01*
X156241627Y-92408035D01*
X156241626Y-92408041D01*
X156241612Y-92410090D01*
X156221996Y-92584974D01*
X156168784Y-92752717D01*
X156084005Y-92906931D01*
X155970886Y-93041740D01*
X155833738Y-93152010D01*
X155677783Y-93233542D01*
X155508962Y-93283228D01*
X155508931Y-93283231D01*
X155508917Y-93283235D01*
X155333708Y-93299180D01*
X155158735Y-93280789D01*
X155158730Y-93280787D01*
X155158688Y-93280783D01*
X154990577Y-93228744D01*
X154835776Y-93145043D01*
X154700180Y-93032869D01*
X154588955Y-92896493D01*
X154506337Y-92741111D01*
X154455473Y-92572641D01*
X154438300Y-92397500D01*
X154438300Y-92082466D01*
X154438373Y-92071965D01*
X154438374Y-92071959D01*
X154438388Y-92069910D01*
X154458004Y-91895026D01*
X154511216Y-91727283D01*
X154595995Y-91573069D01*
X154709114Y-91438260D01*
X154846262Y-91327990D01*
X155002217Y-91246458D01*
X155171038Y-91196772D01*
X155171069Y-91196769D01*
X155171083Y-91196765D01*
X155346292Y-91180820D01*
X155521265Y-91199211D01*
X155521265Y-91199211D01*
G37*
G36*
X166401700Y-93294100D02*
X164598300Y-93294100D01*
X164598300Y-91185900D01*
X166401700Y-91185900D01*
X166401700Y-93294100D01*
X166401700Y-93294100D01*
G37*
G36*
X138528262Y-86528160D02*
X138635298Y-86539409D01*
X138635303Y-86539410D01*
X138635346Y-86539415D01*
X138760837Y-86578261D01*
X138876393Y-86640742D01*
X138977612Y-86724478D01*
X139060639Y-86826279D01*
X139122312Y-86942269D01*
X139160281Y-87068028D01*
X139173100Y-87198767D01*
X139173100Y-88441263D01*
X139173049Y-88448574D01*
X139173048Y-88448579D01*
X139173034Y-88450631D01*
X139158391Y-88581178D01*
X139118670Y-88706395D01*
X139055384Y-88821512D01*
X138970943Y-88922145D01*
X138868565Y-89004459D01*
X138752148Y-89065320D01*
X138626126Y-89102411D01*
X138626085Y-89102415D01*
X138626081Y-89102416D01*
X138495303Y-89114317D01*
X138495301Y-89114317D01*
X138471738Y-89111840D01*
X138364702Y-89100591D01*
X138364697Y-89100590D01*
X138364654Y-89100585D01*
X138239163Y-89061739D01*
X138123607Y-88999258D01*
X138022388Y-88915522D01*
X137939361Y-88813721D01*
X137877688Y-88697731D01*
X137839719Y-88571972D01*
X137826900Y-88441233D01*
X137826900Y-87198737D01*
X137826951Y-87191426D01*
X137826952Y-87191421D01*
X137826966Y-87189369D01*
X137841609Y-87058822D01*
X137881330Y-86933605D01*
X137944616Y-86818488D01*
X138029057Y-86717855D01*
X138131435Y-86635541D01*
X138247852Y-86574680D01*
X138373874Y-86537589D01*
X138373915Y-86537585D01*
X138373919Y-86537584D01*
X138504698Y-86525683D01*
X138504699Y-86525683D01*
X138528262Y-86528160D01*
X138528262Y-86528160D01*
G37*
G36*
X148688262Y-86528160D02*
X148795298Y-86539409D01*
X148795303Y-86539410D01*
X148795346Y-86539415D01*
X148920837Y-86578261D01*
X149036393Y-86640742D01*
X149137612Y-86724478D01*
X149220639Y-86826279D01*
X149282312Y-86942269D01*
X149320281Y-87068028D01*
X149333100Y-87198767D01*
X149333100Y-88441263D01*
X149333049Y-88448574D01*
X149333048Y-88448579D01*
X149333034Y-88450631D01*
X149318391Y-88581178D01*
X149278670Y-88706395D01*
X149215384Y-88821512D01*
X149130943Y-88922145D01*
X149028565Y-89004459D01*
X148912148Y-89065320D01*
X148786126Y-89102411D01*
X148786085Y-89102415D01*
X148786081Y-89102416D01*
X148655303Y-89114317D01*
X148655301Y-89114317D01*
X148631738Y-89111840D01*
X148524702Y-89100591D01*
X148524697Y-89100590D01*
X148524654Y-89100585D01*
X148399163Y-89061739D01*
X148283607Y-88999258D01*
X148182388Y-88915522D01*
X148099361Y-88813721D01*
X148037688Y-88697731D01*
X147999719Y-88571972D01*
X147986900Y-88441233D01*
X147986900Y-87198737D01*
X147986951Y-87191426D01*
X147986952Y-87191421D01*
X147986966Y-87189369D01*
X148001609Y-87058822D01*
X148041330Y-86933605D01*
X148104616Y-86818488D01*
X148189057Y-86717855D01*
X148291435Y-86635541D01*
X148407852Y-86574680D01*
X148533874Y-86537589D01*
X148533915Y-86537585D01*
X148533919Y-86537584D01*
X148664698Y-86525683D01*
X148664699Y-86525683D01*
X148688262Y-86528160D01*
X148688262Y-86528160D01*
G37*
G36*
X153768262Y-86528160D02*
X153875298Y-86539409D01*
X153875303Y-86539410D01*
X153875346Y-86539415D01*
X154000837Y-86578261D01*
X154116393Y-86640742D01*
X154217612Y-86724478D01*
X154300639Y-86826279D01*
X154362312Y-86942269D01*
X154400281Y-87068028D01*
X154413100Y-87198767D01*
X154413100Y-88441263D01*
X154413049Y-88448574D01*
X154413048Y-88448579D01*
X154413034Y-88450631D01*
X154398391Y-88581178D01*
X154358670Y-88706395D01*
X154295384Y-88821512D01*
X154210943Y-88922145D01*
X154108565Y-89004459D01*
X153992148Y-89065320D01*
X153866126Y-89102411D01*
X153866085Y-89102415D01*
X153866081Y-89102416D01*
X153735303Y-89114317D01*
X153735301Y-89114317D01*
X153711738Y-89111840D01*
X153604702Y-89100591D01*
X153604697Y-89100590D01*
X153604654Y-89100585D01*
X153479163Y-89061739D01*
X153363607Y-88999258D01*
X153262388Y-88915522D01*
X153179361Y-88813721D01*
X153117688Y-88697731D01*
X153079719Y-88571972D01*
X153066900Y-88441233D01*
X153066900Y-87198737D01*
X153066951Y-87191426D01*
X153066952Y-87191421D01*
X153066966Y-87189369D01*
X153081609Y-87058822D01*
X153121330Y-86933605D01*
X153184616Y-86818488D01*
X153269057Y-86717855D01*
X153371435Y-86635541D01*
X153487852Y-86574680D01*
X153613874Y-86537589D01*
X153613915Y-86537585D01*
X153613919Y-86537584D01*
X153744698Y-86525683D01*
X153744699Y-86525683D01*
X153768262Y-86528160D01*
X153768262Y-86528160D01*
G37*
G36*
X151228262Y-86528160D02*
X151335298Y-86539409D01*
X151335303Y-86539410D01*
X151335346Y-86539415D01*
X151460837Y-86578261D01*
X151576393Y-86640742D01*
X151677612Y-86724478D01*
X151760639Y-86826279D01*
X151822312Y-86942269D01*
X151860281Y-87068028D01*
X151873100Y-87198767D01*
X151873100Y-88441263D01*
X151873049Y-88448574D01*
X151873048Y-88448579D01*
X151873034Y-88450631D01*
X151858391Y-88581178D01*
X151818670Y-88706395D01*
X151755384Y-88821512D01*
X151670943Y-88922145D01*
X151568565Y-89004459D01*
X151452148Y-89065320D01*
X151326126Y-89102411D01*
X151326085Y-89102415D01*
X151326081Y-89102416D01*
X151195303Y-89114317D01*
X151195301Y-89114317D01*
X151171738Y-89111840D01*
X151064702Y-89100591D01*
X151064697Y-89100590D01*
X151064654Y-89100585D01*
X150939163Y-89061739D01*
X150823607Y-88999258D01*
X150722388Y-88915522D01*
X150639361Y-88813721D01*
X150577688Y-88697731D01*
X150539719Y-88571972D01*
X150526900Y-88441233D01*
X150526900Y-87198737D01*
X150526951Y-87191426D01*
X150526952Y-87191421D01*
X150526966Y-87189369D01*
X150541609Y-87058822D01*
X150581330Y-86933605D01*
X150644616Y-86818488D01*
X150729057Y-86717855D01*
X150831435Y-86635541D01*
X150947852Y-86574680D01*
X151073874Y-86537589D01*
X151073915Y-86537585D01*
X151073919Y-86537584D01*
X151204698Y-86525683D01*
X151204699Y-86525683D01*
X151228262Y-86528160D01*
X151228262Y-86528160D01*
G37*
G36*
X158848262Y-86528160D02*
X158955298Y-86539409D01*
X158955303Y-86539410D01*
X158955346Y-86539415D01*
X159080837Y-86578261D01*
X159196393Y-86640742D01*
X159297612Y-86724478D01*
X159380639Y-86826279D01*
X159442312Y-86942269D01*
X159480281Y-87068028D01*
X159493100Y-87198767D01*
X159493100Y-88441263D01*
X159493049Y-88448574D01*
X159493048Y-88448579D01*
X159493034Y-88450631D01*
X159478391Y-88581178D01*
X159438670Y-88706395D01*
X159375384Y-88821512D01*
X159290943Y-88922145D01*
X159188565Y-89004459D01*
X159072148Y-89065320D01*
X158946126Y-89102411D01*
X158946085Y-89102415D01*
X158946081Y-89102416D01*
X158815303Y-89114317D01*
X158815301Y-89114317D01*
X158791738Y-89111840D01*
X158684702Y-89100591D01*
X158684697Y-89100590D01*
X158684654Y-89100585D01*
X158559163Y-89061739D01*
X158443607Y-88999258D01*
X158342388Y-88915522D01*
X158259361Y-88813721D01*
X158197688Y-88697731D01*
X158159719Y-88571972D01*
X158146900Y-88441233D01*
X158146900Y-87198737D01*
X158146951Y-87191426D01*
X158146952Y-87191421D01*
X158146966Y-87189369D01*
X158161609Y-87058822D01*
X158201330Y-86933605D01*
X158264616Y-86818488D01*
X158349057Y-86717855D01*
X158451435Y-86635541D01*
X158567852Y-86574680D01*
X158693874Y-86537589D01*
X158693915Y-86537585D01*
X158693919Y-86537584D01*
X158824698Y-86525683D01*
X158824699Y-86525683D01*
X158848262Y-86528160D01*
X158848262Y-86528160D01*
G37*
G36*
X161388262Y-86528160D02*
X161495298Y-86539409D01*
X161495303Y-86539410D01*
X161495346Y-86539415D01*
X161620837Y-86578261D01*
X161736393Y-86640742D01*
X161837612Y-86724478D01*
X161920639Y-86826279D01*
X161982312Y-86942269D01*
X162020281Y-87068028D01*
X162033100Y-87198767D01*
X162033100Y-88441263D01*
X162033049Y-88448574D01*
X162033048Y-88448579D01*
X162033034Y-88450631D01*
X162018391Y-88581178D01*
X161978670Y-88706395D01*
X161915384Y-88821512D01*
X161830943Y-88922145D01*
X161728565Y-89004459D01*
X161612148Y-89065320D01*
X161486126Y-89102411D01*
X161486085Y-89102415D01*
X161486081Y-89102416D01*
X161355303Y-89114317D01*
X161355301Y-89114317D01*
X161331738Y-89111840D01*
X161224702Y-89100591D01*
X161224697Y-89100590D01*
X161224654Y-89100585D01*
X161099163Y-89061739D01*
X160983607Y-88999258D01*
X160882388Y-88915522D01*
X160799361Y-88813721D01*
X160737688Y-88697731D01*
X160699719Y-88571972D01*
X160686900Y-88441233D01*
X160686900Y-87198737D01*
X160686951Y-87191426D01*
X160686952Y-87191421D01*
X160686966Y-87189369D01*
X160701609Y-87058822D01*
X160741330Y-86933605D01*
X160804616Y-86818488D01*
X160889057Y-86717855D01*
X160991435Y-86635541D01*
X161107852Y-86574680D01*
X161233874Y-86537589D01*
X161233915Y-86537585D01*
X161233919Y-86537584D01*
X161364698Y-86525683D01*
X161364699Y-86525683D01*
X161388262Y-86528160D01*
X161388262Y-86528160D01*
G37*
G36*
X141068262Y-86528160D02*
X141175298Y-86539409D01*
X141175303Y-86539410D01*
X141175346Y-86539415D01*
X141300837Y-86578261D01*
X141416393Y-86640742D01*
X141517612Y-86724478D01*
X141600639Y-86826279D01*
X141662312Y-86942269D01*
X141700281Y-87068028D01*
X141713100Y-87198767D01*
X141713100Y-88441263D01*
X141713049Y-88448574D01*
X141713048Y-88448579D01*
X141713034Y-88450631D01*
X141698391Y-88581178D01*
X141658670Y-88706395D01*
X141595384Y-88821512D01*
X141510943Y-88922145D01*
X141408565Y-89004459D01*
X141292148Y-89065320D01*
X141166126Y-89102411D01*
X141166085Y-89102415D01*
X141166081Y-89102416D01*
X141035303Y-89114317D01*
X141035301Y-89114317D01*
X141011738Y-89111840D01*
X140904702Y-89100591D01*
X140904697Y-89100590D01*
X140904654Y-89100585D01*
X140779163Y-89061739D01*
X140663607Y-88999258D01*
X140562388Y-88915522D01*
X140479361Y-88813721D01*
X140417688Y-88697731D01*
X140379719Y-88571972D01*
X140366900Y-88441233D01*
X140366900Y-87198737D01*
X140366951Y-87191426D01*
X140366952Y-87191421D01*
X140366966Y-87189369D01*
X140381609Y-87058822D01*
X140421330Y-86933605D01*
X140484616Y-86818488D01*
X140569057Y-86717855D01*
X140671435Y-86635541D01*
X140787852Y-86574680D01*
X140913874Y-86537589D01*
X140913915Y-86537585D01*
X140913919Y-86537584D01*
X141044698Y-86525683D01*
X141044699Y-86525683D01*
X141068262Y-86528160D01*
X141068262Y-86528160D01*
G37*
G36*
X143608262Y-86528160D02*
X143715298Y-86539409D01*
X143715303Y-86539410D01*
X143715346Y-86539415D01*
X143840837Y-86578261D01*
X143956393Y-86640742D01*
X144057612Y-86724478D01*
X144140639Y-86826279D01*
X144202312Y-86942269D01*
X144240281Y-87068028D01*
X144253100Y-87198767D01*
X144253100Y-88441263D01*
X144253049Y-88448574D01*
X144253048Y-88448579D01*
X144253034Y-88450631D01*
X144238391Y-88581178D01*
X144198670Y-88706395D01*
X144135384Y-88821512D01*
X144050943Y-88922145D01*
X143948565Y-89004459D01*
X143832148Y-89065320D01*
X143706126Y-89102411D01*
X143706085Y-89102415D01*
X143706081Y-89102416D01*
X143575303Y-89114317D01*
X143575301Y-89114317D01*
X143551738Y-89111840D01*
X143444702Y-89100591D01*
X143444697Y-89100590D01*
X143444654Y-89100585D01*
X143319163Y-89061739D01*
X143203607Y-88999258D01*
X143102388Y-88915522D01*
X143019361Y-88813721D01*
X142957688Y-88697731D01*
X142919719Y-88571972D01*
X142906900Y-88441233D01*
X142906900Y-87198737D01*
X142906951Y-87191426D01*
X142906952Y-87191421D01*
X142906966Y-87189369D01*
X142921609Y-87058822D01*
X142961330Y-86933605D01*
X143024616Y-86818488D01*
X143109057Y-86717855D01*
X143211435Y-86635541D01*
X143327852Y-86574680D01*
X143453874Y-86537589D01*
X143453915Y-86537585D01*
X143453919Y-86537584D01*
X143584698Y-86525683D01*
X143584699Y-86525683D01*
X143608262Y-86528160D01*
X143608262Y-86528160D01*
G37*
G36*
X146148262Y-86528160D02*
X146255298Y-86539409D01*
X146255303Y-86539410D01*
X146255346Y-86539415D01*
X146380837Y-86578261D01*
X146496393Y-86640742D01*
X146597612Y-86724478D01*
X146680639Y-86826279D01*
X146742312Y-86942269D01*
X146780281Y-87068028D01*
X146793100Y-87198767D01*
X146793100Y-88441263D01*
X146793049Y-88448574D01*
X146793048Y-88448579D01*
X146793034Y-88450631D01*
X146778391Y-88581178D01*
X146738670Y-88706395D01*
X146675384Y-88821512D01*
X146590943Y-88922145D01*
X146488565Y-89004459D01*
X146372148Y-89065320D01*
X146246126Y-89102411D01*
X146246085Y-89102415D01*
X146246081Y-89102416D01*
X146115303Y-89114317D01*
X146115301Y-89114317D01*
X146091738Y-89111840D01*
X145984702Y-89100591D01*
X145984697Y-89100590D01*
X145984654Y-89100585D01*
X145859163Y-89061739D01*
X145743607Y-88999258D01*
X145642388Y-88915522D01*
X145559361Y-88813721D01*
X145497688Y-88697731D01*
X145459719Y-88571972D01*
X145446900Y-88441233D01*
X145446900Y-87198737D01*
X145446951Y-87191426D01*
X145446952Y-87191421D01*
X145446966Y-87189369D01*
X145461609Y-87058822D01*
X145501330Y-86933605D01*
X145564616Y-86818488D01*
X145649057Y-86717855D01*
X145751435Y-86635541D01*
X145867852Y-86574680D01*
X145993874Y-86537589D01*
X145993915Y-86537585D01*
X145993919Y-86537584D01*
X146124698Y-86525683D01*
X146124699Y-86525683D01*
X146148262Y-86528160D01*
X146148262Y-86528160D01*
G37*
G36*
X156308262Y-86528160D02*
X156415298Y-86539409D01*
X156415303Y-86539410D01*
X156415346Y-86539415D01*
X156540837Y-86578261D01*
X156656393Y-86640742D01*
X156757612Y-86724478D01*
X156840639Y-86826279D01*
X156902312Y-86942269D01*
X156940281Y-87068028D01*
X156953100Y-87198767D01*
X156953100Y-88441263D01*
X156953049Y-88448574D01*
X156953048Y-88448579D01*
X156953034Y-88450631D01*
X156938391Y-88581178D01*
X156898670Y-88706395D01*
X156835384Y-88821512D01*
X156750943Y-88922145D01*
X156648565Y-89004459D01*
X156532148Y-89065320D01*
X156406126Y-89102411D01*
X156406085Y-89102415D01*
X156406081Y-89102416D01*
X156275303Y-89114317D01*
X156275301Y-89114317D01*
X156251738Y-89111840D01*
X156144702Y-89100591D01*
X156144697Y-89100590D01*
X156144654Y-89100585D01*
X156019163Y-89061739D01*
X155903607Y-88999258D01*
X155802388Y-88915522D01*
X155719361Y-88813721D01*
X155657688Y-88697731D01*
X155619719Y-88571972D01*
X155606900Y-88441233D01*
X155606900Y-87198737D01*
X155606951Y-87191426D01*
X155606952Y-87191421D01*
X155606966Y-87189369D01*
X155621609Y-87058822D01*
X155661330Y-86933605D01*
X155724616Y-86818488D01*
X155809057Y-86717855D01*
X155911435Y-86635541D01*
X156027852Y-86574680D01*
X156153874Y-86537589D01*
X156153915Y-86537585D01*
X156153919Y-86537584D01*
X156284698Y-86525683D01*
X156284699Y-86525683D01*
X156308262Y-86528160D01*
X156308262Y-86528160D01*
G37*
G36*
X152028262Y-82388160D02*
X152135298Y-82399409D01*
X152135303Y-82399410D01*
X152135346Y-82399415D01*
X152260837Y-82438261D01*
X152376393Y-82500742D01*
X152477612Y-82584478D01*
X152560639Y-82686279D01*
X152622312Y-82802269D01*
X152660281Y-82928028D01*
X152673100Y-83058767D01*
X152673100Y-84301263D01*
X152673049Y-84308574D01*
X152673048Y-84308579D01*
X152673034Y-84310631D01*
X152658391Y-84441178D01*
X152618670Y-84566395D01*
X152555384Y-84681512D01*
X152470943Y-84782145D01*
X152368565Y-84864459D01*
X152252148Y-84925320D01*
X152126126Y-84962411D01*
X152126085Y-84962415D01*
X152126081Y-84962416D01*
X151995303Y-84974317D01*
X151995301Y-84974317D01*
X151971738Y-84971840D01*
X151864702Y-84960591D01*
X151864697Y-84960590D01*
X151864654Y-84960585D01*
X151739163Y-84921739D01*
X151623607Y-84859258D01*
X151522388Y-84775522D01*
X151439361Y-84673721D01*
X151377688Y-84557731D01*
X151339719Y-84431972D01*
X151326900Y-84301233D01*
X151326900Y-83058737D01*
X151326951Y-83051426D01*
X151326952Y-83051421D01*
X151326966Y-83049369D01*
X151341609Y-82918822D01*
X151381330Y-82793605D01*
X151444616Y-82678488D01*
X151529057Y-82577855D01*
X151631435Y-82495541D01*
X151747852Y-82434680D01*
X151873874Y-82397589D01*
X151873915Y-82397585D01*
X151873919Y-82397584D01*
X152004698Y-82385683D01*
X152004699Y-82385683D01*
X152028262Y-82388160D01*
X152028262Y-82388160D01*
G37*
G36*
X162188262Y-82388160D02*
X162295298Y-82399409D01*
X162295303Y-82399410D01*
X162295346Y-82399415D01*
X162420837Y-82438261D01*
X162536393Y-82500742D01*
X162637612Y-82584478D01*
X162720639Y-82686279D01*
X162782312Y-82802269D01*
X162820281Y-82928028D01*
X162833100Y-83058767D01*
X162833100Y-84301263D01*
X162833049Y-84308574D01*
X162833048Y-84308579D01*
X162833034Y-84310631D01*
X162818391Y-84441178D01*
X162778670Y-84566395D01*
X162715384Y-84681512D01*
X162630943Y-84782145D01*
X162528565Y-84864459D01*
X162412148Y-84925320D01*
X162286126Y-84962411D01*
X162286085Y-84962415D01*
X162286081Y-84962416D01*
X162155303Y-84974317D01*
X162155301Y-84974317D01*
X162131738Y-84971840D01*
X162024702Y-84960591D01*
X162024697Y-84960590D01*
X162024654Y-84960585D01*
X161899163Y-84921739D01*
X161783607Y-84859258D01*
X161682388Y-84775522D01*
X161599361Y-84673721D01*
X161537688Y-84557731D01*
X161499719Y-84431972D01*
X161486900Y-84301233D01*
X161486900Y-83058737D01*
X161486951Y-83051426D01*
X161486952Y-83051421D01*
X161486966Y-83049369D01*
X161501609Y-82918822D01*
X161541330Y-82793605D01*
X161604616Y-82678488D01*
X161689057Y-82577855D01*
X161791435Y-82495541D01*
X161907852Y-82434680D01*
X162033874Y-82397589D01*
X162033915Y-82397585D01*
X162033919Y-82397584D01*
X162164698Y-82385683D01*
X162164699Y-82385683D01*
X162188262Y-82388160D01*
X162188262Y-82388160D01*
G37*
G36*
X159648262Y-82388160D02*
X159755298Y-82399409D01*
X159755303Y-82399410D01*
X159755346Y-82399415D01*
X159880837Y-82438261D01*
X159996393Y-82500742D01*
X160097612Y-82584478D01*
X160180639Y-82686279D01*
X160242312Y-82802269D01*
X160280281Y-82928028D01*
X160293100Y-83058767D01*
X160293100Y-84301263D01*
X160293049Y-84308574D01*
X160293048Y-84308579D01*
X160293034Y-84310631D01*
X160278391Y-84441178D01*
X160238670Y-84566395D01*
X160175384Y-84681512D01*
X160090943Y-84782145D01*
X159988565Y-84864459D01*
X159872148Y-84925320D01*
X159746126Y-84962411D01*
X159746085Y-84962415D01*
X159746081Y-84962416D01*
X159615303Y-84974317D01*
X159615301Y-84974317D01*
X159591738Y-84971840D01*
X159484702Y-84960591D01*
X159484697Y-84960590D01*
X159484654Y-84960585D01*
X159359163Y-84921739D01*
X159243607Y-84859258D01*
X159142388Y-84775522D01*
X159059361Y-84673721D01*
X158997688Y-84557731D01*
X158959719Y-84431972D01*
X158946900Y-84301233D01*
X158946900Y-83058737D01*
X158946951Y-83051426D01*
X158946952Y-83051421D01*
X158946966Y-83049369D01*
X158961609Y-82918822D01*
X159001330Y-82793605D01*
X159064616Y-82678488D01*
X159149057Y-82577855D01*
X159251435Y-82495541D01*
X159367852Y-82434680D01*
X159493874Y-82397589D01*
X159493915Y-82397585D01*
X159493919Y-82397584D01*
X159624698Y-82385683D01*
X159624699Y-82385683D01*
X159648262Y-82388160D01*
X159648262Y-82388160D01*
G37*
G36*
X146948262Y-82388160D02*
X147055298Y-82399409D01*
X147055303Y-82399410D01*
X147055346Y-82399415D01*
X147180837Y-82438261D01*
X147296393Y-82500742D01*
X147397612Y-82584478D01*
X147480639Y-82686279D01*
X147542312Y-82802269D01*
X147580281Y-82928028D01*
X147593100Y-83058767D01*
X147593100Y-84301263D01*
X147593049Y-84308574D01*
X147593048Y-84308579D01*
X147593034Y-84310631D01*
X147578391Y-84441178D01*
X147538670Y-84566395D01*
X147475384Y-84681512D01*
X147390943Y-84782145D01*
X147288565Y-84864459D01*
X147172148Y-84925320D01*
X147046126Y-84962411D01*
X147046085Y-84962415D01*
X147046081Y-84962416D01*
X146915303Y-84974317D01*
X146915301Y-84974317D01*
X146891738Y-84971840D01*
X146784702Y-84960591D01*
X146784697Y-84960590D01*
X146784654Y-84960585D01*
X146659163Y-84921739D01*
X146543607Y-84859258D01*
X146442388Y-84775522D01*
X146359361Y-84673721D01*
X146297688Y-84557731D01*
X146259719Y-84431972D01*
X146246900Y-84301233D01*
X146246900Y-83058737D01*
X146246951Y-83051426D01*
X146246952Y-83051421D01*
X146246966Y-83049369D01*
X146261609Y-82918822D01*
X146301330Y-82793605D01*
X146364616Y-82678488D01*
X146449057Y-82577855D01*
X146551435Y-82495541D01*
X146667852Y-82434680D01*
X146793874Y-82397589D01*
X146793915Y-82397585D01*
X146793919Y-82397584D01*
X146924698Y-82385683D01*
X146924699Y-82385683D01*
X146948262Y-82388160D01*
X146948262Y-82388160D01*
G37*
G36*
X157108262Y-82388160D02*
X157215298Y-82399409D01*
X157215303Y-82399410D01*
X157215346Y-82399415D01*
X157340837Y-82438261D01*
X157456393Y-82500742D01*
X157557612Y-82584478D01*
X157640639Y-82686279D01*
X157702312Y-82802269D01*
X157740281Y-82928028D01*
X157753100Y-83058767D01*
X157753100Y-84301263D01*
X157753049Y-84308574D01*
X157753048Y-84308579D01*
X157753034Y-84310631D01*
X157738391Y-84441178D01*
X157698670Y-84566395D01*
X157635384Y-84681512D01*
X157550943Y-84782145D01*
X157448565Y-84864459D01*
X157332148Y-84925320D01*
X157206126Y-84962411D01*
X157206085Y-84962415D01*
X157206081Y-84962416D01*
X157075303Y-84974317D01*
X157075301Y-84974317D01*
X157051738Y-84971840D01*
X156944702Y-84960591D01*
X156944697Y-84960590D01*
X156944654Y-84960585D01*
X156819163Y-84921739D01*
X156703607Y-84859258D01*
X156602388Y-84775522D01*
X156519361Y-84673721D01*
X156457688Y-84557731D01*
X156419719Y-84431972D01*
X156406900Y-84301233D01*
X156406900Y-83058737D01*
X156406951Y-83051426D01*
X156406952Y-83051421D01*
X156406966Y-83049369D01*
X156421609Y-82918822D01*
X156461330Y-82793605D01*
X156524616Y-82678488D01*
X156609057Y-82577855D01*
X156711435Y-82495541D01*
X156827852Y-82434680D01*
X156953874Y-82397589D01*
X156953915Y-82397585D01*
X156953919Y-82397584D01*
X157084698Y-82385683D01*
X157084699Y-82385683D01*
X157108262Y-82388160D01*
X157108262Y-82388160D01*
G37*
G36*
X144408262Y-82388160D02*
X144515298Y-82399409D01*
X144515303Y-82399410D01*
X144515346Y-82399415D01*
X144640837Y-82438261D01*
X144756393Y-82500742D01*
X144857612Y-82584478D01*
X144940639Y-82686279D01*
X145002312Y-82802269D01*
X145040281Y-82928028D01*
X145053100Y-83058767D01*
X145053100Y-84301263D01*
X145053049Y-84308574D01*
X145053048Y-84308579D01*
X145053034Y-84310631D01*
X145038391Y-84441178D01*
X144998670Y-84566395D01*
X144935384Y-84681512D01*
X144850943Y-84782145D01*
X144748565Y-84864459D01*
X144632148Y-84925320D01*
X144506126Y-84962411D01*
X144506085Y-84962415D01*
X144506081Y-84962416D01*
X144375303Y-84974317D01*
X144375301Y-84974317D01*
X144351738Y-84971840D01*
X144244702Y-84960591D01*
X144244697Y-84960590D01*
X144244654Y-84960585D01*
X144119163Y-84921739D01*
X144003607Y-84859258D01*
X143902388Y-84775522D01*
X143819361Y-84673721D01*
X143757688Y-84557731D01*
X143719719Y-84431972D01*
X143706900Y-84301233D01*
X143706900Y-83058737D01*
X143706951Y-83051426D01*
X143706952Y-83051421D01*
X143706966Y-83049369D01*
X143721609Y-82918822D01*
X143761330Y-82793605D01*
X143824616Y-82678488D01*
X143909057Y-82577855D01*
X144011435Y-82495541D01*
X144127852Y-82434680D01*
X144253874Y-82397589D01*
X144253915Y-82397585D01*
X144253919Y-82397584D01*
X144384698Y-82385683D01*
X144384699Y-82385683D01*
X144408262Y-82388160D01*
X144408262Y-82388160D01*
G37*
G36*
X149488262Y-82388160D02*
X149595298Y-82399409D01*
X149595303Y-82399410D01*
X149595346Y-82399415D01*
X149720837Y-82438261D01*
X149836393Y-82500742D01*
X149937612Y-82584478D01*
X150020639Y-82686279D01*
X150082312Y-82802269D01*
X150120281Y-82928028D01*
X150133100Y-83058767D01*
X150133100Y-84301263D01*
X150133049Y-84308574D01*
X150133048Y-84308579D01*
X150133034Y-84310631D01*
X150118391Y-84441178D01*
X150078670Y-84566395D01*
X150015384Y-84681512D01*
X149930943Y-84782145D01*
X149828565Y-84864459D01*
X149712148Y-84925320D01*
X149586126Y-84962411D01*
X149586085Y-84962415D01*
X149586081Y-84962416D01*
X149455303Y-84974317D01*
X149455301Y-84974317D01*
X149431738Y-84971840D01*
X149324702Y-84960591D01*
X149324697Y-84960590D01*
X149324654Y-84960585D01*
X149199163Y-84921739D01*
X149083607Y-84859258D01*
X148982388Y-84775522D01*
X148899361Y-84673721D01*
X148837688Y-84557731D01*
X148799719Y-84431972D01*
X148786900Y-84301233D01*
X148786900Y-83058737D01*
X148786951Y-83051426D01*
X148786952Y-83051421D01*
X148786966Y-83049369D01*
X148801609Y-82918822D01*
X148841330Y-82793605D01*
X148904616Y-82678488D01*
X148989057Y-82577855D01*
X149091435Y-82495541D01*
X149207852Y-82434680D01*
X149333874Y-82397589D01*
X149333915Y-82397585D01*
X149333919Y-82397584D01*
X149464698Y-82385683D01*
X149464699Y-82385683D01*
X149488262Y-82388160D01*
X149488262Y-82388160D01*
G37*
G36*
X154568262Y-82388160D02*
X154675298Y-82399409D01*
X154675303Y-82399410D01*
X154675346Y-82399415D01*
X154800837Y-82438261D01*
X154916393Y-82500742D01*
X155017612Y-82584478D01*
X155100639Y-82686279D01*
X155162312Y-82802269D01*
X155200281Y-82928028D01*
X155213100Y-83058767D01*
X155213100Y-84301263D01*
X155213049Y-84308574D01*
X155213048Y-84308579D01*
X155213034Y-84310631D01*
X155198391Y-84441178D01*
X155158670Y-84566395D01*
X155095384Y-84681512D01*
X155010943Y-84782145D01*
X154908565Y-84864459D01*
X154792148Y-84925320D01*
X154666126Y-84962411D01*
X154666085Y-84962415D01*
X154666081Y-84962416D01*
X154535303Y-84974317D01*
X154535301Y-84974317D01*
X154511738Y-84971840D01*
X154404702Y-84960591D01*
X154404697Y-84960590D01*
X154404654Y-84960585D01*
X154279163Y-84921739D01*
X154163607Y-84859258D01*
X154062388Y-84775522D01*
X153979361Y-84673721D01*
X153917688Y-84557731D01*
X153879719Y-84431972D01*
X153866900Y-84301233D01*
X153866900Y-83058737D01*
X153866951Y-83051426D01*
X153866952Y-83051421D01*
X153866966Y-83049369D01*
X153881609Y-82918822D01*
X153921330Y-82793605D01*
X153984616Y-82678488D01*
X154069057Y-82577855D01*
X154171435Y-82495541D01*
X154287852Y-82434680D01*
X154413874Y-82397589D01*
X154413915Y-82397585D01*
X154413919Y-82397584D01*
X154544698Y-82385683D01*
X154544699Y-82385683D01*
X154568262Y-82388160D01*
X154568262Y-82388160D01*
G37*
G36*
X141868262Y-82388160D02*
X141975298Y-82399409D01*
X141975303Y-82399410D01*
X141975346Y-82399415D01*
X142100837Y-82438261D01*
X142216393Y-82500742D01*
X142317612Y-82584478D01*
X142400639Y-82686279D01*
X142462312Y-82802269D01*
X142500281Y-82928028D01*
X142513100Y-83058767D01*
X142513100Y-84301263D01*
X142513049Y-84308574D01*
X142513048Y-84308579D01*
X142513034Y-84310631D01*
X142498391Y-84441178D01*
X142458670Y-84566395D01*
X142395384Y-84681512D01*
X142310943Y-84782145D01*
X142208565Y-84864459D01*
X142092148Y-84925320D01*
X141966126Y-84962411D01*
X141966085Y-84962415D01*
X141966081Y-84962416D01*
X141835303Y-84974317D01*
X141835301Y-84974317D01*
X141811738Y-84971840D01*
X141704702Y-84960591D01*
X141704697Y-84960590D01*
X141704654Y-84960585D01*
X141579163Y-84921739D01*
X141463607Y-84859258D01*
X141362388Y-84775522D01*
X141279361Y-84673721D01*
X141217688Y-84557731D01*
X141179719Y-84431972D01*
X141166900Y-84301233D01*
X141166900Y-83058737D01*
X141166951Y-83051426D01*
X141166952Y-83051421D01*
X141166966Y-83049369D01*
X141181609Y-82918822D01*
X141221330Y-82793605D01*
X141284616Y-82678488D01*
X141369057Y-82577855D01*
X141471435Y-82495541D01*
X141587852Y-82434680D01*
X141713874Y-82397589D01*
X141713915Y-82397585D01*
X141713919Y-82397584D01*
X141844698Y-82385683D01*
X141844699Y-82385683D01*
X141868262Y-82388160D01*
X141868262Y-82388160D01*
G37*
G36*
X139328262Y-82388160D02*
X139435298Y-82399409D01*
X139435303Y-82399410D01*
X139435346Y-82399415D01*
X139560837Y-82438261D01*
X139676393Y-82500742D01*
X139777612Y-82584478D01*
X139860639Y-82686279D01*
X139922312Y-82802269D01*
X139960281Y-82928028D01*
X139973100Y-83058767D01*
X139973100Y-84301263D01*
X139973049Y-84308574D01*
X139973048Y-84308579D01*
X139973034Y-84310631D01*
X139958391Y-84441178D01*
X139918670Y-84566395D01*
X139855384Y-84681512D01*
X139770943Y-84782145D01*
X139668565Y-84864459D01*
X139552148Y-84925320D01*
X139426126Y-84962411D01*
X139426085Y-84962415D01*
X139426081Y-84962416D01*
X139295303Y-84974317D01*
X139295301Y-84974317D01*
X139271738Y-84971840D01*
X139164702Y-84960591D01*
X139164697Y-84960590D01*
X139164654Y-84960585D01*
X139039163Y-84921739D01*
X138923607Y-84859258D01*
X138822388Y-84775522D01*
X138739361Y-84673721D01*
X138677688Y-84557731D01*
X138639719Y-84431972D01*
X138626900Y-84301233D01*
X138626900Y-83058737D01*
X138626951Y-83051426D01*
X138626952Y-83051421D01*
X138626966Y-83049369D01*
X138641609Y-82918822D01*
X138681330Y-82793605D01*
X138744616Y-82678488D01*
X138829057Y-82577855D01*
X138931435Y-82495541D01*
X139047852Y-82434680D01*
X139173874Y-82397589D01*
X139173915Y-82397585D01*
X139173919Y-82397584D01*
X139304698Y-82385683D01*
X139304699Y-82385683D01*
X139328262Y-82388160D01*
X139328262Y-82388160D01*
G37*
G36*
X147748262Y-78248160D02*
X147855298Y-78259409D01*
X147855303Y-78259410D01*
X147855346Y-78259415D01*
X147980837Y-78298261D01*
X148096393Y-78360742D01*
X148197612Y-78444478D01*
X148280639Y-78546279D01*
X148342312Y-78662269D01*
X148380281Y-78788028D01*
X148393100Y-78918767D01*
X148393100Y-80161263D01*
X148393049Y-80168574D01*
X148393048Y-80168579D01*
X148393034Y-80170631D01*
X148378391Y-80301178D01*
X148338670Y-80426395D01*
X148275384Y-80541512D01*
X148190943Y-80642145D01*
X148088565Y-80724459D01*
X147972148Y-80785320D01*
X147846126Y-80822411D01*
X147846085Y-80822415D01*
X147846081Y-80822416D01*
X147715303Y-80834317D01*
X147715301Y-80834317D01*
X147691738Y-80831840D01*
X147584702Y-80820591D01*
X147584697Y-80820590D01*
X147584654Y-80820585D01*
X147459163Y-80781739D01*
X147343607Y-80719258D01*
X147242388Y-80635522D01*
X147159361Y-80533721D01*
X147097688Y-80417731D01*
X147059719Y-80291972D01*
X147046900Y-80161233D01*
X147046900Y-78918737D01*
X147046951Y-78911426D01*
X147046952Y-78911421D01*
X147046966Y-78909369D01*
X147061609Y-78778822D01*
X147101330Y-78653605D01*
X147164616Y-78538488D01*
X147249057Y-78437855D01*
X147351435Y-78355541D01*
X147467852Y-78294680D01*
X147593874Y-78257589D01*
X147593915Y-78257585D01*
X147593919Y-78257584D01*
X147724698Y-78245683D01*
X147724699Y-78245683D01*
X147748262Y-78248160D01*
X147748262Y-78248160D01*
G37*
G36*
X162988262Y-78248160D02*
X163095298Y-78259409D01*
X163095303Y-78259410D01*
X163095346Y-78259415D01*
X163220837Y-78298261D01*
X163336393Y-78360742D01*
X163437612Y-78444478D01*
X163520639Y-78546279D01*
X163582312Y-78662269D01*
X163620281Y-78788028D01*
X163633100Y-78918767D01*
X163633100Y-80161263D01*
X163633049Y-80168574D01*
X163633048Y-80168579D01*
X163633034Y-80170631D01*
X163618391Y-80301178D01*
X163578670Y-80426395D01*
X163515384Y-80541512D01*
X163430943Y-80642145D01*
X163328565Y-80724459D01*
X163212148Y-80785320D01*
X163086126Y-80822411D01*
X163086085Y-80822415D01*
X163086081Y-80822416D01*
X162955303Y-80834317D01*
X162955301Y-80834317D01*
X162931738Y-80831840D01*
X162824702Y-80820591D01*
X162824697Y-80820590D01*
X162824654Y-80820585D01*
X162699163Y-80781739D01*
X162583607Y-80719258D01*
X162482388Y-80635522D01*
X162399361Y-80533721D01*
X162337688Y-80417731D01*
X162299719Y-80291972D01*
X162286900Y-80161233D01*
X162286900Y-78918737D01*
X162286951Y-78911426D01*
X162286952Y-78911421D01*
X162286966Y-78909369D01*
X162301609Y-78778822D01*
X162341330Y-78653605D01*
X162404616Y-78538488D01*
X162489057Y-78437855D01*
X162591435Y-78355541D01*
X162707852Y-78294680D01*
X162833874Y-78257589D01*
X162833915Y-78257585D01*
X162833919Y-78257584D01*
X162964698Y-78245683D01*
X162964699Y-78245683D01*
X162988262Y-78248160D01*
X162988262Y-78248160D01*
G37*
G36*
X160448262Y-78248160D02*
X160555298Y-78259409D01*
X160555303Y-78259410D01*
X160555346Y-78259415D01*
X160680837Y-78298261D01*
X160796393Y-78360742D01*
X160897612Y-78444478D01*
X160980639Y-78546279D01*
X161042312Y-78662269D01*
X161080281Y-78788028D01*
X161093100Y-78918767D01*
X161093100Y-80161263D01*
X161093049Y-80168574D01*
X161093048Y-80168579D01*
X161093034Y-80170631D01*
X161078391Y-80301178D01*
X161038670Y-80426395D01*
X160975384Y-80541512D01*
X160890943Y-80642145D01*
X160788565Y-80724459D01*
X160672148Y-80785320D01*
X160546126Y-80822411D01*
X160546085Y-80822415D01*
X160546081Y-80822416D01*
X160415303Y-80834317D01*
X160415301Y-80834317D01*
X160391738Y-80831840D01*
X160284702Y-80820591D01*
X160284697Y-80820590D01*
X160284654Y-80820585D01*
X160159163Y-80781739D01*
X160043607Y-80719258D01*
X159942388Y-80635522D01*
X159859361Y-80533721D01*
X159797688Y-80417731D01*
X159759719Y-80291972D01*
X159746900Y-80161233D01*
X159746900Y-78918737D01*
X159746951Y-78911426D01*
X159746952Y-78911421D01*
X159746966Y-78909369D01*
X159761609Y-78778822D01*
X159801330Y-78653605D01*
X159864616Y-78538488D01*
X159949057Y-78437855D01*
X160051435Y-78355541D01*
X160167852Y-78294680D01*
X160293874Y-78257589D01*
X160293915Y-78257585D01*
X160293919Y-78257584D01*
X160424698Y-78245683D01*
X160424699Y-78245683D01*
X160448262Y-78248160D01*
X160448262Y-78248160D01*
G37*
G36*
X157908262Y-78248160D02*
X158015298Y-78259409D01*
X158015303Y-78259410D01*
X158015346Y-78259415D01*
X158140837Y-78298261D01*
X158256393Y-78360742D01*
X158357612Y-78444478D01*
X158440639Y-78546279D01*
X158502312Y-78662269D01*
X158540281Y-78788028D01*
X158553100Y-78918767D01*
X158553100Y-80161263D01*
X158553049Y-80168574D01*
X158553048Y-80168579D01*
X158553034Y-80170631D01*
X158538391Y-80301178D01*
X158498670Y-80426395D01*
X158435384Y-80541512D01*
X158350943Y-80642145D01*
X158248565Y-80724459D01*
X158132148Y-80785320D01*
X158006126Y-80822411D01*
X158006085Y-80822415D01*
X158006081Y-80822416D01*
X157875303Y-80834317D01*
X157875301Y-80834317D01*
X157851738Y-80831840D01*
X157744702Y-80820591D01*
X157744697Y-80820590D01*
X157744654Y-80820585D01*
X157619163Y-80781739D01*
X157503607Y-80719258D01*
X157402388Y-80635522D01*
X157319361Y-80533721D01*
X157257688Y-80417731D01*
X157219719Y-80291972D01*
X157206900Y-80161233D01*
X157206900Y-78918737D01*
X157206951Y-78911426D01*
X157206952Y-78911421D01*
X157206966Y-78909369D01*
X157221609Y-78778822D01*
X157261330Y-78653605D01*
X157324616Y-78538488D01*
X157409057Y-78437855D01*
X157511435Y-78355541D01*
X157627852Y-78294680D01*
X157753874Y-78257589D01*
X157753915Y-78257585D01*
X157753919Y-78257584D01*
X157884698Y-78245683D01*
X157884699Y-78245683D01*
X157908262Y-78248160D01*
X157908262Y-78248160D01*
G37*
G36*
X155368262Y-78248160D02*
X155475298Y-78259409D01*
X155475303Y-78259410D01*
X155475346Y-78259415D01*
X155600837Y-78298261D01*
X155716393Y-78360742D01*
X155817612Y-78444478D01*
X155900639Y-78546279D01*
X155962312Y-78662269D01*
X156000281Y-78788028D01*
X156013100Y-78918767D01*
X156013100Y-80161263D01*
X156013049Y-80168574D01*
X156013048Y-80168579D01*
X156013034Y-80170631D01*
X155998391Y-80301178D01*
X155958670Y-80426395D01*
X155895384Y-80541512D01*
X155810943Y-80642145D01*
X155708565Y-80724459D01*
X155592148Y-80785320D01*
X155466126Y-80822411D01*
X155466085Y-80822415D01*
X155466081Y-80822416D01*
X155335303Y-80834317D01*
X155335301Y-80834317D01*
X155311738Y-80831840D01*
X155204702Y-80820591D01*
X155204697Y-80820590D01*
X155204654Y-80820585D01*
X155079163Y-80781739D01*
X154963607Y-80719258D01*
X154862388Y-80635522D01*
X154779361Y-80533721D01*
X154717688Y-80417731D01*
X154679719Y-80291972D01*
X154666900Y-80161233D01*
X154666900Y-78918737D01*
X154666951Y-78911426D01*
X154666952Y-78911421D01*
X154666966Y-78909369D01*
X154681609Y-78778822D01*
X154721330Y-78653605D01*
X154784616Y-78538488D01*
X154869057Y-78437855D01*
X154971435Y-78355541D01*
X155087852Y-78294680D01*
X155213874Y-78257589D01*
X155213915Y-78257585D01*
X155213919Y-78257584D01*
X155344698Y-78245683D01*
X155344699Y-78245683D01*
X155368262Y-78248160D01*
X155368262Y-78248160D01*
G37*
G36*
X152828262Y-78248160D02*
X152935298Y-78259409D01*
X152935303Y-78259410D01*
X152935346Y-78259415D01*
X153060837Y-78298261D01*
X153176393Y-78360742D01*
X153277612Y-78444478D01*
X153360639Y-78546279D01*
X153422312Y-78662269D01*
X153460281Y-78788028D01*
X153473100Y-78918767D01*
X153473100Y-80161263D01*
X153473049Y-80168574D01*
X153473048Y-80168579D01*
X153473034Y-80170631D01*
X153458391Y-80301178D01*
X153418670Y-80426395D01*
X153355384Y-80541512D01*
X153270943Y-80642145D01*
X153168565Y-80724459D01*
X153052148Y-80785320D01*
X152926126Y-80822411D01*
X152926085Y-80822415D01*
X152926081Y-80822416D01*
X152795303Y-80834317D01*
X152795301Y-80834317D01*
X152771738Y-80831840D01*
X152664702Y-80820591D01*
X152664697Y-80820590D01*
X152664654Y-80820585D01*
X152539163Y-80781739D01*
X152423607Y-80719258D01*
X152322388Y-80635522D01*
X152239361Y-80533721D01*
X152177688Y-80417731D01*
X152139719Y-80291972D01*
X152126900Y-80161233D01*
X152126900Y-78918737D01*
X152126951Y-78911426D01*
X152126952Y-78911421D01*
X152126966Y-78909369D01*
X152141609Y-78778822D01*
X152181330Y-78653605D01*
X152244616Y-78538488D01*
X152329057Y-78437855D01*
X152431435Y-78355541D01*
X152547852Y-78294680D01*
X152673874Y-78257589D01*
X152673915Y-78257585D01*
X152673919Y-78257584D01*
X152804698Y-78245683D01*
X152804699Y-78245683D01*
X152828262Y-78248160D01*
X152828262Y-78248160D01*
G37*
G36*
X150288262Y-78248160D02*
X150395298Y-78259409D01*
X150395303Y-78259410D01*
X150395346Y-78259415D01*
X150520837Y-78298261D01*
X150636393Y-78360742D01*
X150737612Y-78444478D01*
X150820639Y-78546279D01*
X150882312Y-78662269D01*
X150920281Y-78788028D01*
X150933100Y-78918767D01*
X150933100Y-80161263D01*
X150933049Y-80168574D01*
X150933048Y-80168579D01*
X150933034Y-80170631D01*
X150918391Y-80301178D01*
X150878670Y-80426395D01*
X150815384Y-80541512D01*
X150730943Y-80642145D01*
X150628565Y-80724459D01*
X150512148Y-80785320D01*
X150386126Y-80822411D01*
X150386085Y-80822415D01*
X150386081Y-80822416D01*
X150255303Y-80834317D01*
X150255301Y-80834317D01*
X150231738Y-80831840D01*
X150124702Y-80820591D01*
X150124697Y-80820590D01*
X150124654Y-80820585D01*
X149999163Y-80781739D01*
X149883607Y-80719258D01*
X149782388Y-80635522D01*
X149699361Y-80533721D01*
X149637688Y-80417731D01*
X149599719Y-80291972D01*
X149586900Y-80161233D01*
X149586900Y-78918737D01*
X149586951Y-78911426D01*
X149586952Y-78911421D01*
X149586966Y-78909369D01*
X149601609Y-78778822D01*
X149641330Y-78653605D01*
X149704616Y-78538488D01*
X149789057Y-78437855D01*
X149891435Y-78355541D01*
X150007852Y-78294680D01*
X150133874Y-78257589D01*
X150133915Y-78257585D01*
X150133919Y-78257584D01*
X150264698Y-78245683D01*
X150264699Y-78245683D01*
X150288262Y-78248160D01*
X150288262Y-78248160D01*
G37*
G36*
X140128262Y-78248160D02*
X140235298Y-78259409D01*
X140235303Y-78259410D01*
X140235346Y-78259415D01*
X140360837Y-78298261D01*
X140476393Y-78360742D01*
X140577612Y-78444478D01*
X140660639Y-78546279D01*
X140722312Y-78662269D01*
X140760281Y-78788028D01*
X140773100Y-78918767D01*
X140773100Y-80161263D01*
X140773049Y-80168574D01*
X140773048Y-80168579D01*
X140773034Y-80170631D01*
X140758391Y-80301178D01*
X140718670Y-80426395D01*
X140655384Y-80541512D01*
X140570943Y-80642145D01*
X140468565Y-80724459D01*
X140352148Y-80785320D01*
X140226126Y-80822411D01*
X140226085Y-80822415D01*
X140226081Y-80822416D01*
X140095303Y-80834317D01*
X140095301Y-80834317D01*
X140071738Y-80831840D01*
X139964702Y-80820591D01*
X139964697Y-80820590D01*
X139964654Y-80820585D01*
X139839163Y-80781739D01*
X139723607Y-80719258D01*
X139622388Y-80635522D01*
X139539361Y-80533721D01*
X139477688Y-80417731D01*
X139439719Y-80291972D01*
X139426900Y-80161233D01*
X139426900Y-78918737D01*
X139426951Y-78911426D01*
X139426952Y-78911421D01*
X139426966Y-78909369D01*
X139441609Y-78778822D01*
X139481330Y-78653605D01*
X139544616Y-78538488D01*
X139629057Y-78437855D01*
X139731435Y-78355541D01*
X139847852Y-78294680D01*
X139973874Y-78257589D01*
X139973915Y-78257585D01*
X139973919Y-78257584D01*
X140104698Y-78245683D01*
X140104699Y-78245683D01*
X140128262Y-78248160D01*
X140128262Y-78248160D01*
G37*
G36*
X142668262Y-78248160D02*
X142775298Y-78259409D01*
X142775303Y-78259410D01*
X142775346Y-78259415D01*
X142900837Y-78298261D01*
X143016393Y-78360742D01*
X143117612Y-78444478D01*
X143200639Y-78546279D01*
X143262312Y-78662269D01*
X143300281Y-78788028D01*
X143313100Y-78918767D01*
X143313100Y-80161263D01*
X143313049Y-80168574D01*
X143313048Y-80168579D01*
X143313034Y-80170631D01*
X143298391Y-80301178D01*
X143258670Y-80426395D01*
X143195384Y-80541512D01*
X143110943Y-80642145D01*
X143008565Y-80724459D01*
X142892148Y-80785320D01*
X142766126Y-80822411D01*
X142766085Y-80822415D01*
X142766081Y-80822416D01*
X142635303Y-80834317D01*
X142635301Y-80834317D01*
X142611738Y-80831840D01*
X142504702Y-80820591D01*
X142504697Y-80820590D01*
X142504654Y-80820585D01*
X142379163Y-80781739D01*
X142263607Y-80719258D01*
X142162388Y-80635522D01*
X142079361Y-80533721D01*
X142017688Y-80417731D01*
X141979719Y-80291972D01*
X141966900Y-80161233D01*
X141966900Y-78918737D01*
X141966951Y-78911426D01*
X141966952Y-78911421D01*
X141966966Y-78909369D01*
X141981609Y-78778822D01*
X142021330Y-78653605D01*
X142084616Y-78538488D01*
X142169057Y-78437855D01*
X142271435Y-78355541D01*
X142387852Y-78294680D01*
X142513874Y-78257589D01*
X142513915Y-78257585D01*
X142513919Y-78257584D01*
X142644698Y-78245683D01*
X142644699Y-78245683D01*
X142668262Y-78248160D01*
X142668262Y-78248160D01*
G37*
G36*
X145208262Y-78248160D02*
X145315298Y-78259409D01*
X145315303Y-78259410D01*
X145315346Y-78259415D01*
X145440837Y-78298261D01*
X145556393Y-78360742D01*
X145657612Y-78444478D01*
X145740639Y-78546279D01*
X145802312Y-78662269D01*
X145840281Y-78788028D01*
X145853100Y-78918767D01*
X145853100Y-80161263D01*
X145853049Y-80168574D01*
X145853048Y-80168579D01*
X145853034Y-80170631D01*
X145838391Y-80301178D01*
X145798670Y-80426395D01*
X145735384Y-80541512D01*
X145650943Y-80642145D01*
X145548565Y-80724459D01*
X145432148Y-80785320D01*
X145306126Y-80822411D01*
X145306085Y-80822415D01*
X145306081Y-80822416D01*
X145175303Y-80834317D01*
X145175301Y-80834317D01*
X145151738Y-80831840D01*
X145044702Y-80820591D01*
X145044697Y-80820590D01*
X145044654Y-80820585D01*
X144919163Y-80781739D01*
X144803607Y-80719258D01*
X144702388Y-80635522D01*
X144619361Y-80533721D01*
X144557688Y-80417731D01*
X144519719Y-80291972D01*
X144506900Y-80161233D01*
X144506900Y-78918737D01*
X144506951Y-78911426D01*
X144506952Y-78911421D01*
X144506966Y-78909369D01*
X144521609Y-78778822D01*
X144561330Y-78653605D01*
X144624616Y-78538488D01*
X144709057Y-78437855D01*
X144811435Y-78355541D01*
X144927852Y-78294680D01*
X145053874Y-78257589D01*
X145053915Y-78257585D01*
X145053919Y-78257584D01*
X145184698Y-78245683D01*
X145184699Y-78245683D01*
X145208262Y-78248160D01*
X145208262Y-78248160D01*
G37*
G36*
X165528262Y-78248160D02*
X165635298Y-78259409D01*
X165635303Y-78259410D01*
X165635346Y-78259415D01*
X165760837Y-78298261D01*
X165876393Y-78360742D01*
X165977612Y-78444478D01*
X166060639Y-78546279D01*
X166122312Y-78662269D01*
X166160281Y-78788028D01*
X166173100Y-78918767D01*
X166173100Y-80161263D01*
X166173049Y-80168574D01*
X166173048Y-80168579D01*
X166173034Y-80170631D01*
X166158391Y-80301178D01*
X166118670Y-80426395D01*
X166055384Y-80541512D01*
X165970943Y-80642145D01*
X165868565Y-80724459D01*
X165752148Y-80785320D01*
X165626126Y-80822411D01*
X165626085Y-80822415D01*
X165626081Y-80822416D01*
X165495303Y-80834317D01*
X165495301Y-80834317D01*
X165471738Y-80831840D01*
X165364702Y-80820591D01*
X165364697Y-80820590D01*
X165364654Y-80820585D01*
X165239163Y-80781739D01*
X165123607Y-80719258D01*
X165022388Y-80635522D01*
X164939361Y-80533721D01*
X164877688Y-80417731D01*
X164839719Y-80291972D01*
X164826900Y-80161233D01*
X164826900Y-78918737D01*
X164826951Y-78911426D01*
X164826952Y-78911421D01*
X164826966Y-78909369D01*
X164841609Y-78778822D01*
X164881330Y-78653605D01*
X164944616Y-78538488D01*
X165029057Y-78437855D01*
X165131435Y-78355541D01*
X165247852Y-78294680D01*
X165373874Y-78257589D01*
X165373915Y-78257585D01*
X165373919Y-78257584D01*
X165504698Y-78245683D01*
X165504699Y-78245683D01*
X165528262Y-78248160D01*
X165528262Y-78248160D01*
G37*
G36*
X168439557Y-72532015D02*
X168444512Y-72532292D01*
X168468032Y-72532456D01*
X168491068Y-72537185D01*
X168495973Y-72537945D01*
X168553476Y-72543989D01*
X168553481Y-72543991D01*
X168553523Y-72543995D01*
X168608868Y-72561127D01*
X168613513Y-72562320D01*
X168629038Y-72565506D01*
X168643638Y-72571644D01*
X168648148Y-72573286D01*
X168709777Y-72592363D01*
X168766688Y-72623135D01*
X168770683Y-72625049D01*
X168780549Y-72629197D01*
X168789425Y-72635183D01*
X168793217Y-72637479D01*
X168853660Y-72670161D01*
X168906821Y-72714139D01*
X168909924Y-72716461D01*
X168916811Y-72721106D01*
X168922667Y-72727003D01*
X168925534Y-72729620D01*
X168979691Y-72774423D01*
X169024336Y-72829164D01*
X169026470Y-72831534D01*
X169032626Y-72837733D01*
X169037458Y-72845006D01*
X169039354Y-72847578D01*
X169083071Y-72901180D01*
X169115741Y-72962623D01*
X169116953Y-72964656D01*
X169123581Y-72974631D01*
X169128146Y-72985707D01*
X169129154Y-72987849D01*
X169159862Y-73045602D01*
X169178901Y-73108663D01*
X169179388Y-73110029D01*
X169186215Y-73126592D01*
X169189694Y-73144162D01*
X169190047Y-73145579D01*
X169207139Y-73202189D01*
X169212959Y-73261547D01*
X169213028Y-73262015D01*
X169218068Y-73287471D01*
X169218068Y-73287476D01*
X169218136Y-73287820D01*
X169217815Y-73310806D01*
X169217835Y-73311274D01*
X169223100Y-73364977D01*
X169223100Y-73775056D01*
X169223033Y-73784668D01*
X169223032Y-73784674D01*
X169223018Y-73786725D01*
X169215864Y-73850509D01*
X169215514Y-73875550D01*
X169215438Y-73875884D01*
X169215438Y-73875897D01*
X169210855Y-73896068D01*
X169210554Y-73897850D01*
X169204786Y-73949274D01*
X169183609Y-74016032D01*
X169183552Y-74016241D01*
X169179103Y-74035826D01*
X169173475Y-74048465D01*
X169172536Y-74050939D01*
X169155327Y-74105186D01*
X169118269Y-74172595D01*
X169117696Y-74173749D01*
X169112251Y-74185978D01*
X169107176Y-74193173D01*
X169105347Y-74196100D01*
X169076528Y-74248522D01*
X169024528Y-74310493D01*
X169023175Y-74312250D01*
X169017509Y-74320282D01*
X169013066Y-74324513D01*
X169010223Y-74327541D01*
X168971388Y-74373823D01*
X168907703Y-74425027D01*
X168905406Y-74427038D01*
X168898488Y-74433626D01*
X168893476Y-74436806D01*
X168889607Y-74439576D01*
X168843913Y-74476315D01*
X168773515Y-74513118D01*
X168770338Y-74514952D01*
X168759706Y-74521700D01*
X168752056Y-74524667D01*
X168747283Y-74526832D01*
X168698958Y-74552096D01*
X168627883Y-74573015D01*
X168624000Y-74574336D01*
X168606470Y-74581135D01*
X168593796Y-74583370D01*
X168588393Y-74584637D01*
X168542044Y-74598278D01*
X168542008Y-74598281D01*
X168541999Y-74598284D01*
X168476364Y-74604258D01*
X168472147Y-74604821D01*
X168444613Y-74609676D01*
X168424865Y-74609262D01*
X168419197Y-74609460D01*
X168379151Y-74613104D01*
X168324230Y-74607332D01*
X168319984Y-74607065D01*
X168280285Y-74606233D01*
X168252385Y-74600099D01*
X168246786Y-74599192D01*
X168216523Y-74596011D01*
X168216517Y-74596009D01*
X168216477Y-74596005D01*
X168176052Y-74583491D01*
X168172111Y-74582450D01*
X168119756Y-74570939D01*
X168084026Y-74555329D01*
X168078838Y-74553399D01*
X168060223Y-74547637D01*
X168035729Y-74534393D01*
X168032475Y-74532806D01*
X167969143Y-74505137D01*
X167927563Y-74476238D01*
X167923131Y-74473511D01*
X167916340Y-74469839D01*
X167906900Y-74462030D01*
X167904513Y-74460218D01*
X167834183Y-74411337D01*
X167720008Y-74293106D01*
X167630972Y-74154949D01*
X167570465Y-74002126D01*
X167540797Y-73840472D01*
X167543091Y-73676127D01*
X167545790Y-73663431D01*
X167546900Y-73652869D01*
X167546900Y-73478348D01*
X167546065Y-73469178D01*
X167540797Y-73440472D01*
X167543091Y-73276127D01*
X167577264Y-73115356D01*
X167642011Y-72964288D01*
X167734870Y-72828671D01*
X167797107Y-72767724D01*
X167798690Y-72766015D01*
X167800437Y-72764464D01*
X167852300Y-72713676D01*
X167913041Y-72673928D01*
X167916218Y-72671620D01*
X167926087Y-72663685D01*
X167937078Y-72657939D01*
X167940923Y-72655683D01*
X167989832Y-72623677D01*
X168044028Y-72601781D01*
X168048072Y-72599912D01*
X168071042Y-72587904D01*
X168095718Y-72580641D01*
X168100284Y-72579052D01*
X168142225Y-72562106D01*
X168186660Y-72553630D01*
X168191355Y-72552494D01*
X168227956Y-72541722D01*
X168227990Y-72541719D01*
X168228000Y-72541716D01*
X168265909Y-72538266D01*
X168270824Y-72537575D01*
X168303671Y-72531309D01*
X168337116Y-72531542D01*
X168342074Y-72531334D01*
X168390848Y-72526896D01*
X168439557Y-72532015D01*
X168439557Y-72532015D01*
G37*
G36*
X134388845Y-72531940D02*
X134393800Y-72532217D01*
X134428032Y-72532456D01*
X134461561Y-72539339D01*
X134466466Y-72540099D01*
X134503478Y-72543989D01*
X134503484Y-72543991D01*
X134503523Y-72543995D01*
X134539162Y-72555027D01*
X134543828Y-72556225D01*
X134589029Y-72565504D01*
X134631572Y-72583387D01*
X134636088Y-72585030D01*
X134659777Y-72592363D01*
X134681762Y-72604251D01*
X134685751Y-72606162D01*
X134740553Y-72629199D01*
X134789832Y-72662438D01*
X134793622Y-72664733D01*
X134803660Y-72670161D01*
X134812665Y-72677611D01*
X134815772Y-72679935D01*
X134876813Y-72721108D01*
X134928694Y-72773352D01*
X134929645Y-72774221D01*
X134930509Y-72775180D01*
X134992626Y-72837732D01*
X135083580Y-72974630D01*
X135146213Y-73126588D01*
X135178068Y-73287471D01*
X135178068Y-73287476D01*
X135178136Y-73287820D01*
X135175514Y-73475550D01*
X135175438Y-73475884D01*
X135175438Y-73475899D01*
X135174362Y-73480633D01*
X135173100Y-73491887D01*
X135173100Y-73775056D01*
X135173033Y-73784668D01*
X135173032Y-73784674D01*
X135173018Y-73786725D01*
X135165864Y-73850509D01*
X135165514Y-73875550D01*
X135165438Y-73875884D01*
X135165438Y-73875897D01*
X135160855Y-73896068D01*
X135160554Y-73897850D01*
X135154786Y-73949274D01*
X135133609Y-74016032D01*
X135133552Y-74016241D01*
X135129103Y-74035826D01*
X135123475Y-74048465D01*
X135122536Y-74050939D01*
X135105327Y-74105186D01*
X135068269Y-74172595D01*
X135067696Y-74173749D01*
X135062251Y-74185978D01*
X135057176Y-74193173D01*
X135055347Y-74196100D01*
X135026528Y-74248522D01*
X134974528Y-74310493D01*
X134973175Y-74312250D01*
X134967509Y-74320282D01*
X134963066Y-74324513D01*
X134960223Y-74327541D01*
X134921388Y-74373823D01*
X134857703Y-74425027D01*
X134855406Y-74427038D01*
X134848488Y-74433626D01*
X134843476Y-74436806D01*
X134839607Y-74439576D01*
X134793913Y-74476315D01*
X134723515Y-74513118D01*
X134720338Y-74514952D01*
X134709706Y-74521700D01*
X134702056Y-74524667D01*
X134697283Y-74526832D01*
X134648958Y-74552096D01*
X134577883Y-74573015D01*
X134574000Y-74574336D01*
X134556470Y-74581135D01*
X134543796Y-74583370D01*
X134538393Y-74584637D01*
X134492044Y-74598278D01*
X134492008Y-74598281D01*
X134491999Y-74598284D01*
X134426364Y-74604258D01*
X134422147Y-74604821D01*
X134394613Y-74609676D01*
X134374865Y-74609262D01*
X134369197Y-74609460D01*
X134329151Y-74613104D01*
X134274230Y-74607332D01*
X134269984Y-74607065D01*
X134230285Y-74606233D01*
X134202385Y-74600099D01*
X134196786Y-74599192D01*
X134166523Y-74596011D01*
X134166517Y-74596009D01*
X134166477Y-74596005D01*
X134126052Y-74583491D01*
X134122111Y-74582450D01*
X134069756Y-74570939D01*
X134034026Y-74555329D01*
X134028838Y-74553399D01*
X134010223Y-74547637D01*
X133985729Y-74534393D01*
X133982475Y-74532806D01*
X133919143Y-74505137D01*
X133877563Y-74476238D01*
X133873131Y-74473511D01*
X133866340Y-74469839D01*
X133856900Y-74462030D01*
X133854513Y-74460218D01*
X133784183Y-74411337D01*
X133670008Y-74293106D01*
X133580972Y-74154949D01*
X133520465Y-74002126D01*
X133490797Y-73840472D01*
X133493091Y-73676127D01*
X133495790Y-73663431D01*
X133496900Y-73652869D01*
X133496900Y-73364944D01*
X133496967Y-73355332D01*
X133496968Y-73355326D01*
X133496982Y-73353275D01*
X133502699Y-73302301D01*
X133502734Y-73301752D01*
X133503092Y-73276125D01*
X133508420Y-73251054D01*
X133508509Y-73250503D01*
X133515214Y-73190726D01*
X133533261Y-73133835D01*
X133533645Y-73132382D01*
X133537263Y-73115361D01*
X133544121Y-73099360D01*
X133544643Y-73097957D01*
X133564673Y-73034814D01*
X133596357Y-72977180D01*
X133597418Y-72975006D01*
X133602013Y-72964286D01*
X133608599Y-72954667D01*
X133609867Y-72952606D01*
X133643472Y-72891478D01*
X133688058Y-72838343D01*
X133690003Y-72835780D01*
X133694870Y-72828672D01*
X133701026Y-72822643D01*
X133703218Y-72820275D01*
X133748612Y-72766177D01*
X133803376Y-72722146D01*
X133806317Y-72719536D01*
X133812304Y-72713673D01*
X133819308Y-72709090D01*
X133822481Y-72706785D01*
X133876087Y-72663685D01*
X133936795Y-72631947D01*
X133940650Y-72629686D01*
X133949832Y-72623677D01*
X133960008Y-72619566D01*
X133964057Y-72617695D01*
X134021042Y-72587904D01*
X134082552Y-72569801D01*
X134087110Y-72568214D01*
X134102228Y-72562106D01*
X134118237Y-72559052D01*
X134122930Y-72557917D01*
X134177956Y-72541722D01*
X134177990Y-72541719D01*
X134178000Y-72541716D01*
X134235031Y-72536526D01*
X134239947Y-72535835D01*
X134263673Y-72531309D01*
X134287829Y-72531477D01*
X134292787Y-72531269D01*
X134340848Y-72526895D01*
X134388845Y-72531940D01*
X134388845Y-72531940D01*
G37*
G36*
X164628989Y-71782081D02*
X164633945Y-71782358D01*
X164648033Y-71782456D01*
X164661828Y-71785288D01*
X164666733Y-71786048D01*
X164728476Y-71792538D01*
X164728481Y-71792540D01*
X164728523Y-71792544D01*
X164787930Y-71810933D01*
X164792584Y-71812128D01*
X164809034Y-71815505D01*
X164824511Y-71822011D01*
X164829020Y-71823653D01*
X164884777Y-71840912D01*
X164936291Y-71868766D01*
X164940275Y-71870675D01*
X164960553Y-71879199D01*
X164978784Y-71891496D01*
X164982570Y-71893789D01*
X165028660Y-71918710D01*
X165069253Y-71952292D01*
X165072347Y-71954605D01*
X165096808Y-71971104D01*
X165117607Y-71992048D01*
X165120471Y-71994663D01*
X165154691Y-72022972D01*
X165182984Y-72057662D01*
X165185112Y-72060026D01*
X165212628Y-72087735D01*
X165234230Y-72120249D01*
X165236131Y-72122828D01*
X165258071Y-72149729D01*
X165274566Y-72180752D01*
X165275781Y-72182790D01*
X165303582Y-72224632D01*
X165322726Y-72271081D01*
X165323728Y-72273211D01*
X165334862Y-72294151D01*
X165341848Y-72317291D01*
X165342333Y-72318652D01*
X165366213Y-72376590D01*
X165378385Y-72438062D01*
X165378732Y-72439454D01*
X165382139Y-72450738D01*
X165383336Y-72462950D01*
X165383405Y-72463415D01*
X165398068Y-72537471D01*
X165398068Y-72537476D01*
X165398136Y-72537820D01*
X165397209Y-72604179D01*
X165397228Y-72604635D01*
X165398100Y-72613526D01*
X165398100Y-73042647D01*
X165398131Y-73042966D01*
X165398105Y-73044852D01*
X165398100Y-73045561D01*
X165398100Y-73047638D01*
X165398136Y-73047820D01*
X165398100Y-73050398D01*
X165398100Y-73532647D01*
X165398131Y-73532966D01*
X165398105Y-73534852D01*
X165398100Y-73535561D01*
X165398100Y-73537638D01*
X165398136Y-73537820D01*
X165398100Y-73540398D01*
X165398100Y-73626507D01*
X165398033Y-73636111D01*
X165398032Y-73636116D01*
X165398018Y-73638176D01*
X165396552Y-73651248D01*
X165395514Y-73725550D01*
X165395438Y-73725884D01*
X165395438Y-73725897D01*
X165381301Y-73788120D01*
X165381000Y-73789900D01*
X165379786Y-73800725D01*
X165375068Y-73815598D01*
X165375010Y-73815811D01*
X165359102Y-73885829D01*
X165337686Y-73933930D01*
X165336742Y-73936415D01*
X165330327Y-73956637D01*
X165316169Y-73982390D01*
X165315596Y-73983545D01*
X165292252Y-74035976D01*
X165268132Y-74070168D01*
X165266310Y-74073084D01*
X165251528Y-74099973D01*
X165224502Y-74132182D01*
X165223138Y-74133952D01*
X165197508Y-74170285D01*
X165174242Y-74192440D01*
X165171395Y-74195471D01*
X165146388Y-74225274D01*
X165105029Y-74258528D01*
X165102733Y-74260537D01*
X165078483Y-74283629D01*
X165058309Y-74296432D01*
X165054429Y-74299210D01*
X165018913Y-74327766D01*
X164963922Y-74356515D01*
X164960739Y-74358352D01*
X164939709Y-74371698D01*
X164923435Y-74378011D01*
X164918656Y-74380179D01*
X164873958Y-74403547D01*
X164808110Y-74422927D01*
X164804221Y-74424251D01*
X164786473Y-74431135D01*
X164773621Y-74433401D01*
X164768213Y-74434669D01*
X164717044Y-74449729D01*
X164717008Y-74449732D01*
X164716999Y-74449735D01*
X164644691Y-74456316D01*
X164640474Y-74456879D01*
X164624613Y-74459676D01*
X164613763Y-74459448D01*
X164608094Y-74459646D01*
X164554151Y-74464555D01*
X164480744Y-74456840D01*
X164476498Y-74456573D01*
X164460284Y-74456233D01*
X164449607Y-74453886D01*
X164444009Y-74452979D01*
X164391524Y-74447462D01*
X164391519Y-74447460D01*
X164391477Y-74447456D01*
X164322600Y-74426135D01*
X164318674Y-74425098D01*
X164299759Y-74420940D01*
X164287576Y-74415617D01*
X164282391Y-74413689D01*
X164235223Y-74399088D01*
X164175709Y-74366909D01*
X164172455Y-74365322D01*
X164149149Y-74355140D01*
X164134484Y-74344948D01*
X164130050Y-74342221D01*
X164091340Y-74321290D01*
X164044640Y-74282657D01*
X164042266Y-74280854D01*
X164014180Y-74261334D01*
X163997207Y-74243758D01*
X163993746Y-74240553D01*
X163965309Y-74217028D01*
X163932935Y-74177333D01*
X163931492Y-74175708D01*
X163900008Y-74143106D01*
X163882250Y-74115551D01*
X163879824Y-74112213D01*
X163861929Y-74090271D01*
X163843215Y-74055075D01*
X163842593Y-74054015D01*
X163810972Y-74004948D01*
X163795296Y-73965356D01*
X163793874Y-73962279D01*
X163785138Y-73945849D01*
X163777346Y-73920040D01*
X163777291Y-73919883D01*
X163750465Y-73852128D01*
X163740816Y-73799552D01*
X163740206Y-73797028D01*
X163737861Y-73789262D01*
X163736637Y-73776783D01*
X163720797Y-73690472D01*
X163721895Y-73611807D01*
X163721900Y-73611098D01*
X163721900Y-73211105D01*
X163721065Y-73201935D01*
X163720797Y-73200472D01*
X163721895Y-73121807D01*
X163721900Y-73121098D01*
X163721900Y-72701105D01*
X163721065Y-72691935D01*
X163720797Y-72690472D01*
X163721926Y-72609607D01*
X163721930Y-72609252D01*
X163721980Y-72602053D01*
X163721980Y-72602046D01*
X163721982Y-72601824D01*
X163722011Y-72601569D01*
X163722046Y-72601009D01*
X163723091Y-72526127D01*
X163738663Y-72452868D01*
X163738749Y-72452339D01*
X163740214Y-72439275D01*
X163744044Y-72427202D01*
X163744426Y-72425755D01*
X163757263Y-72365356D01*
X163781590Y-72308599D01*
X163782118Y-72307180D01*
X163789673Y-72283363D01*
X163801487Y-72261872D01*
X163802552Y-72259690D01*
X163822011Y-72214288D01*
X163849921Y-72173527D01*
X163851186Y-72171471D01*
X163868472Y-72140027D01*
X163891271Y-72112856D01*
X163893226Y-72110281D01*
X163914870Y-72078671D01*
X163942238Y-72051870D01*
X163944436Y-72049497D01*
X163973612Y-72014726D01*
X164008714Y-71986504D01*
X164011657Y-71983891D01*
X164032301Y-71963675D01*
X164056479Y-71947853D01*
X164059658Y-71945544D01*
X164101087Y-71912234D01*
X164147961Y-71887729D01*
X164151811Y-71885470D01*
X164169832Y-71873678D01*
X164189801Y-71865609D01*
X164193869Y-71863729D01*
X164246042Y-71836453D01*
X164302354Y-71819880D01*
X164306922Y-71818289D01*
X164322224Y-71812107D01*
X164338437Y-71809014D01*
X164343129Y-71807879D01*
X164402956Y-71790271D01*
X164402992Y-71790268D01*
X164403001Y-71790265D01*
X164465016Y-71784621D01*
X164469931Y-71783930D01*
X164483672Y-71781309D01*
X164497666Y-71781406D01*
X164502623Y-71781198D01*
X164565848Y-71775445D01*
X164628989Y-71782081D01*
X164628989Y-71782081D01*
G37*
G36*
X138228989Y-67782081D02*
X138233945Y-67782358D01*
X138248033Y-67782456D01*
X138261828Y-67785288D01*
X138266733Y-67786048D01*
X138328476Y-67792538D01*
X138328481Y-67792540D01*
X138328523Y-67792544D01*
X138387930Y-67810933D01*
X138392584Y-67812128D01*
X138409034Y-67815505D01*
X138424511Y-67822011D01*
X138429020Y-67823653D01*
X138484777Y-67840912D01*
X138536291Y-67868766D01*
X138540275Y-67870675D01*
X138560553Y-67879199D01*
X138578784Y-67891496D01*
X138582570Y-67893789D01*
X138628660Y-67918710D01*
X138669253Y-67952292D01*
X138672347Y-67954605D01*
X138696808Y-67971104D01*
X138717607Y-67992048D01*
X138720471Y-67994663D01*
X138754691Y-68022972D01*
X138782984Y-68057662D01*
X138785112Y-68060026D01*
X138812628Y-68087735D01*
X138834230Y-68120249D01*
X138836131Y-68122828D01*
X138858071Y-68149729D01*
X138874566Y-68180752D01*
X138875781Y-68182790D01*
X138903582Y-68224632D01*
X138922726Y-68271081D01*
X138923728Y-68273211D01*
X138934862Y-68294151D01*
X138941848Y-68317291D01*
X138942333Y-68318652D01*
X138966213Y-68376590D01*
X138978385Y-68438062D01*
X138978732Y-68439454D01*
X138982139Y-68450738D01*
X138983336Y-68462950D01*
X138983405Y-68463415D01*
X138998068Y-68537471D01*
X138998068Y-68537476D01*
X138998136Y-68537820D01*
X138997209Y-68604179D01*
X138997228Y-68604635D01*
X138998100Y-68613526D01*
X138998100Y-69022647D01*
X138998131Y-69022966D01*
X138998105Y-69024852D01*
X138998100Y-69025561D01*
X138998100Y-69027638D01*
X138998136Y-69027820D01*
X138998100Y-69030398D01*
X138998100Y-69532647D01*
X138998131Y-69532966D01*
X138998105Y-69534852D01*
X138998100Y-69535561D01*
X138998100Y-69537638D01*
X138998136Y-69537820D01*
X138998100Y-69540398D01*
X138998100Y-69626507D01*
X138998033Y-69636111D01*
X138998032Y-69636116D01*
X138998018Y-69638176D01*
X138996552Y-69651248D01*
X138995514Y-69725550D01*
X138995438Y-69725884D01*
X138995438Y-69725897D01*
X138981301Y-69788120D01*
X138981000Y-69789900D01*
X138979786Y-69800725D01*
X138975068Y-69815598D01*
X138975010Y-69815811D01*
X138959102Y-69885829D01*
X138937686Y-69933930D01*
X138936742Y-69936415D01*
X138930327Y-69956637D01*
X138916169Y-69982390D01*
X138915596Y-69983545D01*
X138892252Y-70035976D01*
X138868132Y-70070168D01*
X138866310Y-70073084D01*
X138851528Y-70099973D01*
X138824502Y-70132182D01*
X138823138Y-70133952D01*
X138797508Y-70170285D01*
X138774242Y-70192440D01*
X138771395Y-70195471D01*
X138746388Y-70225274D01*
X138705029Y-70258528D01*
X138702733Y-70260537D01*
X138678483Y-70283629D01*
X138658309Y-70296432D01*
X138654429Y-70299210D01*
X138618913Y-70327766D01*
X138563922Y-70356515D01*
X138560739Y-70358352D01*
X138539709Y-70371698D01*
X138523435Y-70378011D01*
X138518656Y-70380179D01*
X138473958Y-70403547D01*
X138408110Y-70422927D01*
X138404221Y-70424251D01*
X138386473Y-70431135D01*
X138373621Y-70433401D01*
X138368213Y-70434669D01*
X138317044Y-70449729D01*
X138317008Y-70449732D01*
X138316999Y-70449735D01*
X138244691Y-70456316D01*
X138240474Y-70456879D01*
X138224613Y-70459676D01*
X138213763Y-70459448D01*
X138208094Y-70459646D01*
X138154151Y-70464555D01*
X138080744Y-70456840D01*
X138076498Y-70456573D01*
X138060284Y-70456233D01*
X138049607Y-70453886D01*
X138044009Y-70452979D01*
X137991524Y-70447462D01*
X137991519Y-70447460D01*
X137991477Y-70447456D01*
X137922600Y-70426135D01*
X137918674Y-70425098D01*
X137899759Y-70420940D01*
X137887576Y-70415617D01*
X137882391Y-70413689D01*
X137835223Y-70399088D01*
X137775709Y-70366909D01*
X137772455Y-70365322D01*
X137749149Y-70355140D01*
X137734484Y-70344948D01*
X137730050Y-70342221D01*
X137691340Y-70321290D01*
X137644640Y-70282657D01*
X137642266Y-70280854D01*
X137614180Y-70261334D01*
X137597207Y-70243758D01*
X137593746Y-70240553D01*
X137565309Y-70217028D01*
X137532935Y-70177333D01*
X137531492Y-70175708D01*
X137500008Y-70143106D01*
X137482250Y-70115551D01*
X137479824Y-70112213D01*
X137461929Y-70090271D01*
X137443215Y-70055075D01*
X137442593Y-70054015D01*
X137410972Y-70004948D01*
X137395296Y-69965356D01*
X137393874Y-69962279D01*
X137385138Y-69945849D01*
X137377346Y-69920040D01*
X137377291Y-69919883D01*
X137350465Y-69852128D01*
X137340816Y-69799552D01*
X137340206Y-69797028D01*
X137337861Y-69789262D01*
X137336637Y-69776783D01*
X137320797Y-69690472D01*
X137321895Y-69611807D01*
X137321900Y-69611098D01*
X137321900Y-69191105D01*
X137321065Y-69181935D01*
X137320797Y-69180472D01*
X137321895Y-69101807D01*
X137321900Y-69101098D01*
X137321900Y-68701105D01*
X137321065Y-68691935D01*
X137320797Y-68690472D01*
X137321926Y-68609607D01*
X137321930Y-68609252D01*
X137321980Y-68602053D01*
X137321980Y-68602046D01*
X137321982Y-68601824D01*
X137322011Y-68601569D01*
X137322046Y-68601009D01*
X137323091Y-68526127D01*
X137338663Y-68452868D01*
X137338749Y-68452339D01*
X137340214Y-68439275D01*
X137344044Y-68427202D01*
X137344426Y-68425755D01*
X137357263Y-68365356D01*
X137381590Y-68308599D01*
X137382118Y-68307180D01*
X137389673Y-68283363D01*
X137401487Y-68261872D01*
X137402552Y-68259690D01*
X137422011Y-68214288D01*
X137449921Y-68173527D01*
X137451186Y-68171471D01*
X137468472Y-68140027D01*
X137491271Y-68112856D01*
X137493226Y-68110281D01*
X137514870Y-68078671D01*
X137542238Y-68051870D01*
X137544436Y-68049497D01*
X137573612Y-68014726D01*
X137608714Y-67986504D01*
X137611657Y-67983891D01*
X137632301Y-67963675D01*
X137656479Y-67947853D01*
X137659658Y-67945544D01*
X137701087Y-67912234D01*
X137747961Y-67887729D01*
X137751811Y-67885470D01*
X137769832Y-67873678D01*
X137789801Y-67865609D01*
X137793869Y-67863729D01*
X137846042Y-67836453D01*
X137902354Y-67819880D01*
X137906922Y-67818289D01*
X137922224Y-67812107D01*
X137938437Y-67809014D01*
X137943129Y-67807879D01*
X138002956Y-67790271D01*
X138002992Y-67790268D01*
X138003001Y-67790265D01*
X138065016Y-67784621D01*
X138069931Y-67783930D01*
X138083672Y-67781309D01*
X138097666Y-67781406D01*
X138102623Y-67781198D01*
X138165848Y-67775445D01*
X138228989Y-67782081D01*
X138228989Y-67782081D01*
G37*
G36*
X168454344Y-67332118D02*
X168459298Y-67332395D01*
X168468032Y-67332456D01*
X168476581Y-67334211D01*
X168481486Y-67334971D01*
X168553476Y-67342538D01*
X168553481Y-67342540D01*
X168553523Y-67342544D01*
X168622780Y-67363982D01*
X168627429Y-67365176D01*
X168629034Y-67365505D01*
X168630541Y-67366139D01*
X168635050Y-67367780D01*
X168709777Y-67390912D01*
X168778749Y-67428206D01*
X168780610Y-67429097D01*
X168782369Y-67430163D01*
X168853660Y-67468710D01*
X168916314Y-67520542D01*
X168916909Y-67520987D01*
X168917457Y-67521488D01*
X168979691Y-67572972D01*
X169030960Y-67635835D01*
X169032648Y-67637709D01*
X169034141Y-67639735D01*
X169083071Y-67699729D01*
X169119603Y-67768435D01*
X169120816Y-67770470D01*
X169123583Y-67774634D01*
X169125487Y-67779254D01*
X169126498Y-67781403D01*
X169159862Y-67844151D01*
X169180535Y-67912624D01*
X169181026Y-67914001D01*
X169186214Y-67926589D01*
X169188859Y-67939946D01*
X169189211Y-67941358D01*
X169207139Y-68000738D01*
X169213241Y-68062969D01*
X169213310Y-68063439D01*
X169218068Y-68087470D01*
X169218068Y-68087476D01*
X169218136Y-68087820D01*
X169217833Y-68109549D01*
X169217851Y-68109991D01*
X169223100Y-68163526D01*
X169223100Y-69176507D01*
X169223033Y-69186119D01*
X169223032Y-69186125D01*
X169223018Y-69188176D01*
X169215841Y-69252167D01*
X169215514Y-69275550D01*
X169215438Y-69275883D01*
X169215438Y-69275902D01*
X169211177Y-69294653D01*
X169210875Y-69296440D01*
X169204786Y-69350725D01*
X169182448Y-69421141D01*
X169182391Y-69421352D01*
X169179102Y-69435829D01*
X169175077Y-69444868D01*
X169174135Y-69447347D01*
X169155327Y-69506637D01*
X169114866Y-69580236D01*
X169114297Y-69581382D01*
X169112252Y-69585977D01*
X169110791Y-69588047D01*
X169108967Y-69590967D01*
X169076528Y-69649973D01*
X169018105Y-69719599D01*
X169017113Y-69720887D01*
X169016276Y-69721779D01*
X168971388Y-69775274D01*
X168843913Y-69877766D01*
X168760546Y-69921350D01*
X168759143Y-69922159D01*
X168758033Y-69922663D01*
X168698958Y-69953547D01*
X168612369Y-69979031D01*
X168608491Y-69980351D01*
X168606469Y-69981135D01*
X168606091Y-69981202D01*
X168600679Y-69982472D01*
X168542044Y-69999729D01*
X168542010Y-69999732D01*
X168542000Y-69999735D01*
X168459358Y-70007256D01*
X168455140Y-70007819D01*
X168444610Y-70009676D01*
X168437824Y-70009534D01*
X168432158Y-70009732D01*
X168379152Y-70014555D01*
X168306989Y-70006971D01*
X168302743Y-70006704D01*
X168280285Y-70006233D01*
X168265029Y-70002879D01*
X168259430Y-70001972D01*
X168216523Y-69997462D01*
X168216517Y-69997460D01*
X168216477Y-69997456D01*
X168159876Y-69979935D01*
X168155932Y-69978893D01*
X168119758Y-69970939D01*
X168095422Y-69960307D01*
X168090238Y-69958379D01*
X168060223Y-69949088D01*
X168021760Y-69928291D01*
X168018498Y-69926700D01*
X167969147Y-69905139D01*
X167936965Y-69882772D01*
X167932530Y-69880044D01*
X167916340Y-69871290D01*
X167895913Y-69854391D01*
X167893542Y-69852591D01*
X167834183Y-69811336D01*
X167797346Y-69773190D01*
X167793889Y-69769990D01*
X167790309Y-69767028D01*
X167785100Y-69760641D01*
X167783659Y-69759018D01*
X167720008Y-69693106D01*
X167630972Y-69554949D01*
X167570465Y-69402126D01*
X167540797Y-69240472D01*
X167543091Y-69076127D01*
X167545790Y-69063431D01*
X167546900Y-69052869D01*
X167546900Y-68748348D01*
X167546065Y-68739178D01*
X167540797Y-68710472D01*
X167543091Y-68546127D01*
X167545790Y-68533431D01*
X167546900Y-68522869D01*
X167546900Y-68278348D01*
X167546065Y-68269178D01*
X167540797Y-68240472D01*
X167543091Y-68076127D01*
X167577264Y-67915356D01*
X167642011Y-67764288D01*
X167734870Y-67628671D01*
X167790279Y-67574411D01*
X167792481Y-67572033D01*
X167798612Y-67564726D01*
X167805793Y-67558952D01*
X167808717Y-67556356D01*
X167852300Y-67513676D01*
X167903344Y-67480274D01*
X167906518Y-67477968D01*
X167926087Y-67462234D01*
X167948096Y-67450728D01*
X167951948Y-67448468D01*
X167989833Y-67423677D01*
X168031810Y-67406717D01*
X168035868Y-67404841D01*
X168071042Y-67386453D01*
X168108937Y-67375300D01*
X168113509Y-67373708D01*
X168142225Y-67362107D01*
X168172648Y-67356303D01*
X168177341Y-67355168D01*
X168227956Y-67340271D01*
X168227992Y-67340268D01*
X168228001Y-67340265D01*
X168280454Y-67335491D01*
X168285369Y-67334800D01*
X168303671Y-67331309D01*
X168322307Y-67331439D01*
X168327266Y-67331231D01*
X168390849Y-67325445D01*
X168454344Y-67332118D01*
X168454344Y-67332118D01*
G37*
G36*
X134404344Y-67332118D02*
X134409298Y-67332395D01*
X134418032Y-67332456D01*
X134426581Y-67334211D01*
X134431486Y-67334971D01*
X134503476Y-67342538D01*
X134503481Y-67342540D01*
X134503523Y-67342544D01*
X134572780Y-67363982D01*
X134577429Y-67365176D01*
X134579034Y-67365505D01*
X134580541Y-67366139D01*
X134585050Y-67367780D01*
X134659777Y-67390912D01*
X134728749Y-67428206D01*
X134730610Y-67429097D01*
X134732369Y-67430163D01*
X134803660Y-67468710D01*
X134866314Y-67520542D01*
X134866909Y-67520987D01*
X134867457Y-67521488D01*
X134929691Y-67572972D01*
X134980960Y-67635835D01*
X134982648Y-67637709D01*
X134984141Y-67639735D01*
X135033071Y-67699729D01*
X135069603Y-67768435D01*
X135070816Y-67770470D01*
X135073583Y-67774634D01*
X135075487Y-67779254D01*
X135076498Y-67781403D01*
X135109862Y-67844151D01*
X135130535Y-67912624D01*
X135131026Y-67914001D01*
X135136214Y-67926589D01*
X135138859Y-67939946D01*
X135139211Y-67941358D01*
X135157139Y-68000738D01*
X135163241Y-68062969D01*
X135163310Y-68063439D01*
X135168068Y-68087470D01*
X135168068Y-68087476D01*
X135168136Y-68087820D01*
X135167833Y-68109549D01*
X135167851Y-68109991D01*
X135173100Y-68163526D01*
X135173100Y-69057395D01*
X135174067Y-69067262D01*
X135178068Y-69087471D01*
X135178068Y-69087476D01*
X135178136Y-69087820D01*
X135175514Y-69275550D01*
X135175438Y-69275884D01*
X135175438Y-69275897D01*
X135139102Y-69435829D01*
X135072253Y-69585975D01*
X134977507Y-69720285D01*
X134929360Y-69766135D01*
X134926515Y-69769164D01*
X134921388Y-69775274D01*
X134912140Y-69782709D01*
X134909846Y-69784717D01*
X134858483Y-69833629D01*
X134814577Y-69861493D01*
X134810695Y-69864273D01*
X134793913Y-69877766D01*
X134767298Y-69891680D01*
X134764112Y-69893519D01*
X134719708Y-69921699D01*
X134684061Y-69935525D01*
X134679303Y-69937683D01*
X134648958Y-69953547D01*
X134603835Y-69966827D01*
X134599950Y-69968150D01*
X134566473Y-69981135D01*
X134541148Y-69985600D01*
X134535746Y-69986867D01*
X134492044Y-69999729D01*
X134492008Y-69999732D01*
X134491999Y-69999735D01*
X134430024Y-70005376D01*
X134425808Y-70005939D01*
X134404614Y-70009676D01*
X134389698Y-70009363D01*
X134384029Y-70009561D01*
X134329151Y-70014555D01*
X134254499Y-70006709D01*
X134250252Y-70006442D01*
X134240283Y-70006233D01*
X134234187Y-70004893D01*
X134228589Y-70003986D01*
X134166524Y-69997462D01*
X134166519Y-69997460D01*
X134166477Y-69997456D01*
X134085352Y-69972344D01*
X134081417Y-69971304D01*
X134079756Y-69970939D01*
X134079729Y-69970927D01*
X134074545Y-69968999D01*
X134010223Y-69949088D01*
X133929665Y-69905530D01*
X133928443Y-69904934D01*
X133927575Y-69904400D01*
X133866340Y-69871290D01*
X133740309Y-69767028D01*
X133680779Y-69694037D01*
X133679501Y-69692597D01*
X133678654Y-69691431D01*
X133636929Y-69640271D01*
X133594639Y-69560736D01*
X133594015Y-69559672D01*
X133590972Y-69554949D01*
X133589876Y-69552182D01*
X133588451Y-69549097D01*
X133560138Y-69495849D01*
X133536283Y-69416839D01*
X133536233Y-69416695D01*
X133530466Y-69402129D01*
X133528567Y-69391785D01*
X133527956Y-69389258D01*
X133512861Y-69339262D01*
X133505902Y-69268287D01*
X133500797Y-69240468D01*
X133501081Y-69220119D01*
X133501008Y-69218371D01*
X133496900Y-69176474D01*
X133496900Y-68788348D01*
X133496065Y-68779178D01*
X133490797Y-68750472D01*
X133493091Y-68586127D01*
X133495790Y-68573431D01*
X133496900Y-68562869D01*
X133496900Y-68278348D01*
X133496065Y-68269178D01*
X133490797Y-68240472D01*
X133493091Y-68076127D01*
X133527264Y-67915356D01*
X133592011Y-67764288D01*
X133684870Y-67628671D01*
X133740279Y-67574411D01*
X133742481Y-67572033D01*
X133748612Y-67564726D01*
X133755793Y-67558952D01*
X133758717Y-67556356D01*
X133802300Y-67513676D01*
X133853344Y-67480274D01*
X133856518Y-67477968D01*
X133876087Y-67462234D01*
X133898096Y-67450728D01*
X133901948Y-67448468D01*
X133939833Y-67423677D01*
X133981810Y-67406717D01*
X133985868Y-67404841D01*
X134021042Y-67386453D01*
X134058937Y-67375300D01*
X134063509Y-67373708D01*
X134092225Y-67362107D01*
X134122648Y-67356303D01*
X134127341Y-67355168D01*
X134177956Y-67340271D01*
X134177992Y-67340268D01*
X134178001Y-67340265D01*
X134230454Y-67335491D01*
X134235369Y-67334800D01*
X134253671Y-67331309D01*
X134272307Y-67331439D01*
X134277266Y-67331231D01*
X134340849Y-67325445D01*
X134404344Y-67332118D01*
X134404344Y-67332118D01*
G37*
G36*
X160448262Y-62208160D02*
X160555298Y-62219409D01*
X160555303Y-62219410D01*
X160555346Y-62219415D01*
X160680837Y-62258261D01*
X160796393Y-62320742D01*
X160897612Y-62404478D01*
X160980639Y-62506279D01*
X161042312Y-62622269D01*
X161080281Y-62748028D01*
X161093100Y-62878767D01*
X161093100Y-64121263D01*
X161093049Y-64128574D01*
X161093048Y-64128579D01*
X161093034Y-64130631D01*
X161078391Y-64261178D01*
X161038670Y-64386395D01*
X160975384Y-64501512D01*
X160890943Y-64602145D01*
X160788565Y-64684459D01*
X160672148Y-64745320D01*
X160546126Y-64782411D01*
X160546085Y-64782415D01*
X160546081Y-64782416D01*
X160415303Y-64794317D01*
X160415301Y-64794317D01*
X160391738Y-64791840D01*
X160284702Y-64780591D01*
X160284697Y-64780590D01*
X160284654Y-64780585D01*
X160159163Y-64741739D01*
X160043607Y-64679258D01*
X159942388Y-64595522D01*
X159859361Y-64493721D01*
X159797688Y-64377731D01*
X159759719Y-64251972D01*
X159746900Y-64121233D01*
X159746900Y-62878737D01*
X159746951Y-62871426D01*
X159746952Y-62871421D01*
X159746966Y-62869369D01*
X159761609Y-62738822D01*
X159801330Y-62613605D01*
X159864616Y-62498488D01*
X159949057Y-62397855D01*
X160051435Y-62315541D01*
X160167852Y-62254680D01*
X160293874Y-62217589D01*
X160293915Y-62217585D01*
X160293919Y-62217584D01*
X160424698Y-62205683D01*
X160424699Y-62205683D01*
X160448262Y-62208160D01*
X160448262Y-62208160D01*
G37*
G36*
X135048262Y-62208160D02*
X135155298Y-62219409D01*
X135155303Y-62219410D01*
X135155346Y-62219415D01*
X135280837Y-62258261D01*
X135396393Y-62320742D01*
X135497612Y-62404478D01*
X135580639Y-62506279D01*
X135642312Y-62622269D01*
X135680281Y-62748028D01*
X135693100Y-62878767D01*
X135693100Y-64121263D01*
X135693049Y-64128574D01*
X135693048Y-64128579D01*
X135693034Y-64130631D01*
X135678391Y-64261178D01*
X135638670Y-64386395D01*
X135575384Y-64501512D01*
X135490943Y-64602145D01*
X135388565Y-64684459D01*
X135272148Y-64745320D01*
X135146126Y-64782411D01*
X135146085Y-64782415D01*
X135146081Y-64782416D01*
X135015303Y-64794317D01*
X135015301Y-64794317D01*
X134991738Y-64791840D01*
X134884702Y-64780591D01*
X134884697Y-64780590D01*
X134884654Y-64780585D01*
X134759163Y-64741739D01*
X134643607Y-64679258D01*
X134542388Y-64595522D01*
X134459361Y-64493721D01*
X134397688Y-64377731D01*
X134359719Y-64251972D01*
X134346900Y-64121233D01*
X134346900Y-62878737D01*
X134346951Y-62871426D01*
X134346952Y-62871421D01*
X134346966Y-62869369D01*
X134361609Y-62738822D01*
X134401330Y-62613605D01*
X134464616Y-62498488D01*
X134549057Y-62397855D01*
X134651435Y-62315541D01*
X134767852Y-62254680D01*
X134893874Y-62217589D01*
X134893915Y-62217585D01*
X134893919Y-62217584D01*
X135024698Y-62205683D01*
X135024699Y-62205683D01*
X135048262Y-62208160D01*
X135048262Y-62208160D01*
G37*
G36*
X137588262Y-62208160D02*
X137695298Y-62219409D01*
X137695303Y-62219410D01*
X137695346Y-62219415D01*
X137820837Y-62258261D01*
X137936393Y-62320742D01*
X138037612Y-62404478D01*
X138120639Y-62506279D01*
X138182312Y-62622269D01*
X138220281Y-62748028D01*
X138233100Y-62878767D01*
X138233100Y-64121263D01*
X138233049Y-64128574D01*
X138233048Y-64128579D01*
X138233034Y-64130631D01*
X138218391Y-64261178D01*
X138178670Y-64386395D01*
X138115384Y-64501512D01*
X138030943Y-64602145D01*
X137928565Y-64684459D01*
X137812148Y-64745320D01*
X137686126Y-64782411D01*
X137686085Y-64782415D01*
X137686081Y-64782416D01*
X137555303Y-64794317D01*
X137555301Y-64794317D01*
X137531738Y-64791840D01*
X137424702Y-64780591D01*
X137424697Y-64780590D01*
X137424654Y-64780585D01*
X137299163Y-64741739D01*
X137183607Y-64679258D01*
X137082388Y-64595522D01*
X136999361Y-64493721D01*
X136937688Y-64377731D01*
X136899719Y-64251972D01*
X136886900Y-64121233D01*
X136886900Y-62878737D01*
X136886951Y-62871426D01*
X136886952Y-62871421D01*
X136886966Y-62869369D01*
X136901609Y-62738822D01*
X136941330Y-62613605D01*
X137004616Y-62498488D01*
X137089057Y-62397855D01*
X137191435Y-62315541D01*
X137307852Y-62254680D01*
X137433874Y-62217589D01*
X137433915Y-62217585D01*
X137433919Y-62217584D01*
X137564698Y-62205683D01*
X137564699Y-62205683D01*
X137588262Y-62208160D01*
X137588262Y-62208160D01*
G37*
G36*
X165528262Y-62208160D02*
X165635298Y-62219409D01*
X165635303Y-62219410D01*
X165635346Y-62219415D01*
X165760837Y-62258261D01*
X165876393Y-62320742D01*
X165977612Y-62404478D01*
X166060639Y-62506279D01*
X166122312Y-62622269D01*
X166160281Y-62748028D01*
X166173100Y-62878767D01*
X166173100Y-64121263D01*
X166173049Y-64128574D01*
X166173048Y-64128579D01*
X166173034Y-64130631D01*
X166158391Y-64261178D01*
X166118670Y-64386395D01*
X166055384Y-64501512D01*
X165970943Y-64602145D01*
X165868565Y-64684459D01*
X165752148Y-64745320D01*
X165626126Y-64782411D01*
X165626085Y-64782415D01*
X165626081Y-64782416D01*
X165495303Y-64794317D01*
X165495301Y-64794317D01*
X165471738Y-64791840D01*
X165364702Y-64780591D01*
X165364697Y-64780590D01*
X165364654Y-64780585D01*
X165239163Y-64741739D01*
X165123607Y-64679258D01*
X165022388Y-64595522D01*
X164939361Y-64493721D01*
X164877688Y-64377731D01*
X164839719Y-64251972D01*
X164826900Y-64121233D01*
X164826900Y-62878737D01*
X164826951Y-62871426D01*
X164826952Y-62871421D01*
X164826966Y-62869369D01*
X164841609Y-62738822D01*
X164881330Y-62613605D01*
X164944616Y-62498488D01*
X165029057Y-62397855D01*
X165131435Y-62315541D01*
X165247852Y-62254680D01*
X165373874Y-62217589D01*
X165373915Y-62217585D01*
X165373919Y-62217584D01*
X165504698Y-62205683D01*
X165504699Y-62205683D01*
X165528262Y-62208160D01*
X165528262Y-62208160D01*
G37*
G36*
X162988262Y-62208160D02*
X163095298Y-62219409D01*
X163095303Y-62219410D01*
X163095346Y-62219415D01*
X163220837Y-62258261D01*
X163336393Y-62320742D01*
X163437612Y-62404478D01*
X163520639Y-62506279D01*
X163582312Y-62622269D01*
X163620281Y-62748028D01*
X163633100Y-62878767D01*
X163633100Y-64121263D01*
X163633049Y-64128574D01*
X163633048Y-64128579D01*
X163633034Y-64130631D01*
X163618391Y-64261178D01*
X163578670Y-64386395D01*
X163515384Y-64501512D01*
X163430943Y-64602145D01*
X163328565Y-64684459D01*
X163212148Y-64745320D01*
X163086126Y-64782411D01*
X163086085Y-64782415D01*
X163086081Y-64782416D01*
X162955303Y-64794317D01*
X162955301Y-64794317D01*
X162931738Y-64791840D01*
X162824702Y-64780591D01*
X162824697Y-64780590D01*
X162824654Y-64780585D01*
X162699163Y-64741739D01*
X162583607Y-64679258D01*
X162482388Y-64595522D01*
X162399361Y-64493721D01*
X162337688Y-64377731D01*
X162299719Y-64251972D01*
X162286900Y-64121233D01*
X162286900Y-62878737D01*
X162286951Y-62871426D01*
X162286952Y-62871421D01*
X162286966Y-62869369D01*
X162301609Y-62738822D01*
X162341330Y-62613605D01*
X162404616Y-62498488D01*
X162489057Y-62397855D01*
X162591435Y-62315541D01*
X162707852Y-62254680D01*
X162833874Y-62217589D01*
X162833915Y-62217585D01*
X162833919Y-62217584D01*
X162964698Y-62205683D01*
X162964699Y-62205683D01*
X162988262Y-62208160D01*
X162988262Y-62208160D01*
G37*
G36*
X147748262Y-62208160D02*
X147855298Y-62219409D01*
X147855303Y-62219410D01*
X147855346Y-62219415D01*
X147980837Y-62258261D01*
X148096393Y-62320742D01*
X148197612Y-62404478D01*
X148280639Y-62506279D01*
X148342312Y-62622269D01*
X148380281Y-62748028D01*
X148393100Y-62878767D01*
X148393100Y-64121263D01*
X148393049Y-64128574D01*
X148393048Y-64128579D01*
X148393034Y-64130631D01*
X148378391Y-64261178D01*
X148338670Y-64386395D01*
X148275384Y-64501512D01*
X148190943Y-64602145D01*
X148088565Y-64684459D01*
X147972148Y-64745320D01*
X147846126Y-64782411D01*
X147846085Y-64782415D01*
X147846081Y-64782416D01*
X147715303Y-64794317D01*
X147715301Y-64794317D01*
X147691738Y-64791840D01*
X147584702Y-64780591D01*
X147584697Y-64780590D01*
X147584654Y-64780585D01*
X147459163Y-64741739D01*
X147343607Y-64679258D01*
X147242388Y-64595522D01*
X147159361Y-64493721D01*
X147097688Y-64377731D01*
X147059719Y-64251972D01*
X147046900Y-64121233D01*
X147046900Y-62878737D01*
X147046951Y-62871426D01*
X147046952Y-62871421D01*
X147046966Y-62869369D01*
X147061609Y-62738822D01*
X147101330Y-62613605D01*
X147164616Y-62498488D01*
X147249057Y-62397855D01*
X147351435Y-62315541D01*
X147467852Y-62254680D01*
X147593874Y-62217589D01*
X147593915Y-62217585D01*
X147593919Y-62217584D01*
X147724698Y-62205683D01*
X147724699Y-62205683D01*
X147748262Y-62208160D01*
X147748262Y-62208160D01*
G37*
G36*
X157908262Y-62208160D02*
X158015298Y-62219409D01*
X158015303Y-62219410D01*
X158015346Y-62219415D01*
X158140837Y-62258261D01*
X158256393Y-62320742D01*
X158357612Y-62404478D01*
X158440639Y-62506279D01*
X158502312Y-62622269D01*
X158540281Y-62748028D01*
X158553100Y-62878767D01*
X158553100Y-64121263D01*
X158553049Y-64128574D01*
X158553048Y-64128579D01*
X158553034Y-64130631D01*
X158538391Y-64261178D01*
X158498670Y-64386395D01*
X158435384Y-64501512D01*
X158350943Y-64602145D01*
X158248565Y-64684459D01*
X158132148Y-64745320D01*
X158006126Y-64782411D01*
X158006085Y-64782415D01*
X158006081Y-64782416D01*
X157875303Y-64794317D01*
X157875301Y-64794317D01*
X157851738Y-64791840D01*
X157744702Y-64780591D01*
X157744697Y-64780590D01*
X157744654Y-64780585D01*
X157619163Y-64741739D01*
X157503607Y-64679258D01*
X157402388Y-64595522D01*
X157319361Y-64493721D01*
X157257688Y-64377731D01*
X157219719Y-64251972D01*
X157206900Y-64121233D01*
X157206900Y-62878737D01*
X157206951Y-62871426D01*
X157206952Y-62871421D01*
X157206966Y-62869369D01*
X157221609Y-62738822D01*
X157261330Y-62613605D01*
X157324616Y-62498488D01*
X157409057Y-62397855D01*
X157511435Y-62315541D01*
X157627852Y-62254680D01*
X157753874Y-62217589D01*
X157753915Y-62217585D01*
X157753919Y-62217584D01*
X157884698Y-62205683D01*
X157884699Y-62205683D01*
X157908262Y-62208160D01*
X157908262Y-62208160D01*
G37*
G36*
X150288262Y-62208160D02*
X150395298Y-62219409D01*
X150395303Y-62219410D01*
X150395346Y-62219415D01*
X150520837Y-62258261D01*
X150636393Y-62320742D01*
X150737612Y-62404478D01*
X150820639Y-62506279D01*
X150882312Y-62622269D01*
X150920281Y-62748028D01*
X150933100Y-62878767D01*
X150933100Y-64121263D01*
X150933049Y-64128574D01*
X150933048Y-64128579D01*
X150933034Y-64130631D01*
X150918391Y-64261178D01*
X150878670Y-64386395D01*
X150815384Y-64501512D01*
X150730943Y-64602145D01*
X150628565Y-64684459D01*
X150512148Y-64745320D01*
X150386126Y-64782411D01*
X150386085Y-64782415D01*
X150386081Y-64782416D01*
X150255303Y-64794317D01*
X150255301Y-64794317D01*
X150231738Y-64791840D01*
X150124702Y-64780591D01*
X150124697Y-64780590D01*
X150124654Y-64780585D01*
X149999163Y-64741739D01*
X149883607Y-64679258D01*
X149782388Y-64595522D01*
X149699361Y-64493721D01*
X149637688Y-64377731D01*
X149599719Y-64251972D01*
X149586900Y-64121233D01*
X149586900Y-62878737D01*
X149586951Y-62871426D01*
X149586952Y-62871421D01*
X149586966Y-62869369D01*
X149601609Y-62738822D01*
X149641330Y-62613605D01*
X149704616Y-62498488D01*
X149789057Y-62397855D01*
X149891435Y-62315541D01*
X150007852Y-62254680D01*
X150133874Y-62217589D01*
X150133915Y-62217585D01*
X150133919Y-62217584D01*
X150264698Y-62205683D01*
X150264699Y-62205683D01*
X150288262Y-62208160D01*
X150288262Y-62208160D01*
G37*
G36*
X145208262Y-62208160D02*
X145315298Y-62219409D01*
X145315303Y-62219410D01*
X145315346Y-62219415D01*
X145440837Y-62258261D01*
X145556393Y-62320742D01*
X145657612Y-62404478D01*
X145740639Y-62506279D01*
X145802312Y-62622269D01*
X145840281Y-62748028D01*
X145853100Y-62878767D01*
X145853100Y-64121263D01*
X145853049Y-64128574D01*
X145853048Y-64128579D01*
X145853034Y-64130631D01*
X145838391Y-64261178D01*
X145798670Y-64386395D01*
X145735384Y-64501512D01*
X145650943Y-64602145D01*
X145548565Y-64684459D01*
X145432148Y-64745320D01*
X145306126Y-64782411D01*
X145306085Y-64782415D01*
X145306081Y-64782416D01*
X145175303Y-64794317D01*
X145175301Y-64794317D01*
X145151738Y-64791840D01*
X145044702Y-64780591D01*
X145044697Y-64780590D01*
X145044654Y-64780585D01*
X144919163Y-64741739D01*
X144803607Y-64679258D01*
X144702388Y-64595522D01*
X144619361Y-64493721D01*
X144557688Y-64377731D01*
X144519719Y-64251972D01*
X144506900Y-64121233D01*
X144506900Y-62878737D01*
X144506951Y-62871426D01*
X144506952Y-62871421D01*
X144506966Y-62869369D01*
X144521609Y-62738822D01*
X144561330Y-62613605D01*
X144624616Y-62498488D01*
X144709057Y-62397855D01*
X144811435Y-62315541D01*
X144927852Y-62254680D01*
X145053874Y-62217589D01*
X145053915Y-62217585D01*
X145053919Y-62217584D01*
X145184698Y-62205683D01*
X145184699Y-62205683D01*
X145208262Y-62208160D01*
X145208262Y-62208160D01*
G37*
G36*
X155368262Y-62208160D02*
X155475298Y-62219409D01*
X155475303Y-62219410D01*
X155475346Y-62219415D01*
X155600837Y-62258261D01*
X155716393Y-62320742D01*
X155817612Y-62404478D01*
X155900639Y-62506279D01*
X155962312Y-62622269D01*
X156000281Y-62748028D01*
X156013100Y-62878767D01*
X156013100Y-64121263D01*
X156013049Y-64128574D01*
X156013048Y-64128579D01*
X156013034Y-64130631D01*
X155998391Y-64261178D01*
X155958670Y-64386395D01*
X155895384Y-64501512D01*
X155810943Y-64602145D01*
X155708565Y-64684459D01*
X155592148Y-64745320D01*
X155466126Y-64782411D01*
X155466085Y-64782415D01*
X155466081Y-64782416D01*
X155335303Y-64794317D01*
X155335301Y-64794317D01*
X155311738Y-64791840D01*
X155204702Y-64780591D01*
X155204697Y-64780590D01*
X155204654Y-64780585D01*
X155079163Y-64741739D01*
X154963607Y-64679258D01*
X154862388Y-64595522D01*
X154779361Y-64493721D01*
X154717688Y-64377731D01*
X154679719Y-64251972D01*
X154666900Y-64121233D01*
X154666900Y-62878737D01*
X154666951Y-62871426D01*
X154666952Y-62871421D01*
X154666966Y-62869369D01*
X154681609Y-62738822D01*
X154721330Y-62613605D01*
X154784616Y-62498488D01*
X154869057Y-62397855D01*
X154971435Y-62315541D01*
X155087852Y-62254680D01*
X155213874Y-62217589D01*
X155213915Y-62217585D01*
X155213919Y-62217584D01*
X155344698Y-62205683D01*
X155344699Y-62205683D01*
X155368262Y-62208160D01*
X155368262Y-62208160D01*
G37*
G36*
X142668262Y-62208160D02*
X142775298Y-62219409D01*
X142775303Y-62219410D01*
X142775346Y-62219415D01*
X142900837Y-62258261D01*
X143016393Y-62320742D01*
X143117612Y-62404478D01*
X143200639Y-62506279D01*
X143262312Y-62622269D01*
X143300281Y-62748028D01*
X143313100Y-62878767D01*
X143313100Y-64121263D01*
X143313049Y-64128574D01*
X143313048Y-64128579D01*
X143313034Y-64130631D01*
X143298391Y-64261178D01*
X143258670Y-64386395D01*
X143195384Y-64501512D01*
X143110943Y-64602145D01*
X143008565Y-64684459D01*
X142892148Y-64745320D01*
X142766126Y-64782411D01*
X142766085Y-64782415D01*
X142766081Y-64782416D01*
X142635303Y-64794317D01*
X142635301Y-64794317D01*
X142611738Y-64791840D01*
X142504702Y-64780591D01*
X142504697Y-64780590D01*
X142504654Y-64780585D01*
X142379163Y-64741739D01*
X142263607Y-64679258D01*
X142162388Y-64595522D01*
X142079361Y-64493721D01*
X142017688Y-64377731D01*
X141979719Y-64251972D01*
X141966900Y-64121233D01*
X141966900Y-62878737D01*
X141966951Y-62871426D01*
X141966952Y-62871421D01*
X141966966Y-62869369D01*
X141981609Y-62738822D01*
X142021330Y-62613605D01*
X142084616Y-62498488D01*
X142169057Y-62397855D01*
X142271435Y-62315541D01*
X142387852Y-62254680D01*
X142513874Y-62217589D01*
X142513915Y-62217585D01*
X142513919Y-62217584D01*
X142644698Y-62205683D01*
X142644699Y-62205683D01*
X142668262Y-62208160D01*
X142668262Y-62208160D01*
G37*
G36*
X152828262Y-62208160D02*
X152935298Y-62219409D01*
X152935303Y-62219410D01*
X152935346Y-62219415D01*
X153060837Y-62258261D01*
X153176393Y-62320742D01*
X153277612Y-62404478D01*
X153360639Y-62506279D01*
X153422312Y-62622269D01*
X153460281Y-62748028D01*
X153473100Y-62878767D01*
X153473100Y-64121263D01*
X153473049Y-64128574D01*
X153473048Y-64128579D01*
X153473034Y-64130631D01*
X153458391Y-64261178D01*
X153418670Y-64386395D01*
X153355384Y-64501512D01*
X153270943Y-64602145D01*
X153168565Y-64684459D01*
X153052148Y-64745320D01*
X152926126Y-64782411D01*
X152926085Y-64782415D01*
X152926081Y-64782416D01*
X152795303Y-64794317D01*
X152795301Y-64794317D01*
X152771738Y-64791840D01*
X152664702Y-64780591D01*
X152664697Y-64780590D01*
X152664654Y-64780585D01*
X152539163Y-64741739D01*
X152423607Y-64679258D01*
X152322388Y-64595522D01*
X152239361Y-64493721D01*
X152177688Y-64377731D01*
X152139719Y-64251972D01*
X152126900Y-64121233D01*
X152126900Y-62878737D01*
X152126951Y-62871426D01*
X152126952Y-62871421D01*
X152126966Y-62869369D01*
X152141609Y-62738822D01*
X152181330Y-62613605D01*
X152244616Y-62498488D01*
X152329057Y-62397855D01*
X152431435Y-62315541D01*
X152547852Y-62254680D01*
X152673874Y-62217589D01*
X152673915Y-62217585D01*
X152673919Y-62217584D01*
X152804698Y-62205683D01*
X152804699Y-62205683D01*
X152828262Y-62208160D01*
X152828262Y-62208160D01*
G37*
G36*
X140128262Y-62208160D02*
X140235298Y-62219409D01*
X140235303Y-62219410D01*
X140235346Y-62219415D01*
X140360837Y-62258261D01*
X140476393Y-62320742D01*
X140577612Y-62404478D01*
X140660639Y-62506279D01*
X140722312Y-62622269D01*
X140760281Y-62748028D01*
X140773100Y-62878767D01*
X140773100Y-64121263D01*
X140773049Y-64128574D01*
X140773048Y-64128579D01*
X140773034Y-64130631D01*
X140758391Y-64261178D01*
X140718670Y-64386395D01*
X140655384Y-64501512D01*
X140570943Y-64602145D01*
X140468565Y-64684459D01*
X140352148Y-64745320D01*
X140226126Y-64782411D01*
X140226085Y-64782415D01*
X140226081Y-64782416D01*
X140095303Y-64794317D01*
X140095301Y-64794317D01*
X140071738Y-64791840D01*
X139964702Y-64780591D01*
X139964697Y-64780590D01*
X139964654Y-64780585D01*
X139839163Y-64741739D01*
X139723607Y-64679258D01*
X139622388Y-64595522D01*
X139539361Y-64493721D01*
X139477688Y-64377731D01*
X139439719Y-64251972D01*
X139426900Y-64121233D01*
X139426900Y-62878737D01*
X139426951Y-62871426D01*
X139426952Y-62871421D01*
X139426966Y-62869369D01*
X139441609Y-62738822D01*
X139481330Y-62613605D01*
X139544616Y-62498488D01*
X139629057Y-62397855D01*
X139731435Y-62315541D01*
X139847852Y-62254680D01*
X139973874Y-62217589D01*
X139973915Y-62217585D01*
X139973919Y-62217584D01*
X140104698Y-62205683D01*
X140104699Y-62205683D01*
X140128262Y-62208160D01*
X140128262Y-62208160D01*
G37*
G36*
X146948262Y-57928160D02*
X147055298Y-57939409D01*
X147055303Y-57939410D01*
X147055346Y-57939415D01*
X147180837Y-57978261D01*
X147296393Y-58040742D01*
X147397612Y-58124478D01*
X147480639Y-58226279D01*
X147542312Y-58342269D01*
X147580281Y-58468028D01*
X147593100Y-58598767D01*
X147593100Y-59841263D01*
X147593049Y-59848574D01*
X147593048Y-59848579D01*
X147593034Y-59850631D01*
X147578391Y-59981178D01*
X147538670Y-60106395D01*
X147475384Y-60221512D01*
X147390943Y-60322145D01*
X147288565Y-60404459D01*
X147172148Y-60465320D01*
X147046126Y-60502411D01*
X147046085Y-60502415D01*
X147046081Y-60502416D01*
X146915303Y-60514317D01*
X146915301Y-60514317D01*
X146891738Y-60511840D01*
X146784702Y-60500591D01*
X146784697Y-60500590D01*
X146784654Y-60500585D01*
X146659163Y-60461739D01*
X146543607Y-60399258D01*
X146442388Y-60315522D01*
X146359361Y-60213721D01*
X146297688Y-60097731D01*
X146259719Y-59971972D01*
X146246900Y-59841233D01*
X146246900Y-58598737D01*
X146246951Y-58591426D01*
X146246952Y-58591421D01*
X146246966Y-58589369D01*
X146261609Y-58458822D01*
X146301330Y-58333605D01*
X146364616Y-58218488D01*
X146449057Y-58117855D01*
X146551435Y-58035541D01*
X146667852Y-57974680D01*
X146793874Y-57937589D01*
X146793915Y-57937585D01*
X146793919Y-57937584D01*
X146924698Y-57925683D01*
X146924699Y-57925683D01*
X146948262Y-57928160D01*
X146948262Y-57928160D01*
G37*
G36*
X154568262Y-57928160D02*
X154675298Y-57939409D01*
X154675303Y-57939410D01*
X154675346Y-57939415D01*
X154800837Y-57978261D01*
X154916393Y-58040742D01*
X155017612Y-58124478D01*
X155100639Y-58226279D01*
X155162312Y-58342269D01*
X155200281Y-58468028D01*
X155213100Y-58598767D01*
X155213100Y-59841263D01*
X155213049Y-59848574D01*
X155213048Y-59848579D01*
X155213034Y-59850631D01*
X155198391Y-59981178D01*
X155158670Y-60106395D01*
X155095384Y-60221512D01*
X155010943Y-60322145D01*
X154908565Y-60404459D01*
X154792148Y-60465320D01*
X154666126Y-60502411D01*
X154666085Y-60502415D01*
X154666081Y-60502416D01*
X154535303Y-60514317D01*
X154535301Y-60514317D01*
X154511738Y-60511840D01*
X154404702Y-60500591D01*
X154404697Y-60500590D01*
X154404654Y-60500585D01*
X154279163Y-60461739D01*
X154163607Y-60399258D01*
X154062388Y-60315522D01*
X153979361Y-60213721D01*
X153917688Y-60097731D01*
X153879719Y-59971972D01*
X153866900Y-59841233D01*
X153866900Y-58598737D01*
X153866951Y-58591426D01*
X153866952Y-58591421D01*
X153866966Y-58589369D01*
X153881609Y-58458822D01*
X153921330Y-58333605D01*
X153984616Y-58218488D01*
X154069057Y-58117855D01*
X154171435Y-58035541D01*
X154287852Y-57974680D01*
X154413874Y-57937589D01*
X154413915Y-57937585D01*
X154413919Y-57937584D01*
X154544698Y-57925683D01*
X154544699Y-57925683D01*
X154568262Y-57928160D01*
X154568262Y-57928160D01*
G37*
G36*
X152028262Y-57928160D02*
X152135298Y-57939409D01*
X152135303Y-57939410D01*
X152135346Y-57939415D01*
X152260837Y-57978261D01*
X152376393Y-58040742D01*
X152477612Y-58124478D01*
X152560639Y-58226279D01*
X152622312Y-58342269D01*
X152660281Y-58468028D01*
X152673100Y-58598767D01*
X152673100Y-59841263D01*
X152673049Y-59848574D01*
X152673048Y-59848579D01*
X152673034Y-59850631D01*
X152658391Y-59981178D01*
X152618670Y-60106395D01*
X152555384Y-60221512D01*
X152470943Y-60322145D01*
X152368565Y-60404459D01*
X152252148Y-60465320D01*
X152126126Y-60502411D01*
X152126085Y-60502415D01*
X152126081Y-60502416D01*
X151995303Y-60514317D01*
X151995301Y-60514317D01*
X151971738Y-60511840D01*
X151864702Y-60500591D01*
X151864697Y-60500590D01*
X151864654Y-60500585D01*
X151739163Y-60461739D01*
X151623607Y-60399258D01*
X151522388Y-60315522D01*
X151439361Y-60213721D01*
X151377688Y-60097731D01*
X151339719Y-59971972D01*
X151326900Y-59841233D01*
X151326900Y-58598737D01*
X151326951Y-58591426D01*
X151326952Y-58591421D01*
X151326966Y-58589369D01*
X151341609Y-58458822D01*
X151381330Y-58333605D01*
X151444616Y-58218488D01*
X151529057Y-58117855D01*
X151631435Y-58035541D01*
X151747852Y-57974680D01*
X151873874Y-57937589D01*
X151873915Y-57937585D01*
X151873919Y-57937584D01*
X152004698Y-57925683D01*
X152004699Y-57925683D01*
X152028262Y-57928160D01*
X152028262Y-57928160D01*
G37*
G36*
X149488262Y-57928160D02*
X149595298Y-57939409D01*
X149595303Y-57939410D01*
X149595346Y-57939415D01*
X149720837Y-57978261D01*
X149836393Y-58040742D01*
X149937612Y-58124478D01*
X150020639Y-58226279D01*
X150082312Y-58342269D01*
X150120281Y-58468028D01*
X150133100Y-58598767D01*
X150133100Y-59841263D01*
X150133049Y-59848574D01*
X150133048Y-59848579D01*
X150133034Y-59850631D01*
X150118391Y-59981178D01*
X150078670Y-60106395D01*
X150015384Y-60221512D01*
X149930943Y-60322145D01*
X149828565Y-60404459D01*
X149712148Y-60465320D01*
X149586126Y-60502411D01*
X149586085Y-60502415D01*
X149586081Y-60502416D01*
X149455303Y-60514317D01*
X149455301Y-60514317D01*
X149431738Y-60511840D01*
X149324702Y-60500591D01*
X149324697Y-60500590D01*
X149324654Y-60500585D01*
X149199163Y-60461739D01*
X149083607Y-60399258D01*
X148982388Y-60315522D01*
X148899361Y-60213721D01*
X148837688Y-60097731D01*
X148799719Y-59971972D01*
X148786900Y-59841233D01*
X148786900Y-58598737D01*
X148786951Y-58591426D01*
X148786952Y-58591421D01*
X148786966Y-58589369D01*
X148801609Y-58458822D01*
X148841330Y-58333605D01*
X148904616Y-58218488D01*
X148989057Y-58117855D01*
X149091435Y-58035541D01*
X149207852Y-57974680D01*
X149333874Y-57937589D01*
X149333915Y-57937585D01*
X149333919Y-57937584D01*
X149464698Y-57925683D01*
X149464699Y-57925683D01*
X149488262Y-57928160D01*
X149488262Y-57928160D01*
G37*
G36*
X144408262Y-57928160D02*
X144515298Y-57939409D01*
X144515303Y-57939410D01*
X144515346Y-57939415D01*
X144640837Y-57978261D01*
X144756393Y-58040742D01*
X144857612Y-58124478D01*
X144940639Y-58226279D01*
X145002312Y-58342269D01*
X145040281Y-58468028D01*
X145053100Y-58598767D01*
X145053100Y-59841263D01*
X145053049Y-59848574D01*
X145053048Y-59848579D01*
X145053034Y-59850631D01*
X145038391Y-59981178D01*
X144998670Y-60106395D01*
X144935384Y-60221512D01*
X144850943Y-60322145D01*
X144748565Y-60404459D01*
X144632148Y-60465320D01*
X144506126Y-60502411D01*
X144506085Y-60502415D01*
X144506081Y-60502416D01*
X144375303Y-60514317D01*
X144375301Y-60514317D01*
X144351738Y-60511840D01*
X144244702Y-60500591D01*
X144244697Y-60500590D01*
X144244654Y-60500585D01*
X144119163Y-60461739D01*
X144003607Y-60399258D01*
X143902388Y-60315522D01*
X143819361Y-60213721D01*
X143757688Y-60097731D01*
X143719719Y-59971972D01*
X143706900Y-59841233D01*
X143706900Y-58598737D01*
X143706951Y-58591426D01*
X143706952Y-58591421D01*
X143706966Y-58589369D01*
X143721609Y-58458822D01*
X143761330Y-58333605D01*
X143824616Y-58218488D01*
X143909057Y-58117855D01*
X144011435Y-58035541D01*
X144127852Y-57974680D01*
X144253874Y-57937589D01*
X144253915Y-57937585D01*
X144253919Y-57937584D01*
X144384698Y-57925683D01*
X144384699Y-57925683D01*
X144408262Y-57928160D01*
X144408262Y-57928160D01*
G37*
G36*
X139328262Y-57928160D02*
X139435298Y-57939409D01*
X139435303Y-57939410D01*
X139435346Y-57939415D01*
X139560837Y-57978261D01*
X139676393Y-58040742D01*
X139777612Y-58124478D01*
X139860639Y-58226279D01*
X139922312Y-58342269D01*
X139960281Y-58468028D01*
X139973100Y-58598767D01*
X139973100Y-59841263D01*
X139973049Y-59848574D01*
X139973048Y-59848579D01*
X139973034Y-59850631D01*
X139958391Y-59981178D01*
X139918670Y-60106395D01*
X139855384Y-60221512D01*
X139770943Y-60322145D01*
X139668565Y-60404459D01*
X139552148Y-60465320D01*
X139426126Y-60502411D01*
X139426085Y-60502415D01*
X139426081Y-60502416D01*
X139295303Y-60514317D01*
X139295301Y-60514317D01*
X139271738Y-60511840D01*
X139164702Y-60500591D01*
X139164697Y-60500590D01*
X139164654Y-60500585D01*
X139039163Y-60461739D01*
X138923607Y-60399258D01*
X138822388Y-60315522D01*
X138739361Y-60213721D01*
X138677688Y-60097731D01*
X138639719Y-59971972D01*
X138626900Y-59841233D01*
X138626900Y-58598737D01*
X138626951Y-58591426D01*
X138626952Y-58591421D01*
X138626966Y-58589369D01*
X138641609Y-58458822D01*
X138681330Y-58333605D01*
X138744616Y-58218488D01*
X138829057Y-58117855D01*
X138931435Y-58035541D01*
X139047852Y-57974680D01*
X139173874Y-57937589D01*
X139173915Y-57937585D01*
X139173919Y-57937584D01*
X139304698Y-57925683D01*
X139304699Y-57925683D01*
X139328262Y-57928160D01*
X139328262Y-57928160D01*
G37*
G36*
X157108262Y-57928160D02*
X157215298Y-57939409D01*
X157215303Y-57939410D01*
X157215346Y-57939415D01*
X157340837Y-57978261D01*
X157456393Y-58040742D01*
X157557612Y-58124478D01*
X157640639Y-58226279D01*
X157702312Y-58342269D01*
X157740281Y-58468028D01*
X157753100Y-58598767D01*
X157753100Y-59841263D01*
X157753049Y-59848574D01*
X157753048Y-59848579D01*
X157753034Y-59850631D01*
X157738391Y-59981178D01*
X157698670Y-60106395D01*
X157635384Y-60221512D01*
X157550943Y-60322145D01*
X157448565Y-60404459D01*
X157332148Y-60465320D01*
X157206126Y-60502411D01*
X157206085Y-60502415D01*
X157206081Y-60502416D01*
X157075303Y-60514317D01*
X157075301Y-60514317D01*
X157051738Y-60511840D01*
X156944702Y-60500591D01*
X156944697Y-60500590D01*
X156944654Y-60500585D01*
X156819163Y-60461739D01*
X156703607Y-60399258D01*
X156602388Y-60315522D01*
X156519361Y-60213721D01*
X156457688Y-60097731D01*
X156419719Y-59971972D01*
X156406900Y-59841233D01*
X156406900Y-58598737D01*
X156406951Y-58591426D01*
X156406952Y-58591421D01*
X156406966Y-58589369D01*
X156421609Y-58458822D01*
X156461330Y-58333605D01*
X156524616Y-58218488D01*
X156609057Y-58117855D01*
X156711435Y-58035541D01*
X156827852Y-57974680D01*
X156953874Y-57937589D01*
X156953915Y-57937585D01*
X156953919Y-57937584D01*
X157084698Y-57925683D01*
X157084699Y-57925683D01*
X157108262Y-57928160D01*
X157108262Y-57928160D01*
G37*
G36*
X159648262Y-57928160D02*
X159755298Y-57939409D01*
X159755303Y-57939410D01*
X159755346Y-57939415D01*
X159880837Y-57978261D01*
X159996393Y-58040742D01*
X160097612Y-58124478D01*
X160180639Y-58226279D01*
X160242312Y-58342269D01*
X160280281Y-58468028D01*
X160293100Y-58598767D01*
X160293100Y-59841263D01*
X160293049Y-59848574D01*
X160293048Y-59848579D01*
X160293034Y-59850631D01*
X160278391Y-59981178D01*
X160238670Y-60106395D01*
X160175384Y-60221512D01*
X160090943Y-60322145D01*
X159988565Y-60404459D01*
X159872148Y-60465320D01*
X159746126Y-60502411D01*
X159746085Y-60502415D01*
X159746081Y-60502416D01*
X159615303Y-60514317D01*
X159615301Y-60514317D01*
X159591738Y-60511840D01*
X159484702Y-60500591D01*
X159484697Y-60500590D01*
X159484654Y-60500585D01*
X159359163Y-60461739D01*
X159243607Y-60399258D01*
X159142388Y-60315522D01*
X159059361Y-60213721D01*
X158997688Y-60097731D01*
X158959719Y-59971972D01*
X158946900Y-59841233D01*
X158946900Y-58598737D01*
X158946951Y-58591426D01*
X158946952Y-58591421D01*
X158946966Y-58589369D01*
X158961609Y-58458822D01*
X159001330Y-58333605D01*
X159064616Y-58218488D01*
X159149057Y-58117855D01*
X159251435Y-58035541D01*
X159367852Y-57974680D01*
X159493874Y-57937589D01*
X159493915Y-57937585D01*
X159493919Y-57937584D01*
X159624698Y-57925683D01*
X159624699Y-57925683D01*
X159648262Y-57928160D01*
X159648262Y-57928160D01*
G37*
G36*
X162188262Y-57928160D02*
X162295298Y-57939409D01*
X162295303Y-57939410D01*
X162295346Y-57939415D01*
X162420837Y-57978261D01*
X162536393Y-58040742D01*
X162637612Y-58124478D01*
X162720639Y-58226279D01*
X162782312Y-58342269D01*
X162820281Y-58468028D01*
X162833100Y-58598767D01*
X162833100Y-59841263D01*
X162833049Y-59848574D01*
X162833048Y-59848579D01*
X162833034Y-59850631D01*
X162818391Y-59981178D01*
X162778670Y-60106395D01*
X162715384Y-60221512D01*
X162630943Y-60322145D01*
X162528565Y-60404459D01*
X162412148Y-60465320D01*
X162286126Y-60502411D01*
X162286085Y-60502415D01*
X162286081Y-60502416D01*
X162155303Y-60514317D01*
X162155301Y-60514317D01*
X162131738Y-60511840D01*
X162024702Y-60500591D01*
X162024697Y-60500590D01*
X162024654Y-60500585D01*
X161899163Y-60461739D01*
X161783607Y-60399258D01*
X161682388Y-60315522D01*
X161599361Y-60213721D01*
X161537688Y-60097731D01*
X161499719Y-59971972D01*
X161486900Y-59841233D01*
X161486900Y-58598737D01*
X161486951Y-58591426D01*
X161486952Y-58591421D01*
X161486966Y-58589369D01*
X161501609Y-58458822D01*
X161541330Y-58333605D01*
X161604616Y-58218488D01*
X161689057Y-58117855D01*
X161791435Y-58035541D01*
X161907852Y-57974680D01*
X162033874Y-57937589D01*
X162033915Y-57937585D01*
X162033919Y-57937584D01*
X162164698Y-57925683D01*
X162164699Y-57925683D01*
X162188262Y-57928160D01*
X162188262Y-57928160D01*
G37*
G36*
X141868262Y-57928160D02*
X141975298Y-57939409D01*
X141975303Y-57939410D01*
X141975346Y-57939415D01*
X142100837Y-57978261D01*
X142216393Y-58040742D01*
X142317612Y-58124478D01*
X142400639Y-58226279D01*
X142462312Y-58342269D01*
X142500281Y-58468028D01*
X142513100Y-58598767D01*
X142513100Y-59841263D01*
X142513049Y-59848574D01*
X142513048Y-59848579D01*
X142513034Y-59850631D01*
X142498391Y-59981178D01*
X142458670Y-60106395D01*
X142395384Y-60221512D01*
X142310943Y-60322145D01*
X142208565Y-60404459D01*
X142092148Y-60465320D01*
X141966126Y-60502411D01*
X141966085Y-60502415D01*
X141966081Y-60502416D01*
X141835303Y-60514317D01*
X141835301Y-60514317D01*
X141811738Y-60511840D01*
X141704702Y-60500591D01*
X141704697Y-60500590D01*
X141704654Y-60500585D01*
X141579163Y-60461739D01*
X141463607Y-60399258D01*
X141362388Y-60315522D01*
X141279361Y-60213721D01*
X141217688Y-60097731D01*
X141179719Y-59971972D01*
X141166900Y-59841233D01*
X141166900Y-58598737D01*
X141166951Y-58591426D01*
X141166952Y-58591421D01*
X141166966Y-58589369D01*
X141181609Y-58458822D01*
X141221330Y-58333605D01*
X141284616Y-58218488D01*
X141369057Y-58117855D01*
X141471435Y-58035541D01*
X141587852Y-57974680D01*
X141713874Y-57937589D01*
X141713915Y-57937585D01*
X141713919Y-57937584D01*
X141844698Y-57925683D01*
X141844699Y-57925683D01*
X141868262Y-57928160D01*
X141868262Y-57928160D01*
G37*
G36*
X141068262Y-53648160D02*
X141175298Y-53659409D01*
X141175303Y-53659410D01*
X141175346Y-53659415D01*
X141300837Y-53698261D01*
X141416393Y-53760742D01*
X141517612Y-53844478D01*
X141600639Y-53946279D01*
X141662312Y-54062269D01*
X141700281Y-54188028D01*
X141713100Y-54318767D01*
X141713100Y-55561263D01*
X141713049Y-55568574D01*
X141713048Y-55568579D01*
X141713034Y-55570631D01*
X141698391Y-55701178D01*
X141658670Y-55826395D01*
X141595384Y-55941512D01*
X141510943Y-56042145D01*
X141408565Y-56124459D01*
X141292148Y-56185320D01*
X141166126Y-56222411D01*
X141166085Y-56222415D01*
X141166081Y-56222416D01*
X141035303Y-56234317D01*
X141035301Y-56234317D01*
X141011738Y-56231840D01*
X140904702Y-56220591D01*
X140904697Y-56220590D01*
X140904654Y-56220585D01*
X140779163Y-56181739D01*
X140663607Y-56119258D01*
X140562388Y-56035522D01*
X140479361Y-55933721D01*
X140417688Y-55817731D01*
X140379719Y-55691972D01*
X140366900Y-55561233D01*
X140366900Y-54318737D01*
X140366951Y-54311426D01*
X140366952Y-54311421D01*
X140366966Y-54309369D01*
X140381609Y-54178822D01*
X140421330Y-54053605D01*
X140484616Y-53938488D01*
X140569057Y-53837855D01*
X140671435Y-53755541D01*
X140787852Y-53694680D01*
X140913874Y-53657589D01*
X140913915Y-53657585D01*
X140913919Y-53657584D01*
X141044698Y-53645683D01*
X141044699Y-53645683D01*
X141068262Y-53648160D01*
X141068262Y-53648160D01*
G37*
G36*
X148688262Y-53648160D02*
X148795298Y-53659409D01*
X148795303Y-53659410D01*
X148795346Y-53659415D01*
X148920837Y-53698261D01*
X149036393Y-53760742D01*
X149137612Y-53844478D01*
X149220639Y-53946279D01*
X149282312Y-54062269D01*
X149320281Y-54188028D01*
X149333100Y-54318767D01*
X149333100Y-55561263D01*
X149333049Y-55568574D01*
X149333048Y-55568579D01*
X149333034Y-55570631D01*
X149318391Y-55701178D01*
X149278670Y-55826395D01*
X149215384Y-55941512D01*
X149130943Y-56042145D01*
X149028565Y-56124459D01*
X148912148Y-56185320D01*
X148786126Y-56222411D01*
X148786085Y-56222415D01*
X148786081Y-56222416D01*
X148655303Y-56234317D01*
X148655301Y-56234317D01*
X148631738Y-56231840D01*
X148524702Y-56220591D01*
X148524697Y-56220590D01*
X148524654Y-56220585D01*
X148399163Y-56181739D01*
X148283607Y-56119258D01*
X148182388Y-56035522D01*
X148099361Y-55933721D01*
X148037688Y-55817731D01*
X147999719Y-55691972D01*
X147986900Y-55561233D01*
X147986900Y-54318737D01*
X147986951Y-54311426D01*
X147986952Y-54311421D01*
X147986966Y-54309369D01*
X148001609Y-54178822D01*
X148041330Y-54053605D01*
X148104616Y-53938488D01*
X148189057Y-53837855D01*
X148291435Y-53755541D01*
X148407852Y-53694680D01*
X148533874Y-53657589D01*
X148533915Y-53657585D01*
X148533919Y-53657584D01*
X148664698Y-53645683D01*
X148664699Y-53645683D01*
X148688262Y-53648160D01*
X148688262Y-53648160D01*
G37*
G36*
X138528262Y-53648160D02*
X138635298Y-53659409D01*
X138635303Y-53659410D01*
X138635346Y-53659415D01*
X138760837Y-53698261D01*
X138876393Y-53760742D01*
X138977612Y-53844478D01*
X139060639Y-53946279D01*
X139122312Y-54062269D01*
X139160281Y-54188028D01*
X139173100Y-54318767D01*
X139173100Y-55561263D01*
X139173049Y-55568574D01*
X139173048Y-55568579D01*
X139173034Y-55570631D01*
X139158391Y-55701178D01*
X139118670Y-55826395D01*
X139055384Y-55941512D01*
X138970943Y-56042145D01*
X138868565Y-56124459D01*
X138752148Y-56185320D01*
X138626126Y-56222411D01*
X138626085Y-56222415D01*
X138626081Y-56222416D01*
X138495303Y-56234317D01*
X138495301Y-56234317D01*
X138471738Y-56231840D01*
X138364702Y-56220591D01*
X138364697Y-56220590D01*
X138364654Y-56220585D01*
X138239163Y-56181739D01*
X138123607Y-56119258D01*
X138022388Y-56035522D01*
X137939361Y-55933721D01*
X137877688Y-55817731D01*
X137839719Y-55691972D01*
X137826900Y-55561233D01*
X137826900Y-54318737D01*
X137826951Y-54311426D01*
X137826952Y-54311421D01*
X137826966Y-54309369D01*
X137841609Y-54178822D01*
X137881330Y-54053605D01*
X137944616Y-53938488D01*
X138029057Y-53837855D01*
X138131435Y-53755541D01*
X138247852Y-53694680D01*
X138373874Y-53657589D01*
X138373915Y-53657585D01*
X138373919Y-53657584D01*
X138504698Y-53645683D01*
X138504699Y-53645683D01*
X138528262Y-53648160D01*
X138528262Y-53648160D01*
G37*
G36*
X143608262Y-53648160D02*
X143715298Y-53659409D01*
X143715303Y-53659410D01*
X143715346Y-53659415D01*
X143840837Y-53698261D01*
X143956393Y-53760742D01*
X144057612Y-53844478D01*
X144140639Y-53946279D01*
X144202312Y-54062269D01*
X144240281Y-54188028D01*
X144253100Y-54318767D01*
X144253100Y-55561263D01*
X144253049Y-55568574D01*
X144253048Y-55568579D01*
X144253034Y-55570631D01*
X144238391Y-55701178D01*
X144198670Y-55826395D01*
X144135384Y-55941512D01*
X144050943Y-56042145D01*
X143948565Y-56124459D01*
X143832148Y-56185320D01*
X143706126Y-56222411D01*
X143706085Y-56222415D01*
X143706081Y-56222416D01*
X143575303Y-56234317D01*
X143575301Y-56234317D01*
X143551738Y-56231840D01*
X143444702Y-56220591D01*
X143444697Y-56220590D01*
X143444654Y-56220585D01*
X143319163Y-56181739D01*
X143203607Y-56119258D01*
X143102388Y-56035522D01*
X143019361Y-55933721D01*
X142957688Y-55817731D01*
X142919719Y-55691972D01*
X142906900Y-55561233D01*
X142906900Y-54318737D01*
X142906951Y-54311426D01*
X142906952Y-54311421D01*
X142906966Y-54309369D01*
X142921609Y-54178822D01*
X142961330Y-54053605D01*
X143024616Y-53938488D01*
X143109057Y-53837855D01*
X143211435Y-53755541D01*
X143327852Y-53694680D01*
X143453874Y-53657589D01*
X143453915Y-53657585D01*
X143453919Y-53657584D01*
X143584698Y-53645683D01*
X143584699Y-53645683D01*
X143608262Y-53648160D01*
X143608262Y-53648160D01*
G37*
G36*
X146148262Y-53648160D02*
X146255298Y-53659409D01*
X146255303Y-53659410D01*
X146255346Y-53659415D01*
X146380837Y-53698261D01*
X146496393Y-53760742D01*
X146597612Y-53844478D01*
X146680639Y-53946279D01*
X146742312Y-54062269D01*
X146780281Y-54188028D01*
X146793100Y-54318767D01*
X146793100Y-55561263D01*
X146793049Y-55568574D01*
X146793048Y-55568579D01*
X146793034Y-55570631D01*
X146778391Y-55701178D01*
X146738670Y-55826395D01*
X146675384Y-55941512D01*
X146590943Y-56042145D01*
X146488565Y-56124459D01*
X146372148Y-56185320D01*
X146246126Y-56222411D01*
X146246085Y-56222415D01*
X146246081Y-56222416D01*
X146115303Y-56234317D01*
X146115301Y-56234317D01*
X146091738Y-56231840D01*
X145984702Y-56220591D01*
X145984697Y-56220590D01*
X145984654Y-56220585D01*
X145859163Y-56181739D01*
X145743607Y-56119258D01*
X145642388Y-56035522D01*
X145559361Y-55933721D01*
X145497688Y-55817731D01*
X145459719Y-55691972D01*
X145446900Y-55561233D01*
X145446900Y-54318737D01*
X145446951Y-54311426D01*
X145446952Y-54311421D01*
X145446966Y-54309369D01*
X145461609Y-54178822D01*
X145501330Y-54053605D01*
X145564616Y-53938488D01*
X145649057Y-53837855D01*
X145751435Y-53755541D01*
X145867852Y-53694680D01*
X145993874Y-53657589D01*
X145993915Y-53657585D01*
X145993919Y-53657584D01*
X146124698Y-53645683D01*
X146124699Y-53645683D01*
X146148262Y-53648160D01*
X146148262Y-53648160D01*
G37*
G36*
X161388262Y-53648160D02*
X161495298Y-53659409D01*
X161495303Y-53659410D01*
X161495346Y-53659415D01*
X161620837Y-53698261D01*
X161736393Y-53760742D01*
X161837612Y-53844478D01*
X161920639Y-53946279D01*
X161982312Y-54062269D01*
X162020281Y-54188028D01*
X162033100Y-54318767D01*
X162033100Y-55561263D01*
X162033049Y-55568574D01*
X162033048Y-55568579D01*
X162033034Y-55570631D01*
X162018391Y-55701178D01*
X161978670Y-55826395D01*
X161915384Y-55941512D01*
X161830943Y-56042145D01*
X161728565Y-56124459D01*
X161612148Y-56185320D01*
X161486126Y-56222411D01*
X161486085Y-56222415D01*
X161486081Y-56222416D01*
X161355303Y-56234317D01*
X161355301Y-56234317D01*
X161331738Y-56231840D01*
X161224702Y-56220591D01*
X161224697Y-56220590D01*
X161224654Y-56220585D01*
X161099163Y-56181739D01*
X160983607Y-56119258D01*
X160882388Y-56035522D01*
X160799361Y-55933721D01*
X160737688Y-55817731D01*
X160699719Y-55691972D01*
X160686900Y-55561233D01*
X160686900Y-54318737D01*
X160686951Y-54311426D01*
X160686952Y-54311421D01*
X160686966Y-54309369D01*
X160701609Y-54178822D01*
X160741330Y-54053605D01*
X160804616Y-53938488D01*
X160889057Y-53837855D01*
X160991435Y-53755541D01*
X161107852Y-53694680D01*
X161233874Y-53657589D01*
X161233915Y-53657585D01*
X161233919Y-53657584D01*
X161364698Y-53645683D01*
X161364699Y-53645683D01*
X161388262Y-53648160D01*
X161388262Y-53648160D01*
G37*
G36*
X153768262Y-53648160D02*
X153875298Y-53659409D01*
X153875303Y-53659410D01*
X153875346Y-53659415D01*
X154000837Y-53698261D01*
X154116393Y-53760742D01*
X154217612Y-53844478D01*
X154300639Y-53946279D01*
X154362312Y-54062269D01*
X154400281Y-54188028D01*
X154413100Y-54318767D01*
X154413100Y-55561263D01*
X154413049Y-55568574D01*
X154413048Y-55568579D01*
X154413034Y-55570631D01*
X154398391Y-55701178D01*
X154358670Y-55826395D01*
X154295384Y-55941512D01*
X154210943Y-56042145D01*
X154108565Y-56124459D01*
X153992148Y-56185320D01*
X153866126Y-56222411D01*
X153866085Y-56222415D01*
X153866081Y-56222416D01*
X153735303Y-56234317D01*
X153735301Y-56234317D01*
X153711738Y-56231840D01*
X153604702Y-56220591D01*
X153604697Y-56220590D01*
X153604654Y-56220585D01*
X153479163Y-56181739D01*
X153363607Y-56119258D01*
X153262388Y-56035522D01*
X153179361Y-55933721D01*
X153117688Y-55817731D01*
X153079719Y-55691972D01*
X153066900Y-55561233D01*
X153066900Y-54318737D01*
X153066951Y-54311426D01*
X153066952Y-54311421D01*
X153066966Y-54309369D01*
X153081609Y-54178822D01*
X153121330Y-54053605D01*
X153184616Y-53938488D01*
X153269057Y-53837855D01*
X153371435Y-53755541D01*
X153487852Y-53694680D01*
X153613874Y-53657589D01*
X153613915Y-53657585D01*
X153613919Y-53657584D01*
X153744698Y-53645683D01*
X153744699Y-53645683D01*
X153768262Y-53648160D01*
X153768262Y-53648160D01*
G37*
G36*
X151228262Y-53648160D02*
X151335298Y-53659409D01*
X151335303Y-53659410D01*
X151335346Y-53659415D01*
X151460837Y-53698261D01*
X151576393Y-53760742D01*
X151677612Y-53844478D01*
X151760639Y-53946279D01*
X151822312Y-54062269D01*
X151860281Y-54188028D01*
X151873100Y-54318767D01*
X151873100Y-55561263D01*
X151873049Y-55568574D01*
X151873048Y-55568579D01*
X151873034Y-55570631D01*
X151858391Y-55701178D01*
X151818670Y-55826395D01*
X151755384Y-55941512D01*
X151670943Y-56042145D01*
X151568565Y-56124459D01*
X151452148Y-56185320D01*
X151326126Y-56222411D01*
X151326085Y-56222415D01*
X151326081Y-56222416D01*
X151195303Y-56234317D01*
X151195301Y-56234317D01*
X151171738Y-56231840D01*
X151064702Y-56220591D01*
X151064697Y-56220590D01*
X151064654Y-56220585D01*
X150939163Y-56181739D01*
X150823607Y-56119258D01*
X150722388Y-56035522D01*
X150639361Y-55933721D01*
X150577688Y-55817731D01*
X150539719Y-55691972D01*
X150526900Y-55561233D01*
X150526900Y-54318737D01*
X150526951Y-54311426D01*
X150526952Y-54311421D01*
X150526966Y-54309369D01*
X150541609Y-54178822D01*
X150581330Y-54053605D01*
X150644616Y-53938488D01*
X150729057Y-53837855D01*
X150831435Y-53755541D01*
X150947852Y-53694680D01*
X151073874Y-53657589D01*
X151073915Y-53657585D01*
X151073919Y-53657584D01*
X151204698Y-53645683D01*
X151204699Y-53645683D01*
X151228262Y-53648160D01*
X151228262Y-53648160D01*
G37*
G36*
X158848262Y-53648160D02*
X158955298Y-53659409D01*
X158955303Y-53659410D01*
X158955346Y-53659415D01*
X159080837Y-53698261D01*
X159196393Y-53760742D01*
X159297612Y-53844478D01*
X159380639Y-53946279D01*
X159442312Y-54062269D01*
X159480281Y-54188028D01*
X159493100Y-54318767D01*
X159493100Y-55561263D01*
X159493049Y-55568574D01*
X159493048Y-55568579D01*
X159493034Y-55570631D01*
X159478391Y-55701178D01*
X159438670Y-55826395D01*
X159375384Y-55941512D01*
X159290943Y-56042145D01*
X159188565Y-56124459D01*
X159072148Y-56185320D01*
X158946126Y-56222411D01*
X158946085Y-56222415D01*
X158946081Y-56222416D01*
X158815303Y-56234317D01*
X158815301Y-56234317D01*
X158791738Y-56231840D01*
X158684702Y-56220591D01*
X158684697Y-56220590D01*
X158684654Y-56220585D01*
X158559163Y-56181739D01*
X158443607Y-56119258D01*
X158342388Y-56035522D01*
X158259361Y-55933721D01*
X158197688Y-55817731D01*
X158159719Y-55691972D01*
X158146900Y-55561233D01*
X158146900Y-54318737D01*
X158146951Y-54311426D01*
X158146952Y-54311421D01*
X158146966Y-54309369D01*
X158161609Y-54178822D01*
X158201330Y-54053605D01*
X158264616Y-53938488D01*
X158349057Y-53837855D01*
X158451435Y-53755541D01*
X158567852Y-53694680D01*
X158693874Y-53657589D01*
X158693915Y-53657585D01*
X158693919Y-53657584D01*
X158824698Y-53645683D01*
X158824699Y-53645683D01*
X158848262Y-53648160D01*
X158848262Y-53648160D01*
G37*
G36*
X156308262Y-53648160D02*
X156415298Y-53659409D01*
X156415303Y-53659410D01*
X156415346Y-53659415D01*
X156540837Y-53698261D01*
X156656393Y-53760742D01*
X156757612Y-53844478D01*
X156840639Y-53946279D01*
X156902312Y-54062269D01*
X156940281Y-54188028D01*
X156953100Y-54318767D01*
X156953100Y-55561263D01*
X156953049Y-55568574D01*
X156953048Y-55568579D01*
X156953034Y-55570631D01*
X156938391Y-55701178D01*
X156898670Y-55826395D01*
X156835384Y-55941512D01*
X156750943Y-56042145D01*
X156648565Y-56124459D01*
X156532148Y-56185320D01*
X156406126Y-56222411D01*
X156406085Y-56222415D01*
X156406081Y-56222416D01*
X156275303Y-56234317D01*
X156275301Y-56234317D01*
X156251738Y-56231840D01*
X156144702Y-56220591D01*
X156144697Y-56220590D01*
X156144654Y-56220585D01*
X156019163Y-56181739D01*
X155903607Y-56119258D01*
X155802388Y-56035522D01*
X155719361Y-55933721D01*
X155657688Y-55817731D01*
X155619719Y-55691972D01*
X155606900Y-55561233D01*
X155606900Y-54318737D01*
X155606951Y-54311426D01*
X155606952Y-54311421D01*
X155606966Y-54309369D01*
X155621609Y-54178822D01*
X155661330Y-54053605D01*
X155724616Y-53938488D01*
X155809057Y-53837855D01*
X155911435Y-53755541D01*
X156027852Y-53694680D01*
X156153874Y-53657589D01*
X156153915Y-53657585D01*
X156153919Y-53657584D01*
X156284698Y-53645683D01*
X156284699Y-53645683D01*
X156308262Y-53648160D01*
X156308262Y-53648160D01*
G37*
G36*
X155521265Y-48019211D02*
X155521270Y-48019213D01*
X155521312Y-48019217D01*
X155689423Y-48071256D01*
X155844224Y-48154957D01*
X155979820Y-48267131D01*
X156091045Y-48403507D01*
X156173663Y-48558889D01*
X156224527Y-48727359D01*
X156241700Y-48902500D01*
X156241700Y-49217534D01*
X156241627Y-49228035D01*
X156241626Y-49228041D01*
X156241612Y-49230090D01*
X156221996Y-49404974D01*
X156168784Y-49572717D01*
X156084005Y-49726931D01*
X155970886Y-49861740D01*
X155833738Y-49972010D01*
X155677783Y-50053542D01*
X155508962Y-50103228D01*
X155508931Y-50103231D01*
X155508917Y-50103235D01*
X155333708Y-50119180D01*
X155158735Y-50100789D01*
X155158730Y-50100787D01*
X155158688Y-50100783D01*
X154990577Y-50048744D01*
X154835776Y-49965043D01*
X154700180Y-49852869D01*
X154588955Y-49716493D01*
X154506337Y-49561111D01*
X154455473Y-49392641D01*
X154438300Y-49217500D01*
X154438300Y-48902466D01*
X154438373Y-48891965D01*
X154438374Y-48891959D01*
X154438388Y-48889910D01*
X154458004Y-48715026D01*
X154511216Y-48547283D01*
X154595995Y-48393069D01*
X154709114Y-48258260D01*
X154846262Y-48147990D01*
X155002217Y-48066458D01*
X155171038Y-48016772D01*
X155171069Y-48016769D01*
X155171083Y-48016765D01*
X155346292Y-48000820D01*
X155521265Y-48019211D01*
X155521265Y-48019211D01*
G37*
G36*
X145361265Y-48019211D02*
X145361270Y-48019213D01*
X145361312Y-48019217D01*
X145529423Y-48071256D01*
X145684224Y-48154957D01*
X145819820Y-48267131D01*
X145931045Y-48403507D01*
X146013663Y-48558889D01*
X146064527Y-48727359D01*
X146081700Y-48902500D01*
X146081700Y-49217534D01*
X146081627Y-49228035D01*
X146081626Y-49228041D01*
X146081612Y-49230090D01*
X146061996Y-49404974D01*
X146008784Y-49572717D01*
X145924005Y-49726931D01*
X145810886Y-49861740D01*
X145673738Y-49972010D01*
X145517783Y-50053542D01*
X145348962Y-50103228D01*
X145348931Y-50103231D01*
X145348917Y-50103235D01*
X145173708Y-50119180D01*
X144998735Y-50100789D01*
X144998730Y-50100787D01*
X144998688Y-50100783D01*
X144830577Y-50048744D01*
X144675776Y-49965043D01*
X144540180Y-49852869D01*
X144428955Y-49716493D01*
X144346337Y-49561111D01*
X144295473Y-49392641D01*
X144278300Y-49217500D01*
X144278300Y-48902466D01*
X144278373Y-48891965D01*
X144278374Y-48891959D01*
X144278388Y-48889910D01*
X144298004Y-48715026D01*
X144351216Y-48547283D01*
X144435995Y-48393069D01*
X144549114Y-48258260D01*
X144686262Y-48147990D01*
X144842217Y-48066458D01*
X145011038Y-48016772D01*
X145011069Y-48016769D01*
X145011083Y-48016765D01*
X145186292Y-48000820D01*
X145361265Y-48019211D01*
X145361265Y-48019211D01*
G37*
G36*
X147901265Y-48019211D02*
X147901270Y-48019213D01*
X147901312Y-48019217D01*
X148069423Y-48071256D01*
X148224224Y-48154957D01*
X148359820Y-48267131D01*
X148471045Y-48403507D01*
X148553663Y-48558889D01*
X148604527Y-48727359D01*
X148621700Y-48902500D01*
X148621700Y-49217534D01*
X148621627Y-49228035D01*
X148621626Y-49228041D01*
X148621612Y-49230090D01*
X148601996Y-49404974D01*
X148548784Y-49572717D01*
X148464005Y-49726931D01*
X148350886Y-49861740D01*
X148213738Y-49972010D01*
X148057783Y-50053542D01*
X147888962Y-50103228D01*
X147888931Y-50103231D01*
X147888917Y-50103235D01*
X147713708Y-50119180D01*
X147538735Y-50100789D01*
X147538730Y-50100787D01*
X147538688Y-50100783D01*
X147370577Y-50048744D01*
X147215776Y-49965043D01*
X147080180Y-49852869D01*
X146968955Y-49716493D01*
X146886337Y-49561111D01*
X146835473Y-49392641D01*
X146818300Y-49217500D01*
X146818300Y-48902466D01*
X146818373Y-48891965D01*
X146818374Y-48891959D01*
X146818388Y-48889910D01*
X146838004Y-48715026D01*
X146891216Y-48547283D01*
X146975995Y-48393069D01*
X147089114Y-48258260D01*
X147226262Y-48147990D01*
X147382217Y-48066458D01*
X147551038Y-48016772D01*
X147551069Y-48016769D01*
X147551083Y-48016765D01*
X147726292Y-48000820D01*
X147901265Y-48019211D01*
X147901265Y-48019211D01*
G37*
G36*
X150441265Y-48019211D02*
X150441270Y-48019213D01*
X150441312Y-48019217D01*
X150609423Y-48071256D01*
X150764224Y-48154957D01*
X150899820Y-48267131D01*
X151011045Y-48403507D01*
X151093663Y-48558889D01*
X151144527Y-48727359D01*
X151161700Y-48902500D01*
X151161700Y-49217534D01*
X151161627Y-49228035D01*
X151161626Y-49228041D01*
X151161612Y-49230090D01*
X151141996Y-49404974D01*
X151088784Y-49572717D01*
X151004005Y-49726931D01*
X150890886Y-49861740D01*
X150753738Y-49972010D01*
X150597783Y-50053542D01*
X150428962Y-50103228D01*
X150428931Y-50103231D01*
X150428917Y-50103235D01*
X150253708Y-50119180D01*
X150078735Y-50100789D01*
X150078730Y-50100787D01*
X150078688Y-50100783D01*
X149910577Y-50048744D01*
X149755776Y-49965043D01*
X149620180Y-49852869D01*
X149508955Y-49716493D01*
X149426337Y-49561111D01*
X149375473Y-49392641D01*
X149358300Y-49217500D01*
X149358300Y-48902466D01*
X149358373Y-48891965D01*
X149358374Y-48891959D01*
X149358388Y-48889910D01*
X149378004Y-48715026D01*
X149431216Y-48547283D01*
X149515995Y-48393069D01*
X149629114Y-48258260D01*
X149766262Y-48147990D01*
X149922217Y-48066458D01*
X150091038Y-48016772D01*
X150091069Y-48016769D01*
X150091083Y-48016765D01*
X150266292Y-48000820D01*
X150441265Y-48019211D01*
X150441265Y-48019211D01*
G37*
G36*
X152981265Y-48019211D02*
X152981270Y-48019213D01*
X152981312Y-48019217D01*
X153149423Y-48071256D01*
X153304224Y-48154957D01*
X153439820Y-48267131D01*
X153551045Y-48403507D01*
X153633663Y-48558889D01*
X153684527Y-48727359D01*
X153701700Y-48902500D01*
X153701700Y-49217534D01*
X153701627Y-49228035D01*
X153701626Y-49228041D01*
X153701612Y-49230090D01*
X153681996Y-49404974D01*
X153628784Y-49572717D01*
X153544005Y-49726931D01*
X153430886Y-49861740D01*
X153293738Y-49972010D01*
X153137783Y-50053542D01*
X152968962Y-50103228D01*
X152968931Y-50103231D01*
X152968917Y-50103235D01*
X152793708Y-50119180D01*
X152618735Y-50100789D01*
X152618730Y-50100787D01*
X152618688Y-50100783D01*
X152450577Y-50048744D01*
X152295776Y-49965043D01*
X152160180Y-49852869D01*
X152048955Y-49716493D01*
X151966337Y-49561111D01*
X151915473Y-49392641D01*
X151898300Y-49217500D01*
X151898300Y-48902466D01*
X151898373Y-48891965D01*
X151898374Y-48891959D01*
X151898388Y-48889910D01*
X151918004Y-48715026D01*
X151971216Y-48547283D01*
X152055995Y-48393069D01*
X152169114Y-48258260D01*
X152306262Y-48147990D01*
X152462217Y-48066458D01*
X152631038Y-48016772D01*
X152631069Y-48016769D01*
X152631083Y-48016765D01*
X152806292Y-48000820D01*
X152981265Y-48019211D01*
X152981265Y-48019211D01*
G37*
G36*
X158061265Y-48019211D02*
X158061270Y-48019213D01*
X158061312Y-48019217D01*
X158229423Y-48071256D01*
X158384224Y-48154957D01*
X158519820Y-48267131D01*
X158631045Y-48403507D01*
X158713663Y-48558889D01*
X158764527Y-48727359D01*
X158781700Y-48902500D01*
X158781700Y-49217534D01*
X158781627Y-49228035D01*
X158781626Y-49228041D01*
X158781612Y-49230090D01*
X158761996Y-49404974D01*
X158708784Y-49572717D01*
X158624005Y-49726931D01*
X158510886Y-49861740D01*
X158373738Y-49972010D01*
X158217783Y-50053542D01*
X158048962Y-50103228D01*
X158048931Y-50103231D01*
X158048917Y-50103235D01*
X157873708Y-50119180D01*
X157698735Y-50100789D01*
X157698730Y-50100787D01*
X157698688Y-50100783D01*
X157530577Y-50048744D01*
X157375776Y-49965043D01*
X157240180Y-49852869D01*
X157128955Y-49716493D01*
X157046337Y-49561111D01*
X156995473Y-49392641D01*
X156978300Y-49217500D01*
X156978300Y-48902466D01*
X156978373Y-48891965D01*
X156978374Y-48891959D01*
X156978388Y-48889910D01*
X156998004Y-48715026D01*
X157051216Y-48547283D01*
X157135995Y-48393069D01*
X157249114Y-48258260D01*
X157386262Y-48147990D01*
X157542217Y-48066458D01*
X157711038Y-48016772D01*
X157711069Y-48016769D01*
X157711083Y-48016765D01*
X157886292Y-48000820D01*
X158061265Y-48019211D01*
X158061265Y-48019211D01*
G37*
G36*
X160601265Y-48019211D02*
X160601270Y-48019213D01*
X160601312Y-48019217D01*
X160769423Y-48071256D01*
X160924224Y-48154957D01*
X161059820Y-48267131D01*
X161171045Y-48403507D01*
X161253663Y-48558889D01*
X161304527Y-48727359D01*
X161321700Y-48902500D01*
X161321700Y-49217534D01*
X161321627Y-49228035D01*
X161321626Y-49228041D01*
X161321612Y-49230090D01*
X161301996Y-49404974D01*
X161248784Y-49572717D01*
X161164005Y-49726931D01*
X161050886Y-49861740D01*
X160913738Y-49972010D01*
X160757783Y-50053542D01*
X160588962Y-50103228D01*
X160588931Y-50103231D01*
X160588917Y-50103235D01*
X160413708Y-50119180D01*
X160238735Y-50100789D01*
X160238730Y-50100787D01*
X160238688Y-50100783D01*
X160070577Y-50048744D01*
X159915776Y-49965043D01*
X159780180Y-49852869D01*
X159668955Y-49716493D01*
X159586337Y-49561111D01*
X159535473Y-49392641D01*
X159518300Y-49217500D01*
X159518300Y-48902466D01*
X159518373Y-48891965D01*
X159518374Y-48891959D01*
X159518388Y-48889910D01*
X159538004Y-48715026D01*
X159591216Y-48547283D01*
X159675995Y-48393069D01*
X159789114Y-48258260D01*
X159926262Y-48147990D01*
X160082217Y-48066458D01*
X160251038Y-48016772D01*
X160251069Y-48016769D01*
X160251083Y-48016765D01*
X160426292Y-48000820D01*
X160601265Y-48019211D01*
X160601265Y-48019211D01*
G37*
G36*
X163141265Y-48019211D02*
X163141270Y-48019213D01*
X163141312Y-48019217D01*
X163309423Y-48071256D01*
X163464224Y-48154957D01*
X163599820Y-48267131D01*
X163711045Y-48403507D01*
X163793663Y-48558889D01*
X163844527Y-48727359D01*
X163861700Y-48902500D01*
X163861700Y-49217534D01*
X163861627Y-49228035D01*
X163861626Y-49228041D01*
X163861612Y-49230090D01*
X163841996Y-49404974D01*
X163788784Y-49572717D01*
X163704005Y-49726931D01*
X163590886Y-49861740D01*
X163453738Y-49972010D01*
X163297783Y-50053542D01*
X163128962Y-50103228D01*
X163128931Y-50103231D01*
X163128917Y-50103235D01*
X162953708Y-50119180D01*
X162778735Y-50100789D01*
X162778730Y-50100787D01*
X162778688Y-50100783D01*
X162610577Y-50048744D01*
X162455776Y-49965043D01*
X162320180Y-49852869D01*
X162208955Y-49716493D01*
X162126337Y-49561111D01*
X162075473Y-49392641D01*
X162058300Y-49217500D01*
X162058300Y-48902466D01*
X162058373Y-48891965D01*
X162058374Y-48891959D01*
X162058388Y-48889910D01*
X162078004Y-48715026D01*
X162131216Y-48547283D01*
X162215995Y-48393069D01*
X162329114Y-48258260D01*
X162466262Y-48147990D01*
X162622217Y-48066458D01*
X162791038Y-48016772D01*
X162791069Y-48016769D01*
X162791083Y-48016765D01*
X162966292Y-48000820D01*
X163141265Y-48019211D01*
X163141265Y-48019211D01*
G37*
G36*
X166401700Y-50114100D02*
X164598300Y-50114100D01*
X164598300Y-48005900D01*
X166401700Y-48005900D01*
X166401700Y-50114100D01*
X166401700Y-50114100D01*
G37*
M02*
