M48
;DRILL file {KiCad 4.0.2-stable} date 02/06/2016 21:56:02
;FORMAT={-:-/ absolute / inch / decimal}
FMAT,2
INCH,TZ
T1C0.020
T2C0.031
T3C0.040
T4C0.043
%
G90
G05
M72
T1
X5.5858Y-1.8642
X5.7878Y-2.8228
X5.8799Y-2.8299
X6.2201Y-2.7701
X6.2972Y-2.7902
X6.3496Y-2.7752
T2
X5.3157Y-2.5
X5.4157Y-2.5
X5.4528Y-2.163
X5.4528Y-3.4575
X5.4843Y-2.3315
X5.4843Y-3.2945
X5.5157Y-2.5
X5.5157Y-3.1315
X5.5528Y-2.163
X5.5528Y-3.4575
X5.5843Y-2.3315
X5.5843Y-3.2945
X5.6157Y-2.5
X5.6157Y-3.1315
X5.6528Y-2.163
X5.6528Y-3.4575
X5.6843Y-2.3315
X5.6843Y-3.2945
X5.7157Y-2.5
X5.7157Y-3.1315
X5.7528Y-2.163
X5.7528Y-3.4575
X5.7843Y-2.3315
X5.7843Y-3.2945
X5.8157Y-2.5
X5.8157Y-3.1315
X5.8528Y-2.163
X5.8528Y-3.4575
X5.8843Y-2.3315
X5.8843Y-3.2945
X5.9157Y-2.5
X5.9157Y-3.1315
X5.9528Y-2.163
X5.9528Y-3.4575
X5.9843Y-2.3315
X5.9843Y-3.2945
X6.0157Y-2.5
X6.0157Y-3.1315
X6.0528Y-2.163
X6.0528Y-3.4575
X6.0843Y-2.3315
X6.0843Y-3.2945
X6.1157Y-2.5
X6.1157Y-3.1315
X6.1528Y-2.163
X6.1528Y-3.4575
X6.1843Y-2.3315
X6.1843Y-3.2945
X6.2157Y-2.5
X6.2157Y-3.1315
X6.2528Y-2.163
X6.2528Y-3.4575
X6.2843Y-2.3315
X6.2843Y-3.2945
X6.3157Y-2.5
X6.3157Y-3.1315
X6.3528Y-2.163
X6.3528Y-3.4575
X6.3843Y-2.3315
X6.3843Y-3.2945
X6.4157Y-2.5
X6.4157Y-3.1315
X6.5157Y-2.5
X6.5157Y-3.1315
T3
X5.7157Y-1.9315
X5.8157Y-1.9315
X5.9157Y-1.9315
X6.0157Y-1.9315
X6.0157Y-3.6315
X6.1157Y-1.9315
X6.1157Y-3.6315
X6.2157Y-1.9315
X6.2157Y-3.6315
X6.3157Y-1.9315
X6.3157Y-3.6315
X6.4157Y-1.9315
X6.4157Y-3.6315
X6.5157Y-1.9315
X6.5157Y-3.6315
T4
X5.2888Y-2.6839G85X5.2888Y-2.7232
G05
X5.2888Y-2.8886G85X5.2888Y-2.9043
G05
X5.4394Y-2.7016G85X5.4394Y-2.7409
G05
X6.4787Y-2.8591G85X6.4787Y-2.8984
G05
X6.6293Y-2.6839G85X6.6293Y-2.7232
G05
X6.6293Y-2.8886G85X6.6293Y-2.9043
G05
T0
M30
