G04 #@! TF.FileFunction,Soldermask,Bot*
%FSLAX46Y46*%
G04 Gerber Fmt 4.6, Leading zero omitted, Abs format (unit mm)*
G04 Created by KiCad (PCBNEW 4.0.2-stable) date 03/06/2016 13:11:46*
%MOMM*%
G01*
G04 APERTURE LIST*
%ADD10C,0.100000*%
G04 APERTURE END LIST*
D10*
G36*
X158061265Y-91199211D02*
X158061270Y-91199213D01*
X158061312Y-91199217D01*
X158229423Y-91251256D01*
X158384224Y-91334957D01*
X158519820Y-91447131D01*
X158631045Y-91583507D01*
X158713663Y-91738889D01*
X158764527Y-91907359D01*
X158781700Y-92082500D01*
X158781700Y-92397534D01*
X158781627Y-92408035D01*
X158781626Y-92408041D01*
X158781612Y-92410090D01*
X158761996Y-92584974D01*
X158708784Y-92752717D01*
X158624005Y-92906931D01*
X158510886Y-93041740D01*
X158373738Y-93152010D01*
X158217783Y-93233542D01*
X158048962Y-93283228D01*
X158048931Y-93283231D01*
X158048917Y-93283235D01*
X157873708Y-93299180D01*
X157698735Y-93280789D01*
X157698730Y-93280787D01*
X157698688Y-93280783D01*
X157530577Y-93228744D01*
X157375776Y-93145043D01*
X157240180Y-93032869D01*
X157128955Y-92896493D01*
X157046337Y-92741111D01*
X156995473Y-92572641D01*
X156978300Y-92397500D01*
X156978300Y-92082466D01*
X156978373Y-92071965D01*
X156978374Y-92071959D01*
X156978388Y-92069910D01*
X156998004Y-91895026D01*
X157051216Y-91727283D01*
X157135995Y-91573069D01*
X157249114Y-91438260D01*
X157386262Y-91327990D01*
X157542217Y-91246458D01*
X157711038Y-91196772D01*
X157711069Y-91196769D01*
X157711083Y-91196765D01*
X157886292Y-91180820D01*
X158061265Y-91199211D01*
X158061265Y-91199211D01*
G37*
G36*
X155521265Y-91199211D02*
X155521270Y-91199213D01*
X155521312Y-91199217D01*
X155689423Y-91251256D01*
X155844224Y-91334957D01*
X155979820Y-91447131D01*
X156091045Y-91583507D01*
X156173663Y-91738889D01*
X156224527Y-91907359D01*
X156241700Y-92082500D01*
X156241700Y-92397534D01*
X156241627Y-92408035D01*
X156241626Y-92408041D01*
X156241612Y-92410090D01*
X156221996Y-92584974D01*
X156168784Y-92752717D01*
X156084005Y-92906931D01*
X155970886Y-93041740D01*
X155833738Y-93152010D01*
X155677783Y-93233542D01*
X155508962Y-93283228D01*
X155508931Y-93283231D01*
X155508917Y-93283235D01*
X155333708Y-93299180D01*
X155158735Y-93280789D01*
X155158730Y-93280787D01*
X155158688Y-93280783D01*
X154990577Y-93228744D01*
X154835776Y-93145043D01*
X154700180Y-93032869D01*
X154588955Y-92896493D01*
X154506337Y-92741111D01*
X154455473Y-92572641D01*
X154438300Y-92397500D01*
X154438300Y-92082466D01*
X154438373Y-92071965D01*
X154438374Y-92071959D01*
X154438388Y-92069910D01*
X154458004Y-91895026D01*
X154511216Y-91727283D01*
X154595995Y-91573069D01*
X154709114Y-91438260D01*
X154846262Y-91327990D01*
X155002217Y-91246458D01*
X155171038Y-91196772D01*
X155171069Y-91196769D01*
X155171083Y-91196765D01*
X155346292Y-91180820D01*
X155521265Y-91199211D01*
X155521265Y-91199211D01*
G37*
G36*
X152981265Y-91199211D02*
X152981270Y-91199213D01*
X152981312Y-91199217D01*
X153149423Y-91251256D01*
X153304224Y-91334957D01*
X153439820Y-91447131D01*
X153551045Y-91583507D01*
X153633663Y-91738889D01*
X153684527Y-91907359D01*
X153701700Y-92082500D01*
X153701700Y-92397534D01*
X153701627Y-92408035D01*
X153701626Y-92408041D01*
X153701612Y-92410090D01*
X153681996Y-92584974D01*
X153628784Y-92752717D01*
X153544005Y-92906931D01*
X153430886Y-93041740D01*
X153293738Y-93152010D01*
X153137783Y-93233542D01*
X152968962Y-93283228D01*
X152968931Y-93283231D01*
X152968917Y-93283235D01*
X152793708Y-93299180D01*
X152618735Y-93280789D01*
X152618730Y-93280787D01*
X152618688Y-93280783D01*
X152450577Y-93228744D01*
X152295776Y-93145043D01*
X152160180Y-93032869D01*
X152048955Y-92896493D01*
X151966337Y-92741111D01*
X151915473Y-92572641D01*
X151898300Y-92397500D01*
X151898300Y-92082466D01*
X151898373Y-92071965D01*
X151898374Y-92071959D01*
X151898388Y-92069910D01*
X151918004Y-91895026D01*
X151971216Y-91727283D01*
X152055995Y-91573069D01*
X152169114Y-91438260D01*
X152306262Y-91327990D01*
X152462217Y-91246458D01*
X152631038Y-91196772D01*
X152631069Y-91196769D01*
X152631083Y-91196765D01*
X152806292Y-91180820D01*
X152981265Y-91199211D01*
X152981265Y-91199211D01*
G37*
G36*
X160601265Y-91199211D02*
X160601270Y-91199213D01*
X160601312Y-91199217D01*
X160769423Y-91251256D01*
X160924224Y-91334957D01*
X161059820Y-91447131D01*
X161171045Y-91583507D01*
X161253663Y-91738889D01*
X161304527Y-91907359D01*
X161321700Y-92082500D01*
X161321700Y-92397534D01*
X161321627Y-92408035D01*
X161321626Y-92408041D01*
X161321612Y-92410090D01*
X161301996Y-92584974D01*
X161248784Y-92752717D01*
X161164005Y-92906931D01*
X161050886Y-93041740D01*
X160913738Y-93152010D01*
X160757783Y-93233542D01*
X160588962Y-93283228D01*
X160588931Y-93283231D01*
X160588917Y-93283235D01*
X160413708Y-93299180D01*
X160238735Y-93280789D01*
X160238730Y-93280787D01*
X160238688Y-93280783D01*
X160070577Y-93228744D01*
X159915776Y-93145043D01*
X159780180Y-93032869D01*
X159668955Y-92896493D01*
X159586337Y-92741111D01*
X159535473Y-92572641D01*
X159518300Y-92397500D01*
X159518300Y-92082466D01*
X159518373Y-92071965D01*
X159518374Y-92071959D01*
X159518388Y-92069910D01*
X159538004Y-91895026D01*
X159591216Y-91727283D01*
X159675995Y-91573069D01*
X159789114Y-91438260D01*
X159926262Y-91327990D01*
X160082217Y-91246458D01*
X160251038Y-91196772D01*
X160251069Y-91196769D01*
X160251083Y-91196765D01*
X160426292Y-91180820D01*
X160601265Y-91199211D01*
X160601265Y-91199211D01*
G37*
G36*
X163141265Y-91199211D02*
X163141270Y-91199213D01*
X163141312Y-91199217D01*
X163309423Y-91251256D01*
X163464224Y-91334957D01*
X163599820Y-91447131D01*
X163711045Y-91583507D01*
X163793663Y-91738889D01*
X163844527Y-91907359D01*
X163861700Y-92082500D01*
X163861700Y-92397534D01*
X163861627Y-92408035D01*
X163861626Y-92408041D01*
X163861612Y-92410090D01*
X163841996Y-92584974D01*
X163788784Y-92752717D01*
X163704005Y-92906931D01*
X163590886Y-93041740D01*
X163453738Y-93152010D01*
X163297783Y-93233542D01*
X163128962Y-93283228D01*
X163128931Y-93283231D01*
X163128917Y-93283235D01*
X162953708Y-93299180D01*
X162778735Y-93280789D01*
X162778730Y-93280787D01*
X162778688Y-93280783D01*
X162610577Y-93228744D01*
X162455776Y-93145043D01*
X162320180Y-93032869D01*
X162208955Y-92896493D01*
X162126337Y-92741111D01*
X162075473Y-92572641D01*
X162058300Y-92397500D01*
X162058300Y-92082466D01*
X162058373Y-92071965D01*
X162058374Y-92071959D01*
X162058388Y-92069910D01*
X162078004Y-91895026D01*
X162131216Y-91727283D01*
X162215995Y-91573069D01*
X162329114Y-91438260D01*
X162466262Y-91327990D01*
X162622217Y-91246458D01*
X162791038Y-91196772D01*
X162791069Y-91196769D01*
X162791083Y-91196765D01*
X162966292Y-91180820D01*
X163141265Y-91199211D01*
X163141265Y-91199211D01*
G37*
G36*
X166401700Y-93294100D02*
X164598300Y-93294100D01*
X164598300Y-91185900D01*
X166401700Y-91185900D01*
X166401700Y-93294100D01*
X166401700Y-93294100D01*
G37*
G36*
X151228262Y-86528160D02*
X151335298Y-86539409D01*
X151335303Y-86539410D01*
X151335346Y-86539415D01*
X151460837Y-86578261D01*
X151576393Y-86640742D01*
X151677612Y-86724478D01*
X151760639Y-86826279D01*
X151822312Y-86942269D01*
X151860281Y-87068028D01*
X151873100Y-87198767D01*
X151873100Y-88441263D01*
X151873049Y-88448574D01*
X151873048Y-88448579D01*
X151873034Y-88450631D01*
X151858391Y-88581178D01*
X151818670Y-88706395D01*
X151755384Y-88821512D01*
X151670943Y-88922145D01*
X151568565Y-89004459D01*
X151452148Y-89065320D01*
X151326126Y-89102411D01*
X151326085Y-89102415D01*
X151326081Y-89102416D01*
X151195303Y-89114317D01*
X151195301Y-89114317D01*
X151171738Y-89111840D01*
X151064702Y-89100591D01*
X151064697Y-89100590D01*
X151064654Y-89100585D01*
X150939163Y-89061739D01*
X150823607Y-88999258D01*
X150722388Y-88915522D01*
X150639361Y-88813721D01*
X150577688Y-88697731D01*
X150539719Y-88571972D01*
X150526900Y-88441233D01*
X150526900Y-87198737D01*
X150526951Y-87191426D01*
X150526952Y-87191421D01*
X150526966Y-87189369D01*
X150541609Y-87058822D01*
X150581330Y-86933605D01*
X150644616Y-86818488D01*
X150729057Y-86717855D01*
X150831435Y-86635541D01*
X150947852Y-86574680D01*
X151073874Y-86537589D01*
X151073915Y-86537585D01*
X151073919Y-86537584D01*
X151204698Y-86525683D01*
X151204699Y-86525683D01*
X151228262Y-86528160D01*
X151228262Y-86528160D01*
G37*
G36*
X161388262Y-86528160D02*
X161495298Y-86539409D01*
X161495303Y-86539410D01*
X161495346Y-86539415D01*
X161620837Y-86578261D01*
X161736393Y-86640742D01*
X161837612Y-86724478D01*
X161920639Y-86826279D01*
X161982312Y-86942269D01*
X162020281Y-87068028D01*
X162033100Y-87198767D01*
X162033100Y-88441263D01*
X162033049Y-88448574D01*
X162033048Y-88448579D01*
X162033034Y-88450631D01*
X162018391Y-88581178D01*
X161978670Y-88706395D01*
X161915384Y-88821512D01*
X161830943Y-88922145D01*
X161728565Y-89004459D01*
X161612148Y-89065320D01*
X161486126Y-89102411D01*
X161486085Y-89102415D01*
X161486081Y-89102416D01*
X161355303Y-89114317D01*
X161355301Y-89114317D01*
X161331738Y-89111840D01*
X161224702Y-89100591D01*
X161224697Y-89100590D01*
X161224654Y-89100585D01*
X161099163Y-89061739D01*
X160983607Y-88999258D01*
X160882388Y-88915522D01*
X160799361Y-88813721D01*
X160737688Y-88697731D01*
X160699719Y-88571972D01*
X160686900Y-88441233D01*
X160686900Y-87198737D01*
X160686951Y-87191426D01*
X160686952Y-87191421D01*
X160686966Y-87189369D01*
X160701609Y-87058822D01*
X160741330Y-86933605D01*
X160804616Y-86818488D01*
X160889057Y-86717855D01*
X160991435Y-86635541D01*
X161107852Y-86574680D01*
X161233874Y-86537589D01*
X161233915Y-86537585D01*
X161233919Y-86537584D01*
X161364698Y-86525683D01*
X161364699Y-86525683D01*
X161388262Y-86528160D01*
X161388262Y-86528160D01*
G37*
G36*
X158848262Y-86528160D02*
X158955298Y-86539409D01*
X158955303Y-86539410D01*
X158955346Y-86539415D01*
X159080837Y-86578261D01*
X159196393Y-86640742D01*
X159297612Y-86724478D01*
X159380639Y-86826279D01*
X159442312Y-86942269D01*
X159480281Y-87068028D01*
X159493100Y-87198767D01*
X159493100Y-88441263D01*
X159493049Y-88448574D01*
X159493048Y-88448579D01*
X159493034Y-88450631D01*
X159478391Y-88581178D01*
X159438670Y-88706395D01*
X159375384Y-88821512D01*
X159290943Y-88922145D01*
X159188565Y-89004459D01*
X159072148Y-89065320D01*
X158946126Y-89102411D01*
X158946085Y-89102415D01*
X158946081Y-89102416D01*
X158815303Y-89114317D01*
X158815301Y-89114317D01*
X158791738Y-89111840D01*
X158684702Y-89100591D01*
X158684697Y-89100590D01*
X158684654Y-89100585D01*
X158559163Y-89061739D01*
X158443607Y-88999258D01*
X158342388Y-88915522D01*
X158259361Y-88813721D01*
X158197688Y-88697731D01*
X158159719Y-88571972D01*
X158146900Y-88441233D01*
X158146900Y-87198737D01*
X158146951Y-87191426D01*
X158146952Y-87191421D01*
X158146966Y-87189369D01*
X158161609Y-87058822D01*
X158201330Y-86933605D01*
X158264616Y-86818488D01*
X158349057Y-86717855D01*
X158451435Y-86635541D01*
X158567852Y-86574680D01*
X158693874Y-86537589D01*
X158693915Y-86537585D01*
X158693919Y-86537584D01*
X158824698Y-86525683D01*
X158824699Y-86525683D01*
X158848262Y-86528160D01*
X158848262Y-86528160D01*
G37*
G36*
X156308262Y-86528160D02*
X156415298Y-86539409D01*
X156415303Y-86539410D01*
X156415346Y-86539415D01*
X156540837Y-86578261D01*
X156656393Y-86640742D01*
X156757612Y-86724478D01*
X156840639Y-86826279D01*
X156902312Y-86942269D01*
X156940281Y-87068028D01*
X156953100Y-87198767D01*
X156953100Y-88441263D01*
X156953049Y-88448574D01*
X156953048Y-88448579D01*
X156953034Y-88450631D01*
X156938391Y-88581178D01*
X156898670Y-88706395D01*
X156835384Y-88821512D01*
X156750943Y-88922145D01*
X156648565Y-89004459D01*
X156532148Y-89065320D01*
X156406126Y-89102411D01*
X156406085Y-89102415D01*
X156406081Y-89102416D01*
X156275303Y-89114317D01*
X156275301Y-89114317D01*
X156251738Y-89111840D01*
X156144702Y-89100591D01*
X156144697Y-89100590D01*
X156144654Y-89100585D01*
X156019163Y-89061739D01*
X155903607Y-88999258D01*
X155802388Y-88915522D01*
X155719361Y-88813721D01*
X155657688Y-88697731D01*
X155619719Y-88571972D01*
X155606900Y-88441233D01*
X155606900Y-87198737D01*
X155606951Y-87191426D01*
X155606952Y-87191421D01*
X155606966Y-87189369D01*
X155621609Y-87058822D01*
X155661330Y-86933605D01*
X155724616Y-86818488D01*
X155809057Y-86717855D01*
X155911435Y-86635541D01*
X156027852Y-86574680D01*
X156153874Y-86537589D01*
X156153915Y-86537585D01*
X156153919Y-86537584D01*
X156284698Y-86525683D01*
X156284699Y-86525683D01*
X156308262Y-86528160D01*
X156308262Y-86528160D01*
G37*
G36*
X148688262Y-86528160D02*
X148795298Y-86539409D01*
X148795303Y-86539410D01*
X148795346Y-86539415D01*
X148920837Y-86578261D01*
X149036393Y-86640742D01*
X149137612Y-86724478D01*
X149220639Y-86826279D01*
X149282312Y-86942269D01*
X149320281Y-87068028D01*
X149333100Y-87198767D01*
X149333100Y-88441263D01*
X149333049Y-88448574D01*
X149333048Y-88448579D01*
X149333034Y-88450631D01*
X149318391Y-88581178D01*
X149278670Y-88706395D01*
X149215384Y-88821512D01*
X149130943Y-88922145D01*
X149028565Y-89004459D01*
X148912148Y-89065320D01*
X148786126Y-89102411D01*
X148786085Y-89102415D01*
X148786081Y-89102416D01*
X148655303Y-89114317D01*
X148655301Y-89114317D01*
X148631738Y-89111840D01*
X148524702Y-89100591D01*
X148524697Y-89100590D01*
X148524654Y-89100585D01*
X148399163Y-89061739D01*
X148283607Y-88999258D01*
X148182388Y-88915522D01*
X148099361Y-88813721D01*
X148037688Y-88697731D01*
X147999719Y-88571972D01*
X147986900Y-88441233D01*
X147986900Y-87198737D01*
X147986951Y-87191426D01*
X147986952Y-87191421D01*
X147986966Y-87189369D01*
X148001609Y-87058822D01*
X148041330Y-86933605D01*
X148104616Y-86818488D01*
X148189057Y-86717855D01*
X148291435Y-86635541D01*
X148407852Y-86574680D01*
X148533874Y-86537589D01*
X148533915Y-86537585D01*
X148533919Y-86537584D01*
X148664698Y-86525683D01*
X148664699Y-86525683D01*
X148688262Y-86528160D01*
X148688262Y-86528160D01*
G37*
G36*
X146148262Y-86528160D02*
X146255298Y-86539409D01*
X146255303Y-86539410D01*
X146255346Y-86539415D01*
X146380837Y-86578261D01*
X146496393Y-86640742D01*
X146597612Y-86724478D01*
X146680639Y-86826279D01*
X146742312Y-86942269D01*
X146780281Y-87068028D01*
X146793100Y-87198767D01*
X146793100Y-88441263D01*
X146793049Y-88448574D01*
X146793048Y-88448579D01*
X146793034Y-88450631D01*
X146778391Y-88581178D01*
X146738670Y-88706395D01*
X146675384Y-88821512D01*
X146590943Y-88922145D01*
X146488565Y-89004459D01*
X146372148Y-89065320D01*
X146246126Y-89102411D01*
X146246085Y-89102415D01*
X146246081Y-89102416D01*
X146115303Y-89114317D01*
X146115301Y-89114317D01*
X146091738Y-89111840D01*
X145984702Y-89100591D01*
X145984697Y-89100590D01*
X145984654Y-89100585D01*
X145859163Y-89061739D01*
X145743607Y-88999258D01*
X145642388Y-88915522D01*
X145559361Y-88813721D01*
X145497688Y-88697731D01*
X145459719Y-88571972D01*
X145446900Y-88441233D01*
X145446900Y-87198737D01*
X145446951Y-87191426D01*
X145446952Y-87191421D01*
X145446966Y-87189369D01*
X145461609Y-87058822D01*
X145501330Y-86933605D01*
X145564616Y-86818488D01*
X145649057Y-86717855D01*
X145751435Y-86635541D01*
X145867852Y-86574680D01*
X145993874Y-86537589D01*
X145993915Y-86537585D01*
X145993919Y-86537584D01*
X146124698Y-86525683D01*
X146124699Y-86525683D01*
X146148262Y-86528160D01*
X146148262Y-86528160D01*
G37*
G36*
X143608262Y-86528160D02*
X143715298Y-86539409D01*
X143715303Y-86539410D01*
X143715346Y-86539415D01*
X143840837Y-86578261D01*
X143956393Y-86640742D01*
X144057612Y-86724478D01*
X144140639Y-86826279D01*
X144202312Y-86942269D01*
X144240281Y-87068028D01*
X144253100Y-87198767D01*
X144253100Y-88441263D01*
X144253049Y-88448574D01*
X144253048Y-88448579D01*
X144253034Y-88450631D01*
X144238391Y-88581178D01*
X144198670Y-88706395D01*
X144135384Y-88821512D01*
X144050943Y-88922145D01*
X143948565Y-89004459D01*
X143832148Y-89065320D01*
X143706126Y-89102411D01*
X143706085Y-89102415D01*
X143706081Y-89102416D01*
X143575303Y-89114317D01*
X143575301Y-89114317D01*
X143551738Y-89111840D01*
X143444702Y-89100591D01*
X143444697Y-89100590D01*
X143444654Y-89100585D01*
X143319163Y-89061739D01*
X143203607Y-88999258D01*
X143102388Y-88915522D01*
X143019361Y-88813721D01*
X142957688Y-88697731D01*
X142919719Y-88571972D01*
X142906900Y-88441233D01*
X142906900Y-87198737D01*
X142906951Y-87191426D01*
X142906952Y-87191421D01*
X142906966Y-87189369D01*
X142921609Y-87058822D01*
X142961330Y-86933605D01*
X143024616Y-86818488D01*
X143109057Y-86717855D01*
X143211435Y-86635541D01*
X143327852Y-86574680D01*
X143453874Y-86537589D01*
X143453915Y-86537585D01*
X143453919Y-86537584D01*
X143584698Y-86525683D01*
X143584699Y-86525683D01*
X143608262Y-86528160D01*
X143608262Y-86528160D01*
G37*
G36*
X141068262Y-86528160D02*
X141175298Y-86539409D01*
X141175303Y-86539410D01*
X141175346Y-86539415D01*
X141300837Y-86578261D01*
X141416393Y-86640742D01*
X141517612Y-86724478D01*
X141600639Y-86826279D01*
X141662312Y-86942269D01*
X141700281Y-87068028D01*
X141713100Y-87198767D01*
X141713100Y-88441263D01*
X141713049Y-88448574D01*
X141713048Y-88448579D01*
X141713034Y-88450631D01*
X141698391Y-88581178D01*
X141658670Y-88706395D01*
X141595384Y-88821512D01*
X141510943Y-88922145D01*
X141408565Y-89004459D01*
X141292148Y-89065320D01*
X141166126Y-89102411D01*
X141166085Y-89102415D01*
X141166081Y-89102416D01*
X141035303Y-89114317D01*
X141035301Y-89114317D01*
X141011738Y-89111840D01*
X140904702Y-89100591D01*
X140904697Y-89100590D01*
X140904654Y-89100585D01*
X140779163Y-89061739D01*
X140663607Y-88999258D01*
X140562388Y-88915522D01*
X140479361Y-88813721D01*
X140417688Y-88697731D01*
X140379719Y-88571972D01*
X140366900Y-88441233D01*
X140366900Y-87198737D01*
X140366951Y-87191426D01*
X140366952Y-87191421D01*
X140366966Y-87189369D01*
X140381609Y-87058822D01*
X140421330Y-86933605D01*
X140484616Y-86818488D01*
X140569057Y-86717855D01*
X140671435Y-86635541D01*
X140787852Y-86574680D01*
X140913874Y-86537589D01*
X140913915Y-86537585D01*
X140913919Y-86537584D01*
X141044698Y-86525683D01*
X141044699Y-86525683D01*
X141068262Y-86528160D01*
X141068262Y-86528160D01*
G37*
G36*
X138528262Y-86528160D02*
X138635298Y-86539409D01*
X138635303Y-86539410D01*
X138635346Y-86539415D01*
X138760837Y-86578261D01*
X138876393Y-86640742D01*
X138977612Y-86724478D01*
X139060639Y-86826279D01*
X139122312Y-86942269D01*
X139160281Y-87068028D01*
X139173100Y-87198767D01*
X139173100Y-88441263D01*
X139173049Y-88448574D01*
X139173048Y-88448579D01*
X139173034Y-88450631D01*
X139158391Y-88581178D01*
X139118670Y-88706395D01*
X139055384Y-88821512D01*
X138970943Y-88922145D01*
X138868565Y-89004459D01*
X138752148Y-89065320D01*
X138626126Y-89102411D01*
X138626085Y-89102415D01*
X138626081Y-89102416D01*
X138495303Y-89114317D01*
X138495301Y-89114317D01*
X138471738Y-89111840D01*
X138364702Y-89100591D01*
X138364697Y-89100590D01*
X138364654Y-89100585D01*
X138239163Y-89061739D01*
X138123607Y-88999258D01*
X138022388Y-88915522D01*
X137939361Y-88813721D01*
X137877688Y-88697731D01*
X137839719Y-88571972D01*
X137826900Y-88441233D01*
X137826900Y-87198737D01*
X137826951Y-87191426D01*
X137826952Y-87191421D01*
X137826966Y-87189369D01*
X137841609Y-87058822D01*
X137881330Y-86933605D01*
X137944616Y-86818488D01*
X138029057Y-86717855D01*
X138131435Y-86635541D01*
X138247852Y-86574680D01*
X138373874Y-86537589D01*
X138373915Y-86537585D01*
X138373919Y-86537584D01*
X138504698Y-86525683D01*
X138504699Y-86525683D01*
X138528262Y-86528160D01*
X138528262Y-86528160D01*
G37*
G36*
X153768262Y-86528160D02*
X153875298Y-86539409D01*
X153875303Y-86539410D01*
X153875346Y-86539415D01*
X154000837Y-86578261D01*
X154116393Y-86640742D01*
X154217612Y-86724478D01*
X154300639Y-86826279D01*
X154362312Y-86942269D01*
X154400281Y-87068028D01*
X154413100Y-87198767D01*
X154413100Y-88441263D01*
X154413049Y-88448574D01*
X154413048Y-88448579D01*
X154413034Y-88450631D01*
X154398391Y-88581178D01*
X154358670Y-88706395D01*
X154295384Y-88821512D01*
X154210943Y-88922145D01*
X154108565Y-89004459D01*
X153992148Y-89065320D01*
X153866126Y-89102411D01*
X153866085Y-89102415D01*
X153866081Y-89102416D01*
X153735303Y-89114317D01*
X153735301Y-89114317D01*
X153711738Y-89111840D01*
X153604702Y-89100591D01*
X153604697Y-89100590D01*
X153604654Y-89100585D01*
X153479163Y-89061739D01*
X153363607Y-88999258D01*
X153262388Y-88915522D01*
X153179361Y-88813721D01*
X153117688Y-88697731D01*
X153079719Y-88571972D01*
X153066900Y-88441233D01*
X153066900Y-87198737D01*
X153066951Y-87191426D01*
X153066952Y-87191421D01*
X153066966Y-87189369D01*
X153081609Y-87058822D01*
X153121330Y-86933605D01*
X153184616Y-86818488D01*
X153269057Y-86717855D01*
X153371435Y-86635541D01*
X153487852Y-86574680D01*
X153613874Y-86537589D01*
X153613915Y-86537585D01*
X153613919Y-86537584D01*
X153744698Y-86525683D01*
X153744699Y-86525683D01*
X153768262Y-86528160D01*
X153768262Y-86528160D01*
G37*
G36*
X154568262Y-82388160D02*
X154675298Y-82399409D01*
X154675303Y-82399410D01*
X154675346Y-82399415D01*
X154800837Y-82438261D01*
X154916393Y-82500742D01*
X155017612Y-82584478D01*
X155100639Y-82686279D01*
X155162312Y-82802269D01*
X155200281Y-82928028D01*
X155213100Y-83058767D01*
X155213100Y-84301263D01*
X155213049Y-84308574D01*
X155213048Y-84308579D01*
X155213034Y-84310631D01*
X155198391Y-84441178D01*
X155158670Y-84566395D01*
X155095384Y-84681512D01*
X155010943Y-84782145D01*
X154908565Y-84864459D01*
X154792148Y-84925320D01*
X154666126Y-84962411D01*
X154666085Y-84962415D01*
X154666081Y-84962416D01*
X154535303Y-84974317D01*
X154535301Y-84974317D01*
X154511738Y-84971840D01*
X154404702Y-84960591D01*
X154404697Y-84960590D01*
X154404654Y-84960585D01*
X154279163Y-84921739D01*
X154163607Y-84859258D01*
X154062388Y-84775522D01*
X153979361Y-84673721D01*
X153917688Y-84557731D01*
X153879719Y-84431972D01*
X153866900Y-84301233D01*
X153866900Y-83058737D01*
X153866951Y-83051426D01*
X153866952Y-83051421D01*
X153866966Y-83049369D01*
X153881609Y-82918822D01*
X153921330Y-82793605D01*
X153984616Y-82678488D01*
X154069057Y-82577855D01*
X154171435Y-82495541D01*
X154287852Y-82434680D01*
X154413874Y-82397589D01*
X154413915Y-82397585D01*
X154413919Y-82397584D01*
X154544698Y-82385683D01*
X154544699Y-82385683D01*
X154568262Y-82388160D01*
X154568262Y-82388160D01*
G37*
G36*
X162188262Y-82388160D02*
X162295298Y-82399409D01*
X162295303Y-82399410D01*
X162295346Y-82399415D01*
X162420837Y-82438261D01*
X162536393Y-82500742D01*
X162637612Y-82584478D01*
X162720639Y-82686279D01*
X162782312Y-82802269D01*
X162820281Y-82928028D01*
X162833100Y-83058767D01*
X162833100Y-84301263D01*
X162833049Y-84308574D01*
X162833048Y-84308579D01*
X162833034Y-84310631D01*
X162818391Y-84441178D01*
X162778670Y-84566395D01*
X162715384Y-84681512D01*
X162630943Y-84782145D01*
X162528565Y-84864459D01*
X162412148Y-84925320D01*
X162286126Y-84962411D01*
X162286085Y-84962415D01*
X162286081Y-84962416D01*
X162155303Y-84974317D01*
X162155301Y-84974317D01*
X162131738Y-84971840D01*
X162024702Y-84960591D01*
X162024697Y-84960590D01*
X162024654Y-84960585D01*
X161899163Y-84921739D01*
X161783607Y-84859258D01*
X161682388Y-84775522D01*
X161599361Y-84673721D01*
X161537688Y-84557731D01*
X161499719Y-84431972D01*
X161486900Y-84301233D01*
X161486900Y-83058737D01*
X161486951Y-83051426D01*
X161486952Y-83051421D01*
X161486966Y-83049369D01*
X161501609Y-82918822D01*
X161541330Y-82793605D01*
X161604616Y-82678488D01*
X161689057Y-82577855D01*
X161791435Y-82495541D01*
X161907852Y-82434680D01*
X162033874Y-82397589D01*
X162033915Y-82397585D01*
X162033919Y-82397584D01*
X162164698Y-82385683D01*
X162164699Y-82385683D01*
X162188262Y-82388160D01*
X162188262Y-82388160D01*
G37*
G36*
X159648262Y-82388160D02*
X159755298Y-82399409D01*
X159755303Y-82399410D01*
X159755346Y-82399415D01*
X159880837Y-82438261D01*
X159996393Y-82500742D01*
X160097612Y-82584478D01*
X160180639Y-82686279D01*
X160242312Y-82802269D01*
X160280281Y-82928028D01*
X160293100Y-83058767D01*
X160293100Y-84301263D01*
X160293049Y-84308574D01*
X160293048Y-84308579D01*
X160293034Y-84310631D01*
X160278391Y-84441178D01*
X160238670Y-84566395D01*
X160175384Y-84681512D01*
X160090943Y-84782145D01*
X159988565Y-84864459D01*
X159872148Y-84925320D01*
X159746126Y-84962411D01*
X159746085Y-84962415D01*
X159746081Y-84962416D01*
X159615303Y-84974317D01*
X159615301Y-84974317D01*
X159591738Y-84971840D01*
X159484702Y-84960591D01*
X159484697Y-84960590D01*
X159484654Y-84960585D01*
X159359163Y-84921739D01*
X159243607Y-84859258D01*
X159142388Y-84775522D01*
X159059361Y-84673721D01*
X158997688Y-84557731D01*
X158959719Y-84431972D01*
X158946900Y-84301233D01*
X158946900Y-83058737D01*
X158946951Y-83051426D01*
X158946952Y-83051421D01*
X158946966Y-83049369D01*
X158961609Y-82918822D01*
X159001330Y-82793605D01*
X159064616Y-82678488D01*
X159149057Y-82577855D01*
X159251435Y-82495541D01*
X159367852Y-82434680D01*
X159493874Y-82397589D01*
X159493915Y-82397585D01*
X159493919Y-82397584D01*
X159624698Y-82385683D01*
X159624699Y-82385683D01*
X159648262Y-82388160D01*
X159648262Y-82388160D01*
G37*
G36*
X157108262Y-82388160D02*
X157215298Y-82399409D01*
X157215303Y-82399410D01*
X157215346Y-82399415D01*
X157340837Y-82438261D01*
X157456393Y-82500742D01*
X157557612Y-82584478D01*
X157640639Y-82686279D01*
X157702312Y-82802269D01*
X157740281Y-82928028D01*
X157753100Y-83058767D01*
X157753100Y-84301263D01*
X157753049Y-84308574D01*
X157753048Y-84308579D01*
X157753034Y-84310631D01*
X157738391Y-84441178D01*
X157698670Y-84566395D01*
X157635384Y-84681512D01*
X157550943Y-84782145D01*
X157448565Y-84864459D01*
X157332148Y-84925320D01*
X157206126Y-84962411D01*
X157206085Y-84962415D01*
X157206081Y-84962416D01*
X157075303Y-84974317D01*
X157075301Y-84974317D01*
X157051738Y-84971840D01*
X156944702Y-84960591D01*
X156944697Y-84960590D01*
X156944654Y-84960585D01*
X156819163Y-84921739D01*
X156703607Y-84859258D01*
X156602388Y-84775522D01*
X156519361Y-84673721D01*
X156457688Y-84557731D01*
X156419719Y-84431972D01*
X156406900Y-84301233D01*
X156406900Y-83058737D01*
X156406951Y-83051426D01*
X156406952Y-83051421D01*
X156406966Y-83049369D01*
X156421609Y-82918822D01*
X156461330Y-82793605D01*
X156524616Y-82678488D01*
X156609057Y-82577855D01*
X156711435Y-82495541D01*
X156827852Y-82434680D01*
X156953874Y-82397589D01*
X156953915Y-82397585D01*
X156953919Y-82397584D01*
X157084698Y-82385683D01*
X157084699Y-82385683D01*
X157108262Y-82388160D01*
X157108262Y-82388160D01*
G37*
G36*
X152028262Y-82388160D02*
X152135298Y-82399409D01*
X152135303Y-82399410D01*
X152135346Y-82399415D01*
X152260837Y-82438261D01*
X152376393Y-82500742D01*
X152477612Y-82584478D01*
X152560639Y-82686279D01*
X152622312Y-82802269D01*
X152660281Y-82928028D01*
X152673100Y-83058767D01*
X152673100Y-84301263D01*
X152673049Y-84308574D01*
X152673048Y-84308579D01*
X152673034Y-84310631D01*
X152658391Y-84441178D01*
X152618670Y-84566395D01*
X152555384Y-84681512D01*
X152470943Y-84782145D01*
X152368565Y-84864459D01*
X152252148Y-84925320D01*
X152126126Y-84962411D01*
X152126085Y-84962415D01*
X152126081Y-84962416D01*
X151995303Y-84974317D01*
X151995301Y-84974317D01*
X151971738Y-84971840D01*
X151864702Y-84960591D01*
X151864697Y-84960590D01*
X151864654Y-84960585D01*
X151739163Y-84921739D01*
X151623607Y-84859258D01*
X151522388Y-84775522D01*
X151439361Y-84673721D01*
X151377688Y-84557731D01*
X151339719Y-84431972D01*
X151326900Y-84301233D01*
X151326900Y-83058737D01*
X151326951Y-83051426D01*
X151326952Y-83051421D01*
X151326966Y-83049369D01*
X151341609Y-82918822D01*
X151381330Y-82793605D01*
X151444616Y-82678488D01*
X151529057Y-82577855D01*
X151631435Y-82495541D01*
X151747852Y-82434680D01*
X151873874Y-82397589D01*
X151873915Y-82397585D01*
X151873919Y-82397584D01*
X152004698Y-82385683D01*
X152004699Y-82385683D01*
X152028262Y-82388160D01*
X152028262Y-82388160D01*
G37*
G36*
X139328262Y-82388160D02*
X139435298Y-82399409D01*
X139435303Y-82399410D01*
X139435346Y-82399415D01*
X139560837Y-82438261D01*
X139676393Y-82500742D01*
X139777612Y-82584478D01*
X139860639Y-82686279D01*
X139922312Y-82802269D01*
X139960281Y-82928028D01*
X139973100Y-83058767D01*
X139973100Y-84301263D01*
X139973049Y-84308574D01*
X139973048Y-84308579D01*
X139973034Y-84310631D01*
X139958391Y-84441178D01*
X139918670Y-84566395D01*
X139855384Y-84681512D01*
X139770943Y-84782145D01*
X139668565Y-84864459D01*
X139552148Y-84925320D01*
X139426126Y-84962411D01*
X139426085Y-84962415D01*
X139426081Y-84962416D01*
X139295303Y-84974317D01*
X139295301Y-84974317D01*
X139271738Y-84971840D01*
X139164702Y-84960591D01*
X139164697Y-84960590D01*
X139164654Y-84960585D01*
X139039163Y-84921739D01*
X138923607Y-84859258D01*
X138822388Y-84775522D01*
X138739361Y-84673721D01*
X138677688Y-84557731D01*
X138639719Y-84431972D01*
X138626900Y-84301233D01*
X138626900Y-83058737D01*
X138626951Y-83051426D01*
X138626952Y-83051421D01*
X138626966Y-83049369D01*
X138641609Y-82918822D01*
X138681330Y-82793605D01*
X138744616Y-82678488D01*
X138829057Y-82577855D01*
X138931435Y-82495541D01*
X139047852Y-82434680D01*
X139173874Y-82397589D01*
X139173915Y-82397585D01*
X139173919Y-82397584D01*
X139304698Y-82385683D01*
X139304699Y-82385683D01*
X139328262Y-82388160D01*
X139328262Y-82388160D01*
G37*
G36*
X146948262Y-82388160D02*
X147055298Y-82399409D01*
X147055303Y-82399410D01*
X147055346Y-82399415D01*
X147180837Y-82438261D01*
X147296393Y-82500742D01*
X147397612Y-82584478D01*
X147480639Y-82686279D01*
X147542312Y-82802269D01*
X147580281Y-82928028D01*
X147593100Y-83058767D01*
X147593100Y-84301263D01*
X147593049Y-84308574D01*
X147593048Y-84308579D01*
X147593034Y-84310631D01*
X147578391Y-84441178D01*
X147538670Y-84566395D01*
X147475384Y-84681512D01*
X147390943Y-84782145D01*
X147288565Y-84864459D01*
X147172148Y-84925320D01*
X147046126Y-84962411D01*
X147046085Y-84962415D01*
X147046081Y-84962416D01*
X146915303Y-84974317D01*
X146915301Y-84974317D01*
X146891738Y-84971840D01*
X146784702Y-84960591D01*
X146784697Y-84960590D01*
X146784654Y-84960585D01*
X146659163Y-84921739D01*
X146543607Y-84859258D01*
X146442388Y-84775522D01*
X146359361Y-84673721D01*
X146297688Y-84557731D01*
X146259719Y-84431972D01*
X146246900Y-84301233D01*
X146246900Y-83058737D01*
X146246951Y-83051426D01*
X146246952Y-83051421D01*
X146246966Y-83049369D01*
X146261609Y-82918822D01*
X146301330Y-82793605D01*
X146364616Y-82678488D01*
X146449057Y-82577855D01*
X146551435Y-82495541D01*
X146667852Y-82434680D01*
X146793874Y-82397589D01*
X146793915Y-82397585D01*
X146793919Y-82397584D01*
X146924698Y-82385683D01*
X146924699Y-82385683D01*
X146948262Y-82388160D01*
X146948262Y-82388160D01*
G37*
G36*
X141868262Y-82388160D02*
X141975298Y-82399409D01*
X141975303Y-82399410D01*
X141975346Y-82399415D01*
X142100837Y-82438261D01*
X142216393Y-82500742D01*
X142317612Y-82584478D01*
X142400639Y-82686279D01*
X142462312Y-82802269D01*
X142500281Y-82928028D01*
X142513100Y-83058767D01*
X142513100Y-84301263D01*
X142513049Y-84308574D01*
X142513048Y-84308579D01*
X142513034Y-84310631D01*
X142498391Y-84441178D01*
X142458670Y-84566395D01*
X142395384Y-84681512D01*
X142310943Y-84782145D01*
X142208565Y-84864459D01*
X142092148Y-84925320D01*
X141966126Y-84962411D01*
X141966085Y-84962415D01*
X141966081Y-84962416D01*
X141835303Y-84974317D01*
X141835301Y-84974317D01*
X141811738Y-84971840D01*
X141704702Y-84960591D01*
X141704697Y-84960590D01*
X141704654Y-84960585D01*
X141579163Y-84921739D01*
X141463607Y-84859258D01*
X141362388Y-84775522D01*
X141279361Y-84673721D01*
X141217688Y-84557731D01*
X141179719Y-84431972D01*
X141166900Y-84301233D01*
X141166900Y-83058737D01*
X141166951Y-83051426D01*
X141166952Y-83051421D01*
X141166966Y-83049369D01*
X141181609Y-82918822D01*
X141221330Y-82793605D01*
X141284616Y-82678488D01*
X141369057Y-82577855D01*
X141471435Y-82495541D01*
X141587852Y-82434680D01*
X141713874Y-82397589D01*
X141713915Y-82397585D01*
X141713919Y-82397584D01*
X141844698Y-82385683D01*
X141844699Y-82385683D01*
X141868262Y-82388160D01*
X141868262Y-82388160D01*
G37*
G36*
X144408262Y-82388160D02*
X144515298Y-82399409D01*
X144515303Y-82399410D01*
X144515346Y-82399415D01*
X144640837Y-82438261D01*
X144756393Y-82500742D01*
X144857612Y-82584478D01*
X144940639Y-82686279D01*
X145002312Y-82802269D01*
X145040281Y-82928028D01*
X145053100Y-83058767D01*
X145053100Y-84301263D01*
X145053049Y-84308574D01*
X145053048Y-84308579D01*
X145053034Y-84310631D01*
X145038391Y-84441178D01*
X144998670Y-84566395D01*
X144935384Y-84681512D01*
X144850943Y-84782145D01*
X144748565Y-84864459D01*
X144632148Y-84925320D01*
X144506126Y-84962411D01*
X144506085Y-84962415D01*
X144506081Y-84962416D01*
X144375303Y-84974317D01*
X144375301Y-84974317D01*
X144351738Y-84971840D01*
X144244702Y-84960591D01*
X144244697Y-84960590D01*
X144244654Y-84960585D01*
X144119163Y-84921739D01*
X144003607Y-84859258D01*
X143902388Y-84775522D01*
X143819361Y-84673721D01*
X143757688Y-84557731D01*
X143719719Y-84431972D01*
X143706900Y-84301233D01*
X143706900Y-83058737D01*
X143706951Y-83051426D01*
X143706952Y-83051421D01*
X143706966Y-83049369D01*
X143721609Y-82918822D01*
X143761330Y-82793605D01*
X143824616Y-82678488D01*
X143909057Y-82577855D01*
X144011435Y-82495541D01*
X144127852Y-82434680D01*
X144253874Y-82397589D01*
X144253915Y-82397585D01*
X144253919Y-82397584D01*
X144384698Y-82385683D01*
X144384699Y-82385683D01*
X144408262Y-82388160D01*
X144408262Y-82388160D01*
G37*
G36*
X149488262Y-82388160D02*
X149595298Y-82399409D01*
X149595303Y-82399410D01*
X149595346Y-82399415D01*
X149720837Y-82438261D01*
X149836393Y-82500742D01*
X149937612Y-82584478D01*
X150020639Y-82686279D01*
X150082312Y-82802269D01*
X150120281Y-82928028D01*
X150133100Y-83058767D01*
X150133100Y-84301263D01*
X150133049Y-84308574D01*
X150133048Y-84308579D01*
X150133034Y-84310631D01*
X150118391Y-84441178D01*
X150078670Y-84566395D01*
X150015384Y-84681512D01*
X149930943Y-84782145D01*
X149828565Y-84864459D01*
X149712148Y-84925320D01*
X149586126Y-84962411D01*
X149586085Y-84962415D01*
X149586081Y-84962416D01*
X149455303Y-84974317D01*
X149455301Y-84974317D01*
X149431738Y-84971840D01*
X149324702Y-84960591D01*
X149324697Y-84960590D01*
X149324654Y-84960585D01*
X149199163Y-84921739D01*
X149083607Y-84859258D01*
X148982388Y-84775522D01*
X148899361Y-84673721D01*
X148837688Y-84557731D01*
X148799719Y-84431972D01*
X148786900Y-84301233D01*
X148786900Y-83058737D01*
X148786951Y-83051426D01*
X148786952Y-83051421D01*
X148786966Y-83049369D01*
X148801609Y-82918822D01*
X148841330Y-82793605D01*
X148904616Y-82678488D01*
X148989057Y-82577855D01*
X149091435Y-82495541D01*
X149207852Y-82434680D01*
X149333874Y-82397589D01*
X149333915Y-82397585D01*
X149333919Y-82397584D01*
X149464698Y-82385683D01*
X149464699Y-82385683D01*
X149488262Y-82388160D01*
X149488262Y-82388160D01*
G37*
G36*
X150288262Y-78248160D02*
X150395298Y-78259409D01*
X150395303Y-78259410D01*
X150395346Y-78259415D01*
X150520837Y-78298261D01*
X150636393Y-78360742D01*
X150737612Y-78444478D01*
X150820639Y-78546279D01*
X150882312Y-78662269D01*
X150920281Y-78788028D01*
X150933100Y-78918767D01*
X150933100Y-80161263D01*
X150933049Y-80168574D01*
X150933048Y-80168579D01*
X150933034Y-80170631D01*
X150918391Y-80301178D01*
X150878670Y-80426395D01*
X150815384Y-80541512D01*
X150730943Y-80642145D01*
X150628565Y-80724459D01*
X150512148Y-80785320D01*
X150386126Y-80822411D01*
X150386085Y-80822415D01*
X150386081Y-80822416D01*
X150255303Y-80834317D01*
X150255301Y-80834317D01*
X150231738Y-80831840D01*
X150124702Y-80820591D01*
X150124697Y-80820590D01*
X150124654Y-80820585D01*
X149999163Y-80781739D01*
X149883607Y-80719258D01*
X149782388Y-80635522D01*
X149699361Y-80533721D01*
X149637688Y-80417731D01*
X149599719Y-80291972D01*
X149586900Y-80161233D01*
X149586900Y-78918737D01*
X149586951Y-78911426D01*
X149586952Y-78911421D01*
X149586966Y-78909369D01*
X149601609Y-78778822D01*
X149641330Y-78653605D01*
X149704616Y-78538488D01*
X149789057Y-78437855D01*
X149891435Y-78355541D01*
X150007852Y-78294680D01*
X150133874Y-78257589D01*
X150133915Y-78257585D01*
X150133919Y-78257584D01*
X150264698Y-78245683D01*
X150264699Y-78245683D01*
X150288262Y-78248160D01*
X150288262Y-78248160D01*
G37*
G36*
X160448262Y-78248160D02*
X160555298Y-78259409D01*
X160555303Y-78259410D01*
X160555346Y-78259415D01*
X160680837Y-78298261D01*
X160796393Y-78360742D01*
X160897612Y-78444478D01*
X160980639Y-78546279D01*
X161042312Y-78662269D01*
X161080281Y-78788028D01*
X161093100Y-78918767D01*
X161093100Y-80161263D01*
X161093049Y-80168574D01*
X161093048Y-80168579D01*
X161093034Y-80170631D01*
X161078391Y-80301178D01*
X161038670Y-80426395D01*
X160975384Y-80541512D01*
X160890943Y-80642145D01*
X160788565Y-80724459D01*
X160672148Y-80785320D01*
X160546126Y-80822411D01*
X160546085Y-80822415D01*
X160546081Y-80822416D01*
X160415303Y-80834317D01*
X160415301Y-80834317D01*
X160391738Y-80831840D01*
X160284702Y-80820591D01*
X160284697Y-80820590D01*
X160284654Y-80820585D01*
X160159163Y-80781739D01*
X160043607Y-80719258D01*
X159942388Y-80635522D01*
X159859361Y-80533721D01*
X159797688Y-80417731D01*
X159759719Y-80291972D01*
X159746900Y-80161233D01*
X159746900Y-78918737D01*
X159746951Y-78911426D01*
X159746952Y-78911421D01*
X159746966Y-78909369D01*
X159761609Y-78778822D01*
X159801330Y-78653605D01*
X159864616Y-78538488D01*
X159949057Y-78437855D01*
X160051435Y-78355541D01*
X160167852Y-78294680D01*
X160293874Y-78257589D01*
X160293915Y-78257585D01*
X160293919Y-78257584D01*
X160424698Y-78245683D01*
X160424699Y-78245683D01*
X160448262Y-78248160D01*
X160448262Y-78248160D01*
G37*
G36*
X157908262Y-78248160D02*
X158015298Y-78259409D01*
X158015303Y-78259410D01*
X158015346Y-78259415D01*
X158140837Y-78298261D01*
X158256393Y-78360742D01*
X158357612Y-78444478D01*
X158440639Y-78546279D01*
X158502312Y-78662269D01*
X158540281Y-78788028D01*
X158553100Y-78918767D01*
X158553100Y-80161263D01*
X158553049Y-80168574D01*
X158553048Y-80168579D01*
X158553034Y-80170631D01*
X158538391Y-80301178D01*
X158498670Y-80426395D01*
X158435384Y-80541512D01*
X158350943Y-80642145D01*
X158248565Y-80724459D01*
X158132148Y-80785320D01*
X158006126Y-80822411D01*
X158006085Y-80822415D01*
X158006081Y-80822416D01*
X157875303Y-80834317D01*
X157875301Y-80834317D01*
X157851738Y-80831840D01*
X157744702Y-80820591D01*
X157744697Y-80820590D01*
X157744654Y-80820585D01*
X157619163Y-80781739D01*
X157503607Y-80719258D01*
X157402388Y-80635522D01*
X157319361Y-80533721D01*
X157257688Y-80417731D01*
X157219719Y-80291972D01*
X157206900Y-80161233D01*
X157206900Y-78918737D01*
X157206951Y-78911426D01*
X157206952Y-78911421D01*
X157206966Y-78909369D01*
X157221609Y-78778822D01*
X157261330Y-78653605D01*
X157324616Y-78538488D01*
X157409057Y-78437855D01*
X157511435Y-78355541D01*
X157627852Y-78294680D01*
X157753874Y-78257589D01*
X157753915Y-78257585D01*
X157753919Y-78257584D01*
X157884698Y-78245683D01*
X157884699Y-78245683D01*
X157908262Y-78248160D01*
X157908262Y-78248160D01*
G37*
G36*
X155368262Y-78248160D02*
X155475298Y-78259409D01*
X155475303Y-78259410D01*
X155475346Y-78259415D01*
X155600837Y-78298261D01*
X155716393Y-78360742D01*
X155817612Y-78444478D01*
X155900639Y-78546279D01*
X155962312Y-78662269D01*
X156000281Y-78788028D01*
X156013100Y-78918767D01*
X156013100Y-80161263D01*
X156013049Y-80168574D01*
X156013048Y-80168579D01*
X156013034Y-80170631D01*
X155998391Y-80301178D01*
X155958670Y-80426395D01*
X155895384Y-80541512D01*
X155810943Y-80642145D01*
X155708565Y-80724459D01*
X155592148Y-80785320D01*
X155466126Y-80822411D01*
X155466085Y-80822415D01*
X155466081Y-80822416D01*
X155335303Y-80834317D01*
X155335301Y-80834317D01*
X155311738Y-80831840D01*
X155204702Y-80820591D01*
X155204697Y-80820590D01*
X155204654Y-80820585D01*
X155079163Y-80781739D01*
X154963607Y-80719258D01*
X154862388Y-80635522D01*
X154779361Y-80533721D01*
X154717688Y-80417731D01*
X154679719Y-80291972D01*
X154666900Y-80161233D01*
X154666900Y-78918737D01*
X154666951Y-78911426D01*
X154666952Y-78911421D01*
X154666966Y-78909369D01*
X154681609Y-78778822D01*
X154721330Y-78653605D01*
X154784616Y-78538488D01*
X154869057Y-78437855D01*
X154971435Y-78355541D01*
X155087852Y-78294680D01*
X155213874Y-78257589D01*
X155213915Y-78257585D01*
X155213919Y-78257584D01*
X155344698Y-78245683D01*
X155344699Y-78245683D01*
X155368262Y-78248160D01*
X155368262Y-78248160D01*
G37*
G36*
X165528262Y-78248160D02*
X165635298Y-78259409D01*
X165635303Y-78259410D01*
X165635346Y-78259415D01*
X165760837Y-78298261D01*
X165876393Y-78360742D01*
X165977612Y-78444478D01*
X166060639Y-78546279D01*
X166122312Y-78662269D01*
X166160281Y-78788028D01*
X166173100Y-78918767D01*
X166173100Y-80161263D01*
X166173049Y-80168574D01*
X166173048Y-80168579D01*
X166173034Y-80170631D01*
X166158391Y-80301178D01*
X166118670Y-80426395D01*
X166055384Y-80541512D01*
X165970943Y-80642145D01*
X165868565Y-80724459D01*
X165752148Y-80785320D01*
X165626126Y-80822411D01*
X165626085Y-80822415D01*
X165626081Y-80822416D01*
X165495303Y-80834317D01*
X165495301Y-80834317D01*
X165471738Y-80831840D01*
X165364702Y-80820591D01*
X165364697Y-80820590D01*
X165364654Y-80820585D01*
X165239163Y-80781739D01*
X165123607Y-80719258D01*
X165022388Y-80635522D01*
X164939361Y-80533721D01*
X164877688Y-80417731D01*
X164839719Y-80291972D01*
X164826900Y-80161233D01*
X164826900Y-78918737D01*
X164826951Y-78911426D01*
X164826952Y-78911421D01*
X164826966Y-78909369D01*
X164841609Y-78778822D01*
X164881330Y-78653605D01*
X164944616Y-78538488D01*
X165029057Y-78437855D01*
X165131435Y-78355541D01*
X165247852Y-78294680D01*
X165373874Y-78257589D01*
X165373915Y-78257585D01*
X165373919Y-78257584D01*
X165504698Y-78245683D01*
X165504699Y-78245683D01*
X165528262Y-78248160D01*
X165528262Y-78248160D01*
G37*
G36*
X152828262Y-78248160D02*
X152935298Y-78259409D01*
X152935303Y-78259410D01*
X152935346Y-78259415D01*
X153060837Y-78298261D01*
X153176393Y-78360742D01*
X153277612Y-78444478D01*
X153360639Y-78546279D01*
X153422312Y-78662269D01*
X153460281Y-78788028D01*
X153473100Y-78918767D01*
X153473100Y-80161263D01*
X153473049Y-80168574D01*
X153473048Y-80168579D01*
X153473034Y-80170631D01*
X153458391Y-80301178D01*
X153418670Y-80426395D01*
X153355384Y-80541512D01*
X153270943Y-80642145D01*
X153168565Y-80724459D01*
X153052148Y-80785320D01*
X152926126Y-80822411D01*
X152926085Y-80822415D01*
X152926081Y-80822416D01*
X152795303Y-80834317D01*
X152795301Y-80834317D01*
X152771738Y-80831840D01*
X152664702Y-80820591D01*
X152664697Y-80820590D01*
X152664654Y-80820585D01*
X152539163Y-80781739D01*
X152423607Y-80719258D01*
X152322388Y-80635522D01*
X152239361Y-80533721D01*
X152177688Y-80417731D01*
X152139719Y-80291972D01*
X152126900Y-80161233D01*
X152126900Y-78918737D01*
X152126951Y-78911426D01*
X152126952Y-78911421D01*
X152126966Y-78909369D01*
X152141609Y-78778822D01*
X152181330Y-78653605D01*
X152244616Y-78538488D01*
X152329057Y-78437855D01*
X152431435Y-78355541D01*
X152547852Y-78294680D01*
X152673874Y-78257589D01*
X152673915Y-78257585D01*
X152673919Y-78257584D01*
X152804698Y-78245683D01*
X152804699Y-78245683D01*
X152828262Y-78248160D01*
X152828262Y-78248160D01*
G37*
G36*
X147748262Y-78248160D02*
X147855298Y-78259409D01*
X147855303Y-78259410D01*
X147855346Y-78259415D01*
X147980837Y-78298261D01*
X148096393Y-78360742D01*
X148197612Y-78444478D01*
X148280639Y-78546279D01*
X148342312Y-78662269D01*
X148380281Y-78788028D01*
X148393100Y-78918767D01*
X148393100Y-80161263D01*
X148393049Y-80168574D01*
X148393048Y-80168579D01*
X148393034Y-80170631D01*
X148378391Y-80301178D01*
X148338670Y-80426395D01*
X148275384Y-80541512D01*
X148190943Y-80642145D01*
X148088565Y-80724459D01*
X147972148Y-80785320D01*
X147846126Y-80822411D01*
X147846085Y-80822415D01*
X147846081Y-80822416D01*
X147715303Y-80834317D01*
X147715301Y-80834317D01*
X147691738Y-80831840D01*
X147584702Y-80820591D01*
X147584697Y-80820590D01*
X147584654Y-80820585D01*
X147459163Y-80781739D01*
X147343607Y-80719258D01*
X147242388Y-80635522D01*
X147159361Y-80533721D01*
X147097688Y-80417731D01*
X147059719Y-80291972D01*
X147046900Y-80161233D01*
X147046900Y-78918737D01*
X147046951Y-78911426D01*
X147046952Y-78911421D01*
X147046966Y-78909369D01*
X147061609Y-78778822D01*
X147101330Y-78653605D01*
X147164616Y-78538488D01*
X147249057Y-78437855D01*
X147351435Y-78355541D01*
X147467852Y-78294680D01*
X147593874Y-78257589D01*
X147593915Y-78257585D01*
X147593919Y-78257584D01*
X147724698Y-78245683D01*
X147724699Y-78245683D01*
X147748262Y-78248160D01*
X147748262Y-78248160D01*
G37*
G36*
X145208262Y-78248160D02*
X145315298Y-78259409D01*
X145315303Y-78259410D01*
X145315346Y-78259415D01*
X145440837Y-78298261D01*
X145556393Y-78360742D01*
X145657612Y-78444478D01*
X145740639Y-78546279D01*
X145802312Y-78662269D01*
X145840281Y-78788028D01*
X145853100Y-78918767D01*
X145853100Y-80161263D01*
X145853049Y-80168574D01*
X145853048Y-80168579D01*
X145853034Y-80170631D01*
X145838391Y-80301178D01*
X145798670Y-80426395D01*
X145735384Y-80541512D01*
X145650943Y-80642145D01*
X145548565Y-80724459D01*
X145432148Y-80785320D01*
X145306126Y-80822411D01*
X145306085Y-80822415D01*
X145306081Y-80822416D01*
X145175303Y-80834317D01*
X145175301Y-80834317D01*
X145151738Y-80831840D01*
X145044702Y-80820591D01*
X145044697Y-80820590D01*
X145044654Y-80820585D01*
X144919163Y-80781739D01*
X144803607Y-80719258D01*
X144702388Y-80635522D01*
X144619361Y-80533721D01*
X144557688Y-80417731D01*
X144519719Y-80291972D01*
X144506900Y-80161233D01*
X144506900Y-78918737D01*
X144506951Y-78911426D01*
X144506952Y-78911421D01*
X144506966Y-78909369D01*
X144521609Y-78778822D01*
X144561330Y-78653605D01*
X144624616Y-78538488D01*
X144709057Y-78437855D01*
X144811435Y-78355541D01*
X144927852Y-78294680D01*
X145053874Y-78257589D01*
X145053915Y-78257585D01*
X145053919Y-78257584D01*
X145184698Y-78245683D01*
X145184699Y-78245683D01*
X145208262Y-78248160D01*
X145208262Y-78248160D01*
G37*
G36*
X142668262Y-78248160D02*
X142775298Y-78259409D01*
X142775303Y-78259410D01*
X142775346Y-78259415D01*
X142900837Y-78298261D01*
X143016393Y-78360742D01*
X143117612Y-78444478D01*
X143200639Y-78546279D01*
X143262312Y-78662269D01*
X143300281Y-78788028D01*
X143313100Y-78918767D01*
X143313100Y-80161263D01*
X143313049Y-80168574D01*
X143313048Y-80168579D01*
X143313034Y-80170631D01*
X143298391Y-80301178D01*
X143258670Y-80426395D01*
X143195384Y-80541512D01*
X143110943Y-80642145D01*
X143008565Y-80724459D01*
X142892148Y-80785320D01*
X142766126Y-80822411D01*
X142766085Y-80822415D01*
X142766081Y-80822416D01*
X142635303Y-80834317D01*
X142635301Y-80834317D01*
X142611738Y-80831840D01*
X142504702Y-80820591D01*
X142504697Y-80820590D01*
X142504654Y-80820585D01*
X142379163Y-80781739D01*
X142263607Y-80719258D01*
X142162388Y-80635522D01*
X142079361Y-80533721D01*
X142017688Y-80417731D01*
X141979719Y-80291972D01*
X141966900Y-80161233D01*
X141966900Y-78918737D01*
X141966951Y-78911426D01*
X141966952Y-78911421D01*
X141966966Y-78909369D01*
X141981609Y-78778822D01*
X142021330Y-78653605D01*
X142084616Y-78538488D01*
X142169057Y-78437855D01*
X142271435Y-78355541D01*
X142387852Y-78294680D01*
X142513874Y-78257589D01*
X142513915Y-78257585D01*
X142513919Y-78257584D01*
X142644698Y-78245683D01*
X142644699Y-78245683D01*
X142668262Y-78248160D01*
X142668262Y-78248160D01*
G37*
G36*
X162988262Y-78248160D02*
X163095298Y-78259409D01*
X163095303Y-78259410D01*
X163095346Y-78259415D01*
X163220837Y-78298261D01*
X163336393Y-78360742D01*
X163437612Y-78444478D01*
X163520639Y-78546279D01*
X163582312Y-78662269D01*
X163620281Y-78788028D01*
X163633100Y-78918767D01*
X163633100Y-80161263D01*
X163633049Y-80168574D01*
X163633048Y-80168579D01*
X163633034Y-80170631D01*
X163618391Y-80301178D01*
X163578670Y-80426395D01*
X163515384Y-80541512D01*
X163430943Y-80642145D01*
X163328565Y-80724459D01*
X163212148Y-80785320D01*
X163086126Y-80822411D01*
X163086085Y-80822415D01*
X163086081Y-80822416D01*
X162955303Y-80834317D01*
X162955301Y-80834317D01*
X162931738Y-80831840D01*
X162824702Y-80820591D01*
X162824697Y-80820590D01*
X162824654Y-80820585D01*
X162699163Y-80781739D01*
X162583607Y-80719258D01*
X162482388Y-80635522D01*
X162399361Y-80533721D01*
X162337688Y-80417731D01*
X162299719Y-80291972D01*
X162286900Y-80161233D01*
X162286900Y-78918737D01*
X162286951Y-78911426D01*
X162286952Y-78911421D01*
X162286966Y-78909369D01*
X162301609Y-78778822D01*
X162341330Y-78653605D01*
X162404616Y-78538488D01*
X162489057Y-78437855D01*
X162591435Y-78355541D01*
X162707852Y-78294680D01*
X162833874Y-78257589D01*
X162833915Y-78257585D01*
X162833919Y-78257584D01*
X162964698Y-78245683D01*
X162964699Y-78245683D01*
X162988262Y-78248160D01*
X162988262Y-78248160D01*
G37*
G36*
X140128262Y-78248160D02*
X140235298Y-78259409D01*
X140235303Y-78259410D01*
X140235346Y-78259415D01*
X140360837Y-78298261D01*
X140476393Y-78360742D01*
X140577612Y-78444478D01*
X140660639Y-78546279D01*
X140722312Y-78662269D01*
X140760281Y-78788028D01*
X140773100Y-78918767D01*
X140773100Y-80161263D01*
X140773049Y-80168574D01*
X140773048Y-80168579D01*
X140773034Y-80170631D01*
X140758391Y-80301178D01*
X140718670Y-80426395D01*
X140655384Y-80541512D01*
X140570943Y-80642145D01*
X140468565Y-80724459D01*
X140352148Y-80785320D01*
X140226126Y-80822411D01*
X140226085Y-80822415D01*
X140226081Y-80822416D01*
X140095303Y-80834317D01*
X140095301Y-80834317D01*
X140071738Y-80831840D01*
X139964702Y-80820591D01*
X139964697Y-80820590D01*
X139964654Y-80820585D01*
X139839163Y-80781739D01*
X139723607Y-80719258D01*
X139622388Y-80635522D01*
X139539361Y-80533721D01*
X139477688Y-80417731D01*
X139439719Y-80291972D01*
X139426900Y-80161233D01*
X139426900Y-78918737D01*
X139426951Y-78911426D01*
X139426952Y-78911421D01*
X139426966Y-78909369D01*
X139441609Y-78778822D01*
X139481330Y-78653605D01*
X139544616Y-78538488D01*
X139629057Y-78437855D01*
X139731435Y-78355541D01*
X139847852Y-78294680D01*
X139973874Y-78257589D01*
X139973915Y-78257585D01*
X139973919Y-78257584D01*
X140104698Y-78245683D01*
X140104699Y-78245683D01*
X140128262Y-78248160D01*
X140128262Y-78248160D01*
G37*
G36*
X134503476Y-72543989D02*
X134503481Y-72543991D01*
X134503523Y-72543995D01*
X134659777Y-72592363D01*
X134803660Y-72670161D01*
X134929691Y-72774423D01*
X135033071Y-72901180D01*
X135109862Y-73045602D01*
X135157139Y-73202189D01*
X135173100Y-73364977D01*
X135173100Y-73775056D01*
X135173033Y-73784668D01*
X135173032Y-73784674D01*
X135173018Y-73786725D01*
X135154786Y-73949274D01*
X135105327Y-74105186D01*
X135026528Y-74248522D01*
X134921388Y-74373823D01*
X134793913Y-74476315D01*
X134648958Y-74552096D01*
X134492044Y-74598278D01*
X134492008Y-74598281D01*
X134491999Y-74598284D01*
X134329152Y-74613104D01*
X134166524Y-74596011D01*
X134166519Y-74596009D01*
X134166477Y-74596005D01*
X134010223Y-74547637D01*
X133866340Y-74469839D01*
X133740309Y-74365577D01*
X133636929Y-74238820D01*
X133560138Y-74094398D01*
X133512861Y-73937811D01*
X133496900Y-73775023D01*
X133496900Y-73364944D01*
X133496967Y-73355332D01*
X133496968Y-73355326D01*
X133496982Y-73353275D01*
X133515214Y-73190726D01*
X133564673Y-73034814D01*
X133643472Y-72891478D01*
X133748612Y-72766177D01*
X133876087Y-72663685D01*
X134021042Y-72587904D01*
X134177956Y-72541722D01*
X134177992Y-72541719D01*
X134178001Y-72541716D01*
X134340848Y-72526896D01*
X134503476Y-72543989D01*
X134503476Y-72543989D01*
G37*
G36*
X168553476Y-72543989D02*
X168553481Y-72543991D01*
X168553523Y-72543995D01*
X168709777Y-72592363D01*
X168853660Y-72670161D01*
X168979691Y-72774423D01*
X169083071Y-72901180D01*
X169159862Y-73045602D01*
X169207139Y-73202189D01*
X169223100Y-73364977D01*
X169223100Y-73775056D01*
X169223033Y-73784668D01*
X169223032Y-73784674D01*
X169223018Y-73786725D01*
X169204786Y-73949274D01*
X169155327Y-74105186D01*
X169076528Y-74248522D01*
X168971388Y-74373823D01*
X168843913Y-74476315D01*
X168698958Y-74552096D01*
X168542044Y-74598278D01*
X168542008Y-74598281D01*
X168541999Y-74598284D01*
X168379152Y-74613104D01*
X168216524Y-74596011D01*
X168216519Y-74596009D01*
X168216477Y-74596005D01*
X168060223Y-74547637D01*
X167916340Y-74469839D01*
X167790309Y-74365577D01*
X167686929Y-74238820D01*
X167610138Y-74094398D01*
X167562861Y-73937811D01*
X167546900Y-73775023D01*
X167546900Y-73364944D01*
X167546967Y-73355332D01*
X167546968Y-73355326D01*
X167546982Y-73353275D01*
X167565214Y-73190726D01*
X167614673Y-73034814D01*
X167693472Y-72891478D01*
X167798612Y-72766177D01*
X167926087Y-72663685D01*
X168071042Y-72587904D01*
X168227956Y-72541722D01*
X168227992Y-72541719D01*
X168228001Y-72541716D01*
X168390848Y-72526896D01*
X168553476Y-72543989D01*
X168553476Y-72543989D01*
G37*
G36*
X164728476Y-71792538D02*
X164728481Y-71792540D01*
X164728523Y-71792544D01*
X164884777Y-71840912D01*
X165028660Y-71918710D01*
X165154691Y-72022972D01*
X165258071Y-72149729D01*
X165334862Y-72294151D01*
X165382139Y-72450738D01*
X165398100Y-72613526D01*
X165398100Y-73626507D01*
X165398033Y-73636119D01*
X165398032Y-73636125D01*
X165398018Y-73638176D01*
X165379786Y-73800725D01*
X165330327Y-73956637D01*
X165251528Y-74099973D01*
X165146388Y-74225274D01*
X165018913Y-74327766D01*
X164873958Y-74403547D01*
X164717044Y-74449729D01*
X164717008Y-74449732D01*
X164716999Y-74449735D01*
X164554152Y-74464555D01*
X164391524Y-74447462D01*
X164391519Y-74447460D01*
X164391477Y-74447456D01*
X164235223Y-74399088D01*
X164091340Y-74321290D01*
X163965309Y-74217028D01*
X163861929Y-74090271D01*
X163785138Y-73945849D01*
X163737861Y-73789262D01*
X163721900Y-73626474D01*
X163721900Y-72613493D01*
X163721967Y-72603881D01*
X163721968Y-72603875D01*
X163721982Y-72601824D01*
X163740214Y-72439275D01*
X163789673Y-72283363D01*
X163868472Y-72140027D01*
X163973612Y-72014726D01*
X164101087Y-71912234D01*
X164246042Y-71836453D01*
X164402956Y-71790271D01*
X164402992Y-71790268D01*
X164403001Y-71790265D01*
X164565848Y-71775445D01*
X164728476Y-71792538D01*
X164728476Y-71792538D01*
G37*
G36*
X138328476Y-67792538D02*
X138328481Y-67792540D01*
X138328523Y-67792544D01*
X138484777Y-67840912D01*
X138628660Y-67918710D01*
X138754691Y-68022972D01*
X138858071Y-68149729D01*
X138934862Y-68294151D01*
X138982139Y-68450738D01*
X138998100Y-68613526D01*
X138998100Y-69626507D01*
X138998033Y-69636119D01*
X138998032Y-69636125D01*
X138998018Y-69638176D01*
X138979786Y-69800725D01*
X138930327Y-69956637D01*
X138851528Y-70099973D01*
X138746388Y-70225274D01*
X138618913Y-70327766D01*
X138473958Y-70403547D01*
X138317044Y-70449729D01*
X138317008Y-70449732D01*
X138316999Y-70449735D01*
X138154152Y-70464555D01*
X137991524Y-70447462D01*
X137991519Y-70447460D01*
X137991477Y-70447456D01*
X137835223Y-70399088D01*
X137691340Y-70321290D01*
X137565309Y-70217028D01*
X137461929Y-70090271D01*
X137385138Y-69945849D01*
X137337861Y-69789262D01*
X137321900Y-69626474D01*
X137321900Y-68613493D01*
X137321967Y-68603881D01*
X137321968Y-68603875D01*
X137321982Y-68601824D01*
X137340214Y-68439275D01*
X137389673Y-68283363D01*
X137468472Y-68140027D01*
X137573612Y-68014726D01*
X137701087Y-67912234D01*
X137846042Y-67836453D01*
X138002956Y-67790271D01*
X138002992Y-67790268D01*
X138003001Y-67790265D01*
X138165848Y-67775445D01*
X138328476Y-67792538D01*
X138328476Y-67792538D01*
G37*
G36*
X168553476Y-67342538D02*
X168553481Y-67342540D01*
X168553523Y-67342544D01*
X168709777Y-67390912D01*
X168853660Y-67468710D01*
X168979691Y-67572972D01*
X169083071Y-67699729D01*
X169159862Y-67844151D01*
X169207139Y-68000738D01*
X169223100Y-68163526D01*
X169223100Y-69176507D01*
X169223033Y-69186119D01*
X169223032Y-69186125D01*
X169223018Y-69188176D01*
X169204786Y-69350725D01*
X169155327Y-69506637D01*
X169076528Y-69649973D01*
X168971388Y-69775274D01*
X168843913Y-69877766D01*
X168698958Y-69953547D01*
X168542044Y-69999729D01*
X168542008Y-69999732D01*
X168541999Y-69999735D01*
X168379152Y-70014555D01*
X168216524Y-69997462D01*
X168216519Y-69997460D01*
X168216477Y-69997456D01*
X168060223Y-69949088D01*
X167916340Y-69871290D01*
X167790309Y-69767028D01*
X167686929Y-69640271D01*
X167610138Y-69495849D01*
X167562861Y-69339262D01*
X167546900Y-69176474D01*
X167546900Y-68163493D01*
X167546967Y-68153881D01*
X167546968Y-68153875D01*
X167546982Y-68151824D01*
X167565214Y-67989275D01*
X167614673Y-67833363D01*
X167693472Y-67690027D01*
X167798612Y-67564726D01*
X167926087Y-67462234D01*
X168071042Y-67386453D01*
X168227956Y-67340271D01*
X168227992Y-67340268D01*
X168228001Y-67340265D01*
X168390848Y-67325445D01*
X168553476Y-67342538D01*
X168553476Y-67342538D01*
G37*
G36*
X134503476Y-67342538D02*
X134503481Y-67342540D01*
X134503523Y-67342544D01*
X134659777Y-67390912D01*
X134803660Y-67468710D01*
X134929691Y-67572972D01*
X135033071Y-67699729D01*
X135109862Y-67844151D01*
X135157139Y-68000738D01*
X135173100Y-68163526D01*
X135173100Y-69176507D01*
X135173033Y-69186119D01*
X135173032Y-69186125D01*
X135173018Y-69188176D01*
X135154786Y-69350725D01*
X135105327Y-69506637D01*
X135026528Y-69649973D01*
X134921388Y-69775274D01*
X134793913Y-69877766D01*
X134648958Y-69953547D01*
X134492044Y-69999729D01*
X134492008Y-69999732D01*
X134491999Y-69999735D01*
X134329152Y-70014555D01*
X134166524Y-69997462D01*
X134166519Y-69997460D01*
X134166477Y-69997456D01*
X134010223Y-69949088D01*
X133866340Y-69871290D01*
X133740309Y-69767028D01*
X133636929Y-69640271D01*
X133560138Y-69495849D01*
X133512861Y-69339262D01*
X133496900Y-69176474D01*
X133496900Y-68163493D01*
X133496967Y-68153881D01*
X133496968Y-68153875D01*
X133496982Y-68151824D01*
X133515214Y-67989275D01*
X133564673Y-67833363D01*
X133643472Y-67690027D01*
X133748612Y-67564726D01*
X133876087Y-67462234D01*
X134021042Y-67386453D01*
X134177956Y-67340271D01*
X134177992Y-67340268D01*
X134178001Y-67340265D01*
X134340848Y-67325445D01*
X134503476Y-67342538D01*
X134503476Y-67342538D01*
G37*
G36*
X142668262Y-62208160D02*
X142775298Y-62219409D01*
X142775303Y-62219410D01*
X142775346Y-62219415D01*
X142900837Y-62258261D01*
X143016393Y-62320742D01*
X143117612Y-62404478D01*
X143200639Y-62506279D01*
X143262312Y-62622269D01*
X143300281Y-62748028D01*
X143313100Y-62878767D01*
X143313100Y-64121263D01*
X143313049Y-64128574D01*
X143313048Y-64128579D01*
X143313034Y-64130631D01*
X143298391Y-64261178D01*
X143258670Y-64386395D01*
X143195384Y-64501512D01*
X143110943Y-64602145D01*
X143008565Y-64684459D01*
X142892148Y-64745320D01*
X142766126Y-64782411D01*
X142766085Y-64782415D01*
X142766081Y-64782416D01*
X142635303Y-64794317D01*
X142635301Y-64794317D01*
X142611738Y-64791840D01*
X142504702Y-64780591D01*
X142504697Y-64780590D01*
X142504654Y-64780585D01*
X142379163Y-64741739D01*
X142263607Y-64679258D01*
X142162388Y-64595522D01*
X142079361Y-64493721D01*
X142017688Y-64377731D01*
X141979719Y-64251972D01*
X141966900Y-64121233D01*
X141966900Y-62878737D01*
X141966951Y-62871426D01*
X141966952Y-62871421D01*
X141966966Y-62869369D01*
X141981609Y-62738822D01*
X142021330Y-62613605D01*
X142084616Y-62498488D01*
X142169057Y-62397855D01*
X142271435Y-62315541D01*
X142387852Y-62254680D01*
X142513874Y-62217589D01*
X142513915Y-62217585D01*
X142513919Y-62217584D01*
X142644698Y-62205683D01*
X142644699Y-62205683D01*
X142668262Y-62208160D01*
X142668262Y-62208160D01*
G37*
G36*
X137588262Y-62208160D02*
X137695298Y-62219409D01*
X137695303Y-62219410D01*
X137695346Y-62219415D01*
X137820837Y-62258261D01*
X137936393Y-62320742D01*
X138037612Y-62404478D01*
X138120639Y-62506279D01*
X138182312Y-62622269D01*
X138220281Y-62748028D01*
X138233100Y-62878767D01*
X138233100Y-64121263D01*
X138233049Y-64128574D01*
X138233048Y-64128579D01*
X138233034Y-64130631D01*
X138218391Y-64261178D01*
X138178670Y-64386395D01*
X138115384Y-64501512D01*
X138030943Y-64602145D01*
X137928565Y-64684459D01*
X137812148Y-64745320D01*
X137686126Y-64782411D01*
X137686085Y-64782415D01*
X137686081Y-64782416D01*
X137555303Y-64794317D01*
X137555301Y-64794317D01*
X137531738Y-64791840D01*
X137424702Y-64780591D01*
X137424697Y-64780590D01*
X137424654Y-64780585D01*
X137299163Y-64741739D01*
X137183607Y-64679258D01*
X137082388Y-64595522D01*
X136999361Y-64493721D01*
X136937688Y-64377731D01*
X136899719Y-64251972D01*
X136886900Y-64121233D01*
X136886900Y-62878737D01*
X136886951Y-62871426D01*
X136886952Y-62871421D01*
X136886966Y-62869369D01*
X136901609Y-62738822D01*
X136941330Y-62613605D01*
X137004616Y-62498488D01*
X137089057Y-62397855D01*
X137191435Y-62315541D01*
X137307852Y-62254680D01*
X137433874Y-62217589D01*
X137433915Y-62217585D01*
X137433919Y-62217584D01*
X137564698Y-62205683D01*
X137564699Y-62205683D01*
X137588262Y-62208160D01*
X137588262Y-62208160D01*
G37*
G36*
X135048262Y-62208160D02*
X135155298Y-62219409D01*
X135155303Y-62219410D01*
X135155346Y-62219415D01*
X135280837Y-62258261D01*
X135396393Y-62320742D01*
X135497612Y-62404478D01*
X135580639Y-62506279D01*
X135642312Y-62622269D01*
X135680281Y-62748028D01*
X135693100Y-62878767D01*
X135693100Y-64121263D01*
X135693049Y-64128574D01*
X135693048Y-64128579D01*
X135693034Y-64130631D01*
X135678391Y-64261178D01*
X135638670Y-64386395D01*
X135575384Y-64501512D01*
X135490943Y-64602145D01*
X135388565Y-64684459D01*
X135272148Y-64745320D01*
X135146126Y-64782411D01*
X135146085Y-64782415D01*
X135146081Y-64782416D01*
X135015303Y-64794317D01*
X135015301Y-64794317D01*
X134991738Y-64791840D01*
X134884702Y-64780591D01*
X134884697Y-64780590D01*
X134884654Y-64780585D01*
X134759163Y-64741739D01*
X134643607Y-64679258D01*
X134542388Y-64595522D01*
X134459361Y-64493721D01*
X134397688Y-64377731D01*
X134359719Y-64251972D01*
X134346900Y-64121233D01*
X134346900Y-62878737D01*
X134346951Y-62871426D01*
X134346952Y-62871421D01*
X134346966Y-62869369D01*
X134361609Y-62738822D01*
X134401330Y-62613605D01*
X134464616Y-62498488D01*
X134549057Y-62397855D01*
X134651435Y-62315541D01*
X134767852Y-62254680D01*
X134893874Y-62217589D01*
X134893915Y-62217585D01*
X134893919Y-62217584D01*
X135024698Y-62205683D01*
X135024699Y-62205683D01*
X135048262Y-62208160D01*
X135048262Y-62208160D01*
G37*
G36*
X152828262Y-62208160D02*
X152935298Y-62219409D01*
X152935303Y-62219410D01*
X152935346Y-62219415D01*
X153060837Y-62258261D01*
X153176393Y-62320742D01*
X153277612Y-62404478D01*
X153360639Y-62506279D01*
X153422312Y-62622269D01*
X153460281Y-62748028D01*
X153473100Y-62878767D01*
X153473100Y-64121263D01*
X153473049Y-64128574D01*
X153473048Y-64128579D01*
X153473034Y-64130631D01*
X153458391Y-64261178D01*
X153418670Y-64386395D01*
X153355384Y-64501512D01*
X153270943Y-64602145D01*
X153168565Y-64684459D01*
X153052148Y-64745320D01*
X152926126Y-64782411D01*
X152926085Y-64782415D01*
X152926081Y-64782416D01*
X152795303Y-64794317D01*
X152795301Y-64794317D01*
X152771738Y-64791840D01*
X152664702Y-64780591D01*
X152664697Y-64780590D01*
X152664654Y-64780585D01*
X152539163Y-64741739D01*
X152423607Y-64679258D01*
X152322388Y-64595522D01*
X152239361Y-64493721D01*
X152177688Y-64377731D01*
X152139719Y-64251972D01*
X152126900Y-64121233D01*
X152126900Y-62878737D01*
X152126951Y-62871426D01*
X152126952Y-62871421D01*
X152126966Y-62869369D01*
X152141609Y-62738822D01*
X152181330Y-62613605D01*
X152244616Y-62498488D01*
X152329057Y-62397855D01*
X152431435Y-62315541D01*
X152547852Y-62254680D01*
X152673874Y-62217589D01*
X152673915Y-62217585D01*
X152673919Y-62217584D01*
X152804698Y-62205683D01*
X152804699Y-62205683D01*
X152828262Y-62208160D01*
X152828262Y-62208160D01*
G37*
G36*
X150288262Y-62208160D02*
X150395298Y-62219409D01*
X150395303Y-62219410D01*
X150395346Y-62219415D01*
X150520837Y-62258261D01*
X150636393Y-62320742D01*
X150737612Y-62404478D01*
X150820639Y-62506279D01*
X150882312Y-62622269D01*
X150920281Y-62748028D01*
X150933100Y-62878767D01*
X150933100Y-64121263D01*
X150933049Y-64128574D01*
X150933048Y-64128579D01*
X150933034Y-64130631D01*
X150918391Y-64261178D01*
X150878670Y-64386395D01*
X150815384Y-64501512D01*
X150730943Y-64602145D01*
X150628565Y-64684459D01*
X150512148Y-64745320D01*
X150386126Y-64782411D01*
X150386085Y-64782415D01*
X150386081Y-64782416D01*
X150255303Y-64794317D01*
X150255301Y-64794317D01*
X150231738Y-64791840D01*
X150124702Y-64780591D01*
X150124697Y-64780590D01*
X150124654Y-64780585D01*
X149999163Y-64741739D01*
X149883607Y-64679258D01*
X149782388Y-64595522D01*
X149699361Y-64493721D01*
X149637688Y-64377731D01*
X149599719Y-64251972D01*
X149586900Y-64121233D01*
X149586900Y-62878737D01*
X149586951Y-62871426D01*
X149586952Y-62871421D01*
X149586966Y-62869369D01*
X149601609Y-62738822D01*
X149641330Y-62613605D01*
X149704616Y-62498488D01*
X149789057Y-62397855D01*
X149891435Y-62315541D01*
X150007852Y-62254680D01*
X150133874Y-62217589D01*
X150133915Y-62217585D01*
X150133919Y-62217584D01*
X150264698Y-62205683D01*
X150264699Y-62205683D01*
X150288262Y-62208160D01*
X150288262Y-62208160D01*
G37*
G36*
X147748262Y-62208160D02*
X147855298Y-62219409D01*
X147855303Y-62219410D01*
X147855346Y-62219415D01*
X147980837Y-62258261D01*
X148096393Y-62320742D01*
X148197612Y-62404478D01*
X148280639Y-62506279D01*
X148342312Y-62622269D01*
X148380281Y-62748028D01*
X148393100Y-62878767D01*
X148393100Y-64121263D01*
X148393049Y-64128574D01*
X148393048Y-64128579D01*
X148393034Y-64130631D01*
X148378391Y-64261178D01*
X148338670Y-64386395D01*
X148275384Y-64501512D01*
X148190943Y-64602145D01*
X148088565Y-64684459D01*
X147972148Y-64745320D01*
X147846126Y-64782411D01*
X147846085Y-64782415D01*
X147846081Y-64782416D01*
X147715303Y-64794317D01*
X147715301Y-64794317D01*
X147691738Y-64791840D01*
X147584702Y-64780591D01*
X147584697Y-64780590D01*
X147584654Y-64780585D01*
X147459163Y-64741739D01*
X147343607Y-64679258D01*
X147242388Y-64595522D01*
X147159361Y-64493721D01*
X147097688Y-64377731D01*
X147059719Y-64251972D01*
X147046900Y-64121233D01*
X147046900Y-62878737D01*
X147046951Y-62871426D01*
X147046952Y-62871421D01*
X147046966Y-62869369D01*
X147061609Y-62738822D01*
X147101330Y-62613605D01*
X147164616Y-62498488D01*
X147249057Y-62397855D01*
X147351435Y-62315541D01*
X147467852Y-62254680D01*
X147593874Y-62217589D01*
X147593915Y-62217585D01*
X147593919Y-62217584D01*
X147724698Y-62205683D01*
X147724699Y-62205683D01*
X147748262Y-62208160D01*
X147748262Y-62208160D01*
G37*
G36*
X145208262Y-62208160D02*
X145315298Y-62219409D01*
X145315303Y-62219410D01*
X145315346Y-62219415D01*
X145440837Y-62258261D01*
X145556393Y-62320742D01*
X145657612Y-62404478D01*
X145740639Y-62506279D01*
X145802312Y-62622269D01*
X145840281Y-62748028D01*
X145853100Y-62878767D01*
X145853100Y-64121263D01*
X145853049Y-64128574D01*
X145853048Y-64128579D01*
X145853034Y-64130631D01*
X145838391Y-64261178D01*
X145798670Y-64386395D01*
X145735384Y-64501512D01*
X145650943Y-64602145D01*
X145548565Y-64684459D01*
X145432148Y-64745320D01*
X145306126Y-64782411D01*
X145306085Y-64782415D01*
X145306081Y-64782416D01*
X145175303Y-64794317D01*
X145175301Y-64794317D01*
X145151738Y-64791840D01*
X145044702Y-64780591D01*
X145044697Y-64780590D01*
X145044654Y-64780585D01*
X144919163Y-64741739D01*
X144803607Y-64679258D01*
X144702388Y-64595522D01*
X144619361Y-64493721D01*
X144557688Y-64377731D01*
X144519719Y-64251972D01*
X144506900Y-64121233D01*
X144506900Y-62878737D01*
X144506951Y-62871426D01*
X144506952Y-62871421D01*
X144506966Y-62869369D01*
X144521609Y-62738822D01*
X144561330Y-62613605D01*
X144624616Y-62498488D01*
X144709057Y-62397855D01*
X144811435Y-62315541D01*
X144927852Y-62254680D01*
X145053874Y-62217589D01*
X145053915Y-62217585D01*
X145053919Y-62217584D01*
X145184698Y-62205683D01*
X145184699Y-62205683D01*
X145208262Y-62208160D01*
X145208262Y-62208160D01*
G37*
G36*
X155368262Y-62208160D02*
X155475298Y-62219409D01*
X155475303Y-62219410D01*
X155475346Y-62219415D01*
X155600837Y-62258261D01*
X155716393Y-62320742D01*
X155817612Y-62404478D01*
X155900639Y-62506279D01*
X155962312Y-62622269D01*
X156000281Y-62748028D01*
X156013100Y-62878767D01*
X156013100Y-64121263D01*
X156013049Y-64128574D01*
X156013048Y-64128579D01*
X156013034Y-64130631D01*
X155998391Y-64261178D01*
X155958670Y-64386395D01*
X155895384Y-64501512D01*
X155810943Y-64602145D01*
X155708565Y-64684459D01*
X155592148Y-64745320D01*
X155466126Y-64782411D01*
X155466085Y-64782415D01*
X155466081Y-64782416D01*
X155335303Y-64794317D01*
X155335301Y-64794317D01*
X155311738Y-64791840D01*
X155204702Y-64780591D01*
X155204697Y-64780590D01*
X155204654Y-64780585D01*
X155079163Y-64741739D01*
X154963607Y-64679258D01*
X154862388Y-64595522D01*
X154779361Y-64493721D01*
X154717688Y-64377731D01*
X154679719Y-64251972D01*
X154666900Y-64121233D01*
X154666900Y-62878737D01*
X154666951Y-62871426D01*
X154666952Y-62871421D01*
X154666966Y-62869369D01*
X154681609Y-62738822D01*
X154721330Y-62613605D01*
X154784616Y-62498488D01*
X154869057Y-62397855D01*
X154971435Y-62315541D01*
X155087852Y-62254680D01*
X155213874Y-62217589D01*
X155213915Y-62217585D01*
X155213919Y-62217584D01*
X155344698Y-62205683D01*
X155344699Y-62205683D01*
X155368262Y-62208160D01*
X155368262Y-62208160D01*
G37*
G36*
X140128262Y-62208160D02*
X140235298Y-62219409D01*
X140235303Y-62219410D01*
X140235346Y-62219415D01*
X140360837Y-62258261D01*
X140476393Y-62320742D01*
X140577612Y-62404478D01*
X140660639Y-62506279D01*
X140722312Y-62622269D01*
X140760281Y-62748028D01*
X140773100Y-62878767D01*
X140773100Y-64121263D01*
X140773049Y-64128574D01*
X140773048Y-64128579D01*
X140773034Y-64130631D01*
X140758391Y-64261178D01*
X140718670Y-64386395D01*
X140655384Y-64501512D01*
X140570943Y-64602145D01*
X140468565Y-64684459D01*
X140352148Y-64745320D01*
X140226126Y-64782411D01*
X140226085Y-64782415D01*
X140226081Y-64782416D01*
X140095303Y-64794317D01*
X140095301Y-64794317D01*
X140071738Y-64791840D01*
X139964702Y-64780591D01*
X139964697Y-64780590D01*
X139964654Y-64780585D01*
X139839163Y-64741739D01*
X139723607Y-64679258D01*
X139622388Y-64595522D01*
X139539361Y-64493721D01*
X139477688Y-64377731D01*
X139439719Y-64251972D01*
X139426900Y-64121233D01*
X139426900Y-62878737D01*
X139426951Y-62871426D01*
X139426952Y-62871421D01*
X139426966Y-62869369D01*
X139441609Y-62738822D01*
X139481330Y-62613605D01*
X139544616Y-62498488D01*
X139629057Y-62397855D01*
X139731435Y-62315541D01*
X139847852Y-62254680D01*
X139973874Y-62217589D01*
X139973915Y-62217585D01*
X139973919Y-62217584D01*
X140104698Y-62205683D01*
X140104699Y-62205683D01*
X140128262Y-62208160D01*
X140128262Y-62208160D01*
G37*
G36*
X157908262Y-62208160D02*
X158015298Y-62219409D01*
X158015303Y-62219410D01*
X158015346Y-62219415D01*
X158140837Y-62258261D01*
X158256393Y-62320742D01*
X158357612Y-62404478D01*
X158440639Y-62506279D01*
X158502312Y-62622269D01*
X158540281Y-62748028D01*
X158553100Y-62878767D01*
X158553100Y-64121263D01*
X158553049Y-64128574D01*
X158553048Y-64128579D01*
X158553034Y-64130631D01*
X158538391Y-64261178D01*
X158498670Y-64386395D01*
X158435384Y-64501512D01*
X158350943Y-64602145D01*
X158248565Y-64684459D01*
X158132148Y-64745320D01*
X158006126Y-64782411D01*
X158006085Y-64782415D01*
X158006081Y-64782416D01*
X157875303Y-64794317D01*
X157875301Y-64794317D01*
X157851738Y-64791840D01*
X157744702Y-64780591D01*
X157744697Y-64780590D01*
X157744654Y-64780585D01*
X157619163Y-64741739D01*
X157503607Y-64679258D01*
X157402388Y-64595522D01*
X157319361Y-64493721D01*
X157257688Y-64377731D01*
X157219719Y-64251972D01*
X157206900Y-64121233D01*
X157206900Y-62878737D01*
X157206951Y-62871426D01*
X157206952Y-62871421D01*
X157206966Y-62869369D01*
X157221609Y-62738822D01*
X157261330Y-62613605D01*
X157324616Y-62498488D01*
X157409057Y-62397855D01*
X157511435Y-62315541D01*
X157627852Y-62254680D01*
X157753874Y-62217589D01*
X157753915Y-62217585D01*
X157753919Y-62217584D01*
X157884698Y-62205683D01*
X157884699Y-62205683D01*
X157908262Y-62208160D01*
X157908262Y-62208160D01*
G37*
G36*
X160448262Y-62208160D02*
X160555298Y-62219409D01*
X160555303Y-62219410D01*
X160555346Y-62219415D01*
X160680837Y-62258261D01*
X160796393Y-62320742D01*
X160897612Y-62404478D01*
X160980639Y-62506279D01*
X161042312Y-62622269D01*
X161080281Y-62748028D01*
X161093100Y-62878767D01*
X161093100Y-64121263D01*
X161093049Y-64128574D01*
X161093048Y-64128579D01*
X161093034Y-64130631D01*
X161078391Y-64261178D01*
X161038670Y-64386395D01*
X160975384Y-64501512D01*
X160890943Y-64602145D01*
X160788565Y-64684459D01*
X160672148Y-64745320D01*
X160546126Y-64782411D01*
X160546085Y-64782415D01*
X160546081Y-64782416D01*
X160415303Y-64794317D01*
X160415301Y-64794317D01*
X160391738Y-64791840D01*
X160284702Y-64780591D01*
X160284697Y-64780590D01*
X160284654Y-64780585D01*
X160159163Y-64741739D01*
X160043607Y-64679258D01*
X159942388Y-64595522D01*
X159859361Y-64493721D01*
X159797688Y-64377731D01*
X159759719Y-64251972D01*
X159746900Y-64121233D01*
X159746900Y-62878737D01*
X159746951Y-62871426D01*
X159746952Y-62871421D01*
X159746966Y-62869369D01*
X159761609Y-62738822D01*
X159801330Y-62613605D01*
X159864616Y-62498488D01*
X159949057Y-62397855D01*
X160051435Y-62315541D01*
X160167852Y-62254680D01*
X160293874Y-62217589D01*
X160293915Y-62217585D01*
X160293919Y-62217584D01*
X160424698Y-62205683D01*
X160424699Y-62205683D01*
X160448262Y-62208160D01*
X160448262Y-62208160D01*
G37*
G36*
X165528262Y-62208160D02*
X165635298Y-62219409D01*
X165635303Y-62219410D01*
X165635346Y-62219415D01*
X165760837Y-62258261D01*
X165876393Y-62320742D01*
X165977612Y-62404478D01*
X166060639Y-62506279D01*
X166122312Y-62622269D01*
X166160281Y-62748028D01*
X166173100Y-62878767D01*
X166173100Y-64121263D01*
X166173049Y-64128574D01*
X166173048Y-64128579D01*
X166173034Y-64130631D01*
X166158391Y-64261178D01*
X166118670Y-64386395D01*
X166055384Y-64501512D01*
X165970943Y-64602145D01*
X165868565Y-64684459D01*
X165752148Y-64745320D01*
X165626126Y-64782411D01*
X165626085Y-64782415D01*
X165626081Y-64782416D01*
X165495303Y-64794317D01*
X165495301Y-64794317D01*
X165471738Y-64791840D01*
X165364702Y-64780591D01*
X165364697Y-64780590D01*
X165364654Y-64780585D01*
X165239163Y-64741739D01*
X165123607Y-64679258D01*
X165022388Y-64595522D01*
X164939361Y-64493721D01*
X164877688Y-64377731D01*
X164839719Y-64251972D01*
X164826900Y-64121233D01*
X164826900Y-62878737D01*
X164826951Y-62871426D01*
X164826952Y-62871421D01*
X164826966Y-62869369D01*
X164841609Y-62738822D01*
X164881330Y-62613605D01*
X164944616Y-62498488D01*
X165029057Y-62397855D01*
X165131435Y-62315541D01*
X165247852Y-62254680D01*
X165373874Y-62217589D01*
X165373915Y-62217585D01*
X165373919Y-62217584D01*
X165504698Y-62205683D01*
X165504699Y-62205683D01*
X165528262Y-62208160D01*
X165528262Y-62208160D01*
G37*
G36*
X162988262Y-62208160D02*
X163095298Y-62219409D01*
X163095303Y-62219410D01*
X163095346Y-62219415D01*
X163220837Y-62258261D01*
X163336393Y-62320742D01*
X163437612Y-62404478D01*
X163520639Y-62506279D01*
X163582312Y-62622269D01*
X163620281Y-62748028D01*
X163633100Y-62878767D01*
X163633100Y-64121263D01*
X163633049Y-64128574D01*
X163633048Y-64128579D01*
X163633034Y-64130631D01*
X163618391Y-64261178D01*
X163578670Y-64386395D01*
X163515384Y-64501512D01*
X163430943Y-64602145D01*
X163328565Y-64684459D01*
X163212148Y-64745320D01*
X163086126Y-64782411D01*
X163086085Y-64782415D01*
X163086081Y-64782416D01*
X162955303Y-64794317D01*
X162955301Y-64794317D01*
X162931738Y-64791840D01*
X162824702Y-64780591D01*
X162824697Y-64780590D01*
X162824654Y-64780585D01*
X162699163Y-64741739D01*
X162583607Y-64679258D01*
X162482388Y-64595522D01*
X162399361Y-64493721D01*
X162337688Y-64377731D01*
X162299719Y-64251972D01*
X162286900Y-64121233D01*
X162286900Y-62878737D01*
X162286951Y-62871426D01*
X162286952Y-62871421D01*
X162286966Y-62869369D01*
X162301609Y-62738822D01*
X162341330Y-62613605D01*
X162404616Y-62498488D01*
X162489057Y-62397855D01*
X162591435Y-62315541D01*
X162707852Y-62254680D01*
X162833874Y-62217589D01*
X162833915Y-62217585D01*
X162833919Y-62217584D01*
X162964698Y-62205683D01*
X162964699Y-62205683D01*
X162988262Y-62208160D01*
X162988262Y-62208160D01*
G37*
G36*
X141868262Y-57928160D02*
X141975298Y-57939409D01*
X141975303Y-57939410D01*
X141975346Y-57939415D01*
X142100837Y-57978261D01*
X142216393Y-58040742D01*
X142317612Y-58124478D01*
X142400639Y-58226279D01*
X142462312Y-58342269D01*
X142500281Y-58468028D01*
X142513100Y-58598767D01*
X142513100Y-59841263D01*
X142513049Y-59848574D01*
X142513048Y-59848579D01*
X142513034Y-59850631D01*
X142498391Y-59981178D01*
X142458670Y-60106395D01*
X142395384Y-60221512D01*
X142310943Y-60322145D01*
X142208565Y-60404459D01*
X142092148Y-60465320D01*
X141966126Y-60502411D01*
X141966085Y-60502415D01*
X141966081Y-60502416D01*
X141835303Y-60514317D01*
X141835301Y-60514317D01*
X141811738Y-60511840D01*
X141704702Y-60500591D01*
X141704697Y-60500590D01*
X141704654Y-60500585D01*
X141579163Y-60461739D01*
X141463607Y-60399258D01*
X141362388Y-60315522D01*
X141279361Y-60213721D01*
X141217688Y-60097731D01*
X141179719Y-59971972D01*
X141166900Y-59841233D01*
X141166900Y-58598737D01*
X141166951Y-58591426D01*
X141166952Y-58591421D01*
X141166966Y-58589369D01*
X141181609Y-58458822D01*
X141221330Y-58333605D01*
X141284616Y-58218488D01*
X141369057Y-58117855D01*
X141471435Y-58035541D01*
X141587852Y-57974680D01*
X141713874Y-57937589D01*
X141713915Y-57937585D01*
X141713919Y-57937584D01*
X141844698Y-57925683D01*
X141844699Y-57925683D01*
X141868262Y-57928160D01*
X141868262Y-57928160D01*
G37*
G36*
X144408262Y-57928160D02*
X144515298Y-57939409D01*
X144515303Y-57939410D01*
X144515346Y-57939415D01*
X144640837Y-57978261D01*
X144756393Y-58040742D01*
X144857612Y-58124478D01*
X144940639Y-58226279D01*
X145002312Y-58342269D01*
X145040281Y-58468028D01*
X145053100Y-58598767D01*
X145053100Y-59841263D01*
X145053049Y-59848574D01*
X145053048Y-59848579D01*
X145053034Y-59850631D01*
X145038391Y-59981178D01*
X144998670Y-60106395D01*
X144935384Y-60221512D01*
X144850943Y-60322145D01*
X144748565Y-60404459D01*
X144632148Y-60465320D01*
X144506126Y-60502411D01*
X144506085Y-60502415D01*
X144506081Y-60502416D01*
X144375303Y-60514317D01*
X144375301Y-60514317D01*
X144351738Y-60511840D01*
X144244702Y-60500591D01*
X144244697Y-60500590D01*
X144244654Y-60500585D01*
X144119163Y-60461739D01*
X144003607Y-60399258D01*
X143902388Y-60315522D01*
X143819361Y-60213721D01*
X143757688Y-60097731D01*
X143719719Y-59971972D01*
X143706900Y-59841233D01*
X143706900Y-58598737D01*
X143706951Y-58591426D01*
X143706952Y-58591421D01*
X143706966Y-58589369D01*
X143721609Y-58458822D01*
X143761330Y-58333605D01*
X143824616Y-58218488D01*
X143909057Y-58117855D01*
X144011435Y-58035541D01*
X144127852Y-57974680D01*
X144253874Y-57937589D01*
X144253915Y-57937585D01*
X144253919Y-57937584D01*
X144384698Y-57925683D01*
X144384699Y-57925683D01*
X144408262Y-57928160D01*
X144408262Y-57928160D01*
G37*
G36*
X146948262Y-57928160D02*
X147055298Y-57939409D01*
X147055303Y-57939410D01*
X147055346Y-57939415D01*
X147180837Y-57978261D01*
X147296393Y-58040742D01*
X147397612Y-58124478D01*
X147480639Y-58226279D01*
X147542312Y-58342269D01*
X147580281Y-58468028D01*
X147593100Y-58598767D01*
X147593100Y-59841263D01*
X147593049Y-59848574D01*
X147593048Y-59848579D01*
X147593034Y-59850631D01*
X147578391Y-59981178D01*
X147538670Y-60106395D01*
X147475384Y-60221512D01*
X147390943Y-60322145D01*
X147288565Y-60404459D01*
X147172148Y-60465320D01*
X147046126Y-60502411D01*
X147046085Y-60502415D01*
X147046081Y-60502416D01*
X146915303Y-60514317D01*
X146915301Y-60514317D01*
X146891738Y-60511840D01*
X146784702Y-60500591D01*
X146784697Y-60500590D01*
X146784654Y-60500585D01*
X146659163Y-60461739D01*
X146543607Y-60399258D01*
X146442388Y-60315522D01*
X146359361Y-60213721D01*
X146297688Y-60097731D01*
X146259719Y-59971972D01*
X146246900Y-59841233D01*
X146246900Y-58598737D01*
X146246951Y-58591426D01*
X146246952Y-58591421D01*
X146246966Y-58589369D01*
X146261609Y-58458822D01*
X146301330Y-58333605D01*
X146364616Y-58218488D01*
X146449057Y-58117855D01*
X146551435Y-58035541D01*
X146667852Y-57974680D01*
X146793874Y-57937589D01*
X146793915Y-57937585D01*
X146793919Y-57937584D01*
X146924698Y-57925683D01*
X146924699Y-57925683D01*
X146948262Y-57928160D01*
X146948262Y-57928160D01*
G37*
G36*
X139328262Y-57928160D02*
X139435298Y-57939409D01*
X139435303Y-57939410D01*
X139435346Y-57939415D01*
X139560837Y-57978261D01*
X139676393Y-58040742D01*
X139777612Y-58124478D01*
X139860639Y-58226279D01*
X139922312Y-58342269D01*
X139960281Y-58468028D01*
X139973100Y-58598767D01*
X139973100Y-59841263D01*
X139973049Y-59848574D01*
X139973048Y-59848579D01*
X139973034Y-59850631D01*
X139958391Y-59981178D01*
X139918670Y-60106395D01*
X139855384Y-60221512D01*
X139770943Y-60322145D01*
X139668565Y-60404459D01*
X139552148Y-60465320D01*
X139426126Y-60502411D01*
X139426085Y-60502415D01*
X139426081Y-60502416D01*
X139295303Y-60514317D01*
X139295301Y-60514317D01*
X139271738Y-60511840D01*
X139164702Y-60500591D01*
X139164697Y-60500590D01*
X139164654Y-60500585D01*
X139039163Y-60461739D01*
X138923607Y-60399258D01*
X138822388Y-60315522D01*
X138739361Y-60213721D01*
X138677688Y-60097731D01*
X138639719Y-59971972D01*
X138626900Y-59841233D01*
X138626900Y-58598737D01*
X138626951Y-58591426D01*
X138626952Y-58591421D01*
X138626966Y-58589369D01*
X138641609Y-58458822D01*
X138681330Y-58333605D01*
X138744616Y-58218488D01*
X138829057Y-58117855D01*
X138931435Y-58035541D01*
X139047852Y-57974680D01*
X139173874Y-57937589D01*
X139173915Y-57937585D01*
X139173919Y-57937584D01*
X139304698Y-57925683D01*
X139304699Y-57925683D01*
X139328262Y-57928160D01*
X139328262Y-57928160D01*
G37*
G36*
X162188262Y-57928160D02*
X162295298Y-57939409D01*
X162295303Y-57939410D01*
X162295346Y-57939415D01*
X162420837Y-57978261D01*
X162536393Y-58040742D01*
X162637612Y-58124478D01*
X162720639Y-58226279D01*
X162782312Y-58342269D01*
X162820281Y-58468028D01*
X162833100Y-58598767D01*
X162833100Y-59841263D01*
X162833049Y-59848574D01*
X162833048Y-59848579D01*
X162833034Y-59850631D01*
X162818391Y-59981178D01*
X162778670Y-60106395D01*
X162715384Y-60221512D01*
X162630943Y-60322145D01*
X162528565Y-60404459D01*
X162412148Y-60465320D01*
X162286126Y-60502411D01*
X162286085Y-60502415D01*
X162286081Y-60502416D01*
X162155303Y-60514317D01*
X162155301Y-60514317D01*
X162131738Y-60511840D01*
X162024702Y-60500591D01*
X162024697Y-60500590D01*
X162024654Y-60500585D01*
X161899163Y-60461739D01*
X161783607Y-60399258D01*
X161682388Y-60315522D01*
X161599361Y-60213721D01*
X161537688Y-60097731D01*
X161499719Y-59971972D01*
X161486900Y-59841233D01*
X161486900Y-58598737D01*
X161486951Y-58591426D01*
X161486952Y-58591421D01*
X161486966Y-58589369D01*
X161501609Y-58458822D01*
X161541330Y-58333605D01*
X161604616Y-58218488D01*
X161689057Y-58117855D01*
X161791435Y-58035541D01*
X161907852Y-57974680D01*
X162033874Y-57937589D01*
X162033915Y-57937585D01*
X162033919Y-57937584D01*
X162164698Y-57925683D01*
X162164699Y-57925683D01*
X162188262Y-57928160D01*
X162188262Y-57928160D01*
G37*
G36*
X159648262Y-57928160D02*
X159755298Y-57939409D01*
X159755303Y-57939410D01*
X159755346Y-57939415D01*
X159880837Y-57978261D01*
X159996393Y-58040742D01*
X160097612Y-58124478D01*
X160180639Y-58226279D01*
X160242312Y-58342269D01*
X160280281Y-58468028D01*
X160293100Y-58598767D01*
X160293100Y-59841263D01*
X160293049Y-59848574D01*
X160293048Y-59848579D01*
X160293034Y-59850631D01*
X160278391Y-59981178D01*
X160238670Y-60106395D01*
X160175384Y-60221512D01*
X160090943Y-60322145D01*
X159988565Y-60404459D01*
X159872148Y-60465320D01*
X159746126Y-60502411D01*
X159746085Y-60502415D01*
X159746081Y-60502416D01*
X159615303Y-60514317D01*
X159615301Y-60514317D01*
X159591738Y-60511840D01*
X159484702Y-60500591D01*
X159484697Y-60500590D01*
X159484654Y-60500585D01*
X159359163Y-60461739D01*
X159243607Y-60399258D01*
X159142388Y-60315522D01*
X159059361Y-60213721D01*
X158997688Y-60097731D01*
X158959719Y-59971972D01*
X158946900Y-59841233D01*
X158946900Y-58598737D01*
X158946951Y-58591426D01*
X158946952Y-58591421D01*
X158946966Y-58589369D01*
X158961609Y-58458822D01*
X159001330Y-58333605D01*
X159064616Y-58218488D01*
X159149057Y-58117855D01*
X159251435Y-58035541D01*
X159367852Y-57974680D01*
X159493874Y-57937589D01*
X159493915Y-57937585D01*
X159493919Y-57937584D01*
X159624698Y-57925683D01*
X159624699Y-57925683D01*
X159648262Y-57928160D01*
X159648262Y-57928160D01*
G37*
G36*
X154568262Y-57928160D02*
X154675298Y-57939409D01*
X154675303Y-57939410D01*
X154675346Y-57939415D01*
X154800837Y-57978261D01*
X154916393Y-58040742D01*
X155017612Y-58124478D01*
X155100639Y-58226279D01*
X155162312Y-58342269D01*
X155200281Y-58468028D01*
X155213100Y-58598767D01*
X155213100Y-59841263D01*
X155213049Y-59848574D01*
X155213048Y-59848579D01*
X155213034Y-59850631D01*
X155198391Y-59981178D01*
X155158670Y-60106395D01*
X155095384Y-60221512D01*
X155010943Y-60322145D01*
X154908565Y-60404459D01*
X154792148Y-60465320D01*
X154666126Y-60502411D01*
X154666085Y-60502415D01*
X154666081Y-60502416D01*
X154535303Y-60514317D01*
X154535301Y-60514317D01*
X154511738Y-60511840D01*
X154404702Y-60500591D01*
X154404697Y-60500590D01*
X154404654Y-60500585D01*
X154279163Y-60461739D01*
X154163607Y-60399258D01*
X154062388Y-60315522D01*
X153979361Y-60213721D01*
X153917688Y-60097731D01*
X153879719Y-59971972D01*
X153866900Y-59841233D01*
X153866900Y-58598737D01*
X153866951Y-58591426D01*
X153866952Y-58591421D01*
X153866966Y-58589369D01*
X153881609Y-58458822D01*
X153921330Y-58333605D01*
X153984616Y-58218488D01*
X154069057Y-58117855D01*
X154171435Y-58035541D01*
X154287852Y-57974680D01*
X154413874Y-57937589D01*
X154413915Y-57937585D01*
X154413919Y-57937584D01*
X154544698Y-57925683D01*
X154544699Y-57925683D01*
X154568262Y-57928160D01*
X154568262Y-57928160D01*
G37*
G36*
X152028262Y-57928160D02*
X152135298Y-57939409D01*
X152135303Y-57939410D01*
X152135346Y-57939415D01*
X152260837Y-57978261D01*
X152376393Y-58040742D01*
X152477612Y-58124478D01*
X152560639Y-58226279D01*
X152622312Y-58342269D01*
X152660281Y-58468028D01*
X152673100Y-58598767D01*
X152673100Y-59841263D01*
X152673049Y-59848574D01*
X152673048Y-59848579D01*
X152673034Y-59850631D01*
X152658391Y-59981178D01*
X152618670Y-60106395D01*
X152555384Y-60221512D01*
X152470943Y-60322145D01*
X152368565Y-60404459D01*
X152252148Y-60465320D01*
X152126126Y-60502411D01*
X152126085Y-60502415D01*
X152126081Y-60502416D01*
X151995303Y-60514317D01*
X151995301Y-60514317D01*
X151971738Y-60511840D01*
X151864702Y-60500591D01*
X151864697Y-60500590D01*
X151864654Y-60500585D01*
X151739163Y-60461739D01*
X151623607Y-60399258D01*
X151522388Y-60315522D01*
X151439361Y-60213721D01*
X151377688Y-60097731D01*
X151339719Y-59971972D01*
X151326900Y-59841233D01*
X151326900Y-58598737D01*
X151326951Y-58591426D01*
X151326952Y-58591421D01*
X151326966Y-58589369D01*
X151341609Y-58458822D01*
X151381330Y-58333605D01*
X151444616Y-58218488D01*
X151529057Y-58117855D01*
X151631435Y-58035541D01*
X151747852Y-57974680D01*
X151873874Y-57937589D01*
X151873915Y-57937585D01*
X151873919Y-57937584D01*
X152004698Y-57925683D01*
X152004699Y-57925683D01*
X152028262Y-57928160D01*
X152028262Y-57928160D01*
G37*
G36*
X149488262Y-57928160D02*
X149595298Y-57939409D01*
X149595303Y-57939410D01*
X149595346Y-57939415D01*
X149720837Y-57978261D01*
X149836393Y-58040742D01*
X149937612Y-58124478D01*
X150020639Y-58226279D01*
X150082312Y-58342269D01*
X150120281Y-58468028D01*
X150133100Y-58598767D01*
X150133100Y-59841263D01*
X150133049Y-59848574D01*
X150133048Y-59848579D01*
X150133034Y-59850631D01*
X150118391Y-59981178D01*
X150078670Y-60106395D01*
X150015384Y-60221512D01*
X149930943Y-60322145D01*
X149828565Y-60404459D01*
X149712148Y-60465320D01*
X149586126Y-60502411D01*
X149586085Y-60502415D01*
X149586081Y-60502416D01*
X149455303Y-60514317D01*
X149455301Y-60514317D01*
X149431738Y-60511840D01*
X149324702Y-60500591D01*
X149324697Y-60500590D01*
X149324654Y-60500585D01*
X149199163Y-60461739D01*
X149083607Y-60399258D01*
X148982388Y-60315522D01*
X148899361Y-60213721D01*
X148837688Y-60097731D01*
X148799719Y-59971972D01*
X148786900Y-59841233D01*
X148786900Y-58598737D01*
X148786951Y-58591426D01*
X148786952Y-58591421D01*
X148786966Y-58589369D01*
X148801609Y-58458822D01*
X148841330Y-58333605D01*
X148904616Y-58218488D01*
X148989057Y-58117855D01*
X149091435Y-58035541D01*
X149207852Y-57974680D01*
X149333874Y-57937589D01*
X149333915Y-57937585D01*
X149333919Y-57937584D01*
X149464698Y-57925683D01*
X149464699Y-57925683D01*
X149488262Y-57928160D01*
X149488262Y-57928160D01*
G37*
G36*
X157108262Y-57928160D02*
X157215298Y-57939409D01*
X157215303Y-57939410D01*
X157215346Y-57939415D01*
X157340837Y-57978261D01*
X157456393Y-58040742D01*
X157557612Y-58124478D01*
X157640639Y-58226279D01*
X157702312Y-58342269D01*
X157740281Y-58468028D01*
X157753100Y-58598767D01*
X157753100Y-59841263D01*
X157753049Y-59848574D01*
X157753048Y-59848579D01*
X157753034Y-59850631D01*
X157738391Y-59981178D01*
X157698670Y-60106395D01*
X157635384Y-60221512D01*
X157550943Y-60322145D01*
X157448565Y-60404459D01*
X157332148Y-60465320D01*
X157206126Y-60502411D01*
X157206085Y-60502415D01*
X157206081Y-60502416D01*
X157075303Y-60514317D01*
X157075301Y-60514317D01*
X157051738Y-60511840D01*
X156944702Y-60500591D01*
X156944697Y-60500590D01*
X156944654Y-60500585D01*
X156819163Y-60461739D01*
X156703607Y-60399258D01*
X156602388Y-60315522D01*
X156519361Y-60213721D01*
X156457688Y-60097731D01*
X156419719Y-59971972D01*
X156406900Y-59841233D01*
X156406900Y-58598737D01*
X156406951Y-58591426D01*
X156406952Y-58591421D01*
X156406966Y-58589369D01*
X156421609Y-58458822D01*
X156461330Y-58333605D01*
X156524616Y-58218488D01*
X156609057Y-58117855D01*
X156711435Y-58035541D01*
X156827852Y-57974680D01*
X156953874Y-57937589D01*
X156953915Y-57937585D01*
X156953919Y-57937584D01*
X157084698Y-57925683D01*
X157084699Y-57925683D01*
X157108262Y-57928160D01*
X157108262Y-57928160D01*
G37*
G36*
X153768262Y-53648160D02*
X153875298Y-53659409D01*
X153875303Y-53659410D01*
X153875346Y-53659415D01*
X154000837Y-53698261D01*
X154116393Y-53760742D01*
X154217612Y-53844478D01*
X154300639Y-53946279D01*
X154362312Y-54062269D01*
X154400281Y-54188028D01*
X154413100Y-54318767D01*
X154413100Y-55561263D01*
X154413049Y-55568574D01*
X154413048Y-55568579D01*
X154413034Y-55570631D01*
X154398391Y-55701178D01*
X154358670Y-55826395D01*
X154295384Y-55941512D01*
X154210943Y-56042145D01*
X154108565Y-56124459D01*
X153992148Y-56185320D01*
X153866126Y-56222411D01*
X153866085Y-56222415D01*
X153866081Y-56222416D01*
X153735303Y-56234317D01*
X153735301Y-56234317D01*
X153711738Y-56231840D01*
X153604702Y-56220591D01*
X153604697Y-56220590D01*
X153604654Y-56220585D01*
X153479163Y-56181739D01*
X153363607Y-56119258D01*
X153262388Y-56035522D01*
X153179361Y-55933721D01*
X153117688Y-55817731D01*
X153079719Y-55691972D01*
X153066900Y-55561233D01*
X153066900Y-54318737D01*
X153066951Y-54311426D01*
X153066952Y-54311421D01*
X153066966Y-54309369D01*
X153081609Y-54178822D01*
X153121330Y-54053605D01*
X153184616Y-53938488D01*
X153269057Y-53837855D01*
X153371435Y-53755541D01*
X153487852Y-53694680D01*
X153613874Y-53657589D01*
X153613915Y-53657585D01*
X153613919Y-53657584D01*
X153744698Y-53645683D01*
X153744699Y-53645683D01*
X153768262Y-53648160D01*
X153768262Y-53648160D01*
G37*
G36*
X161388262Y-53648160D02*
X161495298Y-53659409D01*
X161495303Y-53659410D01*
X161495346Y-53659415D01*
X161620837Y-53698261D01*
X161736393Y-53760742D01*
X161837612Y-53844478D01*
X161920639Y-53946279D01*
X161982312Y-54062269D01*
X162020281Y-54188028D01*
X162033100Y-54318767D01*
X162033100Y-55561263D01*
X162033049Y-55568574D01*
X162033048Y-55568579D01*
X162033034Y-55570631D01*
X162018391Y-55701178D01*
X161978670Y-55826395D01*
X161915384Y-55941512D01*
X161830943Y-56042145D01*
X161728565Y-56124459D01*
X161612148Y-56185320D01*
X161486126Y-56222411D01*
X161486085Y-56222415D01*
X161486081Y-56222416D01*
X161355303Y-56234317D01*
X161355301Y-56234317D01*
X161331738Y-56231840D01*
X161224702Y-56220591D01*
X161224697Y-56220590D01*
X161224654Y-56220585D01*
X161099163Y-56181739D01*
X160983607Y-56119258D01*
X160882388Y-56035522D01*
X160799361Y-55933721D01*
X160737688Y-55817731D01*
X160699719Y-55691972D01*
X160686900Y-55561233D01*
X160686900Y-54318737D01*
X160686951Y-54311426D01*
X160686952Y-54311421D01*
X160686966Y-54309369D01*
X160701609Y-54178822D01*
X160741330Y-54053605D01*
X160804616Y-53938488D01*
X160889057Y-53837855D01*
X160991435Y-53755541D01*
X161107852Y-53694680D01*
X161233874Y-53657589D01*
X161233915Y-53657585D01*
X161233919Y-53657584D01*
X161364698Y-53645683D01*
X161364699Y-53645683D01*
X161388262Y-53648160D01*
X161388262Y-53648160D01*
G37*
G36*
X156308262Y-53648160D02*
X156415298Y-53659409D01*
X156415303Y-53659410D01*
X156415346Y-53659415D01*
X156540837Y-53698261D01*
X156656393Y-53760742D01*
X156757612Y-53844478D01*
X156840639Y-53946279D01*
X156902312Y-54062269D01*
X156940281Y-54188028D01*
X156953100Y-54318767D01*
X156953100Y-55561263D01*
X156953049Y-55568574D01*
X156953048Y-55568579D01*
X156953034Y-55570631D01*
X156938391Y-55701178D01*
X156898670Y-55826395D01*
X156835384Y-55941512D01*
X156750943Y-56042145D01*
X156648565Y-56124459D01*
X156532148Y-56185320D01*
X156406126Y-56222411D01*
X156406085Y-56222415D01*
X156406081Y-56222416D01*
X156275303Y-56234317D01*
X156275301Y-56234317D01*
X156251738Y-56231840D01*
X156144702Y-56220591D01*
X156144697Y-56220590D01*
X156144654Y-56220585D01*
X156019163Y-56181739D01*
X155903607Y-56119258D01*
X155802388Y-56035522D01*
X155719361Y-55933721D01*
X155657688Y-55817731D01*
X155619719Y-55691972D01*
X155606900Y-55561233D01*
X155606900Y-54318737D01*
X155606951Y-54311426D01*
X155606952Y-54311421D01*
X155606966Y-54309369D01*
X155621609Y-54178822D01*
X155661330Y-54053605D01*
X155724616Y-53938488D01*
X155809057Y-53837855D01*
X155911435Y-53755541D01*
X156027852Y-53694680D01*
X156153874Y-53657589D01*
X156153915Y-53657585D01*
X156153919Y-53657584D01*
X156284698Y-53645683D01*
X156284699Y-53645683D01*
X156308262Y-53648160D01*
X156308262Y-53648160D01*
G37*
G36*
X146148262Y-53648160D02*
X146255298Y-53659409D01*
X146255303Y-53659410D01*
X146255346Y-53659415D01*
X146380837Y-53698261D01*
X146496393Y-53760742D01*
X146597612Y-53844478D01*
X146680639Y-53946279D01*
X146742312Y-54062269D01*
X146780281Y-54188028D01*
X146793100Y-54318767D01*
X146793100Y-55561263D01*
X146793049Y-55568574D01*
X146793048Y-55568579D01*
X146793034Y-55570631D01*
X146778391Y-55701178D01*
X146738670Y-55826395D01*
X146675384Y-55941512D01*
X146590943Y-56042145D01*
X146488565Y-56124459D01*
X146372148Y-56185320D01*
X146246126Y-56222411D01*
X146246085Y-56222415D01*
X146246081Y-56222416D01*
X146115303Y-56234317D01*
X146115301Y-56234317D01*
X146091738Y-56231840D01*
X145984702Y-56220591D01*
X145984697Y-56220590D01*
X145984654Y-56220585D01*
X145859163Y-56181739D01*
X145743607Y-56119258D01*
X145642388Y-56035522D01*
X145559361Y-55933721D01*
X145497688Y-55817731D01*
X145459719Y-55691972D01*
X145446900Y-55561233D01*
X145446900Y-54318737D01*
X145446951Y-54311426D01*
X145446952Y-54311421D01*
X145446966Y-54309369D01*
X145461609Y-54178822D01*
X145501330Y-54053605D01*
X145564616Y-53938488D01*
X145649057Y-53837855D01*
X145751435Y-53755541D01*
X145867852Y-53694680D01*
X145993874Y-53657589D01*
X145993915Y-53657585D01*
X145993919Y-53657584D01*
X146124698Y-53645683D01*
X146124699Y-53645683D01*
X146148262Y-53648160D01*
X146148262Y-53648160D01*
G37*
G36*
X143608262Y-53648160D02*
X143715298Y-53659409D01*
X143715303Y-53659410D01*
X143715346Y-53659415D01*
X143840837Y-53698261D01*
X143956393Y-53760742D01*
X144057612Y-53844478D01*
X144140639Y-53946279D01*
X144202312Y-54062269D01*
X144240281Y-54188028D01*
X144253100Y-54318767D01*
X144253100Y-55561263D01*
X144253049Y-55568574D01*
X144253048Y-55568579D01*
X144253034Y-55570631D01*
X144238391Y-55701178D01*
X144198670Y-55826395D01*
X144135384Y-55941512D01*
X144050943Y-56042145D01*
X143948565Y-56124459D01*
X143832148Y-56185320D01*
X143706126Y-56222411D01*
X143706085Y-56222415D01*
X143706081Y-56222416D01*
X143575303Y-56234317D01*
X143575301Y-56234317D01*
X143551738Y-56231840D01*
X143444702Y-56220591D01*
X143444697Y-56220590D01*
X143444654Y-56220585D01*
X143319163Y-56181739D01*
X143203607Y-56119258D01*
X143102388Y-56035522D01*
X143019361Y-55933721D01*
X142957688Y-55817731D01*
X142919719Y-55691972D01*
X142906900Y-55561233D01*
X142906900Y-54318737D01*
X142906951Y-54311426D01*
X142906952Y-54311421D01*
X142906966Y-54309369D01*
X142921609Y-54178822D01*
X142961330Y-54053605D01*
X143024616Y-53938488D01*
X143109057Y-53837855D01*
X143211435Y-53755541D01*
X143327852Y-53694680D01*
X143453874Y-53657589D01*
X143453915Y-53657585D01*
X143453919Y-53657584D01*
X143584698Y-53645683D01*
X143584699Y-53645683D01*
X143608262Y-53648160D01*
X143608262Y-53648160D01*
G37*
G36*
X141068262Y-53648160D02*
X141175298Y-53659409D01*
X141175303Y-53659410D01*
X141175346Y-53659415D01*
X141300837Y-53698261D01*
X141416393Y-53760742D01*
X141517612Y-53844478D01*
X141600639Y-53946279D01*
X141662312Y-54062269D01*
X141700281Y-54188028D01*
X141713100Y-54318767D01*
X141713100Y-55561263D01*
X141713049Y-55568574D01*
X141713048Y-55568579D01*
X141713034Y-55570631D01*
X141698391Y-55701178D01*
X141658670Y-55826395D01*
X141595384Y-55941512D01*
X141510943Y-56042145D01*
X141408565Y-56124459D01*
X141292148Y-56185320D01*
X141166126Y-56222411D01*
X141166085Y-56222415D01*
X141166081Y-56222416D01*
X141035303Y-56234317D01*
X141035301Y-56234317D01*
X141011738Y-56231840D01*
X140904702Y-56220591D01*
X140904697Y-56220590D01*
X140904654Y-56220585D01*
X140779163Y-56181739D01*
X140663607Y-56119258D01*
X140562388Y-56035522D01*
X140479361Y-55933721D01*
X140417688Y-55817731D01*
X140379719Y-55691972D01*
X140366900Y-55561233D01*
X140366900Y-54318737D01*
X140366951Y-54311426D01*
X140366952Y-54311421D01*
X140366966Y-54309369D01*
X140381609Y-54178822D01*
X140421330Y-54053605D01*
X140484616Y-53938488D01*
X140569057Y-53837855D01*
X140671435Y-53755541D01*
X140787852Y-53694680D01*
X140913874Y-53657589D01*
X140913915Y-53657585D01*
X140913919Y-53657584D01*
X141044698Y-53645683D01*
X141044699Y-53645683D01*
X141068262Y-53648160D01*
X141068262Y-53648160D01*
G37*
G36*
X138528262Y-53648160D02*
X138635298Y-53659409D01*
X138635303Y-53659410D01*
X138635346Y-53659415D01*
X138760837Y-53698261D01*
X138876393Y-53760742D01*
X138977612Y-53844478D01*
X139060639Y-53946279D01*
X139122312Y-54062269D01*
X139160281Y-54188028D01*
X139173100Y-54318767D01*
X139173100Y-55561263D01*
X139173049Y-55568574D01*
X139173048Y-55568579D01*
X139173034Y-55570631D01*
X139158391Y-55701178D01*
X139118670Y-55826395D01*
X139055384Y-55941512D01*
X138970943Y-56042145D01*
X138868565Y-56124459D01*
X138752148Y-56185320D01*
X138626126Y-56222411D01*
X138626085Y-56222415D01*
X138626081Y-56222416D01*
X138495303Y-56234317D01*
X138495301Y-56234317D01*
X138471738Y-56231840D01*
X138364702Y-56220591D01*
X138364697Y-56220590D01*
X138364654Y-56220585D01*
X138239163Y-56181739D01*
X138123607Y-56119258D01*
X138022388Y-56035522D01*
X137939361Y-55933721D01*
X137877688Y-55817731D01*
X137839719Y-55691972D01*
X137826900Y-55561233D01*
X137826900Y-54318737D01*
X137826951Y-54311426D01*
X137826952Y-54311421D01*
X137826966Y-54309369D01*
X137841609Y-54178822D01*
X137881330Y-54053605D01*
X137944616Y-53938488D01*
X138029057Y-53837855D01*
X138131435Y-53755541D01*
X138247852Y-53694680D01*
X138373874Y-53657589D01*
X138373915Y-53657585D01*
X138373919Y-53657584D01*
X138504698Y-53645683D01*
X138504699Y-53645683D01*
X138528262Y-53648160D01*
X138528262Y-53648160D01*
G37*
G36*
X151228262Y-53648160D02*
X151335298Y-53659409D01*
X151335303Y-53659410D01*
X151335346Y-53659415D01*
X151460837Y-53698261D01*
X151576393Y-53760742D01*
X151677612Y-53844478D01*
X151760639Y-53946279D01*
X151822312Y-54062269D01*
X151860281Y-54188028D01*
X151873100Y-54318767D01*
X151873100Y-55561263D01*
X151873049Y-55568574D01*
X151873048Y-55568579D01*
X151873034Y-55570631D01*
X151858391Y-55701178D01*
X151818670Y-55826395D01*
X151755384Y-55941512D01*
X151670943Y-56042145D01*
X151568565Y-56124459D01*
X151452148Y-56185320D01*
X151326126Y-56222411D01*
X151326085Y-56222415D01*
X151326081Y-56222416D01*
X151195303Y-56234317D01*
X151195301Y-56234317D01*
X151171738Y-56231840D01*
X151064702Y-56220591D01*
X151064697Y-56220590D01*
X151064654Y-56220585D01*
X150939163Y-56181739D01*
X150823607Y-56119258D01*
X150722388Y-56035522D01*
X150639361Y-55933721D01*
X150577688Y-55817731D01*
X150539719Y-55691972D01*
X150526900Y-55561233D01*
X150526900Y-54318737D01*
X150526951Y-54311426D01*
X150526952Y-54311421D01*
X150526966Y-54309369D01*
X150541609Y-54178822D01*
X150581330Y-54053605D01*
X150644616Y-53938488D01*
X150729057Y-53837855D01*
X150831435Y-53755541D01*
X150947852Y-53694680D01*
X151073874Y-53657589D01*
X151073915Y-53657585D01*
X151073919Y-53657584D01*
X151204698Y-53645683D01*
X151204699Y-53645683D01*
X151228262Y-53648160D01*
X151228262Y-53648160D01*
G37*
G36*
X148688262Y-53648160D02*
X148795298Y-53659409D01*
X148795303Y-53659410D01*
X148795346Y-53659415D01*
X148920837Y-53698261D01*
X149036393Y-53760742D01*
X149137612Y-53844478D01*
X149220639Y-53946279D01*
X149282312Y-54062269D01*
X149320281Y-54188028D01*
X149333100Y-54318767D01*
X149333100Y-55561263D01*
X149333049Y-55568574D01*
X149333048Y-55568579D01*
X149333034Y-55570631D01*
X149318391Y-55701178D01*
X149278670Y-55826395D01*
X149215384Y-55941512D01*
X149130943Y-56042145D01*
X149028565Y-56124459D01*
X148912148Y-56185320D01*
X148786126Y-56222411D01*
X148786085Y-56222415D01*
X148786081Y-56222416D01*
X148655303Y-56234317D01*
X148655301Y-56234317D01*
X148631738Y-56231840D01*
X148524702Y-56220591D01*
X148524697Y-56220590D01*
X148524654Y-56220585D01*
X148399163Y-56181739D01*
X148283607Y-56119258D01*
X148182388Y-56035522D01*
X148099361Y-55933721D01*
X148037688Y-55817731D01*
X147999719Y-55691972D01*
X147986900Y-55561233D01*
X147986900Y-54318737D01*
X147986951Y-54311426D01*
X147986952Y-54311421D01*
X147986966Y-54309369D01*
X148001609Y-54178822D01*
X148041330Y-54053605D01*
X148104616Y-53938488D01*
X148189057Y-53837855D01*
X148291435Y-53755541D01*
X148407852Y-53694680D01*
X148533874Y-53657589D01*
X148533915Y-53657585D01*
X148533919Y-53657584D01*
X148664698Y-53645683D01*
X148664699Y-53645683D01*
X148688262Y-53648160D01*
X148688262Y-53648160D01*
G37*
G36*
X158848262Y-53648160D02*
X158955298Y-53659409D01*
X158955303Y-53659410D01*
X158955346Y-53659415D01*
X159080837Y-53698261D01*
X159196393Y-53760742D01*
X159297612Y-53844478D01*
X159380639Y-53946279D01*
X159442312Y-54062269D01*
X159480281Y-54188028D01*
X159493100Y-54318767D01*
X159493100Y-55561263D01*
X159493049Y-55568574D01*
X159493048Y-55568579D01*
X159493034Y-55570631D01*
X159478391Y-55701178D01*
X159438670Y-55826395D01*
X159375384Y-55941512D01*
X159290943Y-56042145D01*
X159188565Y-56124459D01*
X159072148Y-56185320D01*
X158946126Y-56222411D01*
X158946085Y-56222415D01*
X158946081Y-56222416D01*
X158815303Y-56234317D01*
X158815301Y-56234317D01*
X158791738Y-56231840D01*
X158684702Y-56220591D01*
X158684697Y-56220590D01*
X158684654Y-56220585D01*
X158559163Y-56181739D01*
X158443607Y-56119258D01*
X158342388Y-56035522D01*
X158259361Y-55933721D01*
X158197688Y-55817731D01*
X158159719Y-55691972D01*
X158146900Y-55561233D01*
X158146900Y-54318737D01*
X158146951Y-54311426D01*
X158146952Y-54311421D01*
X158146966Y-54309369D01*
X158161609Y-54178822D01*
X158201330Y-54053605D01*
X158264616Y-53938488D01*
X158349057Y-53837855D01*
X158451435Y-53755541D01*
X158567852Y-53694680D01*
X158693874Y-53657589D01*
X158693915Y-53657585D01*
X158693919Y-53657584D01*
X158824698Y-53645683D01*
X158824699Y-53645683D01*
X158848262Y-53648160D01*
X158848262Y-53648160D01*
G37*
G36*
X145361265Y-48019211D02*
X145361270Y-48019213D01*
X145361312Y-48019217D01*
X145529423Y-48071256D01*
X145684224Y-48154957D01*
X145819820Y-48267131D01*
X145931045Y-48403507D01*
X146013663Y-48558889D01*
X146064527Y-48727359D01*
X146081700Y-48902500D01*
X146081700Y-49217534D01*
X146081627Y-49228035D01*
X146081626Y-49228041D01*
X146081612Y-49230090D01*
X146061996Y-49404974D01*
X146008784Y-49572717D01*
X145924005Y-49726931D01*
X145810886Y-49861740D01*
X145673738Y-49972010D01*
X145517783Y-50053542D01*
X145348962Y-50103228D01*
X145348931Y-50103231D01*
X145348917Y-50103235D01*
X145173708Y-50119180D01*
X144998735Y-50100789D01*
X144998730Y-50100787D01*
X144998688Y-50100783D01*
X144830577Y-50048744D01*
X144675776Y-49965043D01*
X144540180Y-49852869D01*
X144428955Y-49716493D01*
X144346337Y-49561111D01*
X144295473Y-49392641D01*
X144278300Y-49217500D01*
X144278300Y-48902466D01*
X144278373Y-48891965D01*
X144278374Y-48891959D01*
X144278388Y-48889910D01*
X144298004Y-48715026D01*
X144351216Y-48547283D01*
X144435995Y-48393069D01*
X144549114Y-48258260D01*
X144686262Y-48147990D01*
X144842217Y-48066458D01*
X145011038Y-48016772D01*
X145011069Y-48016769D01*
X145011083Y-48016765D01*
X145186292Y-48000820D01*
X145361265Y-48019211D01*
X145361265Y-48019211D01*
G37*
G36*
X147901265Y-48019211D02*
X147901270Y-48019213D01*
X147901312Y-48019217D01*
X148069423Y-48071256D01*
X148224224Y-48154957D01*
X148359820Y-48267131D01*
X148471045Y-48403507D01*
X148553663Y-48558889D01*
X148604527Y-48727359D01*
X148621700Y-48902500D01*
X148621700Y-49217534D01*
X148621627Y-49228035D01*
X148621626Y-49228041D01*
X148621612Y-49230090D01*
X148601996Y-49404974D01*
X148548784Y-49572717D01*
X148464005Y-49726931D01*
X148350886Y-49861740D01*
X148213738Y-49972010D01*
X148057783Y-50053542D01*
X147888962Y-50103228D01*
X147888931Y-50103231D01*
X147888917Y-50103235D01*
X147713708Y-50119180D01*
X147538735Y-50100789D01*
X147538730Y-50100787D01*
X147538688Y-50100783D01*
X147370577Y-50048744D01*
X147215776Y-49965043D01*
X147080180Y-49852869D01*
X146968955Y-49716493D01*
X146886337Y-49561111D01*
X146835473Y-49392641D01*
X146818300Y-49217500D01*
X146818300Y-48902466D01*
X146818373Y-48891965D01*
X146818374Y-48891959D01*
X146818388Y-48889910D01*
X146838004Y-48715026D01*
X146891216Y-48547283D01*
X146975995Y-48393069D01*
X147089114Y-48258260D01*
X147226262Y-48147990D01*
X147382217Y-48066458D01*
X147551038Y-48016772D01*
X147551069Y-48016769D01*
X147551083Y-48016765D01*
X147726292Y-48000820D01*
X147901265Y-48019211D01*
X147901265Y-48019211D01*
G37*
G36*
X150441265Y-48019211D02*
X150441270Y-48019213D01*
X150441312Y-48019217D01*
X150609423Y-48071256D01*
X150764224Y-48154957D01*
X150899820Y-48267131D01*
X151011045Y-48403507D01*
X151093663Y-48558889D01*
X151144527Y-48727359D01*
X151161700Y-48902500D01*
X151161700Y-49217534D01*
X151161627Y-49228035D01*
X151161626Y-49228041D01*
X151161612Y-49230090D01*
X151141996Y-49404974D01*
X151088784Y-49572717D01*
X151004005Y-49726931D01*
X150890886Y-49861740D01*
X150753738Y-49972010D01*
X150597783Y-50053542D01*
X150428962Y-50103228D01*
X150428931Y-50103231D01*
X150428917Y-50103235D01*
X150253708Y-50119180D01*
X150078735Y-50100789D01*
X150078730Y-50100787D01*
X150078688Y-50100783D01*
X149910577Y-50048744D01*
X149755776Y-49965043D01*
X149620180Y-49852869D01*
X149508955Y-49716493D01*
X149426337Y-49561111D01*
X149375473Y-49392641D01*
X149358300Y-49217500D01*
X149358300Y-48902466D01*
X149358373Y-48891965D01*
X149358374Y-48891959D01*
X149358388Y-48889910D01*
X149378004Y-48715026D01*
X149431216Y-48547283D01*
X149515995Y-48393069D01*
X149629114Y-48258260D01*
X149766262Y-48147990D01*
X149922217Y-48066458D01*
X150091038Y-48016772D01*
X150091069Y-48016769D01*
X150091083Y-48016765D01*
X150266292Y-48000820D01*
X150441265Y-48019211D01*
X150441265Y-48019211D01*
G37*
G36*
X152981265Y-48019211D02*
X152981270Y-48019213D01*
X152981312Y-48019217D01*
X153149423Y-48071256D01*
X153304224Y-48154957D01*
X153439820Y-48267131D01*
X153551045Y-48403507D01*
X153633663Y-48558889D01*
X153684527Y-48727359D01*
X153701700Y-48902500D01*
X153701700Y-49217534D01*
X153701627Y-49228035D01*
X153701626Y-49228041D01*
X153701612Y-49230090D01*
X153681996Y-49404974D01*
X153628784Y-49572717D01*
X153544005Y-49726931D01*
X153430886Y-49861740D01*
X153293738Y-49972010D01*
X153137783Y-50053542D01*
X152968962Y-50103228D01*
X152968931Y-50103231D01*
X152968917Y-50103235D01*
X152793708Y-50119180D01*
X152618735Y-50100789D01*
X152618730Y-50100787D01*
X152618688Y-50100783D01*
X152450577Y-50048744D01*
X152295776Y-49965043D01*
X152160180Y-49852869D01*
X152048955Y-49716493D01*
X151966337Y-49561111D01*
X151915473Y-49392641D01*
X151898300Y-49217500D01*
X151898300Y-48902466D01*
X151898373Y-48891965D01*
X151898374Y-48891959D01*
X151898388Y-48889910D01*
X151918004Y-48715026D01*
X151971216Y-48547283D01*
X152055995Y-48393069D01*
X152169114Y-48258260D01*
X152306262Y-48147990D01*
X152462217Y-48066458D01*
X152631038Y-48016772D01*
X152631069Y-48016769D01*
X152631083Y-48016765D01*
X152806292Y-48000820D01*
X152981265Y-48019211D01*
X152981265Y-48019211D01*
G37*
G36*
X155521265Y-48019211D02*
X155521270Y-48019213D01*
X155521312Y-48019217D01*
X155689423Y-48071256D01*
X155844224Y-48154957D01*
X155979820Y-48267131D01*
X156091045Y-48403507D01*
X156173663Y-48558889D01*
X156224527Y-48727359D01*
X156241700Y-48902500D01*
X156241700Y-49217534D01*
X156241627Y-49228035D01*
X156241626Y-49228041D01*
X156241612Y-49230090D01*
X156221996Y-49404974D01*
X156168784Y-49572717D01*
X156084005Y-49726931D01*
X155970886Y-49861740D01*
X155833738Y-49972010D01*
X155677783Y-50053542D01*
X155508962Y-50103228D01*
X155508931Y-50103231D01*
X155508917Y-50103235D01*
X155333708Y-50119180D01*
X155158735Y-50100789D01*
X155158730Y-50100787D01*
X155158688Y-50100783D01*
X154990577Y-50048744D01*
X154835776Y-49965043D01*
X154700180Y-49852869D01*
X154588955Y-49716493D01*
X154506337Y-49561111D01*
X154455473Y-49392641D01*
X154438300Y-49217500D01*
X154438300Y-48902466D01*
X154438373Y-48891965D01*
X154438374Y-48891959D01*
X154438388Y-48889910D01*
X154458004Y-48715026D01*
X154511216Y-48547283D01*
X154595995Y-48393069D01*
X154709114Y-48258260D01*
X154846262Y-48147990D01*
X155002217Y-48066458D01*
X155171038Y-48016772D01*
X155171069Y-48016769D01*
X155171083Y-48016765D01*
X155346292Y-48000820D01*
X155521265Y-48019211D01*
X155521265Y-48019211D01*
G37*
G36*
X158061265Y-48019211D02*
X158061270Y-48019213D01*
X158061312Y-48019217D01*
X158229423Y-48071256D01*
X158384224Y-48154957D01*
X158519820Y-48267131D01*
X158631045Y-48403507D01*
X158713663Y-48558889D01*
X158764527Y-48727359D01*
X158781700Y-48902500D01*
X158781700Y-49217534D01*
X158781627Y-49228035D01*
X158781626Y-49228041D01*
X158781612Y-49230090D01*
X158761996Y-49404974D01*
X158708784Y-49572717D01*
X158624005Y-49726931D01*
X158510886Y-49861740D01*
X158373738Y-49972010D01*
X158217783Y-50053542D01*
X158048962Y-50103228D01*
X158048931Y-50103231D01*
X158048917Y-50103235D01*
X157873708Y-50119180D01*
X157698735Y-50100789D01*
X157698730Y-50100787D01*
X157698688Y-50100783D01*
X157530577Y-50048744D01*
X157375776Y-49965043D01*
X157240180Y-49852869D01*
X157128955Y-49716493D01*
X157046337Y-49561111D01*
X156995473Y-49392641D01*
X156978300Y-49217500D01*
X156978300Y-48902466D01*
X156978373Y-48891965D01*
X156978374Y-48891959D01*
X156978388Y-48889910D01*
X156998004Y-48715026D01*
X157051216Y-48547283D01*
X157135995Y-48393069D01*
X157249114Y-48258260D01*
X157386262Y-48147990D01*
X157542217Y-48066458D01*
X157711038Y-48016772D01*
X157711069Y-48016769D01*
X157711083Y-48016765D01*
X157886292Y-48000820D01*
X158061265Y-48019211D01*
X158061265Y-48019211D01*
G37*
G36*
X160601265Y-48019211D02*
X160601270Y-48019213D01*
X160601312Y-48019217D01*
X160769423Y-48071256D01*
X160924224Y-48154957D01*
X161059820Y-48267131D01*
X161171045Y-48403507D01*
X161253663Y-48558889D01*
X161304527Y-48727359D01*
X161321700Y-48902500D01*
X161321700Y-49217534D01*
X161321627Y-49228035D01*
X161321626Y-49228041D01*
X161321612Y-49230090D01*
X161301996Y-49404974D01*
X161248784Y-49572717D01*
X161164005Y-49726931D01*
X161050886Y-49861740D01*
X160913738Y-49972010D01*
X160757783Y-50053542D01*
X160588962Y-50103228D01*
X160588931Y-50103231D01*
X160588917Y-50103235D01*
X160413708Y-50119180D01*
X160238735Y-50100789D01*
X160238730Y-50100787D01*
X160238688Y-50100783D01*
X160070577Y-50048744D01*
X159915776Y-49965043D01*
X159780180Y-49852869D01*
X159668955Y-49716493D01*
X159586337Y-49561111D01*
X159535473Y-49392641D01*
X159518300Y-49217500D01*
X159518300Y-48902466D01*
X159518373Y-48891965D01*
X159518374Y-48891959D01*
X159518388Y-48889910D01*
X159538004Y-48715026D01*
X159591216Y-48547283D01*
X159675995Y-48393069D01*
X159789114Y-48258260D01*
X159926262Y-48147990D01*
X160082217Y-48066458D01*
X160251038Y-48016772D01*
X160251069Y-48016769D01*
X160251083Y-48016765D01*
X160426292Y-48000820D01*
X160601265Y-48019211D01*
X160601265Y-48019211D01*
G37*
G36*
X163141265Y-48019211D02*
X163141270Y-48019213D01*
X163141312Y-48019217D01*
X163309423Y-48071256D01*
X163464224Y-48154957D01*
X163599820Y-48267131D01*
X163711045Y-48403507D01*
X163793663Y-48558889D01*
X163844527Y-48727359D01*
X163861700Y-48902500D01*
X163861700Y-49217534D01*
X163861627Y-49228035D01*
X163861626Y-49228041D01*
X163861612Y-49230090D01*
X163841996Y-49404974D01*
X163788784Y-49572717D01*
X163704005Y-49726931D01*
X163590886Y-49861740D01*
X163453738Y-49972010D01*
X163297783Y-50053542D01*
X163128962Y-50103228D01*
X163128931Y-50103231D01*
X163128917Y-50103235D01*
X162953708Y-50119180D01*
X162778735Y-50100789D01*
X162778730Y-50100787D01*
X162778688Y-50100783D01*
X162610577Y-50048744D01*
X162455776Y-49965043D01*
X162320180Y-49852869D01*
X162208955Y-49716493D01*
X162126337Y-49561111D01*
X162075473Y-49392641D01*
X162058300Y-49217500D01*
X162058300Y-48902466D01*
X162058373Y-48891965D01*
X162058374Y-48891959D01*
X162058388Y-48889910D01*
X162078004Y-48715026D01*
X162131216Y-48547283D01*
X162215995Y-48393069D01*
X162329114Y-48258260D01*
X162466262Y-48147990D01*
X162622217Y-48066458D01*
X162791038Y-48016772D01*
X162791069Y-48016769D01*
X162791083Y-48016765D01*
X162966292Y-48000820D01*
X163141265Y-48019211D01*
X163141265Y-48019211D01*
G37*
G36*
X166401700Y-50114100D02*
X164598300Y-50114100D01*
X164598300Y-48005900D01*
X166401700Y-48005900D01*
X166401700Y-50114100D01*
X166401700Y-50114100D01*
G37*
M02*
