G04 #@! TF.FileFunction,Copper,L1,Top,Signal*
%FSLAX46Y46*%
G04 Gerber Fmt 4.6, Leading zero omitted, Abs format (unit mm)*
G04 Created by KiCad (PCBNEW 4.0.2-stable) date 02/06/2016 21:55:55*
%MOMM*%
G01*
G04 APERTURE LIST*
%ADD10C,0.100000*%
%ADD11R,0.500000X2.100000*%
%ADD12O,1.600000X2.600000*%
%ADD13O,1.600000X2.000000*%
%ADD14R,1.727200X2.032000*%
%ADD15O,1.727200X2.032000*%
%ADD16O,1.200000X2.500000*%
%ADD17C,0.889000*%
%ADD18C,0.254000*%
%ADD19C,0.762000*%
G04 APERTURE END LIST*
D10*
D11*
X162960000Y-74270000D03*
X162160000Y-74270000D03*
X161360000Y-74270000D03*
X160560000Y-74270000D03*
X159760000Y-74270000D03*
X158960000Y-74270000D03*
X158160000Y-74270000D03*
X157360000Y-74270000D03*
X156560000Y-74270000D03*
X155760000Y-74270000D03*
X154960000Y-74270000D03*
X154160000Y-74270000D03*
X153360000Y-74270000D03*
X152560000Y-74270000D03*
X151760000Y-74270000D03*
X150960000Y-74270000D03*
X150160000Y-74270000D03*
X149360000Y-74270000D03*
X148560000Y-74270000D03*
X147760000Y-74270000D03*
X146960000Y-74270000D03*
X146160000Y-74270000D03*
X145360000Y-74270000D03*
X144560000Y-74270000D03*
X143760000Y-74270000D03*
X142960000Y-74270000D03*
X142160000Y-74270000D03*
X141360000Y-74270000D03*
X140560000Y-74270000D03*
X139760000Y-74270000D03*
X162960000Y-67970000D03*
X162160000Y-67970000D03*
X161360000Y-67970000D03*
X160560000Y-67970000D03*
X159760000Y-67970000D03*
X158960000Y-67970000D03*
X158160000Y-67970000D03*
X157360000Y-67970000D03*
X156560000Y-67970000D03*
X155760000Y-67970000D03*
X154960000Y-67970000D03*
X154160000Y-67970000D03*
X153360000Y-67970000D03*
X152560000Y-67970000D03*
X151760000Y-67970000D03*
X150960000Y-67970000D03*
X150160000Y-67970000D03*
X149360000Y-67970000D03*
X148560000Y-67970000D03*
X147760000Y-67970000D03*
X146960000Y-67970000D03*
X146160000Y-67970000D03*
X145360000Y-67970000D03*
X144560000Y-67970000D03*
X143760000Y-67970000D03*
X142960000Y-67970000D03*
X142160000Y-67970000D03*
X141360000Y-67970000D03*
X140560000Y-67970000D03*
X139760000Y-67970000D03*
D12*
X164560000Y-73120000D03*
X138160000Y-69120000D03*
X168385000Y-68670000D03*
X134335000Y-68670000D03*
D13*
X168385000Y-73570000D03*
X134335000Y-73570000D03*
D14*
X165500000Y-49060000D03*
D15*
X162960000Y-49060000D03*
X160420000Y-49060000D03*
X157880000Y-49060000D03*
X155340000Y-49060000D03*
X152800000Y-49060000D03*
X150260000Y-49060000D03*
X147720000Y-49060000D03*
X145180000Y-49060000D03*
D14*
X165500000Y-92240000D03*
D15*
X162960000Y-92240000D03*
X160420000Y-92240000D03*
X157880000Y-92240000D03*
X155340000Y-92240000D03*
X152800000Y-92240000D03*
D16*
X162960000Y-79540000D03*
X162160000Y-83680000D03*
X161360000Y-87820000D03*
X135020000Y-63500000D03*
X160420000Y-79540000D03*
X159620000Y-83680000D03*
X137560000Y-63500000D03*
X158820000Y-87820000D03*
X157880000Y-79540000D03*
X157080000Y-83680000D03*
X156280000Y-87820000D03*
X155340000Y-79540000D03*
X154540000Y-83680000D03*
X153740000Y-87820000D03*
X165500000Y-79540000D03*
X152800000Y-79540000D03*
X152000000Y-83680000D03*
X151200000Y-87820000D03*
X150260000Y-79540000D03*
X149460000Y-83680000D03*
X148660000Y-87820000D03*
X147720000Y-79540000D03*
X146920000Y-83680000D03*
X146120000Y-87820000D03*
X145180000Y-79540000D03*
X144380000Y-83680000D03*
X143580000Y-87820000D03*
X142640000Y-79540000D03*
X141840000Y-83680000D03*
X141040000Y-87820000D03*
X140100000Y-79540000D03*
X139300000Y-83680000D03*
X138500000Y-87820000D03*
X162960000Y-63500000D03*
X162160000Y-59220000D03*
X161360000Y-54940000D03*
X160420000Y-63500000D03*
X159620000Y-59220000D03*
X158820000Y-54940000D03*
X157880000Y-63500000D03*
X157080000Y-59220000D03*
X156280000Y-54940000D03*
X155340000Y-63500000D03*
X154540000Y-59220000D03*
X153740000Y-54940000D03*
X152800000Y-63500000D03*
X152000000Y-59220000D03*
X151200000Y-54940000D03*
X150260000Y-63500000D03*
X149460000Y-59220000D03*
X148660000Y-54940000D03*
X147720000Y-63500000D03*
X146920000Y-59220000D03*
X146120000Y-54940000D03*
X145180000Y-63500000D03*
X144380000Y-59220000D03*
X143580000Y-54940000D03*
X142640000Y-63500000D03*
X141840000Y-59220000D03*
X141040000Y-54940000D03*
X140100000Y-63500000D03*
X139300000Y-59220000D03*
X138500000Y-54940000D03*
X165500000Y-63500000D03*
D17*
X149350000Y-71880000D03*
X147010000Y-71700000D03*
X157990000Y-70360000D03*
X161280000Y-70490000D03*
X159950000Y-70870000D03*
X141880000Y-47350000D03*
D18*
X159590000Y-90240000D02*
X157187600Y-90240000D01*
X157187600Y-90240000D02*
X155340000Y-92087600D01*
X155340000Y-92087600D02*
X155340000Y-92240000D01*
X161360000Y-87820000D02*
X161360000Y-88470000D01*
X161360000Y-88470000D02*
X159590000Y-90240000D01*
X161360000Y-74270000D02*
X161360000Y-82514485D01*
X161360000Y-82514485D02*
X161229790Y-82644695D01*
X161229790Y-82644695D02*
X161229790Y-86185790D01*
X161360000Y-86316000D02*
X161360000Y-87820000D01*
X161229790Y-86185790D02*
X161360000Y-86316000D01*
X160560000Y-74270000D02*
X160560000Y-79400000D01*
X160560000Y-79400000D02*
X160420000Y-79540000D01*
X149350000Y-71880000D02*
X149350000Y-74260000D01*
X149350000Y-74260000D02*
X149360000Y-74270000D01*
X148870000Y-76064000D02*
X148870000Y-82304485D01*
X148870000Y-82304485D02*
X148529790Y-82644695D01*
X148529790Y-82644695D02*
X148529790Y-86185790D01*
X148529790Y-86185790D02*
X148660000Y-86316000D01*
X148660000Y-86316000D02*
X148660000Y-87820000D01*
X149360000Y-74270000D02*
X149360000Y-75574000D01*
X149360000Y-75574000D02*
X148870000Y-76064000D01*
X147010000Y-71700000D02*
X147010000Y-74220000D01*
X147010000Y-74220000D02*
X146960000Y-74270000D01*
X146090000Y-76444000D02*
X146110210Y-76464210D01*
X146110210Y-76464210D02*
X146110210Y-82524275D01*
X146110210Y-82524275D02*
X145989790Y-82644695D01*
X145989790Y-82644695D02*
X145989790Y-86185790D01*
X145989790Y-86185790D02*
X146120000Y-86316000D01*
X146120000Y-86316000D02*
X146120000Y-87820000D01*
X146960000Y-74270000D02*
X146960000Y-75574000D01*
X146960000Y-75574000D02*
X146090000Y-76444000D01*
X144060000Y-70360000D02*
X143760000Y-70660000D01*
X143760000Y-70660000D02*
X143760000Y-74270000D01*
X157990000Y-70360000D02*
X144060000Y-70360000D01*
X143760000Y-74270000D02*
X143760000Y-75574000D01*
X143760000Y-75574000D02*
X142640000Y-76694000D01*
X142640000Y-78036000D02*
X142640000Y-79540000D01*
X142640000Y-76694000D02*
X142640000Y-78036000D01*
X161280000Y-70490000D02*
X161280000Y-68050000D01*
X161280000Y-68050000D02*
X161360000Y-67970000D01*
X161360000Y-67970000D02*
X161360000Y-62474485D01*
X161360000Y-62474485D02*
X161229790Y-62344275D01*
X161229790Y-62344275D02*
X161229790Y-56574210D01*
X161229790Y-56574210D02*
X161360000Y-56444000D01*
X161360000Y-56444000D02*
X161360000Y-54940000D01*
X159950000Y-70870000D02*
X160394499Y-70425501D01*
X160394499Y-69439501D02*
X160560000Y-69274000D01*
X160394499Y-70425501D02*
X160394499Y-69439501D01*
X160560000Y-69274000D02*
X160560000Y-67970000D01*
X160560000Y-67970000D02*
X160560000Y-63640000D01*
X160560000Y-63640000D02*
X160420000Y-63500000D01*
X152000000Y-59220000D02*
X152000000Y-57716000D01*
X155340000Y-49212400D02*
X155340000Y-49060000D01*
X152000000Y-57716000D02*
X152809790Y-56906210D01*
X152809790Y-56906210D02*
X152809790Y-51742610D01*
X152809790Y-51742610D02*
X155340000Y-49212400D01*
X152560000Y-67970000D02*
X152560000Y-66666000D01*
X152560000Y-66666000D02*
X151869790Y-65975790D01*
X151869790Y-65975790D02*
X151869790Y-60854210D01*
X151869790Y-60854210D02*
X152000000Y-60724000D01*
X152000000Y-60724000D02*
X152000000Y-59220000D01*
X149300000Y-51470000D02*
X150260000Y-50510000D01*
X150260000Y-50510000D02*
X150260000Y-49060000D01*
X145840000Y-51470000D02*
X149300000Y-51470000D01*
X145080000Y-52230000D02*
X145840000Y-51470000D01*
X145080000Y-55865515D02*
X145080000Y-52230000D01*
X145400000Y-61776000D02*
X145400000Y-56185515D01*
X145400000Y-56185515D02*
X145080000Y-55865515D01*
X145180000Y-63500000D02*
X145180000Y-61996000D01*
X145180000Y-61996000D02*
X145400000Y-61776000D01*
X146160000Y-67970000D02*
X146160000Y-66666000D01*
X146160000Y-66666000D02*
X145180000Y-65686000D01*
X145180000Y-65686000D02*
X145180000Y-65004000D01*
X145180000Y-65004000D02*
X145180000Y-63500000D01*
X143730000Y-60535515D02*
X143730000Y-65836000D01*
X143730000Y-65836000D02*
X144560000Y-66666000D01*
X144560000Y-66666000D02*
X144560000Y-67970000D01*
X143580000Y-54940000D02*
X143580000Y-56444000D01*
X143580000Y-56444000D02*
X143449790Y-56574210D01*
X143449790Y-56574210D02*
X143449790Y-60255305D01*
X143449790Y-60255305D02*
X143730000Y-60535515D01*
X141880000Y-47350000D02*
X156322400Y-47350000D01*
X156322400Y-47350000D02*
X157880000Y-48907600D01*
X157880000Y-48907600D02*
X157880000Y-49060000D01*
X140909790Y-60959790D02*
X141030210Y-61080210D01*
X141030210Y-61080210D02*
X141030210Y-65536210D01*
X141030210Y-65536210D02*
X142160000Y-66666000D01*
X142160000Y-66666000D02*
X142160000Y-67970000D01*
X141040000Y-54940000D02*
X141040000Y-56444000D01*
X141040000Y-56444000D02*
X140909790Y-56574210D01*
X140909790Y-56574210D02*
X140909790Y-60959790D01*
X164440000Y-67940000D02*
X164410000Y-67970000D01*
X164410000Y-67970000D02*
X162960000Y-67970000D01*
X162930000Y-72120000D02*
X162960000Y-72150000D01*
X162960000Y-72150000D02*
X162960000Y-74270000D01*
D19*
X162930000Y-71270000D02*
X162930000Y-72120000D01*
X163360000Y-70840000D02*
X162930000Y-71270000D01*
X165160000Y-70840000D02*
X163360000Y-70840000D01*
X166436210Y-72116210D02*
X165160000Y-70840000D01*
X167000790Y-72116210D02*
X166436210Y-72116210D01*
X165500000Y-66880000D02*
X164440000Y-67940000D01*
X165500000Y-65785000D02*
X165500000Y-66880000D01*
X168385000Y-68670000D02*
X168385000Y-70732000D01*
X168385000Y-70732000D02*
X167000790Y-72116210D01*
X167000790Y-72116210D02*
X167000790Y-80579210D01*
X167000790Y-80579210D02*
X165500000Y-82080000D01*
X165500000Y-92240000D02*
X165500000Y-82080000D01*
X165500000Y-82080000D02*
X164972000Y-81552000D01*
X164972000Y-81552000D02*
X164322000Y-81552000D01*
X164322000Y-81552000D02*
X162960000Y-80190000D01*
X162960000Y-80190000D02*
X162960000Y-79540000D01*
X165500000Y-63500000D02*
X165500000Y-61488000D01*
X165500000Y-61488000D02*
X165500000Y-49060000D01*
X165500000Y-63500000D02*
X162960000Y-63500000D01*
X165500000Y-63500000D02*
X165500000Y-65785000D01*
X165500000Y-65785000D02*
X168385000Y-68670000D01*
D18*
X162160000Y-74270000D02*
X162160000Y-75574000D01*
X162160000Y-75574000D02*
X162029790Y-75704210D01*
X162029790Y-75704210D02*
X162029790Y-82045790D01*
X162160000Y-82176000D02*
X162160000Y-83680000D01*
X162029790Y-82045790D02*
X162160000Y-82176000D01*
X159620000Y-83680000D02*
X159620000Y-82176000D01*
X159620000Y-82176000D02*
X159489790Y-82045790D01*
X159489790Y-82045790D02*
X159489790Y-75844210D01*
X159489790Y-75844210D02*
X159760000Y-75574000D01*
X159760000Y-75574000D02*
X159760000Y-74270000D01*
X158960000Y-74270000D02*
X158960000Y-82374485D01*
X158960000Y-82374485D02*
X158689790Y-82644695D01*
X158689790Y-86185790D02*
X158820000Y-86316000D01*
X158689790Y-82644695D02*
X158689790Y-86185790D01*
X158820000Y-86316000D02*
X158820000Y-87820000D01*
X157880000Y-79540000D02*
X157880000Y-78036000D01*
X157880000Y-78036000D02*
X158160000Y-77756000D01*
X158160000Y-77756000D02*
X158160000Y-75574000D01*
X158160000Y-75574000D02*
X158160000Y-74270000D01*
X157360000Y-74270000D02*
X157360000Y-78094485D01*
X157360000Y-78094485D02*
X156949790Y-78504695D01*
X156949790Y-78504695D02*
X156949790Y-82045790D01*
X156949790Y-82045790D02*
X157080000Y-82176000D01*
X157080000Y-82176000D02*
X157080000Y-83680000D01*
X156330000Y-78160000D02*
X156330000Y-82464485D01*
X156149790Y-86185790D02*
X156280000Y-86316000D01*
X156330000Y-82464485D02*
X156149790Y-82644695D01*
X156149790Y-82644695D02*
X156149790Y-86185790D01*
X156280000Y-86316000D02*
X156280000Y-87820000D01*
X156560000Y-77930000D02*
X156330000Y-78160000D01*
X156560000Y-74270000D02*
X156560000Y-77930000D01*
X155760000Y-74270000D02*
X155760000Y-79120000D01*
X155760000Y-79120000D02*
X155340000Y-79540000D01*
X154960000Y-74270000D02*
X154960000Y-75574000D01*
X154409790Y-76124210D02*
X154409790Y-82045790D01*
X154960000Y-75574000D02*
X154409790Y-76124210D01*
X154409790Y-82045790D02*
X154540000Y-82176000D01*
X154540000Y-82176000D02*
X154540000Y-83680000D01*
X153850000Y-75884000D02*
X153850000Y-82404485D01*
X153850000Y-82404485D02*
X153609790Y-82644695D01*
X153609790Y-82644695D02*
X153609790Y-86185790D01*
X153609790Y-86185790D02*
X153740000Y-86316000D01*
X153740000Y-86316000D02*
X153740000Y-87820000D01*
X154160000Y-74270000D02*
X154160000Y-75574000D01*
X154160000Y-75574000D02*
X153850000Y-75884000D01*
X152800000Y-79540000D02*
X152800000Y-78036000D01*
X152800000Y-78036000D02*
X153360000Y-77476000D01*
X153360000Y-75574000D02*
X153360000Y-74270000D01*
X153360000Y-77476000D02*
X153360000Y-75574000D01*
X152000000Y-82176000D02*
X152000000Y-83680000D01*
X151869790Y-82045790D02*
X152000000Y-82176000D01*
X151869790Y-76264210D02*
X151869790Y-82045790D01*
X152560000Y-75574000D02*
X151869790Y-76264210D01*
X152560000Y-74270000D02*
X152560000Y-75574000D01*
X151050000Y-82664485D02*
X151050000Y-86166000D01*
X151050000Y-86166000D02*
X151200000Y-86316000D01*
X151200000Y-86316000D02*
X151200000Y-87820000D01*
X151370000Y-75964000D02*
X151370000Y-82344485D01*
X151370000Y-82344485D02*
X151050000Y-82664485D01*
X151760000Y-74270000D02*
X151760000Y-75574000D01*
X151760000Y-75574000D02*
X151370000Y-75964000D01*
X150960000Y-74270000D02*
X150960000Y-75574000D01*
X150960000Y-75574000D02*
X150260000Y-76274000D01*
X150260000Y-76274000D02*
X150260000Y-78036000D01*
X150260000Y-78036000D02*
X150260000Y-79540000D01*
X149327211Y-82043211D02*
X149460000Y-82176000D01*
X150160000Y-75574000D02*
X149327211Y-76406789D01*
X149327211Y-76406789D02*
X149327211Y-82043211D01*
X149460000Y-82176000D02*
X149460000Y-83680000D01*
X150160000Y-74270000D02*
X150160000Y-75574000D01*
X148560000Y-74270000D02*
X148560000Y-75574000D01*
X148560000Y-75574000D02*
X147720000Y-76414000D01*
X147720000Y-76414000D02*
X147720000Y-78036000D01*
X147720000Y-78036000D02*
X147720000Y-79540000D01*
X146660000Y-76674000D02*
X146660000Y-81916000D01*
X146660000Y-81916000D02*
X146920000Y-82176000D01*
X146920000Y-82176000D02*
X146920000Y-83680000D01*
X147760000Y-74270000D02*
X147760000Y-75574000D01*
X147760000Y-75574000D02*
X146660000Y-76674000D01*
X146160000Y-74270000D02*
X146160000Y-75574000D01*
X146160000Y-75574000D02*
X145180000Y-76554000D01*
X145180000Y-76554000D02*
X145180000Y-78036000D01*
X145180000Y-78036000D02*
X145180000Y-79540000D01*
X144220000Y-76714000D02*
X144220000Y-82016000D01*
X144220000Y-82016000D02*
X144380000Y-82176000D01*
X144380000Y-82176000D02*
X144380000Y-83680000D01*
X145360000Y-74270000D02*
X145360000Y-75574000D01*
X145360000Y-75574000D02*
X144220000Y-76714000D01*
X143660000Y-76474000D02*
X143660000Y-82434485D01*
X143660000Y-82434485D02*
X143449790Y-82644695D01*
X143449790Y-82644695D02*
X143449790Y-86185790D01*
X143449790Y-86185790D02*
X143580000Y-86316000D01*
X143580000Y-86316000D02*
X143580000Y-87820000D01*
X144560000Y-74270000D02*
X144560000Y-75574000D01*
X144560000Y-75574000D02*
X143660000Y-76474000D01*
X142960000Y-74270000D02*
X142960000Y-75574000D01*
X142960000Y-75574000D02*
X141709790Y-76824210D01*
X141709790Y-76824210D02*
X141709790Y-82045790D01*
X141709790Y-82045790D02*
X141840000Y-82176000D01*
X141840000Y-82176000D02*
X141840000Y-83680000D01*
X141250000Y-76484000D02*
X141250000Y-82304485D01*
X141250000Y-82304485D02*
X140909790Y-82644695D01*
X140909790Y-82644695D02*
X140909790Y-86185790D01*
X140909790Y-86185790D02*
X141040000Y-86316000D01*
X141040000Y-86316000D02*
X141040000Y-87820000D01*
X142160000Y-74270000D02*
X142160000Y-75574000D01*
X142160000Y-75574000D02*
X141250000Y-76484000D01*
X141360000Y-74270000D02*
X141360000Y-75574000D01*
X141360000Y-75574000D02*
X140100000Y-76834000D01*
X140100000Y-76834000D02*
X140100000Y-78036000D01*
X140100000Y-78036000D02*
X140100000Y-79540000D01*
X140560000Y-74270000D02*
X140560000Y-75574000D01*
X140560000Y-75574000D02*
X139169790Y-76964210D01*
X139300000Y-82176000D02*
X139300000Y-83680000D01*
X139169790Y-76964210D02*
X139169790Y-82045790D01*
X139169790Y-82045790D02*
X139300000Y-82176000D01*
X138190000Y-76640000D02*
X138190000Y-86006000D01*
X138190000Y-86006000D02*
X138500000Y-86316000D01*
X138500000Y-86316000D02*
X138500000Y-87820000D01*
X139760000Y-74270000D02*
X139760000Y-75070000D01*
X139760000Y-75070000D02*
X138190000Y-76640000D01*
X162160000Y-67970000D02*
X162160000Y-66666000D01*
X162029790Y-60854210D02*
X162160000Y-60724000D01*
X162160000Y-66666000D02*
X162029790Y-66535790D01*
X162029790Y-66535790D02*
X162029790Y-60854210D01*
X162160000Y-60724000D02*
X162160000Y-59220000D01*
X159760000Y-67970000D02*
X159760000Y-66666000D01*
X159760000Y-66666000D02*
X159489790Y-66395790D01*
X159489790Y-66395790D02*
X159489790Y-60854210D01*
X159489790Y-60854210D02*
X159620000Y-60724000D01*
X159620000Y-60724000D02*
X159620000Y-59220000D01*
X158960000Y-67970000D02*
X158960000Y-60525515D01*
X158960000Y-60525515D02*
X158689790Y-60255305D01*
X158689790Y-60255305D02*
X158689790Y-56574210D01*
X158689790Y-56574210D02*
X158820000Y-56444000D01*
X158820000Y-56444000D02*
X158820000Y-54940000D01*
X158160000Y-67970000D02*
X158160000Y-63780000D01*
X158160000Y-63780000D02*
X157880000Y-63500000D01*
X157360000Y-67970000D02*
X157360000Y-64945515D01*
X157360000Y-64945515D02*
X156949790Y-64535305D01*
X156949790Y-60854210D02*
X157080000Y-60724000D01*
X156949790Y-64535305D02*
X156949790Y-60854210D01*
X157080000Y-60724000D02*
X157080000Y-59220000D01*
X156560000Y-67970000D02*
X156560000Y-66666000D01*
X156560000Y-66666000D02*
X156470000Y-66576000D01*
X156470000Y-66576000D02*
X156470000Y-60575515D01*
X156470000Y-60575515D02*
X156149790Y-60255305D01*
X156149790Y-60255305D02*
X156149790Y-56574210D01*
X156149790Y-56574210D02*
X156280000Y-56444000D01*
X156280000Y-56444000D02*
X156280000Y-54940000D01*
X155760000Y-67970000D02*
X155760000Y-63920000D01*
X155760000Y-63920000D02*
X155340000Y-63500000D01*
X154960000Y-67970000D02*
X154960000Y-66666000D01*
X154960000Y-66666000D02*
X154409790Y-66115790D01*
X154409790Y-66115790D02*
X154409790Y-60854210D01*
X154409790Y-60854210D02*
X154540000Y-60724000D01*
X154540000Y-60724000D02*
X154540000Y-59220000D01*
X153760000Y-66266000D02*
X153760000Y-60405515D01*
X153760000Y-60405515D02*
X153609790Y-60255305D01*
X153609790Y-60255305D02*
X153609790Y-56574210D01*
X153609790Y-56574210D02*
X153740000Y-56444000D01*
X153740000Y-56444000D02*
X153740000Y-54940000D01*
X154160000Y-67970000D02*
X154160000Y-66666000D01*
X154160000Y-66666000D02*
X153760000Y-66266000D01*
X153360000Y-67970000D02*
X153360000Y-66666000D01*
X153360000Y-66666000D02*
X152800000Y-66106000D01*
X152800000Y-66106000D02*
X152800000Y-65004000D01*
X152800000Y-65004000D02*
X152800000Y-63500000D01*
X151760000Y-67970000D02*
X151760000Y-66666000D01*
X151760000Y-66666000D02*
X151190210Y-66096210D01*
X151190210Y-66096210D02*
X151190210Y-60375725D01*
X151190210Y-60375725D02*
X151069790Y-60255305D01*
X151069790Y-60255305D02*
X151069790Y-56574210D01*
X151069790Y-56574210D02*
X151200000Y-56444000D01*
X151200000Y-56444000D02*
X151200000Y-54940000D01*
X150960000Y-67970000D02*
X150960000Y-66666000D01*
X150960000Y-66666000D02*
X150260000Y-65966000D01*
X150260000Y-65966000D02*
X150260000Y-63500000D01*
X150160000Y-67970000D02*
X150160000Y-66666000D01*
X150160000Y-66666000D02*
X149329790Y-65835790D01*
X149329790Y-65835790D02*
X149329790Y-60854210D01*
X149329790Y-60854210D02*
X149460000Y-60724000D01*
X149460000Y-60724000D02*
X149460000Y-59220000D01*
X148830000Y-66136000D02*
X148830000Y-60555515D01*
X148830000Y-60555515D02*
X148529790Y-60255305D01*
X148529790Y-60255305D02*
X148529790Y-56574210D01*
X148529790Y-56574210D02*
X148660000Y-56444000D01*
X148660000Y-56444000D02*
X148660000Y-54940000D01*
X149360000Y-67970000D02*
X149360000Y-66666000D01*
X149360000Y-66666000D02*
X148830000Y-66136000D01*
X148560000Y-67970000D02*
X148560000Y-66666000D01*
X148560000Y-66666000D02*
X147720000Y-65826000D01*
X147720000Y-65826000D02*
X147720000Y-65004000D01*
X147720000Y-65004000D02*
X147720000Y-63500000D01*
X147760000Y-67970000D02*
X147760000Y-66666000D01*
X147760000Y-66666000D02*
X146789790Y-65695790D01*
X146920000Y-60724000D02*
X146920000Y-59220000D01*
X146789790Y-65695790D02*
X146789790Y-60854210D01*
X146789790Y-60854210D02*
X146920000Y-60724000D01*
X146960000Y-67970000D02*
X146960000Y-66666000D01*
X146110210Y-60375725D02*
X145989790Y-60255305D01*
X146960000Y-66666000D02*
X146110210Y-65816210D01*
X146110210Y-65816210D02*
X146110210Y-60375725D01*
X145989790Y-60255305D02*
X145989790Y-56574210D01*
X145989790Y-56574210D02*
X146120000Y-56444000D01*
X146120000Y-56444000D02*
X146120000Y-54940000D01*
X145360000Y-67970000D02*
X145360000Y-66666000D01*
X145360000Y-66666000D02*
X144249790Y-65555790D01*
X144249790Y-65555790D02*
X144249790Y-60854210D01*
X144249790Y-60854210D02*
X144380000Y-60724000D01*
X144380000Y-60724000D02*
X144380000Y-59220000D01*
X143760000Y-67970000D02*
X143760000Y-66666000D01*
X143760000Y-66666000D02*
X142640000Y-65546000D01*
X142640000Y-65546000D02*
X142640000Y-65004000D01*
X142640000Y-65004000D02*
X142640000Y-63500000D01*
X141650000Y-65356000D02*
X141650000Y-60914000D01*
X141650000Y-60914000D02*
X141840000Y-60724000D01*
X141840000Y-60724000D02*
X141840000Y-59220000D01*
X142960000Y-67970000D02*
X142960000Y-66666000D01*
X142960000Y-66666000D02*
X141650000Y-65356000D01*
X141360000Y-67970000D02*
X141360000Y-66666000D01*
X141360000Y-66666000D02*
X140100000Y-65406000D01*
X140100000Y-65406000D02*
X140100000Y-65004000D01*
X140100000Y-65004000D02*
X140100000Y-63500000D01*
X139300000Y-60724000D02*
X139300000Y-59220000D01*
X139169790Y-65275790D02*
X139169790Y-60854210D01*
X139169790Y-60854210D02*
X139300000Y-60724000D01*
X140560000Y-66666000D02*
X139169790Y-65275790D01*
X140560000Y-67970000D02*
X140560000Y-66666000D01*
X138250000Y-60135515D02*
X138250000Y-56694000D01*
X138250000Y-56694000D02*
X138500000Y-56444000D01*
X138500000Y-56444000D02*
X138500000Y-54940000D01*
X138630000Y-65610000D02*
X138630000Y-60515515D01*
X138630000Y-60515515D02*
X138250000Y-60135515D01*
X139320000Y-66300000D02*
X138630000Y-65610000D01*
X139394000Y-66300000D02*
X139320000Y-66300000D01*
X139760000Y-67970000D02*
X139760000Y-66666000D01*
X139760000Y-66666000D02*
X139394000Y-66300000D01*
D19*
X165500000Y-79540000D02*
X165500000Y-74060000D01*
X165500000Y-74060000D02*
X164560000Y-73120000D01*
X138160000Y-69120000D02*
X137560000Y-68520000D01*
X137560000Y-68520000D02*
X137560000Y-63500000D01*
X136040000Y-91590000D02*
X136040000Y-72437000D01*
X134335000Y-70732000D02*
X134335000Y-68670000D01*
X136040000Y-72437000D02*
X134335000Y-70732000D01*
X136690000Y-92240000D02*
X136040000Y-91590000D01*
X152800000Y-92240000D02*
X136690000Y-92240000D01*
X135020000Y-51880000D02*
X137840000Y-49060000D01*
X137840000Y-49060000D02*
X145180000Y-49060000D01*
X135020000Y-63500000D02*
X135020000Y-51880000D01*
X134335000Y-68670000D02*
X134335000Y-64185000D01*
X134335000Y-64185000D02*
X135020000Y-63500000D01*
D18*
G36*
X141054643Y-47185077D02*
X141054357Y-47513482D01*
X141179767Y-47816998D01*
X141411781Y-48049417D01*
X141715077Y-48175357D01*
X142043482Y-48175643D01*
X142346998Y-48050233D01*
X142539567Y-47858000D01*
X144512702Y-47858000D01*
X144299935Y-48000166D01*
X144100929Y-48298000D01*
X137840000Y-48298000D01*
X137548395Y-48356004D01*
X137301184Y-48521185D01*
X134481185Y-51341185D01*
X134316004Y-51588395D01*
X134258000Y-51880000D01*
X134258000Y-62226635D01*
X134113674Y-62442635D01*
X134039000Y-62818047D01*
X134039000Y-63403370D01*
X133796185Y-63646185D01*
X133631004Y-63893395D01*
X133573000Y-64185000D01*
X133573000Y-67253135D01*
X133499907Y-67301974D01*
X133243898Y-67685118D01*
X133154000Y-68137067D01*
X133154000Y-69202933D01*
X133243898Y-69654882D01*
X133499907Y-70038026D01*
X133573000Y-70086865D01*
X133573000Y-70732000D01*
X133631004Y-71023605D01*
X133768385Y-71229210D01*
X133796185Y-71270815D01*
X134774796Y-72249426D01*
X134335000Y-72161945D01*
X133883051Y-72251843D01*
X133499907Y-72507852D01*
X133243898Y-72890996D01*
X133154000Y-73342945D01*
X133154000Y-73797055D01*
X133243898Y-74249004D01*
X133499907Y-74632148D01*
X133883051Y-74888157D01*
X134335000Y-74978055D01*
X134786949Y-74888157D01*
X135170093Y-74632148D01*
X135278000Y-74470654D01*
X135278000Y-91590000D01*
X135336004Y-91881605D01*
X135473646Y-92087600D01*
X135501185Y-92128815D01*
X136151185Y-92778815D01*
X136398395Y-92943996D01*
X136690000Y-93002000D01*
X151720929Y-93002000D01*
X151919935Y-93299834D01*
X152323712Y-93569629D01*
X152800000Y-93664369D01*
X153276288Y-93569629D01*
X153680065Y-93299834D01*
X153949860Y-92896057D01*
X154044600Y-92419769D01*
X154044600Y-92060231D01*
X153949860Y-91583943D01*
X153680065Y-91180166D01*
X153276288Y-90910371D01*
X152800000Y-90815631D01*
X152323712Y-90910371D01*
X151919935Y-91180166D01*
X151720929Y-91478000D01*
X137005630Y-91478000D01*
X136802000Y-91274370D01*
X136802000Y-87138047D01*
X137519000Y-87138047D01*
X137519000Y-88501953D01*
X137593674Y-88877365D01*
X137806328Y-89195625D01*
X138124588Y-89408279D01*
X138500000Y-89482953D01*
X138875412Y-89408279D01*
X139193672Y-89195625D01*
X139406326Y-88877365D01*
X139481000Y-88501953D01*
X139481000Y-87138047D01*
X139406326Y-86762635D01*
X139193672Y-86444375D01*
X139008000Y-86320313D01*
X139008000Y-86316000D01*
X138991236Y-86231721D01*
X138969331Y-86121596D01*
X138859210Y-85956790D01*
X138698000Y-85795580D01*
X138698000Y-85116878D01*
X138924588Y-85268279D01*
X139300000Y-85342953D01*
X139675412Y-85268279D01*
X139993672Y-85055625D01*
X140206326Y-84737365D01*
X140281000Y-84361953D01*
X140281000Y-82998047D01*
X140206326Y-82622635D01*
X139993672Y-82304375D01*
X139808000Y-82180313D01*
X139808000Y-82176000D01*
X139769331Y-81981597D01*
X139677790Y-81844597D01*
X139677790Y-81097010D01*
X139724588Y-81128279D01*
X140100000Y-81202953D01*
X140475412Y-81128279D01*
X140742000Y-80950151D01*
X140742000Y-82094064D01*
X140550580Y-82285485D01*
X140440459Y-82450292D01*
X140401790Y-82644695D01*
X140401790Y-86185790D01*
X140440459Y-86380193D01*
X140441053Y-86381082D01*
X140346328Y-86444375D01*
X140133674Y-86762635D01*
X140059000Y-87138047D01*
X140059000Y-88501953D01*
X140133674Y-88877365D01*
X140346328Y-89195625D01*
X140664588Y-89408279D01*
X141040000Y-89482953D01*
X141415412Y-89408279D01*
X141733672Y-89195625D01*
X141946326Y-88877365D01*
X142021000Y-88501953D01*
X142021000Y-87138047D01*
X141946326Y-86762635D01*
X141733672Y-86444375D01*
X141548000Y-86320313D01*
X141548000Y-86316000D01*
X141509331Y-86121597D01*
X141417790Y-85984597D01*
X141417790Y-85237010D01*
X141464588Y-85268279D01*
X141840000Y-85342953D01*
X142215412Y-85268279D01*
X142533672Y-85055625D01*
X142746326Y-84737365D01*
X142821000Y-84361953D01*
X142821000Y-82998047D01*
X142746326Y-82622635D01*
X142533672Y-82304375D01*
X142348000Y-82180313D01*
X142348000Y-82176000D01*
X142309331Y-81981597D01*
X142217790Y-81844597D01*
X142217790Y-81097010D01*
X142264588Y-81128279D01*
X142640000Y-81202953D01*
X143015412Y-81128279D01*
X143152000Y-81037014D01*
X143152000Y-82224065D01*
X143090580Y-82285485D01*
X142980459Y-82450292D01*
X142941790Y-82644695D01*
X142941790Y-86185790D01*
X142980459Y-86380193D01*
X142981053Y-86381082D01*
X142886328Y-86444375D01*
X142673674Y-86762635D01*
X142599000Y-87138047D01*
X142599000Y-88501953D01*
X142673674Y-88877365D01*
X142886328Y-89195625D01*
X143204588Y-89408279D01*
X143580000Y-89482953D01*
X143955412Y-89408279D01*
X144273672Y-89195625D01*
X144486326Y-88877365D01*
X144561000Y-88501953D01*
X144561000Y-87138047D01*
X144486326Y-86762635D01*
X144273672Y-86444375D01*
X144088000Y-86320313D01*
X144088000Y-86316000D01*
X144049331Y-86121597D01*
X143957790Y-85984597D01*
X143957790Y-85237010D01*
X144004588Y-85268279D01*
X144380000Y-85342953D01*
X144755412Y-85268279D01*
X145073672Y-85055625D01*
X145286326Y-84737365D01*
X145361000Y-84361953D01*
X145361000Y-82998047D01*
X145286326Y-82622635D01*
X145073672Y-82304375D01*
X144888000Y-82180313D01*
X144888000Y-82176000D01*
X144861587Y-82043211D01*
X144849331Y-81981596D01*
X144739210Y-81816790D01*
X144728000Y-81805580D01*
X144728000Y-81077105D01*
X144804588Y-81128279D01*
X145180000Y-81202953D01*
X145555412Y-81128279D01*
X145602210Y-81097010D01*
X145602210Y-82327944D01*
X145520459Y-82450292D01*
X145481790Y-82644695D01*
X145481790Y-86185790D01*
X145520459Y-86380193D01*
X145521053Y-86381082D01*
X145426328Y-86444375D01*
X145213674Y-86762635D01*
X145139000Y-87138047D01*
X145139000Y-88501953D01*
X145213674Y-88877365D01*
X145426328Y-89195625D01*
X145744588Y-89408279D01*
X146120000Y-89482953D01*
X146495412Y-89408279D01*
X146813672Y-89195625D01*
X147026326Y-88877365D01*
X147101000Y-88501953D01*
X147101000Y-87138047D01*
X147026326Y-86762635D01*
X146813672Y-86444375D01*
X146628000Y-86320313D01*
X146628000Y-86316000D01*
X146589331Y-86121597D01*
X146497790Y-85984597D01*
X146497790Y-85237010D01*
X146544588Y-85268279D01*
X146920000Y-85342953D01*
X147295412Y-85268279D01*
X147613672Y-85055625D01*
X147826326Y-84737365D01*
X147901000Y-84361953D01*
X147901000Y-82998047D01*
X147826326Y-82622635D01*
X147613672Y-82304375D01*
X147428000Y-82180313D01*
X147428000Y-82176000D01*
X147389331Y-81981597D01*
X147358299Y-81935154D01*
X147279211Y-81816790D01*
X147168000Y-81705579D01*
X147168000Y-81010287D01*
X147344588Y-81128279D01*
X147720000Y-81202953D01*
X148095412Y-81128279D01*
X148362000Y-80950151D01*
X148362000Y-82094064D01*
X148170580Y-82285485D01*
X148060459Y-82450292D01*
X148021790Y-82644695D01*
X148021790Y-86185790D01*
X148060459Y-86380193D01*
X148061053Y-86381082D01*
X147966328Y-86444375D01*
X147753674Y-86762635D01*
X147679000Y-87138047D01*
X147679000Y-88501953D01*
X147753674Y-88877365D01*
X147966328Y-89195625D01*
X148284588Y-89408279D01*
X148660000Y-89482953D01*
X149035412Y-89408279D01*
X149353672Y-89195625D01*
X149566326Y-88877365D01*
X149641000Y-88501953D01*
X149641000Y-87138047D01*
X149566326Y-86762635D01*
X149353672Y-86444375D01*
X149168000Y-86320313D01*
X149168000Y-86316000D01*
X149129331Y-86121597D01*
X149037790Y-85984597D01*
X149037790Y-85237010D01*
X149084588Y-85268279D01*
X149460000Y-85342953D01*
X149835412Y-85268279D01*
X150153672Y-85055625D01*
X150366326Y-84737365D01*
X150441000Y-84361953D01*
X150441000Y-82998047D01*
X150366326Y-82622635D01*
X150153672Y-82304375D01*
X149968000Y-82180313D01*
X149968000Y-82176000D01*
X149929331Y-81981597D01*
X149835211Y-81840737D01*
X149835211Y-81095286D01*
X149884588Y-81128279D01*
X150260000Y-81202953D01*
X150635412Y-81128279D01*
X150862000Y-80976878D01*
X150862000Y-82134065D01*
X150690790Y-82305275D01*
X150580669Y-82470082D01*
X150542000Y-82664485D01*
X150542000Y-86166000D01*
X150580669Y-86360403D01*
X150596513Y-86384115D01*
X150506328Y-86444375D01*
X150293674Y-86762635D01*
X150219000Y-87138047D01*
X150219000Y-88501953D01*
X150293674Y-88877365D01*
X150506328Y-89195625D01*
X150824588Y-89408279D01*
X151200000Y-89482953D01*
X151575412Y-89408279D01*
X151893672Y-89195625D01*
X152106326Y-88877365D01*
X152181000Y-88501953D01*
X152181000Y-87138047D01*
X152106326Y-86762635D01*
X151893672Y-86444375D01*
X151708000Y-86320313D01*
X151708000Y-86316000D01*
X151669331Y-86121597D01*
X151559210Y-85956790D01*
X151558000Y-85955580D01*
X151558000Y-85223786D01*
X151624588Y-85268279D01*
X152000000Y-85342953D01*
X152375412Y-85268279D01*
X152693672Y-85055625D01*
X152906326Y-84737365D01*
X152981000Y-84361953D01*
X152981000Y-82998047D01*
X152906326Y-82622635D01*
X152693672Y-82304375D01*
X152508000Y-82180313D01*
X152508000Y-82176000D01*
X152469331Y-81981597D01*
X152377790Y-81844597D01*
X152377790Y-81097010D01*
X152424588Y-81128279D01*
X152800000Y-81202953D01*
X153175412Y-81128279D01*
X153342000Y-81016969D01*
X153342000Y-82194065D01*
X153250580Y-82285485D01*
X153140459Y-82450292D01*
X153101790Y-82644695D01*
X153101790Y-86185790D01*
X153140459Y-86380193D01*
X153141053Y-86381082D01*
X153046328Y-86444375D01*
X152833674Y-86762635D01*
X152759000Y-87138047D01*
X152759000Y-88501953D01*
X152833674Y-88877365D01*
X153046328Y-89195625D01*
X153364588Y-89408279D01*
X153740000Y-89482953D01*
X154115412Y-89408279D01*
X154433672Y-89195625D01*
X154646326Y-88877365D01*
X154721000Y-88501953D01*
X154721000Y-87138047D01*
X154646326Y-86762635D01*
X154433672Y-86444375D01*
X154248000Y-86320313D01*
X154248000Y-86316000D01*
X154209331Y-86121597D01*
X154117790Y-85984597D01*
X154117790Y-85237010D01*
X154164588Y-85268279D01*
X154540000Y-85342953D01*
X154915412Y-85268279D01*
X155233672Y-85055625D01*
X155446326Y-84737365D01*
X155521000Y-84361953D01*
X155521000Y-82998047D01*
X155446326Y-82622635D01*
X155233672Y-82304375D01*
X155048000Y-82180313D01*
X155048000Y-82176000D01*
X155009331Y-81981597D01*
X154917790Y-81844597D01*
X154917790Y-81097010D01*
X154964588Y-81128279D01*
X155340000Y-81202953D01*
X155715412Y-81128279D01*
X155822000Y-81057059D01*
X155822000Y-82254065D01*
X155790580Y-82285485D01*
X155680459Y-82450292D01*
X155641790Y-82644695D01*
X155641790Y-86185790D01*
X155680459Y-86380193D01*
X155681053Y-86381082D01*
X155586328Y-86444375D01*
X155373674Y-86762635D01*
X155299000Y-87138047D01*
X155299000Y-88501953D01*
X155373674Y-88877365D01*
X155586328Y-89195625D01*
X155904588Y-89408279D01*
X156280000Y-89482953D01*
X156655412Y-89408279D01*
X156973672Y-89195625D01*
X157186326Y-88877365D01*
X157261000Y-88501953D01*
X157261000Y-87138047D01*
X157186326Y-86762635D01*
X156973672Y-86444375D01*
X156788000Y-86320313D01*
X156788000Y-86316000D01*
X156749331Y-86121597D01*
X156657790Y-85984597D01*
X156657790Y-85237010D01*
X156704588Y-85268279D01*
X157080000Y-85342953D01*
X157455412Y-85268279D01*
X157773672Y-85055625D01*
X157986326Y-84737365D01*
X158061000Y-84361953D01*
X158061000Y-82998047D01*
X157986326Y-82622635D01*
X157773672Y-82304375D01*
X157588000Y-82180313D01*
X157588000Y-82176000D01*
X157549331Y-81981597D01*
X157457790Y-81844597D01*
X157457790Y-81097010D01*
X157504588Y-81128279D01*
X157880000Y-81202953D01*
X158255412Y-81128279D01*
X158452000Y-80996923D01*
X158452000Y-82164065D01*
X158330580Y-82285485D01*
X158220459Y-82450292D01*
X158181790Y-82644695D01*
X158181790Y-86185790D01*
X158220459Y-86380193D01*
X158221053Y-86381082D01*
X158126328Y-86444375D01*
X157913674Y-86762635D01*
X157839000Y-87138047D01*
X157839000Y-88501953D01*
X157913674Y-88877365D01*
X158126328Y-89195625D01*
X158444588Y-89408279D01*
X158820000Y-89482953D01*
X159195412Y-89408279D01*
X159513672Y-89195625D01*
X159726326Y-88877365D01*
X159801000Y-88501953D01*
X159801000Y-87138047D01*
X159726326Y-86762635D01*
X159513672Y-86444375D01*
X159328000Y-86320313D01*
X159328000Y-86316000D01*
X159289331Y-86121597D01*
X159197790Y-85984597D01*
X159197790Y-85237010D01*
X159244588Y-85268279D01*
X159620000Y-85342953D01*
X159995412Y-85268279D01*
X160313672Y-85055625D01*
X160526326Y-84737365D01*
X160601000Y-84361953D01*
X160601000Y-82998047D01*
X160526326Y-82622635D01*
X160313672Y-82304375D01*
X160128000Y-82180313D01*
X160128000Y-82176000D01*
X160089331Y-81981597D01*
X159997790Y-81844597D01*
X159997790Y-81097010D01*
X160044588Y-81128279D01*
X160420000Y-81202953D01*
X160795412Y-81128279D01*
X160852000Y-81090468D01*
X160852000Y-82313292D01*
X160760459Y-82450292D01*
X160721790Y-82644695D01*
X160721790Y-86185790D01*
X160760459Y-86380193D01*
X160761053Y-86381082D01*
X160666328Y-86444375D01*
X160453674Y-86762635D01*
X160379000Y-87138047D01*
X160379000Y-88501953D01*
X160417263Y-88694317D01*
X159379580Y-89732000D01*
X157187600Y-89732000D01*
X156993197Y-89770669D01*
X156828390Y-89880790D01*
X155801709Y-90907471D01*
X155340000Y-90815631D01*
X154863712Y-90910371D01*
X154459935Y-91180166D01*
X154190140Y-91583943D01*
X154095400Y-92060231D01*
X154095400Y-92419769D01*
X154190140Y-92896057D01*
X154459935Y-93299834D01*
X154863712Y-93569629D01*
X155340000Y-93664369D01*
X155816288Y-93569629D01*
X156220065Y-93299834D01*
X156489860Y-92896057D01*
X156584600Y-92419769D01*
X156584600Y-92060231D01*
X156635400Y-92060231D01*
X156635400Y-92419769D01*
X156730140Y-92896057D01*
X156999935Y-93299834D01*
X157403712Y-93569629D01*
X157880000Y-93664369D01*
X158356288Y-93569629D01*
X158760065Y-93299834D01*
X159029860Y-92896057D01*
X159124600Y-92419769D01*
X159124600Y-92060231D01*
X159175400Y-92060231D01*
X159175400Y-92419769D01*
X159270140Y-92896057D01*
X159539935Y-93299834D01*
X159943712Y-93569629D01*
X160420000Y-93664369D01*
X160896288Y-93569629D01*
X161300065Y-93299834D01*
X161569860Y-92896057D01*
X161664600Y-92419769D01*
X161664600Y-92060231D01*
X161715400Y-92060231D01*
X161715400Y-92419769D01*
X161810140Y-92896057D01*
X162079935Y-93299834D01*
X162483712Y-93569629D01*
X162960000Y-93664369D01*
X163436288Y-93569629D01*
X163840065Y-93299834D01*
X164001400Y-93058379D01*
X164001400Y-93382309D01*
X164098073Y-93615698D01*
X164276701Y-93794327D01*
X164510090Y-93891000D01*
X165214250Y-93891000D01*
X165373000Y-93732250D01*
X165373000Y-92367000D01*
X165627000Y-92367000D01*
X165627000Y-93732250D01*
X165785750Y-93891000D01*
X166489910Y-93891000D01*
X166723299Y-93794327D01*
X166901927Y-93615698D01*
X166998600Y-93382309D01*
X166998600Y-92525750D01*
X166839850Y-92367000D01*
X165627000Y-92367000D01*
X165373000Y-92367000D01*
X165353000Y-92367000D01*
X165353000Y-92113000D01*
X165373000Y-92113000D01*
X165373000Y-90747750D01*
X165627000Y-90747750D01*
X165627000Y-92113000D01*
X166839850Y-92113000D01*
X166998600Y-91954250D01*
X166998600Y-91097691D01*
X166901927Y-90864302D01*
X166723299Y-90685673D01*
X166489910Y-90589000D01*
X165785750Y-90589000D01*
X165627000Y-90747750D01*
X165373000Y-90747750D01*
X165214250Y-90589000D01*
X164510090Y-90589000D01*
X164276701Y-90685673D01*
X164098073Y-90864302D01*
X164001400Y-91097691D01*
X164001400Y-91421621D01*
X163840065Y-91180166D01*
X163436288Y-90910371D01*
X162960000Y-90815631D01*
X162483712Y-90910371D01*
X162079935Y-91180166D01*
X161810140Y-91583943D01*
X161715400Y-92060231D01*
X161664600Y-92060231D01*
X161569860Y-91583943D01*
X161300065Y-91180166D01*
X160896288Y-90910371D01*
X160420000Y-90815631D01*
X159943712Y-90910371D01*
X159539935Y-91180166D01*
X159270140Y-91583943D01*
X159175400Y-92060231D01*
X159124600Y-92060231D01*
X159029860Y-91583943D01*
X158760065Y-91180166D01*
X158356288Y-90910371D01*
X157880000Y-90815631D01*
X157403712Y-90910371D01*
X156999935Y-91180166D01*
X156730140Y-91583943D01*
X156635400Y-92060231D01*
X156584600Y-92060231D01*
X156501842Y-91644178D01*
X157398020Y-90748000D01*
X159590000Y-90748000D01*
X159784403Y-90709331D01*
X159949210Y-90599210D01*
X161114333Y-89434087D01*
X161360000Y-89482953D01*
X161735412Y-89408279D01*
X162053672Y-89195625D01*
X162266326Y-88877365D01*
X162341000Y-88501953D01*
X162341000Y-87138047D01*
X162266326Y-86762635D01*
X162053672Y-86444375D01*
X161868000Y-86320313D01*
X161868000Y-86316000D01*
X161829331Y-86121597D01*
X161737790Y-85984597D01*
X161737790Y-85237010D01*
X161784588Y-85268279D01*
X162160000Y-85342953D01*
X162535412Y-85268279D01*
X162853672Y-85055625D01*
X163066326Y-84737365D01*
X163141000Y-84361953D01*
X163141000Y-82998047D01*
X163066326Y-82622635D01*
X162853672Y-82304375D01*
X162668000Y-82180313D01*
X162668000Y-82176000D01*
X162629331Y-81981597D01*
X162537790Y-81844597D01*
X162537790Y-81344187D01*
X162604719Y-81379592D01*
X162642391Y-81383462D01*
X162833000Y-81258731D01*
X162833000Y-79667000D01*
X163087000Y-79667000D01*
X163087000Y-81258731D01*
X163277609Y-81383462D01*
X163315281Y-81379592D01*
X163743474Y-81153080D01*
X164052390Y-80779947D01*
X164195000Y-80317000D01*
X164195000Y-79667000D01*
X163087000Y-79667000D01*
X162833000Y-79667000D01*
X162813000Y-79667000D01*
X162813000Y-79413000D01*
X162833000Y-79413000D01*
X162833000Y-77821269D01*
X163087000Y-77821269D01*
X163087000Y-79413000D01*
X164195000Y-79413000D01*
X164195000Y-78763000D01*
X164052390Y-78300053D01*
X163743474Y-77926920D01*
X163315281Y-77700408D01*
X163277609Y-77696538D01*
X163087000Y-77821269D01*
X162833000Y-77821269D01*
X162642391Y-77696538D01*
X162604719Y-77700408D01*
X162537790Y-77735813D01*
X162537790Y-75935987D01*
X162583691Y-75955000D01*
X162676250Y-75955000D01*
X162835000Y-75796250D01*
X162835000Y-74397000D01*
X162813000Y-74397000D01*
X162813000Y-74143000D01*
X162835000Y-74143000D01*
X162835000Y-72743750D01*
X163085000Y-72743750D01*
X163085000Y-74143000D01*
X163107000Y-74143000D01*
X163107000Y-74397000D01*
X163085000Y-74397000D01*
X163085000Y-75796250D01*
X163243750Y-75955000D01*
X163336309Y-75955000D01*
X163569698Y-75858327D01*
X163748327Y-75679699D01*
X163845000Y-75446310D01*
X163845000Y-74568270D01*
X164108051Y-74744035D01*
X164560000Y-74833933D01*
X164738000Y-74798527D01*
X164738000Y-78266635D01*
X164593674Y-78482635D01*
X164519000Y-78858047D01*
X164519000Y-80221953D01*
X164593674Y-80597365D01*
X164806328Y-80915625D01*
X165124588Y-81128279D01*
X165500000Y-81202953D01*
X165875412Y-81128279D01*
X166193672Y-80915625D01*
X166406326Y-80597365D01*
X166481000Y-80221953D01*
X166481000Y-78858047D01*
X166406326Y-78482635D01*
X166262000Y-78266635D01*
X166262000Y-74060000D01*
X166203996Y-73768395D01*
X166130777Y-73658815D01*
X166038816Y-73521185D01*
X165860576Y-73342945D01*
X167204000Y-73342945D01*
X167204000Y-73797055D01*
X167293898Y-74249004D01*
X167549907Y-74632148D01*
X167933051Y-74888157D01*
X168385000Y-74978055D01*
X168836949Y-74888157D01*
X169220093Y-74632148D01*
X169476102Y-74249004D01*
X169566000Y-73797055D01*
X169566000Y-73342945D01*
X169476102Y-72890996D01*
X169220093Y-72507852D01*
X168836949Y-72251843D01*
X168385000Y-72161945D01*
X167933051Y-72251843D01*
X167549907Y-72507852D01*
X167293898Y-72890996D01*
X167204000Y-73342945D01*
X165860576Y-73342945D01*
X165741000Y-73223369D01*
X165741000Y-72587067D01*
X165651102Y-72135118D01*
X165395093Y-71751974D01*
X165011949Y-71495965D01*
X164560000Y-71406067D01*
X164108051Y-71495965D01*
X163724907Y-71751974D01*
X163468898Y-72135118D01*
X163379000Y-72587067D01*
X163379000Y-72602683D01*
X163336309Y-72585000D01*
X163243750Y-72585000D01*
X163085000Y-72743750D01*
X162835000Y-72743750D01*
X162676250Y-72585000D01*
X162583691Y-72585000D01*
X162350302Y-72681673D01*
X162200438Y-72831536D01*
X161910000Y-72831536D01*
X161768810Y-72858103D01*
X161761813Y-72862605D01*
X161761134Y-72862141D01*
X161610000Y-72831536D01*
X161110000Y-72831536D01*
X160968810Y-72858103D01*
X160961813Y-72862605D01*
X160961134Y-72862141D01*
X160810000Y-72831536D01*
X160310000Y-72831536D01*
X160168810Y-72858103D01*
X160161813Y-72862605D01*
X160161134Y-72862141D01*
X160010000Y-72831536D01*
X159510000Y-72831536D01*
X159368810Y-72858103D01*
X159361813Y-72862605D01*
X159361134Y-72862141D01*
X159210000Y-72831536D01*
X158710000Y-72831536D01*
X158568810Y-72858103D01*
X158561813Y-72862605D01*
X158561134Y-72862141D01*
X158410000Y-72831536D01*
X157910000Y-72831536D01*
X157768810Y-72858103D01*
X157761813Y-72862605D01*
X157761134Y-72862141D01*
X157610000Y-72831536D01*
X157110000Y-72831536D01*
X156968810Y-72858103D01*
X156961813Y-72862605D01*
X156961134Y-72862141D01*
X156810000Y-72831536D01*
X156310000Y-72831536D01*
X156168810Y-72858103D01*
X156161813Y-72862605D01*
X156161134Y-72862141D01*
X156010000Y-72831536D01*
X155510000Y-72831536D01*
X155368810Y-72858103D01*
X155361813Y-72862605D01*
X155361134Y-72862141D01*
X155210000Y-72831536D01*
X154710000Y-72831536D01*
X154568810Y-72858103D01*
X154561813Y-72862605D01*
X154561134Y-72862141D01*
X154410000Y-72831536D01*
X153910000Y-72831536D01*
X153768810Y-72858103D01*
X153761813Y-72862605D01*
X153761134Y-72862141D01*
X153610000Y-72831536D01*
X153110000Y-72831536D01*
X152968810Y-72858103D01*
X152961813Y-72862605D01*
X152961134Y-72862141D01*
X152810000Y-72831536D01*
X152310000Y-72831536D01*
X152168810Y-72858103D01*
X152161813Y-72862605D01*
X152161134Y-72862141D01*
X152010000Y-72831536D01*
X151510000Y-72831536D01*
X151368810Y-72858103D01*
X151361813Y-72862605D01*
X151361134Y-72862141D01*
X151210000Y-72831536D01*
X150710000Y-72831536D01*
X150568810Y-72858103D01*
X150561813Y-72862605D01*
X150561134Y-72862141D01*
X150410000Y-72831536D01*
X149910000Y-72831536D01*
X149858000Y-72841321D01*
X149858000Y-72539302D01*
X150049417Y-72348219D01*
X150175357Y-72044923D01*
X150175643Y-71716518D01*
X150050233Y-71413002D01*
X149818219Y-71180583D01*
X149514923Y-71054643D01*
X149186518Y-71054357D01*
X148883002Y-71179767D01*
X148650583Y-71411781D01*
X148524643Y-71715077D01*
X148524357Y-72043482D01*
X148649767Y-72346998D01*
X148842000Y-72539567D01*
X148842000Y-72838016D01*
X148810000Y-72831536D01*
X148310000Y-72831536D01*
X148168810Y-72858103D01*
X148161813Y-72862605D01*
X148161134Y-72862141D01*
X148010000Y-72831536D01*
X147518000Y-72831536D01*
X147518000Y-72359302D01*
X147709417Y-72168219D01*
X147835357Y-71864923D01*
X147835643Y-71536518D01*
X147710233Y-71233002D01*
X147478219Y-71000583D01*
X147174923Y-70874643D01*
X146846518Y-70874357D01*
X146543002Y-70999767D01*
X146310583Y-71231781D01*
X146184643Y-71535077D01*
X146184357Y-71863482D01*
X146309767Y-72166998D01*
X146502000Y-72359567D01*
X146502000Y-72850166D01*
X146410000Y-72831536D01*
X145910000Y-72831536D01*
X145768810Y-72858103D01*
X145761813Y-72862605D01*
X145761134Y-72862141D01*
X145610000Y-72831536D01*
X145110000Y-72831536D01*
X144968810Y-72858103D01*
X144961813Y-72862605D01*
X144961134Y-72862141D01*
X144810000Y-72831536D01*
X144310000Y-72831536D01*
X144268000Y-72839439D01*
X144268000Y-70870420D01*
X144270420Y-70868000D01*
X157330698Y-70868000D01*
X157521781Y-71059417D01*
X157825077Y-71185357D01*
X158153482Y-71185643D01*
X158456998Y-71060233D01*
X158689417Y-70828219D01*
X158815357Y-70524923D01*
X158815643Y-70196518D01*
X158690233Y-69893002D01*
X158458219Y-69660583D01*
X158154923Y-69534643D01*
X157826518Y-69534357D01*
X157523002Y-69659767D01*
X157330433Y-69852000D01*
X144060000Y-69852000D01*
X143865596Y-69890669D01*
X143700790Y-70000790D01*
X143400790Y-70300790D01*
X143290669Y-70465597D01*
X143252000Y-70660000D01*
X143252000Y-72840041D01*
X143210000Y-72831536D01*
X142710000Y-72831536D01*
X142568810Y-72858103D01*
X142561813Y-72862605D01*
X142561134Y-72862141D01*
X142410000Y-72831536D01*
X141910000Y-72831536D01*
X141768810Y-72858103D01*
X141761813Y-72862605D01*
X141761134Y-72862141D01*
X141610000Y-72831536D01*
X141110000Y-72831536D01*
X140968810Y-72858103D01*
X140961813Y-72862605D01*
X140961134Y-72862141D01*
X140810000Y-72831536D01*
X140310000Y-72831536D01*
X140168810Y-72858103D01*
X140161813Y-72862605D01*
X140161134Y-72862141D01*
X140010000Y-72831536D01*
X139510000Y-72831536D01*
X139368810Y-72858103D01*
X139239135Y-72941546D01*
X139152141Y-73068866D01*
X139121536Y-73220000D01*
X139121536Y-74990044D01*
X137830790Y-76280790D01*
X137720669Y-76445597D01*
X137682000Y-76640000D01*
X137682000Y-86006000D01*
X137720669Y-86200403D01*
X137830790Y-86365210D01*
X137868448Y-86402868D01*
X137806328Y-86444375D01*
X137593674Y-86762635D01*
X137519000Y-87138047D01*
X136802000Y-87138047D01*
X136802000Y-72437000D01*
X136743996Y-72145395D01*
X136578815Y-71898185D01*
X135097000Y-70416370D01*
X135097000Y-70086865D01*
X135170093Y-70038026D01*
X135426102Y-69654882D01*
X135516000Y-69202933D01*
X135516000Y-68137067D01*
X135426102Y-67685118D01*
X135170093Y-67301974D01*
X135097000Y-67253135D01*
X135097000Y-65147637D01*
X135395412Y-65088279D01*
X135713672Y-64875625D01*
X135926326Y-64557365D01*
X136001000Y-64181953D01*
X136001000Y-62818047D01*
X135926326Y-62442635D01*
X135782000Y-62226635D01*
X135782000Y-52195630D01*
X138155631Y-49822000D01*
X144100929Y-49822000D01*
X144299935Y-50119834D01*
X144703712Y-50389629D01*
X145180000Y-50484369D01*
X145656288Y-50389629D01*
X146060065Y-50119834D01*
X146329860Y-49716057D01*
X146424600Y-49239769D01*
X146424600Y-48880231D01*
X146329860Y-48403943D01*
X146060065Y-48000166D01*
X145847298Y-47858000D01*
X147052702Y-47858000D01*
X146839935Y-48000166D01*
X146570140Y-48403943D01*
X146475400Y-48880231D01*
X146475400Y-49239769D01*
X146570140Y-49716057D01*
X146839935Y-50119834D01*
X147243712Y-50389629D01*
X147720000Y-50484369D01*
X148196288Y-50389629D01*
X148600065Y-50119834D01*
X148869860Y-49716057D01*
X148964600Y-49239769D01*
X148964600Y-48880231D01*
X148869860Y-48403943D01*
X148600065Y-48000166D01*
X148387298Y-47858000D01*
X149592702Y-47858000D01*
X149379935Y-48000166D01*
X149110140Y-48403943D01*
X149015400Y-48880231D01*
X149015400Y-49239769D01*
X149110140Y-49716057D01*
X149379935Y-50119834D01*
X149710722Y-50340858D01*
X149089580Y-50962000D01*
X145840000Y-50962000D01*
X145677850Y-50994254D01*
X145645596Y-51000669D01*
X145480790Y-51110790D01*
X144720790Y-51870790D01*
X144610669Y-52035597D01*
X144572000Y-52230000D01*
X144572000Y-55865515D01*
X144610669Y-56059918D01*
X144720790Y-56224725D01*
X144892000Y-56395935D01*
X144892000Y-57722986D01*
X144755412Y-57631721D01*
X144380000Y-57557047D01*
X144004588Y-57631721D01*
X143957790Y-57662990D01*
X143957790Y-56775403D01*
X144049331Y-56638403D01*
X144088000Y-56444000D01*
X144088000Y-56439687D01*
X144273672Y-56315625D01*
X144486326Y-55997365D01*
X144561000Y-55621953D01*
X144561000Y-54258047D01*
X144486326Y-53882635D01*
X144273672Y-53564375D01*
X143955412Y-53351721D01*
X143580000Y-53277047D01*
X143204588Y-53351721D01*
X142886328Y-53564375D01*
X142673674Y-53882635D01*
X142599000Y-54258047D01*
X142599000Y-55621953D01*
X142673674Y-55997365D01*
X142886328Y-56315625D01*
X142981053Y-56378918D01*
X142980459Y-56379807D01*
X142941790Y-56574210D01*
X142941790Y-60255305D01*
X142980459Y-60449708D01*
X143090580Y-60614515D01*
X143222000Y-60745935D01*
X143222000Y-62049758D01*
X143015412Y-61911721D01*
X142640000Y-61837047D01*
X142264588Y-61911721D01*
X142158000Y-61982941D01*
X142158000Y-61124421D01*
X142199211Y-61083210D01*
X142309331Y-60918403D01*
X142348000Y-60724000D01*
X142348000Y-60719687D01*
X142533672Y-60595625D01*
X142746326Y-60277365D01*
X142821000Y-59901953D01*
X142821000Y-58538047D01*
X142746326Y-58162635D01*
X142533672Y-57844375D01*
X142215412Y-57631721D01*
X141840000Y-57557047D01*
X141464588Y-57631721D01*
X141417790Y-57662990D01*
X141417790Y-56775403D01*
X141509331Y-56638403D01*
X141548000Y-56444000D01*
X141548000Y-56439687D01*
X141733672Y-56315625D01*
X141946326Y-55997365D01*
X142021000Y-55621953D01*
X142021000Y-54258047D01*
X141946326Y-53882635D01*
X141733672Y-53564375D01*
X141415412Y-53351721D01*
X141040000Y-53277047D01*
X140664588Y-53351721D01*
X140346328Y-53564375D01*
X140133674Y-53882635D01*
X140059000Y-54258047D01*
X140059000Y-55621953D01*
X140133674Y-55997365D01*
X140346328Y-56315625D01*
X140441053Y-56378918D01*
X140440459Y-56379807D01*
X140401790Y-56574210D01*
X140401790Y-60959790D01*
X140440459Y-61154193D01*
X140522210Y-61276541D01*
X140522210Y-61942990D01*
X140475412Y-61911721D01*
X140100000Y-61837047D01*
X139724588Y-61911721D01*
X139677790Y-61942990D01*
X139677790Y-61055403D01*
X139769331Y-60918403D01*
X139808000Y-60724000D01*
X139808000Y-60719687D01*
X139993672Y-60595625D01*
X140206326Y-60277365D01*
X140281000Y-59901953D01*
X140281000Y-58538047D01*
X140206326Y-58162635D01*
X139993672Y-57844375D01*
X139675412Y-57631721D01*
X139300000Y-57557047D01*
X138924588Y-57631721D01*
X138758000Y-57743031D01*
X138758000Y-56904421D01*
X138859210Y-56803211D01*
X138969331Y-56638404D01*
X138987512Y-56547000D01*
X139008000Y-56444000D01*
X139008000Y-56439687D01*
X139193672Y-56315625D01*
X139406326Y-55997365D01*
X139481000Y-55621953D01*
X139481000Y-54258047D01*
X139406326Y-53882635D01*
X139193672Y-53564375D01*
X138875412Y-53351721D01*
X138500000Y-53277047D01*
X138124588Y-53351721D01*
X137806328Y-53564375D01*
X137593674Y-53882635D01*
X137519000Y-54258047D01*
X137519000Y-55621953D01*
X137593674Y-55997365D01*
X137806328Y-56315625D01*
X137873573Y-56360557D01*
X137780669Y-56499597D01*
X137742000Y-56694000D01*
X137742000Y-60135515D01*
X137780669Y-60329918D01*
X137890790Y-60494725D01*
X138122000Y-60725935D01*
X138122000Y-62036395D01*
X137935412Y-61911721D01*
X137560000Y-61837047D01*
X137184588Y-61911721D01*
X136866328Y-62124375D01*
X136653674Y-62442635D01*
X136579000Y-62818047D01*
X136579000Y-64181953D01*
X136653674Y-64557365D01*
X136798000Y-64773365D01*
X136798000Y-68520000D01*
X136856004Y-68811605D01*
X136956231Y-68961605D01*
X136979000Y-68995681D01*
X136979000Y-69652933D01*
X137068898Y-70104882D01*
X137324907Y-70488026D01*
X137708051Y-70744035D01*
X138160000Y-70833933D01*
X138611949Y-70744035D01*
X138995093Y-70488026D01*
X139251102Y-70104882D01*
X139341000Y-69652933D01*
X139341000Y-69365652D01*
X139358866Y-69377859D01*
X139510000Y-69408464D01*
X140010000Y-69408464D01*
X140151190Y-69381897D01*
X140158187Y-69377395D01*
X140158866Y-69377859D01*
X140310000Y-69408464D01*
X140810000Y-69408464D01*
X140951190Y-69381897D01*
X140958187Y-69377395D01*
X140958866Y-69377859D01*
X141110000Y-69408464D01*
X141610000Y-69408464D01*
X141751190Y-69381897D01*
X141758187Y-69377395D01*
X141758866Y-69377859D01*
X141910000Y-69408464D01*
X142410000Y-69408464D01*
X142551190Y-69381897D01*
X142558187Y-69377395D01*
X142558866Y-69377859D01*
X142710000Y-69408464D01*
X143210000Y-69408464D01*
X143351190Y-69381897D01*
X143358187Y-69377395D01*
X143358866Y-69377859D01*
X143510000Y-69408464D01*
X144010000Y-69408464D01*
X144151190Y-69381897D01*
X144158187Y-69377395D01*
X144158866Y-69377859D01*
X144310000Y-69408464D01*
X144810000Y-69408464D01*
X144951190Y-69381897D01*
X144958187Y-69377395D01*
X144958866Y-69377859D01*
X145110000Y-69408464D01*
X145610000Y-69408464D01*
X145751190Y-69381897D01*
X145758187Y-69377395D01*
X145758866Y-69377859D01*
X145910000Y-69408464D01*
X146410000Y-69408464D01*
X146551190Y-69381897D01*
X146558187Y-69377395D01*
X146558866Y-69377859D01*
X146710000Y-69408464D01*
X147210000Y-69408464D01*
X147351190Y-69381897D01*
X147358187Y-69377395D01*
X147358866Y-69377859D01*
X147510000Y-69408464D01*
X148010000Y-69408464D01*
X148151190Y-69381897D01*
X148158187Y-69377395D01*
X148158866Y-69377859D01*
X148310000Y-69408464D01*
X148810000Y-69408464D01*
X148951190Y-69381897D01*
X148958187Y-69377395D01*
X148958866Y-69377859D01*
X149110000Y-69408464D01*
X149610000Y-69408464D01*
X149751190Y-69381897D01*
X149758187Y-69377395D01*
X149758866Y-69377859D01*
X149910000Y-69408464D01*
X150410000Y-69408464D01*
X150551190Y-69381897D01*
X150558187Y-69377395D01*
X150558866Y-69377859D01*
X150710000Y-69408464D01*
X151210000Y-69408464D01*
X151351190Y-69381897D01*
X151358187Y-69377395D01*
X151358866Y-69377859D01*
X151510000Y-69408464D01*
X152010000Y-69408464D01*
X152151190Y-69381897D01*
X152158187Y-69377395D01*
X152158866Y-69377859D01*
X152310000Y-69408464D01*
X152810000Y-69408464D01*
X152951190Y-69381897D01*
X152958187Y-69377395D01*
X152958866Y-69377859D01*
X153110000Y-69408464D01*
X153610000Y-69408464D01*
X153751190Y-69381897D01*
X153758187Y-69377395D01*
X153758866Y-69377859D01*
X153910000Y-69408464D01*
X154410000Y-69408464D01*
X154551190Y-69381897D01*
X154558187Y-69377395D01*
X154558866Y-69377859D01*
X154710000Y-69408464D01*
X155210000Y-69408464D01*
X155351190Y-69381897D01*
X155358187Y-69377395D01*
X155358866Y-69377859D01*
X155510000Y-69408464D01*
X156010000Y-69408464D01*
X156151190Y-69381897D01*
X156158187Y-69377395D01*
X156158866Y-69377859D01*
X156310000Y-69408464D01*
X156810000Y-69408464D01*
X156951190Y-69381897D01*
X156958187Y-69377395D01*
X156958866Y-69377859D01*
X157110000Y-69408464D01*
X157610000Y-69408464D01*
X157751190Y-69381897D01*
X157758187Y-69377395D01*
X157758866Y-69377859D01*
X157910000Y-69408464D01*
X158410000Y-69408464D01*
X158551190Y-69381897D01*
X158558187Y-69377395D01*
X158558866Y-69377859D01*
X158710000Y-69408464D01*
X159210000Y-69408464D01*
X159351190Y-69381897D01*
X159358187Y-69377395D01*
X159358866Y-69377859D01*
X159510000Y-69408464D01*
X159892673Y-69408464D01*
X159886499Y-69439501D01*
X159886499Y-70044444D01*
X159786518Y-70044357D01*
X159483002Y-70169767D01*
X159250583Y-70401781D01*
X159124643Y-70705077D01*
X159124357Y-71033482D01*
X159249767Y-71336998D01*
X159481781Y-71569417D01*
X159785077Y-71695357D01*
X160113482Y-71695643D01*
X160416998Y-71570233D01*
X160649417Y-71338219D01*
X160740751Y-71118263D01*
X160811781Y-71189417D01*
X161115077Y-71315357D01*
X161443482Y-71315643D01*
X161746998Y-71190233D01*
X161979417Y-70958219D01*
X162105357Y-70654923D01*
X162105643Y-70326518D01*
X161980233Y-70023002D01*
X161788000Y-69830433D01*
X161788000Y-69383759D01*
X161910000Y-69408464D01*
X162200438Y-69408464D01*
X162350302Y-69558327D01*
X162583691Y-69655000D01*
X162676250Y-69655000D01*
X162835000Y-69496250D01*
X162835000Y-68097000D01*
X163085000Y-68097000D01*
X163085000Y-69496250D01*
X163243750Y-69655000D01*
X163336309Y-69655000D01*
X163569698Y-69558327D01*
X163748327Y-69379699D01*
X163845000Y-69146310D01*
X163845000Y-68797000D01*
X166950000Y-68797000D01*
X166950000Y-69297000D01*
X167107834Y-69836483D01*
X167460104Y-70274500D01*
X167953181Y-70544367D01*
X168035961Y-70561904D01*
X168258000Y-70439915D01*
X168258000Y-68797000D01*
X166950000Y-68797000D01*
X163845000Y-68797000D01*
X163845000Y-68255750D01*
X163686250Y-68097000D01*
X163085000Y-68097000D01*
X162835000Y-68097000D01*
X162813000Y-68097000D01*
X162813000Y-68043000D01*
X166950000Y-68043000D01*
X166950000Y-68543000D01*
X168258000Y-68543000D01*
X168258000Y-66900085D01*
X168035961Y-66778096D01*
X167953181Y-66795633D01*
X167460104Y-67065500D01*
X167107834Y-67503517D01*
X166950000Y-68043000D01*
X162813000Y-68043000D01*
X162813000Y-67843000D01*
X162835000Y-67843000D01*
X162835000Y-66443750D01*
X163085000Y-66443750D01*
X163085000Y-67843000D01*
X163686250Y-67843000D01*
X163845000Y-67684250D01*
X163845000Y-66793690D01*
X163748327Y-66560301D01*
X163569698Y-66381673D01*
X163336309Y-66285000D01*
X163243750Y-66285000D01*
X163085000Y-66443750D01*
X162835000Y-66443750D01*
X162676250Y-66285000D01*
X162583691Y-66285000D01*
X162537790Y-66304013D01*
X162537790Y-65304187D01*
X162604719Y-65339592D01*
X162642391Y-65343462D01*
X162833000Y-65218731D01*
X162833000Y-63627000D01*
X163087000Y-63627000D01*
X163087000Y-65218731D01*
X163277609Y-65343462D01*
X163315281Y-65339592D01*
X163743474Y-65113080D01*
X164052390Y-64739947D01*
X164195000Y-64277000D01*
X164195000Y-63627000D01*
X164265000Y-63627000D01*
X164265000Y-64277000D01*
X164407610Y-64739947D01*
X164716526Y-65113080D01*
X165144719Y-65339592D01*
X165182391Y-65343462D01*
X165373000Y-65218731D01*
X165373000Y-63627000D01*
X165627000Y-63627000D01*
X165627000Y-65218731D01*
X165817609Y-65343462D01*
X165855281Y-65339592D01*
X166283474Y-65113080D01*
X166592390Y-64739947D01*
X166735000Y-64277000D01*
X166735000Y-63627000D01*
X165627000Y-63627000D01*
X165373000Y-63627000D01*
X164265000Y-63627000D01*
X164195000Y-63627000D01*
X163087000Y-63627000D01*
X162833000Y-63627000D01*
X162813000Y-63627000D01*
X162813000Y-63373000D01*
X162833000Y-63373000D01*
X162833000Y-61781269D01*
X163087000Y-61781269D01*
X163087000Y-63373000D01*
X164195000Y-63373000D01*
X164195000Y-62723000D01*
X164265000Y-62723000D01*
X164265000Y-63373000D01*
X165373000Y-63373000D01*
X165373000Y-61781269D01*
X165627000Y-61781269D01*
X165627000Y-63373000D01*
X166735000Y-63373000D01*
X166735000Y-62723000D01*
X166592390Y-62260053D01*
X166283474Y-61886920D01*
X165855281Y-61660408D01*
X165817609Y-61656538D01*
X165627000Y-61781269D01*
X165373000Y-61781269D01*
X165182391Y-61656538D01*
X165144719Y-61660408D01*
X164716526Y-61886920D01*
X164407610Y-62260053D01*
X164265000Y-62723000D01*
X164195000Y-62723000D01*
X164052390Y-62260053D01*
X163743474Y-61886920D01*
X163315281Y-61660408D01*
X163277609Y-61656538D01*
X163087000Y-61781269D01*
X162833000Y-61781269D01*
X162642391Y-61656538D01*
X162604719Y-61660408D01*
X162537790Y-61695813D01*
X162537790Y-61055403D01*
X162629331Y-60918403D01*
X162668000Y-60724000D01*
X162668000Y-60719687D01*
X162853672Y-60595625D01*
X163066326Y-60277365D01*
X163141000Y-59901953D01*
X163141000Y-58538047D01*
X163066326Y-58162635D01*
X162853672Y-57844375D01*
X162535412Y-57631721D01*
X162160000Y-57557047D01*
X161784588Y-57631721D01*
X161737790Y-57662990D01*
X161737790Y-56775403D01*
X161829331Y-56638403D01*
X161868000Y-56444000D01*
X161868000Y-56439687D01*
X162053672Y-56315625D01*
X162266326Y-55997365D01*
X162341000Y-55621953D01*
X162341000Y-54258047D01*
X162266326Y-53882635D01*
X162053672Y-53564375D01*
X161735412Y-53351721D01*
X161360000Y-53277047D01*
X160984588Y-53351721D01*
X160666328Y-53564375D01*
X160453674Y-53882635D01*
X160379000Y-54258047D01*
X160379000Y-55621953D01*
X160453674Y-55997365D01*
X160666328Y-56315625D01*
X160761053Y-56378918D01*
X160760459Y-56379807D01*
X160721790Y-56574210D01*
X160721790Y-61897077D01*
X160420000Y-61837047D01*
X160044588Y-61911721D01*
X159997790Y-61942990D01*
X159997790Y-61055403D01*
X160089331Y-60918403D01*
X160128000Y-60724000D01*
X160128000Y-60719687D01*
X160313672Y-60595625D01*
X160526326Y-60277365D01*
X160601000Y-59901953D01*
X160601000Y-58538047D01*
X160526326Y-58162635D01*
X160313672Y-57844375D01*
X159995412Y-57631721D01*
X159620000Y-57557047D01*
X159244588Y-57631721D01*
X159197790Y-57662990D01*
X159197790Y-56775403D01*
X159289331Y-56638403D01*
X159328000Y-56444000D01*
X159328000Y-56439687D01*
X159513672Y-56315625D01*
X159726326Y-55997365D01*
X159801000Y-55621953D01*
X159801000Y-54258047D01*
X159726326Y-53882635D01*
X159513672Y-53564375D01*
X159195412Y-53351721D01*
X158820000Y-53277047D01*
X158444588Y-53351721D01*
X158126328Y-53564375D01*
X157913674Y-53882635D01*
X157839000Y-54258047D01*
X157839000Y-55621953D01*
X157913674Y-55997365D01*
X158126328Y-56315625D01*
X158221053Y-56378918D01*
X158220459Y-56379807D01*
X158181790Y-56574210D01*
X158181790Y-60255305D01*
X158220459Y-60449708D01*
X158330580Y-60614515D01*
X158452000Y-60735935D01*
X158452000Y-62043077D01*
X158255412Y-61911721D01*
X157880000Y-61837047D01*
X157504588Y-61911721D01*
X157457790Y-61942990D01*
X157457790Y-61055403D01*
X157549331Y-60918403D01*
X157588000Y-60724000D01*
X157588000Y-60719687D01*
X157773672Y-60595625D01*
X157986326Y-60277365D01*
X158061000Y-59901953D01*
X158061000Y-58538047D01*
X157986326Y-58162635D01*
X157773672Y-57844375D01*
X157455412Y-57631721D01*
X157080000Y-57557047D01*
X156704588Y-57631721D01*
X156657790Y-57662990D01*
X156657790Y-56775403D01*
X156749331Y-56638403D01*
X156788000Y-56444000D01*
X156788000Y-56439687D01*
X156973672Y-56315625D01*
X157186326Y-55997365D01*
X157261000Y-55621953D01*
X157261000Y-54258047D01*
X157186326Y-53882635D01*
X156973672Y-53564375D01*
X156655412Y-53351721D01*
X156280000Y-53277047D01*
X155904588Y-53351721D01*
X155586328Y-53564375D01*
X155373674Y-53882635D01*
X155299000Y-54258047D01*
X155299000Y-55621953D01*
X155373674Y-55997365D01*
X155586328Y-56315625D01*
X155681053Y-56378918D01*
X155680459Y-56379807D01*
X155641790Y-56574210D01*
X155641790Y-60255305D01*
X155680459Y-60449708D01*
X155790580Y-60614515D01*
X155962000Y-60785935D01*
X155962000Y-62076485D01*
X155715412Y-61911721D01*
X155340000Y-61837047D01*
X154964588Y-61911721D01*
X154917790Y-61942990D01*
X154917790Y-61055403D01*
X155009331Y-60918403D01*
X155048000Y-60724000D01*
X155048000Y-60719687D01*
X155233672Y-60595625D01*
X155446326Y-60277365D01*
X155521000Y-59901953D01*
X155521000Y-58538047D01*
X155446326Y-58162635D01*
X155233672Y-57844375D01*
X154915412Y-57631721D01*
X154540000Y-57557047D01*
X154164588Y-57631721D01*
X154117790Y-57662990D01*
X154117790Y-56775403D01*
X154209331Y-56638403D01*
X154248000Y-56444000D01*
X154248000Y-56439687D01*
X154433672Y-56315625D01*
X154646326Y-55997365D01*
X154721000Y-55621953D01*
X154721000Y-54258047D01*
X154646326Y-53882635D01*
X154433672Y-53564375D01*
X154115412Y-53351721D01*
X153740000Y-53277047D01*
X153364588Y-53351721D01*
X153317790Y-53382990D01*
X153317790Y-51953030D01*
X154878291Y-50392529D01*
X155340000Y-50484369D01*
X155816288Y-50389629D01*
X156220065Y-50119834D01*
X156489860Y-49716057D01*
X156584600Y-49239769D01*
X156584600Y-48880231D01*
X156489860Y-48403943D01*
X156220065Y-48000166D01*
X156007298Y-47858000D01*
X156111980Y-47858000D01*
X156718158Y-48464178D01*
X156635400Y-48880231D01*
X156635400Y-49239769D01*
X156730140Y-49716057D01*
X156999935Y-50119834D01*
X157403712Y-50389629D01*
X157880000Y-50484369D01*
X158356288Y-50389629D01*
X158760065Y-50119834D01*
X159029860Y-49716057D01*
X159124600Y-49239769D01*
X159124600Y-48880231D01*
X159175400Y-48880231D01*
X159175400Y-49239769D01*
X159270140Y-49716057D01*
X159539935Y-50119834D01*
X159943712Y-50389629D01*
X160420000Y-50484369D01*
X160896288Y-50389629D01*
X161300065Y-50119834D01*
X161569860Y-49716057D01*
X161664600Y-49239769D01*
X161664600Y-48880231D01*
X161715400Y-48880231D01*
X161715400Y-49239769D01*
X161810140Y-49716057D01*
X162079935Y-50119834D01*
X162483712Y-50389629D01*
X162960000Y-50484369D01*
X163436288Y-50389629D01*
X163840065Y-50119834D01*
X164001400Y-49878379D01*
X164001400Y-50202309D01*
X164098073Y-50435698D01*
X164276701Y-50614327D01*
X164510090Y-50711000D01*
X165214250Y-50711000D01*
X165373000Y-50552250D01*
X165373000Y-49187000D01*
X165627000Y-49187000D01*
X165627000Y-50552250D01*
X165785750Y-50711000D01*
X166489910Y-50711000D01*
X166723299Y-50614327D01*
X166901927Y-50435698D01*
X166998600Y-50202309D01*
X166998600Y-49345750D01*
X166839850Y-49187000D01*
X165627000Y-49187000D01*
X165373000Y-49187000D01*
X165353000Y-49187000D01*
X165353000Y-48933000D01*
X165373000Y-48933000D01*
X165373000Y-47567750D01*
X165627000Y-47567750D01*
X165627000Y-48933000D01*
X166839850Y-48933000D01*
X166998600Y-48774250D01*
X166998600Y-47917691D01*
X166901927Y-47684302D01*
X166723299Y-47505673D01*
X166489910Y-47409000D01*
X165785750Y-47409000D01*
X165627000Y-47567750D01*
X165373000Y-47567750D01*
X165214250Y-47409000D01*
X164510090Y-47409000D01*
X164276701Y-47505673D01*
X164098073Y-47684302D01*
X164001400Y-47917691D01*
X164001400Y-48241621D01*
X163840065Y-48000166D01*
X163436288Y-47730371D01*
X162960000Y-47635631D01*
X162483712Y-47730371D01*
X162079935Y-48000166D01*
X161810140Y-48403943D01*
X161715400Y-48880231D01*
X161664600Y-48880231D01*
X161569860Y-48403943D01*
X161300065Y-48000166D01*
X160896288Y-47730371D01*
X160420000Y-47635631D01*
X159943712Y-47730371D01*
X159539935Y-48000166D01*
X159270140Y-48403943D01*
X159175400Y-48880231D01*
X159124600Y-48880231D01*
X159029860Y-48403943D01*
X158760065Y-48000166D01*
X158356288Y-47730371D01*
X157880000Y-47635631D01*
X157418291Y-47727471D01*
X156681610Y-46990790D01*
X156586142Y-46927000D01*
X169347394Y-46927000D01*
X169773000Y-47352606D01*
X169773000Y-67882352D01*
X169662166Y-67503517D01*
X169309896Y-67065500D01*
X168816819Y-66795633D01*
X168734039Y-66778096D01*
X168512000Y-66900085D01*
X168512000Y-68543000D01*
X168532000Y-68543000D01*
X168532000Y-68797000D01*
X168512000Y-68797000D01*
X168512000Y-70439915D01*
X168734039Y-70561904D01*
X168816819Y-70544367D01*
X169309896Y-70274500D01*
X169662166Y-69836483D01*
X169773000Y-69457648D01*
X169773000Y-94747394D01*
X169347394Y-95173000D01*
X133452606Y-95173000D01*
X133027000Y-94747394D01*
X133027000Y-47352606D01*
X133452606Y-46927000D01*
X141161806Y-46927000D01*
X141054643Y-47185077D01*
X141054643Y-47185077D01*
G37*
X141054643Y-47185077D02*
X141054357Y-47513482D01*
X141179767Y-47816998D01*
X141411781Y-48049417D01*
X141715077Y-48175357D01*
X142043482Y-48175643D01*
X142346998Y-48050233D01*
X142539567Y-47858000D01*
X144512702Y-47858000D01*
X144299935Y-48000166D01*
X144100929Y-48298000D01*
X137840000Y-48298000D01*
X137548395Y-48356004D01*
X137301184Y-48521185D01*
X134481185Y-51341185D01*
X134316004Y-51588395D01*
X134258000Y-51880000D01*
X134258000Y-62226635D01*
X134113674Y-62442635D01*
X134039000Y-62818047D01*
X134039000Y-63403370D01*
X133796185Y-63646185D01*
X133631004Y-63893395D01*
X133573000Y-64185000D01*
X133573000Y-67253135D01*
X133499907Y-67301974D01*
X133243898Y-67685118D01*
X133154000Y-68137067D01*
X133154000Y-69202933D01*
X133243898Y-69654882D01*
X133499907Y-70038026D01*
X133573000Y-70086865D01*
X133573000Y-70732000D01*
X133631004Y-71023605D01*
X133768385Y-71229210D01*
X133796185Y-71270815D01*
X134774796Y-72249426D01*
X134335000Y-72161945D01*
X133883051Y-72251843D01*
X133499907Y-72507852D01*
X133243898Y-72890996D01*
X133154000Y-73342945D01*
X133154000Y-73797055D01*
X133243898Y-74249004D01*
X133499907Y-74632148D01*
X133883051Y-74888157D01*
X134335000Y-74978055D01*
X134786949Y-74888157D01*
X135170093Y-74632148D01*
X135278000Y-74470654D01*
X135278000Y-91590000D01*
X135336004Y-91881605D01*
X135473646Y-92087600D01*
X135501185Y-92128815D01*
X136151185Y-92778815D01*
X136398395Y-92943996D01*
X136690000Y-93002000D01*
X151720929Y-93002000D01*
X151919935Y-93299834D01*
X152323712Y-93569629D01*
X152800000Y-93664369D01*
X153276288Y-93569629D01*
X153680065Y-93299834D01*
X153949860Y-92896057D01*
X154044600Y-92419769D01*
X154044600Y-92060231D01*
X153949860Y-91583943D01*
X153680065Y-91180166D01*
X153276288Y-90910371D01*
X152800000Y-90815631D01*
X152323712Y-90910371D01*
X151919935Y-91180166D01*
X151720929Y-91478000D01*
X137005630Y-91478000D01*
X136802000Y-91274370D01*
X136802000Y-87138047D01*
X137519000Y-87138047D01*
X137519000Y-88501953D01*
X137593674Y-88877365D01*
X137806328Y-89195625D01*
X138124588Y-89408279D01*
X138500000Y-89482953D01*
X138875412Y-89408279D01*
X139193672Y-89195625D01*
X139406326Y-88877365D01*
X139481000Y-88501953D01*
X139481000Y-87138047D01*
X139406326Y-86762635D01*
X139193672Y-86444375D01*
X139008000Y-86320313D01*
X139008000Y-86316000D01*
X138991236Y-86231721D01*
X138969331Y-86121596D01*
X138859210Y-85956790D01*
X138698000Y-85795580D01*
X138698000Y-85116878D01*
X138924588Y-85268279D01*
X139300000Y-85342953D01*
X139675412Y-85268279D01*
X139993672Y-85055625D01*
X140206326Y-84737365D01*
X140281000Y-84361953D01*
X140281000Y-82998047D01*
X140206326Y-82622635D01*
X139993672Y-82304375D01*
X139808000Y-82180313D01*
X139808000Y-82176000D01*
X139769331Y-81981597D01*
X139677790Y-81844597D01*
X139677790Y-81097010D01*
X139724588Y-81128279D01*
X140100000Y-81202953D01*
X140475412Y-81128279D01*
X140742000Y-80950151D01*
X140742000Y-82094064D01*
X140550580Y-82285485D01*
X140440459Y-82450292D01*
X140401790Y-82644695D01*
X140401790Y-86185790D01*
X140440459Y-86380193D01*
X140441053Y-86381082D01*
X140346328Y-86444375D01*
X140133674Y-86762635D01*
X140059000Y-87138047D01*
X140059000Y-88501953D01*
X140133674Y-88877365D01*
X140346328Y-89195625D01*
X140664588Y-89408279D01*
X141040000Y-89482953D01*
X141415412Y-89408279D01*
X141733672Y-89195625D01*
X141946326Y-88877365D01*
X142021000Y-88501953D01*
X142021000Y-87138047D01*
X141946326Y-86762635D01*
X141733672Y-86444375D01*
X141548000Y-86320313D01*
X141548000Y-86316000D01*
X141509331Y-86121597D01*
X141417790Y-85984597D01*
X141417790Y-85237010D01*
X141464588Y-85268279D01*
X141840000Y-85342953D01*
X142215412Y-85268279D01*
X142533672Y-85055625D01*
X142746326Y-84737365D01*
X142821000Y-84361953D01*
X142821000Y-82998047D01*
X142746326Y-82622635D01*
X142533672Y-82304375D01*
X142348000Y-82180313D01*
X142348000Y-82176000D01*
X142309331Y-81981597D01*
X142217790Y-81844597D01*
X142217790Y-81097010D01*
X142264588Y-81128279D01*
X142640000Y-81202953D01*
X143015412Y-81128279D01*
X143152000Y-81037014D01*
X143152000Y-82224065D01*
X143090580Y-82285485D01*
X142980459Y-82450292D01*
X142941790Y-82644695D01*
X142941790Y-86185790D01*
X142980459Y-86380193D01*
X142981053Y-86381082D01*
X142886328Y-86444375D01*
X142673674Y-86762635D01*
X142599000Y-87138047D01*
X142599000Y-88501953D01*
X142673674Y-88877365D01*
X142886328Y-89195625D01*
X143204588Y-89408279D01*
X143580000Y-89482953D01*
X143955412Y-89408279D01*
X144273672Y-89195625D01*
X144486326Y-88877365D01*
X144561000Y-88501953D01*
X144561000Y-87138047D01*
X144486326Y-86762635D01*
X144273672Y-86444375D01*
X144088000Y-86320313D01*
X144088000Y-86316000D01*
X144049331Y-86121597D01*
X143957790Y-85984597D01*
X143957790Y-85237010D01*
X144004588Y-85268279D01*
X144380000Y-85342953D01*
X144755412Y-85268279D01*
X145073672Y-85055625D01*
X145286326Y-84737365D01*
X145361000Y-84361953D01*
X145361000Y-82998047D01*
X145286326Y-82622635D01*
X145073672Y-82304375D01*
X144888000Y-82180313D01*
X144888000Y-82176000D01*
X144861587Y-82043211D01*
X144849331Y-81981596D01*
X144739210Y-81816790D01*
X144728000Y-81805580D01*
X144728000Y-81077105D01*
X144804588Y-81128279D01*
X145180000Y-81202953D01*
X145555412Y-81128279D01*
X145602210Y-81097010D01*
X145602210Y-82327944D01*
X145520459Y-82450292D01*
X145481790Y-82644695D01*
X145481790Y-86185790D01*
X145520459Y-86380193D01*
X145521053Y-86381082D01*
X145426328Y-86444375D01*
X145213674Y-86762635D01*
X145139000Y-87138047D01*
X145139000Y-88501953D01*
X145213674Y-88877365D01*
X145426328Y-89195625D01*
X145744588Y-89408279D01*
X146120000Y-89482953D01*
X146495412Y-89408279D01*
X146813672Y-89195625D01*
X147026326Y-88877365D01*
X147101000Y-88501953D01*
X147101000Y-87138047D01*
X147026326Y-86762635D01*
X146813672Y-86444375D01*
X146628000Y-86320313D01*
X146628000Y-86316000D01*
X146589331Y-86121597D01*
X146497790Y-85984597D01*
X146497790Y-85237010D01*
X146544588Y-85268279D01*
X146920000Y-85342953D01*
X147295412Y-85268279D01*
X147613672Y-85055625D01*
X147826326Y-84737365D01*
X147901000Y-84361953D01*
X147901000Y-82998047D01*
X147826326Y-82622635D01*
X147613672Y-82304375D01*
X147428000Y-82180313D01*
X147428000Y-82176000D01*
X147389331Y-81981597D01*
X147358299Y-81935154D01*
X147279211Y-81816790D01*
X147168000Y-81705579D01*
X147168000Y-81010287D01*
X147344588Y-81128279D01*
X147720000Y-81202953D01*
X148095412Y-81128279D01*
X148362000Y-80950151D01*
X148362000Y-82094064D01*
X148170580Y-82285485D01*
X148060459Y-82450292D01*
X148021790Y-82644695D01*
X148021790Y-86185790D01*
X148060459Y-86380193D01*
X148061053Y-86381082D01*
X147966328Y-86444375D01*
X147753674Y-86762635D01*
X147679000Y-87138047D01*
X147679000Y-88501953D01*
X147753674Y-88877365D01*
X147966328Y-89195625D01*
X148284588Y-89408279D01*
X148660000Y-89482953D01*
X149035412Y-89408279D01*
X149353672Y-89195625D01*
X149566326Y-88877365D01*
X149641000Y-88501953D01*
X149641000Y-87138047D01*
X149566326Y-86762635D01*
X149353672Y-86444375D01*
X149168000Y-86320313D01*
X149168000Y-86316000D01*
X149129331Y-86121597D01*
X149037790Y-85984597D01*
X149037790Y-85237010D01*
X149084588Y-85268279D01*
X149460000Y-85342953D01*
X149835412Y-85268279D01*
X150153672Y-85055625D01*
X150366326Y-84737365D01*
X150441000Y-84361953D01*
X150441000Y-82998047D01*
X150366326Y-82622635D01*
X150153672Y-82304375D01*
X149968000Y-82180313D01*
X149968000Y-82176000D01*
X149929331Y-81981597D01*
X149835211Y-81840737D01*
X149835211Y-81095286D01*
X149884588Y-81128279D01*
X150260000Y-81202953D01*
X150635412Y-81128279D01*
X150862000Y-80976878D01*
X150862000Y-82134065D01*
X150690790Y-82305275D01*
X150580669Y-82470082D01*
X150542000Y-82664485D01*
X150542000Y-86166000D01*
X150580669Y-86360403D01*
X150596513Y-86384115D01*
X150506328Y-86444375D01*
X150293674Y-86762635D01*
X150219000Y-87138047D01*
X150219000Y-88501953D01*
X150293674Y-88877365D01*
X150506328Y-89195625D01*
X150824588Y-89408279D01*
X151200000Y-89482953D01*
X151575412Y-89408279D01*
X151893672Y-89195625D01*
X152106326Y-88877365D01*
X152181000Y-88501953D01*
X152181000Y-87138047D01*
X152106326Y-86762635D01*
X151893672Y-86444375D01*
X151708000Y-86320313D01*
X151708000Y-86316000D01*
X151669331Y-86121597D01*
X151559210Y-85956790D01*
X151558000Y-85955580D01*
X151558000Y-85223786D01*
X151624588Y-85268279D01*
X152000000Y-85342953D01*
X152375412Y-85268279D01*
X152693672Y-85055625D01*
X152906326Y-84737365D01*
X152981000Y-84361953D01*
X152981000Y-82998047D01*
X152906326Y-82622635D01*
X152693672Y-82304375D01*
X152508000Y-82180313D01*
X152508000Y-82176000D01*
X152469331Y-81981597D01*
X152377790Y-81844597D01*
X152377790Y-81097010D01*
X152424588Y-81128279D01*
X152800000Y-81202953D01*
X153175412Y-81128279D01*
X153342000Y-81016969D01*
X153342000Y-82194065D01*
X153250580Y-82285485D01*
X153140459Y-82450292D01*
X153101790Y-82644695D01*
X153101790Y-86185790D01*
X153140459Y-86380193D01*
X153141053Y-86381082D01*
X153046328Y-86444375D01*
X152833674Y-86762635D01*
X152759000Y-87138047D01*
X152759000Y-88501953D01*
X152833674Y-88877365D01*
X153046328Y-89195625D01*
X153364588Y-89408279D01*
X153740000Y-89482953D01*
X154115412Y-89408279D01*
X154433672Y-89195625D01*
X154646326Y-88877365D01*
X154721000Y-88501953D01*
X154721000Y-87138047D01*
X154646326Y-86762635D01*
X154433672Y-86444375D01*
X154248000Y-86320313D01*
X154248000Y-86316000D01*
X154209331Y-86121597D01*
X154117790Y-85984597D01*
X154117790Y-85237010D01*
X154164588Y-85268279D01*
X154540000Y-85342953D01*
X154915412Y-85268279D01*
X155233672Y-85055625D01*
X155446326Y-84737365D01*
X155521000Y-84361953D01*
X155521000Y-82998047D01*
X155446326Y-82622635D01*
X155233672Y-82304375D01*
X155048000Y-82180313D01*
X155048000Y-82176000D01*
X155009331Y-81981597D01*
X154917790Y-81844597D01*
X154917790Y-81097010D01*
X154964588Y-81128279D01*
X155340000Y-81202953D01*
X155715412Y-81128279D01*
X155822000Y-81057059D01*
X155822000Y-82254065D01*
X155790580Y-82285485D01*
X155680459Y-82450292D01*
X155641790Y-82644695D01*
X155641790Y-86185790D01*
X155680459Y-86380193D01*
X155681053Y-86381082D01*
X155586328Y-86444375D01*
X155373674Y-86762635D01*
X155299000Y-87138047D01*
X155299000Y-88501953D01*
X155373674Y-88877365D01*
X155586328Y-89195625D01*
X155904588Y-89408279D01*
X156280000Y-89482953D01*
X156655412Y-89408279D01*
X156973672Y-89195625D01*
X157186326Y-88877365D01*
X157261000Y-88501953D01*
X157261000Y-87138047D01*
X157186326Y-86762635D01*
X156973672Y-86444375D01*
X156788000Y-86320313D01*
X156788000Y-86316000D01*
X156749331Y-86121597D01*
X156657790Y-85984597D01*
X156657790Y-85237010D01*
X156704588Y-85268279D01*
X157080000Y-85342953D01*
X157455412Y-85268279D01*
X157773672Y-85055625D01*
X157986326Y-84737365D01*
X158061000Y-84361953D01*
X158061000Y-82998047D01*
X157986326Y-82622635D01*
X157773672Y-82304375D01*
X157588000Y-82180313D01*
X157588000Y-82176000D01*
X157549331Y-81981597D01*
X157457790Y-81844597D01*
X157457790Y-81097010D01*
X157504588Y-81128279D01*
X157880000Y-81202953D01*
X158255412Y-81128279D01*
X158452000Y-80996923D01*
X158452000Y-82164065D01*
X158330580Y-82285485D01*
X158220459Y-82450292D01*
X158181790Y-82644695D01*
X158181790Y-86185790D01*
X158220459Y-86380193D01*
X158221053Y-86381082D01*
X158126328Y-86444375D01*
X157913674Y-86762635D01*
X157839000Y-87138047D01*
X157839000Y-88501953D01*
X157913674Y-88877365D01*
X158126328Y-89195625D01*
X158444588Y-89408279D01*
X158820000Y-89482953D01*
X159195412Y-89408279D01*
X159513672Y-89195625D01*
X159726326Y-88877365D01*
X159801000Y-88501953D01*
X159801000Y-87138047D01*
X159726326Y-86762635D01*
X159513672Y-86444375D01*
X159328000Y-86320313D01*
X159328000Y-86316000D01*
X159289331Y-86121597D01*
X159197790Y-85984597D01*
X159197790Y-85237010D01*
X159244588Y-85268279D01*
X159620000Y-85342953D01*
X159995412Y-85268279D01*
X160313672Y-85055625D01*
X160526326Y-84737365D01*
X160601000Y-84361953D01*
X160601000Y-82998047D01*
X160526326Y-82622635D01*
X160313672Y-82304375D01*
X160128000Y-82180313D01*
X160128000Y-82176000D01*
X160089331Y-81981597D01*
X159997790Y-81844597D01*
X159997790Y-81097010D01*
X160044588Y-81128279D01*
X160420000Y-81202953D01*
X160795412Y-81128279D01*
X160852000Y-81090468D01*
X160852000Y-82313292D01*
X160760459Y-82450292D01*
X160721790Y-82644695D01*
X160721790Y-86185790D01*
X160760459Y-86380193D01*
X160761053Y-86381082D01*
X160666328Y-86444375D01*
X160453674Y-86762635D01*
X160379000Y-87138047D01*
X160379000Y-88501953D01*
X160417263Y-88694317D01*
X159379580Y-89732000D01*
X157187600Y-89732000D01*
X156993197Y-89770669D01*
X156828390Y-89880790D01*
X155801709Y-90907471D01*
X155340000Y-90815631D01*
X154863712Y-90910371D01*
X154459935Y-91180166D01*
X154190140Y-91583943D01*
X154095400Y-92060231D01*
X154095400Y-92419769D01*
X154190140Y-92896057D01*
X154459935Y-93299834D01*
X154863712Y-93569629D01*
X155340000Y-93664369D01*
X155816288Y-93569629D01*
X156220065Y-93299834D01*
X156489860Y-92896057D01*
X156584600Y-92419769D01*
X156584600Y-92060231D01*
X156635400Y-92060231D01*
X156635400Y-92419769D01*
X156730140Y-92896057D01*
X156999935Y-93299834D01*
X157403712Y-93569629D01*
X157880000Y-93664369D01*
X158356288Y-93569629D01*
X158760065Y-93299834D01*
X159029860Y-92896057D01*
X159124600Y-92419769D01*
X159124600Y-92060231D01*
X159175400Y-92060231D01*
X159175400Y-92419769D01*
X159270140Y-92896057D01*
X159539935Y-93299834D01*
X159943712Y-93569629D01*
X160420000Y-93664369D01*
X160896288Y-93569629D01*
X161300065Y-93299834D01*
X161569860Y-92896057D01*
X161664600Y-92419769D01*
X161664600Y-92060231D01*
X161715400Y-92060231D01*
X161715400Y-92419769D01*
X161810140Y-92896057D01*
X162079935Y-93299834D01*
X162483712Y-93569629D01*
X162960000Y-93664369D01*
X163436288Y-93569629D01*
X163840065Y-93299834D01*
X164001400Y-93058379D01*
X164001400Y-93382309D01*
X164098073Y-93615698D01*
X164276701Y-93794327D01*
X164510090Y-93891000D01*
X165214250Y-93891000D01*
X165373000Y-93732250D01*
X165373000Y-92367000D01*
X165627000Y-92367000D01*
X165627000Y-93732250D01*
X165785750Y-93891000D01*
X166489910Y-93891000D01*
X166723299Y-93794327D01*
X166901927Y-93615698D01*
X166998600Y-93382309D01*
X166998600Y-92525750D01*
X166839850Y-92367000D01*
X165627000Y-92367000D01*
X165373000Y-92367000D01*
X165353000Y-92367000D01*
X165353000Y-92113000D01*
X165373000Y-92113000D01*
X165373000Y-90747750D01*
X165627000Y-90747750D01*
X165627000Y-92113000D01*
X166839850Y-92113000D01*
X166998600Y-91954250D01*
X166998600Y-91097691D01*
X166901927Y-90864302D01*
X166723299Y-90685673D01*
X166489910Y-90589000D01*
X165785750Y-90589000D01*
X165627000Y-90747750D01*
X165373000Y-90747750D01*
X165214250Y-90589000D01*
X164510090Y-90589000D01*
X164276701Y-90685673D01*
X164098073Y-90864302D01*
X164001400Y-91097691D01*
X164001400Y-91421621D01*
X163840065Y-91180166D01*
X163436288Y-90910371D01*
X162960000Y-90815631D01*
X162483712Y-90910371D01*
X162079935Y-91180166D01*
X161810140Y-91583943D01*
X161715400Y-92060231D01*
X161664600Y-92060231D01*
X161569860Y-91583943D01*
X161300065Y-91180166D01*
X160896288Y-90910371D01*
X160420000Y-90815631D01*
X159943712Y-90910371D01*
X159539935Y-91180166D01*
X159270140Y-91583943D01*
X159175400Y-92060231D01*
X159124600Y-92060231D01*
X159029860Y-91583943D01*
X158760065Y-91180166D01*
X158356288Y-90910371D01*
X157880000Y-90815631D01*
X157403712Y-90910371D01*
X156999935Y-91180166D01*
X156730140Y-91583943D01*
X156635400Y-92060231D01*
X156584600Y-92060231D01*
X156501842Y-91644178D01*
X157398020Y-90748000D01*
X159590000Y-90748000D01*
X159784403Y-90709331D01*
X159949210Y-90599210D01*
X161114333Y-89434087D01*
X161360000Y-89482953D01*
X161735412Y-89408279D01*
X162053672Y-89195625D01*
X162266326Y-88877365D01*
X162341000Y-88501953D01*
X162341000Y-87138047D01*
X162266326Y-86762635D01*
X162053672Y-86444375D01*
X161868000Y-86320313D01*
X161868000Y-86316000D01*
X161829331Y-86121597D01*
X161737790Y-85984597D01*
X161737790Y-85237010D01*
X161784588Y-85268279D01*
X162160000Y-85342953D01*
X162535412Y-85268279D01*
X162853672Y-85055625D01*
X163066326Y-84737365D01*
X163141000Y-84361953D01*
X163141000Y-82998047D01*
X163066326Y-82622635D01*
X162853672Y-82304375D01*
X162668000Y-82180313D01*
X162668000Y-82176000D01*
X162629331Y-81981597D01*
X162537790Y-81844597D01*
X162537790Y-81344187D01*
X162604719Y-81379592D01*
X162642391Y-81383462D01*
X162833000Y-81258731D01*
X162833000Y-79667000D01*
X163087000Y-79667000D01*
X163087000Y-81258731D01*
X163277609Y-81383462D01*
X163315281Y-81379592D01*
X163743474Y-81153080D01*
X164052390Y-80779947D01*
X164195000Y-80317000D01*
X164195000Y-79667000D01*
X163087000Y-79667000D01*
X162833000Y-79667000D01*
X162813000Y-79667000D01*
X162813000Y-79413000D01*
X162833000Y-79413000D01*
X162833000Y-77821269D01*
X163087000Y-77821269D01*
X163087000Y-79413000D01*
X164195000Y-79413000D01*
X164195000Y-78763000D01*
X164052390Y-78300053D01*
X163743474Y-77926920D01*
X163315281Y-77700408D01*
X163277609Y-77696538D01*
X163087000Y-77821269D01*
X162833000Y-77821269D01*
X162642391Y-77696538D01*
X162604719Y-77700408D01*
X162537790Y-77735813D01*
X162537790Y-75935987D01*
X162583691Y-75955000D01*
X162676250Y-75955000D01*
X162835000Y-75796250D01*
X162835000Y-74397000D01*
X162813000Y-74397000D01*
X162813000Y-74143000D01*
X162835000Y-74143000D01*
X162835000Y-72743750D01*
X163085000Y-72743750D01*
X163085000Y-74143000D01*
X163107000Y-74143000D01*
X163107000Y-74397000D01*
X163085000Y-74397000D01*
X163085000Y-75796250D01*
X163243750Y-75955000D01*
X163336309Y-75955000D01*
X163569698Y-75858327D01*
X163748327Y-75679699D01*
X163845000Y-75446310D01*
X163845000Y-74568270D01*
X164108051Y-74744035D01*
X164560000Y-74833933D01*
X164738000Y-74798527D01*
X164738000Y-78266635D01*
X164593674Y-78482635D01*
X164519000Y-78858047D01*
X164519000Y-80221953D01*
X164593674Y-80597365D01*
X164806328Y-80915625D01*
X165124588Y-81128279D01*
X165500000Y-81202953D01*
X165875412Y-81128279D01*
X166193672Y-80915625D01*
X166406326Y-80597365D01*
X166481000Y-80221953D01*
X166481000Y-78858047D01*
X166406326Y-78482635D01*
X166262000Y-78266635D01*
X166262000Y-74060000D01*
X166203996Y-73768395D01*
X166130777Y-73658815D01*
X166038816Y-73521185D01*
X165860576Y-73342945D01*
X167204000Y-73342945D01*
X167204000Y-73797055D01*
X167293898Y-74249004D01*
X167549907Y-74632148D01*
X167933051Y-74888157D01*
X168385000Y-74978055D01*
X168836949Y-74888157D01*
X169220093Y-74632148D01*
X169476102Y-74249004D01*
X169566000Y-73797055D01*
X169566000Y-73342945D01*
X169476102Y-72890996D01*
X169220093Y-72507852D01*
X168836949Y-72251843D01*
X168385000Y-72161945D01*
X167933051Y-72251843D01*
X167549907Y-72507852D01*
X167293898Y-72890996D01*
X167204000Y-73342945D01*
X165860576Y-73342945D01*
X165741000Y-73223369D01*
X165741000Y-72587067D01*
X165651102Y-72135118D01*
X165395093Y-71751974D01*
X165011949Y-71495965D01*
X164560000Y-71406067D01*
X164108051Y-71495965D01*
X163724907Y-71751974D01*
X163468898Y-72135118D01*
X163379000Y-72587067D01*
X163379000Y-72602683D01*
X163336309Y-72585000D01*
X163243750Y-72585000D01*
X163085000Y-72743750D01*
X162835000Y-72743750D01*
X162676250Y-72585000D01*
X162583691Y-72585000D01*
X162350302Y-72681673D01*
X162200438Y-72831536D01*
X161910000Y-72831536D01*
X161768810Y-72858103D01*
X161761813Y-72862605D01*
X161761134Y-72862141D01*
X161610000Y-72831536D01*
X161110000Y-72831536D01*
X160968810Y-72858103D01*
X160961813Y-72862605D01*
X160961134Y-72862141D01*
X160810000Y-72831536D01*
X160310000Y-72831536D01*
X160168810Y-72858103D01*
X160161813Y-72862605D01*
X160161134Y-72862141D01*
X160010000Y-72831536D01*
X159510000Y-72831536D01*
X159368810Y-72858103D01*
X159361813Y-72862605D01*
X159361134Y-72862141D01*
X159210000Y-72831536D01*
X158710000Y-72831536D01*
X158568810Y-72858103D01*
X158561813Y-72862605D01*
X158561134Y-72862141D01*
X158410000Y-72831536D01*
X157910000Y-72831536D01*
X157768810Y-72858103D01*
X157761813Y-72862605D01*
X157761134Y-72862141D01*
X157610000Y-72831536D01*
X157110000Y-72831536D01*
X156968810Y-72858103D01*
X156961813Y-72862605D01*
X156961134Y-72862141D01*
X156810000Y-72831536D01*
X156310000Y-72831536D01*
X156168810Y-72858103D01*
X156161813Y-72862605D01*
X156161134Y-72862141D01*
X156010000Y-72831536D01*
X155510000Y-72831536D01*
X155368810Y-72858103D01*
X155361813Y-72862605D01*
X155361134Y-72862141D01*
X155210000Y-72831536D01*
X154710000Y-72831536D01*
X154568810Y-72858103D01*
X154561813Y-72862605D01*
X154561134Y-72862141D01*
X154410000Y-72831536D01*
X153910000Y-72831536D01*
X153768810Y-72858103D01*
X153761813Y-72862605D01*
X153761134Y-72862141D01*
X153610000Y-72831536D01*
X153110000Y-72831536D01*
X152968810Y-72858103D01*
X152961813Y-72862605D01*
X152961134Y-72862141D01*
X152810000Y-72831536D01*
X152310000Y-72831536D01*
X152168810Y-72858103D01*
X152161813Y-72862605D01*
X152161134Y-72862141D01*
X152010000Y-72831536D01*
X151510000Y-72831536D01*
X151368810Y-72858103D01*
X151361813Y-72862605D01*
X151361134Y-72862141D01*
X151210000Y-72831536D01*
X150710000Y-72831536D01*
X150568810Y-72858103D01*
X150561813Y-72862605D01*
X150561134Y-72862141D01*
X150410000Y-72831536D01*
X149910000Y-72831536D01*
X149858000Y-72841321D01*
X149858000Y-72539302D01*
X150049417Y-72348219D01*
X150175357Y-72044923D01*
X150175643Y-71716518D01*
X150050233Y-71413002D01*
X149818219Y-71180583D01*
X149514923Y-71054643D01*
X149186518Y-71054357D01*
X148883002Y-71179767D01*
X148650583Y-71411781D01*
X148524643Y-71715077D01*
X148524357Y-72043482D01*
X148649767Y-72346998D01*
X148842000Y-72539567D01*
X148842000Y-72838016D01*
X148810000Y-72831536D01*
X148310000Y-72831536D01*
X148168810Y-72858103D01*
X148161813Y-72862605D01*
X148161134Y-72862141D01*
X148010000Y-72831536D01*
X147518000Y-72831536D01*
X147518000Y-72359302D01*
X147709417Y-72168219D01*
X147835357Y-71864923D01*
X147835643Y-71536518D01*
X147710233Y-71233002D01*
X147478219Y-71000583D01*
X147174923Y-70874643D01*
X146846518Y-70874357D01*
X146543002Y-70999767D01*
X146310583Y-71231781D01*
X146184643Y-71535077D01*
X146184357Y-71863482D01*
X146309767Y-72166998D01*
X146502000Y-72359567D01*
X146502000Y-72850166D01*
X146410000Y-72831536D01*
X145910000Y-72831536D01*
X145768810Y-72858103D01*
X145761813Y-72862605D01*
X145761134Y-72862141D01*
X145610000Y-72831536D01*
X145110000Y-72831536D01*
X144968810Y-72858103D01*
X144961813Y-72862605D01*
X144961134Y-72862141D01*
X144810000Y-72831536D01*
X144310000Y-72831536D01*
X144268000Y-72839439D01*
X144268000Y-70870420D01*
X144270420Y-70868000D01*
X157330698Y-70868000D01*
X157521781Y-71059417D01*
X157825077Y-71185357D01*
X158153482Y-71185643D01*
X158456998Y-71060233D01*
X158689417Y-70828219D01*
X158815357Y-70524923D01*
X158815643Y-70196518D01*
X158690233Y-69893002D01*
X158458219Y-69660583D01*
X158154923Y-69534643D01*
X157826518Y-69534357D01*
X157523002Y-69659767D01*
X157330433Y-69852000D01*
X144060000Y-69852000D01*
X143865596Y-69890669D01*
X143700790Y-70000790D01*
X143400790Y-70300790D01*
X143290669Y-70465597D01*
X143252000Y-70660000D01*
X143252000Y-72840041D01*
X143210000Y-72831536D01*
X142710000Y-72831536D01*
X142568810Y-72858103D01*
X142561813Y-72862605D01*
X142561134Y-72862141D01*
X142410000Y-72831536D01*
X141910000Y-72831536D01*
X141768810Y-72858103D01*
X141761813Y-72862605D01*
X141761134Y-72862141D01*
X141610000Y-72831536D01*
X141110000Y-72831536D01*
X140968810Y-72858103D01*
X140961813Y-72862605D01*
X140961134Y-72862141D01*
X140810000Y-72831536D01*
X140310000Y-72831536D01*
X140168810Y-72858103D01*
X140161813Y-72862605D01*
X140161134Y-72862141D01*
X140010000Y-72831536D01*
X139510000Y-72831536D01*
X139368810Y-72858103D01*
X139239135Y-72941546D01*
X139152141Y-73068866D01*
X139121536Y-73220000D01*
X139121536Y-74990044D01*
X137830790Y-76280790D01*
X137720669Y-76445597D01*
X137682000Y-76640000D01*
X137682000Y-86006000D01*
X137720669Y-86200403D01*
X137830790Y-86365210D01*
X137868448Y-86402868D01*
X137806328Y-86444375D01*
X137593674Y-86762635D01*
X137519000Y-87138047D01*
X136802000Y-87138047D01*
X136802000Y-72437000D01*
X136743996Y-72145395D01*
X136578815Y-71898185D01*
X135097000Y-70416370D01*
X135097000Y-70086865D01*
X135170093Y-70038026D01*
X135426102Y-69654882D01*
X135516000Y-69202933D01*
X135516000Y-68137067D01*
X135426102Y-67685118D01*
X135170093Y-67301974D01*
X135097000Y-67253135D01*
X135097000Y-65147637D01*
X135395412Y-65088279D01*
X135713672Y-64875625D01*
X135926326Y-64557365D01*
X136001000Y-64181953D01*
X136001000Y-62818047D01*
X135926326Y-62442635D01*
X135782000Y-62226635D01*
X135782000Y-52195630D01*
X138155631Y-49822000D01*
X144100929Y-49822000D01*
X144299935Y-50119834D01*
X144703712Y-50389629D01*
X145180000Y-50484369D01*
X145656288Y-50389629D01*
X146060065Y-50119834D01*
X146329860Y-49716057D01*
X146424600Y-49239769D01*
X146424600Y-48880231D01*
X146329860Y-48403943D01*
X146060065Y-48000166D01*
X145847298Y-47858000D01*
X147052702Y-47858000D01*
X146839935Y-48000166D01*
X146570140Y-48403943D01*
X146475400Y-48880231D01*
X146475400Y-49239769D01*
X146570140Y-49716057D01*
X146839935Y-50119834D01*
X147243712Y-50389629D01*
X147720000Y-50484369D01*
X148196288Y-50389629D01*
X148600065Y-50119834D01*
X148869860Y-49716057D01*
X148964600Y-49239769D01*
X148964600Y-48880231D01*
X148869860Y-48403943D01*
X148600065Y-48000166D01*
X148387298Y-47858000D01*
X149592702Y-47858000D01*
X149379935Y-48000166D01*
X149110140Y-48403943D01*
X149015400Y-48880231D01*
X149015400Y-49239769D01*
X149110140Y-49716057D01*
X149379935Y-50119834D01*
X149710722Y-50340858D01*
X149089580Y-50962000D01*
X145840000Y-50962000D01*
X145677850Y-50994254D01*
X145645596Y-51000669D01*
X145480790Y-51110790D01*
X144720790Y-51870790D01*
X144610669Y-52035597D01*
X144572000Y-52230000D01*
X144572000Y-55865515D01*
X144610669Y-56059918D01*
X144720790Y-56224725D01*
X144892000Y-56395935D01*
X144892000Y-57722986D01*
X144755412Y-57631721D01*
X144380000Y-57557047D01*
X144004588Y-57631721D01*
X143957790Y-57662990D01*
X143957790Y-56775403D01*
X144049331Y-56638403D01*
X144088000Y-56444000D01*
X144088000Y-56439687D01*
X144273672Y-56315625D01*
X144486326Y-55997365D01*
X144561000Y-55621953D01*
X144561000Y-54258047D01*
X144486326Y-53882635D01*
X144273672Y-53564375D01*
X143955412Y-53351721D01*
X143580000Y-53277047D01*
X143204588Y-53351721D01*
X142886328Y-53564375D01*
X142673674Y-53882635D01*
X142599000Y-54258047D01*
X142599000Y-55621953D01*
X142673674Y-55997365D01*
X142886328Y-56315625D01*
X142981053Y-56378918D01*
X142980459Y-56379807D01*
X142941790Y-56574210D01*
X142941790Y-60255305D01*
X142980459Y-60449708D01*
X143090580Y-60614515D01*
X143222000Y-60745935D01*
X143222000Y-62049758D01*
X143015412Y-61911721D01*
X142640000Y-61837047D01*
X142264588Y-61911721D01*
X142158000Y-61982941D01*
X142158000Y-61124421D01*
X142199211Y-61083210D01*
X142309331Y-60918403D01*
X142348000Y-60724000D01*
X142348000Y-60719687D01*
X142533672Y-60595625D01*
X142746326Y-60277365D01*
X142821000Y-59901953D01*
X142821000Y-58538047D01*
X142746326Y-58162635D01*
X142533672Y-57844375D01*
X142215412Y-57631721D01*
X141840000Y-57557047D01*
X141464588Y-57631721D01*
X141417790Y-57662990D01*
X141417790Y-56775403D01*
X141509331Y-56638403D01*
X141548000Y-56444000D01*
X141548000Y-56439687D01*
X141733672Y-56315625D01*
X141946326Y-55997365D01*
X142021000Y-55621953D01*
X142021000Y-54258047D01*
X141946326Y-53882635D01*
X141733672Y-53564375D01*
X141415412Y-53351721D01*
X141040000Y-53277047D01*
X140664588Y-53351721D01*
X140346328Y-53564375D01*
X140133674Y-53882635D01*
X140059000Y-54258047D01*
X140059000Y-55621953D01*
X140133674Y-55997365D01*
X140346328Y-56315625D01*
X140441053Y-56378918D01*
X140440459Y-56379807D01*
X140401790Y-56574210D01*
X140401790Y-60959790D01*
X140440459Y-61154193D01*
X140522210Y-61276541D01*
X140522210Y-61942990D01*
X140475412Y-61911721D01*
X140100000Y-61837047D01*
X139724588Y-61911721D01*
X139677790Y-61942990D01*
X139677790Y-61055403D01*
X139769331Y-60918403D01*
X139808000Y-60724000D01*
X139808000Y-60719687D01*
X139993672Y-60595625D01*
X140206326Y-60277365D01*
X140281000Y-59901953D01*
X140281000Y-58538047D01*
X140206326Y-58162635D01*
X139993672Y-57844375D01*
X139675412Y-57631721D01*
X139300000Y-57557047D01*
X138924588Y-57631721D01*
X138758000Y-57743031D01*
X138758000Y-56904421D01*
X138859210Y-56803211D01*
X138969331Y-56638404D01*
X138987512Y-56547000D01*
X139008000Y-56444000D01*
X139008000Y-56439687D01*
X139193672Y-56315625D01*
X139406326Y-55997365D01*
X139481000Y-55621953D01*
X139481000Y-54258047D01*
X139406326Y-53882635D01*
X139193672Y-53564375D01*
X138875412Y-53351721D01*
X138500000Y-53277047D01*
X138124588Y-53351721D01*
X137806328Y-53564375D01*
X137593674Y-53882635D01*
X137519000Y-54258047D01*
X137519000Y-55621953D01*
X137593674Y-55997365D01*
X137806328Y-56315625D01*
X137873573Y-56360557D01*
X137780669Y-56499597D01*
X137742000Y-56694000D01*
X137742000Y-60135515D01*
X137780669Y-60329918D01*
X137890790Y-60494725D01*
X138122000Y-60725935D01*
X138122000Y-62036395D01*
X137935412Y-61911721D01*
X137560000Y-61837047D01*
X137184588Y-61911721D01*
X136866328Y-62124375D01*
X136653674Y-62442635D01*
X136579000Y-62818047D01*
X136579000Y-64181953D01*
X136653674Y-64557365D01*
X136798000Y-64773365D01*
X136798000Y-68520000D01*
X136856004Y-68811605D01*
X136956231Y-68961605D01*
X136979000Y-68995681D01*
X136979000Y-69652933D01*
X137068898Y-70104882D01*
X137324907Y-70488026D01*
X137708051Y-70744035D01*
X138160000Y-70833933D01*
X138611949Y-70744035D01*
X138995093Y-70488026D01*
X139251102Y-70104882D01*
X139341000Y-69652933D01*
X139341000Y-69365652D01*
X139358866Y-69377859D01*
X139510000Y-69408464D01*
X140010000Y-69408464D01*
X140151190Y-69381897D01*
X140158187Y-69377395D01*
X140158866Y-69377859D01*
X140310000Y-69408464D01*
X140810000Y-69408464D01*
X140951190Y-69381897D01*
X140958187Y-69377395D01*
X140958866Y-69377859D01*
X141110000Y-69408464D01*
X141610000Y-69408464D01*
X141751190Y-69381897D01*
X141758187Y-69377395D01*
X141758866Y-69377859D01*
X141910000Y-69408464D01*
X142410000Y-69408464D01*
X142551190Y-69381897D01*
X142558187Y-69377395D01*
X142558866Y-69377859D01*
X142710000Y-69408464D01*
X143210000Y-69408464D01*
X143351190Y-69381897D01*
X143358187Y-69377395D01*
X143358866Y-69377859D01*
X143510000Y-69408464D01*
X144010000Y-69408464D01*
X144151190Y-69381897D01*
X144158187Y-69377395D01*
X144158866Y-69377859D01*
X144310000Y-69408464D01*
X144810000Y-69408464D01*
X144951190Y-69381897D01*
X144958187Y-69377395D01*
X144958866Y-69377859D01*
X145110000Y-69408464D01*
X145610000Y-69408464D01*
X145751190Y-69381897D01*
X145758187Y-69377395D01*
X145758866Y-69377859D01*
X145910000Y-69408464D01*
X146410000Y-69408464D01*
X146551190Y-69381897D01*
X146558187Y-69377395D01*
X146558866Y-69377859D01*
X146710000Y-69408464D01*
X147210000Y-69408464D01*
X147351190Y-69381897D01*
X147358187Y-69377395D01*
X147358866Y-69377859D01*
X147510000Y-69408464D01*
X148010000Y-69408464D01*
X148151190Y-69381897D01*
X148158187Y-69377395D01*
X148158866Y-69377859D01*
X148310000Y-69408464D01*
X148810000Y-69408464D01*
X148951190Y-69381897D01*
X148958187Y-69377395D01*
X148958866Y-69377859D01*
X149110000Y-69408464D01*
X149610000Y-69408464D01*
X149751190Y-69381897D01*
X149758187Y-69377395D01*
X149758866Y-69377859D01*
X149910000Y-69408464D01*
X150410000Y-69408464D01*
X150551190Y-69381897D01*
X150558187Y-69377395D01*
X150558866Y-69377859D01*
X150710000Y-69408464D01*
X151210000Y-69408464D01*
X151351190Y-69381897D01*
X151358187Y-69377395D01*
X151358866Y-69377859D01*
X151510000Y-69408464D01*
X152010000Y-69408464D01*
X152151190Y-69381897D01*
X152158187Y-69377395D01*
X152158866Y-69377859D01*
X152310000Y-69408464D01*
X152810000Y-69408464D01*
X152951190Y-69381897D01*
X152958187Y-69377395D01*
X152958866Y-69377859D01*
X153110000Y-69408464D01*
X153610000Y-69408464D01*
X153751190Y-69381897D01*
X153758187Y-69377395D01*
X153758866Y-69377859D01*
X153910000Y-69408464D01*
X154410000Y-69408464D01*
X154551190Y-69381897D01*
X154558187Y-69377395D01*
X154558866Y-69377859D01*
X154710000Y-69408464D01*
X155210000Y-69408464D01*
X155351190Y-69381897D01*
X155358187Y-69377395D01*
X155358866Y-69377859D01*
X155510000Y-69408464D01*
X156010000Y-69408464D01*
X156151190Y-69381897D01*
X156158187Y-69377395D01*
X156158866Y-69377859D01*
X156310000Y-69408464D01*
X156810000Y-69408464D01*
X156951190Y-69381897D01*
X156958187Y-69377395D01*
X156958866Y-69377859D01*
X157110000Y-69408464D01*
X157610000Y-69408464D01*
X157751190Y-69381897D01*
X157758187Y-69377395D01*
X157758866Y-69377859D01*
X157910000Y-69408464D01*
X158410000Y-69408464D01*
X158551190Y-69381897D01*
X158558187Y-69377395D01*
X158558866Y-69377859D01*
X158710000Y-69408464D01*
X159210000Y-69408464D01*
X159351190Y-69381897D01*
X159358187Y-69377395D01*
X159358866Y-69377859D01*
X159510000Y-69408464D01*
X159892673Y-69408464D01*
X159886499Y-69439501D01*
X159886499Y-70044444D01*
X159786518Y-70044357D01*
X159483002Y-70169767D01*
X159250583Y-70401781D01*
X159124643Y-70705077D01*
X159124357Y-71033482D01*
X159249767Y-71336998D01*
X159481781Y-71569417D01*
X159785077Y-71695357D01*
X160113482Y-71695643D01*
X160416998Y-71570233D01*
X160649417Y-71338219D01*
X160740751Y-71118263D01*
X160811781Y-71189417D01*
X161115077Y-71315357D01*
X161443482Y-71315643D01*
X161746998Y-71190233D01*
X161979417Y-70958219D01*
X162105357Y-70654923D01*
X162105643Y-70326518D01*
X161980233Y-70023002D01*
X161788000Y-69830433D01*
X161788000Y-69383759D01*
X161910000Y-69408464D01*
X162200438Y-69408464D01*
X162350302Y-69558327D01*
X162583691Y-69655000D01*
X162676250Y-69655000D01*
X162835000Y-69496250D01*
X162835000Y-68097000D01*
X163085000Y-68097000D01*
X163085000Y-69496250D01*
X163243750Y-69655000D01*
X163336309Y-69655000D01*
X163569698Y-69558327D01*
X163748327Y-69379699D01*
X163845000Y-69146310D01*
X163845000Y-68797000D01*
X166950000Y-68797000D01*
X166950000Y-69297000D01*
X167107834Y-69836483D01*
X167460104Y-70274500D01*
X167953181Y-70544367D01*
X168035961Y-70561904D01*
X168258000Y-70439915D01*
X168258000Y-68797000D01*
X166950000Y-68797000D01*
X163845000Y-68797000D01*
X163845000Y-68255750D01*
X163686250Y-68097000D01*
X163085000Y-68097000D01*
X162835000Y-68097000D01*
X162813000Y-68097000D01*
X162813000Y-68043000D01*
X166950000Y-68043000D01*
X166950000Y-68543000D01*
X168258000Y-68543000D01*
X168258000Y-66900085D01*
X168035961Y-66778096D01*
X167953181Y-66795633D01*
X167460104Y-67065500D01*
X167107834Y-67503517D01*
X166950000Y-68043000D01*
X162813000Y-68043000D01*
X162813000Y-67843000D01*
X162835000Y-67843000D01*
X162835000Y-66443750D01*
X163085000Y-66443750D01*
X163085000Y-67843000D01*
X163686250Y-67843000D01*
X163845000Y-67684250D01*
X163845000Y-66793690D01*
X163748327Y-66560301D01*
X163569698Y-66381673D01*
X163336309Y-66285000D01*
X163243750Y-66285000D01*
X163085000Y-66443750D01*
X162835000Y-66443750D01*
X162676250Y-66285000D01*
X162583691Y-66285000D01*
X162537790Y-66304013D01*
X162537790Y-65304187D01*
X162604719Y-65339592D01*
X162642391Y-65343462D01*
X162833000Y-65218731D01*
X162833000Y-63627000D01*
X163087000Y-63627000D01*
X163087000Y-65218731D01*
X163277609Y-65343462D01*
X163315281Y-65339592D01*
X163743474Y-65113080D01*
X164052390Y-64739947D01*
X164195000Y-64277000D01*
X164195000Y-63627000D01*
X164265000Y-63627000D01*
X164265000Y-64277000D01*
X164407610Y-64739947D01*
X164716526Y-65113080D01*
X165144719Y-65339592D01*
X165182391Y-65343462D01*
X165373000Y-65218731D01*
X165373000Y-63627000D01*
X165627000Y-63627000D01*
X165627000Y-65218731D01*
X165817609Y-65343462D01*
X165855281Y-65339592D01*
X166283474Y-65113080D01*
X166592390Y-64739947D01*
X166735000Y-64277000D01*
X166735000Y-63627000D01*
X165627000Y-63627000D01*
X165373000Y-63627000D01*
X164265000Y-63627000D01*
X164195000Y-63627000D01*
X163087000Y-63627000D01*
X162833000Y-63627000D01*
X162813000Y-63627000D01*
X162813000Y-63373000D01*
X162833000Y-63373000D01*
X162833000Y-61781269D01*
X163087000Y-61781269D01*
X163087000Y-63373000D01*
X164195000Y-63373000D01*
X164195000Y-62723000D01*
X164265000Y-62723000D01*
X164265000Y-63373000D01*
X165373000Y-63373000D01*
X165373000Y-61781269D01*
X165627000Y-61781269D01*
X165627000Y-63373000D01*
X166735000Y-63373000D01*
X166735000Y-62723000D01*
X166592390Y-62260053D01*
X166283474Y-61886920D01*
X165855281Y-61660408D01*
X165817609Y-61656538D01*
X165627000Y-61781269D01*
X165373000Y-61781269D01*
X165182391Y-61656538D01*
X165144719Y-61660408D01*
X164716526Y-61886920D01*
X164407610Y-62260053D01*
X164265000Y-62723000D01*
X164195000Y-62723000D01*
X164052390Y-62260053D01*
X163743474Y-61886920D01*
X163315281Y-61660408D01*
X163277609Y-61656538D01*
X163087000Y-61781269D01*
X162833000Y-61781269D01*
X162642391Y-61656538D01*
X162604719Y-61660408D01*
X162537790Y-61695813D01*
X162537790Y-61055403D01*
X162629331Y-60918403D01*
X162668000Y-60724000D01*
X162668000Y-60719687D01*
X162853672Y-60595625D01*
X163066326Y-60277365D01*
X163141000Y-59901953D01*
X163141000Y-58538047D01*
X163066326Y-58162635D01*
X162853672Y-57844375D01*
X162535412Y-57631721D01*
X162160000Y-57557047D01*
X161784588Y-57631721D01*
X161737790Y-57662990D01*
X161737790Y-56775403D01*
X161829331Y-56638403D01*
X161868000Y-56444000D01*
X161868000Y-56439687D01*
X162053672Y-56315625D01*
X162266326Y-55997365D01*
X162341000Y-55621953D01*
X162341000Y-54258047D01*
X162266326Y-53882635D01*
X162053672Y-53564375D01*
X161735412Y-53351721D01*
X161360000Y-53277047D01*
X160984588Y-53351721D01*
X160666328Y-53564375D01*
X160453674Y-53882635D01*
X160379000Y-54258047D01*
X160379000Y-55621953D01*
X160453674Y-55997365D01*
X160666328Y-56315625D01*
X160761053Y-56378918D01*
X160760459Y-56379807D01*
X160721790Y-56574210D01*
X160721790Y-61897077D01*
X160420000Y-61837047D01*
X160044588Y-61911721D01*
X159997790Y-61942990D01*
X159997790Y-61055403D01*
X160089331Y-60918403D01*
X160128000Y-60724000D01*
X160128000Y-60719687D01*
X160313672Y-60595625D01*
X160526326Y-60277365D01*
X160601000Y-59901953D01*
X160601000Y-58538047D01*
X160526326Y-58162635D01*
X160313672Y-57844375D01*
X159995412Y-57631721D01*
X159620000Y-57557047D01*
X159244588Y-57631721D01*
X159197790Y-57662990D01*
X159197790Y-56775403D01*
X159289331Y-56638403D01*
X159328000Y-56444000D01*
X159328000Y-56439687D01*
X159513672Y-56315625D01*
X159726326Y-55997365D01*
X159801000Y-55621953D01*
X159801000Y-54258047D01*
X159726326Y-53882635D01*
X159513672Y-53564375D01*
X159195412Y-53351721D01*
X158820000Y-53277047D01*
X158444588Y-53351721D01*
X158126328Y-53564375D01*
X157913674Y-53882635D01*
X157839000Y-54258047D01*
X157839000Y-55621953D01*
X157913674Y-55997365D01*
X158126328Y-56315625D01*
X158221053Y-56378918D01*
X158220459Y-56379807D01*
X158181790Y-56574210D01*
X158181790Y-60255305D01*
X158220459Y-60449708D01*
X158330580Y-60614515D01*
X158452000Y-60735935D01*
X158452000Y-62043077D01*
X158255412Y-61911721D01*
X157880000Y-61837047D01*
X157504588Y-61911721D01*
X157457790Y-61942990D01*
X157457790Y-61055403D01*
X157549331Y-60918403D01*
X157588000Y-60724000D01*
X157588000Y-60719687D01*
X157773672Y-60595625D01*
X157986326Y-60277365D01*
X158061000Y-59901953D01*
X158061000Y-58538047D01*
X157986326Y-58162635D01*
X157773672Y-57844375D01*
X157455412Y-57631721D01*
X157080000Y-57557047D01*
X156704588Y-57631721D01*
X156657790Y-57662990D01*
X156657790Y-56775403D01*
X156749331Y-56638403D01*
X156788000Y-56444000D01*
X156788000Y-56439687D01*
X156973672Y-56315625D01*
X157186326Y-55997365D01*
X157261000Y-55621953D01*
X157261000Y-54258047D01*
X157186326Y-53882635D01*
X156973672Y-53564375D01*
X156655412Y-53351721D01*
X156280000Y-53277047D01*
X155904588Y-53351721D01*
X155586328Y-53564375D01*
X155373674Y-53882635D01*
X155299000Y-54258047D01*
X155299000Y-55621953D01*
X155373674Y-55997365D01*
X155586328Y-56315625D01*
X155681053Y-56378918D01*
X155680459Y-56379807D01*
X155641790Y-56574210D01*
X155641790Y-60255305D01*
X155680459Y-60449708D01*
X155790580Y-60614515D01*
X155962000Y-60785935D01*
X155962000Y-62076485D01*
X155715412Y-61911721D01*
X155340000Y-61837047D01*
X154964588Y-61911721D01*
X154917790Y-61942990D01*
X154917790Y-61055403D01*
X155009331Y-60918403D01*
X155048000Y-60724000D01*
X155048000Y-60719687D01*
X155233672Y-60595625D01*
X155446326Y-60277365D01*
X155521000Y-59901953D01*
X155521000Y-58538047D01*
X155446326Y-58162635D01*
X155233672Y-57844375D01*
X154915412Y-57631721D01*
X154540000Y-57557047D01*
X154164588Y-57631721D01*
X154117790Y-57662990D01*
X154117790Y-56775403D01*
X154209331Y-56638403D01*
X154248000Y-56444000D01*
X154248000Y-56439687D01*
X154433672Y-56315625D01*
X154646326Y-55997365D01*
X154721000Y-55621953D01*
X154721000Y-54258047D01*
X154646326Y-53882635D01*
X154433672Y-53564375D01*
X154115412Y-53351721D01*
X153740000Y-53277047D01*
X153364588Y-53351721D01*
X153317790Y-53382990D01*
X153317790Y-51953030D01*
X154878291Y-50392529D01*
X155340000Y-50484369D01*
X155816288Y-50389629D01*
X156220065Y-50119834D01*
X156489860Y-49716057D01*
X156584600Y-49239769D01*
X156584600Y-48880231D01*
X156489860Y-48403943D01*
X156220065Y-48000166D01*
X156007298Y-47858000D01*
X156111980Y-47858000D01*
X156718158Y-48464178D01*
X156635400Y-48880231D01*
X156635400Y-49239769D01*
X156730140Y-49716057D01*
X156999935Y-50119834D01*
X157403712Y-50389629D01*
X157880000Y-50484369D01*
X158356288Y-50389629D01*
X158760065Y-50119834D01*
X159029860Y-49716057D01*
X159124600Y-49239769D01*
X159124600Y-48880231D01*
X159175400Y-48880231D01*
X159175400Y-49239769D01*
X159270140Y-49716057D01*
X159539935Y-50119834D01*
X159943712Y-50389629D01*
X160420000Y-50484369D01*
X160896288Y-50389629D01*
X161300065Y-50119834D01*
X161569860Y-49716057D01*
X161664600Y-49239769D01*
X161664600Y-48880231D01*
X161715400Y-48880231D01*
X161715400Y-49239769D01*
X161810140Y-49716057D01*
X162079935Y-50119834D01*
X162483712Y-50389629D01*
X162960000Y-50484369D01*
X163436288Y-50389629D01*
X163840065Y-50119834D01*
X164001400Y-49878379D01*
X164001400Y-50202309D01*
X164098073Y-50435698D01*
X164276701Y-50614327D01*
X164510090Y-50711000D01*
X165214250Y-50711000D01*
X165373000Y-50552250D01*
X165373000Y-49187000D01*
X165627000Y-49187000D01*
X165627000Y-50552250D01*
X165785750Y-50711000D01*
X166489910Y-50711000D01*
X166723299Y-50614327D01*
X166901927Y-50435698D01*
X166998600Y-50202309D01*
X166998600Y-49345750D01*
X166839850Y-49187000D01*
X165627000Y-49187000D01*
X165373000Y-49187000D01*
X165353000Y-49187000D01*
X165353000Y-48933000D01*
X165373000Y-48933000D01*
X165373000Y-47567750D01*
X165627000Y-47567750D01*
X165627000Y-48933000D01*
X166839850Y-48933000D01*
X166998600Y-48774250D01*
X166998600Y-47917691D01*
X166901927Y-47684302D01*
X166723299Y-47505673D01*
X166489910Y-47409000D01*
X165785750Y-47409000D01*
X165627000Y-47567750D01*
X165373000Y-47567750D01*
X165214250Y-47409000D01*
X164510090Y-47409000D01*
X164276701Y-47505673D01*
X164098073Y-47684302D01*
X164001400Y-47917691D01*
X164001400Y-48241621D01*
X163840065Y-48000166D01*
X163436288Y-47730371D01*
X162960000Y-47635631D01*
X162483712Y-47730371D01*
X162079935Y-48000166D01*
X161810140Y-48403943D01*
X161715400Y-48880231D01*
X161664600Y-48880231D01*
X161569860Y-48403943D01*
X161300065Y-48000166D01*
X160896288Y-47730371D01*
X160420000Y-47635631D01*
X159943712Y-47730371D01*
X159539935Y-48000166D01*
X159270140Y-48403943D01*
X159175400Y-48880231D01*
X159124600Y-48880231D01*
X159029860Y-48403943D01*
X158760065Y-48000166D01*
X158356288Y-47730371D01*
X157880000Y-47635631D01*
X157418291Y-47727471D01*
X156681610Y-46990790D01*
X156586142Y-46927000D01*
X169347394Y-46927000D01*
X169773000Y-47352606D01*
X169773000Y-67882352D01*
X169662166Y-67503517D01*
X169309896Y-67065500D01*
X168816819Y-66795633D01*
X168734039Y-66778096D01*
X168512000Y-66900085D01*
X168512000Y-68543000D01*
X168532000Y-68543000D01*
X168532000Y-68797000D01*
X168512000Y-68797000D01*
X168512000Y-70439915D01*
X168734039Y-70561904D01*
X168816819Y-70544367D01*
X169309896Y-70274500D01*
X169662166Y-69836483D01*
X169773000Y-69457648D01*
X169773000Y-94747394D01*
X169347394Y-95173000D01*
X133452606Y-95173000D01*
X133027000Y-94747394D01*
X133027000Y-47352606D01*
X133452606Y-46927000D01*
X141161806Y-46927000D01*
X141054643Y-47185077D01*
M02*
