G04 #@! TF.FileFunction,Legend,Bot*
%FSLAX46Y46*%
G04 Gerber Fmt 4.6, Leading zero omitted, Abs format (unit mm)*
G04 Created by KiCad (PCBNEW 4.0.2-stable) date 02/06/2016 21:55:55*
%MOMM*%
G01*
G04 APERTURE LIST*
%ADD10C,0.100000*%
%ADD11C,0.200000*%
%ADD12C,0.150000*%
%ADD13C,0.010000*%
G04 APERTURE END LIST*
D10*
D11*
X160785239Y-73737143D02*
X160832858Y-73784762D01*
X160975715Y-73832381D01*
X161070953Y-73832381D01*
X161213811Y-73784762D01*
X161309049Y-73689524D01*
X161356668Y-73594286D01*
X161404287Y-73403810D01*
X161404287Y-73260952D01*
X161356668Y-73070476D01*
X161309049Y-72975238D01*
X161213811Y-72880000D01*
X161070953Y-72832381D01*
X160975715Y-72832381D01*
X160832858Y-72880000D01*
X160785239Y-72927619D01*
X160499525Y-72832381D02*
X159928096Y-72832381D01*
X160213811Y-73832381D02*
X160213811Y-72832381D01*
X159642382Y-73546667D02*
X159166191Y-73546667D01*
X159737620Y-73832381D02*
X159404287Y-72832381D01*
X159070953Y-73832381D01*
X158213810Y-72880000D02*
X158309048Y-72832381D01*
X158451905Y-72832381D01*
X158594763Y-72880000D01*
X158690001Y-72975238D01*
X158737620Y-73070476D01*
X158785239Y-73260952D01*
X158785239Y-73403810D01*
X158737620Y-73594286D01*
X158690001Y-73689524D01*
X158594763Y-73784762D01*
X158451905Y-73832381D01*
X158356667Y-73832381D01*
X158213810Y-73784762D01*
X158166191Y-73737143D01*
X158166191Y-73403810D01*
X158356667Y-73403810D01*
X157070953Y-72832381D02*
X156404286Y-73832381D01*
X156404286Y-72832381D02*
X157070953Y-73832381D01*
X155499524Y-73832381D02*
X156070953Y-73832381D01*
X155785239Y-73832381D02*
X155785239Y-72832381D01*
X155880477Y-72975238D01*
X155975715Y-73070476D01*
X156070953Y-73118095D01*
X154594762Y-72832381D02*
X155070953Y-72832381D01*
X155118572Y-73308571D01*
X155070953Y-73260952D01*
X154975715Y-73213333D01*
X154737619Y-73213333D01*
X154642381Y-73260952D01*
X154594762Y-73308571D01*
X154547143Y-73403810D01*
X154547143Y-73641905D01*
X154594762Y-73737143D01*
X154642381Y-73784762D01*
X154737619Y-73832381D01*
X154975715Y-73832381D01*
X155070953Y-73784762D01*
X155118572Y-73737143D01*
X153023333Y-73308571D02*
X152880476Y-73356190D01*
X152832857Y-73403810D01*
X152785238Y-73499048D01*
X152785238Y-73641905D01*
X152832857Y-73737143D01*
X152880476Y-73784762D01*
X152975714Y-73832381D01*
X153356667Y-73832381D01*
X153356667Y-72832381D01*
X153023333Y-72832381D01*
X152928095Y-72880000D01*
X152880476Y-72927619D01*
X152832857Y-73022857D01*
X152832857Y-73118095D01*
X152880476Y-73213333D01*
X152928095Y-73260952D01*
X153023333Y-73308571D01*
X153356667Y-73308571D01*
X152356667Y-73832381D02*
X152356667Y-73165714D01*
X152356667Y-73356190D02*
X152309048Y-73260952D01*
X152261429Y-73213333D01*
X152166191Y-73165714D01*
X152070952Y-73165714D01*
X151356666Y-73784762D02*
X151451904Y-73832381D01*
X151642381Y-73832381D01*
X151737619Y-73784762D01*
X151785238Y-73689524D01*
X151785238Y-73308571D01*
X151737619Y-73213333D01*
X151642381Y-73165714D01*
X151451904Y-73165714D01*
X151356666Y-73213333D01*
X151309047Y-73308571D01*
X151309047Y-73403810D01*
X151785238Y-73499048D01*
X150451904Y-73832381D02*
X150451904Y-73308571D01*
X150499523Y-73213333D01*
X150594761Y-73165714D01*
X150785238Y-73165714D01*
X150880476Y-73213333D01*
X150451904Y-73784762D02*
X150547142Y-73832381D01*
X150785238Y-73832381D01*
X150880476Y-73784762D01*
X150928095Y-73689524D01*
X150928095Y-73594286D01*
X150880476Y-73499048D01*
X150785238Y-73451429D01*
X150547142Y-73451429D01*
X150451904Y-73403810D01*
X149975714Y-73832381D02*
X149975714Y-72832381D01*
X149880476Y-73451429D02*
X149594761Y-73832381D01*
X149594761Y-73165714D02*
X149975714Y-73546667D01*
X149023333Y-73832381D02*
X149118571Y-73784762D01*
X149166190Y-73737143D01*
X149213809Y-73641905D01*
X149213809Y-73356190D01*
X149166190Y-73260952D01*
X149118571Y-73213333D01*
X149023333Y-73165714D01*
X148880475Y-73165714D01*
X148785237Y-73213333D01*
X148737618Y-73260952D01*
X148689999Y-73356190D01*
X148689999Y-73641905D01*
X148737618Y-73737143D01*
X148785237Y-73784762D01*
X148880475Y-73832381D01*
X149023333Y-73832381D01*
X147832856Y-73165714D02*
X147832856Y-73832381D01*
X148261428Y-73165714D02*
X148261428Y-73689524D01*
X148213809Y-73784762D01*
X148118571Y-73832381D01*
X147975713Y-73832381D01*
X147880475Y-73784762D01*
X147832856Y-73737143D01*
X147499523Y-73165714D02*
X147118571Y-73165714D01*
X147356666Y-72832381D02*
X147356666Y-73689524D01*
X147309047Y-73784762D01*
X147213809Y-73832381D01*
X147118571Y-73832381D01*
X145689998Y-73308571D02*
X145547141Y-73356190D01*
X145499522Y-73403810D01*
X145451903Y-73499048D01*
X145451903Y-73641905D01*
X145499522Y-73737143D01*
X145547141Y-73784762D01*
X145642379Y-73832381D01*
X146023332Y-73832381D01*
X146023332Y-72832381D01*
X145689998Y-72832381D01*
X145594760Y-72880000D01*
X145547141Y-72927619D01*
X145499522Y-73022857D01*
X145499522Y-73118095D01*
X145547141Y-73213333D01*
X145594760Y-73260952D01*
X145689998Y-73308571D01*
X146023332Y-73308571D01*
X145023332Y-73832381D02*
X145023332Y-73165714D01*
X145023332Y-73356190D02*
X144975713Y-73260952D01*
X144928094Y-73213333D01*
X144832856Y-73165714D01*
X144737617Y-73165714D01*
X143975712Y-73832381D02*
X143975712Y-72832381D01*
X143975712Y-73784762D02*
X144070950Y-73832381D01*
X144261427Y-73832381D01*
X144356665Y-73784762D01*
X144404284Y-73737143D01*
X144451903Y-73641905D01*
X144451903Y-73356190D01*
X144404284Y-73260952D01*
X144356665Y-73213333D01*
X144261427Y-73165714D01*
X144070950Y-73165714D01*
X143975712Y-73213333D01*
X143499522Y-73737143D02*
X143451903Y-73784762D01*
X143499522Y-73832381D01*
X143547141Y-73784762D01*
X143499522Y-73737143D01*
X143499522Y-73832381D01*
X141689998Y-73832381D02*
X142023332Y-73356190D01*
X142261427Y-73832381D02*
X142261427Y-72832381D01*
X141880474Y-72832381D01*
X141785236Y-72880000D01*
X141737617Y-72927619D01*
X141689998Y-73022857D01*
X141689998Y-73165714D01*
X141737617Y-73260952D01*
X141785236Y-73308571D01*
X141880474Y-73356190D01*
X142261427Y-73356190D01*
X140880474Y-73784762D02*
X140975712Y-73832381D01*
X141166189Y-73832381D01*
X141261427Y-73784762D01*
X141309046Y-73689524D01*
X141309046Y-73308571D01*
X141261427Y-73213333D01*
X141166189Y-73165714D01*
X140975712Y-73165714D01*
X140880474Y-73213333D01*
X140832855Y-73308571D01*
X140832855Y-73403810D01*
X141309046Y-73499048D01*
X140499522Y-73165714D02*
X140261427Y-73832381D01*
X140023331Y-73165714D01*
X139642379Y-73737143D02*
X139594760Y-73784762D01*
X139642379Y-73832381D01*
X139689998Y-73784762D01*
X139642379Y-73737143D01*
X139642379Y-73832381D01*
X138451903Y-73546667D02*
X137975712Y-73546667D01*
X138547141Y-73832381D02*
X138213808Y-72832381D01*
X137880474Y-73832381D01*
X160785239Y-74765714D02*
X160594763Y-75432381D01*
X160404286Y-74956190D01*
X160213810Y-75432381D01*
X160023334Y-74765714D01*
X159737620Y-74765714D02*
X159547144Y-75432381D01*
X159356667Y-74956190D01*
X159166191Y-75432381D01*
X158975715Y-74765714D01*
X158690001Y-74765714D02*
X158499525Y-75432381D01*
X158309048Y-74956190D01*
X158118572Y-75432381D01*
X157928096Y-74765714D01*
X157547144Y-75337143D02*
X157499525Y-75384762D01*
X157547144Y-75432381D01*
X157594763Y-75384762D01*
X157547144Y-75337143D01*
X157547144Y-75432381D01*
X156642382Y-75384762D02*
X156737620Y-75432381D01*
X156928097Y-75432381D01*
X157023335Y-75384762D01*
X157070954Y-75337143D01*
X157118573Y-75241905D01*
X157118573Y-74956190D01*
X157070954Y-74860952D01*
X157023335Y-74813333D01*
X156928097Y-74765714D01*
X156737620Y-74765714D01*
X156642382Y-74813333D01*
X156213811Y-75432381D02*
X156213811Y-74765714D01*
X156213811Y-74956190D02*
X156166192Y-74860952D01*
X156118573Y-74813333D01*
X156023335Y-74765714D01*
X155928096Y-74765714D01*
X155213810Y-75384762D02*
X155309048Y-75432381D01*
X155499525Y-75432381D01*
X155594763Y-75384762D01*
X155642382Y-75289524D01*
X155642382Y-74908571D01*
X155594763Y-74813333D01*
X155499525Y-74765714D01*
X155309048Y-74765714D01*
X155213810Y-74813333D01*
X155166191Y-74908571D01*
X155166191Y-75003810D01*
X155642382Y-75099048D01*
X154309048Y-75432381D02*
X154309048Y-74908571D01*
X154356667Y-74813333D01*
X154451905Y-74765714D01*
X154642382Y-74765714D01*
X154737620Y-74813333D01*
X154309048Y-75384762D02*
X154404286Y-75432381D01*
X154642382Y-75432381D01*
X154737620Y-75384762D01*
X154785239Y-75289524D01*
X154785239Y-75194286D01*
X154737620Y-75099048D01*
X154642382Y-75051429D01*
X154404286Y-75051429D01*
X154309048Y-75003810D01*
X153975715Y-74765714D02*
X153594763Y-74765714D01*
X153832858Y-74432381D02*
X153832858Y-75289524D01*
X153785239Y-75384762D01*
X153690001Y-75432381D01*
X153594763Y-75432381D01*
X153261429Y-75432381D02*
X153261429Y-74765714D01*
X153261429Y-74432381D02*
X153309048Y-74480000D01*
X153261429Y-74527619D01*
X153213810Y-74480000D01*
X153261429Y-74432381D01*
X153261429Y-74527619D01*
X152880477Y-74765714D02*
X152642382Y-75432381D01*
X152404286Y-74765714D01*
X151642381Y-75384762D02*
X151737619Y-75432381D01*
X151928096Y-75432381D01*
X152023334Y-75384762D01*
X152070953Y-75289524D01*
X152070953Y-74908571D01*
X152023334Y-74813333D01*
X151928096Y-74765714D01*
X151737619Y-74765714D01*
X151642381Y-74813333D01*
X151594762Y-74908571D01*
X151594762Y-75003810D01*
X152070953Y-75099048D01*
X151166191Y-75051429D02*
X150404286Y-75051429D01*
X150070953Y-74765714D02*
X149690001Y-74765714D01*
X149928096Y-74432381D02*
X149928096Y-75289524D01*
X149880477Y-75384762D01*
X149785239Y-75432381D01*
X149690001Y-75432381D01*
X148975714Y-75384762D02*
X149070952Y-75432381D01*
X149261429Y-75432381D01*
X149356667Y-75384762D01*
X149404286Y-75289524D01*
X149404286Y-74908571D01*
X149356667Y-74813333D01*
X149261429Y-74765714D01*
X149070952Y-74765714D01*
X148975714Y-74813333D01*
X148928095Y-74908571D01*
X148928095Y-75003810D01*
X149404286Y-75099048D01*
X148070952Y-75384762D02*
X148166190Y-75432381D01*
X148356667Y-75432381D01*
X148451905Y-75384762D01*
X148499524Y-75337143D01*
X148547143Y-75241905D01*
X148547143Y-74956190D01*
X148499524Y-74860952D01*
X148451905Y-74813333D01*
X148356667Y-74765714D01*
X148166190Y-74765714D01*
X148070952Y-74813333D01*
X147642381Y-75432381D02*
X147642381Y-74432381D01*
X147213809Y-75432381D02*
X147213809Y-74908571D01*
X147261428Y-74813333D01*
X147356666Y-74765714D01*
X147499524Y-74765714D01*
X147594762Y-74813333D01*
X147642381Y-74860952D01*
X146737619Y-74765714D02*
X146737619Y-75432381D01*
X146737619Y-74860952D02*
X146690000Y-74813333D01*
X146594762Y-74765714D01*
X146451904Y-74765714D01*
X146356666Y-74813333D01*
X146309047Y-74908571D01*
X146309047Y-75432381D01*
X145690000Y-75432381D02*
X145785238Y-75384762D01*
X145832857Y-75337143D01*
X145880476Y-75241905D01*
X145880476Y-74956190D01*
X145832857Y-74860952D01*
X145785238Y-74813333D01*
X145690000Y-74765714D01*
X145547142Y-74765714D01*
X145451904Y-74813333D01*
X145404285Y-74860952D01*
X145356666Y-74956190D01*
X145356666Y-75241905D01*
X145404285Y-75337143D01*
X145451904Y-75384762D01*
X145547142Y-75432381D01*
X145690000Y-75432381D01*
X144785238Y-75432381D02*
X144880476Y-75384762D01*
X144928095Y-75289524D01*
X144928095Y-74432381D01*
X144261428Y-75432381D02*
X144356666Y-75384762D01*
X144404285Y-75337143D01*
X144451904Y-75241905D01*
X144451904Y-74956190D01*
X144404285Y-74860952D01*
X144356666Y-74813333D01*
X144261428Y-74765714D01*
X144118570Y-74765714D01*
X144023332Y-74813333D01*
X143975713Y-74860952D01*
X143928094Y-74956190D01*
X143928094Y-75241905D01*
X143975713Y-75337143D01*
X144023332Y-75384762D01*
X144118570Y-75432381D01*
X144261428Y-75432381D01*
X143070951Y-74765714D02*
X143070951Y-75575238D01*
X143118570Y-75670476D01*
X143166189Y-75718095D01*
X143261428Y-75765714D01*
X143404285Y-75765714D01*
X143499523Y-75718095D01*
X143070951Y-75384762D02*
X143166189Y-75432381D01*
X143356666Y-75432381D01*
X143451904Y-75384762D01*
X143499523Y-75337143D01*
X143547142Y-75241905D01*
X143547142Y-74956190D01*
X143499523Y-74860952D01*
X143451904Y-74813333D01*
X143356666Y-74765714D01*
X143166189Y-74765714D01*
X143070951Y-74813333D01*
X142594761Y-75432381D02*
X142594761Y-74765714D01*
X142594761Y-74432381D02*
X142642380Y-74480000D01*
X142594761Y-74527619D01*
X142547142Y-74480000D01*
X142594761Y-74432381D01*
X142594761Y-74527619D01*
X141737618Y-75384762D02*
X141832856Y-75432381D01*
X142023333Y-75432381D01*
X142118571Y-75384762D01*
X142166190Y-75289524D01*
X142166190Y-74908571D01*
X142118571Y-74813333D01*
X142023333Y-74765714D01*
X141832856Y-74765714D01*
X141737618Y-74813333D01*
X141689999Y-74908571D01*
X141689999Y-75003810D01*
X142166190Y-75099048D01*
X141309047Y-75384762D02*
X141213809Y-75432381D01*
X141023333Y-75432381D01*
X140928094Y-75384762D01*
X140880475Y-75289524D01*
X140880475Y-75241905D01*
X140928094Y-75146667D01*
X141023333Y-75099048D01*
X141166190Y-75099048D01*
X141261428Y-75051429D01*
X141309047Y-74956190D01*
X141309047Y-74908571D01*
X141261428Y-74813333D01*
X141166190Y-74765714D01*
X141023333Y-74765714D01*
X140928094Y-74813333D01*
X140451904Y-75337143D02*
X140404285Y-75384762D01*
X140451904Y-75432381D01*
X140499523Y-75384762D01*
X140451904Y-75337143D01*
X140451904Y-75432381D01*
X139547142Y-75432381D02*
X139547142Y-74432381D01*
X139547142Y-75384762D02*
X139642380Y-75432381D01*
X139832857Y-75432381D01*
X139928095Y-75384762D01*
X139975714Y-75337143D01*
X140023333Y-75241905D01*
X140023333Y-74956190D01*
X139975714Y-74860952D01*
X139928095Y-74813333D01*
X139832857Y-74765714D01*
X139642380Y-74765714D01*
X139547142Y-74813333D01*
X138689999Y-75384762D02*
X138785237Y-75432381D01*
X138975714Y-75432381D01*
X139070952Y-75384762D01*
X139118571Y-75289524D01*
X139118571Y-74908571D01*
X139070952Y-74813333D01*
X138975714Y-74765714D01*
X138785237Y-74765714D01*
X138689999Y-74813333D01*
X138642380Y-74908571D01*
X138642380Y-75003810D01*
X139118571Y-75099048D01*
D12*
X164230000Y-47790000D02*
X143910000Y-47790000D01*
X143910000Y-47790000D02*
X143910000Y-50330000D01*
X143910000Y-50330000D02*
X164230000Y-50330000D01*
X167050000Y-47510000D02*
X165500000Y-47510000D01*
X164230000Y-47790000D02*
X164230000Y-50330000D01*
X165500000Y-50610000D02*
X167050000Y-50610000D01*
X167050000Y-50610000D02*
X167050000Y-47510000D01*
X164230000Y-90970000D02*
X151530000Y-90970000D01*
X151530000Y-90970000D02*
X151530000Y-93510000D01*
X151530000Y-93510000D02*
X164230000Y-93510000D01*
X167050000Y-90690000D02*
X165500000Y-90690000D01*
X164230000Y-90970000D02*
X164230000Y-93510000D01*
X165500000Y-93790000D02*
X167050000Y-93790000D01*
X167050000Y-93790000D02*
X167050000Y-90690000D01*
D13*
G36*
X133743333Y-95463333D02*
X150676666Y-95463333D01*
X150676666Y-95092917D01*
X144294916Y-95092917D01*
X144026962Y-95092917D01*
X143938446Y-95092657D01*
X143868246Y-95091780D01*
X143813518Y-95090137D01*
X143771419Y-95087580D01*
X143739104Y-95083958D01*
X143713727Y-95079126D01*
X143701822Y-95075934D01*
X143628228Y-95044501D01*
X143570231Y-94999583D01*
X143528853Y-94943046D01*
X143505115Y-94876751D01*
X143500036Y-94802564D01*
X143512386Y-94730148D01*
X143533360Y-94684812D01*
X143567486Y-94641647D01*
X143608126Y-94608275D01*
X143627221Y-94598293D01*
X143663649Y-94583073D01*
X143630395Y-94562019D01*
X143588238Y-94523156D01*
X143559562Y-94469904D01*
X143546881Y-94413129D01*
X143547536Y-94340067D01*
X143565785Y-94278720D01*
X143601775Y-94228820D01*
X143655650Y-94190099D01*
X143672901Y-94181696D01*
X143690581Y-94174161D01*
X143707931Y-94168259D01*
X143727812Y-94163748D01*
X143753015Y-94160395D01*
X143466745Y-94160395D01*
X143466502Y-94164496D01*
X143459811Y-94176839D01*
X143443514Y-94204899D01*
X143419016Y-94246313D01*
X143387723Y-94298721D01*
X143351042Y-94359763D01*
X143310378Y-94427078D01*
X143295899Y-94450968D01*
X143130750Y-94723227D01*
X143130750Y-95092917D01*
X142908500Y-95092917D01*
X140654250Y-95092917D01*
X140453166Y-95092917D01*
X140453166Y-94473985D01*
X140260999Y-94783451D01*
X140068831Y-95092917D01*
X139849916Y-95092917D01*
X139849916Y-94626800D01*
X139722339Y-94626800D01*
X139713160Y-94730695D01*
X139706418Y-94764402D01*
X139676716Y-94852342D01*
X139630849Y-94931866D01*
X139571432Y-95000209D01*
X139501077Y-95054605D01*
X139422398Y-95092285D01*
X139386939Y-95102593D01*
X139338976Y-95109759D01*
X139279971Y-95112631D01*
X139218124Y-95111349D01*
X139161637Y-95106052D01*
X139122636Y-95098109D01*
X139048841Y-95066268D01*
X138980802Y-95018145D01*
X138927801Y-94961755D01*
X138902476Y-94921330D01*
X138878721Y-94871735D01*
X138859358Y-94820182D01*
X138847609Y-94775417D01*
X137003000Y-94775417D01*
X137003000Y-94821351D01*
X136995909Y-94866383D01*
X136977189Y-94917630D01*
X136950673Y-94967282D01*
X136920191Y-95007526D01*
X136904784Y-95021586D01*
X136850508Y-95058628D01*
X136797267Y-95084622D01*
X136739838Y-95100994D01*
X136672999Y-95109169D01*
X136591529Y-95110573D01*
X136579666Y-95110334D01*
X136523693Y-95108451D01*
X136482748Y-95105164D01*
X136450698Y-95099405D01*
X136430265Y-95092917D01*
X136197946Y-95092917D01*
X135978162Y-95092917D01*
X135944666Y-94992375D01*
X135911171Y-94891833D01*
X135566159Y-94891833D01*
X135530816Y-94992375D01*
X135495474Y-95092917D01*
X135386695Y-95092917D01*
X135341626Y-95092198D01*
X135305701Y-95090259D01*
X135283330Y-95087420D01*
X135278090Y-95084979D01*
X135281732Y-95073749D01*
X135292094Y-95044699D01*
X135308443Y-94999818D01*
X135330044Y-94941098D01*
X135356162Y-94870528D01*
X135386064Y-94790098D01*
X135419015Y-94701798D01*
X135450888Y-94616667D01*
X135623512Y-94156292D01*
X135842959Y-94156292D01*
X135997116Y-94563750D01*
X136031387Y-94654312D01*
X136064162Y-94740885D01*
X136094496Y-94820970D01*
X136121440Y-94892071D01*
X136144050Y-94951688D01*
X136161378Y-94997326D01*
X136172477Y-95026487D01*
X136174609Y-95032062D01*
X136197946Y-95092917D01*
X136430265Y-95092917D01*
X136421409Y-95090105D01*
X136391839Y-95077597D01*
X136321274Y-95035825D01*
X136267618Y-94982273D01*
X136231689Y-94917829D01*
X136224392Y-94896171D01*
X136212444Y-94822215D01*
X136219379Y-94751849D01*
X136244198Y-94688150D01*
X136285901Y-94634193D01*
X136317977Y-94608203D01*
X136338393Y-94594555D01*
X136356184Y-94583807D01*
X136374973Y-94574628D01*
X136398384Y-94565688D01*
X136430043Y-94555656D01*
X136473573Y-94543203D01*
X136532597Y-94526999D01*
X136558328Y-94519994D01*
X136627142Y-94500778D01*
X136678187Y-94485026D01*
X136714298Y-94471372D01*
X136738314Y-94458449D01*
X136753071Y-94444890D01*
X136761407Y-94429329D01*
X136763906Y-94420968D01*
X136763599Y-94383160D01*
X136745519Y-94349093D01*
X136713047Y-94321779D01*
X136669564Y-94304231D01*
X136627291Y-94299242D01*
X136562100Y-94306441D01*
X136510956Y-94327354D01*
X136475146Y-94361168D01*
X136455957Y-94407072D01*
X136455898Y-94407365D01*
X136450021Y-94436750D01*
X136345510Y-94436750D01*
X136294733Y-94436480D01*
X136262291Y-94433659D01*
X136245356Y-94425271D01*
X136241102Y-94408297D01*
X136246701Y-94379720D01*
X136257472Y-94342790D01*
X136287026Y-94279005D01*
X136333514Y-94224919D01*
X136394426Y-94181866D01*
X136467254Y-94151181D01*
X136549488Y-94134196D01*
X136638618Y-94132246D01*
X136651667Y-94133264D01*
X136717035Y-94141470D01*
X136768596Y-94154116D01*
X136813604Y-94173493D01*
X136851083Y-94196264D01*
X136907189Y-94242243D01*
X136944302Y-94293322D01*
X136964536Y-94353031D01*
X136969424Y-94393906D01*
X136968983Y-94457988D01*
X136958240Y-94508454D01*
X136935401Y-94551067D01*
X136912014Y-94578535D01*
X136883292Y-94604920D01*
X136851095Y-94627030D01*
X136811498Y-94646690D01*
X136760576Y-94665728D01*
X136694401Y-94685969D01*
X136661175Y-94695252D01*
X136607829Y-94710306D01*
X136558421Y-94725026D01*
X136518468Y-94737721D01*
X136493543Y-94746674D01*
X136452354Y-94772705D01*
X136428321Y-94806448D01*
X136421506Y-94843738D01*
X136431974Y-94880404D01*
X136459788Y-94912280D01*
X136490751Y-94929993D01*
X136526335Y-94939018D01*
X136573856Y-94943698D01*
X136624512Y-94943881D01*
X136669497Y-94939413D01*
X136692748Y-94933493D01*
X136738897Y-94905570D01*
X136774767Y-94863399D01*
X136793046Y-94820624D01*
X136804429Y-94775417D01*
X137003000Y-94775417D01*
X138847609Y-94775417D01*
X138847206Y-94773882D01*
X138844500Y-94748736D01*
X138845219Y-94736598D01*
X138850014Y-94728935D01*
X138862845Y-94724719D01*
X138887668Y-94722919D01*
X138928443Y-94722507D01*
X138945374Y-94722500D01*
X138997682Y-94723507D01*
X139030980Y-94726703D01*
X139047337Y-94732351D01*
X139049712Y-94735729D01*
X139067978Y-94794475D01*
X139088548Y-94842307D01*
X139100828Y-94862969D01*
X139139147Y-94900221D01*
X139189124Y-94923787D01*
X139246150Y-94933526D01*
X139305617Y-94929297D01*
X139362917Y-94910958D01*
X139413441Y-94878368D01*
X139419615Y-94872751D01*
X139459973Y-94820940D01*
X139487886Y-94756892D01*
X139503477Y-94684934D01*
X139506872Y-94609394D01*
X139498195Y-94534600D01*
X139477570Y-94464879D01*
X139445124Y-94404561D01*
X139404878Y-94361042D01*
X139354263Y-94332036D01*
X139294263Y-94315890D01*
X139233527Y-94314415D01*
X139206379Y-94319524D01*
X139161407Y-94339442D01*
X139118533Y-94371268D01*
X139084246Y-94409284D01*
X139066519Y-94442740D01*
X139054525Y-94479083D01*
X138954804Y-94479083D01*
X138908454Y-94478887D01*
X138879289Y-94477604D01*
X138863330Y-94474195D01*
X138856595Y-94467620D01*
X138855103Y-94456837D01*
X138855083Y-94453022D01*
X138858754Y-94428696D01*
X138868190Y-94394015D01*
X138876603Y-94369444D01*
X138914251Y-94297784D01*
X138967922Y-94237245D01*
X139034906Y-94189090D01*
X139112496Y-94154580D01*
X139197983Y-94134979D01*
X139288660Y-94131548D01*
X139365208Y-94141733D01*
X139453461Y-94170634D01*
X139531187Y-94216440D01*
X139597255Y-94277085D01*
X139650535Y-94350507D01*
X139689896Y-94434642D01*
X139714208Y-94527427D01*
X139722339Y-94626800D01*
X139849916Y-94626800D01*
X139849916Y-94151000D01*
X140051000Y-94151000D01*
X140051000Y-94778313D01*
X140245004Y-94467302D01*
X140439009Y-94156292D01*
X140546629Y-94153275D01*
X140654250Y-94150259D01*
X140654250Y-95092917D01*
X142908500Y-95092917D01*
X142908500Y-94726881D01*
X142739219Y-94446878D01*
X142697322Y-94377321D01*
X142659195Y-94313533D01*
X142626167Y-94257774D01*
X142599567Y-94212306D01*
X142580722Y-94179390D01*
X142570961Y-94161290D01*
X142569886Y-94158591D01*
X142579730Y-94155527D01*
X142606476Y-94153526D01*
X142645876Y-94152779D01*
X142687187Y-94153299D01*
X142804541Y-94156292D01*
X142907255Y-94330917D01*
X142939632Y-94384853D01*
X142968868Y-94431472D01*
X142993160Y-94468063D01*
X143010703Y-94491919D01*
X143019694Y-94500329D01*
X143019998Y-94500250D01*
X143028362Y-94489866D01*
X143045566Y-94464186D01*
X143069731Y-94426166D01*
X143098979Y-94378761D01*
X143131013Y-94325625D01*
X143232001Y-94156292D01*
X143351978Y-94153287D01*
X143404944Y-94152402D01*
X143439748Y-94153099D01*
X143459360Y-94155666D01*
X143466745Y-94160395D01*
X143753015Y-94160395D01*
X143753083Y-94160386D01*
X143786602Y-94157928D01*
X143831230Y-94156134D01*
X143889826Y-94154760D01*
X143965249Y-94153563D01*
X144011812Y-94152934D01*
X144294916Y-94149208D01*
X144294916Y-95092917D01*
X150676666Y-95092917D01*
X150676666Y-91759855D01*
X150539083Y-91759855D01*
X150539083Y-93695917D01*
X149928268Y-93695917D01*
X149876792Y-93783229D01*
X149850146Y-93825857D01*
X149814896Y-93878644D01*
X149775493Y-93935087D01*
X149736386Y-93988685D01*
X149733709Y-93992250D01*
X149588795Y-94167705D01*
X149430169Y-94327976D01*
X149259114Y-94472479D01*
X149076917Y-94600632D01*
X148884863Y-94711853D01*
X148684236Y-94805560D01*
X148476321Y-94881170D01*
X148262403Y-94938102D01*
X148043768Y-94975772D01*
X147821700Y-94993599D01*
X147597484Y-94991000D01*
X147538708Y-94986883D01*
X147307398Y-94957993D01*
X147084921Y-94909974D01*
X146870503Y-94842560D01*
X146663375Y-94755486D01*
X146462763Y-94648484D01*
X146347216Y-94575944D01*
X146159081Y-94438802D01*
X145986665Y-94287507D01*
X145829733Y-94121817D01*
X145688051Y-93941490D01*
X145592164Y-93797318D01*
X145529453Y-93695917D01*
X133880916Y-93695917D01*
X133880976Y-91767104D01*
X133881041Y-91509799D01*
X133881220Y-91269039D01*
X133881511Y-91045182D01*
X133881912Y-90838585D01*
X133882421Y-90649605D01*
X133883036Y-90478599D01*
X133883756Y-90325925D01*
X133884577Y-90191940D01*
X133885499Y-90077001D01*
X133886519Y-89981464D01*
X133887636Y-89905688D01*
X133888847Y-89850030D01*
X133890152Y-89814847D01*
X133891455Y-89800780D01*
X133910466Y-89762323D01*
X133942641Y-89724632D01*
X133981025Y-89695050D01*
X134000668Y-89685482D01*
X134010537Y-89684723D01*
X134036162Y-89683993D01*
X134077724Y-89683291D01*
X134135408Y-89682617D01*
X134209396Y-89681972D01*
X134299871Y-89681355D01*
X134407017Y-89680765D01*
X134531016Y-89680203D01*
X134672051Y-89679667D01*
X134830305Y-89679159D01*
X135005962Y-89678677D01*
X135199203Y-89678222D01*
X135410214Y-89677793D01*
X135639175Y-89677390D01*
X135886270Y-89677012D01*
X136151683Y-89676660D01*
X136435597Y-89676333D01*
X136738193Y-89676030D01*
X137059656Y-89675753D01*
X137400168Y-89675499D01*
X137759912Y-89675270D01*
X138139072Y-89675065D01*
X138537830Y-89674884D01*
X138956369Y-89674725D01*
X139394873Y-89674590D01*
X139853524Y-89674478D01*
X140332505Y-89674389D01*
X140832000Y-89674321D01*
X141352191Y-89674276D01*
X141893261Y-89674253D01*
X142211029Y-89674250D01*
X142719019Y-89674254D01*
X143206256Y-89674268D01*
X143673152Y-89674291D01*
X144120122Y-89674325D01*
X144547577Y-89674370D01*
X144955933Y-89674427D01*
X145345600Y-89674497D01*
X145716994Y-89674580D01*
X146070527Y-89674678D01*
X146406612Y-89674791D01*
X146725662Y-89674919D01*
X147028091Y-89675064D01*
X147314312Y-89675226D01*
X147584739Y-89675406D01*
X147839783Y-89675605D01*
X148079859Y-89675823D01*
X148305380Y-89676061D01*
X148516760Y-89676320D01*
X148714410Y-89676600D01*
X148898745Y-89676903D01*
X149070177Y-89677229D01*
X149229120Y-89677578D01*
X149375988Y-89677952D01*
X149511192Y-89678352D01*
X149635148Y-89678777D01*
X149748267Y-89679229D01*
X149850962Y-89679708D01*
X149943649Y-89680216D01*
X150026738Y-89680752D01*
X150100644Y-89681318D01*
X150165780Y-89681915D01*
X150222559Y-89682543D01*
X150271395Y-89683202D01*
X150312699Y-89683894D01*
X150346887Y-89684619D01*
X150374370Y-89685379D01*
X150395563Y-89686173D01*
X150410878Y-89687002D01*
X150420728Y-89687868D01*
X150425527Y-89688771D01*
X150425652Y-89688821D01*
X150467504Y-89715294D01*
X150504404Y-89753567D01*
X150527827Y-89794001D01*
X150529382Y-89806672D01*
X150530814Y-89836329D01*
X150532126Y-89883284D01*
X150533318Y-89947845D01*
X150534393Y-90030324D01*
X150535352Y-90131030D01*
X150536197Y-90250274D01*
X150536930Y-90388366D01*
X150537553Y-90545615D01*
X150538067Y-90722333D01*
X150538474Y-90918829D01*
X150538776Y-91135414D01*
X150538975Y-91372398D01*
X150539072Y-91630090D01*
X150539083Y-91759855D01*
X150676666Y-91759855D01*
X150676666Y-89536667D01*
X133743333Y-89536667D01*
X133743333Y-95463333D01*
X133743333Y-95463333D01*
G37*
X133743333Y-95463333D02*
X150676666Y-95463333D01*
X150676666Y-95092917D01*
X144294916Y-95092917D01*
X144026962Y-95092917D01*
X143938446Y-95092657D01*
X143868246Y-95091780D01*
X143813518Y-95090137D01*
X143771419Y-95087580D01*
X143739104Y-95083958D01*
X143713727Y-95079126D01*
X143701822Y-95075934D01*
X143628228Y-95044501D01*
X143570231Y-94999583D01*
X143528853Y-94943046D01*
X143505115Y-94876751D01*
X143500036Y-94802564D01*
X143512386Y-94730148D01*
X143533360Y-94684812D01*
X143567486Y-94641647D01*
X143608126Y-94608275D01*
X143627221Y-94598293D01*
X143663649Y-94583073D01*
X143630395Y-94562019D01*
X143588238Y-94523156D01*
X143559562Y-94469904D01*
X143546881Y-94413129D01*
X143547536Y-94340067D01*
X143565785Y-94278720D01*
X143601775Y-94228820D01*
X143655650Y-94190099D01*
X143672901Y-94181696D01*
X143690581Y-94174161D01*
X143707931Y-94168259D01*
X143727812Y-94163748D01*
X143753015Y-94160395D01*
X143466745Y-94160395D01*
X143466502Y-94164496D01*
X143459811Y-94176839D01*
X143443514Y-94204899D01*
X143419016Y-94246313D01*
X143387723Y-94298721D01*
X143351042Y-94359763D01*
X143310378Y-94427078D01*
X143295899Y-94450968D01*
X143130750Y-94723227D01*
X143130750Y-95092917D01*
X142908500Y-95092917D01*
X140654250Y-95092917D01*
X140453166Y-95092917D01*
X140453166Y-94473985D01*
X140260999Y-94783451D01*
X140068831Y-95092917D01*
X139849916Y-95092917D01*
X139849916Y-94626800D01*
X139722339Y-94626800D01*
X139713160Y-94730695D01*
X139706418Y-94764402D01*
X139676716Y-94852342D01*
X139630849Y-94931866D01*
X139571432Y-95000209D01*
X139501077Y-95054605D01*
X139422398Y-95092285D01*
X139386939Y-95102593D01*
X139338976Y-95109759D01*
X139279971Y-95112631D01*
X139218124Y-95111349D01*
X139161637Y-95106052D01*
X139122636Y-95098109D01*
X139048841Y-95066268D01*
X138980802Y-95018145D01*
X138927801Y-94961755D01*
X138902476Y-94921330D01*
X138878721Y-94871735D01*
X138859358Y-94820182D01*
X138847609Y-94775417D01*
X137003000Y-94775417D01*
X137003000Y-94821351D01*
X136995909Y-94866383D01*
X136977189Y-94917630D01*
X136950673Y-94967282D01*
X136920191Y-95007526D01*
X136904784Y-95021586D01*
X136850508Y-95058628D01*
X136797267Y-95084622D01*
X136739838Y-95100994D01*
X136672999Y-95109169D01*
X136591529Y-95110573D01*
X136579666Y-95110334D01*
X136523693Y-95108451D01*
X136482748Y-95105164D01*
X136450698Y-95099405D01*
X136430265Y-95092917D01*
X136197946Y-95092917D01*
X135978162Y-95092917D01*
X135944666Y-94992375D01*
X135911171Y-94891833D01*
X135566159Y-94891833D01*
X135530816Y-94992375D01*
X135495474Y-95092917D01*
X135386695Y-95092917D01*
X135341626Y-95092198D01*
X135305701Y-95090259D01*
X135283330Y-95087420D01*
X135278090Y-95084979D01*
X135281732Y-95073749D01*
X135292094Y-95044699D01*
X135308443Y-94999818D01*
X135330044Y-94941098D01*
X135356162Y-94870528D01*
X135386064Y-94790098D01*
X135419015Y-94701798D01*
X135450888Y-94616667D01*
X135623512Y-94156292D01*
X135842959Y-94156292D01*
X135997116Y-94563750D01*
X136031387Y-94654312D01*
X136064162Y-94740885D01*
X136094496Y-94820970D01*
X136121440Y-94892071D01*
X136144050Y-94951688D01*
X136161378Y-94997326D01*
X136172477Y-95026487D01*
X136174609Y-95032062D01*
X136197946Y-95092917D01*
X136430265Y-95092917D01*
X136421409Y-95090105D01*
X136391839Y-95077597D01*
X136321274Y-95035825D01*
X136267618Y-94982273D01*
X136231689Y-94917829D01*
X136224392Y-94896171D01*
X136212444Y-94822215D01*
X136219379Y-94751849D01*
X136244198Y-94688150D01*
X136285901Y-94634193D01*
X136317977Y-94608203D01*
X136338393Y-94594555D01*
X136356184Y-94583807D01*
X136374973Y-94574628D01*
X136398384Y-94565688D01*
X136430043Y-94555656D01*
X136473573Y-94543203D01*
X136532597Y-94526999D01*
X136558328Y-94519994D01*
X136627142Y-94500778D01*
X136678187Y-94485026D01*
X136714298Y-94471372D01*
X136738314Y-94458449D01*
X136753071Y-94444890D01*
X136761407Y-94429329D01*
X136763906Y-94420968D01*
X136763599Y-94383160D01*
X136745519Y-94349093D01*
X136713047Y-94321779D01*
X136669564Y-94304231D01*
X136627291Y-94299242D01*
X136562100Y-94306441D01*
X136510956Y-94327354D01*
X136475146Y-94361168D01*
X136455957Y-94407072D01*
X136455898Y-94407365D01*
X136450021Y-94436750D01*
X136345510Y-94436750D01*
X136294733Y-94436480D01*
X136262291Y-94433659D01*
X136245356Y-94425271D01*
X136241102Y-94408297D01*
X136246701Y-94379720D01*
X136257472Y-94342790D01*
X136287026Y-94279005D01*
X136333514Y-94224919D01*
X136394426Y-94181866D01*
X136467254Y-94151181D01*
X136549488Y-94134196D01*
X136638618Y-94132246D01*
X136651667Y-94133264D01*
X136717035Y-94141470D01*
X136768596Y-94154116D01*
X136813604Y-94173493D01*
X136851083Y-94196264D01*
X136907189Y-94242243D01*
X136944302Y-94293322D01*
X136964536Y-94353031D01*
X136969424Y-94393906D01*
X136968983Y-94457988D01*
X136958240Y-94508454D01*
X136935401Y-94551067D01*
X136912014Y-94578535D01*
X136883292Y-94604920D01*
X136851095Y-94627030D01*
X136811498Y-94646690D01*
X136760576Y-94665728D01*
X136694401Y-94685969D01*
X136661175Y-94695252D01*
X136607829Y-94710306D01*
X136558421Y-94725026D01*
X136518468Y-94737721D01*
X136493543Y-94746674D01*
X136452354Y-94772705D01*
X136428321Y-94806448D01*
X136421506Y-94843738D01*
X136431974Y-94880404D01*
X136459788Y-94912280D01*
X136490751Y-94929993D01*
X136526335Y-94939018D01*
X136573856Y-94943698D01*
X136624512Y-94943881D01*
X136669497Y-94939413D01*
X136692748Y-94933493D01*
X136738897Y-94905570D01*
X136774767Y-94863399D01*
X136793046Y-94820624D01*
X136804429Y-94775417D01*
X137003000Y-94775417D01*
X138847609Y-94775417D01*
X138847206Y-94773882D01*
X138844500Y-94748736D01*
X138845219Y-94736598D01*
X138850014Y-94728935D01*
X138862845Y-94724719D01*
X138887668Y-94722919D01*
X138928443Y-94722507D01*
X138945374Y-94722500D01*
X138997682Y-94723507D01*
X139030980Y-94726703D01*
X139047337Y-94732351D01*
X139049712Y-94735729D01*
X139067978Y-94794475D01*
X139088548Y-94842307D01*
X139100828Y-94862969D01*
X139139147Y-94900221D01*
X139189124Y-94923787D01*
X139246150Y-94933526D01*
X139305617Y-94929297D01*
X139362917Y-94910958D01*
X139413441Y-94878368D01*
X139419615Y-94872751D01*
X139459973Y-94820940D01*
X139487886Y-94756892D01*
X139503477Y-94684934D01*
X139506872Y-94609394D01*
X139498195Y-94534600D01*
X139477570Y-94464879D01*
X139445124Y-94404561D01*
X139404878Y-94361042D01*
X139354263Y-94332036D01*
X139294263Y-94315890D01*
X139233527Y-94314415D01*
X139206379Y-94319524D01*
X139161407Y-94339442D01*
X139118533Y-94371268D01*
X139084246Y-94409284D01*
X139066519Y-94442740D01*
X139054525Y-94479083D01*
X138954804Y-94479083D01*
X138908454Y-94478887D01*
X138879289Y-94477604D01*
X138863330Y-94474195D01*
X138856595Y-94467620D01*
X138855103Y-94456837D01*
X138855083Y-94453022D01*
X138858754Y-94428696D01*
X138868190Y-94394015D01*
X138876603Y-94369444D01*
X138914251Y-94297784D01*
X138967922Y-94237245D01*
X139034906Y-94189090D01*
X139112496Y-94154580D01*
X139197983Y-94134979D01*
X139288660Y-94131548D01*
X139365208Y-94141733D01*
X139453461Y-94170634D01*
X139531187Y-94216440D01*
X139597255Y-94277085D01*
X139650535Y-94350507D01*
X139689896Y-94434642D01*
X139714208Y-94527427D01*
X139722339Y-94626800D01*
X139849916Y-94626800D01*
X139849916Y-94151000D01*
X140051000Y-94151000D01*
X140051000Y-94778313D01*
X140245004Y-94467302D01*
X140439009Y-94156292D01*
X140546629Y-94153275D01*
X140654250Y-94150259D01*
X140654250Y-95092917D01*
X142908500Y-95092917D01*
X142908500Y-94726881D01*
X142739219Y-94446878D01*
X142697322Y-94377321D01*
X142659195Y-94313533D01*
X142626167Y-94257774D01*
X142599567Y-94212306D01*
X142580722Y-94179390D01*
X142570961Y-94161290D01*
X142569886Y-94158591D01*
X142579730Y-94155527D01*
X142606476Y-94153526D01*
X142645876Y-94152779D01*
X142687187Y-94153299D01*
X142804541Y-94156292D01*
X142907255Y-94330917D01*
X142939632Y-94384853D01*
X142968868Y-94431472D01*
X142993160Y-94468063D01*
X143010703Y-94491919D01*
X143019694Y-94500329D01*
X143019998Y-94500250D01*
X143028362Y-94489866D01*
X143045566Y-94464186D01*
X143069731Y-94426166D01*
X143098979Y-94378761D01*
X143131013Y-94325625D01*
X143232001Y-94156292D01*
X143351978Y-94153287D01*
X143404944Y-94152402D01*
X143439748Y-94153099D01*
X143459360Y-94155666D01*
X143466745Y-94160395D01*
X143753015Y-94160395D01*
X143753083Y-94160386D01*
X143786602Y-94157928D01*
X143831230Y-94156134D01*
X143889826Y-94154760D01*
X143965249Y-94153563D01*
X144011812Y-94152934D01*
X144294916Y-94149208D01*
X144294916Y-95092917D01*
X150676666Y-95092917D01*
X150676666Y-91759855D01*
X150539083Y-91759855D01*
X150539083Y-93695917D01*
X149928268Y-93695917D01*
X149876792Y-93783229D01*
X149850146Y-93825857D01*
X149814896Y-93878644D01*
X149775493Y-93935087D01*
X149736386Y-93988685D01*
X149733709Y-93992250D01*
X149588795Y-94167705D01*
X149430169Y-94327976D01*
X149259114Y-94472479D01*
X149076917Y-94600632D01*
X148884863Y-94711853D01*
X148684236Y-94805560D01*
X148476321Y-94881170D01*
X148262403Y-94938102D01*
X148043768Y-94975772D01*
X147821700Y-94993599D01*
X147597484Y-94991000D01*
X147538708Y-94986883D01*
X147307398Y-94957993D01*
X147084921Y-94909974D01*
X146870503Y-94842560D01*
X146663375Y-94755486D01*
X146462763Y-94648484D01*
X146347216Y-94575944D01*
X146159081Y-94438802D01*
X145986665Y-94287507D01*
X145829733Y-94121817D01*
X145688051Y-93941490D01*
X145592164Y-93797318D01*
X145529453Y-93695917D01*
X133880916Y-93695917D01*
X133880976Y-91767104D01*
X133881041Y-91509799D01*
X133881220Y-91269039D01*
X133881511Y-91045182D01*
X133881912Y-90838585D01*
X133882421Y-90649605D01*
X133883036Y-90478599D01*
X133883756Y-90325925D01*
X133884577Y-90191940D01*
X133885499Y-90077001D01*
X133886519Y-89981464D01*
X133887636Y-89905688D01*
X133888847Y-89850030D01*
X133890152Y-89814847D01*
X133891455Y-89800780D01*
X133910466Y-89762323D01*
X133942641Y-89724632D01*
X133981025Y-89695050D01*
X134000668Y-89685482D01*
X134010537Y-89684723D01*
X134036162Y-89683993D01*
X134077724Y-89683291D01*
X134135408Y-89682617D01*
X134209396Y-89681972D01*
X134299871Y-89681355D01*
X134407017Y-89680765D01*
X134531016Y-89680203D01*
X134672051Y-89679667D01*
X134830305Y-89679159D01*
X135005962Y-89678677D01*
X135199203Y-89678222D01*
X135410214Y-89677793D01*
X135639175Y-89677390D01*
X135886270Y-89677012D01*
X136151683Y-89676660D01*
X136435597Y-89676333D01*
X136738193Y-89676030D01*
X137059656Y-89675753D01*
X137400168Y-89675499D01*
X137759912Y-89675270D01*
X138139072Y-89675065D01*
X138537830Y-89674884D01*
X138956369Y-89674725D01*
X139394873Y-89674590D01*
X139853524Y-89674478D01*
X140332505Y-89674389D01*
X140832000Y-89674321D01*
X141352191Y-89674276D01*
X141893261Y-89674253D01*
X142211029Y-89674250D01*
X142719019Y-89674254D01*
X143206256Y-89674268D01*
X143673152Y-89674291D01*
X144120122Y-89674325D01*
X144547577Y-89674370D01*
X144955933Y-89674427D01*
X145345600Y-89674497D01*
X145716994Y-89674580D01*
X146070527Y-89674678D01*
X146406612Y-89674791D01*
X146725662Y-89674919D01*
X147028091Y-89675064D01*
X147314312Y-89675226D01*
X147584739Y-89675406D01*
X147839783Y-89675605D01*
X148079859Y-89675823D01*
X148305380Y-89676061D01*
X148516760Y-89676320D01*
X148714410Y-89676600D01*
X148898745Y-89676903D01*
X149070177Y-89677229D01*
X149229120Y-89677578D01*
X149375988Y-89677952D01*
X149511192Y-89678352D01*
X149635148Y-89678777D01*
X149748267Y-89679229D01*
X149850962Y-89679708D01*
X149943649Y-89680216D01*
X150026738Y-89680752D01*
X150100644Y-89681318D01*
X150165780Y-89681915D01*
X150222559Y-89682543D01*
X150271395Y-89683202D01*
X150312699Y-89683894D01*
X150346887Y-89684619D01*
X150374370Y-89685379D01*
X150395563Y-89686173D01*
X150410878Y-89687002D01*
X150420728Y-89687868D01*
X150425527Y-89688771D01*
X150425652Y-89688821D01*
X150467504Y-89715294D01*
X150504404Y-89753567D01*
X150527827Y-89794001D01*
X150529382Y-89806672D01*
X150530814Y-89836329D01*
X150532126Y-89883284D01*
X150533318Y-89947845D01*
X150534393Y-90030324D01*
X150535352Y-90131030D01*
X150536197Y-90250274D01*
X150536930Y-90388366D01*
X150537553Y-90545615D01*
X150538067Y-90722333D01*
X150538474Y-90918829D01*
X150538776Y-91135414D01*
X150538975Y-91372398D01*
X150539072Y-91630090D01*
X150539083Y-91759855D01*
X150676666Y-91759855D01*
X150676666Y-89536667D01*
X133743333Y-89536667D01*
X133743333Y-95463333D01*
G36*
X143943021Y-94680183D02*
X143864796Y-94682676D01*
X143805215Y-94690858D01*
X143762261Y-94705814D01*
X143733919Y-94728629D01*
X143718172Y-94760389D01*
X143713004Y-94802179D01*
X143712989Y-94804023D01*
X143716576Y-94844518D01*
X143729242Y-94875206D01*
X143753217Y-94897264D01*
X143790728Y-94911869D01*
X143844006Y-94920200D01*
X143915277Y-94923431D01*
X143939328Y-94923583D01*
X144072666Y-94923583D01*
X144072666Y-94680167D01*
X143943021Y-94680183D01*
X143943021Y-94680183D01*
G37*
X143943021Y-94680183D02*
X143864796Y-94682676D01*
X143805215Y-94690858D01*
X143762261Y-94705814D01*
X143733919Y-94728629D01*
X143718172Y-94760389D01*
X143713004Y-94802179D01*
X143712989Y-94804023D01*
X143716576Y-94844518D01*
X143729242Y-94875206D01*
X143753217Y-94897264D01*
X143790728Y-94911869D01*
X143844006Y-94920200D01*
X143915277Y-94923431D01*
X143939328Y-94923583D01*
X144072666Y-94923583D01*
X144072666Y-94680167D01*
X143943021Y-94680183D01*
G36*
X143887506Y-94322735D02*
X143832394Y-94330663D01*
X143793753Y-94345202D01*
X143769471Y-94367438D01*
X143757435Y-94398456D01*
X143755166Y-94426167D01*
X143759468Y-94464253D01*
X143773871Y-94492571D01*
X143800621Y-94512307D01*
X143841963Y-94524645D01*
X143900145Y-94530770D01*
X143955724Y-94532000D01*
X144072666Y-94532000D01*
X144072666Y-94320333D01*
X143961202Y-94320333D01*
X143887506Y-94322735D01*
X143887506Y-94322735D01*
G37*
X143887506Y-94322735D02*
X143832394Y-94330663D01*
X143793753Y-94345202D01*
X143769471Y-94367438D01*
X143757435Y-94398456D01*
X143755166Y-94426167D01*
X143759468Y-94464253D01*
X143773871Y-94492571D01*
X143800621Y-94512307D01*
X143841963Y-94524645D01*
X143900145Y-94530770D01*
X143955724Y-94532000D01*
X144072666Y-94532000D01*
X144072666Y-94320333D01*
X143961202Y-94320333D01*
X143887506Y-94322735D01*
G36*
X135726287Y-94425575D02*
X135715544Y-94454197D01*
X135701142Y-94495114D01*
X135684489Y-94544399D01*
X135679846Y-94558458D01*
X135662915Y-94609874D01*
X135648126Y-94654576D01*
X135636848Y-94688444D01*
X135630449Y-94707356D01*
X135629770Y-94709271D01*
X135632721Y-94715418D01*
X135648681Y-94719459D01*
X135680246Y-94721711D01*
X135730012Y-94722490D01*
X135738041Y-94722500D01*
X135783653Y-94721756D01*
X135819784Y-94719740D01*
X135842281Y-94716779D01*
X135847653Y-94713903D01*
X135843072Y-94701363D01*
X135832812Y-94672567D01*
X135818190Y-94631236D01*
X135800525Y-94581090D01*
X135791497Y-94555393D01*
X135772818Y-94503893D01*
X135756129Y-94461057D01*
X135742785Y-94430125D01*
X135734142Y-94414336D01*
X135731962Y-94413178D01*
X135726287Y-94425575D01*
X135726287Y-94425575D01*
G37*
X135726287Y-94425575D02*
X135715544Y-94454197D01*
X135701142Y-94495114D01*
X135684489Y-94544399D01*
X135679846Y-94558458D01*
X135662915Y-94609874D01*
X135648126Y-94654576D01*
X135636848Y-94688444D01*
X135630449Y-94707356D01*
X135629770Y-94709271D01*
X135632721Y-94715418D01*
X135648681Y-94719459D01*
X135680246Y-94721711D01*
X135730012Y-94722490D01*
X135738041Y-94722500D01*
X135783653Y-94721756D01*
X135819784Y-94719740D01*
X135842281Y-94716779D01*
X135847653Y-94713903D01*
X135843072Y-94701363D01*
X135832812Y-94672567D01*
X135818190Y-94631236D01*
X135800525Y-94581090D01*
X135791497Y-94555393D01*
X135772818Y-94503893D01*
X135756129Y-94461057D01*
X135742785Y-94430125D01*
X135734142Y-94414336D01*
X135731962Y-94413178D01*
X135726287Y-94425575D01*
G36*
X147691479Y-90099787D02*
X147601205Y-90102279D01*
X147514687Y-90106282D01*
X147436647Y-90111679D01*
X147371807Y-90118355D01*
X147337625Y-90123572D01*
X147128364Y-90170940D01*
X146933089Y-90233299D01*
X146749915Y-90311631D01*
X146576957Y-90406920D01*
X146412332Y-90520150D01*
X146254154Y-90652306D01*
X146169036Y-90733599D01*
X146022367Y-90894253D01*
X145894414Y-91064601D01*
X145785370Y-91244248D01*
X145695425Y-91432795D01*
X145624773Y-91629844D01*
X145573606Y-91834997D01*
X145544402Y-92025979D01*
X145534257Y-92168229D01*
X145532887Y-92321920D01*
X145539913Y-92479766D01*
X145554950Y-92634486D01*
X145577618Y-92778794D01*
X145586045Y-92819867D01*
X145638866Y-93012695D01*
X145711559Y-93199608D01*
X145803411Y-93379618D01*
X145913711Y-93551739D01*
X146041744Y-93714984D01*
X146186800Y-93868365D01*
X146348165Y-94010897D01*
X146525126Y-94141592D01*
X146554688Y-94161239D01*
X146722313Y-94258715D01*
X146902278Y-94340265D01*
X147092419Y-94405381D01*
X147290574Y-94453553D01*
X147494578Y-94484274D01*
X147702266Y-94497033D01*
X147911477Y-94491323D01*
X147946166Y-94488555D01*
X148146849Y-94460512D01*
X148344383Y-94412175D01*
X148537267Y-94344354D01*
X148724001Y-94257857D01*
X148903083Y-94153493D01*
X149073013Y-94032071D01*
X149232288Y-93894400D01*
X149379409Y-93741289D01*
X149418894Y-93694949D01*
X149550687Y-93521982D01*
X149661899Y-93345275D01*
X149752960Y-93163633D01*
X149824304Y-92975862D01*
X149876361Y-92780767D01*
X149909563Y-92577154D01*
X149922908Y-92384512D01*
X149538793Y-92384512D01*
X149520578Y-92566843D01*
X149483498Y-92746764D01*
X149427461Y-92922652D01*
X149352379Y-93092885D01*
X149261041Y-93251417D01*
X149188659Y-93353113D01*
X149102209Y-93458459D01*
X149006706Y-93561950D01*
X148907166Y-93658083D01*
X148829875Y-93724479D01*
X148682410Y-93830329D01*
X148522060Y-93920460D01*
X148351052Y-93993972D01*
X148171612Y-94049964D01*
X147985969Y-94087536D01*
X147906286Y-94097650D01*
X147833043Y-94102455D01*
X147746087Y-94103625D01*
X147652515Y-94101386D01*
X147559426Y-94095966D01*
X147473918Y-94087592D01*
X147438166Y-94082669D01*
X147252453Y-94043771D01*
X147074150Y-93985387D01*
X146902910Y-93907337D01*
X146738387Y-93809439D01*
X146580234Y-93691511D01*
X146429858Y-93555113D01*
X146315805Y-93433149D01*
X146219668Y-93310336D01*
X146138475Y-93182376D01*
X146069257Y-93044971D01*
X146055363Y-93013099D01*
X145994436Y-92843666D01*
X145950935Y-92665031D01*
X145924962Y-92480159D01*
X145916624Y-92292015D01*
X145926023Y-92103562D01*
X145953264Y-91917766D01*
X145998451Y-91737591D01*
X146009313Y-91703514D01*
X146074576Y-91538624D01*
X146158935Y-91378892D01*
X146260547Y-91226375D01*
X146377570Y-91083131D01*
X146508161Y-90951214D01*
X146650477Y-90832682D01*
X146802677Y-90729592D01*
X146955390Y-90647526D01*
X147123199Y-90579517D01*
X147298543Y-90529439D01*
X147479091Y-90497177D01*
X147662513Y-90482620D01*
X147846477Y-90485652D01*
X148028653Y-90506162D01*
X148206708Y-90544036D01*
X148378313Y-90599160D01*
X148541137Y-90671422D01*
X148644543Y-90729607D01*
X148744778Y-90797677D01*
X148849357Y-90880084D01*
X148953144Y-90972243D01*
X149051004Y-91069568D01*
X149137800Y-91167471D01*
X149145646Y-91177083D01*
X149256962Y-91330829D01*
X149350044Y-91493529D01*
X149424803Y-91663558D01*
X149481148Y-91839295D01*
X149518988Y-92019114D01*
X149538233Y-92201395D01*
X149538793Y-92384512D01*
X149922908Y-92384512D01*
X149924341Y-92363828D01*
X149925250Y-92293625D01*
X149915598Y-92073881D01*
X149886579Y-91862515D01*
X149838098Y-91659305D01*
X149770061Y-91464030D01*
X149682373Y-91276466D01*
X149574939Y-91096394D01*
X149447665Y-90923592D01*
X149300457Y-90757836D01*
X149246957Y-90704128D01*
X149085998Y-90560456D01*
X148917268Y-90436407D01*
X148740204Y-90331713D01*
X148554241Y-90246104D01*
X148358814Y-90179310D01*
X148153360Y-90131064D01*
X147995667Y-90107276D01*
X147937601Y-90102552D01*
X147864399Y-90099807D01*
X147780784Y-90098924D01*
X147691479Y-90099787D01*
X147691479Y-90099787D01*
G37*
X147691479Y-90099787D02*
X147601205Y-90102279D01*
X147514687Y-90106282D01*
X147436647Y-90111679D01*
X147371807Y-90118355D01*
X147337625Y-90123572D01*
X147128364Y-90170940D01*
X146933089Y-90233299D01*
X146749915Y-90311631D01*
X146576957Y-90406920D01*
X146412332Y-90520150D01*
X146254154Y-90652306D01*
X146169036Y-90733599D01*
X146022367Y-90894253D01*
X145894414Y-91064601D01*
X145785370Y-91244248D01*
X145695425Y-91432795D01*
X145624773Y-91629844D01*
X145573606Y-91834997D01*
X145544402Y-92025979D01*
X145534257Y-92168229D01*
X145532887Y-92321920D01*
X145539913Y-92479766D01*
X145554950Y-92634486D01*
X145577618Y-92778794D01*
X145586045Y-92819867D01*
X145638866Y-93012695D01*
X145711559Y-93199608D01*
X145803411Y-93379618D01*
X145913711Y-93551739D01*
X146041744Y-93714984D01*
X146186800Y-93868365D01*
X146348165Y-94010897D01*
X146525126Y-94141592D01*
X146554688Y-94161239D01*
X146722313Y-94258715D01*
X146902278Y-94340265D01*
X147092419Y-94405381D01*
X147290574Y-94453553D01*
X147494578Y-94484274D01*
X147702266Y-94497033D01*
X147911477Y-94491323D01*
X147946166Y-94488555D01*
X148146849Y-94460512D01*
X148344383Y-94412175D01*
X148537267Y-94344354D01*
X148724001Y-94257857D01*
X148903083Y-94153493D01*
X149073013Y-94032071D01*
X149232288Y-93894400D01*
X149379409Y-93741289D01*
X149418894Y-93694949D01*
X149550687Y-93521982D01*
X149661899Y-93345275D01*
X149752960Y-93163633D01*
X149824304Y-92975862D01*
X149876361Y-92780767D01*
X149909563Y-92577154D01*
X149922908Y-92384512D01*
X149538793Y-92384512D01*
X149520578Y-92566843D01*
X149483498Y-92746764D01*
X149427461Y-92922652D01*
X149352379Y-93092885D01*
X149261041Y-93251417D01*
X149188659Y-93353113D01*
X149102209Y-93458459D01*
X149006706Y-93561950D01*
X148907166Y-93658083D01*
X148829875Y-93724479D01*
X148682410Y-93830329D01*
X148522060Y-93920460D01*
X148351052Y-93993972D01*
X148171612Y-94049964D01*
X147985969Y-94087536D01*
X147906286Y-94097650D01*
X147833043Y-94102455D01*
X147746087Y-94103625D01*
X147652515Y-94101386D01*
X147559426Y-94095966D01*
X147473918Y-94087592D01*
X147438166Y-94082669D01*
X147252453Y-94043771D01*
X147074150Y-93985387D01*
X146902910Y-93907337D01*
X146738387Y-93809439D01*
X146580234Y-93691511D01*
X146429858Y-93555113D01*
X146315805Y-93433149D01*
X146219668Y-93310336D01*
X146138475Y-93182376D01*
X146069257Y-93044971D01*
X146055363Y-93013099D01*
X145994436Y-92843666D01*
X145950935Y-92665031D01*
X145924962Y-92480159D01*
X145916624Y-92292015D01*
X145926023Y-92103562D01*
X145953264Y-91917766D01*
X145998451Y-91737591D01*
X146009313Y-91703514D01*
X146074576Y-91538624D01*
X146158935Y-91378892D01*
X146260547Y-91226375D01*
X146377570Y-91083131D01*
X146508161Y-90951214D01*
X146650477Y-90832682D01*
X146802677Y-90729592D01*
X146955390Y-90647526D01*
X147123199Y-90579517D01*
X147298543Y-90529439D01*
X147479091Y-90497177D01*
X147662513Y-90482620D01*
X147846477Y-90485652D01*
X148028653Y-90506162D01*
X148206708Y-90544036D01*
X148378313Y-90599160D01*
X148541137Y-90671422D01*
X148644543Y-90729607D01*
X148744778Y-90797677D01*
X148849357Y-90880084D01*
X148953144Y-90972243D01*
X149051004Y-91069568D01*
X149137800Y-91167471D01*
X149145646Y-91177083D01*
X149256962Y-91330829D01*
X149350044Y-91493529D01*
X149424803Y-91663558D01*
X149481148Y-91839295D01*
X149518988Y-92019114D01*
X149538233Y-92201395D01*
X149538793Y-92384512D01*
X149922908Y-92384512D01*
X149924341Y-92363828D01*
X149925250Y-92293625D01*
X149915598Y-92073881D01*
X149886579Y-91862515D01*
X149838098Y-91659305D01*
X149770061Y-91464030D01*
X149682373Y-91276466D01*
X149574939Y-91096394D01*
X149447665Y-90923592D01*
X149300457Y-90757836D01*
X149246957Y-90704128D01*
X149085998Y-90560456D01*
X148917268Y-90436407D01*
X148740204Y-90331713D01*
X148554241Y-90246104D01*
X148358814Y-90179310D01*
X148153360Y-90131064D01*
X147995667Y-90107276D01*
X147937601Y-90102552D01*
X147864399Y-90099807D01*
X147780784Y-90098924D01*
X147691479Y-90099787D01*
G36*
X143265326Y-90029603D02*
X143173443Y-90034757D01*
X143091811Y-90042759D01*
X143025628Y-90053565D01*
X143024916Y-90053719D01*
X142869289Y-90094010D01*
X142727771Y-90145110D01*
X142595149Y-90209187D01*
X142475175Y-90282358D01*
X142323862Y-90395908D01*
X142188356Y-90522692D01*
X142069342Y-90661697D01*
X141967502Y-90811913D01*
X141883520Y-90972327D01*
X141818079Y-91141927D01*
X141771863Y-91319701D01*
X141770761Y-91325250D01*
X141755939Y-91426432D01*
X141747687Y-91541402D01*
X141745901Y-91663861D01*
X141750472Y-91787509D01*
X141761294Y-91906050D01*
X141778261Y-92013183D01*
X141782749Y-92034333D01*
X141831154Y-92203191D01*
X141898564Y-92364665D01*
X141983713Y-92517460D01*
X142085335Y-92660278D01*
X142202162Y-92791824D01*
X142332928Y-92910800D01*
X142476367Y-93015911D01*
X142631210Y-93105858D01*
X142796193Y-93179346D01*
X142950833Y-93229941D01*
X143040878Y-93250034D01*
X143144833Y-93265712D01*
X143255802Y-93276442D01*
X143366887Y-93281690D01*
X143471190Y-93280923D01*
X143543500Y-93275795D01*
X143709297Y-93249071D01*
X143872121Y-93205563D01*
X144027984Y-93146714D01*
X144172897Y-93073966D01*
X144268830Y-93013365D01*
X144424812Y-92892933D01*
X144563227Y-92761138D01*
X144683812Y-92618368D01*
X144786302Y-92465007D01*
X144870433Y-92301441D01*
X144935940Y-92128055D01*
X144974385Y-91984232D01*
X144982389Y-91945161D01*
X144988337Y-91907597D01*
X144992520Y-91867350D01*
X144995232Y-91820225D01*
X144996765Y-91762031D01*
X144997413Y-91688575D01*
X144997419Y-91685517D01*
X144715516Y-91685517D01*
X144711639Y-91775891D01*
X144703978Y-91858780D01*
X144692821Y-91926781D01*
X144647108Y-92086857D01*
X144581971Y-92238677D01*
X144497635Y-92381850D01*
X144394327Y-92515985D01*
X144287079Y-92627010D01*
X144173071Y-92724688D01*
X144056788Y-92805382D01*
X143935046Y-92870508D01*
X143804665Y-92921484D01*
X143662463Y-92959726D01*
X143505256Y-92986651D01*
X143469416Y-92991072D01*
X143423864Y-92993474D01*
X143363542Y-92992593D01*
X143294521Y-92988860D01*
X143222871Y-92982704D01*
X143154661Y-92974554D01*
X143095962Y-92964840D01*
X143094411Y-92964529D01*
X142937713Y-92922180D01*
X142787681Y-92859749D01*
X142644353Y-92777259D01*
X142507764Y-92674729D01*
X142400344Y-92575238D01*
X142296358Y-92458936D01*
X142211710Y-92339130D01*
X142144582Y-92212883D01*
X142094632Y-92081958D01*
X142073623Y-92011979D01*
X142058090Y-91949783D01*
X142047277Y-91889816D01*
X142040429Y-91826523D01*
X142036789Y-91754349D01*
X142035602Y-91667739D01*
X142035593Y-91648042D01*
X142037002Y-91551043D01*
X142041523Y-91469490D01*
X142049962Y-91397785D01*
X142063123Y-91330333D01*
X142081814Y-91261537D01*
X142098818Y-91209001D01*
X142157455Y-91067829D01*
X142234294Y-90932754D01*
X142327179Y-90805851D01*
X142433954Y-90689193D01*
X142552463Y-90584856D01*
X142680549Y-90494913D01*
X142816058Y-90421439D01*
X142956832Y-90366508D01*
X142982583Y-90358744D01*
X143087709Y-90334667D01*
X143205757Y-90318185D01*
X143329728Y-90309746D01*
X143452621Y-90309794D01*
X143567438Y-90318776D01*
X143581236Y-90320600D01*
X143733711Y-90352264D01*
X143880728Y-90403224D01*
X144020782Y-90471979D01*
X144152366Y-90557032D01*
X144273973Y-90656881D01*
X144384094Y-90770027D01*
X144481225Y-90894971D01*
X144563857Y-91030214D01*
X144630484Y-91174256D01*
X144679598Y-91325597D01*
X144703040Y-91436828D01*
X144711357Y-91509253D01*
X144715469Y-91594394D01*
X144715516Y-91685517D01*
X144997419Y-91685517D01*
X144997490Y-91653333D01*
X144997281Y-91572791D01*
X144996289Y-91509147D01*
X144994221Y-91458141D01*
X144990780Y-91415510D01*
X144985674Y-91376993D01*
X144978608Y-91338327D01*
X144974325Y-91317964D01*
X144925179Y-91139428D01*
X144857693Y-90969816D01*
X144773017Y-90810272D01*
X144672302Y-90661941D01*
X144556699Y-90525965D01*
X144427358Y-90403489D01*
X144285431Y-90295656D01*
X144132068Y-90203611D01*
X143968420Y-90128496D01*
X143795639Y-90071455D01*
X143696574Y-90048088D01*
X143631406Y-90038346D01*
X143550500Y-90031670D01*
X143459052Y-90028016D01*
X143362261Y-90027342D01*
X143265326Y-90029603D01*
X143265326Y-90029603D01*
G37*
X143265326Y-90029603D02*
X143173443Y-90034757D01*
X143091811Y-90042759D01*
X143025628Y-90053565D01*
X143024916Y-90053719D01*
X142869289Y-90094010D01*
X142727771Y-90145110D01*
X142595149Y-90209187D01*
X142475175Y-90282358D01*
X142323862Y-90395908D01*
X142188356Y-90522692D01*
X142069342Y-90661697D01*
X141967502Y-90811913D01*
X141883520Y-90972327D01*
X141818079Y-91141927D01*
X141771863Y-91319701D01*
X141770761Y-91325250D01*
X141755939Y-91426432D01*
X141747687Y-91541402D01*
X141745901Y-91663861D01*
X141750472Y-91787509D01*
X141761294Y-91906050D01*
X141778261Y-92013183D01*
X141782749Y-92034333D01*
X141831154Y-92203191D01*
X141898564Y-92364665D01*
X141983713Y-92517460D01*
X142085335Y-92660278D01*
X142202162Y-92791824D01*
X142332928Y-92910800D01*
X142476367Y-93015911D01*
X142631210Y-93105858D01*
X142796193Y-93179346D01*
X142950833Y-93229941D01*
X143040878Y-93250034D01*
X143144833Y-93265712D01*
X143255802Y-93276442D01*
X143366887Y-93281690D01*
X143471190Y-93280923D01*
X143543500Y-93275795D01*
X143709297Y-93249071D01*
X143872121Y-93205563D01*
X144027984Y-93146714D01*
X144172897Y-93073966D01*
X144268830Y-93013365D01*
X144424812Y-92892933D01*
X144563227Y-92761138D01*
X144683812Y-92618368D01*
X144786302Y-92465007D01*
X144870433Y-92301441D01*
X144935940Y-92128055D01*
X144974385Y-91984232D01*
X144982389Y-91945161D01*
X144988337Y-91907597D01*
X144992520Y-91867350D01*
X144995232Y-91820225D01*
X144996765Y-91762031D01*
X144997413Y-91688575D01*
X144997419Y-91685517D01*
X144715516Y-91685517D01*
X144711639Y-91775891D01*
X144703978Y-91858780D01*
X144692821Y-91926781D01*
X144647108Y-92086857D01*
X144581971Y-92238677D01*
X144497635Y-92381850D01*
X144394327Y-92515985D01*
X144287079Y-92627010D01*
X144173071Y-92724688D01*
X144056788Y-92805382D01*
X143935046Y-92870508D01*
X143804665Y-92921484D01*
X143662463Y-92959726D01*
X143505256Y-92986651D01*
X143469416Y-92991072D01*
X143423864Y-92993474D01*
X143363542Y-92992593D01*
X143294521Y-92988860D01*
X143222871Y-92982704D01*
X143154661Y-92974554D01*
X143095962Y-92964840D01*
X143094411Y-92964529D01*
X142937713Y-92922180D01*
X142787681Y-92859749D01*
X142644353Y-92777259D01*
X142507764Y-92674729D01*
X142400344Y-92575238D01*
X142296358Y-92458936D01*
X142211710Y-92339130D01*
X142144582Y-92212883D01*
X142094632Y-92081958D01*
X142073623Y-92011979D01*
X142058090Y-91949783D01*
X142047277Y-91889816D01*
X142040429Y-91826523D01*
X142036789Y-91754349D01*
X142035602Y-91667739D01*
X142035593Y-91648042D01*
X142037002Y-91551043D01*
X142041523Y-91469490D01*
X142049962Y-91397785D01*
X142063123Y-91330333D01*
X142081814Y-91261537D01*
X142098818Y-91209001D01*
X142157455Y-91067829D01*
X142234294Y-90932754D01*
X142327179Y-90805851D01*
X142433954Y-90689193D01*
X142552463Y-90584856D01*
X142680549Y-90494913D01*
X142816058Y-90421439D01*
X142956832Y-90366508D01*
X142982583Y-90358744D01*
X143087709Y-90334667D01*
X143205757Y-90318185D01*
X143329728Y-90309746D01*
X143452621Y-90309794D01*
X143567438Y-90318776D01*
X143581236Y-90320600D01*
X143733711Y-90352264D01*
X143880728Y-90403224D01*
X144020782Y-90471979D01*
X144152366Y-90557032D01*
X144273973Y-90656881D01*
X144384094Y-90770027D01*
X144481225Y-90894971D01*
X144563857Y-91030214D01*
X144630484Y-91174256D01*
X144679598Y-91325597D01*
X144703040Y-91436828D01*
X144711357Y-91509253D01*
X144715469Y-91594394D01*
X144715516Y-91685517D01*
X144997419Y-91685517D01*
X144997490Y-91653333D01*
X144997281Y-91572791D01*
X144996289Y-91509147D01*
X144994221Y-91458141D01*
X144990780Y-91415510D01*
X144985674Y-91376993D01*
X144978608Y-91338327D01*
X144974325Y-91317964D01*
X144925179Y-91139428D01*
X144857693Y-90969816D01*
X144773017Y-90810272D01*
X144672302Y-90661941D01*
X144556699Y-90525965D01*
X144427358Y-90403489D01*
X144285431Y-90295656D01*
X144132068Y-90203611D01*
X143968420Y-90128496D01*
X143795639Y-90071455D01*
X143696574Y-90048088D01*
X143631406Y-90038346D01*
X143550500Y-90031670D01*
X143459052Y-90028016D01*
X143362261Y-90027342D01*
X143265326Y-90029603D01*
G36*
X139627666Y-90026668D02*
X139442135Y-90041001D01*
X139268615Y-90072252D01*
X139105593Y-90121050D01*
X138951560Y-90188029D01*
X138805003Y-90273819D01*
X138664412Y-90379053D01*
X138560076Y-90472951D01*
X138435096Y-90605099D01*
X138329823Y-90741576D01*
X138242877Y-90884910D01*
X138172873Y-91037632D01*
X138118431Y-91202273D01*
X138085773Y-91341125D01*
X138075993Y-91408209D01*
X138069468Y-91490797D01*
X138066148Y-91583485D01*
X138065983Y-91680870D01*
X138068922Y-91777548D01*
X138074917Y-91868117D01*
X138083916Y-91947172D01*
X138091812Y-91992000D01*
X138140846Y-92173525D01*
X138208098Y-92344346D01*
X138293326Y-92504112D01*
X138396288Y-92652475D01*
X138516741Y-92789083D01*
X138654443Y-92913589D01*
X138807458Y-93024542D01*
X138963742Y-93113569D01*
X139129612Y-93184416D01*
X139303117Y-93236648D01*
X139482302Y-93269830D01*
X139665214Y-93283526D01*
X139849900Y-93277301D01*
X139911672Y-93270705D01*
X140080923Y-93238992D01*
X140246740Y-93187336D01*
X140407305Y-93116897D01*
X140560803Y-93028837D01*
X140705419Y-92924317D01*
X140839336Y-92804498D01*
X140960740Y-92670540D01*
X141059002Y-92537042D01*
X141142887Y-92398312D01*
X141208855Y-92260905D01*
X141258193Y-92120739D01*
X141292186Y-91973731D01*
X141312120Y-91815799D01*
X141317829Y-91715200D01*
X141318008Y-91703558D01*
X141034678Y-91703558D01*
X141029752Y-91798830D01*
X141025578Y-91836222D01*
X140994521Y-91990680D01*
X140943799Y-92140532D01*
X140874724Y-92284034D01*
X140788603Y-92419440D01*
X140686746Y-92545006D01*
X140570461Y-92658989D01*
X140441057Y-92759645D01*
X140299844Y-92845228D01*
X140249361Y-92870589D01*
X140103023Y-92928861D01*
X139948467Y-92968558D01*
X139788099Y-92989409D01*
X139624330Y-92991145D01*
X139459567Y-92973495D01*
X139411411Y-92964603D01*
X139255233Y-92922396D01*
X139105987Y-92860397D01*
X138963448Y-92778481D01*
X138827388Y-92676518D01*
X138717500Y-92574843D01*
X138680260Y-92535134D01*
X138641965Y-92490750D01*
X138604862Y-92444743D01*
X138571196Y-92400165D01*
X138543216Y-92360070D01*
X138523167Y-92327510D01*
X138513296Y-92305538D01*
X138513751Y-92297989D01*
X138524819Y-92292304D01*
X138553250Y-92279009D01*
X138597028Y-92259012D01*
X138654139Y-92233219D01*
X138722567Y-92202540D01*
X138800297Y-92167880D01*
X138885315Y-92130149D01*
X138943782Y-92104295D01*
X139365857Y-91917917D01*
X139660803Y-91917917D01*
X139749941Y-91917790D01*
X139819941Y-91917868D01*
X139872823Y-91918836D01*
X139910612Y-91921380D01*
X139935329Y-91926184D01*
X139948997Y-91933934D01*
X139953638Y-91945315D01*
X139951274Y-91961014D01*
X139943928Y-91981715D01*
X139933622Y-92008104D01*
X139932863Y-92010124D01*
X139900988Y-92070648D01*
X139853777Y-92128900D01*
X139796809Y-92179337D01*
X139735660Y-92216418D01*
X139717625Y-92224000D01*
X139621926Y-92249459D01*
X139517397Y-92258685D01*
X139408747Y-92251715D01*
X139300685Y-92228587D01*
X139274881Y-92220476D01*
X139230954Y-92207503D01*
X139205519Y-92204232D01*
X139198762Y-92207867D01*
X139191699Y-92233939D01*
X139182854Y-92272109D01*
X139173169Y-92317547D01*
X139163590Y-92365423D01*
X139155058Y-92410907D01*
X139148519Y-92449169D01*
X139144914Y-92475380D01*
X139144749Y-92484357D01*
X139158023Y-92496225D01*
X139187430Y-92511314D01*
X139228515Y-92527938D01*
X139276820Y-92544415D01*
X139327889Y-92559058D01*
X139365949Y-92567954D01*
X139434660Y-92577991D01*
X139515184Y-92583231D01*
X139599622Y-92583659D01*
X139680075Y-92579257D01*
X139748645Y-92570009D01*
X139754755Y-92568773D01*
X139876386Y-92533000D01*
X139989747Y-92479415D01*
X140092632Y-92409713D01*
X140182837Y-92325590D01*
X140258156Y-92228742D01*
X140305154Y-92145458D01*
X140327533Y-92096904D01*
X140343844Y-92055462D01*
X140357088Y-92012344D01*
X140370266Y-91958760D01*
X140372932Y-91947021D01*
X140376867Y-91932913D01*
X140383876Y-91924311D01*
X140398465Y-91919851D01*
X140425139Y-91918174D01*
X140468404Y-91917917D01*
X140559000Y-91917917D01*
X140559000Y-91738000D01*
X140400250Y-91738000D01*
X140400250Y-91600417D01*
X140559000Y-91600417D01*
X140559000Y-91505943D01*
X140558384Y-91459635D01*
X140556083Y-91430560D01*
X140551421Y-91414810D01*
X140543719Y-91408475D01*
X140542027Y-91408047D01*
X140546292Y-91403030D01*
X140567516Y-91390830D01*
X140603237Y-91372673D01*
X140650990Y-91349788D01*
X140708313Y-91323403D01*
X140743685Y-91307551D01*
X140962315Y-91210477D01*
X140973093Y-91238759D01*
X140995308Y-91311980D01*
X141013053Y-91400530D01*
X141025850Y-91498949D01*
X141033218Y-91601778D01*
X141034678Y-91703558D01*
X141318008Y-91703558D01*
X141319606Y-91600136D01*
X141315978Y-91499073D01*
X141306280Y-91405386D01*
X141289845Y-91312446D01*
X141268378Y-91222565D01*
X141214870Y-91059445D01*
X141155033Y-90929223D01*
X140820971Y-90929223D01*
X140810526Y-90934474D01*
X140783746Y-90946810D01*
X140743678Y-90964887D01*
X140693371Y-90987364D01*
X140635872Y-91012897D01*
X140574228Y-91040145D01*
X140511489Y-91067765D01*
X140450700Y-91094414D01*
X140394911Y-91118750D01*
X140347169Y-91139430D01*
X140310522Y-91155112D01*
X140288017Y-91164453D01*
X140282307Y-91166500D01*
X140273349Y-91158320D01*
X140257288Y-91137169D01*
X140242721Y-91115486D01*
X140206635Y-91067858D01*
X140157593Y-91014960D01*
X140101080Y-90961908D01*
X140042584Y-90913818D01*
X139987591Y-90875806D01*
X139982208Y-90872587D01*
X139872665Y-90820046D01*
X139752416Y-90783881D01*
X139624608Y-90764461D01*
X139492382Y-90762156D01*
X139358884Y-90777334D01*
X139292444Y-90791644D01*
X139233006Y-90807604D01*
X139192034Y-90821475D01*
X139167094Y-90834524D01*
X139155752Y-90848013D01*
X139155468Y-90862822D01*
X139160244Y-90881966D01*
X139168603Y-90916725D01*
X139179352Y-90962096D01*
X139190847Y-91011142D01*
X139203459Y-91063865D01*
X139213030Y-91099097D01*
X139220910Y-91120054D01*
X139228449Y-91129950D01*
X139236997Y-91132002D01*
X139241279Y-91131283D01*
X139260997Y-91126385D01*
X139294924Y-91117676D01*
X139336809Y-91106766D01*
X139351396Y-91102935D01*
X139436564Y-91086793D01*
X139523678Y-91081538D01*
X139606950Y-91086964D01*
X139680595Y-91102864D01*
X139714641Y-91115880D01*
X139773314Y-91150170D01*
X139829725Y-91195812D01*
X139877089Y-91246753D01*
X139901195Y-91282264D01*
X139925509Y-91325525D01*
X139833742Y-91367721D01*
X139741976Y-91409916D01*
X139504904Y-91409917D01*
X139267833Y-91409917D01*
X139267833Y-91504285D01*
X139269267Y-91558015D01*
X139273576Y-91590867D01*
X139280307Y-91602811D01*
X139272915Y-91607557D01*
X139248469Y-91619837D01*
X139209265Y-91638609D01*
X139157603Y-91662836D01*
X139095781Y-91691477D01*
X139026096Y-91723493D01*
X138950848Y-91757844D01*
X138872334Y-91793492D01*
X138792853Y-91829396D01*
X138714703Y-91864517D01*
X138640181Y-91897817D01*
X138571587Y-91928255D01*
X138511219Y-91954792D01*
X138461374Y-91976389D01*
X138424351Y-91992005D01*
X138402449Y-92000603D01*
X138397762Y-92001958D01*
X138390556Y-91993230D01*
X138381960Y-91970747D01*
X138379729Y-91962896D01*
X138373438Y-91933398D01*
X138366228Y-91890986D01*
X138359456Y-91843790D01*
X138358154Y-91833527D01*
X138347132Y-91667274D01*
X138354842Y-91502918D01*
X138380871Y-91343251D01*
X138424807Y-91191063D01*
X138469152Y-91083739D01*
X138517280Y-90990145D01*
X138569515Y-90906367D01*
X138630313Y-90826064D01*
X138704130Y-90742893D01*
X138721124Y-90725070D01*
X138829681Y-90620603D01*
X138937625Y-90534418D01*
X139048934Y-90464137D01*
X139167583Y-90407378D01*
X139297552Y-90361762D01*
X139354993Y-90345739D01*
X139434926Y-90329516D01*
X139528941Y-90317896D01*
X139630405Y-90311136D01*
X139732683Y-90309494D01*
X139829142Y-90313227D01*
X139913147Y-90322594D01*
X139920144Y-90323770D01*
X140082177Y-90361819D01*
X140233637Y-90417993D01*
X140375426Y-90492759D01*
X140508445Y-90586587D01*
X140623410Y-90689707D01*
X140657427Y-90724955D01*
X140693818Y-90764936D01*
X140729999Y-90806513D01*
X140763384Y-90846552D01*
X140791386Y-90881917D01*
X140811419Y-90909474D01*
X140820898Y-90926086D01*
X140820971Y-90929223D01*
X141155033Y-90929223D01*
X141142343Y-90901607D01*
X141052544Y-90751047D01*
X140947218Y-90609762D01*
X140828113Y-90479748D01*
X140696974Y-90363003D01*
X140555548Y-90261522D01*
X140405581Y-90177304D01*
X140321130Y-90139488D01*
X140184703Y-90090772D01*
X140046463Y-90056036D01*
X139902091Y-90034578D01*
X139747273Y-90025695D01*
X139627666Y-90026668D01*
X139627666Y-90026668D01*
G37*
X139627666Y-90026668D02*
X139442135Y-90041001D01*
X139268615Y-90072252D01*
X139105593Y-90121050D01*
X138951560Y-90188029D01*
X138805003Y-90273819D01*
X138664412Y-90379053D01*
X138560076Y-90472951D01*
X138435096Y-90605099D01*
X138329823Y-90741576D01*
X138242877Y-90884910D01*
X138172873Y-91037632D01*
X138118431Y-91202273D01*
X138085773Y-91341125D01*
X138075993Y-91408209D01*
X138069468Y-91490797D01*
X138066148Y-91583485D01*
X138065983Y-91680870D01*
X138068922Y-91777548D01*
X138074917Y-91868117D01*
X138083916Y-91947172D01*
X138091812Y-91992000D01*
X138140846Y-92173525D01*
X138208098Y-92344346D01*
X138293326Y-92504112D01*
X138396288Y-92652475D01*
X138516741Y-92789083D01*
X138654443Y-92913589D01*
X138807458Y-93024542D01*
X138963742Y-93113569D01*
X139129612Y-93184416D01*
X139303117Y-93236648D01*
X139482302Y-93269830D01*
X139665214Y-93283526D01*
X139849900Y-93277301D01*
X139911672Y-93270705D01*
X140080923Y-93238992D01*
X140246740Y-93187336D01*
X140407305Y-93116897D01*
X140560803Y-93028837D01*
X140705419Y-92924317D01*
X140839336Y-92804498D01*
X140960740Y-92670540D01*
X141059002Y-92537042D01*
X141142887Y-92398312D01*
X141208855Y-92260905D01*
X141258193Y-92120739D01*
X141292186Y-91973731D01*
X141312120Y-91815799D01*
X141317829Y-91715200D01*
X141318008Y-91703558D01*
X141034678Y-91703558D01*
X141029752Y-91798830D01*
X141025578Y-91836222D01*
X140994521Y-91990680D01*
X140943799Y-92140532D01*
X140874724Y-92284034D01*
X140788603Y-92419440D01*
X140686746Y-92545006D01*
X140570461Y-92658989D01*
X140441057Y-92759645D01*
X140299844Y-92845228D01*
X140249361Y-92870589D01*
X140103023Y-92928861D01*
X139948467Y-92968558D01*
X139788099Y-92989409D01*
X139624330Y-92991145D01*
X139459567Y-92973495D01*
X139411411Y-92964603D01*
X139255233Y-92922396D01*
X139105987Y-92860397D01*
X138963448Y-92778481D01*
X138827388Y-92676518D01*
X138717500Y-92574843D01*
X138680260Y-92535134D01*
X138641965Y-92490750D01*
X138604862Y-92444743D01*
X138571196Y-92400165D01*
X138543216Y-92360070D01*
X138523167Y-92327510D01*
X138513296Y-92305538D01*
X138513751Y-92297989D01*
X138524819Y-92292304D01*
X138553250Y-92279009D01*
X138597028Y-92259012D01*
X138654139Y-92233219D01*
X138722567Y-92202540D01*
X138800297Y-92167880D01*
X138885315Y-92130149D01*
X138943782Y-92104295D01*
X139365857Y-91917917D01*
X139660803Y-91917917D01*
X139749941Y-91917790D01*
X139819941Y-91917868D01*
X139872823Y-91918836D01*
X139910612Y-91921380D01*
X139935329Y-91926184D01*
X139948997Y-91933934D01*
X139953638Y-91945315D01*
X139951274Y-91961014D01*
X139943928Y-91981715D01*
X139933622Y-92008104D01*
X139932863Y-92010124D01*
X139900988Y-92070648D01*
X139853777Y-92128900D01*
X139796809Y-92179337D01*
X139735660Y-92216418D01*
X139717625Y-92224000D01*
X139621926Y-92249459D01*
X139517397Y-92258685D01*
X139408747Y-92251715D01*
X139300685Y-92228587D01*
X139274881Y-92220476D01*
X139230954Y-92207503D01*
X139205519Y-92204232D01*
X139198762Y-92207867D01*
X139191699Y-92233939D01*
X139182854Y-92272109D01*
X139173169Y-92317547D01*
X139163590Y-92365423D01*
X139155058Y-92410907D01*
X139148519Y-92449169D01*
X139144914Y-92475380D01*
X139144749Y-92484357D01*
X139158023Y-92496225D01*
X139187430Y-92511314D01*
X139228515Y-92527938D01*
X139276820Y-92544415D01*
X139327889Y-92559058D01*
X139365949Y-92567954D01*
X139434660Y-92577991D01*
X139515184Y-92583231D01*
X139599622Y-92583659D01*
X139680075Y-92579257D01*
X139748645Y-92570009D01*
X139754755Y-92568773D01*
X139876386Y-92533000D01*
X139989747Y-92479415D01*
X140092632Y-92409713D01*
X140182837Y-92325590D01*
X140258156Y-92228742D01*
X140305154Y-92145458D01*
X140327533Y-92096904D01*
X140343844Y-92055462D01*
X140357088Y-92012344D01*
X140370266Y-91958760D01*
X140372932Y-91947021D01*
X140376867Y-91932913D01*
X140383876Y-91924311D01*
X140398465Y-91919851D01*
X140425139Y-91918174D01*
X140468404Y-91917917D01*
X140559000Y-91917917D01*
X140559000Y-91738000D01*
X140400250Y-91738000D01*
X140400250Y-91600417D01*
X140559000Y-91600417D01*
X140559000Y-91505943D01*
X140558384Y-91459635D01*
X140556083Y-91430560D01*
X140551421Y-91414810D01*
X140543719Y-91408475D01*
X140542027Y-91408047D01*
X140546292Y-91403030D01*
X140567516Y-91390830D01*
X140603237Y-91372673D01*
X140650990Y-91349788D01*
X140708313Y-91323403D01*
X140743685Y-91307551D01*
X140962315Y-91210477D01*
X140973093Y-91238759D01*
X140995308Y-91311980D01*
X141013053Y-91400530D01*
X141025850Y-91498949D01*
X141033218Y-91601778D01*
X141034678Y-91703558D01*
X141318008Y-91703558D01*
X141319606Y-91600136D01*
X141315978Y-91499073D01*
X141306280Y-91405386D01*
X141289845Y-91312446D01*
X141268378Y-91222565D01*
X141214870Y-91059445D01*
X141155033Y-90929223D01*
X140820971Y-90929223D01*
X140810526Y-90934474D01*
X140783746Y-90946810D01*
X140743678Y-90964887D01*
X140693371Y-90987364D01*
X140635872Y-91012897D01*
X140574228Y-91040145D01*
X140511489Y-91067765D01*
X140450700Y-91094414D01*
X140394911Y-91118750D01*
X140347169Y-91139430D01*
X140310522Y-91155112D01*
X140288017Y-91164453D01*
X140282307Y-91166500D01*
X140273349Y-91158320D01*
X140257288Y-91137169D01*
X140242721Y-91115486D01*
X140206635Y-91067858D01*
X140157593Y-91014960D01*
X140101080Y-90961908D01*
X140042584Y-90913818D01*
X139987591Y-90875806D01*
X139982208Y-90872587D01*
X139872665Y-90820046D01*
X139752416Y-90783881D01*
X139624608Y-90764461D01*
X139492382Y-90762156D01*
X139358884Y-90777334D01*
X139292444Y-90791644D01*
X139233006Y-90807604D01*
X139192034Y-90821475D01*
X139167094Y-90834524D01*
X139155752Y-90848013D01*
X139155468Y-90862822D01*
X139160244Y-90881966D01*
X139168603Y-90916725D01*
X139179352Y-90962096D01*
X139190847Y-91011142D01*
X139203459Y-91063865D01*
X139213030Y-91099097D01*
X139220910Y-91120054D01*
X139228449Y-91129950D01*
X139236997Y-91132002D01*
X139241279Y-91131283D01*
X139260997Y-91126385D01*
X139294924Y-91117676D01*
X139336809Y-91106766D01*
X139351396Y-91102935D01*
X139436564Y-91086793D01*
X139523678Y-91081538D01*
X139606950Y-91086964D01*
X139680595Y-91102864D01*
X139714641Y-91115880D01*
X139773314Y-91150170D01*
X139829725Y-91195812D01*
X139877089Y-91246753D01*
X139901195Y-91282264D01*
X139925509Y-91325525D01*
X139833742Y-91367721D01*
X139741976Y-91409916D01*
X139504904Y-91409917D01*
X139267833Y-91409917D01*
X139267833Y-91504285D01*
X139269267Y-91558015D01*
X139273576Y-91590867D01*
X139280307Y-91602811D01*
X139272915Y-91607557D01*
X139248469Y-91619837D01*
X139209265Y-91638609D01*
X139157603Y-91662836D01*
X139095781Y-91691477D01*
X139026096Y-91723493D01*
X138950848Y-91757844D01*
X138872334Y-91793492D01*
X138792853Y-91829396D01*
X138714703Y-91864517D01*
X138640181Y-91897817D01*
X138571587Y-91928255D01*
X138511219Y-91954792D01*
X138461374Y-91976389D01*
X138424351Y-91992005D01*
X138402449Y-92000603D01*
X138397762Y-92001958D01*
X138390556Y-91993230D01*
X138381960Y-91970747D01*
X138379729Y-91962896D01*
X138373438Y-91933398D01*
X138366228Y-91890986D01*
X138359456Y-91843790D01*
X138358154Y-91833527D01*
X138347132Y-91667274D01*
X138354842Y-91502918D01*
X138380871Y-91343251D01*
X138424807Y-91191063D01*
X138469152Y-91083739D01*
X138517280Y-90990145D01*
X138569515Y-90906367D01*
X138630313Y-90826064D01*
X138704130Y-90742893D01*
X138721124Y-90725070D01*
X138829681Y-90620603D01*
X138937625Y-90534418D01*
X139048934Y-90464137D01*
X139167583Y-90407378D01*
X139297552Y-90361762D01*
X139354993Y-90345739D01*
X139434926Y-90329516D01*
X139528941Y-90317896D01*
X139630405Y-90311136D01*
X139732683Y-90309494D01*
X139829142Y-90313227D01*
X139913147Y-90322594D01*
X139920144Y-90323770D01*
X140082177Y-90361819D01*
X140233637Y-90417993D01*
X140375426Y-90492759D01*
X140508445Y-90586587D01*
X140623410Y-90689707D01*
X140657427Y-90724955D01*
X140693818Y-90764936D01*
X140729999Y-90806513D01*
X140763384Y-90846552D01*
X140791386Y-90881917D01*
X140811419Y-90909474D01*
X140820898Y-90926086D01*
X140820971Y-90929223D01*
X141155033Y-90929223D01*
X141142343Y-90901607D01*
X141052544Y-90751047D01*
X140947218Y-90609762D01*
X140828113Y-90479748D01*
X140696974Y-90363003D01*
X140555548Y-90261522D01*
X140405581Y-90177304D01*
X140321130Y-90139488D01*
X140184703Y-90090772D01*
X140046463Y-90056036D01*
X139902091Y-90034578D01*
X139747273Y-90025695D01*
X139627666Y-90026668D01*
G36*
X135884661Y-90024711D02*
X135781518Y-90033068D01*
X135768161Y-90034797D01*
X135587765Y-90069573D01*
X135416443Y-90123457D01*
X135254082Y-90196504D01*
X135100569Y-90288768D01*
X134955792Y-90400306D01*
X134882377Y-90467435D01*
X134755237Y-90602140D01*
X134647997Y-90741606D01*
X134559572Y-90887830D01*
X134488875Y-91042809D01*
X134434822Y-91208539D01*
X134403018Y-91349213D01*
X134392741Y-91423719D01*
X134386177Y-91513119D01*
X134383284Y-91611477D01*
X134384017Y-91712856D01*
X134388333Y-91811321D01*
X134396189Y-91900935D01*
X134407542Y-91975761D01*
X134407614Y-91976125D01*
X134453468Y-92156500D01*
X134516241Y-92324318D01*
X134596149Y-92480025D01*
X134693413Y-92624070D01*
X134766781Y-92712479D01*
X134904082Y-92850984D01*
X135050436Y-92970602D01*
X135205467Y-93071136D01*
X135368801Y-93152388D01*
X135540064Y-93214161D01*
X135718879Y-93256258D01*
X135830479Y-93272081D01*
X135901143Y-93277679D01*
X135980672Y-93280718D01*
X136060696Y-93281099D01*
X136132845Y-93278720D01*
X136166916Y-93276123D01*
X136243651Y-93265932D01*
X136330360Y-93250214D01*
X136417235Y-93230977D01*
X136494468Y-93210229D01*
X136505583Y-93206806D01*
X136666070Y-93145425D01*
X136820358Y-93065155D01*
X136966596Y-92967821D01*
X137102932Y-92855249D01*
X137227516Y-92729264D01*
X137338497Y-92591694D01*
X137434023Y-92444363D01*
X137512243Y-92289097D01*
X137558542Y-92168226D01*
X137582427Y-92093094D01*
X137600536Y-92027071D01*
X137613778Y-91964580D01*
X137623062Y-91900042D01*
X137629298Y-91827877D01*
X137633394Y-91742506D01*
X137634708Y-91700958D01*
X137635922Y-91649301D01*
X137352216Y-91649301D01*
X137343040Y-91817739D01*
X137315174Y-91976806D01*
X137268235Y-92127440D01*
X137201843Y-92270581D01*
X137115617Y-92407169D01*
X137009174Y-92538142D01*
X136977511Y-92572047D01*
X136850845Y-92689569D01*
X136714904Y-92788321D01*
X136570679Y-92867979D01*
X136419159Y-92928216D01*
X136261334Y-92968708D01*
X136098194Y-92989131D01*
X135930728Y-92989160D01*
X135766083Y-92969571D01*
X135612114Y-92931843D01*
X135462252Y-92874554D01*
X135318788Y-92799228D01*
X135184013Y-92707394D01*
X135060217Y-92600576D01*
X134949692Y-92480303D01*
X134870775Y-92373016D01*
X134795483Y-92240239D01*
X134737117Y-92097172D01*
X134695828Y-91946430D01*
X134671765Y-91790628D01*
X134665077Y-91632381D01*
X134675915Y-91474304D01*
X134704427Y-91319012D01*
X134750764Y-91169121D01*
X134795938Y-91064598D01*
X134849891Y-90964783D01*
X134910949Y-90872953D01*
X134983006Y-90783899D01*
X135069957Y-90692410D01*
X135085266Y-90677435D01*
X135210216Y-90568424D01*
X135340263Y-90479323D01*
X135476849Y-90409558D01*
X135621412Y-90358555D01*
X135775394Y-90325737D01*
X135940234Y-90310531D01*
X136007688Y-90309250D01*
X136179073Y-90318235D01*
X136339922Y-90345430D01*
X136491070Y-90391193D01*
X136633354Y-90455884D01*
X136767612Y-90539860D01*
X136894681Y-90643481D01*
X136976645Y-90724534D01*
X137088744Y-90856311D01*
X137180352Y-90992154D01*
X137251948Y-91133241D01*
X137304009Y-91280749D01*
X137337014Y-91435854D01*
X137351439Y-91599733D01*
X137352216Y-91649301D01*
X137635922Y-91649301D01*
X137636510Y-91624300D01*
X137636860Y-91563432D01*
X137635490Y-91513013D01*
X137632133Y-91467698D01*
X137626522Y-91422147D01*
X137618388Y-91371015D01*
X137618111Y-91369393D01*
X137577532Y-91191446D01*
X137517869Y-91022035D01*
X137438778Y-90860422D01*
X137339913Y-90705864D01*
X137261624Y-90604910D01*
X137141747Y-90475470D01*
X137009699Y-90359544D01*
X136867937Y-90258735D01*
X136718916Y-90174646D01*
X136565093Y-90108882D01*
X136445013Y-90071763D01*
X136348473Y-90051680D01*
X136237723Y-90036581D01*
X136119209Y-90026819D01*
X135999373Y-90022745D01*
X135884661Y-90024711D01*
X135884661Y-90024711D01*
G37*
X135884661Y-90024711D02*
X135781518Y-90033068D01*
X135768161Y-90034797D01*
X135587765Y-90069573D01*
X135416443Y-90123457D01*
X135254082Y-90196504D01*
X135100569Y-90288768D01*
X134955792Y-90400306D01*
X134882377Y-90467435D01*
X134755237Y-90602140D01*
X134647997Y-90741606D01*
X134559572Y-90887830D01*
X134488875Y-91042809D01*
X134434822Y-91208539D01*
X134403018Y-91349213D01*
X134392741Y-91423719D01*
X134386177Y-91513119D01*
X134383284Y-91611477D01*
X134384017Y-91712856D01*
X134388333Y-91811321D01*
X134396189Y-91900935D01*
X134407542Y-91975761D01*
X134407614Y-91976125D01*
X134453468Y-92156500D01*
X134516241Y-92324318D01*
X134596149Y-92480025D01*
X134693413Y-92624070D01*
X134766781Y-92712479D01*
X134904082Y-92850984D01*
X135050436Y-92970602D01*
X135205467Y-93071136D01*
X135368801Y-93152388D01*
X135540064Y-93214161D01*
X135718879Y-93256258D01*
X135830479Y-93272081D01*
X135901143Y-93277679D01*
X135980672Y-93280718D01*
X136060696Y-93281099D01*
X136132845Y-93278720D01*
X136166916Y-93276123D01*
X136243651Y-93265932D01*
X136330360Y-93250214D01*
X136417235Y-93230977D01*
X136494468Y-93210229D01*
X136505583Y-93206806D01*
X136666070Y-93145425D01*
X136820358Y-93065155D01*
X136966596Y-92967821D01*
X137102932Y-92855249D01*
X137227516Y-92729264D01*
X137338497Y-92591694D01*
X137434023Y-92444363D01*
X137512243Y-92289097D01*
X137558542Y-92168226D01*
X137582427Y-92093094D01*
X137600536Y-92027071D01*
X137613778Y-91964580D01*
X137623062Y-91900042D01*
X137629298Y-91827877D01*
X137633394Y-91742506D01*
X137634708Y-91700958D01*
X137635922Y-91649301D01*
X137352216Y-91649301D01*
X137343040Y-91817739D01*
X137315174Y-91976806D01*
X137268235Y-92127440D01*
X137201843Y-92270581D01*
X137115617Y-92407169D01*
X137009174Y-92538142D01*
X136977511Y-92572047D01*
X136850845Y-92689569D01*
X136714904Y-92788321D01*
X136570679Y-92867979D01*
X136419159Y-92928216D01*
X136261334Y-92968708D01*
X136098194Y-92989131D01*
X135930728Y-92989160D01*
X135766083Y-92969571D01*
X135612114Y-92931843D01*
X135462252Y-92874554D01*
X135318788Y-92799228D01*
X135184013Y-92707394D01*
X135060217Y-92600576D01*
X134949692Y-92480303D01*
X134870775Y-92373016D01*
X134795483Y-92240239D01*
X134737117Y-92097172D01*
X134695828Y-91946430D01*
X134671765Y-91790628D01*
X134665077Y-91632381D01*
X134675915Y-91474304D01*
X134704427Y-91319012D01*
X134750764Y-91169121D01*
X134795938Y-91064598D01*
X134849891Y-90964783D01*
X134910949Y-90872953D01*
X134983006Y-90783899D01*
X135069957Y-90692410D01*
X135085266Y-90677435D01*
X135210216Y-90568424D01*
X135340263Y-90479323D01*
X135476849Y-90409558D01*
X135621412Y-90358555D01*
X135775394Y-90325737D01*
X135940234Y-90310531D01*
X136007688Y-90309250D01*
X136179073Y-90318235D01*
X136339922Y-90345430D01*
X136491070Y-90391193D01*
X136633354Y-90455884D01*
X136767612Y-90539860D01*
X136894681Y-90643481D01*
X136976645Y-90724534D01*
X137088744Y-90856311D01*
X137180352Y-90992154D01*
X137251948Y-91133241D01*
X137304009Y-91280749D01*
X137337014Y-91435854D01*
X137351439Y-91599733D01*
X137352216Y-91649301D01*
X137635922Y-91649301D01*
X137636510Y-91624300D01*
X137636860Y-91563432D01*
X137635490Y-91513013D01*
X137632133Y-91467698D01*
X137626522Y-91422147D01*
X137618388Y-91371015D01*
X137618111Y-91369393D01*
X137577532Y-91191446D01*
X137517869Y-91022035D01*
X137438778Y-90860422D01*
X137339913Y-90705864D01*
X137261624Y-90604910D01*
X137141747Y-90475470D01*
X137009699Y-90359544D01*
X136867937Y-90258735D01*
X136718916Y-90174646D01*
X136565093Y-90108882D01*
X136445013Y-90071763D01*
X136348473Y-90051680D01*
X136237723Y-90036581D01*
X136119209Y-90026819D01*
X135999373Y-90022745D01*
X135884661Y-90024711D01*
G36*
X148216788Y-91625702D02*
X148109649Y-91647197D01*
X148014422Y-91684149D01*
X147929193Y-91737207D01*
X147887635Y-91771886D01*
X147854067Y-91805038D01*
X147821712Y-91841221D01*
X147794008Y-91876088D01*
X147774391Y-91905291D01*
X147766297Y-91924483D01*
X147766250Y-91925440D01*
X147775087Y-91932866D01*
X147798891Y-91947105D01*
X147833601Y-91966115D01*
X147875156Y-91987850D01*
X147919494Y-92010266D01*
X147962553Y-92031319D01*
X148000273Y-92048963D01*
X148028592Y-92061155D01*
X148043450Y-92065850D01*
X148044621Y-92065574D01*
X148052262Y-92054844D01*
X148067875Y-92032125D01*
X148082372Y-92010769D01*
X148130287Y-91957860D01*
X148190188Y-91920968D01*
X148259104Y-91901135D01*
X148334062Y-91899405D01*
X148378445Y-91906940D01*
X148437558Y-91931280D01*
X148490767Y-91972414D01*
X148533110Y-92025987D01*
X148548809Y-92056434D01*
X148570420Y-92123972D01*
X148584202Y-92204323D01*
X148589406Y-92290350D01*
X148585281Y-92374918D01*
X148583666Y-92388129D01*
X148564773Y-92480982D01*
X148535036Y-92555955D01*
X148493932Y-92613648D01*
X148440938Y-92654661D01*
X148375528Y-92679595D01*
X148322186Y-92687795D01*
X148240742Y-92685071D01*
X148168573Y-92663414D01*
X148106163Y-92623053D01*
X148053999Y-92564221D01*
X148049710Y-92557856D01*
X148013208Y-92502429D01*
X147884355Y-92570880D01*
X147755502Y-92639330D01*
X147774105Y-92672853D01*
X147789139Y-92694073D01*
X147815352Y-92725426D01*
X147848745Y-92762293D01*
X147877375Y-92792081D01*
X147950629Y-92858170D01*
X148024243Y-92906845D01*
X148103735Y-92941219D01*
X148176399Y-92960753D01*
X148258630Y-92971967D01*
X148350549Y-92974165D01*
X148442710Y-92967383D01*
X148491208Y-92959615D01*
X148595393Y-92928589D01*
X148690792Y-92879500D01*
X148775421Y-92814330D01*
X148847295Y-92735059D01*
X148904431Y-92643669D01*
X148944843Y-92542141D01*
X148956828Y-92494708D01*
X148967055Y-92425476D01*
X148972126Y-92344879D01*
X148972128Y-92260170D01*
X148967149Y-92178605D01*
X148957278Y-92107437D01*
X148951843Y-92082974D01*
X148914955Y-91975484D01*
X148862164Y-91881327D01*
X148792236Y-91798722D01*
X148704871Y-91726543D01*
X148626110Y-91678847D01*
X148544902Y-91646055D01*
X148456137Y-91626672D01*
X148354708Y-91619202D01*
X148337750Y-91619015D01*
X148216788Y-91625702D01*
X148216788Y-91625702D01*
G37*
X148216788Y-91625702D02*
X148109649Y-91647197D01*
X148014422Y-91684149D01*
X147929193Y-91737207D01*
X147887635Y-91771886D01*
X147854067Y-91805038D01*
X147821712Y-91841221D01*
X147794008Y-91876088D01*
X147774391Y-91905291D01*
X147766297Y-91924483D01*
X147766250Y-91925440D01*
X147775087Y-91932866D01*
X147798891Y-91947105D01*
X147833601Y-91966115D01*
X147875156Y-91987850D01*
X147919494Y-92010266D01*
X147962553Y-92031319D01*
X148000273Y-92048963D01*
X148028592Y-92061155D01*
X148043450Y-92065850D01*
X148044621Y-92065574D01*
X148052262Y-92054844D01*
X148067875Y-92032125D01*
X148082372Y-92010769D01*
X148130287Y-91957860D01*
X148190188Y-91920968D01*
X148259104Y-91901135D01*
X148334062Y-91899405D01*
X148378445Y-91906940D01*
X148437558Y-91931280D01*
X148490767Y-91972414D01*
X148533110Y-92025987D01*
X148548809Y-92056434D01*
X148570420Y-92123972D01*
X148584202Y-92204323D01*
X148589406Y-92290350D01*
X148585281Y-92374918D01*
X148583666Y-92388129D01*
X148564773Y-92480982D01*
X148535036Y-92555955D01*
X148493932Y-92613648D01*
X148440938Y-92654661D01*
X148375528Y-92679595D01*
X148322186Y-92687795D01*
X148240742Y-92685071D01*
X148168573Y-92663414D01*
X148106163Y-92623053D01*
X148053999Y-92564221D01*
X148049710Y-92557856D01*
X148013208Y-92502429D01*
X147884355Y-92570880D01*
X147755502Y-92639330D01*
X147774105Y-92672853D01*
X147789139Y-92694073D01*
X147815352Y-92725426D01*
X147848745Y-92762293D01*
X147877375Y-92792081D01*
X147950629Y-92858170D01*
X148024243Y-92906845D01*
X148103735Y-92941219D01*
X148176399Y-92960753D01*
X148258630Y-92971967D01*
X148350549Y-92974165D01*
X148442710Y-92967383D01*
X148491208Y-92959615D01*
X148595393Y-92928589D01*
X148690792Y-92879500D01*
X148775421Y-92814330D01*
X148847295Y-92735059D01*
X148904431Y-92643669D01*
X148944843Y-92542141D01*
X148956828Y-92494708D01*
X148967055Y-92425476D01*
X148972126Y-92344879D01*
X148972128Y-92260170D01*
X148967149Y-92178605D01*
X148957278Y-92107437D01*
X148951843Y-92082974D01*
X148914955Y-91975484D01*
X148862164Y-91881327D01*
X148792236Y-91798722D01*
X148704871Y-91726543D01*
X148626110Y-91678847D01*
X148544902Y-91646055D01*
X148456137Y-91626672D01*
X148354708Y-91619202D01*
X148337750Y-91619015D01*
X148216788Y-91625702D01*
G36*
X146931903Y-91627766D02*
X146818712Y-91653364D01*
X146717984Y-91695634D01*
X146630110Y-91754395D01*
X146555483Y-91829467D01*
X146530182Y-91862942D01*
X146484739Y-91927894D01*
X146779181Y-92075396D01*
X146791409Y-92048558D01*
X146830727Y-91987176D01*
X146885865Y-91939012D01*
X146915669Y-91922070D01*
X146951468Y-91906324D01*
X146982056Y-91898757D01*
X147017553Y-91897557D01*
X147044258Y-91899057D01*
X147122560Y-91913563D01*
X147188024Y-91944798D01*
X147240531Y-91992570D01*
X147279963Y-92056688D01*
X147306201Y-92136961D01*
X147319126Y-92233198D01*
X147318891Y-92340578D01*
X147306405Y-92440813D01*
X147281238Y-92524133D01*
X147243401Y-92590523D01*
X147192906Y-92639969D01*
X147129763Y-92672455D01*
X147055910Y-92687796D01*
X146973699Y-92686284D01*
X146901183Y-92666198D01*
X146838996Y-92627835D01*
X146787774Y-92571494D01*
X146778550Y-92557533D01*
X146743648Y-92501736D01*
X146614657Y-92570293D01*
X146567893Y-92595653D01*
X146528714Y-92617863D01*
X146500511Y-92634928D01*
X146486671Y-92644851D01*
X146485826Y-92646154D01*
X146492849Y-92662220D01*
X146511217Y-92689275D01*
X146537483Y-92723169D01*
X146568198Y-92759752D01*
X146599917Y-92794874D01*
X146629191Y-92824385D01*
X146646503Y-92839578D01*
X146738009Y-92899083D01*
X146840706Y-92942017D01*
X146951856Y-92967746D01*
X147068724Y-92975639D01*
X147188572Y-92965063D01*
X147189253Y-92964950D01*
X147298699Y-92936278D01*
X147398957Y-92888672D01*
X147488869Y-92822757D01*
X147533416Y-92779007D01*
X147596182Y-92698989D01*
X147643270Y-92611041D01*
X147675799Y-92512306D01*
X147694890Y-92399930D01*
X147698556Y-92357543D01*
X147698684Y-92225180D01*
X147680487Y-92102779D01*
X147644084Y-91990686D01*
X147589594Y-91889246D01*
X147517134Y-91798806D01*
X147501903Y-91783438D01*
X147418536Y-91716098D01*
X147324276Y-91666514D01*
X147218713Y-91634535D01*
X147101436Y-91620010D01*
X147057166Y-91619023D01*
X146931903Y-91627766D01*
X146931903Y-91627766D01*
G37*
X146931903Y-91627766D02*
X146818712Y-91653364D01*
X146717984Y-91695634D01*
X146630110Y-91754395D01*
X146555483Y-91829467D01*
X146530182Y-91862942D01*
X146484739Y-91927894D01*
X146779181Y-92075396D01*
X146791409Y-92048558D01*
X146830727Y-91987176D01*
X146885865Y-91939012D01*
X146915669Y-91922070D01*
X146951468Y-91906324D01*
X146982056Y-91898757D01*
X147017553Y-91897557D01*
X147044258Y-91899057D01*
X147122560Y-91913563D01*
X147188024Y-91944798D01*
X147240531Y-91992570D01*
X147279963Y-92056688D01*
X147306201Y-92136961D01*
X147319126Y-92233198D01*
X147318891Y-92340578D01*
X147306405Y-92440813D01*
X147281238Y-92524133D01*
X147243401Y-92590523D01*
X147192906Y-92639969D01*
X147129763Y-92672455D01*
X147055910Y-92687796D01*
X146973699Y-92686284D01*
X146901183Y-92666198D01*
X146838996Y-92627835D01*
X146787774Y-92571494D01*
X146778550Y-92557533D01*
X146743648Y-92501736D01*
X146614657Y-92570293D01*
X146567893Y-92595653D01*
X146528714Y-92617863D01*
X146500511Y-92634928D01*
X146486671Y-92644851D01*
X146485826Y-92646154D01*
X146492849Y-92662220D01*
X146511217Y-92689275D01*
X146537483Y-92723169D01*
X146568198Y-92759752D01*
X146599917Y-92794874D01*
X146629191Y-92824385D01*
X146646503Y-92839578D01*
X146738009Y-92899083D01*
X146840706Y-92942017D01*
X146951856Y-92967746D01*
X147068724Y-92975639D01*
X147188572Y-92965063D01*
X147189253Y-92964950D01*
X147298699Y-92936278D01*
X147398957Y-92888672D01*
X147488869Y-92822757D01*
X147533416Y-92779007D01*
X147596182Y-92698989D01*
X147643270Y-92611041D01*
X147675799Y-92512306D01*
X147694890Y-92399930D01*
X147698556Y-92357543D01*
X147698684Y-92225180D01*
X147680487Y-92102779D01*
X147644084Y-91990686D01*
X147589594Y-91889246D01*
X147517134Y-91798806D01*
X147501903Y-91783438D01*
X147418536Y-91716098D01*
X147324276Y-91666514D01*
X147218713Y-91634535D01*
X147101436Y-91620010D01*
X147057166Y-91619023D01*
X146931903Y-91627766D01*
G36*
X142940250Y-91207205D02*
X142940250Y-91907333D01*
X143120166Y-91907333D01*
X143120166Y-92701083D01*
X143628166Y-92701083D01*
X143628166Y-91907333D01*
X143808083Y-91907333D01*
X143808083Y-91207205D01*
X143746211Y-91145333D01*
X143002122Y-91145333D01*
X142940250Y-91207205D01*
X142940250Y-91207205D01*
G37*
X142940250Y-91207205D02*
X142940250Y-91907333D01*
X143120166Y-91907333D01*
X143120166Y-92701083D01*
X143628166Y-92701083D01*
X143628166Y-91907333D01*
X143808083Y-91907333D01*
X143808083Y-91207205D01*
X143746211Y-91145333D01*
X143002122Y-91145333D01*
X142940250Y-91207205D01*
G36*
X143287609Y-90618661D02*
X143235501Y-90648894D01*
X143191253Y-90695688D01*
X143186893Y-90702055D01*
X143160397Y-90759655D01*
X143152161Y-90820700D01*
X143160699Y-90881312D01*
X143184523Y-90937615D01*
X143222145Y-90985733D01*
X143272077Y-91021789D01*
X143315972Y-91038399D01*
X143356106Y-91046838D01*
X143388239Y-91047883D01*
X143424233Y-91041456D01*
X143439377Y-91037576D01*
X143495440Y-91012283D01*
X143541315Y-90971058D01*
X143574511Y-90917688D01*
X143592534Y-90855960D01*
X143594286Y-90802286D01*
X143579880Y-90739408D01*
X143550152Y-90687388D01*
X143508416Y-90647039D01*
X143457981Y-90619178D01*
X143402161Y-90604618D01*
X143344266Y-90604174D01*
X143287609Y-90618661D01*
X143287609Y-90618661D01*
G37*
X143287609Y-90618661D02*
X143235501Y-90648894D01*
X143191253Y-90695688D01*
X143186893Y-90702055D01*
X143160397Y-90759655D01*
X143152161Y-90820700D01*
X143160699Y-90881312D01*
X143184523Y-90937615D01*
X143222145Y-90985733D01*
X143272077Y-91021789D01*
X143315972Y-91038399D01*
X143356106Y-91046838D01*
X143388239Y-91047883D01*
X143424233Y-91041456D01*
X143439377Y-91037576D01*
X143495440Y-91012283D01*
X143541315Y-90971058D01*
X143574511Y-90917688D01*
X143592534Y-90855960D01*
X143594286Y-90802286D01*
X143579880Y-90739408D01*
X143550152Y-90687388D01*
X143508416Y-90647039D01*
X143457981Y-90619178D01*
X143402161Y-90604618D01*
X143344266Y-90604174D01*
X143287609Y-90618661D01*
G36*
X135976416Y-90799179D02*
X135891969Y-90804302D01*
X135821281Y-90813820D01*
X135757110Y-90829509D01*
X135692210Y-90853150D01*
X135619337Y-90886519D01*
X135618014Y-90887168D01*
X135566292Y-90914250D01*
X135523900Y-90941317D01*
X135483638Y-90973623D01*
X135438307Y-91016423D01*
X135431141Y-91023556D01*
X135387524Y-91068904D01*
X135354779Y-91108258D01*
X135327494Y-91149147D01*
X135300260Y-91199104D01*
X135289341Y-91220930D01*
X135252170Y-91301167D01*
X135225166Y-91372757D01*
X135206865Y-91442111D01*
X135195806Y-91515642D01*
X135190527Y-91599760D01*
X135189521Y-91658625D01*
X135190079Y-91736152D01*
X135192879Y-91797222D01*
X135198270Y-91846462D01*
X135206602Y-91888496D01*
X135206955Y-91889907D01*
X135250437Y-92024214D01*
X135309335Y-92144791D01*
X135382682Y-92250877D01*
X135469513Y-92341710D01*
X135568861Y-92416528D01*
X135679761Y-92474569D01*
X135801248Y-92515071D01*
X135932355Y-92537273D01*
X136032910Y-92541492D01*
X136085838Y-92539470D01*
X136139677Y-92534856D01*
X136184626Y-92528548D01*
X136193375Y-92526800D01*
X136307655Y-92491902D01*
X136412700Y-92439848D01*
X136506277Y-92372294D01*
X136586154Y-92290892D01*
X136650096Y-92197297D01*
X136657957Y-92182728D01*
X136680640Y-92134591D01*
X136702003Y-92081000D01*
X136720062Y-92027855D01*
X136732835Y-91981060D01*
X136738338Y-91946514D01*
X136738416Y-91943260D01*
X136738416Y-91917917D01*
X136336250Y-91917917D01*
X136336146Y-91952312D01*
X136328212Y-91996531D01*
X136307117Y-92046373D01*
X136276572Y-92094679D01*
X136243098Y-92131806D01*
X136187456Y-92169424D01*
X136117704Y-92194126D01*
X136032472Y-92206318D01*
X135986451Y-92207844D01*
X135937438Y-92206994D01*
X135901492Y-92202960D01*
X135870580Y-92194207D01*
X135836787Y-92179259D01*
X135764435Y-92132306D01*
X135704563Y-92068658D01*
X135657448Y-91988916D01*
X135623367Y-91893683D01*
X135602599Y-91783558D01*
X135595420Y-91659143D01*
X135595416Y-91656375D01*
X135601451Y-91531739D01*
X135619674Y-91424139D01*
X135650262Y-91333184D01*
X135693394Y-91258479D01*
X135749248Y-91199632D01*
X135818002Y-91156250D01*
X135822958Y-91153940D01*
X135874080Y-91138290D01*
X135937951Y-91130097D01*
X136007511Y-91129357D01*
X136075700Y-91136067D01*
X136135459Y-91150225D01*
X136146093Y-91154072D01*
X136214339Y-91191581D01*
X136269427Y-91245259D01*
X136310148Y-91313802D01*
X136321514Y-91343207D01*
X136345810Y-91415208D01*
X136287867Y-91420500D01*
X136229923Y-91425792D01*
X136542885Y-91738004D01*
X136701373Y-91579252D01*
X136859860Y-91420500D01*
X136733074Y-91420500D01*
X136714476Y-91338666D01*
X136679162Y-91226749D01*
X136626898Y-91123116D01*
X136559655Y-91030346D01*
X136479403Y-90951017D01*
X136388112Y-90887706D01*
X136357416Y-90871509D01*
X136280624Y-90838004D01*
X136206662Y-90815384D01*
X136129252Y-90802456D01*
X136042115Y-90798029D01*
X135976416Y-90799179D01*
X135976416Y-90799179D01*
G37*
X135976416Y-90799179D02*
X135891969Y-90804302D01*
X135821281Y-90813820D01*
X135757110Y-90829509D01*
X135692210Y-90853150D01*
X135619337Y-90886519D01*
X135618014Y-90887168D01*
X135566292Y-90914250D01*
X135523900Y-90941317D01*
X135483638Y-90973623D01*
X135438307Y-91016423D01*
X135431141Y-91023556D01*
X135387524Y-91068904D01*
X135354779Y-91108258D01*
X135327494Y-91149147D01*
X135300260Y-91199104D01*
X135289341Y-91220930D01*
X135252170Y-91301167D01*
X135225166Y-91372757D01*
X135206865Y-91442111D01*
X135195806Y-91515642D01*
X135190527Y-91599760D01*
X135189521Y-91658625D01*
X135190079Y-91736152D01*
X135192879Y-91797222D01*
X135198270Y-91846462D01*
X135206602Y-91888496D01*
X135206955Y-91889907D01*
X135250437Y-92024214D01*
X135309335Y-92144791D01*
X135382682Y-92250877D01*
X135469513Y-92341710D01*
X135568861Y-92416528D01*
X135679761Y-92474569D01*
X135801248Y-92515071D01*
X135932355Y-92537273D01*
X136032910Y-92541492D01*
X136085838Y-92539470D01*
X136139677Y-92534856D01*
X136184626Y-92528548D01*
X136193375Y-92526800D01*
X136307655Y-92491902D01*
X136412700Y-92439848D01*
X136506277Y-92372294D01*
X136586154Y-92290892D01*
X136650096Y-92197297D01*
X136657957Y-92182728D01*
X136680640Y-92134591D01*
X136702003Y-92081000D01*
X136720062Y-92027855D01*
X136732835Y-91981060D01*
X136738338Y-91946514D01*
X136738416Y-91943260D01*
X136738416Y-91917917D01*
X136336250Y-91917917D01*
X136336146Y-91952312D01*
X136328212Y-91996531D01*
X136307117Y-92046373D01*
X136276572Y-92094679D01*
X136243098Y-92131806D01*
X136187456Y-92169424D01*
X136117704Y-92194126D01*
X136032472Y-92206318D01*
X135986451Y-92207844D01*
X135937438Y-92206994D01*
X135901492Y-92202960D01*
X135870580Y-92194207D01*
X135836787Y-92179259D01*
X135764435Y-92132306D01*
X135704563Y-92068658D01*
X135657448Y-91988916D01*
X135623367Y-91893683D01*
X135602599Y-91783558D01*
X135595420Y-91659143D01*
X135595416Y-91656375D01*
X135601451Y-91531739D01*
X135619674Y-91424139D01*
X135650262Y-91333184D01*
X135693394Y-91258479D01*
X135749248Y-91199632D01*
X135818002Y-91156250D01*
X135822958Y-91153940D01*
X135874080Y-91138290D01*
X135937951Y-91130097D01*
X136007511Y-91129357D01*
X136075700Y-91136067D01*
X136135459Y-91150225D01*
X136146093Y-91154072D01*
X136214339Y-91191581D01*
X136269427Y-91245259D01*
X136310148Y-91313802D01*
X136321514Y-91343207D01*
X136345810Y-91415208D01*
X136287867Y-91420500D01*
X136229923Y-91425792D01*
X136542885Y-91738004D01*
X136701373Y-91579252D01*
X136859860Y-91420500D01*
X136733074Y-91420500D01*
X136714476Y-91338666D01*
X136679162Y-91226749D01*
X136626898Y-91123116D01*
X136559655Y-91030346D01*
X136479403Y-90951017D01*
X136388112Y-90887706D01*
X136357416Y-90871509D01*
X136280624Y-90838004D01*
X136206662Y-90815384D01*
X136129252Y-90802456D01*
X136042115Y-90798029D01*
X135976416Y-90799179D01*
M02*
