M48
;DRILL file {KiCad 4.0.1-stable} date 13/02/2016 20:59:02
;FORMAT={-:-/ absolute / inch / decimal}
FMAT,2
INCH,TZ
T1C0.020
T2C0.040
T3C0.118
%
G90
G05
M72
T1
X4.4925Y-1.8375
X4.4925Y-1.8875
X4.4925Y-1.9375
X4.54Y-1.8375
X4.5949Y-1.8374
X4.5949Y-4.5624
X4.595Y-4.6125
X4.6449Y-1.8374
X4.6457Y-4.6125
X4.6463Y-4.5624
X4.6949Y-1.8374
X4.6949Y-1.8874
X4.6949Y-1.9374
X4.6949Y-4.5624
X4.695Y-4.6125
X4.7525Y-4.5625
X4.7525Y-4.6125
X4.775Y-3.535
X4.775Y-3.5875
X4.7975Y-4.5625
X4.7975Y-4.6125
X4.825Y-3.535
X4.825Y-3.5875
X4.8449Y-2.2374
X4.8449Y-2.2874
X4.8449Y-2.2874
X4.8449Y-2.3374
X4.8449Y-2.3874
X4.8449Y-2.4374
X4.875Y-3.535
X4.875Y-3.5875
X4.8949Y-2.2374
X4.8949Y-2.2874
X4.8949Y-2.3374
X4.8949Y-2.3874
X4.8949Y-2.4374
X4.9199Y-1.9374
X4.9199Y-1.9874
X4.9699Y-1.9374
X4.9699Y-1.9874
X4.9849Y-4.0674
X4.9949Y-2.6874
X4.9949Y-2.7374
X5.0199Y-1.9374
X5.0199Y-1.9874
X5.0349Y-4.0774
X5.0449Y-2.6874
X5.0449Y-2.7374
X5.0649Y-3.9274
X5.0748Y-3.9792
X5.0949Y-2.2374
X5.0949Y-2.3374
X5.0949Y-3.7624
X5.095Y-2.2874
X5.1049Y-3.8674
X5.1079Y-3.9384
X5.1199Y-2.9374
X5.1199Y-2.9874
X5.1199Y-3.0374
X5.1199Y-3.0874
X5.1199Y-3.1374
X5.1449Y-2.2374
X5.1449Y-2.2874
X5.1449Y-2.3374
X5.1483Y-3.9554
X5.1616Y-3.7332
X5.1619Y-4.0859
X5.1699Y-2.9374
X5.1699Y-2.9874
X5.1699Y-3.0374
X5.1699Y-3.0874
X5.1699Y-3.1374
X5.1767Y-3.8155
X5.2049Y-4.0959
X5.2149Y-4.3974
X5.2199Y-2.7374
X5.2264Y-3.829
X5.2444Y-4.113
X5.2699Y-2.5374
X5.2699Y-2.5874
X5.2699Y-2.6374
X5.2699Y-2.6874
X5.2699Y-2.7374
X5.2749Y-3.8374
X5.275Y-3.6831
X5.3199Y-3.5374
X5.3449Y-2.1874
X5.3949Y-4.0624
X5.4199Y-2.5124
X5.4199Y-2.6874
X5.4687Y-3.7411
X5.4825Y-3.88
X5.4949Y-2.6874
X5.4949Y-2.7374
X5.4949Y-2.7874
X5.5124Y-2.9374
X5.5124Y-2.9874
X5.5124Y-3.0374
X5.5124Y-3.0874
X5.5125Y-3.1375
X5.5144Y-3.8124
X5.5199Y-2.5374
X5.5199Y-2.5874
X5.5199Y-3.5374
X5.5624Y-2.9374
X5.5624Y-2.9874
X5.5624Y-3.0374
X5.5624Y-3.0874
X5.5625Y-3.1375
X5.5699Y-2.5374
X5.5699Y-2.5874
X5.5699Y-2.6874
X5.5699Y-2.7374
X5.5699Y-2.7874
X5.5949Y-3.7624
X5.6004Y-3.6288
X5.6102Y-3.937
X5.6199Y-2.5374
X5.6199Y-2.5874
X5.6254Y-3.8374
X5.6364Y-4.0874
X5.6376Y-3.7559
X5.6449Y-2.6874
X5.6449Y-2.7374
X5.6449Y-2.7874
X5.6449Y-3.9624
X5.6699Y-1.8124
X5.6699Y-1.8624
X5.6699Y-1.9124
X5.6699Y-1.9624
X5.6699Y-2.5374
X5.6699Y-2.5874
X5.6699Y-4.2124
X5.7199Y-1.8124
X5.7199Y-1.8624
X5.7199Y-1.9124
X5.7199Y-1.9624
X5.7199Y-1.9624
X5.7199Y-2.5374
X5.7199Y-2.5874
X5.7199Y-2.9624
X5.7199Y-3.0124
X5.7199Y-3.0624
X5.7199Y-3.5624
X5.7199Y-3.6874
X5.7199Y-4.0624
X5.7449Y-2.7374
X5.7449Y-2.7874
X5.7449Y-2.7874
X5.7449Y-2.8374
X5.7449Y-3.6124
X5.7699Y-2.9624
X5.7699Y-3.0124
X5.7699Y-3.0124
X5.7699Y-3.7124
X5.7854Y-3.9992
X5.7949Y-2.7374
X5.7949Y-2.7874
X5.7949Y-2.8374
X5.8119Y-2.5056
X5.8199Y-3.9374
X5.8449Y-2.7374
X5.8449Y-2.7874
X5.8449Y-2.8374
X5.85Y-2.4
X5.8699Y-3.9124
X5.8949Y-2.8374
X5.9199Y-2.3499
X5.9199Y-4.7374
X5.9199Y-5.0624
X5.9199Y-3.8374
X5.9449Y-2.8374
X5.9449Y-2.9624
X5.9675Y-3.9175
X5.9699Y-2.3624
X5.9699Y-4.0374
X5.9699Y-4.1374
X5.9949Y-2.7374
X5.9949Y-2.7874
X5.9949Y-2.8374
X5.9949Y-2.9624
X6.0025Y-2.4275
X6.0025Y-2.465
X6.0199Y-2.3624
X6.0199Y-3.4124
X6.0199Y-3.7624
X6.0199Y-4.7624
X6.02Y-4.0375
X6.025Y-2.55
X6.0375Y-2.4275
X6.0375Y-2.465
X6.0449Y-2.9624
X6.0699Y-2.3624
X6.0725Y-4.0375
X6.075Y-2.55
X6.0949Y-2.9124
X6.0949Y-2.9624
X6.0949Y-3.7374
X6.1087Y-2.0252
X6.1199Y-4.7624
X6.1224Y-2.7448
X6.125Y-2.55
X6.1325Y-3.9925
X6.1325Y-4.0375
X6.1449Y-2.9124
X6.1449Y-2.9624
X6.1653Y-2.7753
X6.175Y-2.55
X6.1949Y-4.0374
X6.2199Y-1.9374
X6.2199Y-1.9374
X6.2199Y-1.9874
X6.2199Y-2.8374
X6.2199Y-5.0624
X6.225Y-2.55
X6.225Y-4.7
X6.2699Y-1.8874
X6.2699Y-1.9374
X6.2699Y-1.9874
X6.275Y-2.55
X6.2949Y-3.7874
X6.325Y-1.7125
X6.325Y-1.7625
X6.3699Y-1.7624
X6.37Y-1.7125
X6.37Y-1.8075
X6.375Y-4.25
X6.3975Y-3.6275
X6.4199Y-1.7624
X6.42Y-1.7125
X6.42Y-1.8075
X6.425Y-5.1
X6.425Y-5.375
X6.4275Y-3.595
X6.46Y-3.5625
X6.4699Y-1.7124
X6.4699Y-1.7624
X6.4925Y-3.76
X6.4949Y-2.1374
X6.4949Y-2.1874
X6.4949Y-2.2374
X6.4949Y-2.2874
X6.5Y-5.2
X6.5275Y-3.725
X6.5449Y-2.1374
X6.5449Y-2.1874
X6.5449Y-2.2374
X6.5449Y-2.2874
X6.5625Y-3.69
X6.575Y-5.1
X6.575Y-5.375
X6.5875Y-4.0025
X6.5925Y-3.6575
X6.6225Y-3.6275
X6.6225Y-3.9675
X6.65Y-5.2
X6.6575Y-3.9325
X6.665Y-2.4975
X6.6699Y-4.2569
X6.6925Y-3.8975
X6.6949Y-3.3374
X6.7199Y-1.8124
X6.7199Y-1.8624
X6.7199Y-1.9124
X6.7199Y-1.9124
X6.7199Y-1.9624
X6.725Y-5.375
X6.73Y-3.86
X6.735Y-2.58
X6.7449Y-4.2374
X6.75Y-2.8575
X6.75Y-2.9
X6.7675Y-3.82
X6.7699Y-1.8124
X6.7699Y-1.8624
X6.7699Y-1.9124
X6.775Y-3.15
X6.7949Y-2.8124
X6.7949Y-3.0624
X6.795Y-2.8575
X6.795Y-2.9
X6.8Y-5.2
X6.8199Y-2.1374
X6.8199Y-2.2124
X6.8199Y-2.4374
X6.8699Y-1.9874
X6.8699Y-2.5679
X6.9Y-5.2
X6.9199Y-4.2624
X6.925Y-2.7075
X6.935Y-4.3375
X6.935Y-4.3825
X6.9449Y-1.8874
X6.9449Y-3.3874
X6.9449Y-4.4874
X6.9449Y-5.0624
X6.9699Y-2.3374
X6.97Y-2.6875
X6.98Y-4.3375
X6.98Y-4.3825
X6.9949Y-3.2124
X6.9949Y-4.7624
X7.Y-3.8625
X7.0199Y-2.6874
X7.025Y-3.61
X7.025Y-3.815
X7.025Y-4.3375
X7.025Y-4.3825
X7.0449Y-3.0124
X7.0699Y-3.2374
X7.0699Y-3.7874
X7.0699Y-4.3374
X7.0699Y-4.8874
X7.07Y-3.8625
X7.07Y-4.3825
X7.075Y-2.0442
X7.0949Y-2.6874
X7.1449Y-2.9374
X7.15Y-2.725
X7.1574Y-2.3374
X7.2199Y-2.0124
X7.2199Y-2.5874
X7.2199Y-3.1874
X7.2199Y-3.7374
X7.2199Y-4.2874
X7.2199Y-4.8374
X7.3449Y-2.6374
X7.38Y-1.755
X7.38Y-1.8025
X7.4Y-2.675
X7.4174Y-3.4599
X7.4199Y-2.1124
X7.4199Y-2.2819
X7.4199Y-2.8624
X7.4199Y-4.0124
X7.4199Y-4.5624
X7.4199Y-5.1106
X7.43Y-1.755
X7.43Y-1.8025
X7.4675Y-2.5125
X7.5175Y-2.625
X7.525Y-2.1
X7.5699Y-2.0374
X7.5699Y-2.6124
X7.5725Y-1.8025
X7.6199Y-3.0374
X7.6199Y-3.5874
X7.6199Y-4.1374
X7.6199Y-4.6874
X7.7449Y-1.9624
X7.7699Y-2.5124
X7.825Y-2.475
X7.825Y-2.725
X7.8625Y-1.9275
X7.865Y-2.7625
X7.865Y-3.2375
X7.865Y-3.3125
X7.865Y-3.7875
X7.865Y-3.8625
X7.865Y-4.3375
X7.865Y-4.4125
X7.865Y-4.89
X7.865Y-4.9625
X7.875Y-2.375
X7.915Y-2.6875
X7.915Y-2.7625
X7.915Y-3.2375
X7.915Y-3.3125
X7.915Y-3.7875
X7.915Y-3.8625
X7.915Y-4.3375
X7.915Y-4.4125
X7.915Y-4.89
X7.915Y-4.9625
X7.915Y-2.725
X7.93Y-5.1875
X7.93Y-5.235
X7.9699Y-2.1374
X7.9699Y-2.2124
X7.9699Y-2.6874
X7.9699Y-2.7624
X7.9699Y-3.2374
X7.9699Y-3.3124
X7.9699Y-3.7874
X7.9699Y-3.8624
X7.9699Y-4.3374
X7.9699Y-4.4124
X7.9699Y-4.8905
X7.9699Y-4.9624
X7.9775Y-5.1875
X7.9775Y-5.235
X7.9875Y-2.395
X7.9875Y-2.4475
X7.9875Y-2.945
X7.9875Y-2.995
X7.9875Y-3.4975
X7.9875Y-3.5425
X7.9875Y-4.05
X7.9875Y-4.0975
X7.9875Y-4.605
X7.9875Y-4.65
X8.025Y-5.1875
X8.025Y-5.235
X8.035Y-4.05
X8.035Y-4.0975
X8.035Y-4.605
X8.035Y-4.65
X8.0375Y-2.395
X8.0375Y-2.4475
X8.0375Y-2.945
X8.0375Y-2.995
X8.0375Y-3.4975
X8.0375Y-3.5425
X8.0675Y-1.8625
X8.0675Y-1.9125
X8.0725Y-5.1875
X8.0725Y-5.235
X8.1199Y-1.9124
X8.1199Y-2.4466
X8.1199Y-2.9946
X8.1199Y-3.5441
X8.1199Y-4.0977
X8.1199Y-4.65
X8.1199Y-5.1874
X8.12Y-1.8625
X8.12Y-5.235
X8.1725Y-1.8625
X8.1725Y-1.9125
T2
X4.5949Y-1.9374
X4.5949Y-2.0374
X4.5949Y-3.1874
X4.5949Y-3.5874
X4.5949Y-3.6874
X4.5949Y-3.7874
X4.5949Y-3.8874
X4.5949Y-3.9874
X4.5949Y-4.0874
X4.5949Y-4.1874
X4.5949Y-4.2874
X4.5949Y-4.3874
X4.5949Y-4.4874
X4.6949Y-3.1874
X4.6949Y-3.5874
X4.6949Y-3.6874
X4.6949Y-3.7874
X4.6949Y-3.8874
X4.6949Y-3.9874
X4.6949Y-4.0874
X4.6949Y-4.1874
X4.6949Y-4.2874
X4.6949Y-4.3874
X4.6949Y-4.4874
X7.675Y-1.7
X7.675Y-1.8
X7.775Y-1.7
X7.775Y-1.8
X7.875Y-1.7
X7.875Y-1.8
X7.975Y-1.7
X7.975Y-1.8
X8.2199Y-2.1124
X8.2199Y-2.2124
X8.2199Y-2.3124
X8.2199Y-2.6624
X8.2199Y-2.7624
X8.2199Y-2.8624
X8.2199Y-3.2124
X8.2199Y-3.3124
X8.2199Y-3.4124
X8.2199Y-3.7624
X8.2199Y-3.8624
X8.2199Y-3.9624
X8.2199Y-4.3124
X8.2199Y-4.4124
X8.2199Y-4.5124
X8.2199Y-4.8624
X8.2199Y-4.9624
X8.2199Y-5.0624
T3
X4.5472Y-1.6929
X4.5472Y-5.3937
X5.5709Y-1.6929
X5.5709Y-5.3937
X7.2244Y-1.6929
X7.2244Y-5.3937
X8.248Y-1.6929
X8.248Y-5.3937
T0
M30
