G04 #@! TF.FileFunction,Copper,L2,Inr,Plane*
%FSLAX46Y46*%
G04 Gerber Fmt 4.6, Leading zero omitted, Abs format (unit mm)*
G04 Created by KiCad (PCBNEW 4.0.6) date 06/04/17 18:43:05*
%MOMM*%
%LPD*%
G01*
G04 APERTURE LIST*
%ADD10C,0.100000*%
%ADD11C,4.000000*%
%ADD12R,2.032000X2.032000*%
%ADD13O,2.032000X2.032000*%
%ADD14R,2.032000X1.727200*%
%ADD15O,2.032000X1.727200*%
%ADD16R,1.727200X1.727200*%
%ADD17O,1.727200X1.727200*%
%ADD18C,0.889000*%
%ADD19C,0.254000*%
G04 APERTURE END LIST*
D10*
D11*
X183500000Y-137000000D03*
X183500000Y-43000000D03*
X209500000Y-43000000D03*
X115500000Y-137000000D03*
X209500000Y-137000000D03*
X115500000Y-43000000D03*
D12*
X116710000Y-80960000D03*
D13*
X119250000Y-80960000D03*
D12*
X116710000Y-49210000D03*
D13*
X116710000Y-51750000D03*
D14*
X208785000Y-58735000D03*
D15*
X208785000Y-56195000D03*
X208785000Y-53655000D03*
D14*
X208785000Y-86675000D03*
D15*
X208785000Y-84135000D03*
X208785000Y-81595000D03*
D14*
X208785000Y-100645000D03*
D15*
X208785000Y-98105000D03*
X208785000Y-95565000D03*
D14*
X208785000Y-72705000D03*
D15*
X208785000Y-70165000D03*
X208785000Y-67625000D03*
D14*
X208785000Y-114615000D03*
D15*
X208785000Y-112075000D03*
X208785000Y-109535000D03*
D14*
X208785000Y-128585000D03*
D15*
X208785000Y-126045000D03*
X208785000Y-123505000D03*
D16*
X116710000Y-91120000D03*
D17*
X119250000Y-91120000D03*
X116710000Y-93660000D03*
X119250000Y-93660000D03*
X116710000Y-96200000D03*
X119250000Y-96200000D03*
X116710000Y-98740000D03*
X119250000Y-98740000D03*
X116710000Y-101280000D03*
X119250000Y-101280000D03*
X116710000Y-103820000D03*
X119250000Y-103820000D03*
X116710000Y-106360000D03*
X119250000Y-106360000D03*
X116710000Y-108900000D03*
X119250000Y-108900000D03*
X116710000Y-111440000D03*
X119250000Y-111440000D03*
X116710000Y-113980000D03*
X119250000Y-113980000D03*
D11*
X141500000Y-137000000D03*
X141500000Y-43000000D03*
D16*
X194945000Y-45720000D03*
D17*
X194945000Y-43180000D03*
X197485000Y-45720000D03*
X197485000Y-43180000D03*
X200025000Y-45720000D03*
X200025000Y-43180000D03*
X202565000Y-45720000D03*
X202565000Y-43180000D03*
D18*
X148590000Y-60959980D03*
X155508500Y-69716940D03*
X164084000Y-90487500D03*
X163258500Y-91313000D03*
X162496500Y-92138500D03*
X171894500Y-97027998D03*
X170942000Y-98044002D03*
X169989500Y-98996500D03*
X169100502Y-99885500D03*
X167322500Y-101663498D03*
X164909500Y-95504000D03*
X165798500Y-94615000D03*
X166687500Y-93726000D03*
X167449500Y-92900500D03*
X168211500Y-92138500D03*
X168211500Y-100774500D03*
X187452000Y-45783500D03*
X187452000Y-44577000D03*
X188722000Y-44577000D03*
X188722000Y-45783500D03*
X192341500Y-45783500D03*
X190944500Y-66675000D03*
X175895000Y-68770500D03*
X177038000Y-68262500D03*
X172593000Y-73660000D03*
X171450000Y-73660000D03*
X171450000Y-72580500D03*
X172593000Y-72580500D03*
X207581500Y-48577500D03*
X207581500Y-47307500D03*
X206248000Y-47307500D03*
X204914500Y-47307500D03*
X204914500Y-48577500D03*
X204152500Y-60833000D03*
X202882500Y-60833000D03*
X202882500Y-62166500D03*
X204152500Y-62166500D03*
X201041002Y-69215000D03*
X201041000Y-68262500D03*
X199771000Y-70167500D03*
X201041000Y-70167500D03*
X204152500Y-74803000D03*
X202882500Y-74803000D03*
X202882500Y-76073000D03*
X204152500Y-76073000D03*
X201041000Y-82232500D03*
X199771000Y-82232500D03*
X199771000Y-84137500D03*
X201041000Y-84137500D03*
X204152500Y-88836500D03*
X202882500Y-88836500D03*
X202882500Y-89979500D03*
X204152500Y-89979500D03*
X201041000Y-96202500D03*
X199771000Y-96202500D03*
X199771000Y-98107500D03*
X201041000Y-98107500D03*
X204089000Y-102870000D03*
X202882500Y-102870000D03*
X202882500Y-104076500D03*
X204089000Y-104076500D03*
X201041000Y-110172500D03*
X199771000Y-110172500D03*
X199771000Y-112077500D03*
X201041000Y-112077500D03*
X202882500Y-118110000D03*
X202882500Y-116967000D03*
X204089000Y-116967000D03*
X204089000Y-118110000D03*
X201041000Y-124206000D03*
X199771000Y-124206000D03*
X199771000Y-126047500D03*
X201041000Y-126047500D03*
X206248000Y-132969000D03*
X205041500Y-132969000D03*
X203835000Y-132969000D03*
X202628500Y-132969000D03*
X201422000Y-132969000D03*
X201422000Y-131762500D03*
X202628500Y-131762500D03*
X203835000Y-131762500D03*
X205041500Y-131762500D03*
X152908000Y-102552500D03*
X154241500Y-102552500D03*
X179578000Y-111315500D03*
X178435000Y-111315500D03*
X177292000Y-111315500D03*
X176149000Y-111315500D03*
X176149000Y-110172500D03*
X177292000Y-110172500D03*
X169291000Y-63436500D03*
X171069000Y-65532000D03*
X118000615Y-117157500D03*
X118015667Y-115885000D03*
X121856500Y-117157500D03*
X121856500Y-115887500D03*
X120713500Y-115887500D03*
X120713500Y-117157500D03*
X119253000Y-117157500D03*
X116713000Y-117157500D03*
X172085000Y-80010000D03*
X168910000Y-132080000D03*
X165100000Y-132080000D03*
X152463504Y-62611000D03*
X152463500Y-61658500D03*
X114109500Y-49212500D03*
X114109500Y-47942500D03*
X114109500Y-46672500D03*
X115316000Y-46672500D03*
X119250000Y-49210000D03*
X119250000Y-47940000D03*
X119250000Y-46670000D03*
X117980000Y-46670000D03*
X116710000Y-46670000D03*
X131315000Y-77150000D03*
X131315000Y-75880000D03*
X131315000Y-74610000D03*
X130045000Y-74610000D03*
X130045000Y-75880000D03*
X130045000Y-77150000D03*
X130045000Y-78420000D03*
X130045000Y-79690000D03*
X131315000Y-79690000D03*
X131315000Y-78420000D03*
X154810000Y-73975000D03*
X156080000Y-73975000D03*
X156080000Y-75245000D03*
X154810000Y-75245000D03*
X153540000Y-75245000D03*
X152270000Y-75245000D03*
X151000000Y-75245000D03*
X145285000Y-75245000D03*
X146555000Y-75245000D03*
X159255000Y-47940000D03*
X146555000Y-76515000D03*
X145285000Y-77785000D03*
X145285000Y-76515000D03*
X146555000Y-76515000D03*
X140205000Y-89850000D03*
X157985000Y-49210000D03*
X157985000Y-50480000D03*
X159255000Y-50480000D03*
X159255000Y-49210000D03*
X157985000Y-49210000D03*
X170685000Y-48575000D03*
X171955000Y-48575000D03*
X171955000Y-47305000D03*
X171955000Y-46035000D03*
X170685000Y-46035000D03*
X170685000Y-47305000D03*
X170685000Y-48575000D03*
X170685000Y-49845000D03*
X145285000Y-49845000D03*
X144015000Y-49845000D03*
X144015000Y-48575000D03*
X144015000Y-47305000D03*
X144015000Y-46035000D03*
X145285000Y-46035000D03*
X145285000Y-47305000D03*
X145285000Y-48575000D03*
X145285000Y-49845000D03*
X166240000Y-54290000D03*
X166240000Y-55560000D03*
X166240000Y-56830000D03*
X166240000Y-58100000D03*
X164970000Y-58100000D03*
X164970000Y-56830000D03*
X164970000Y-55560000D03*
X164970000Y-54290000D03*
X145920000Y-70800000D03*
X145920000Y-72070000D03*
X147190000Y-72070000D03*
X152270000Y-70800000D03*
X152270000Y-72070000D03*
X151000000Y-72070000D03*
X149730000Y-72070000D03*
X148460000Y-72070000D03*
X148460000Y-70800000D03*
X147190000Y-70800000D03*
X145920000Y-70800000D03*
X145920000Y-69530000D03*
X147190000Y-69530000D03*
X140205000Y-65720000D03*
X144015000Y-65720000D03*
X142745000Y-65720000D03*
X141475000Y-65720000D03*
X141475000Y-64450000D03*
X142745000Y-64450000D03*
X128140000Y-68260000D03*
X126870000Y-68260000D03*
X126870000Y-69530000D03*
X132585000Y-69530000D03*
X133855000Y-69530000D03*
X133855000Y-68260000D03*
X133855000Y-66990000D03*
X133855000Y-65720000D03*
X116710000Y-115885000D03*
X119250000Y-115885000D03*
X188465000Y-53655000D03*
X177035000Y-59370000D03*
X173225000Y-54290000D03*
X173225000Y-61910000D03*
X172590000Y-71435000D03*
X172590000Y-77785000D03*
X178940000Y-76515000D03*
X186560000Y-66990000D03*
X206245000Y-48575000D03*
X202435000Y-54290000D03*
X202435000Y-56195000D03*
X206245000Y-62144536D03*
X202435000Y-68260000D03*
X202435000Y-70165000D03*
X206245000Y-76062870D03*
X202435000Y-82230000D03*
X202435000Y-84135000D03*
X206245000Y-90021189D03*
X202435000Y-96200000D03*
X202435000Y-98105000D03*
X206245000Y-104080848D03*
X202435000Y-112075000D03*
X202435000Y-110170000D03*
X202435022Y-126045000D03*
X202435000Y-124218000D03*
X206245000Y-118110889D03*
X206245000Y-131760000D03*
X179578000Y-98107500D03*
X177800000Y-98107500D03*
X178435000Y-96901000D03*
X155765500Y-102552500D03*
X178435000Y-110172500D03*
X155765500Y-101409500D03*
X142500000Y-100000000D03*
X179705000Y-51922254D03*
X153352498Y-61658500D03*
X153352500Y-62610998D03*
X188401638Y-87881638D03*
X145285000Y-90485000D03*
X135125000Y-89850000D03*
X152270000Y-69530000D03*
X148460000Y-69530000D03*
X145285000Y-64450000D03*
X145285000Y-65720000D03*
X140205000Y-64450000D03*
X144015000Y-64450000D03*
X138905794Y-95022912D03*
X131103566Y-94824251D03*
X128140000Y-69530000D03*
X133855000Y-64450000D03*
X174495000Y-65224720D03*
X150365000Y-120330000D03*
X150365000Y-128585000D03*
X157985000Y-128585000D03*
X152905000Y-120965000D03*
X137030000Y-103185000D03*
X143380000Y-100645000D03*
X157350000Y-102550000D03*
X145920000Y-91755000D03*
X144015000Y-106995000D03*
X151635000Y-105090000D03*
X151635000Y-102550000D03*
X145285000Y-93660000D03*
X143194235Y-95398597D03*
X145285000Y-103185000D03*
X188465000Y-57960290D03*
X174495000Y-50480000D03*
X192275000Y-51750000D03*
X188465000Y-72704992D03*
X180210000Y-68260000D03*
X178305000Y-68260000D03*
X192275000Y-66355000D03*
X179575000Y-82230000D03*
X193545000Y-77150000D03*
X188465000Y-101915000D03*
X179575000Y-96200000D03*
X193545000Y-91120000D03*
X188465000Y-115885000D03*
X179575000Y-110170000D03*
X193545000Y-105090000D03*
X179575000Y-124140000D03*
X193545000Y-119060000D03*
X188465000Y-129808003D03*
X150365000Y-59687500D03*
X151635000Y-60005000D03*
X152905000Y-60005000D03*
X154175000Y-60005000D03*
X135760000Y-55560000D03*
X121285000Y-89789000D03*
X122555000Y-89789000D03*
X123825000Y-89789000D03*
X123825000Y-91122500D03*
X122555000Y-91122500D03*
X121285000Y-91122500D03*
X158115000Y-119380000D03*
X143380000Y-70800000D03*
X143380000Y-69530000D03*
X143380000Y-68260000D03*
X139570000Y-70800000D03*
X141475000Y-70800000D03*
X139570000Y-69530000D03*
X141475000Y-69530000D03*
X141475000Y-68260000D03*
X139570000Y-68260000D03*
X137665000Y-68260000D03*
X130680000Y-59370000D03*
X130680000Y-56830000D03*
X130680000Y-58100000D03*
X123060000Y-59370000D03*
X123060000Y-60640000D03*
X123060000Y-61910000D03*
X124330000Y-61910000D03*
X124330000Y-60640000D03*
X124330000Y-59370000D03*
X137665000Y-63815000D03*
X163195000Y-129540000D03*
X133985000Y-93549509D03*
X123060000Y-58100000D03*
X123060000Y-56830000D03*
X124330000Y-56830000D03*
X129410000Y-59370000D03*
X129411981Y-58100000D03*
X129410000Y-56830000D03*
X123060000Y-58100000D03*
X124330000Y-58100000D03*
X155445000Y-120965000D03*
X132458000Y-111694000D03*
X161925000Y-107950000D03*
X141287500Y-79692500D03*
X140017500Y-79692500D03*
X141284500Y-78420000D03*
X141284500Y-77150000D03*
X141284500Y-75880000D03*
X141284500Y-74610000D03*
X140014500Y-74610000D03*
X140014500Y-75880000D03*
X140014500Y-77150000D03*
X140014500Y-78420000D03*
X167005000Y-129540000D03*
X152905000Y-86675000D03*
X146555000Y-94295000D03*
X143164142Y-103820000D03*
X142249731Y-92171608D03*
X146949527Y-101579527D03*
X161798000Y-45910500D03*
X163068000Y-45910500D03*
X160655000Y-44767500D03*
X160655000Y-43497500D03*
X161798000Y-43497500D03*
X163068000Y-43497500D03*
X175260000Y-132080000D03*
X164335000Y-43495000D03*
X164335000Y-44765000D03*
X163065000Y-44765000D03*
X161795000Y-44765000D03*
X181797500Y-59370000D03*
X181480000Y-74610000D03*
X172720000Y-132080000D03*
X183385000Y-51115000D03*
X183385000Y-65720000D03*
X183385000Y-80960000D03*
X183385000Y-94930000D03*
X183385000Y-108900000D03*
X183385000Y-122870000D03*
X196720000Y-49845000D03*
X178435000Y-91694000D03*
X189674500Y-63817500D03*
X191135000Y-53340000D03*
X197355000Y-63815000D03*
X126235000Y-49210000D03*
X124965000Y-49210000D03*
X124965000Y-50480000D03*
X126235000Y-50480000D03*
X127505000Y-50480000D03*
X127505000Y-49210000D03*
X163195000Y-136525000D03*
X167005000Y-136525000D03*
X170815000Y-136525000D03*
X147621780Y-63642714D03*
X156599459Y-70491660D03*
X155160000Y-51440000D03*
X157985000Y-72070000D03*
X126616000Y-103312000D03*
X127886000Y-103566000D03*
X129740154Y-100035422D03*
X128648000Y-99755994D03*
X128900321Y-101072667D03*
X130765574Y-100468218D03*
X133207373Y-104469335D03*
X133982000Y-97470000D03*
X132204833Y-104035931D03*
X132751810Y-97255810D03*
X131112626Y-103781922D03*
X131489388Y-96914616D03*
X129410000Y-95565000D03*
X129664006Y-98232000D03*
X159385000Y-64770000D03*
X158115000Y-64770000D03*
X156845000Y-64770000D03*
X155575000Y-64770000D03*
X154305000Y-64770000D03*
X153035000Y-64770000D03*
X198755000Y-69215000D03*
X187960000Y-67945000D03*
X200025000Y-60325000D03*
X198755000Y-62865000D03*
X181610000Y-69215000D03*
X199707500Y-48958500D03*
X173225000Y-56195000D03*
X149095000Y-99375000D03*
X147825010Y-100010000D03*
X176400000Y-47940000D03*
X150365010Y-97470000D03*
X151574496Y-99504500D03*
X170050000Y-84769990D03*
X159890000Y-96200000D03*
X154929998Y-93770000D03*
X154080000Y-95190000D03*
X171319986Y-107630000D03*
X176400000Y-86040000D03*
X169415018Y-108125280D03*
X177670000Y-81595000D03*
X142110000Y-95564984D03*
X176400000Y-113980000D03*
X142884720Y-97470000D03*
X175765000Y-108265000D03*
X139255500Y-98552000D03*
X176400000Y-128585000D03*
X140065280Y-96835000D03*
X177670000Y-120965000D03*
D19*
G36*
X140009342Y-40764853D02*
X139267458Y-41505443D01*
X138865458Y-42473567D01*
X138864543Y-43521834D01*
X139264853Y-44490658D01*
X140005443Y-45232542D01*
X140973567Y-45634542D01*
X142021834Y-45635457D01*
X142990658Y-45235147D01*
X143732542Y-44494557D01*
X144057785Y-43711284D01*
X159575313Y-43711284D01*
X159739311Y-44108189D01*
X159763356Y-44132276D01*
X159740378Y-44155214D01*
X159575687Y-44551832D01*
X159575313Y-44981284D01*
X159739311Y-45378189D01*
X160042714Y-45682122D01*
X160439332Y-45846813D01*
X160718554Y-45847056D01*
X160718313Y-46124284D01*
X160882311Y-46521189D01*
X161185714Y-46825122D01*
X161582332Y-46989813D01*
X162011784Y-46990187D01*
X162408689Y-46826189D01*
X162432776Y-46802144D01*
X162455714Y-46825122D01*
X162852332Y-46989813D01*
X163281784Y-46990187D01*
X163678689Y-46826189D01*
X163982622Y-46522786D01*
X164147313Y-46126168D01*
X164147558Y-45844338D01*
X164548784Y-45844687D01*
X164945689Y-45680689D01*
X165249622Y-45377286D01*
X165414313Y-44980668D01*
X165414687Y-44551216D01*
X165250689Y-44154311D01*
X165226644Y-44130224D01*
X165249622Y-44107286D01*
X165414313Y-43710668D01*
X165414687Y-43281216D01*
X165250689Y-42884311D01*
X164947286Y-42580378D01*
X164550668Y-42415687D01*
X164121216Y-42415313D01*
X163724311Y-42579311D01*
X163700477Y-42603104D01*
X163680286Y-42582878D01*
X163283668Y-42418187D01*
X162854216Y-42417813D01*
X162457311Y-42581811D01*
X162433224Y-42605856D01*
X162410286Y-42582878D01*
X162013668Y-42418187D01*
X161584216Y-42417813D01*
X161226109Y-42565780D01*
X160870668Y-42418187D01*
X160441216Y-42417813D01*
X160044311Y-42581811D01*
X159740378Y-42885214D01*
X159575687Y-43281832D01*
X159575313Y-43711284D01*
X144057785Y-43711284D01*
X144134542Y-43526433D01*
X144135457Y-42478166D01*
X143735147Y-41509342D01*
X142994557Y-40767458D01*
X142856183Y-40710000D01*
X182142096Y-40710000D01*
X182009342Y-40764853D01*
X181267458Y-41505443D01*
X180865458Y-42473567D01*
X180864543Y-43521834D01*
X181264853Y-44490658D01*
X182005443Y-45232542D01*
X182973567Y-45634542D01*
X184021834Y-45635457D01*
X184990658Y-45235147D01*
X185732542Y-44494557D01*
X186134542Y-43526433D01*
X186134870Y-43150641D01*
X193446400Y-43150641D01*
X193446400Y-43209359D01*
X193560474Y-43782848D01*
X193885330Y-44269029D01*
X194371511Y-44593885D01*
X194945000Y-44707959D01*
X195518489Y-44593885D01*
X196004670Y-44269029D01*
X196215000Y-43954248D01*
X196425330Y-44269029D01*
X196696172Y-44450000D01*
X196425330Y-44630971D01*
X196100474Y-45117152D01*
X195986400Y-45690641D01*
X195986400Y-45749359D01*
X196100474Y-46322848D01*
X196425330Y-46809029D01*
X196911511Y-47133885D01*
X197485000Y-47247959D01*
X198058489Y-47133885D01*
X198544670Y-46809029D01*
X198755000Y-46494248D01*
X198965330Y-46809029D01*
X199451511Y-47133885D01*
X200025000Y-47247959D01*
X200598489Y-47133885D01*
X201084670Y-46809029D01*
X201295000Y-46494248D01*
X201505330Y-46809029D01*
X201991511Y-47133885D01*
X202565000Y-47247959D01*
X203138489Y-47133885D01*
X203624670Y-46809029D01*
X203949526Y-46322848D01*
X204063600Y-45749359D01*
X204063600Y-45690641D01*
X203949526Y-45117152D01*
X203624670Y-44630971D01*
X203353828Y-44450000D01*
X203624670Y-44269029D01*
X203949526Y-43782848D01*
X204063600Y-43209359D01*
X204063600Y-43150641D01*
X203949526Y-42577152D01*
X203624670Y-42090971D01*
X203138489Y-41766115D01*
X202565000Y-41652041D01*
X201991511Y-41766115D01*
X201505330Y-42090971D01*
X201295000Y-42405752D01*
X201084670Y-42090971D01*
X200598489Y-41766115D01*
X200025000Y-41652041D01*
X199451511Y-41766115D01*
X198965330Y-42090971D01*
X198755000Y-42405752D01*
X198544670Y-42090971D01*
X198058489Y-41766115D01*
X197485000Y-41652041D01*
X196911511Y-41766115D01*
X196425330Y-42090971D01*
X196215000Y-42405752D01*
X196004670Y-42090971D01*
X195518489Y-41766115D01*
X194945000Y-41652041D01*
X194371511Y-41766115D01*
X193885330Y-42090971D01*
X193560474Y-42577152D01*
X193446400Y-43150641D01*
X186134870Y-43150641D01*
X186135457Y-42478166D01*
X185735147Y-41509342D01*
X184994557Y-40767458D01*
X184856183Y-40710000D01*
X208142096Y-40710000D01*
X208009342Y-40764853D01*
X207267458Y-41505443D01*
X206865458Y-42473567D01*
X206864543Y-43521834D01*
X207264853Y-44490658D01*
X208005443Y-45232542D01*
X208973567Y-45634542D01*
X210021834Y-45635457D01*
X210990658Y-45235147D01*
X211732542Y-44494557D01*
X211790000Y-44356183D01*
X211790000Y-135642096D01*
X211735147Y-135509342D01*
X210994557Y-134767458D01*
X210026433Y-134365458D01*
X208978166Y-134364543D01*
X208009342Y-134764853D01*
X207267458Y-135505443D01*
X206865458Y-136473567D01*
X206864543Y-137521834D01*
X207264853Y-138490658D01*
X208005443Y-139232542D01*
X208143817Y-139290000D01*
X184857904Y-139290000D01*
X184990658Y-139235147D01*
X185732542Y-138494557D01*
X186134542Y-137526433D01*
X186135457Y-136478166D01*
X185735147Y-135509342D01*
X184994557Y-134767458D01*
X184026433Y-134365458D01*
X182978166Y-134364543D01*
X182009342Y-134764853D01*
X181267458Y-135505443D01*
X180865458Y-136473567D01*
X180864543Y-137521834D01*
X181264853Y-138490658D01*
X182005443Y-139232542D01*
X182143817Y-139290000D01*
X142857904Y-139290000D01*
X142990658Y-139235147D01*
X143732542Y-138494557D01*
X144134542Y-137526433D01*
X144135229Y-136738784D01*
X162115313Y-136738784D01*
X162279311Y-137135689D01*
X162582714Y-137439622D01*
X162979332Y-137604313D01*
X163408784Y-137604687D01*
X163805689Y-137440689D01*
X164109622Y-137137286D01*
X164274313Y-136740668D01*
X164274314Y-136738784D01*
X165925313Y-136738784D01*
X166089311Y-137135689D01*
X166392714Y-137439622D01*
X166789332Y-137604313D01*
X167218784Y-137604687D01*
X167615689Y-137440689D01*
X167919622Y-137137286D01*
X168084313Y-136740668D01*
X168084314Y-136738784D01*
X169735313Y-136738784D01*
X169899311Y-137135689D01*
X170202714Y-137439622D01*
X170599332Y-137604313D01*
X171028784Y-137604687D01*
X171425689Y-137440689D01*
X171729622Y-137137286D01*
X171894313Y-136740668D01*
X171894687Y-136311216D01*
X171730689Y-135914311D01*
X171427286Y-135610378D01*
X171030668Y-135445687D01*
X170601216Y-135445313D01*
X170204311Y-135609311D01*
X169900378Y-135912714D01*
X169735687Y-136309332D01*
X169735313Y-136738784D01*
X168084314Y-136738784D01*
X168084687Y-136311216D01*
X167920689Y-135914311D01*
X167617286Y-135610378D01*
X167220668Y-135445687D01*
X166791216Y-135445313D01*
X166394311Y-135609311D01*
X166090378Y-135912714D01*
X165925687Y-136309332D01*
X165925313Y-136738784D01*
X164274314Y-136738784D01*
X164274687Y-136311216D01*
X164110689Y-135914311D01*
X163807286Y-135610378D01*
X163410668Y-135445687D01*
X162981216Y-135445313D01*
X162584311Y-135609311D01*
X162280378Y-135912714D01*
X162115687Y-136309332D01*
X162115313Y-136738784D01*
X144135229Y-136738784D01*
X144135457Y-136478166D01*
X143735147Y-135509342D01*
X142994557Y-134767458D01*
X142026433Y-134365458D01*
X140978166Y-134364543D01*
X140009342Y-134764853D01*
X139267458Y-135505443D01*
X138865458Y-136473567D01*
X138864543Y-137521834D01*
X139264853Y-138490658D01*
X140005443Y-139232542D01*
X140143817Y-139290000D01*
X116857904Y-139290000D01*
X116990658Y-139235147D01*
X117732542Y-138494557D01*
X118134542Y-137526433D01*
X118135457Y-136478166D01*
X117735147Y-135509342D01*
X116994557Y-134767458D01*
X116026433Y-134365458D01*
X114978166Y-134364543D01*
X114009342Y-134764853D01*
X113267458Y-135505443D01*
X113210000Y-135643817D01*
X113210000Y-132293784D01*
X171640313Y-132293784D01*
X171804311Y-132690689D01*
X172107714Y-132994622D01*
X172504332Y-133159313D01*
X172933784Y-133159687D01*
X173330689Y-132995689D01*
X173634622Y-132692286D01*
X173799313Y-132295668D01*
X173799314Y-132293784D01*
X174180313Y-132293784D01*
X174344311Y-132690689D01*
X174647714Y-132994622D01*
X175044332Y-133159313D01*
X175473784Y-133159687D01*
X175870689Y-132995689D01*
X176174622Y-132692286D01*
X176339313Y-132295668D01*
X176339687Y-131866216D01*
X176175689Y-131469311D01*
X175872286Y-131165378D01*
X175475668Y-131000687D01*
X175046216Y-131000313D01*
X174649311Y-131164311D01*
X174345378Y-131467714D01*
X174180687Y-131864332D01*
X174180313Y-132293784D01*
X173799314Y-132293784D01*
X173799687Y-131866216D01*
X173635689Y-131469311D01*
X173332286Y-131165378D01*
X172935668Y-131000687D01*
X172506216Y-131000313D01*
X172109311Y-131164311D01*
X171805378Y-131467714D01*
X171640687Y-131864332D01*
X171640313Y-132293784D01*
X113210000Y-132293784D01*
X113210000Y-129753784D01*
X162115313Y-129753784D01*
X162279311Y-130150689D01*
X162582714Y-130454622D01*
X162979332Y-130619313D01*
X163408784Y-130619687D01*
X163805689Y-130455689D01*
X164109622Y-130152286D01*
X164274313Y-129755668D01*
X164274314Y-129753784D01*
X165925313Y-129753784D01*
X166089311Y-130150689D01*
X166392714Y-130454622D01*
X166789332Y-130619313D01*
X167218784Y-130619687D01*
X167615689Y-130455689D01*
X167919622Y-130152286D01*
X168084313Y-129755668D01*
X168084687Y-129326216D01*
X167920689Y-128929311D01*
X167790390Y-128798784D01*
X175320313Y-128798784D01*
X175484311Y-129195689D01*
X175787714Y-129499622D01*
X176184332Y-129664313D01*
X176613784Y-129664687D01*
X177010689Y-129500689D01*
X177314622Y-129197286D01*
X177479313Y-128800668D01*
X177479687Y-128371216D01*
X177315689Y-127974311D01*
X177012286Y-127670378D01*
X176615668Y-127505687D01*
X176186216Y-127505313D01*
X175789311Y-127669311D01*
X175485378Y-127972714D01*
X175320687Y-128369332D01*
X175320313Y-128798784D01*
X167790390Y-128798784D01*
X167617286Y-128625378D01*
X167220668Y-128460687D01*
X166791216Y-128460313D01*
X166394311Y-128624311D01*
X166090378Y-128927714D01*
X165925687Y-129324332D01*
X165925313Y-129753784D01*
X164274314Y-129753784D01*
X164274687Y-129326216D01*
X164110689Y-128929311D01*
X163807286Y-128625378D01*
X163410668Y-128460687D01*
X162981216Y-128460313D01*
X162584311Y-128624311D01*
X162280378Y-128927714D01*
X162115687Y-129324332D01*
X162115313Y-129753784D01*
X113210000Y-129753784D01*
X113210000Y-123083784D01*
X182305313Y-123083784D01*
X182469311Y-123480689D01*
X182772714Y-123784622D01*
X183169332Y-123949313D01*
X183598784Y-123949687D01*
X183995689Y-123785689D01*
X184276868Y-123505000D01*
X207101655Y-123505000D01*
X207215729Y-124078489D01*
X207540585Y-124564670D01*
X207855366Y-124775000D01*
X207540585Y-124985330D01*
X207215729Y-125471511D01*
X207101655Y-126045000D01*
X207215729Y-126618489D01*
X207540585Y-127104670D01*
X208026766Y-127429526D01*
X208600255Y-127543600D01*
X208969745Y-127543600D01*
X209543234Y-127429526D01*
X210029415Y-127104670D01*
X210354271Y-126618489D01*
X210468345Y-126045000D01*
X210354271Y-125471511D01*
X210029415Y-124985330D01*
X209714634Y-124775000D01*
X210029415Y-124564670D01*
X210354271Y-124078489D01*
X210468345Y-123505000D01*
X210354271Y-122931511D01*
X210029415Y-122445330D01*
X209543234Y-122120474D01*
X208969745Y-122006400D01*
X208600255Y-122006400D01*
X208026766Y-122120474D01*
X207540585Y-122445330D01*
X207215729Y-122931511D01*
X207101655Y-123505000D01*
X184276868Y-123505000D01*
X184299622Y-123482286D01*
X184464313Y-123085668D01*
X184464687Y-122656216D01*
X184300689Y-122259311D01*
X183997286Y-121955378D01*
X183600668Y-121790687D01*
X183171216Y-121790313D01*
X182774311Y-121954311D01*
X182470378Y-122257714D01*
X182305687Y-122654332D01*
X182305313Y-123083784D01*
X113210000Y-123083784D01*
X113210000Y-121178784D01*
X154365313Y-121178784D01*
X154529311Y-121575689D01*
X154832714Y-121879622D01*
X155229332Y-122044313D01*
X155658784Y-122044687D01*
X156055689Y-121880689D01*
X156359622Y-121577286D01*
X156524313Y-121180668D01*
X156524314Y-121178784D01*
X176590313Y-121178784D01*
X176754311Y-121575689D01*
X177057714Y-121879622D01*
X177454332Y-122044313D01*
X177883784Y-122044687D01*
X178280689Y-121880689D01*
X178584622Y-121577286D01*
X178749313Y-121180668D01*
X178749687Y-120751216D01*
X178585689Y-120354311D01*
X178282286Y-120050378D01*
X177885668Y-119885687D01*
X177456216Y-119885313D01*
X177059311Y-120049311D01*
X176755378Y-120352714D01*
X176590687Y-120749332D01*
X176590313Y-121178784D01*
X156524314Y-121178784D01*
X156524687Y-120751216D01*
X156360689Y-120354311D01*
X156057286Y-120050378D01*
X155660668Y-119885687D01*
X155231216Y-119885313D01*
X154834311Y-120049311D01*
X154530378Y-120352714D01*
X154365687Y-120749332D01*
X154365313Y-121178784D01*
X113210000Y-121178784D01*
X113210000Y-119593784D01*
X157035313Y-119593784D01*
X157199311Y-119990689D01*
X157502714Y-120294622D01*
X157899332Y-120459313D01*
X158328784Y-120459687D01*
X158725689Y-120295689D01*
X159029622Y-119992286D01*
X159194313Y-119595668D01*
X159194687Y-119166216D01*
X159030689Y-118769311D01*
X158727286Y-118465378D01*
X158330668Y-118300687D01*
X157901216Y-118300313D01*
X157504311Y-118464311D01*
X157200378Y-118767714D01*
X157035687Y-119164332D01*
X157035313Y-119593784D01*
X113210000Y-119593784D01*
X113210000Y-114193784D01*
X175320313Y-114193784D01*
X175484311Y-114590689D01*
X175787714Y-114894622D01*
X176184332Y-115059313D01*
X176613784Y-115059687D01*
X177010689Y-114895689D01*
X177314622Y-114592286D01*
X177479313Y-114195668D01*
X177479687Y-113766216D01*
X177315689Y-113369311D01*
X177012286Y-113065378D01*
X176615668Y-112900687D01*
X176186216Y-112900313D01*
X175789311Y-113064311D01*
X175485378Y-113367714D01*
X175320687Y-113764332D01*
X175320313Y-114193784D01*
X113210000Y-114193784D01*
X113210000Y-93660000D01*
X115182041Y-93660000D01*
X115296115Y-94233489D01*
X115620971Y-94719670D01*
X115935752Y-94930000D01*
X115620971Y-95140330D01*
X115296115Y-95626511D01*
X115182041Y-96200000D01*
X115296115Y-96773489D01*
X115620971Y-97259670D01*
X115935752Y-97470000D01*
X115620971Y-97680330D01*
X115296115Y-98166511D01*
X115182041Y-98740000D01*
X115296115Y-99313489D01*
X115620971Y-99799670D01*
X115935752Y-100010000D01*
X115620971Y-100220330D01*
X115296115Y-100706511D01*
X115182041Y-101280000D01*
X115296115Y-101853489D01*
X115620971Y-102339670D01*
X115935752Y-102550000D01*
X115620971Y-102760330D01*
X115296115Y-103246511D01*
X115182041Y-103820000D01*
X115296115Y-104393489D01*
X115620971Y-104879670D01*
X115935752Y-105090000D01*
X115620971Y-105300330D01*
X115296115Y-105786511D01*
X115182041Y-106360000D01*
X115296115Y-106933489D01*
X115620971Y-107419670D01*
X115935752Y-107630000D01*
X115620971Y-107840330D01*
X115296115Y-108326511D01*
X115182041Y-108900000D01*
X115296115Y-109473489D01*
X115620971Y-109959670D01*
X115935752Y-110170000D01*
X115620971Y-110380330D01*
X115296115Y-110866511D01*
X115182041Y-111440000D01*
X115296115Y-112013489D01*
X115620971Y-112499670D01*
X116107152Y-112824526D01*
X116680641Y-112938600D01*
X116739359Y-112938600D01*
X117312848Y-112824526D01*
X117799029Y-112499670D01*
X117980000Y-112228828D01*
X118160971Y-112499670D01*
X118647152Y-112824526D01*
X119220641Y-112938600D01*
X119279359Y-112938600D01*
X119852848Y-112824526D01*
X120339029Y-112499670D01*
X120663885Y-112013489D01*
X120684911Y-111907784D01*
X131378313Y-111907784D01*
X131542311Y-112304689D01*
X131845714Y-112608622D01*
X132242332Y-112773313D01*
X132671784Y-112773687D01*
X133068689Y-112609689D01*
X133372622Y-112306286D01*
X133537313Y-111909668D01*
X133537687Y-111480216D01*
X133373689Y-111083311D01*
X133070286Y-110779378D01*
X132673668Y-110614687D01*
X132244216Y-110614313D01*
X131847311Y-110778311D01*
X131543378Y-111081714D01*
X131378687Y-111478332D01*
X131378313Y-111907784D01*
X120684911Y-111907784D01*
X120777959Y-111440000D01*
X120663885Y-110866511D01*
X120339029Y-110380330D01*
X120024248Y-110170000D01*
X120339029Y-109959670D01*
X120663885Y-109473489D01*
X120777959Y-108900000D01*
X120663885Y-108326511D01*
X120555155Y-108163784D01*
X160845313Y-108163784D01*
X161009311Y-108560689D01*
X161312714Y-108864622D01*
X161709332Y-109029313D01*
X162138784Y-109029687D01*
X162535689Y-108865689D01*
X162839622Y-108562286D01*
X162932312Y-108339064D01*
X168335331Y-108339064D01*
X168499329Y-108735969D01*
X168802732Y-109039902D01*
X169199350Y-109204593D01*
X169628802Y-109204967D01*
X170025707Y-109040969D01*
X170329640Y-108737566D01*
X170494331Y-108340948D01*
X170494340Y-108330889D01*
X170707700Y-108544622D01*
X171104318Y-108709313D01*
X171533770Y-108709687D01*
X171930675Y-108545689D01*
X171997696Y-108478784D01*
X174685313Y-108478784D01*
X174849311Y-108875689D01*
X175152714Y-109179622D01*
X175549332Y-109344313D01*
X175978784Y-109344687D01*
X176375689Y-109180689D01*
X176442710Y-109113784D01*
X182305313Y-109113784D01*
X182469311Y-109510689D01*
X182772714Y-109814622D01*
X183169332Y-109979313D01*
X183598784Y-109979687D01*
X183995689Y-109815689D01*
X184276868Y-109535000D01*
X207101655Y-109535000D01*
X207215729Y-110108489D01*
X207540585Y-110594670D01*
X207855366Y-110805000D01*
X207540585Y-111015330D01*
X207215729Y-111501511D01*
X207101655Y-112075000D01*
X207215729Y-112648489D01*
X207540585Y-113134670D01*
X208026766Y-113459526D01*
X208600255Y-113573600D01*
X208969745Y-113573600D01*
X209543234Y-113459526D01*
X210029415Y-113134670D01*
X210354271Y-112648489D01*
X210468345Y-112075000D01*
X210354271Y-111501511D01*
X210029415Y-111015330D01*
X209714634Y-110805000D01*
X210029415Y-110594670D01*
X210354271Y-110108489D01*
X210468345Y-109535000D01*
X210354271Y-108961511D01*
X210029415Y-108475330D01*
X209543234Y-108150474D01*
X208969745Y-108036400D01*
X208600255Y-108036400D01*
X208026766Y-108150474D01*
X207540585Y-108475330D01*
X207215729Y-108961511D01*
X207101655Y-109535000D01*
X184276868Y-109535000D01*
X184299622Y-109512286D01*
X184464313Y-109115668D01*
X184464687Y-108686216D01*
X184300689Y-108289311D01*
X183997286Y-107985378D01*
X183600668Y-107820687D01*
X183171216Y-107820313D01*
X182774311Y-107984311D01*
X182470378Y-108287714D01*
X182305687Y-108684332D01*
X182305313Y-109113784D01*
X176442710Y-109113784D01*
X176679622Y-108877286D01*
X176844313Y-108480668D01*
X176844687Y-108051216D01*
X176680689Y-107654311D01*
X176377286Y-107350378D01*
X175980668Y-107185687D01*
X175551216Y-107185313D01*
X175154311Y-107349311D01*
X174850378Y-107652714D01*
X174685687Y-108049332D01*
X174685313Y-108478784D01*
X171997696Y-108478784D01*
X172234608Y-108242286D01*
X172399299Y-107845668D01*
X172399673Y-107416216D01*
X172235675Y-107019311D01*
X171932272Y-106715378D01*
X171535654Y-106550687D01*
X171106202Y-106550313D01*
X170709297Y-106714311D01*
X170405364Y-107017714D01*
X170240673Y-107414332D01*
X170240664Y-107424391D01*
X170027304Y-107210658D01*
X169630686Y-107045967D01*
X169201234Y-107045593D01*
X168804329Y-107209591D01*
X168500396Y-107512994D01*
X168335705Y-107909612D01*
X168335331Y-108339064D01*
X162932312Y-108339064D01*
X163004313Y-108165668D01*
X163004687Y-107736216D01*
X162840689Y-107339311D01*
X162537286Y-107035378D01*
X162140668Y-106870687D01*
X161711216Y-106870313D01*
X161314311Y-107034311D01*
X161010378Y-107337714D01*
X160845687Y-107734332D01*
X160845313Y-108163784D01*
X120555155Y-108163784D01*
X120339029Y-107840330D01*
X120024248Y-107630000D01*
X120339029Y-107419670D01*
X120663885Y-106933489D01*
X120777959Y-106360000D01*
X120663885Y-105786511D01*
X120339029Y-105300330D01*
X120024248Y-105090000D01*
X120339029Y-104879670D01*
X120663885Y-104393489D01*
X120777959Y-103820000D01*
X120719436Y-103525784D01*
X125536313Y-103525784D01*
X125700311Y-103922689D01*
X126003714Y-104226622D01*
X126400332Y-104391313D01*
X126829784Y-104391687D01*
X127081223Y-104287794D01*
X127273714Y-104480622D01*
X127670332Y-104645313D01*
X128099784Y-104645687D01*
X128496689Y-104481689D01*
X128800622Y-104178286D01*
X128876436Y-103995706D01*
X130032939Y-103995706D01*
X130196937Y-104392611D01*
X130500340Y-104696544D01*
X130896958Y-104861235D01*
X131326410Y-104861609D01*
X131451969Y-104809729D01*
X131592547Y-104950553D01*
X131989165Y-105115244D01*
X132327136Y-105115538D01*
X132595087Y-105383957D01*
X132991705Y-105548648D01*
X133421157Y-105549022D01*
X133818062Y-105385024D01*
X134121995Y-105081621D01*
X134286686Y-104685003D01*
X134287060Y-104255551D01*
X134195428Y-104033784D01*
X142084455Y-104033784D01*
X142248453Y-104430689D01*
X142551856Y-104734622D01*
X142948474Y-104899313D01*
X143377926Y-104899687D01*
X143774831Y-104735689D01*
X144078764Y-104432286D01*
X144243455Y-104035668D01*
X144243829Y-103606216D01*
X144079831Y-103209311D01*
X143776428Y-102905378D01*
X143379810Y-102740687D01*
X142950358Y-102740313D01*
X142553453Y-102904311D01*
X142249520Y-103207714D01*
X142084829Y-103604332D01*
X142084455Y-104033784D01*
X134195428Y-104033784D01*
X134123062Y-103858646D01*
X133819659Y-103554713D01*
X133423041Y-103390022D01*
X133085070Y-103389728D01*
X132817119Y-103121309D01*
X132420501Y-102956618D01*
X131991049Y-102956244D01*
X131865490Y-103008124D01*
X131724912Y-102867300D01*
X131328294Y-102702609D01*
X130898842Y-102702235D01*
X130501937Y-102866233D01*
X130198004Y-103169636D01*
X130033313Y-103566254D01*
X130032939Y-103995706D01*
X128876436Y-103995706D01*
X128965313Y-103781668D01*
X128965687Y-103352216D01*
X128801689Y-102955311D01*
X128498286Y-102651378D01*
X128101668Y-102486687D01*
X127672216Y-102486313D01*
X127420777Y-102590206D01*
X127228286Y-102397378D01*
X126831668Y-102232687D01*
X126402216Y-102232313D01*
X126005311Y-102396311D01*
X125701378Y-102699714D01*
X125536687Y-103096332D01*
X125536313Y-103525784D01*
X120719436Y-103525784D01*
X120663885Y-103246511D01*
X120339029Y-102760330D01*
X120024248Y-102550000D01*
X120339029Y-102339670D01*
X120663885Y-101853489D01*
X120777959Y-101280000D01*
X120663885Y-100706511D01*
X120339029Y-100220330D01*
X120024248Y-100010000D01*
X120084444Y-99969778D01*
X127568313Y-99969778D01*
X127732311Y-100366683D01*
X127938739Y-100573472D01*
X127821008Y-100856999D01*
X127820634Y-101286451D01*
X127984632Y-101683356D01*
X128288035Y-101987289D01*
X128684653Y-102151980D01*
X129114105Y-102152354D01*
X129511010Y-101988356D01*
X129706395Y-101793311D01*
X145869840Y-101793311D01*
X146033838Y-102190216D01*
X146337241Y-102494149D01*
X146733859Y-102658840D01*
X147163311Y-102659214D01*
X147560216Y-102495216D01*
X147864149Y-102191813D01*
X148028840Y-101795195D01*
X148029214Y-101365743D01*
X147915105Y-101089579D01*
X148038794Y-101089687D01*
X148435699Y-100925689D01*
X148739632Y-100622286D01*
X148819668Y-100429538D01*
X148879332Y-100454313D01*
X149308784Y-100454687D01*
X149705689Y-100290689D01*
X150009622Y-99987286D01*
X150121321Y-99718284D01*
X150494809Y-99718284D01*
X150658807Y-100115189D01*
X150962210Y-100419122D01*
X151358828Y-100583813D01*
X151788280Y-100584187D01*
X152185185Y-100420189D01*
X152489118Y-100116786D01*
X152653809Y-99720168D01*
X152654183Y-99290716D01*
X152490185Y-98893811D01*
X152186782Y-98589878D01*
X151790164Y-98425187D01*
X151360712Y-98424813D01*
X150963807Y-98588811D01*
X150659874Y-98892214D01*
X150495183Y-99288832D01*
X150494809Y-99718284D01*
X150121321Y-99718284D01*
X150174313Y-99590668D01*
X150174687Y-99161216D01*
X150010689Y-98764311D01*
X149707286Y-98460378D01*
X149310668Y-98295687D01*
X148881216Y-98295313D01*
X148484311Y-98459311D01*
X148180378Y-98762714D01*
X148100342Y-98955462D01*
X148040678Y-98930687D01*
X147611226Y-98930313D01*
X147214321Y-99094311D01*
X146910388Y-99397714D01*
X146745697Y-99794332D01*
X146745323Y-100223784D01*
X146859432Y-100499948D01*
X146735743Y-100499840D01*
X146338838Y-100663838D01*
X146034905Y-100967241D01*
X145870214Y-101363859D01*
X145869840Y-101793311D01*
X129706395Y-101793311D01*
X129814943Y-101684953D01*
X129979634Y-101288335D01*
X129979703Y-101208952D01*
X130153288Y-101382840D01*
X130549906Y-101547531D01*
X130979358Y-101547905D01*
X131376263Y-101383907D01*
X131680196Y-101080504D01*
X131844887Y-100683886D01*
X131845261Y-100254434D01*
X131681263Y-99857529D01*
X131377860Y-99553596D01*
X130981242Y-99388905D01*
X130619763Y-99388590D01*
X130352440Y-99120800D01*
X130316557Y-99105900D01*
X130578628Y-98844286D01*
X130611225Y-98765784D01*
X138175813Y-98765784D01*
X138339811Y-99162689D01*
X138643214Y-99466622D01*
X139039832Y-99631313D01*
X139469284Y-99631687D01*
X139866189Y-99467689D01*
X140170122Y-99164286D01*
X140334813Y-98767668D01*
X140335187Y-98338216D01*
X140171189Y-97941311D01*
X140144494Y-97914570D01*
X140279064Y-97914687D01*
X140675969Y-97750689D01*
X140979902Y-97447286D01*
X141144593Y-97050668D01*
X141144967Y-96621216D01*
X140980969Y-96224311D01*
X140677566Y-95920378D01*
X140336533Y-95778768D01*
X141030313Y-95778768D01*
X141194311Y-96175673D01*
X141497714Y-96479606D01*
X141894332Y-96644297D01*
X142183635Y-96644549D01*
X141970098Y-96857714D01*
X141805407Y-97254332D01*
X141805033Y-97683784D01*
X141969031Y-98080689D01*
X142272434Y-98384622D01*
X142669052Y-98549313D01*
X143098504Y-98549687D01*
X143495409Y-98385689D01*
X143799342Y-98082286D01*
X143964033Y-97685668D01*
X143964034Y-97683784D01*
X149285323Y-97683784D01*
X149449321Y-98080689D01*
X149752724Y-98384622D01*
X150149342Y-98549313D01*
X150578794Y-98549687D01*
X150975699Y-98385689D01*
X151279632Y-98082286D01*
X151444323Y-97685668D01*
X151444697Y-97256216D01*
X151280699Y-96859311D01*
X150977296Y-96555378D01*
X150636302Y-96413784D01*
X158810313Y-96413784D01*
X158974311Y-96810689D01*
X159277714Y-97114622D01*
X159674332Y-97279313D01*
X160103784Y-97279687D01*
X160500689Y-97115689D01*
X160804622Y-96812286D01*
X160969313Y-96415668D01*
X160969687Y-95986216D01*
X160805689Y-95589311D01*
X160502286Y-95285378D01*
X160161292Y-95143784D01*
X182305313Y-95143784D01*
X182469311Y-95540689D01*
X182772714Y-95844622D01*
X183169332Y-96009313D01*
X183598784Y-96009687D01*
X183995689Y-95845689D01*
X184276868Y-95565000D01*
X207101655Y-95565000D01*
X207215729Y-96138489D01*
X207540585Y-96624670D01*
X207855366Y-96835000D01*
X207540585Y-97045330D01*
X207215729Y-97531511D01*
X207101655Y-98105000D01*
X207215729Y-98678489D01*
X207540585Y-99164670D01*
X208026766Y-99489526D01*
X208600255Y-99603600D01*
X208969745Y-99603600D01*
X209543234Y-99489526D01*
X210029415Y-99164670D01*
X210354271Y-98678489D01*
X210468345Y-98105000D01*
X210354271Y-97531511D01*
X210029415Y-97045330D01*
X209714634Y-96835000D01*
X210029415Y-96624670D01*
X210354271Y-96138489D01*
X210468345Y-95565000D01*
X210354271Y-94991511D01*
X210029415Y-94505330D01*
X209543234Y-94180474D01*
X208969745Y-94066400D01*
X208600255Y-94066400D01*
X208026766Y-94180474D01*
X207540585Y-94505330D01*
X207215729Y-94991511D01*
X207101655Y-95565000D01*
X184276868Y-95565000D01*
X184299622Y-95542286D01*
X184464313Y-95145668D01*
X184464687Y-94716216D01*
X184300689Y-94319311D01*
X183997286Y-94015378D01*
X183600668Y-93850687D01*
X183171216Y-93850313D01*
X182774311Y-94014311D01*
X182470378Y-94317714D01*
X182305687Y-94714332D01*
X182305313Y-95143784D01*
X160161292Y-95143784D01*
X160105668Y-95120687D01*
X159676216Y-95120313D01*
X159279311Y-95284311D01*
X158975378Y-95587714D01*
X158810687Y-95984332D01*
X158810313Y-96413784D01*
X150636302Y-96413784D01*
X150580678Y-96390687D01*
X150151226Y-96390313D01*
X149754321Y-96554311D01*
X149450388Y-96857714D01*
X149285697Y-97254332D01*
X149285323Y-97683784D01*
X143964034Y-97683784D01*
X143964407Y-97256216D01*
X143800409Y-96859311D01*
X143497006Y-96555378D01*
X143100388Y-96390687D01*
X142811085Y-96390435D01*
X143024622Y-96177270D01*
X143189313Y-95780652D01*
X143189641Y-95403784D01*
X153000313Y-95403784D01*
X153164311Y-95800689D01*
X153467714Y-96104622D01*
X153864332Y-96269313D01*
X154293784Y-96269687D01*
X154690689Y-96105689D01*
X154994622Y-95802286D01*
X155159313Y-95405668D01*
X155159687Y-94976216D01*
X155107393Y-94849655D01*
X155143782Y-94849687D01*
X155540687Y-94685689D01*
X155844620Y-94382286D01*
X156009311Y-93985668D01*
X156009685Y-93556216D01*
X155845687Y-93159311D01*
X155542284Y-92855378D01*
X155145666Y-92690687D01*
X154716214Y-92690313D01*
X154319309Y-92854311D01*
X154015376Y-93157714D01*
X153850685Y-93554332D01*
X153850311Y-93983784D01*
X153902605Y-94110345D01*
X153866216Y-94110313D01*
X153469311Y-94274311D01*
X153165378Y-94577714D01*
X153000687Y-94974332D01*
X153000313Y-95403784D01*
X143189641Y-95403784D01*
X143189687Y-95351200D01*
X143025689Y-94954295D01*
X142722286Y-94650362D01*
X142381331Y-94508784D01*
X145475313Y-94508784D01*
X145639311Y-94905689D01*
X145942714Y-95209622D01*
X146339332Y-95374313D01*
X146768784Y-95374687D01*
X147165689Y-95210689D01*
X147469622Y-94907286D01*
X147634313Y-94510668D01*
X147634687Y-94081216D01*
X147470689Y-93684311D01*
X147167286Y-93380378D01*
X146770668Y-93215687D01*
X146341216Y-93215313D01*
X145944311Y-93379311D01*
X145640378Y-93682714D01*
X145475687Y-94079332D01*
X145475313Y-94508784D01*
X142381331Y-94508784D01*
X142325668Y-94485671D01*
X141896216Y-94485297D01*
X141499311Y-94649295D01*
X141195378Y-94952698D01*
X141030687Y-95349316D01*
X141030313Y-95778768D01*
X140336533Y-95778768D01*
X140280948Y-95755687D01*
X139851496Y-95755313D01*
X139454591Y-95919311D01*
X139150658Y-96222714D01*
X138985967Y-96619332D01*
X138985593Y-97048784D01*
X139149591Y-97445689D01*
X139176286Y-97472430D01*
X139041716Y-97472313D01*
X138644811Y-97636311D01*
X138340878Y-97939714D01*
X138176187Y-98336332D01*
X138175813Y-98765784D01*
X130611225Y-98765784D01*
X130743319Y-98447668D01*
X130743693Y-98018216D01*
X130579695Y-97621311D01*
X130276292Y-97317378D01*
X129879674Y-97152687D01*
X129450222Y-97152313D01*
X129053317Y-97316311D01*
X128749384Y-97619714D01*
X128584693Y-98016332D01*
X128584319Y-98445784D01*
X128679658Y-98676521D01*
X128434216Y-98676307D01*
X128037311Y-98840305D01*
X127733378Y-99143708D01*
X127568687Y-99540326D01*
X127568313Y-99969778D01*
X120084444Y-99969778D01*
X120339029Y-99799670D01*
X120663885Y-99313489D01*
X120777959Y-98740000D01*
X120663885Y-98166511D01*
X120339029Y-97680330D01*
X120024248Y-97470000D01*
X120339029Y-97259670D01*
X120426740Y-97128400D01*
X130409701Y-97128400D01*
X130573699Y-97525305D01*
X130877102Y-97829238D01*
X131273720Y-97993929D01*
X131703172Y-97994303D01*
X131887622Y-97918090D01*
X132139524Y-98170432D01*
X132536142Y-98335123D01*
X132965594Y-98335497D01*
X133216984Y-98231625D01*
X133369714Y-98384622D01*
X133766332Y-98549313D01*
X134195784Y-98549687D01*
X134592689Y-98385689D01*
X134896622Y-98082286D01*
X135061313Y-97685668D01*
X135061687Y-97256216D01*
X134897689Y-96859311D01*
X134594286Y-96555378D01*
X134197668Y-96390687D01*
X133768216Y-96390313D01*
X133516826Y-96494185D01*
X133364096Y-96341188D01*
X132967478Y-96176497D01*
X132538026Y-96176123D01*
X132353576Y-96252336D01*
X132101674Y-95999994D01*
X131705056Y-95835303D01*
X131275604Y-95834929D01*
X130878699Y-95998927D01*
X130574766Y-96302330D01*
X130410075Y-96698948D01*
X130409701Y-97128400D01*
X120426740Y-97128400D01*
X120663885Y-96773489D01*
X120777959Y-96200000D01*
X120694174Y-95778784D01*
X128330313Y-95778784D01*
X128494311Y-96175689D01*
X128797714Y-96479622D01*
X129194332Y-96644313D01*
X129623784Y-96644687D01*
X130020689Y-96480689D01*
X130324622Y-96177286D01*
X130489313Y-95780668D01*
X130489687Y-95351216D01*
X130325689Y-94954311D01*
X130022286Y-94650378D01*
X129625668Y-94485687D01*
X129196216Y-94485313D01*
X128799311Y-94649311D01*
X128495378Y-94952714D01*
X128330687Y-95349332D01*
X128330313Y-95778784D01*
X120694174Y-95778784D01*
X120663885Y-95626511D01*
X120339029Y-95140330D01*
X120024248Y-94930000D01*
X120339029Y-94719670D01*
X120663885Y-94233489D01*
X120757412Y-93763293D01*
X132905313Y-93763293D01*
X133069311Y-94160198D01*
X133372714Y-94464131D01*
X133769332Y-94628822D01*
X134198784Y-94629196D01*
X134595689Y-94465198D01*
X134899622Y-94161795D01*
X135064313Y-93765177D01*
X135064687Y-93335725D01*
X134900689Y-92938820D01*
X134597286Y-92634887D01*
X134200668Y-92470196D01*
X133771216Y-92469822D01*
X133374311Y-92633820D01*
X133070378Y-92937223D01*
X132905687Y-93333841D01*
X132905313Y-93763293D01*
X120757412Y-93763293D01*
X120777959Y-93660000D01*
X120663885Y-93086511D01*
X120339029Y-92600330D01*
X120024248Y-92390000D01*
X120031144Y-92385392D01*
X141170044Y-92385392D01*
X141334042Y-92782297D01*
X141637445Y-93086230D01*
X142034063Y-93250921D01*
X142463515Y-93251295D01*
X142860420Y-93087297D01*
X143164353Y-92783894D01*
X143329044Y-92387276D01*
X143329418Y-91957824D01*
X143308742Y-91907784D01*
X177355313Y-91907784D01*
X177519311Y-92304689D01*
X177822714Y-92608622D01*
X178219332Y-92773313D01*
X178648784Y-92773687D01*
X179045689Y-92609689D01*
X179349622Y-92306286D01*
X179514313Y-91909668D01*
X179514687Y-91480216D01*
X179350689Y-91083311D01*
X179047286Y-90779378D01*
X178650668Y-90614687D01*
X178221216Y-90614313D01*
X177824311Y-90778311D01*
X177520378Y-91081714D01*
X177355687Y-91478332D01*
X177355313Y-91907784D01*
X143308742Y-91907784D01*
X143165420Y-91560919D01*
X142862017Y-91256986D01*
X142465399Y-91092295D01*
X142035947Y-91091921D01*
X141639042Y-91255919D01*
X141335109Y-91559322D01*
X141170418Y-91955940D01*
X141170044Y-92385392D01*
X120031144Y-92385392D01*
X120339029Y-92179670D01*
X120529881Y-91894040D01*
X120672714Y-92037122D01*
X121069332Y-92201813D01*
X121498784Y-92202187D01*
X121895689Y-92038189D01*
X121919776Y-92014144D01*
X121942714Y-92037122D01*
X122339332Y-92201813D01*
X122768784Y-92202187D01*
X123165689Y-92038189D01*
X123189776Y-92014144D01*
X123212714Y-92037122D01*
X123609332Y-92201813D01*
X124038784Y-92202187D01*
X124435689Y-92038189D01*
X124739622Y-91734786D01*
X124904313Y-91338168D01*
X124904687Y-90908716D01*
X124740689Y-90511811D01*
X124684894Y-90455919D01*
X124739622Y-90401286D01*
X124904313Y-90004668D01*
X124904687Y-89575216D01*
X124740689Y-89178311D01*
X124437286Y-88874378D01*
X124040668Y-88709687D01*
X123611216Y-88709313D01*
X123214311Y-88873311D01*
X123190224Y-88897356D01*
X123167286Y-88874378D01*
X122770668Y-88709687D01*
X122341216Y-88709313D01*
X121944311Y-88873311D01*
X121920224Y-88897356D01*
X121897286Y-88874378D01*
X121500668Y-88709687D01*
X121071216Y-88709313D01*
X120674311Y-88873311D01*
X120370378Y-89176714D01*
X120205687Y-89573332D01*
X120205341Y-89971002D01*
X119852848Y-89735474D01*
X119279359Y-89621400D01*
X119220641Y-89621400D01*
X118647152Y-89735474D01*
X118181558Y-90046574D01*
X118176762Y-90021083D01*
X118037690Y-89804959D01*
X117825490Y-89659969D01*
X117573600Y-89608960D01*
X115846400Y-89608960D01*
X115611083Y-89653238D01*
X115394959Y-89792310D01*
X115249969Y-90004510D01*
X115198960Y-90256400D01*
X115198960Y-91983600D01*
X115243238Y-92218917D01*
X115382310Y-92435041D01*
X115594510Y-92580031D01*
X115638131Y-92588864D01*
X115620971Y-92600330D01*
X115296115Y-93086511D01*
X115182041Y-93660000D01*
X113210000Y-93660000D01*
X113210000Y-86888784D01*
X151825313Y-86888784D01*
X151989311Y-87285689D01*
X152292714Y-87589622D01*
X152689332Y-87754313D01*
X153118784Y-87754687D01*
X153515689Y-87590689D01*
X153819622Y-87287286D01*
X153984313Y-86890668D01*
X153984687Y-86461216D01*
X153898978Y-86253784D01*
X175320313Y-86253784D01*
X175484311Y-86650689D01*
X175787714Y-86954622D01*
X176184332Y-87119313D01*
X176613784Y-87119687D01*
X177010689Y-86955689D01*
X177314622Y-86652286D01*
X177479313Y-86255668D01*
X177479687Y-85826216D01*
X177315689Y-85429311D01*
X177012286Y-85125378D01*
X176615668Y-84960687D01*
X176186216Y-84960313D01*
X175789311Y-85124311D01*
X175485378Y-85427714D01*
X175320687Y-85824332D01*
X175320313Y-86253784D01*
X153898978Y-86253784D01*
X153820689Y-86064311D01*
X153517286Y-85760378D01*
X153120668Y-85595687D01*
X152691216Y-85595313D01*
X152294311Y-85759311D01*
X151990378Y-86062714D01*
X151825687Y-86459332D01*
X151825313Y-86888784D01*
X113210000Y-86888784D01*
X113210000Y-84983774D01*
X168970313Y-84983774D01*
X169134311Y-85380679D01*
X169437714Y-85684612D01*
X169834332Y-85849303D01*
X170263784Y-85849677D01*
X170660689Y-85685679D01*
X170964622Y-85382276D01*
X171129313Y-84985658D01*
X171129687Y-84556206D01*
X170965689Y-84159301D01*
X170662286Y-83855368D01*
X170265668Y-83690677D01*
X169836216Y-83690303D01*
X169439311Y-83854301D01*
X169135378Y-84157704D01*
X168970687Y-84554322D01*
X168970313Y-84983774D01*
X113210000Y-84983774D01*
X113210000Y-79944000D01*
X115046560Y-79944000D01*
X115046560Y-81976000D01*
X115090838Y-82211317D01*
X115229910Y-82427441D01*
X115442110Y-82572431D01*
X115694000Y-82623440D01*
X117726000Y-82623440D01*
X117961317Y-82579162D01*
X118177441Y-82440090D01*
X118279198Y-82291163D01*
X118618190Y-82517670D01*
X119250000Y-82643345D01*
X119881810Y-82517670D01*
X120417433Y-82159778D01*
X120651959Y-81808784D01*
X176590313Y-81808784D01*
X176754311Y-82205689D01*
X177057714Y-82509622D01*
X177454332Y-82674313D01*
X177883784Y-82674687D01*
X178280689Y-82510689D01*
X178584622Y-82207286D01*
X178749313Y-81810668D01*
X178749687Y-81381216D01*
X178663978Y-81173784D01*
X182305313Y-81173784D01*
X182469311Y-81570689D01*
X182772714Y-81874622D01*
X183169332Y-82039313D01*
X183598784Y-82039687D01*
X183995689Y-81875689D01*
X184276868Y-81595000D01*
X207101655Y-81595000D01*
X207215729Y-82168489D01*
X207540585Y-82654670D01*
X207855366Y-82865000D01*
X207540585Y-83075330D01*
X207215729Y-83561511D01*
X207101655Y-84135000D01*
X207215729Y-84708489D01*
X207540585Y-85194670D01*
X208026766Y-85519526D01*
X208600255Y-85633600D01*
X208969745Y-85633600D01*
X209543234Y-85519526D01*
X210029415Y-85194670D01*
X210354271Y-84708489D01*
X210468345Y-84135000D01*
X210354271Y-83561511D01*
X210029415Y-83075330D01*
X209714634Y-82865000D01*
X210029415Y-82654670D01*
X210354271Y-82168489D01*
X210468345Y-81595000D01*
X210354271Y-81021511D01*
X210029415Y-80535330D01*
X209543234Y-80210474D01*
X208969745Y-80096400D01*
X208600255Y-80096400D01*
X208026766Y-80210474D01*
X207540585Y-80535330D01*
X207215729Y-81021511D01*
X207101655Y-81595000D01*
X184276868Y-81595000D01*
X184299622Y-81572286D01*
X184464313Y-81175668D01*
X184464687Y-80746216D01*
X184300689Y-80349311D01*
X183997286Y-80045378D01*
X183600668Y-79880687D01*
X183171216Y-79880313D01*
X182774311Y-80044311D01*
X182470378Y-80347714D01*
X182305687Y-80744332D01*
X182305313Y-81173784D01*
X178663978Y-81173784D01*
X178585689Y-80984311D01*
X178282286Y-80680378D01*
X177885668Y-80515687D01*
X177456216Y-80515313D01*
X177059311Y-80679311D01*
X176755378Y-80982714D01*
X176590687Y-81379332D01*
X176590313Y-81808784D01*
X120651959Y-81808784D01*
X120775325Y-81624155D01*
X120901000Y-80992345D01*
X120901000Y-80927655D01*
X120775325Y-80295845D01*
X120417433Y-79760222D01*
X119881810Y-79402330D01*
X119250000Y-79276655D01*
X118618190Y-79402330D01*
X118278208Y-79629499D01*
X118190090Y-79492559D01*
X117977890Y-79347569D01*
X117726000Y-79296560D01*
X115694000Y-79296560D01*
X115458683Y-79340838D01*
X115242559Y-79479910D01*
X115097569Y-79692110D01*
X115046560Y-79944000D01*
X113210000Y-79944000D01*
X113210000Y-74823784D01*
X138934813Y-74823784D01*
X139098811Y-75220689D01*
X139122856Y-75244776D01*
X139099878Y-75267714D01*
X138935187Y-75664332D01*
X138934813Y-76093784D01*
X139098811Y-76490689D01*
X139122856Y-76514776D01*
X139099878Y-76537714D01*
X138935187Y-76934332D01*
X138934813Y-77363784D01*
X139098811Y-77760689D01*
X139122856Y-77784776D01*
X139099878Y-77807714D01*
X138935187Y-78204332D01*
X138934813Y-78633784D01*
X139098811Y-79030689D01*
X139125603Y-79057528D01*
X139102878Y-79080214D01*
X138938187Y-79476832D01*
X138937813Y-79906284D01*
X139101811Y-80303189D01*
X139405214Y-80607122D01*
X139801832Y-80771813D01*
X140231284Y-80772187D01*
X140628189Y-80608189D01*
X140652276Y-80584144D01*
X140675214Y-80607122D01*
X141071832Y-80771813D01*
X141501284Y-80772187D01*
X141898189Y-80608189D01*
X142202122Y-80304786D01*
X142366813Y-79908168D01*
X142367187Y-79478716D01*
X142203189Y-79081811D01*
X142176397Y-79054972D01*
X142199122Y-79032286D01*
X142363813Y-78635668D01*
X142364187Y-78206216D01*
X142200189Y-77809311D01*
X142176144Y-77785224D01*
X142199122Y-77762286D01*
X142363813Y-77365668D01*
X142364187Y-76936216D01*
X142200189Y-76539311D01*
X142176144Y-76515224D01*
X142199122Y-76492286D01*
X142363813Y-76095668D01*
X142364187Y-75666216D01*
X142200189Y-75269311D01*
X142176144Y-75245224D01*
X142199122Y-75222286D01*
X142363813Y-74825668D01*
X142363814Y-74823784D01*
X180400313Y-74823784D01*
X180564311Y-75220689D01*
X180867714Y-75524622D01*
X181264332Y-75689313D01*
X181693784Y-75689687D01*
X182090689Y-75525689D01*
X182394622Y-75222286D01*
X182559313Y-74825668D01*
X182559687Y-74396216D01*
X182395689Y-73999311D01*
X182092286Y-73695378D01*
X181695668Y-73530687D01*
X181266216Y-73530313D01*
X180869311Y-73694311D01*
X180565378Y-73997714D01*
X180400687Y-74394332D01*
X180400313Y-74823784D01*
X142363814Y-74823784D01*
X142364187Y-74396216D01*
X142200189Y-73999311D01*
X141896786Y-73695378D01*
X141500168Y-73530687D01*
X141070716Y-73530313D01*
X140673811Y-73694311D01*
X140649724Y-73718356D01*
X140626786Y-73695378D01*
X140230168Y-73530687D01*
X139800716Y-73530313D01*
X139403811Y-73694311D01*
X139099878Y-73997714D01*
X138935187Y-74394332D01*
X138934813Y-74823784D01*
X113210000Y-74823784D01*
X113210000Y-68473784D01*
X136585313Y-68473784D01*
X136749311Y-68870689D01*
X137052714Y-69174622D01*
X137449332Y-69339313D01*
X137878784Y-69339687D01*
X138275689Y-69175689D01*
X138579622Y-68872286D01*
X138617389Y-68781332D01*
X138654311Y-68870689D01*
X138678356Y-68894776D01*
X138655378Y-68917714D01*
X138490687Y-69314332D01*
X138490313Y-69743784D01*
X138654311Y-70140689D01*
X138678356Y-70164776D01*
X138655378Y-70187714D01*
X138490687Y-70584332D01*
X138490313Y-71013784D01*
X138654311Y-71410689D01*
X138957714Y-71714622D01*
X139354332Y-71879313D01*
X139783784Y-71879687D01*
X140180689Y-71715689D01*
X140484622Y-71412286D01*
X140522389Y-71321332D01*
X140559311Y-71410689D01*
X140862714Y-71714622D01*
X141259332Y-71879313D01*
X141688784Y-71879687D01*
X142085689Y-71715689D01*
X142389622Y-71412286D01*
X142427389Y-71321332D01*
X142464311Y-71410689D01*
X142767714Y-71714622D01*
X143164332Y-71879313D01*
X143593784Y-71879687D01*
X143990689Y-71715689D01*
X144294622Y-71412286D01*
X144459313Y-71015668D01*
X144459687Y-70586216D01*
X144295689Y-70189311D01*
X144271644Y-70165224D01*
X144294622Y-70142286D01*
X144382470Y-69930724D01*
X154428813Y-69930724D01*
X154592811Y-70327629D01*
X154896214Y-70631562D01*
X155292832Y-70796253D01*
X155557389Y-70796483D01*
X155683770Y-71102349D01*
X155987173Y-71406282D01*
X156383791Y-71570973D01*
X156813243Y-71571347D01*
X157066675Y-71466631D01*
X156905687Y-71854332D01*
X156905313Y-72283784D01*
X157069311Y-72680689D01*
X157372714Y-72984622D01*
X157769332Y-73149313D01*
X158198784Y-73149687D01*
X158595689Y-72985689D01*
X158899622Y-72682286D01*
X159064313Y-72285668D01*
X159064687Y-71856216D01*
X158900689Y-71459311D01*
X158597286Y-71155378D01*
X158200668Y-70990687D01*
X157771216Y-70990313D01*
X157517784Y-71095029D01*
X157678772Y-70707328D01*
X157679146Y-70277876D01*
X157515148Y-69880971D01*
X157211745Y-69577038D01*
X156854712Y-69428784D01*
X180530313Y-69428784D01*
X180694311Y-69825689D01*
X180997714Y-70129622D01*
X181394332Y-70294313D01*
X181823784Y-70294687D01*
X182220689Y-70130689D01*
X182524622Y-69827286D01*
X182689313Y-69430668D01*
X182689314Y-69428784D01*
X197675313Y-69428784D01*
X197839311Y-69825689D01*
X198142714Y-70129622D01*
X198539332Y-70294313D01*
X198968784Y-70294687D01*
X199365689Y-70130689D01*
X199669622Y-69827286D01*
X199834313Y-69430668D01*
X199834687Y-69001216D01*
X199670689Y-68604311D01*
X199367286Y-68300378D01*
X198970668Y-68135687D01*
X198541216Y-68135313D01*
X198144311Y-68299311D01*
X197840378Y-68602714D01*
X197675687Y-68999332D01*
X197675313Y-69428784D01*
X182689314Y-69428784D01*
X182689687Y-69001216D01*
X182525689Y-68604311D01*
X182222286Y-68300378D01*
X181881292Y-68158784D01*
X186880313Y-68158784D01*
X187044311Y-68555689D01*
X187347714Y-68859622D01*
X187744332Y-69024313D01*
X188173784Y-69024687D01*
X188570689Y-68860689D01*
X188874622Y-68557286D01*
X189039313Y-68160668D01*
X189039687Y-67731216D01*
X188995800Y-67625000D01*
X207101655Y-67625000D01*
X207215729Y-68198489D01*
X207540585Y-68684670D01*
X207855366Y-68895000D01*
X207540585Y-69105330D01*
X207215729Y-69591511D01*
X207101655Y-70165000D01*
X207215729Y-70738489D01*
X207540585Y-71224670D01*
X208026766Y-71549526D01*
X208600255Y-71663600D01*
X208969745Y-71663600D01*
X209543234Y-71549526D01*
X210029415Y-71224670D01*
X210354271Y-70738489D01*
X210468345Y-70165000D01*
X210354271Y-69591511D01*
X210029415Y-69105330D01*
X209714634Y-68895000D01*
X210029415Y-68684670D01*
X210354271Y-68198489D01*
X210468345Y-67625000D01*
X210354271Y-67051511D01*
X210029415Y-66565330D01*
X209543234Y-66240474D01*
X208969745Y-66126400D01*
X208600255Y-66126400D01*
X208026766Y-66240474D01*
X207540585Y-66565330D01*
X207215729Y-67051511D01*
X207101655Y-67625000D01*
X188995800Y-67625000D01*
X188875689Y-67334311D01*
X188572286Y-67030378D01*
X188175668Y-66865687D01*
X187746216Y-66865313D01*
X187349311Y-67029311D01*
X187045378Y-67332714D01*
X186880687Y-67729332D01*
X186880313Y-68158784D01*
X181881292Y-68158784D01*
X181825668Y-68135687D01*
X181396216Y-68135313D01*
X180999311Y-68299311D01*
X180695378Y-68602714D01*
X180530687Y-68999332D01*
X180530313Y-69428784D01*
X156854712Y-69428784D01*
X156815127Y-69412347D01*
X156550570Y-69412117D01*
X156424189Y-69106251D01*
X156120786Y-68802318D01*
X155724168Y-68637627D01*
X155294716Y-68637253D01*
X154897811Y-68801251D01*
X154593878Y-69104654D01*
X154429187Y-69501272D01*
X154428813Y-69930724D01*
X144382470Y-69930724D01*
X144459313Y-69745668D01*
X144459687Y-69316216D01*
X144295689Y-68919311D01*
X144271644Y-68895224D01*
X144294622Y-68872286D01*
X144459313Y-68475668D01*
X144459687Y-68046216D01*
X144295689Y-67649311D01*
X143992286Y-67345378D01*
X143595668Y-67180687D01*
X143166216Y-67180313D01*
X142769311Y-67344311D01*
X142465378Y-67647714D01*
X142427611Y-67738668D01*
X142390689Y-67649311D01*
X142087286Y-67345378D01*
X141690668Y-67180687D01*
X141261216Y-67180313D01*
X140864311Y-67344311D01*
X140560378Y-67647714D01*
X140522611Y-67738668D01*
X140485689Y-67649311D01*
X140182286Y-67345378D01*
X139785668Y-67180687D01*
X139356216Y-67180313D01*
X138959311Y-67344311D01*
X138655378Y-67647714D01*
X138617611Y-67738668D01*
X138580689Y-67649311D01*
X138277286Y-67345378D01*
X137880668Y-67180687D01*
X137451216Y-67180313D01*
X137054311Y-67344311D01*
X136750378Y-67647714D01*
X136585687Y-68044332D01*
X136585313Y-68473784D01*
X113210000Y-68473784D01*
X113210000Y-65933784D01*
X182305313Y-65933784D01*
X182469311Y-66330689D01*
X182772714Y-66634622D01*
X183169332Y-66799313D01*
X183598784Y-66799687D01*
X183995689Y-66635689D01*
X184299622Y-66332286D01*
X184464313Y-65935668D01*
X184464687Y-65506216D01*
X184300689Y-65109311D01*
X183997286Y-64805378D01*
X183600668Y-64640687D01*
X183171216Y-64640313D01*
X182774311Y-64804311D01*
X182470378Y-65107714D01*
X182305687Y-65504332D01*
X182305313Y-65933784D01*
X113210000Y-65933784D01*
X113210000Y-64983784D01*
X151955313Y-64983784D01*
X152119311Y-65380689D01*
X152422714Y-65684622D01*
X152819332Y-65849313D01*
X153248784Y-65849687D01*
X153645689Y-65685689D01*
X153669776Y-65661644D01*
X153692714Y-65684622D01*
X154089332Y-65849313D01*
X154518784Y-65849687D01*
X154915689Y-65685689D01*
X154939776Y-65661644D01*
X154962714Y-65684622D01*
X155359332Y-65849313D01*
X155788784Y-65849687D01*
X156185689Y-65685689D01*
X156209776Y-65661644D01*
X156232714Y-65684622D01*
X156629332Y-65849313D01*
X157058784Y-65849687D01*
X157455689Y-65685689D01*
X157479776Y-65661644D01*
X157502714Y-65684622D01*
X157899332Y-65849313D01*
X158328784Y-65849687D01*
X158725689Y-65685689D01*
X158749776Y-65661644D01*
X158772714Y-65684622D01*
X159169332Y-65849313D01*
X159598784Y-65849687D01*
X159995689Y-65685689D01*
X160299622Y-65382286D01*
X160464313Y-64985668D01*
X160464687Y-64556216D01*
X160300689Y-64159311D01*
X160172886Y-64031284D01*
X188594813Y-64031284D01*
X188758811Y-64428189D01*
X189062214Y-64732122D01*
X189458832Y-64896813D01*
X189888284Y-64897187D01*
X190285189Y-64733189D01*
X190589122Y-64429786D01*
X190753813Y-64033168D01*
X190753816Y-64028784D01*
X196275313Y-64028784D01*
X196439311Y-64425689D01*
X196742714Y-64729622D01*
X197139332Y-64894313D01*
X197568784Y-64894687D01*
X197965689Y-64730689D01*
X198269622Y-64427286D01*
X198434313Y-64030668D01*
X198434426Y-63900752D01*
X198539332Y-63944313D01*
X198968784Y-63944687D01*
X199365689Y-63780689D01*
X199669622Y-63477286D01*
X199834313Y-63080668D01*
X199834687Y-62651216D01*
X199670689Y-62254311D01*
X199367286Y-61950378D01*
X198970668Y-61785687D01*
X198541216Y-61785313D01*
X198144311Y-61949311D01*
X197840378Y-62252714D01*
X197675687Y-62649332D01*
X197675574Y-62779248D01*
X197570668Y-62735687D01*
X197141216Y-62735313D01*
X196744311Y-62899311D01*
X196440378Y-63202714D01*
X196275687Y-63599332D01*
X196275313Y-64028784D01*
X190753816Y-64028784D01*
X190754187Y-63603716D01*
X190590189Y-63206811D01*
X190286786Y-62902878D01*
X189890168Y-62738187D01*
X189460716Y-62737813D01*
X189063811Y-62901811D01*
X188759878Y-63205214D01*
X188595187Y-63601832D01*
X188594813Y-64031284D01*
X160172886Y-64031284D01*
X159997286Y-63855378D01*
X159600668Y-63690687D01*
X159171216Y-63690313D01*
X158774311Y-63854311D01*
X158750224Y-63878356D01*
X158727286Y-63855378D01*
X158330668Y-63690687D01*
X157901216Y-63690313D01*
X157504311Y-63854311D01*
X157480224Y-63878356D01*
X157457286Y-63855378D01*
X157060668Y-63690687D01*
X156631216Y-63690313D01*
X156234311Y-63854311D01*
X156210224Y-63878356D01*
X156187286Y-63855378D01*
X155790668Y-63690687D01*
X155361216Y-63690313D01*
X154964311Y-63854311D01*
X154940224Y-63878356D01*
X154917286Y-63855378D01*
X154520668Y-63690687D01*
X154091216Y-63690313D01*
X153694311Y-63854311D01*
X153670224Y-63878356D01*
X153647286Y-63855378D01*
X153250668Y-63690687D01*
X152821216Y-63690313D01*
X152424311Y-63854311D01*
X152120378Y-64157714D01*
X151955687Y-64554332D01*
X151955313Y-64983784D01*
X113210000Y-64983784D01*
X113210000Y-64028784D01*
X136585313Y-64028784D01*
X136749311Y-64425689D01*
X137052714Y-64729622D01*
X137449332Y-64894313D01*
X137878784Y-64894687D01*
X138275689Y-64730689D01*
X138579622Y-64427286D01*
X138744313Y-64030668D01*
X138744464Y-63856498D01*
X146542093Y-63856498D01*
X146706091Y-64253403D01*
X147009494Y-64557336D01*
X147406112Y-64722027D01*
X147835564Y-64722401D01*
X148232469Y-64558403D01*
X148536402Y-64255000D01*
X148701093Y-63858382D01*
X148701467Y-63428930D01*
X148537469Y-63032025D01*
X148234066Y-62728092D01*
X147837448Y-62563401D01*
X147407996Y-62563027D01*
X147011091Y-62727025D01*
X146707158Y-63030428D01*
X146542467Y-63427046D01*
X146542093Y-63856498D01*
X138744464Y-63856498D01*
X138744687Y-63601216D01*
X138580689Y-63204311D01*
X138277286Y-62900378D01*
X137880668Y-62735687D01*
X137451216Y-62735313D01*
X137054311Y-62899311D01*
X136750378Y-63202714D01*
X136585687Y-63599332D01*
X136585313Y-64028784D01*
X113210000Y-64028784D01*
X113210000Y-57043784D01*
X121980313Y-57043784D01*
X122144311Y-57440689D01*
X122168356Y-57464776D01*
X122145378Y-57487714D01*
X121980687Y-57884332D01*
X121980313Y-58313784D01*
X122144311Y-58710689D01*
X122168356Y-58734776D01*
X122145378Y-58757714D01*
X121980687Y-59154332D01*
X121980313Y-59583784D01*
X122144311Y-59980689D01*
X122168356Y-60004776D01*
X122145378Y-60027714D01*
X121980687Y-60424332D01*
X121980313Y-60853784D01*
X122144311Y-61250689D01*
X122168356Y-61274776D01*
X122145378Y-61297714D01*
X121980687Y-61694332D01*
X121980313Y-62123784D01*
X122144311Y-62520689D01*
X122447714Y-62824622D01*
X122844332Y-62989313D01*
X123273784Y-62989687D01*
X123670689Y-62825689D01*
X123694776Y-62801644D01*
X123717714Y-62824622D01*
X124114332Y-62989313D01*
X124543784Y-62989687D01*
X124940689Y-62825689D01*
X125244622Y-62522286D01*
X125409313Y-62125668D01*
X125409687Y-61696216D01*
X125245689Y-61299311D01*
X125221644Y-61275224D01*
X125244622Y-61252286D01*
X125277227Y-61173764D01*
X147510313Y-61173764D01*
X147674311Y-61570669D01*
X147977714Y-61874602D01*
X148374332Y-62039293D01*
X148803784Y-62039667D01*
X149200689Y-61875669D01*
X149504622Y-61572266D01*
X149669313Y-61175648D01*
X149669687Y-60746196D01*
X149509478Y-60358461D01*
X149752714Y-60602122D01*
X150149332Y-60766813D01*
X150578784Y-60767187D01*
X150785344Y-60681838D01*
X151022714Y-60919622D01*
X151419332Y-61084313D01*
X151848784Y-61084687D01*
X152245689Y-60920689D01*
X152269776Y-60896644D01*
X152292714Y-60919622D01*
X152689332Y-61084313D01*
X153118784Y-61084687D01*
X153515689Y-60920689D01*
X153539776Y-60896644D01*
X153562714Y-60919622D01*
X153959332Y-61084313D01*
X154388784Y-61084687D01*
X154785689Y-60920689D01*
X155089622Y-60617286D01*
X155122219Y-60538784D01*
X198945313Y-60538784D01*
X199109311Y-60935689D01*
X199412714Y-61239622D01*
X199809332Y-61404313D01*
X200238784Y-61404687D01*
X200635689Y-61240689D01*
X200939622Y-60937286D01*
X201104313Y-60540668D01*
X201104687Y-60111216D01*
X200940689Y-59714311D01*
X200637286Y-59410378D01*
X200240668Y-59245687D01*
X199811216Y-59245313D01*
X199414311Y-59409311D01*
X199110378Y-59712714D01*
X198945687Y-60109332D01*
X198945313Y-60538784D01*
X155122219Y-60538784D01*
X155254313Y-60220668D01*
X155254687Y-59791216D01*
X155168978Y-59583784D01*
X180717813Y-59583784D01*
X180881811Y-59980689D01*
X181185214Y-60284622D01*
X181581832Y-60449313D01*
X182011284Y-60449687D01*
X182408189Y-60285689D01*
X182712122Y-59982286D01*
X182876813Y-59585668D01*
X182877187Y-59156216D01*
X182713189Y-58759311D01*
X182409786Y-58455378D01*
X182013168Y-58290687D01*
X181583716Y-58290313D01*
X181186811Y-58454311D01*
X180882878Y-58757714D01*
X180718187Y-59154332D01*
X180717813Y-59583784D01*
X155168978Y-59583784D01*
X155090689Y-59394311D01*
X154787286Y-59090378D01*
X154390668Y-58925687D01*
X153961216Y-58925313D01*
X153564311Y-59089311D01*
X153540224Y-59113356D01*
X153517286Y-59090378D01*
X153120668Y-58925687D01*
X152691216Y-58925313D01*
X152294311Y-59089311D01*
X152270224Y-59113356D01*
X152247286Y-59090378D01*
X151850668Y-58925687D01*
X151421216Y-58925313D01*
X151214656Y-59010662D01*
X150977286Y-58772878D01*
X150580668Y-58608187D01*
X150151216Y-58607813D01*
X149754311Y-58771811D01*
X149450378Y-59075214D01*
X149285687Y-59471832D01*
X149285313Y-59901284D01*
X149445522Y-60289019D01*
X149202286Y-60045358D01*
X148805668Y-59880667D01*
X148376216Y-59880293D01*
X147979311Y-60044291D01*
X147675378Y-60347694D01*
X147510687Y-60744312D01*
X147510313Y-61173764D01*
X125277227Y-61173764D01*
X125409313Y-60855668D01*
X125409687Y-60426216D01*
X125245689Y-60029311D01*
X125221644Y-60005224D01*
X125244622Y-59982286D01*
X125409313Y-59585668D01*
X125409687Y-59156216D01*
X125245689Y-58759311D01*
X125221644Y-58735224D01*
X125244622Y-58712286D01*
X125409313Y-58315668D01*
X125409687Y-57886216D01*
X125245689Y-57489311D01*
X125221644Y-57465224D01*
X125244622Y-57442286D01*
X125409313Y-57045668D01*
X125409314Y-57043784D01*
X128330313Y-57043784D01*
X128494311Y-57440689D01*
X128519345Y-57465767D01*
X128497359Y-57487714D01*
X128332668Y-57884332D01*
X128332294Y-58313784D01*
X128496292Y-58710689D01*
X128519348Y-58733786D01*
X128495378Y-58757714D01*
X128330687Y-59154332D01*
X128330313Y-59583784D01*
X128494311Y-59980689D01*
X128797714Y-60284622D01*
X129194332Y-60449313D01*
X129623784Y-60449687D01*
X130020689Y-60285689D01*
X130044776Y-60261644D01*
X130067714Y-60284622D01*
X130464332Y-60449313D01*
X130893784Y-60449687D01*
X131290689Y-60285689D01*
X131594622Y-59982286D01*
X131759313Y-59585668D01*
X131759687Y-59156216D01*
X131595689Y-58759311D01*
X131571644Y-58735224D01*
X131594622Y-58712286D01*
X131759313Y-58315668D01*
X131759687Y-57886216D01*
X131595689Y-57489311D01*
X131571644Y-57465224D01*
X131594622Y-57442286D01*
X131759313Y-57045668D01*
X131759687Y-56616216D01*
X131595689Y-56219311D01*
X131292286Y-55915378D01*
X130951292Y-55773784D01*
X134680313Y-55773784D01*
X134844311Y-56170689D01*
X135147714Y-56474622D01*
X135544332Y-56639313D01*
X135973784Y-56639687D01*
X136370689Y-56475689D01*
X136437710Y-56408784D01*
X172145313Y-56408784D01*
X172309311Y-56805689D01*
X172612714Y-57109622D01*
X173009332Y-57274313D01*
X173438784Y-57274687D01*
X173835689Y-57110689D01*
X174139622Y-56807286D01*
X174304313Y-56410668D01*
X174304687Y-55981216D01*
X174140689Y-55584311D01*
X173837286Y-55280378D01*
X173440668Y-55115687D01*
X173011216Y-55115313D01*
X172614311Y-55279311D01*
X172310378Y-55582714D01*
X172145687Y-55979332D01*
X172145313Y-56408784D01*
X136437710Y-56408784D01*
X136674622Y-56172286D01*
X136839313Y-55775668D01*
X136839687Y-55346216D01*
X136675689Y-54949311D01*
X136372286Y-54645378D01*
X135975668Y-54480687D01*
X135546216Y-54480313D01*
X135149311Y-54644311D01*
X134845378Y-54947714D01*
X134680687Y-55344332D01*
X134680313Y-55773784D01*
X130951292Y-55773784D01*
X130895668Y-55750687D01*
X130466216Y-55750313D01*
X130069311Y-55914311D01*
X130045224Y-55938356D01*
X130022286Y-55915378D01*
X129625668Y-55750687D01*
X129196216Y-55750313D01*
X128799311Y-55914311D01*
X128495378Y-56217714D01*
X128330687Y-56614332D01*
X128330313Y-57043784D01*
X125409314Y-57043784D01*
X125409687Y-56616216D01*
X125245689Y-56219311D01*
X124942286Y-55915378D01*
X124545668Y-55750687D01*
X124116216Y-55750313D01*
X123719311Y-55914311D01*
X123695224Y-55938356D01*
X123672286Y-55915378D01*
X123275668Y-55750687D01*
X122846216Y-55750313D01*
X122449311Y-55914311D01*
X122145378Y-56217714D01*
X121980687Y-56614332D01*
X121980313Y-57043784D01*
X113210000Y-57043784D01*
X113210000Y-53553784D01*
X190055313Y-53553784D01*
X190219311Y-53950689D01*
X190522714Y-54254622D01*
X190919332Y-54419313D01*
X191348784Y-54419687D01*
X191745689Y-54255689D01*
X192049622Y-53952286D01*
X192173066Y-53655000D01*
X207101655Y-53655000D01*
X207215729Y-54228489D01*
X207540585Y-54714670D01*
X207855366Y-54925000D01*
X207540585Y-55135330D01*
X207215729Y-55621511D01*
X207101655Y-56195000D01*
X207215729Y-56768489D01*
X207540585Y-57254670D01*
X208026766Y-57579526D01*
X208600255Y-57693600D01*
X208969745Y-57693600D01*
X209543234Y-57579526D01*
X210029415Y-57254670D01*
X210354271Y-56768489D01*
X210468345Y-56195000D01*
X210354271Y-55621511D01*
X210029415Y-55135330D01*
X209714634Y-54925000D01*
X210029415Y-54714670D01*
X210354271Y-54228489D01*
X210468345Y-53655000D01*
X210354271Y-53081511D01*
X210029415Y-52595330D01*
X209543234Y-52270474D01*
X208969745Y-52156400D01*
X208600255Y-52156400D01*
X208026766Y-52270474D01*
X207540585Y-52595330D01*
X207215729Y-53081511D01*
X207101655Y-53655000D01*
X192173066Y-53655000D01*
X192214313Y-53555668D01*
X192214687Y-53126216D01*
X192050689Y-52729311D01*
X191747286Y-52425378D01*
X191350668Y-52260687D01*
X190921216Y-52260313D01*
X190524311Y-52424311D01*
X190220378Y-52727714D01*
X190055687Y-53124332D01*
X190055313Y-53553784D01*
X113210000Y-53553784D01*
X113210000Y-51750000D01*
X115026655Y-51750000D01*
X115152330Y-52381810D01*
X115510222Y-52917433D01*
X116045845Y-53275325D01*
X116677655Y-53401000D01*
X116742345Y-53401000D01*
X117374155Y-53275325D01*
X117909778Y-52917433D01*
X118267670Y-52381810D01*
X118393345Y-51750000D01*
X118374207Y-51653784D01*
X154080313Y-51653784D01*
X154244311Y-52050689D01*
X154547714Y-52354622D01*
X154944332Y-52519313D01*
X155373784Y-52519687D01*
X155770689Y-52355689D01*
X156074622Y-52052286D01*
X156239313Y-51655668D01*
X156239597Y-51328784D01*
X182305313Y-51328784D01*
X182469311Y-51725689D01*
X182772714Y-52029622D01*
X183169332Y-52194313D01*
X183598784Y-52194687D01*
X183995689Y-52030689D01*
X184299622Y-51727286D01*
X184464313Y-51330668D01*
X184464687Y-50901216D01*
X184300689Y-50504311D01*
X183997286Y-50200378D01*
X183656292Y-50058784D01*
X195640313Y-50058784D01*
X195804311Y-50455689D01*
X196107714Y-50759622D01*
X196504332Y-50924313D01*
X196933784Y-50924687D01*
X197330689Y-50760689D01*
X197634622Y-50457286D01*
X197799313Y-50060668D01*
X197799687Y-49631216D01*
X197635689Y-49234311D01*
X197573771Y-49172284D01*
X198627813Y-49172284D01*
X198791811Y-49569189D01*
X199095214Y-49873122D01*
X199491832Y-50037813D01*
X199921284Y-50038187D01*
X200318189Y-49874189D01*
X200622122Y-49570786D01*
X200786813Y-49174168D01*
X200787187Y-48744716D01*
X200623189Y-48347811D01*
X200319786Y-48043878D01*
X199923168Y-47879187D01*
X199493716Y-47878813D01*
X199096811Y-48042811D01*
X198792878Y-48346214D01*
X198628187Y-48742832D01*
X198627813Y-49172284D01*
X197573771Y-49172284D01*
X197332286Y-48930378D01*
X196935668Y-48765687D01*
X196506216Y-48765313D01*
X196109311Y-48929311D01*
X195805378Y-49232714D01*
X195640687Y-49629332D01*
X195640313Y-50058784D01*
X183656292Y-50058784D01*
X183600668Y-50035687D01*
X183171216Y-50035313D01*
X182774311Y-50199311D01*
X182470378Y-50502714D01*
X182305687Y-50899332D01*
X182305313Y-51328784D01*
X156239597Y-51328784D01*
X156239687Y-51226216D01*
X156075689Y-50829311D01*
X155772286Y-50525378D01*
X155375668Y-50360687D01*
X154946216Y-50360313D01*
X154549311Y-50524311D01*
X154245378Y-50827714D01*
X154080687Y-51224332D01*
X154080313Y-51653784D01*
X118374207Y-51653784D01*
X118267670Y-51118190D01*
X117909778Y-50582567D01*
X117374155Y-50224675D01*
X116742345Y-50099000D01*
X116677655Y-50099000D01*
X116045845Y-50224675D01*
X115510222Y-50582567D01*
X115152330Y-51118190D01*
X115026655Y-51750000D01*
X113210000Y-51750000D01*
X113210000Y-49423784D01*
X123885313Y-49423784D01*
X124049311Y-49820689D01*
X124073356Y-49844776D01*
X124050378Y-49867714D01*
X123885687Y-50264332D01*
X123885313Y-50693784D01*
X124049311Y-51090689D01*
X124352714Y-51394622D01*
X124749332Y-51559313D01*
X125178784Y-51559687D01*
X125575689Y-51395689D01*
X125599776Y-51371644D01*
X125622714Y-51394622D01*
X126019332Y-51559313D01*
X126448784Y-51559687D01*
X126845689Y-51395689D01*
X126869776Y-51371644D01*
X126892714Y-51394622D01*
X127289332Y-51559313D01*
X127718784Y-51559687D01*
X128115689Y-51395689D01*
X128419622Y-51092286D01*
X128584313Y-50695668D01*
X128584687Y-50266216D01*
X128420689Y-49869311D01*
X128396644Y-49845224D01*
X128419622Y-49822286D01*
X128584313Y-49425668D01*
X128584687Y-48996216D01*
X128420689Y-48599311D01*
X128117286Y-48295378D01*
X127776292Y-48153784D01*
X175320313Y-48153784D01*
X175484311Y-48550689D01*
X175787714Y-48854622D01*
X176184332Y-49019313D01*
X176613784Y-49019687D01*
X177010689Y-48855689D01*
X177314622Y-48552286D01*
X177479313Y-48155668D01*
X177479687Y-47726216D01*
X177315689Y-47329311D01*
X177012286Y-47025378D01*
X176615668Y-46860687D01*
X176186216Y-46860313D01*
X175789311Y-47024311D01*
X175485378Y-47327714D01*
X175320687Y-47724332D01*
X175320313Y-48153784D01*
X127776292Y-48153784D01*
X127720668Y-48130687D01*
X127291216Y-48130313D01*
X126894311Y-48294311D01*
X126870224Y-48318356D01*
X126847286Y-48295378D01*
X126450668Y-48130687D01*
X126021216Y-48130313D01*
X125624311Y-48294311D01*
X125600224Y-48318356D01*
X125577286Y-48295378D01*
X125180668Y-48130687D01*
X124751216Y-48130313D01*
X124354311Y-48294311D01*
X124050378Y-48597714D01*
X123885687Y-48994332D01*
X123885313Y-49423784D01*
X113210000Y-49423784D01*
X113210000Y-44357904D01*
X113264853Y-44490658D01*
X114005443Y-45232542D01*
X114973567Y-45634542D01*
X116021834Y-45635457D01*
X116990658Y-45235147D01*
X117732542Y-44494557D01*
X118134542Y-43526433D01*
X118135457Y-42478166D01*
X117735147Y-41509342D01*
X116994557Y-40767458D01*
X116856183Y-40710000D01*
X140142096Y-40710000D01*
X140009342Y-40764853D01*
X140009342Y-40764853D01*
G37*
X140009342Y-40764853D02*
X139267458Y-41505443D01*
X138865458Y-42473567D01*
X138864543Y-43521834D01*
X139264853Y-44490658D01*
X140005443Y-45232542D01*
X140973567Y-45634542D01*
X142021834Y-45635457D01*
X142990658Y-45235147D01*
X143732542Y-44494557D01*
X144057785Y-43711284D01*
X159575313Y-43711284D01*
X159739311Y-44108189D01*
X159763356Y-44132276D01*
X159740378Y-44155214D01*
X159575687Y-44551832D01*
X159575313Y-44981284D01*
X159739311Y-45378189D01*
X160042714Y-45682122D01*
X160439332Y-45846813D01*
X160718554Y-45847056D01*
X160718313Y-46124284D01*
X160882311Y-46521189D01*
X161185714Y-46825122D01*
X161582332Y-46989813D01*
X162011784Y-46990187D01*
X162408689Y-46826189D01*
X162432776Y-46802144D01*
X162455714Y-46825122D01*
X162852332Y-46989813D01*
X163281784Y-46990187D01*
X163678689Y-46826189D01*
X163982622Y-46522786D01*
X164147313Y-46126168D01*
X164147558Y-45844338D01*
X164548784Y-45844687D01*
X164945689Y-45680689D01*
X165249622Y-45377286D01*
X165414313Y-44980668D01*
X165414687Y-44551216D01*
X165250689Y-44154311D01*
X165226644Y-44130224D01*
X165249622Y-44107286D01*
X165414313Y-43710668D01*
X165414687Y-43281216D01*
X165250689Y-42884311D01*
X164947286Y-42580378D01*
X164550668Y-42415687D01*
X164121216Y-42415313D01*
X163724311Y-42579311D01*
X163700477Y-42603104D01*
X163680286Y-42582878D01*
X163283668Y-42418187D01*
X162854216Y-42417813D01*
X162457311Y-42581811D01*
X162433224Y-42605856D01*
X162410286Y-42582878D01*
X162013668Y-42418187D01*
X161584216Y-42417813D01*
X161226109Y-42565780D01*
X160870668Y-42418187D01*
X160441216Y-42417813D01*
X160044311Y-42581811D01*
X159740378Y-42885214D01*
X159575687Y-43281832D01*
X159575313Y-43711284D01*
X144057785Y-43711284D01*
X144134542Y-43526433D01*
X144135457Y-42478166D01*
X143735147Y-41509342D01*
X142994557Y-40767458D01*
X142856183Y-40710000D01*
X182142096Y-40710000D01*
X182009342Y-40764853D01*
X181267458Y-41505443D01*
X180865458Y-42473567D01*
X180864543Y-43521834D01*
X181264853Y-44490658D01*
X182005443Y-45232542D01*
X182973567Y-45634542D01*
X184021834Y-45635457D01*
X184990658Y-45235147D01*
X185732542Y-44494557D01*
X186134542Y-43526433D01*
X186134870Y-43150641D01*
X193446400Y-43150641D01*
X193446400Y-43209359D01*
X193560474Y-43782848D01*
X193885330Y-44269029D01*
X194371511Y-44593885D01*
X194945000Y-44707959D01*
X195518489Y-44593885D01*
X196004670Y-44269029D01*
X196215000Y-43954248D01*
X196425330Y-44269029D01*
X196696172Y-44450000D01*
X196425330Y-44630971D01*
X196100474Y-45117152D01*
X195986400Y-45690641D01*
X195986400Y-45749359D01*
X196100474Y-46322848D01*
X196425330Y-46809029D01*
X196911511Y-47133885D01*
X197485000Y-47247959D01*
X198058489Y-47133885D01*
X198544670Y-46809029D01*
X198755000Y-46494248D01*
X198965330Y-46809029D01*
X199451511Y-47133885D01*
X200025000Y-47247959D01*
X200598489Y-47133885D01*
X201084670Y-46809029D01*
X201295000Y-46494248D01*
X201505330Y-46809029D01*
X201991511Y-47133885D01*
X202565000Y-47247959D01*
X203138489Y-47133885D01*
X203624670Y-46809029D01*
X203949526Y-46322848D01*
X204063600Y-45749359D01*
X204063600Y-45690641D01*
X203949526Y-45117152D01*
X203624670Y-44630971D01*
X203353828Y-44450000D01*
X203624670Y-44269029D01*
X203949526Y-43782848D01*
X204063600Y-43209359D01*
X204063600Y-43150641D01*
X203949526Y-42577152D01*
X203624670Y-42090971D01*
X203138489Y-41766115D01*
X202565000Y-41652041D01*
X201991511Y-41766115D01*
X201505330Y-42090971D01*
X201295000Y-42405752D01*
X201084670Y-42090971D01*
X200598489Y-41766115D01*
X200025000Y-41652041D01*
X199451511Y-41766115D01*
X198965330Y-42090971D01*
X198755000Y-42405752D01*
X198544670Y-42090971D01*
X198058489Y-41766115D01*
X197485000Y-41652041D01*
X196911511Y-41766115D01*
X196425330Y-42090971D01*
X196215000Y-42405752D01*
X196004670Y-42090971D01*
X195518489Y-41766115D01*
X194945000Y-41652041D01*
X194371511Y-41766115D01*
X193885330Y-42090971D01*
X193560474Y-42577152D01*
X193446400Y-43150641D01*
X186134870Y-43150641D01*
X186135457Y-42478166D01*
X185735147Y-41509342D01*
X184994557Y-40767458D01*
X184856183Y-40710000D01*
X208142096Y-40710000D01*
X208009342Y-40764853D01*
X207267458Y-41505443D01*
X206865458Y-42473567D01*
X206864543Y-43521834D01*
X207264853Y-44490658D01*
X208005443Y-45232542D01*
X208973567Y-45634542D01*
X210021834Y-45635457D01*
X210990658Y-45235147D01*
X211732542Y-44494557D01*
X211790000Y-44356183D01*
X211790000Y-135642096D01*
X211735147Y-135509342D01*
X210994557Y-134767458D01*
X210026433Y-134365458D01*
X208978166Y-134364543D01*
X208009342Y-134764853D01*
X207267458Y-135505443D01*
X206865458Y-136473567D01*
X206864543Y-137521834D01*
X207264853Y-138490658D01*
X208005443Y-139232542D01*
X208143817Y-139290000D01*
X184857904Y-139290000D01*
X184990658Y-139235147D01*
X185732542Y-138494557D01*
X186134542Y-137526433D01*
X186135457Y-136478166D01*
X185735147Y-135509342D01*
X184994557Y-134767458D01*
X184026433Y-134365458D01*
X182978166Y-134364543D01*
X182009342Y-134764853D01*
X181267458Y-135505443D01*
X180865458Y-136473567D01*
X180864543Y-137521834D01*
X181264853Y-138490658D01*
X182005443Y-139232542D01*
X182143817Y-139290000D01*
X142857904Y-139290000D01*
X142990658Y-139235147D01*
X143732542Y-138494557D01*
X144134542Y-137526433D01*
X144135229Y-136738784D01*
X162115313Y-136738784D01*
X162279311Y-137135689D01*
X162582714Y-137439622D01*
X162979332Y-137604313D01*
X163408784Y-137604687D01*
X163805689Y-137440689D01*
X164109622Y-137137286D01*
X164274313Y-136740668D01*
X164274314Y-136738784D01*
X165925313Y-136738784D01*
X166089311Y-137135689D01*
X166392714Y-137439622D01*
X166789332Y-137604313D01*
X167218784Y-137604687D01*
X167615689Y-137440689D01*
X167919622Y-137137286D01*
X168084313Y-136740668D01*
X168084314Y-136738784D01*
X169735313Y-136738784D01*
X169899311Y-137135689D01*
X170202714Y-137439622D01*
X170599332Y-137604313D01*
X171028784Y-137604687D01*
X171425689Y-137440689D01*
X171729622Y-137137286D01*
X171894313Y-136740668D01*
X171894687Y-136311216D01*
X171730689Y-135914311D01*
X171427286Y-135610378D01*
X171030668Y-135445687D01*
X170601216Y-135445313D01*
X170204311Y-135609311D01*
X169900378Y-135912714D01*
X169735687Y-136309332D01*
X169735313Y-136738784D01*
X168084314Y-136738784D01*
X168084687Y-136311216D01*
X167920689Y-135914311D01*
X167617286Y-135610378D01*
X167220668Y-135445687D01*
X166791216Y-135445313D01*
X166394311Y-135609311D01*
X166090378Y-135912714D01*
X165925687Y-136309332D01*
X165925313Y-136738784D01*
X164274314Y-136738784D01*
X164274687Y-136311216D01*
X164110689Y-135914311D01*
X163807286Y-135610378D01*
X163410668Y-135445687D01*
X162981216Y-135445313D01*
X162584311Y-135609311D01*
X162280378Y-135912714D01*
X162115687Y-136309332D01*
X162115313Y-136738784D01*
X144135229Y-136738784D01*
X144135457Y-136478166D01*
X143735147Y-135509342D01*
X142994557Y-134767458D01*
X142026433Y-134365458D01*
X140978166Y-134364543D01*
X140009342Y-134764853D01*
X139267458Y-135505443D01*
X138865458Y-136473567D01*
X138864543Y-137521834D01*
X139264853Y-138490658D01*
X140005443Y-139232542D01*
X140143817Y-139290000D01*
X116857904Y-139290000D01*
X116990658Y-139235147D01*
X117732542Y-138494557D01*
X118134542Y-137526433D01*
X118135457Y-136478166D01*
X117735147Y-135509342D01*
X116994557Y-134767458D01*
X116026433Y-134365458D01*
X114978166Y-134364543D01*
X114009342Y-134764853D01*
X113267458Y-135505443D01*
X113210000Y-135643817D01*
X113210000Y-132293784D01*
X171640313Y-132293784D01*
X171804311Y-132690689D01*
X172107714Y-132994622D01*
X172504332Y-133159313D01*
X172933784Y-133159687D01*
X173330689Y-132995689D01*
X173634622Y-132692286D01*
X173799313Y-132295668D01*
X173799314Y-132293784D01*
X174180313Y-132293784D01*
X174344311Y-132690689D01*
X174647714Y-132994622D01*
X175044332Y-133159313D01*
X175473784Y-133159687D01*
X175870689Y-132995689D01*
X176174622Y-132692286D01*
X176339313Y-132295668D01*
X176339687Y-131866216D01*
X176175689Y-131469311D01*
X175872286Y-131165378D01*
X175475668Y-131000687D01*
X175046216Y-131000313D01*
X174649311Y-131164311D01*
X174345378Y-131467714D01*
X174180687Y-131864332D01*
X174180313Y-132293784D01*
X173799314Y-132293784D01*
X173799687Y-131866216D01*
X173635689Y-131469311D01*
X173332286Y-131165378D01*
X172935668Y-131000687D01*
X172506216Y-131000313D01*
X172109311Y-131164311D01*
X171805378Y-131467714D01*
X171640687Y-131864332D01*
X171640313Y-132293784D01*
X113210000Y-132293784D01*
X113210000Y-129753784D01*
X162115313Y-129753784D01*
X162279311Y-130150689D01*
X162582714Y-130454622D01*
X162979332Y-130619313D01*
X163408784Y-130619687D01*
X163805689Y-130455689D01*
X164109622Y-130152286D01*
X164274313Y-129755668D01*
X164274314Y-129753784D01*
X165925313Y-129753784D01*
X166089311Y-130150689D01*
X166392714Y-130454622D01*
X166789332Y-130619313D01*
X167218784Y-130619687D01*
X167615689Y-130455689D01*
X167919622Y-130152286D01*
X168084313Y-129755668D01*
X168084687Y-129326216D01*
X167920689Y-128929311D01*
X167790390Y-128798784D01*
X175320313Y-128798784D01*
X175484311Y-129195689D01*
X175787714Y-129499622D01*
X176184332Y-129664313D01*
X176613784Y-129664687D01*
X177010689Y-129500689D01*
X177314622Y-129197286D01*
X177479313Y-128800668D01*
X177479687Y-128371216D01*
X177315689Y-127974311D01*
X177012286Y-127670378D01*
X176615668Y-127505687D01*
X176186216Y-127505313D01*
X175789311Y-127669311D01*
X175485378Y-127972714D01*
X175320687Y-128369332D01*
X175320313Y-128798784D01*
X167790390Y-128798784D01*
X167617286Y-128625378D01*
X167220668Y-128460687D01*
X166791216Y-128460313D01*
X166394311Y-128624311D01*
X166090378Y-128927714D01*
X165925687Y-129324332D01*
X165925313Y-129753784D01*
X164274314Y-129753784D01*
X164274687Y-129326216D01*
X164110689Y-128929311D01*
X163807286Y-128625378D01*
X163410668Y-128460687D01*
X162981216Y-128460313D01*
X162584311Y-128624311D01*
X162280378Y-128927714D01*
X162115687Y-129324332D01*
X162115313Y-129753784D01*
X113210000Y-129753784D01*
X113210000Y-123083784D01*
X182305313Y-123083784D01*
X182469311Y-123480689D01*
X182772714Y-123784622D01*
X183169332Y-123949313D01*
X183598784Y-123949687D01*
X183995689Y-123785689D01*
X184276868Y-123505000D01*
X207101655Y-123505000D01*
X207215729Y-124078489D01*
X207540585Y-124564670D01*
X207855366Y-124775000D01*
X207540585Y-124985330D01*
X207215729Y-125471511D01*
X207101655Y-126045000D01*
X207215729Y-126618489D01*
X207540585Y-127104670D01*
X208026766Y-127429526D01*
X208600255Y-127543600D01*
X208969745Y-127543600D01*
X209543234Y-127429526D01*
X210029415Y-127104670D01*
X210354271Y-126618489D01*
X210468345Y-126045000D01*
X210354271Y-125471511D01*
X210029415Y-124985330D01*
X209714634Y-124775000D01*
X210029415Y-124564670D01*
X210354271Y-124078489D01*
X210468345Y-123505000D01*
X210354271Y-122931511D01*
X210029415Y-122445330D01*
X209543234Y-122120474D01*
X208969745Y-122006400D01*
X208600255Y-122006400D01*
X208026766Y-122120474D01*
X207540585Y-122445330D01*
X207215729Y-122931511D01*
X207101655Y-123505000D01*
X184276868Y-123505000D01*
X184299622Y-123482286D01*
X184464313Y-123085668D01*
X184464687Y-122656216D01*
X184300689Y-122259311D01*
X183997286Y-121955378D01*
X183600668Y-121790687D01*
X183171216Y-121790313D01*
X182774311Y-121954311D01*
X182470378Y-122257714D01*
X182305687Y-122654332D01*
X182305313Y-123083784D01*
X113210000Y-123083784D01*
X113210000Y-121178784D01*
X154365313Y-121178784D01*
X154529311Y-121575689D01*
X154832714Y-121879622D01*
X155229332Y-122044313D01*
X155658784Y-122044687D01*
X156055689Y-121880689D01*
X156359622Y-121577286D01*
X156524313Y-121180668D01*
X156524314Y-121178784D01*
X176590313Y-121178784D01*
X176754311Y-121575689D01*
X177057714Y-121879622D01*
X177454332Y-122044313D01*
X177883784Y-122044687D01*
X178280689Y-121880689D01*
X178584622Y-121577286D01*
X178749313Y-121180668D01*
X178749687Y-120751216D01*
X178585689Y-120354311D01*
X178282286Y-120050378D01*
X177885668Y-119885687D01*
X177456216Y-119885313D01*
X177059311Y-120049311D01*
X176755378Y-120352714D01*
X176590687Y-120749332D01*
X176590313Y-121178784D01*
X156524314Y-121178784D01*
X156524687Y-120751216D01*
X156360689Y-120354311D01*
X156057286Y-120050378D01*
X155660668Y-119885687D01*
X155231216Y-119885313D01*
X154834311Y-120049311D01*
X154530378Y-120352714D01*
X154365687Y-120749332D01*
X154365313Y-121178784D01*
X113210000Y-121178784D01*
X113210000Y-119593784D01*
X157035313Y-119593784D01*
X157199311Y-119990689D01*
X157502714Y-120294622D01*
X157899332Y-120459313D01*
X158328784Y-120459687D01*
X158725689Y-120295689D01*
X159029622Y-119992286D01*
X159194313Y-119595668D01*
X159194687Y-119166216D01*
X159030689Y-118769311D01*
X158727286Y-118465378D01*
X158330668Y-118300687D01*
X157901216Y-118300313D01*
X157504311Y-118464311D01*
X157200378Y-118767714D01*
X157035687Y-119164332D01*
X157035313Y-119593784D01*
X113210000Y-119593784D01*
X113210000Y-114193784D01*
X175320313Y-114193784D01*
X175484311Y-114590689D01*
X175787714Y-114894622D01*
X176184332Y-115059313D01*
X176613784Y-115059687D01*
X177010689Y-114895689D01*
X177314622Y-114592286D01*
X177479313Y-114195668D01*
X177479687Y-113766216D01*
X177315689Y-113369311D01*
X177012286Y-113065378D01*
X176615668Y-112900687D01*
X176186216Y-112900313D01*
X175789311Y-113064311D01*
X175485378Y-113367714D01*
X175320687Y-113764332D01*
X175320313Y-114193784D01*
X113210000Y-114193784D01*
X113210000Y-93660000D01*
X115182041Y-93660000D01*
X115296115Y-94233489D01*
X115620971Y-94719670D01*
X115935752Y-94930000D01*
X115620971Y-95140330D01*
X115296115Y-95626511D01*
X115182041Y-96200000D01*
X115296115Y-96773489D01*
X115620971Y-97259670D01*
X115935752Y-97470000D01*
X115620971Y-97680330D01*
X115296115Y-98166511D01*
X115182041Y-98740000D01*
X115296115Y-99313489D01*
X115620971Y-99799670D01*
X115935752Y-100010000D01*
X115620971Y-100220330D01*
X115296115Y-100706511D01*
X115182041Y-101280000D01*
X115296115Y-101853489D01*
X115620971Y-102339670D01*
X115935752Y-102550000D01*
X115620971Y-102760330D01*
X115296115Y-103246511D01*
X115182041Y-103820000D01*
X115296115Y-104393489D01*
X115620971Y-104879670D01*
X115935752Y-105090000D01*
X115620971Y-105300330D01*
X115296115Y-105786511D01*
X115182041Y-106360000D01*
X115296115Y-106933489D01*
X115620971Y-107419670D01*
X115935752Y-107630000D01*
X115620971Y-107840330D01*
X115296115Y-108326511D01*
X115182041Y-108900000D01*
X115296115Y-109473489D01*
X115620971Y-109959670D01*
X115935752Y-110170000D01*
X115620971Y-110380330D01*
X115296115Y-110866511D01*
X115182041Y-111440000D01*
X115296115Y-112013489D01*
X115620971Y-112499670D01*
X116107152Y-112824526D01*
X116680641Y-112938600D01*
X116739359Y-112938600D01*
X117312848Y-112824526D01*
X117799029Y-112499670D01*
X117980000Y-112228828D01*
X118160971Y-112499670D01*
X118647152Y-112824526D01*
X119220641Y-112938600D01*
X119279359Y-112938600D01*
X119852848Y-112824526D01*
X120339029Y-112499670D01*
X120663885Y-112013489D01*
X120684911Y-111907784D01*
X131378313Y-111907784D01*
X131542311Y-112304689D01*
X131845714Y-112608622D01*
X132242332Y-112773313D01*
X132671784Y-112773687D01*
X133068689Y-112609689D01*
X133372622Y-112306286D01*
X133537313Y-111909668D01*
X133537687Y-111480216D01*
X133373689Y-111083311D01*
X133070286Y-110779378D01*
X132673668Y-110614687D01*
X132244216Y-110614313D01*
X131847311Y-110778311D01*
X131543378Y-111081714D01*
X131378687Y-111478332D01*
X131378313Y-111907784D01*
X120684911Y-111907784D01*
X120777959Y-111440000D01*
X120663885Y-110866511D01*
X120339029Y-110380330D01*
X120024248Y-110170000D01*
X120339029Y-109959670D01*
X120663885Y-109473489D01*
X120777959Y-108900000D01*
X120663885Y-108326511D01*
X120555155Y-108163784D01*
X160845313Y-108163784D01*
X161009311Y-108560689D01*
X161312714Y-108864622D01*
X161709332Y-109029313D01*
X162138784Y-109029687D01*
X162535689Y-108865689D01*
X162839622Y-108562286D01*
X162932312Y-108339064D01*
X168335331Y-108339064D01*
X168499329Y-108735969D01*
X168802732Y-109039902D01*
X169199350Y-109204593D01*
X169628802Y-109204967D01*
X170025707Y-109040969D01*
X170329640Y-108737566D01*
X170494331Y-108340948D01*
X170494340Y-108330889D01*
X170707700Y-108544622D01*
X171104318Y-108709313D01*
X171533770Y-108709687D01*
X171930675Y-108545689D01*
X171997696Y-108478784D01*
X174685313Y-108478784D01*
X174849311Y-108875689D01*
X175152714Y-109179622D01*
X175549332Y-109344313D01*
X175978784Y-109344687D01*
X176375689Y-109180689D01*
X176442710Y-109113784D01*
X182305313Y-109113784D01*
X182469311Y-109510689D01*
X182772714Y-109814622D01*
X183169332Y-109979313D01*
X183598784Y-109979687D01*
X183995689Y-109815689D01*
X184276868Y-109535000D01*
X207101655Y-109535000D01*
X207215729Y-110108489D01*
X207540585Y-110594670D01*
X207855366Y-110805000D01*
X207540585Y-111015330D01*
X207215729Y-111501511D01*
X207101655Y-112075000D01*
X207215729Y-112648489D01*
X207540585Y-113134670D01*
X208026766Y-113459526D01*
X208600255Y-113573600D01*
X208969745Y-113573600D01*
X209543234Y-113459526D01*
X210029415Y-113134670D01*
X210354271Y-112648489D01*
X210468345Y-112075000D01*
X210354271Y-111501511D01*
X210029415Y-111015330D01*
X209714634Y-110805000D01*
X210029415Y-110594670D01*
X210354271Y-110108489D01*
X210468345Y-109535000D01*
X210354271Y-108961511D01*
X210029415Y-108475330D01*
X209543234Y-108150474D01*
X208969745Y-108036400D01*
X208600255Y-108036400D01*
X208026766Y-108150474D01*
X207540585Y-108475330D01*
X207215729Y-108961511D01*
X207101655Y-109535000D01*
X184276868Y-109535000D01*
X184299622Y-109512286D01*
X184464313Y-109115668D01*
X184464687Y-108686216D01*
X184300689Y-108289311D01*
X183997286Y-107985378D01*
X183600668Y-107820687D01*
X183171216Y-107820313D01*
X182774311Y-107984311D01*
X182470378Y-108287714D01*
X182305687Y-108684332D01*
X182305313Y-109113784D01*
X176442710Y-109113784D01*
X176679622Y-108877286D01*
X176844313Y-108480668D01*
X176844687Y-108051216D01*
X176680689Y-107654311D01*
X176377286Y-107350378D01*
X175980668Y-107185687D01*
X175551216Y-107185313D01*
X175154311Y-107349311D01*
X174850378Y-107652714D01*
X174685687Y-108049332D01*
X174685313Y-108478784D01*
X171997696Y-108478784D01*
X172234608Y-108242286D01*
X172399299Y-107845668D01*
X172399673Y-107416216D01*
X172235675Y-107019311D01*
X171932272Y-106715378D01*
X171535654Y-106550687D01*
X171106202Y-106550313D01*
X170709297Y-106714311D01*
X170405364Y-107017714D01*
X170240673Y-107414332D01*
X170240664Y-107424391D01*
X170027304Y-107210658D01*
X169630686Y-107045967D01*
X169201234Y-107045593D01*
X168804329Y-107209591D01*
X168500396Y-107512994D01*
X168335705Y-107909612D01*
X168335331Y-108339064D01*
X162932312Y-108339064D01*
X163004313Y-108165668D01*
X163004687Y-107736216D01*
X162840689Y-107339311D01*
X162537286Y-107035378D01*
X162140668Y-106870687D01*
X161711216Y-106870313D01*
X161314311Y-107034311D01*
X161010378Y-107337714D01*
X160845687Y-107734332D01*
X160845313Y-108163784D01*
X120555155Y-108163784D01*
X120339029Y-107840330D01*
X120024248Y-107630000D01*
X120339029Y-107419670D01*
X120663885Y-106933489D01*
X120777959Y-106360000D01*
X120663885Y-105786511D01*
X120339029Y-105300330D01*
X120024248Y-105090000D01*
X120339029Y-104879670D01*
X120663885Y-104393489D01*
X120777959Y-103820000D01*
X120719436Y-103525784D01*
X125536313Y-103525784D01*
X125700311Y-103922689D01*
X126003714Y-104226622D01*
X126400332Y-104391313D01*
X126829784Y-104391687D01*
X127081223Y-104287794D01*
X127273714Y-104480622D01*
X127670332Y-104645313D01*
X128099784Y-104645687D01*
X128496689Y-104481689D01*
X128800622Y-104178286D01*
X128876436Y-103995706D01*
X130032939Y-103995706D01*
X130196937Y-104392611D01*
X130500340Y-104696544D01*
X130896958Y-104861235D01*
X131326410Y-104861609D01*
X131451969Y-104809729D01*
X131592547Y-104950553D01*
X131989165Y-105115244D01*
X132327136Y-105115538D01*
X132595087Y-105383957D01*
X132991705Y-105548648D01*
X133421157Y-105549022D01*
X133818062Y-105385024D01*
X134121995Y-105081621D01*
X134286686Y-104685003D01*
X134287060Y-104255551D01*
X134195428Y-104033784D01*
X142084455Y-104033784D01*
X142248453Y-104430689D01*
X142551856Y-104734622D01*
X142948474Y-104899313D01*
X143377926Y-104899687D01*
X143774831Y-104735689D01*
X144078764Y-104432286D01*
X144243455Y-104035668D01*
X144243829Y-103606216D01*
X144079831Y-103209311D01*
X143776428Y-102905378D01*
X143379810Y-102740687D01*
X142950358Y-102740313D01*
X142553453Y-102904311D01*
X142249520Y-103207714D01*
X142084829Y-103604332D01*
X142084455Y-104033784D01*
X134195428Y-104033784D01*
X134123062Y-103858646D01*
X133819659Y-103554713D01*
X133423041Y-103390022D01*
X133085070Y-103389728D01*
X132817119Y-103121309D01*
X132420501Y-102956618D01*
X131991049Y-102956244D01*
X131865490Y-103008124D01*
X131724912Y-102867300D01*
X131328294Y-102702609D01*
X130898842Y-102702235D01*
X130501937Y-102866233D01*
X130198004Y-103169636D01*
X130033313Y-103566254D01*
X130032939Y-103995706D01*
X128876436Y-103995706D01*
X128965313Y-103781668D01*
X128965687Y-103352216D01*
X128801689Y-102955311D01*
X128498286Y-102651378D01*
X128101668Y-102486687D01*
X127672216Y-102486313D01*
X127420777Y-102590206D01*
X127228286Y-102397378D01*
X126831668Y-102232687D01*
X126402216Y-102232313D01*
X126005311Y-102396311D01*
X125701378Y-102699714D01*
X125536687Y-103096332D01*
X125536313Y-103525784D01*
X120719436Y-103525784D01*
X120663885Y-103246511D01*
X120339029Y-102760330D01*
X120024248Y-102550000D01*
X120339029Y-102339670D01*
X120663885Y-101853489D01*
X120777959Y-101280000D01*
X120663885Y-100706511D01*
X120339029Y-100220330D01*
X120024248Y-100010000D01*
X120084444Y-99969778D01*
X127568313Y-99969778D01*
X127732311Y-100366683D01*
X127938739Y-100573472D01*
X127821008Y-100856999D01*
X127820634Y-101286451D01*
X127984632Y-101683356D01*
X128288035Y-101987289D01*
X128684653Y-102151980D01*
X129114105Y-102152354D01*
X129511010Y-101988356D01*
X129706395Y-101793311D01*
X145869840Y-101793311D01*
X146033838Y-102190216D01*
X146337241Y-102494149D01*
X146733859Y-102658840D01*
X147163311Y-102659214D01*
X147560216Y-102495216D01*
X147864149Y-102191813D01*
X148028840Y-101795195D01*
X148029214Y-101365743D01*
X147915105Y-101089579D01*
X148038794Y-101089687D01*
X148435699Y-100925689D01*
X148739632Y-100622286D01*
X148819668Y-100429538D01*
X148879332Y-100454313D01*
X149308784Y-100454687D01*
X149705689Y-100290689D01*
X150009622Y-99987286D01*
X150121321Y-99718284D01*
X150494809Y-99718284D01*
X150658807Y-100115189D01*
X150962210Y-100419122D01*
X151358828Y-100583813D01*
X151788280Y-100584187D01*
X152185185Y-100420189D01*
X152489118Y-100116786D01*
X152653809Y-99720168D01*
X152654183Y-99290716D01*
X152490185Y-98893811D01*
X152186782Y-98589878D01*
X151790164Y-98425187D01*
X151360712Y-98424813D01*
X150963807Y-98588811D01*
X150659874Y-98892214D01*
X150495183Y-99288832D01*
X150494809Y-99718284D01*
X150121321Y-99718284D01*
X150174313Y-99590668D01*
X150174687Y-99161216D01*
X150010689Y-98764311D01*
X149707286Y-98460378D01*
X149310668Y-98295687D01*
X148881216Y-98295313D01*
X148484311Y-98459311D01*
X148180378Y-98762714D01*
X148100342Y-98955462D01*
X148040678Y-98930687D01*
X147611226Y-98930313D01*
X147214321Y-99094311D01*
X146910388Y-99397714D01*
X146745697Y-99794332D01*
X146745323Y-100223784D01*
X146859432Y-100499948D01*
X146735743Y-100499840D01*
X146338838Y-100663838D01*
X146034905Y-100967241D01*
X145870214Y-101363859D01*
X145869840Y-101793311D01*
X129706395Y-101793311D01*
X129814943Y-101684953D01*
X129979634Y-101288335D01*
X129979703Y-101208952D01*
X130153288Y-101382840D01*
X130549906Y-101547531D01*
X130979358Y-101547905D01*
X131376263Y-101383907D01*
X131680196Y-101080504D01*
X131844887Y-100683886D01*
X131845261Y-100254434D01*
X131681263Y-99857529D01*
X131377860Y-99553596D01*
X130981242Y-99388905D01*
X130619763Y-99388590D01*
X130352440Y-99120800D01*
X130316557Y-99105900D01*
X130578628Y-98844286D01*
X130611225Y-98765784D01*
X138175813Y-98765784D01*
X138339811Y-99162689D01*
X138643214Y-99466622D01*
X139039832Y-99631313D01*
X139469284Y-99631687D01*
X139866189Y-99467689D01*
X140170122Y-99164286D01*
X140334813Y-98767668D01*
X140335187Y-98338216D01*
X140171189Y-97941311D01*
X140144494Y-97914570D01*
X140279064Y-97914687D01*
X140675969Y-97750689D01*
X140979902Y-97447286D01*
X141144593Y-97050668D01*
X141144967Y-96621216D01*
X140980969Y-96224311D01*
X140677566Y-95920378D01*
X140336533Y-95778768D01*
X141030313Y-95778768D01*
X141194311Y-96175673D01*
X141497714Y-96479606D01*
X141894332Y-96644297D01*
X142183635Y-96644549D01*
X141970098Y-96857714D01*
X141805407Y-97254332D01*
X141805033Y-97683784D01*
X141969031Y-98080689D01*
X142272434Y-98384622D01*
X142669052Y-98549313D01*
X143098504Y-98549687D01*
X143495409Y-98385689D01*
X143799342Y-98082286D01*
X143964033Y-97685668D01*
X143964034Y-97683784D01*
X149285323Y-97683784D01*
X149449321Y-98080689D01*
X149752724Y-98384622D01*
X150149342Y-98549313D01*
X150578794Y-98549687D01*
X150975699Y-98385689D01*
X151279632Y-98082286D01*
X151444323Y-97685668D01*
X151444697Y-97256216D01*
X151280699Y-96859311D01*
X150977296Y-96555378D01*
X150636302Y-96413784D01*
X158810313Y-96413784D01*
X158974311Y-96810689D01*
X159277714Y-97114622D01*
X159674332Y-97279313D01*
X160103784Y-97279687D01*
X160500689Y-97115689D01*
X160804622Y-96812286D01*
X160969313Y-96415668D01*
X160969687Y-95986216D01*
X160805689Y-95589311D01*
X160502286Y-95285378D01*
X160161292Y-95143784D01*
X182305313Y-95143784D01*
X182469311Y-95540689D01*
X182772714Y-95844622D01*
X183169332Y-96009313D01*
X183598784Y-96009687D01*
X183995689Y-95845689D01*
X184276868Y-95565000D01*
X207101655Y-95565000D01*
X207215729Y-96138489D01*
X207540585Y-96624670D01*
X207855366Y-96835000D01*
X207540585Y-97045330D01*
X207215729Y-97531511D01*
X207101655Y-98105000D01*
X207215729Y-98678489D01*
X207540585Y-99164670D01*
X208026766Y-99489526D01*
X208600255Y-99603600D01*
X208969745Y-99603600D01*
X209543234Y-99489526D01*
X210029415Y-99164670D01*
X210354271Y-98678489D01*
X210468345Y-98105000D01*
X210354271Y-97531511D01*
X210029415Y-97045330D01*
X209714634Y-96835000D01*
X210029415Y-96624670D01*
X210354271Y-96138489D01*
X210468345Y-95565000D01*
X210354271Y-94991511D01*
X210029415Y-94505330D01*
X209543234Y-94180474D01*
X208969745Y-94066400D01*
X208600255Y-94066400D01*
X208026766Y-94180474D01*
X207540585Y-94505330D01*
X207215729Y-94991511D01*
X207101655Y-95565000D01*
X184276868Y-95565000D01*
X184299622Y-95542286D01*
X184464313Y-95145668D01*
X184464687Y-94716216D01*
X184300689Y-94319311D01*
X183997286Y-94015378D01*
X183600668Y-93850687D01*
X183171216Y-93850313D01*
X182774311Y-94014311D01*
X182470378Y-94317714D01*
X182305687Y-94714332D01*
X182305313Y-95143784D01*
X160161292Y-95143784D01*
X160105668Y-95120687D01*
X159676216Y-95120313D01*
X159279311Y-95284311D01*
X158975378Y-95587714D01*
X158810687Y-95984332D01*
X158810313Y-96413784D01*
X150636302Y-96413784D01*
X150580678Y-96390687D01*
X150151226Y-96390313D01*
X149754321Y-96554311D01*
X149450388Y-96857714D01*
X149285697Y-97254332D01*
X149285323Y-97683784D01*
X143964034Y-97683784D01*
X143964407Y-97256216D01*
X143800409Y-96859311D01*
X143497006Y-96555378D01*
X143100388Y-96390687D01*
X142811085Y-96390435D01*
X143024622Y-96177270D01*
X143189313Y-95780652D01*
X143189641Y-95403784D01*
X153000313Y-95403784D01*
X153164311Y-95800689D01*
X153467714Y-96104622D01*
X153864332Y-96269313D01*
X154293784Y-96269687D01*
X154690689Y-96105689D01*
X154994622Y-95802286D01*
X155159313Y-95405668D01*
X155159687Y-94976216D01*
X155107393Y-94849655D01*
X155143782Y-94849687D01*
X155540687Y-94685689D01*
X155844620Y-94382286D01*
X156009311Y-93985668D01*
X156009685Y-93556216D01*
X155845687Y-93159311D01*
X155542284Y-92855378D01*
X155145666Y-92690687D01*
X154716214Y-92690313D01*
X154319309Y-92854311D01*
X154015376Y-93157714D01*
X153850685Y-93554332D01*
X153850311Y-93983784D01*
X153902605Y-94110345D01*
X153866216Y-94110313D01*
X153469311Y-94274311D01*
X153165378Y-94577714D01*
X153000687Y-94974332D01*
X153000313Y-95403784D01*
X143189641Y-95403784D01*
X143189687Y-95351200D01*
X143025689Y-94954295D01*
X142722286Y-94650362D01*
X142381331Y-94508784D01*
X145475313Y-94508784D01*
X145639311Y-94905689D01*
X145942714Y-95209622D01*
X146339332Y-95374313D01*
X146768784Y-95374687D01*
X147165689Y-95210689D01*
X147469622Y-94907286D01*
X147634313Y-94510668D01*
X147634687Y-94081216D01*
X147470689Y-93684311D01*
X147167286Y-93380378D01*
X146770668Y-93215687D01*
X146341216Y-93215313D01*
X145944311Y-93379311D01*
X145640378Y-93682714D01*
X145475687Y-94079332D01*
X145475313Y-94508784D01*
X142381331Y-94508784D01*
X142325668Y-94485671D01*
X141896216Y-94485297D01*
X141499311Y-94649295D01*
X141195378Y-94952698D01*
X141030687Y-95349316D01*
X141030313Y-95778768D01*
X140336533Y-95778768D01*
X140280948Y-95755687D01*
X139851496Y-95755313D01*
X139454591Y-95919311D01*
X139150658Y-96222714D01*
X138985967Y-96619332D01*
X138985593Y-97048784D01*
X139149591Y-97445689D01*
X139176286Y-97472430D01*
X139041716Y-97472313D01*
X138644811Y-97636311D01*
X138340878Y-97939714D01*
X138176187Y-98336332D01*
X138175813Y-98765784D01*
X130611225Y-98765784D01*
X130743319Y-98447668D01*
X130743693Y-98018216D01*
X130579695Y-97621311D01*
X130276292Y-97317378D01*
X129879674Y-97152687D01*
X129450222Y-97152313D01*
X129053317Y-97316311D01*
X128749384Y-97619714D01*
X128584693Y-98016332D01*
X128584319Y-98445784D01*
X128679658Y-98676521D01*
X128434216Y-98676307D01*
X128037311Y-98840305D01*
X127733378Y-99143708D01*
X127568687Y-99540326D01*
X127568313Y-99969778D01*
X120084444Y-99969778D01*
X120339029Y-99799670D01*
X120663885Y-99313489D01*
X120777959Y-98740000D01*
X120663885Y-98166511D01*
X120339029Y-97680330D01*
X120024248Y-97470000D01*
X120339029Y-97259670D01*
X120426740Y-97128400D01*
X130409701Y-97128400D01*
X130573699Y-97525305D01*
X130877102Y-97829238D01*
X131273720Y-97993929D01*
X131703172Y-97994303D01*
X131887622Y-97918090D01*
X132139524Y-98170432D01*
X132536142Y-98335123D01*
X132965594Y-98335497D01*
X133216984Y-98231625D01*
X133369714Y-98384622D01*
X133766332Y-98549313D01*
X134195784Y-98549687D01*
X134592689Y-98385689D01*
X134896622Y-98082286D01*
X135061313Y-97685668D01*
X135061687Y-97256216D01*
X134897689Y-96859311D01*
X134594286Y-96555378D01*
X134197668Y-96390687D01*
X133768216Y-96390313D01*
X133516826Y-96494185D01*
X133364096Y-96341188D01*
X132967478Y-96176497D01*
X132538026Y-96176123D01*
X132353576Y-96252336D01*
X132101674Y-95999994D01*
X131705056Y-95835303D01*
X131275604Y-95834929D01*
X130878699Y-95998927D01*
X130574766Y-96302330D01*
X130410075Y-96698948D01*
X130409701Y-97128400D01*
X120426740Y-97128400D01*
X120663885Y-96773489D01*
X120777959Y-96200000D01*
X120694174Y-95778784D01*
X128330313Y-95778784D01*
X128494311Y-96175689D01*
X128797714Y-96479622D01*
X129194332Y-96644313D01*
X129623784Y-96644687D01*
X130020689Y-96480689D01*
X130324622Y-96177286D01*
X130489313Y-95780668D01*
X130489687Y-95351216D01*
X130325689Y-94954311D01*
X130022286Y-94650378D01*
X129625668Y-94485687D01*
X129196216Y-94485313D01*
X128799311Y-94649311D01*
X128495378Y-94952714D01*
X128330687Y-95349332D01*
X128330313Y-95778784D01*
X120694174Y-95778784D01*
X120663885Y-95626511D01*
X120339029Y-95140330D01*
X120024248Y-94930000D01*
X120339029Y-94719670D01*
X120663885Y-94233489D01*
X120757412Y-93763293D01*
X132905313Y-93763293D01*
X133069311Y-94160198D01*
X133372714Y-94464131D01*
X133769332Y-94628822D01*
X134198784Y-94629196D01*
X134595689Y-94465198D01*
X134899622Y-94161795D01*
X135064313Y-93765177D01*
X135064687Y-93335725D01*
X134900689Y-92938820D01*
X134597286Y-92634887D01*
X134200668Y-92470196D01*
X133771216Y-92469822D01*
X133374311Y-92633820D01*
X133070378Y-92937223D01*
X132905687Y-93333841D01*
X132905313Y-93763293D01*
X120757412Y-93763293D01*
X120777959Y-93660000D01*
X120663885Y-93086511D01*
X120339029Y-92600330D01*
X120024248Y-92390000D01*
X120031144Y-92385392D01*
X141170044Y-92385392D01*
X141334042Y-92782297D01*
X141637445Y-93086230D01*
X142034063Y-93250921D01*
X142463515Y-93251295D01*
X142860420Y-93087297D01*
X143164353Y-92783894D01*
X143329044Y-92387276D01*
X143329418Y-91957824D01*
X143308742Y-91907784D01*
X177355313Y-91907784D01*
X177519311Y-92304689D01*
X177822714Y-92608622D01*
X178219332Y-92773313D01*
X178648784Y-92773687D01*
X179045689Y-92609689D01*
X179349622Y-92306286D01*
X179514313Y-91909668D01*
X179514687Y-91480216D01*
X179350689Y-91083311D01*
X179047286Y-90779378D01*
X178650668Y-90614687D01*
X178221216Y-90614313D01*
X177824311Y-90778311D01*
X177520378Y-91081714D01*
X177355687Y-91478332D01*
X177355313Y-91907784D01*
X143308742Y-91907784D01*
X143165420Y-91560919D01*
X142862017Y-91256986D01*
X142465399Y-91092295D01*
X142035947Y-91091921D01*
X141639042Y-91255919D01*
X141335109Y-91559322D01*
X141170418Y-91955940D01*
X141170044Y-92385392D01*
X120031144Y-92385392D01*
X120339029Y-92179670D01*
X120529881Y-91894040D01*
X120672714Y-92037122D01*
X121069332Y-92201813D01*
X121498784Y-92202187D01*
X121895689Y-92038189D01*
X121919776Y-92014144D01*
X121942714Y-92037122D01*
X122339332Y-92201813D01*
X122768784Y-92202187D01*
X123165689Y-92038189D01*
X123189776Y-92014144D01*
X123212714Y-92037122D01*
X123609332Y-92201813D01*
X124038784Y-92202187D01*
X124435689Y-92038189D01*
X124739622Y-91734786D01*
X124904313Y-91338168D01*
X124904687Y-90908716D01*
X124740689Y-90511811D01*
X124684894Y-90455919D01*
X124739622Y-90401286D01*
X124904313Y-90004668D01*
X124904687Y-89575216D01*
X124740689Y-89178311D01*
X124437286Y-88874378D01*
X124040668Y-88709687D01*
X123611216Y-88709313D01*
X123214311Y-88873311D01*
X123190224Y-88897356D01*
X123167286Y-88874378D01*
X122770668Y-88709687D01*
X122341216Y-88709313D01*
X121944311Y-88873311D01*
X121920224Y-88897356D01*
X121897286Y-88874378D01*
X121500668Y-88709687D01*
X121071216Y-88709313D01*
X120674311Y-88873311D01*
X120370378Y-89176714D01*
X120205687Y-89573332D01*
X120205341Y-89971002D01*
X119852848Y-89735474D01*
X119279359Y-89621400D01*
X119220641Y-89621400D01*
X118647152Y-89735474D01*
X118181558Y-90046574D01*
X118176762Y-90021083D01*
X118037690Y-89804959D01*
X117825490Y-89659969D01*
X117573600Y-89608960D01*
X115846400Y-89608960D01*
X115611083Y-89653238D01*
X115394959Y-89792310D01*
X115249969Y-90004510D01*
X115198960Y-90256400D01*
X115198960Y-91983600D01*
X115243238Y-92218917D01*
X115382310Y-92435041D01*
X115594510Y-92580031D01*
X115638131Y-92588864D01*
X115620971Y-92600330D01*
X115296115Y-93086511D01*
X115182041Y-93660000D01*
X113210000Y-93660000D01*
X113210000Y-86888784D01*
X151825313Y-86888784D01*
X151989311Y-87285689D01*
X152292714Y-87589622D01*
X152689332Y-87754313D01*
X153118784Y-87754687D01*
X153515689Y-87590689D01*
X153819622Y-87287286D01*
X153984313Y-86890668D01*
X153984687Y-86461216D01*
X153898978Y-86253784D01*
X175320313Y-86253784D01*
X175484311Y-86650689D01*
X175787714Y-86954622D01*
X176184332Y-87119313D01*
X176613784Y-87119687D01*
X177010689Y-86955689D01*
X177314622Y-86652286D01*
X177479313Y-86255668D01*
X177479687Y-85826216D01*
X177315689Y-85429311D01*
X177012286Y-85125378D01*
X176615668Y-84960687D01*
X176186216Y-84960313D01*
X175789311Y-85124311D01*
X175485378Y-85427714D01*
X175320687Y-85824332D01*
X175320313Y-86253784D01*
X153898978Y-86253784D01*
X153820689Y-86064311D01*
X153517286Y-85760378D01*
X153120668Y-85595687D01*
X152691216Y-85595313D01*
X152294311Y-85759311D01*
X151990378Y-86062714D01*
X151825687Y-86459332D01*
X151825313Y-86888784D01*
X113210000Y-86888784D01*
X113210000Y-84983774D01*
X168970313Y-84983774D01*
X169134311Y-85380679D01*
X169437714Y-85684612D01*
X169834332Y-85849303D01*
X170263784Y-85849677D01*
X170660689Y-85685679D01*
X170964622Y-85382276D01*
X171129313Y-84985658D01*
X171129687Y-84556206D01*
X170965689Y-84159301D01*
X170662286Y-83855368D01*
X170265668Y-83690677D01*
X169836216Y-83690303D01*
X169439311Y-83854301D01*
X169135378Y-84157704D01*
X168970687Y-84554322D01*
X168970313Y-84983774D01*
X113210000Y-84983774D01*
X113210000Y-79944000D01*
X115046560Y-79944000D01*
X115046560Y-81976000D01*
X115090838Y-82211317D01*
X115229910Y-82427441D01*
X115442110Y-82572431D01*
X115694000Y-82623440D01*
X117726000Y-82623440D01*
X117961317Y-82579162D01*
X118177441Y-82440090D01*
X118279198Y-82291163D01*
X118618190Y-82517670D01*
X119250000Y-82643345D01*
X119881810Y-82517670D01*
X120417433Y-82159778D01*
X120651959Y-81808784D01*
X176590313Y-81808784D01*
X176754311Y-82205689D01*
X177057714Y-82509622D01*
X177454332Y-82674313D01*
X177883784Y-82674687D01*
X178280689Y-82510689D01*
X178584622Y-82207286D01*
X178749313Y-81810668D01*
X178749687Y-81381216D01*
X178663978Y-81173784D01*
X182305313Y-81173784D01*
X182469311Y-81570689D01*
X182772714Y-81874622D01*
X183169332Y-82039313D01*
X183598784Y-82039687D01*
X183995689Y-81875689D01*
X184276868Y-81595000D01*
X207101655Y-81595000D01*
X207215729Y-82168489D01*
X207540585Y-82654670D01*
X207855366Y-82865000D01*
X207540585Y-83075330D01*
X207215729Y-83561511D01*
X207101655Y-84135000D01*
X207215729Y-84708489D01*
X207540585Y-85194670D01*
X208026766Y-85519526D01*
X208600255Y-85633600D01*
X208969745Y-85633600D01*
X209543234Y-85519526D01*
X210029415Y-85194670D01*
X210354271Y-84708489D01*
X210468345Y-84135000D01*
X210354271Y-83561511D01*
X210029415Y-83075330D01*
X209714634Y-82865000D01*
X210029415Y-82654670D01*
X210354271Y-82168489D01*
X210468345Y-81595000D01*
X210354271Y-81021511D01*
X210029415Y-80535330D01*
X209543234Y-80210474D01*
X208969745Y-80096400D01*
X208600255Y-80096400D01*
X208026766Y-80210474D01*
X207540585Y-80535330D01*
X207215729Y-81021511D01*
X207101655Y-81595000D01*
X184276868Y-81595000D01*
X184299622Y-81572286D01*
X184464313Y-81175668D01*
X184464687Y-80746216D01*
X184300689Y-80349311D01*
X183997286Y-80045378D01*
X183600668Y-79880687D01*
X183171216Y-79880313D01*
X182774311Y-80044311D01*
X182470378Y-80347714D01*
X182305687Y-80744332D01*
X182305313Y-81173784D01*
X178663978Y-81173784D01*
X178585689Y-80984311D01*
X178282286Y-80680378D01*
X177885668Y-80515687D01*
X177456216Y-80515313D01*
X177059311Y-80679311D01*
X176755378Y-80982714D01*
X176590687Y-81379332D01*
X176590313Y-81808784D01*
X120651959Y-81808784D01*
X120775325Y-81624155D01*
X120901000Y-80992345D01*
X120901000Y-80927655D01*
X120775325Y-80295845D01*
X120417433Y-79760222D01*
X119881810Y-79402330D01*
X119250000Y-79276655D01*
X118618190Y-79402330D01*
X118278208Y-79629499D01*
X118190090Y-79492559D01*
X117977890Y-79347569D01*
X117726000Y-79296560D01*
X115694000Y-79296560D01*
X115458683Y-79340838D01*
X115242559Y-79479910D01*
X115097569Y-79692110D01*
X115046560Y-79944000D01*
X113210000Y-79944000D01*
X113210000Y-74823784D01*
X138934813Y-74823784D01*
X139098811Y-75220689D01*
X139122856Y-75244776D01*
X139099878Y-75267714D01*
X138935187Y-75664332D01*
X138934813Y-76093784D01*
X139098811Y-76490689D01*
X139122856Y-76514776D01*
X139099878Y-76537714D01*
X138935187Y-76934332D01*
X138934813Y-77363784D01*
X139098811Y-77760689D01*
X139122856Y-77784776D01*
X139099878Y-77807714D01*
X138935187Y-78204332D01*
X138934813Y-78633784D01*
X139098811Y-79030689D01*
X139125603Y-79057528D01*
X139102878Y-79080214D01*
X138938187Y-79476832D01*
X138937813Y-79906284D01*
X139101811Y-80303189D01*
X139405214Y-80607122D01*
X139801832Y-80771813D01*
X140231284Y-80772187D01*
X140628189Y-80608189D01*
X140652276Y-80584144D01*
X140675214Y-80607122D01*
X141071832Y-80771813D01*
X141501284Y-80772187D01*
X141898189Y-80608189D01*
X142202122Y-80304786D01*
X142366813Y-79908168D01*
X142367187Y-79478716D01*
X142203189Y-79081811D01*
X142176397Y-79054972D01*
X142199122Y-79032286D01*
X142363813Y-78635668D01*
X142364187Y-78206216D01*
X142200189Y-77809311D01*
X142176144Y-77785224D01*
X142199122Y-77762286D01*
X142363813Y-77365668D01*
X142364187Y-76936216D01*
X142200189Y-76539311D01*
X142176144Y-76515224D01*
X142199122Y-76492286D01*
X142363813Y-76095668D01*
X142364187Y-75666216D01*
X142200189Y-75269311D01*
X142176144Y-75245224D01*
X142199122Y-75222286D01*
X142363813Y-74825668D01*
X142363814Y-74823784D01*
X180400313Y-74823784D01*
X180564311Y-75220689D01*
X180867714Y-75524622D01*
X181264332Y-75689313D01*
X181693784Y-75689687D01*
X182090689Y-75525689D01*
X182394622Y-75222286D01*
X182559313Y-74825668D01*
X182559687Y-74396216D01*
X182395689Y-73999311D01*
X182092286Y-73695378D01*
X181695668Y-73530687D01*
X181266216Y-73530313D01*
X180869311Y-73694311D01*
X180565378Y-73997714D01*
X180400687Y-74394332D01*
X180400313Y-74823784D01*
X142363814Y-74823784D01*
X142364187Y-74396216D01*
X142200189Y-73999311D01*
X141896786Y-73695378D01*
X141500168Y-73530687D01*
X141070716Y-73530313D01*
X140673811Y-73694311D01*
X140649724Y-73718356D01*
X140626786Y-73695378D01*
X140230168Y-73530687D01*
X139800716Y-73530313D01*
X139403811Y-73694311D01*
X139099878Y-73997714D01*
X138935187Y-74394332D01*
X138934813Y-74823784D01*
X113210000Y-74823784D01*
X113210000Y-68473784D01*
X136585313Y-68473784D01*
X136749311Y-68870689D01*
X137052714Y-69174622D01*
X137449332Y-69339313D01*
X137878784Y-69339687D01*
X138275689Y-69175689D01*
X138579622Y-68872286D01*
X138617389Y-68781332D01*
X138654311Y-68870689D01*
X138678356Y-68894776D01*
X138655378Y-68917714D01*
X138490687Y-69314332D01*
X138490313Y-69743784D01*
X138654311Y-70140689D01*
X138678356Y-70164776D01*
X138655378Y-70187714D01*
X138490687Y-70584332D01*
X138490313Y-71013784D01*
X138654311Y-71410689D01*
X138957714Y-71714622D01*
X139354332Y-71879313D01*
X139783784Y-71879687D01*
X140180689Y-71715689D01*
X140484622Y-71412286D01*
X140522389Y-71321332D01*
X140559311Y-71410689D01*
X140862714Y-71714622D01*
X141259332Y-71879313D01*
X141688784Y-71879687D01*
X142085689Y-71715689D01*
X142389622Y-71412286D01*
X142427389Y-71321332D01*
X142464311Y-71410689D01*
X142767714Y-71714622D01*
X143164332Y-71879313D01*
X143593784Y-71879687D01*
X143990689Y-71715689D01*
X144294622Y-71412286D01*
X144459313Y-71015668D01*
X144459687Y-70586216D01*
X144295689Y-70189311D01*
X144271644Y-70165224D01*
X144294622Y-70142286D01*
X144382470Y-69930724D01*
X154428813Y-69930724D01*
X154592811Y-70327629D01*
X154896214Y-70631562D01*
X155292832Y-70796253D01*
X155557389Y-70796483D01*
X155683770Y-71102349D01*
X155987173Y-71406282D01*
X156383791Y-71570973D01*
X156813243Y-71571347D01*
X157066675Y-71466631D01*
X156905687Y-71854332D01*
X156905313Y-72283784D01*
X157069311Y-72680689D01*
X157372714Y-72984622D01*
X157769332Y-73149313D01*
X158198784Y-73149687D01*
X158595689Y-72985689D01*
X158899622Y-72682286D01*
X159064313Y-72285668D01*
X159064687Y-71856216D01*
X158900689Y-71459311D01*
X158597286Y-71155378D01*
X158200668Y-70990687D01*
X157771216Y-70990313D01*
X157517784Y-71095029D01*
X157678772Y-70707328D01*
X157679146Y-70277876D01*
X157515148Y-69880971D01*
X157211745Y-69577038D01*
X156854712Y-69428784D01*
X180530313Y-69428784D01*
X180694311Y-69825689D01*
X180997714Y-70129622D01*
X181394332Y-70294313D01*
X181823784Y-70294687D01*
X182220689Y-70130689D01*
X182524622Y-69827286D01*
X182689313Y-69430668D01*
X182689314Y-69428784D01*
X197675313Y-69428784D01*
X197839311Y-69825689D01*
X198142714Y-70129622D01*
X198539332Y-70294313D01*
X198968784Y-70294687D01*
X199365689Y-70130689D01*
X199669622Y-69827286D01*
X199834313Y-69430668D01*
X199834687Y-69001216D01*
X199670689Y-68604311D01*
X199367286Y-68300378D01*
X198970668Y-68135687D01*
X198541216Y-68135313D01*
X198144311Y-68299311D01*
X197840378Y-68602714D01*
X197675687Y-68999332D01*
X197675313Y-69428784D01*
X182689314Y-69428784D01*
X182689687Y-69001216D01*
X182525689Y-68604311D01*
X182222286Y-68300378D01*
X181881292Y-68158784D01*
X186880313Y-68158784D01*
X187044311Y-68555689D01*
X187347714Y-68859622D01*
X187744332Y-69024313D01*
X188173784Y-69024687D01*
X188570689Y-68860689D01*
X188874622Y-68557286D01*
X189039313Y-68160668D01*
X189039687Y-67731216D01*
X188995800Y-67625000D01*
X207101655Y-67625000D01*
X207215729Y-68198489D01*
X207540585Y-68684670D01*
X207855366Y-68895000D01*
X207540585Y-69105330D01*
X207215729Y-69591511D01*
X207101655Y-70165000D01*
X207215729Y-70738489D01*
X207540585Y-71224670D01*
X208026766Y-71549526D01*
X208600255Y-71663600D01*
X208969745Y-71663600D01*
X209543234Y-71549526D01*
X210029415Y-71224670D01*
X210354271Y-70738489D01*
X210468345Y-70165000D01*
X210354271Y-69591511D01*
X210029415Y-69105330D01*
X209714634Y-68895000D01*
X210029415Y-68684670D01*
X210354271Y-68198489D01*
X210468345Y-67625000D01*
X210354271Y-67051511D01*
X210029415Y-66565330D01*
X209543234Y-66240474D01*
X208969745Y-66126400D01*
X208600255Y-66126400D01*
X208026766Y-66240474D01*
X207540585Y-66565330D01*
X207215729Y-67051511D01*
X207101655Y-67625000D01*
X188995800Y-67625000D01*
X188875689Y-67334311D01*
X188572286Y-67030378D01*
X188175668Y-66865687D01*
X187746216Y-66865313D01*
X187349311Y-67029311D01*
X187045378Y-67332714D01*
X186880687Y-67729332D01*
X186880313Y-68158784D01*
X181881292Y-68158784D01*
X181825668Y-68135687D01*
X181396216Y-68135313D01*
X180999311Y-68299311D01*
X180695378Y-68602714D01*
X180530687Y-68999332D01*
X180530313Y-69428784D01*
X156854712Y-69428784D01*
X156815127Y-69412347D01*
X156550570Y-69412117D01*
X156424189Y-69106251D01*
X156120786Y-68802318D01*
X155724168Y-68637627D01*
X155294716Y-68637253D01*
X154897811Y-68801251D01*
X154593878Y-69104654D01*
X154429187Y-69501272D01*
X154428813Y-69930724D01*
X144382470Y-69930724D01*
X144459313Y-69745668D01*
X144459687Y-69316216D01*
X144295689Y-68919311D01*
X144271644Y-68895224D01*
X144294622Y-68872286D01*
X144459313Y-68475668D01*
X144459687Y-68046216D01*
X144295689Y-67649311D01*
X143992286Y-67345378D01*
X143595668Y-67180687D01*
X143166216Y-67180313D01*
X142769311Y-67344311D01*
X142465378Y-67647714D01*
X142427611Y-67738668D01*
X142390689Y-67649311D01*
X142087286Y-67345378D01*
X141690668Y-67180687D01*
X141261216Y-67180313D01*
X140864311Y-67344311D01*
X140560378Y-67647714D01*
X140522611Y-67738668D01*
X140485689Y-67649311D01*
X140182286Y-67345378D01*
X139785668Y-67180687D01*
X139356216Y-67180313D01*
X138959311Y-67344311D01*
X138655378Y-67647714D01*
X138617611Y-67738668D01*
X138580689Y-67649311D01*
X138277286Y-67345378D01*
X137880668Y-67180687D01*
X137451216Y-67180313D01*
X137054311Y-67344311D01*
X136750378Y-67647714D01*
X136585687Y-68044332D01*
X136585313Y-68473784D01*
X113210000Y-68473784D01*
X113210000Y-65933784D01*
X182305313Y-65933784D01*
X182469311Y-66330689D01*
X182772714Y-66634622D01*
X183169332Y-66799313D01*
X183598784Y-66799687D01*
X183995689Y-66635689D01*
X184299622Y-66332286D01*
X184464313Y-65935668D01*
X184464687Y-65506216D01*
X184300689Y-65109311D01*
X183997286Y-64805378D01*
X183600668Y-64640687D01*
X183171216Y-64640313D01*
X182774311Y-64804311D01*
X182470378Y-65107714D01*
X182305687Y-65504332D01*
X182305313Y-65933784D01*
X113210000Y-65933784D01*
X113210000Y-64983784D01*
X151955313Y-64983784D01*
X152119311Y-65380689D01*
X152422714Y-65684622D01*
X152819332Y-65849313D01*
X153248784Y-65849687D01*
X153645689Y-65685689D01*
X153669776Y-65661644D01*
X153692714Y-65684622D01*
X154089332Y-65849313D01*
X154518784Y-65849687D01*
X154915689Y-65685689D01*
X154939776Y-65661644D01*
X154962714Y-65684622D01*
X155359332Y-65849313D01*
X155788784Y-65849687D01*
X156185689Y-65685689D01*
X156209776Y-65661644D01*
X156232714Y-65684622D01*
X156629332Y-65849313D01*
X157058784Y-65849687D01*
X157455689Y-65685689D01*
X157479776Y-65661644D01*
X157502714Y-65684622D01*
X157899332Y-65849313D01*
X158328784Y-65849687D01*
X158725689Y-65685689D01*
X158749776Y-65661644D01*
X158772714Y-65684622D01*
X159169332Y-65849313D01*
X159598784Y-65849687D01*
X159995689Y-65685689D01*
X160299622Y-65382286D01*
X160464313Y-64985668D01*
X160464687Y-64556216D01*
X160300689Y-64159311D01*
X160172886Y-64031284D01*
X188594813Y-64031284D01*
X188758811Y-64428189D01*
X189062214Y-64732122D01*
X189458832Y-64896813D01*
X189888284Y-64897187D01*
X190285189Y-64733189D01*
X190589122Y-64429786D01*
X190753813Y-64033168D01*
X190753816Y-64028784D01*
X196275313Y-64028784D01*
X196439311Y-64425689D01*
X196742714Y-64729622D01*
X197139332Y-64894313D01*
X197568784Y-64894687D01*
X197965689Y-64730689D01*
X198269622Y-64427286D01*
X198434313Y-64030668D01*
X198434426Y-63900752D01*
X198539332Y-63944313D01*
X198968784Y-63944687D01*
X199365689Y-63780689D01*
X199669622Y-63477286D01*
X199834313Y-63080668D01*
X199834687Y-62651216D01*
X199670689Y-62254311D01*
X199367286Y-61950378D01*
X198970668Y-61785687D01*
X198541216Y-61785313D01*
X198144311Y-61949311D01*
X197840378Y-62252714D01*
X197675687Y-62649332D01*
X197675574Y-62779248D01*
X197570668Y-62735687D01*
X197141216Y-62735313D01*
X196744311Y-62899311D01*
X196440378Y-63202714D01*
X196275687Y-63599332D01*
X196275313Y-64028784D01*
X190753816Y-64028784D01*
X190754187Y-63603716D01*
X190590189Y-63206811D01*
X190286786Y-62902878D01*
X189890168Y-62738187D01*
X189460716Y-62737813D01*
X189063811Y-62901811D01*
X188759878Y-63205214D01*
X188595187Y-63601832D01*
X188594813Y-64031284D01*
X160172886Y-64031284D01*
X159997286Y-63855378D01*
X159600668Y-63690687D01*
X159171216Y-63690313D01*
X158774311Y-63854311D01*
X158750224Y-63878356D01*
X158727286Y-63855378D01*
X158330668Y-63690687D01*
X157901216Y-63690313D01*
X157504311Y-63854311D01*
X157480224Y-63878356D01*
X157457286Y-63855378D01*
X157060668Y-63690687D01*
X156631216Y-63690313D01*
X156234311Y-63854311D01*
X156210224Y-63878356D01*
X156187286Y-63855378D01*
X155790668Y-63690687D01*
X155361216Y-63690313D01*
X154964311Y-63854311D01*
X154940224Y-63878356D01*
X154917286Y-63855378D01*
X154520668Y-63690687D01*
X154091216Y-63690313D01*
X153694311Y-63854311D01*
X153670224Y-63878356D01*
X153647286Y-63855378D01*
X153250668Y-63690687D01*
X152821216Y-63690313D01*
X152424311Y-63854311D01*
X152120378Y-64157714D01*
X151955687Y-64554332D01*
X151955313Y-64983784D01*
X113210000Y-64983784D01*
X113210000Y-64028784D01*
X136585313Y-64028784D01*
X136749311Y-64425689D01*
X137052714Y-64729622D01*
X137449332Y-64894313D01*
X137878784Y-64894687D01*
X138275689Y-64730689D01*
X138579622Y-64427286D01*
X138744313Y-64030668D01*
X138744464Y-63856498D01*
X146542093Y-63856498D01*
X146706091Y-64253403D01*
X147009494Y-64557336D01*
X147406112Y-64722027D01*
X147835564Y-64722401D01*
X148232469Y-64558403D01*
X148536402Y-64255000D01*
X148701093Y-63858382D01*
X148701467Y-63428930D01*
X148537469Y-63032025D01*
X148234066Y-62728092D01*
X147837448Y-62563401D01*
X147407996Y-62563027D01*
X147011091Y-62727025D01*
X146707158Y-63030428D01*
X146542467Y-63427046D01*
X146542093Y-63856498D01*
X138744464Y-63856498D01*
X138744687Y-63601216D01*
X138580689Y-63204311D01*
X138277286Y-62900378D01*
X137880668Y-62735687D01*
X137451216Y-62735313D01*
X137054311Y-62899311D01*
X136750378Y-63202714D01*
X136585687Y-63599332D01*
X136585313Y-64028784D01*
X113210000Y-64028784D01*
X113210000Y-57043784D01*
X121980313Y-57043784D01*
X122144311Y-57440689D01*
X122168356Y-57464776D01*
X122145378Y-57487714D01*
X121980687Y-57884332D01*
X121980313Y-58313784D01*
X122144311Y-58710689D01*
X122168356Y-58734776D01*
X122145378Y-58757714D01*
X121980687Y-59154332D01*
X121980313Y-59583784D01*
X122144311Y-59980689D01*
X122168356Y-60004776D01*
X122145378Y-60027714D01*
X121980687Y-60424332D01*
X121980313Y-60853784D01*
X122144311Y-61250689D01*
X122168356Y-61274776D01*
X122145378Y-61297714D01*
X121980687Y-61694332D01*
X121980313Y-62123784D01*
X122144311Y-62520689D01*
X122447714Y-62824622D01*
X122844332Y-62989313D01*
X123273784Y-62989687D01*
X123670689Y-62825689D01*
X123694776Y-62801644D01*
X123717714Y-62824622D01*
X124114332Y-62989313D01*
X124543784Y-62989687D01*
X124940689Y-62825689D01*
X125244622Y-62522286D01*
X125409313Y-62125668D01*
X125409687Y-61696216D01*
X125245689Y-61299311D01*
X125221644Y-61275224D01*
X125244622Y-61252286D01*
X125277227Y-61173764D01*
X147510313Y-61173764D01*
X147674311Y-61570669D01*
X147977714Y-61874602D01*
X148374332Y-62039293D01*
X148803784Y-62039667D01*
X149200689Y-61875669D01*
X149504622Y-61572266D01*
X149669313Y-61175648D01*
X149669687Y-60746196D01*
X149509478Y-60358461D01*
X149752714Y-60602122D01*
X150149332Y-60766813D01*
X150578784Y-60767187D01*
X150785344Y-60681838D01*
X151022714Y-60919622D01*
X151419332Y-61084313D01*
X151848784Y-61084687D01*
X152245689Y-60920689D01*
X152269776Y-60896644D01*
X152292714Y-60919622D01*
X152689332Y-61084313D01*
X153118784Y-61084687D01*
X153515689Y-60920689D01*
X153539776Y-60896644D01*
X153562714Y-60919622D01*
X153959332Y-61084313D01*
X154388784Y-61084687D01*
X154785689Y-60920689D01*
X155089622Y-60617286D01*
X155122219Y-60538784D01*
X198945313Y-60538784D01*
X199109311Y-60935689D01*
X199412714Y-61239622D01*
X199809332Y-61404313D01*
X200238784Y-61404687D01*
X200635689Y-61240689D01*
X200939622Y-60937286D01*
X201104313Y-60540668D01*
X201104687Y-60111216D01*
X200940689Y-59714311D01*
X200637286Y-59410378D01*
X200240668Y-59245687D01*
X199811216Y-59245313D01*
X199414311Y-59409311D01*
X199110378Y-59712714D01*
X198945687Y-60109332D01*
X198945313Y-60538784D01*
X155122219Y-60538784D01*
X155254313Y-60220668D01*
X155254687Y-59791216D01*
X155168978Y-59583784D01*
X180717813Y-59583784D01*
X180881811Y-59980689D01*
X181185214Y-60284622D01*
X181581832Y-60449313D01*
X182011284Y-60449687D01*
X182408189Y-60285689D01*
X182712122Y-59982286D01*
X182876813Y-59585668D01*
X182877187Y-59156216D01*
X182713189Y-58759311D01*
X182409786Y-58455378D01*
X182013168Y-58290687D01*
X181583716Y-58290313D01*
X181186811Y-58454311D01*
X180882878Y-58757714D01*
X180718187Y-59154332D01*
X180717813Y-59583784D01*
X155168978Y-59583784D01*
X155090689Y-59394311D01*
X154787286Y-59090378D01*
X154390668Y-58925687D01*
X153961216Y-58925313D01*
X153564311Y-59089311D01*
X153540224Y-59113356D01*
X153517286Y-59090378D01*
X153120668Y-58925687D01*
X152691216Y-58925313D01*
X152294311Y-59089311D01*
X152270224Y-59113356D01*
X152247286Y-59090378D01*
X151850668Y-58925687D01*
X151421216Y-58925313D01*
X151214656Y-59010662D01*
X150977286Y-58772878D01*
X150580668Y-58608187D01*
X150151216Y-58607813D01*
X149754311Y-58771811D01*
X149450378Y-59075214D01*
X149285687Y-59471832D01*
X149285313Y-59901284D01*
X149445522Y-60289019D01*
X149202286Y-60045358D01*
X148805668Y-59880667D01*
X148376216Y-59880293D01*
X147979311Y-60044291D01*
X147675378Y-60347694D01*
X147510687Y-60744312D01*
X147510313Y-61173764D01*
X125277227Y-61173764D01*
X125409313Y-60855668D01*
X125409687Y-60426216D01*
X125245689Y-60029311D01*
X125221644Y-60005224D01*
X125244622Y-59982286D01*
X125409313Y-59585668D01*
X125409687Y-59156216D01*
X125245689Y-58759311D01*
X125221644Y-58735224D01*
X125244622Y-58712286D01*
X125409313Y-58315668D01*
X125409687Y-57886216D01*
X125245689Y-57489311D01*
X125221644Y-57465224D01*
X125244622Y-57442286D01*
X125409313Y-57045668D01*
X125409314Y-57043784D01*
X128330313Y-57043784D01*
X128494311Y-57440689D01*
X128519345Y-57465767D01*
X128497359Y-57487714D01*
X128332668Y-57884332D01*
X128332294Y-58313784D01*
X128496292Y-58710689D01*
X128519348Y-58733786D01*
X128495378Y-58757714D01*
X128330687Y-59154332D01*
X128330313Y-59583784D01*
X128494311Y-59980689D01*
X128797714Y-60284622D01*
X129194332Y-60449313D01*
X129623784Y-60449687D01*
X130020689Y-60285689D01*
X130044776Y-60261644D01*
X130067714Y-60284622D01*
X130464332Y-60449313D01*
X130893784Y-60449687D01*
X131290689Y-60285689D01*
X131594622Y-59982286D01*
X131759313Y-59585668D01*
X131759687Y-59156216D01*
X131595689Y-58759311D01*
X131571644Y-58735224D01*
X131594622Y-58712286D01*
X131759313Y-58315668D01*
X131759687Y-57886216D01*
X131595689Y-57489311D01*
X131571644Y-57465224D01*
X131594622Y-57442286D01*
X131759313Y-57045668D01*
X131759687Y-56616216D01*
X131595689Y-56219311D01*
X131292286Y-55915378D01*
X130951292Y-55773784D01*
X134680313Y-55773784D01*
X134844311Y-56170689D01*
X135147714Y-56474622D01*
X135544332Y-56639313D01*
X135973784Y-56639687D01*
X136370689Y-56475689D01*
X136437710Y-56408784D01*
X172145313Y-56408784D01*
X172309311Y-56805689D01*
X172612714Y-57109622D01*
X173009332Y-57274313D01*
X173438784Y-57274687D01*
X173835689Y-57110689D01*
X174139622Y-56807286D01*
X174304313Y-56410668D01*
X174304687Y-55981216D01*
X174140689Y-55584311D01*
X173837286Y-55280378D01*
X173440668Y-55115687D01*
X173011216Y-55115313D01*
X172614311Y-55279311D01*
X172310378Y-55582714D01*
X172145687Y-55979332D01*
X172145313Y-56408784D01*
X136437710Y-56408784D01*
X136674622Y-56172286D01*
X136839313Y-55775668D01*
X136839687Y-55346216D01*
X136675689Y-54949311D01*
X136372286Y-54645378D01*
X135975668Y-54480687D01*
X135546216Y-54480313D01*
X135149311Y-54644311D01*
X134845378Y-54947714D01*
X134680687Y-55344332D01*
X134680313Y-55773784D01*
X130951292Y-55773784D01*
X130895668Y-55750687D01*
X130466216Y-55750313D01*
X130069311Y-55914311D01*
X130045224Y-55938356D01*
X130022286Y-55915378D01*
X129625668Y-55750687D01*
X129196216Y-55750313D01*
X128799311Y-55914311D01*
X128495378Y-56217714D01*
X128330687Y-56614332D01*
X128330313Y-57043784D01*
X125409314Y-57043784D01*
X125409687Y-56616216D01*
X125245689Y-56219311D01*
X124942286Y-55915378D01*
X124545668Y-55750687D01*
X124116216Y-55750313D01*
X123719311Y-55914311D01*
X123695224Y-55938356D01*
X123672286Y-55915378D01*
X123275668Y-55750687D01*
X122846216Y-55750313D01*
X122449311Y-55914311D01*
X122145378Y-56217714D01*
X121980687Y-56614332D01*
X121980313Y-57043784D01*
X113210000Y-57043784D01*
X113210000Y-53553784D01*
X190055313Y-53553784D01*
X190219311Y-53950689D01*
X190522714Y-54254622D01*
X190919332Y-54419313D01*
X191348784Y-54419687D01*
X191745689Y-54255689D01*
X192049622Y-53952286D01*
X192173066Y-53655000D01*
X207101655Y-53655000D01*
X207215729Y-54228489D01*
X207540585Y-54714670D01*
X207855366Y-54925000D01*
X207540585Y-55135330D01*
X207215729Y-55621511D01*
X207101655Y-56195000D01*
X207215729Y-56768489D01*
X207540585Y-57254670D01*
X208026766Y-57579526D01*
X208600255Y-57693600D01*
X208969745Y-57693600D01*
X209543234Y-57579526D01*
X210029415Y-57254670D01*
X210354271Y-56768489D01*
X210468345Y-56195000D01*
X210354271Y-55621511D01*
X210029415Y-55135330D01*
X209714634Y-54925000D01*
X210029415Y-54714670D01*
X210354271Y-54228489D01*
X210468345Y-53655000D01*
X210354271Y-53081511D01*
X210029415Y-52595330D01*
X209543234Y-52270474D01*
X208969745Y-52156400D01*
X208600255Y-52156400D01*
X208026766Y-52270474D01*
X207540585Y-52595330D01*
X207215729Y-53081511D01*
X207101655Y-53655000D01*
X192173066Y-53655000D01*
X192214313Y-53555668D01*
X192214687Y-53126216D01*
X192050689Y-52729311D01*
X191747286Y-52425378D01*
X191350668Y-52260687D01*
X190921216Y-52260313D01*
X190524311Y-52424311D01*
X190220378Y-52727714D01*
X190055687Y-53124332D01*
X190055313Y-53553784D01*
X113210000Y-53553784D01*
X113210000Y-51750000D01*
X115026655Y-51750000D01*
X115152330Y-52381810D01*
X115510222Y-52917433D01*
X116045845Y-53275325D01*
X116677655Y-53401000D01*
X116742345Y-53401000D01*
X117374155Y-53275325D01*
X117909778Y-52917433D01*
X118267670Y-52381810D01*
X118393345Y-51750000D01*
X118374207Y-51653784D01*
X154080313Y-51653784D01*
X154244311Y-52050689D01*
X154547714Y-52354622D01*
X154944332Y-52519313D01*
X155373784Y-52519687D01*
X155770689Y-52355689D01*
X156074622Y-52052286D01*
X156239313Y-51655668D01*
X156239597Y-51328784D01*
X182305313Y-51328784D01*
X182469311Y-51725689D01*
X182772714Y-52029622D01*
X183169332Y-52194313D01*
X183598784Y-52194687D01*
X183995689Y-52030689D01*
X184299622Y-51727286D01*
X184464313Y-51330668D01*
X184464687Y-50901216D01*
X184300689Y-50504311D01*
X183997286Y-50200378D01*
X183656292Y-50058784D01*
X195640313Y-50058784D01*
X195804311Y-50455689D01*
X196107714Y-50759622D01*
X196504332Y-50924313D01*
X196933784Y-50924687D01*
X197330689Y-50760689D01*
X197634622Y-50457286D01*
X197799313Y-50060668D01*
X197799687Y-49631216D01*
X197635689Y-49234311D01*
X197573771Y-49172284D01*
X198627813Y-49172284D01*
X198791811Y-49569189D01*
X199095214Y-49873122D01*
X199491832Y-50037813D01*
X199921284Y-50038187D01*
X200318189Y-49874189D01*
X200622122Y-49570786D01*
X200786813Y-49174168D01*
X200787187Y-48744716D01*
X200623189Y-48347811D01*
X200319786Y-48043878D01*
X199923168Y-47879187D01*
X199493716Y-47878813D01*
X199096811Y-48042811D01*
X198792878Y-48346214D01*
X198628187Y-48742832D01*
X198627813Y-49172284D01*
X197573771Y-49172284D01*
X197332286Y-48930378D01*
X196935668Y-48765687D01*
X196506216Y-48765313D01*
X196109311Y-48929311D01*
X195805378Y-49232714D01*
X195640687Y-49629332D01*
X195640313Y-50058784D01*
X183656292Y-50058784D01*
X183600668Y-50035687D01*
X183171216Y-50035313D01*
X182774311Y-50199311D01*
X182470378Y-50502714D01*
X182305687Y-50899332D01*
X182305313Y-51328784D01*
X156239597Y-51328784D01*
X156239687Y-51226216D01*
X156075689Y-50829311D01*
X155772286Y-50525378D01*
X155375668Y-50360687D01*
X154946216Y-50360313D01*
X154549311Y-50524311D01*
X154245378Y-50827714D01*
X154080687Y-51224332D01*
X154080313Y-51653784D01*
X118374207Y-51653784D01*
X118267670Y-51118190D01*
X117909778Y-50582567D01*
X117374155Y-50224675D01*
X116742345Y-50099000D01*
X116677655Y-50099000D01*
X116045845Y-50224675D01*
X115510222Y-50582567D01*
X115152330Y-51118190D01*
X115026655Y-51750000D01*
X113210000Y-51750000D01*
X113210000Y-49423784D01*
X123885313Y-49423784D01*
X124049311Y-49820689D01*
X124073356Y-49844776D01*
X124050378Y-49867714D01*
X123885687Y-50264332D01*
X123885313Y-50693784D01*
X124049311Y-51090689D01*
X124352714Y-51394622D01*
X124749332Y-51559313D01*
X125178784Y-51559687D01*
X125575689Y-51395689D01*
X125599776Y-51371644D01*
X125622714Y-51394622D01*
X126019332Y-51559313D01*
X126448784Y-51559687D01*
X126845689Y-51395689D01*
X126869776Y-51371644D01*
X126892714Y-51394622D01*
X127289332Y-51559313D01*
X127718784Y-51559687D01*
X128115689Y-51395689D01*
X128419622Y-51092286D01*
X128584313Y-50695668D01*
X128584687Y-50266216D01*
X128420689Y-49869311D01*
X128396644Y-49845224D01*
X128419622Y-49822286D01*
X128584313Y-49425668D01*
X128584687Y-48996216D01*
X128420689Y-48599311D01*
X128117286Y-48295378D01*
X127776292Y-48153784D01*
X175320313Y-48153784D01*
X175484311Y-48550689D01*
X175787714Y-48854622D01*
X176184332Y-49019313D01*
X176613784Y-49019687D01*
X177010689Y-48855689D01*
X177314622Y-48552286D01*
X177479313Y-48155668D01*
X177479687Y-47726216D01*
X177315689Y-47329311D01*
X177012286Y-47025378D01*
X176615668Y-46860687D01*
X176186216Y-46860313D01*
X175789311Y-47024311D01*
X175485378Y-47327714D01*
X175320687Y-47724332D01*
X175320313Y-48153784D01*
X127776292Y-48153784D01*
X127720668Y-48130687D01*
X127291216Y-48130313D01*
X126894311Y-48294311D01*
X126870224Y-48318356D01*
X126847286Y-48295378D01*
X126450668Y-48130687D01*
X126021216Y-48130313D01*
X125624311Y-48294311D01*
X125600224Y-48318356D01*
X125577286Y-48295378D01*
X125180668Y-48130687D01*
X124751216Y-48130313D01*
X124354311Y-48294311D01*
X124050378Y-48597714D01*
X123885687Y-48994332D01*
X123885313Y-49423784D01*
X113210000Y-49423784D01*
X113210000Y-44357904D01*
X113264853Y-44490658D01*
X114005443Y-45232542D01*
X114973567Y-45634542D01*
X116021834Y-45635457D01*
X116990658Y-45235147D01*
X117732542Y-44494557D01*
X118134542Y-43526433D01*
X118135457Y-42478166D01*
X117735147Y-41509342D01*
X116994557Y-40767458D01*
X116856183Y-40710000D01*
X140142096Y-40710000D01*
X140009342Y-40764853D01*
M02*
