G04 #@! TF.FileFunction,Soldermask,Top*
%FSLAX46Y46*%
G04 Gerber Fmt 4.6, Leading zero omitted, Abs format (unit mm)*
G04 Created by KiCad (PCBNEW 4.0.1-stable) date 13/02/2016 20:58:59*
%MOMM*%
G01*
G04 APERTURE LIST*
%ADD10C,0.100000*%
G04 APERTURE END LIST*
D10*
G36*
X158963100Y-135968100D02*
X157336900Y-135968100D01*
X157336900Y-134591900D01*
X158963100Y-134591900D01*
X158963100Y-135968100D01*
X158963100Y-135968100D01*
G37*
G36*
X151013100Y-135968100D02*
X149386900Y-135968100D01*
X149386900Y-134591900D01*
X151013100Y-134591900D01*
X151013100Y-135968100D01*
X151013100Y-135968100D01*
G37*
G36*
X164133530Y-135606790D02*
X162256470Y-135606790D01*
X162256470Y-133932930D01*
X164133530Y-133932930D01*
X164133530Y-135606790D01*
X164133530Y-135606790D01*
G37*
G36*
X171753530Y-135606790D02*
X169876470Y-135606790D01*
X169876470Y-133932930D01*
X171753530Y-133932930D01*
X171753530Y-135606790D01*
X171753530Y-135606790D01*
G37*
G36*
X167943530Y-135606790D02*
X166066470Y-135606790D01*
X166066470Y-133932930D01*
X167943530Y-133932930D01*
X167943530Y-135606790D01*
X167943530Y-135606790D01*
G37*
G36*
X164133530Y-132767070D02*
X162256470Y-132767070D01*
X162256470Y-131093210D01*
X164133530Y-131093210D01*
X164133530Y-132767070D01*
X164133530Y-132767070D01*
G37*
G36*
X171753530Y-132767070D02*
X169876470Y-132767070D01*
X169876470Y-131093210D01*
X171753530Y-131093210D01*
X171753530Y-132767070D01*
X171753530Y-132767070D01*
G37*
G36*
X167943530Y-132767070D02*
X166066470Y-132767070D01*
X166066470Y-131093210D01*
X167943530Y-131093210D01*
X167943530Y-132767070D01*
X167943530Y-132767070D01*
G37*
G36*
X185758100Y-131613100D02*
X184481900Y-131613100D01*
X184481900Y-130636900D01*
X185758100Y-130636900D01*
X185758100Y-131613100D01*
X185758100Y-131613100D01*
G37*
G36*
X183558100Y-131613100D02*
X182281900Y-131613100D01*
X182281900Y-130636900D01*
X183558100Y-130636900D01*
X183558100Y-131613100D01*
X183558100Y-131613100D01*
G37*
G36*
X189418100Y-131538100D02*
X188141900Y-131538100D01*
X188141900Y-130711900D01*
X189418100Y-130711900D01*
X189418100Y-131538100D01*
X189418100Y-131538100D01*
G37*
G36*
X187518100Y-131538100D02*
X186241900Y-131538100D01*
X186241900Y-130711900D01*
X187518100Y-130711900D01*
X187518100Y-131538100D01*
X187518100Y-131538100D01*
G37*
G36*
X151013100Y-131468100D02*
X149386900Y-131468100D01*
X149386900Y-130091900D01*
X151013100Y-130091900D01*
X151013100Y-131468100D01*
X151013100Y-131468100D01*
G37*
G36*
X158963100Y-131468100D02*
X157336900Y-131468100D01*
X157336900Y-130091900D01*
X158963100Y-130091900D01*
X158963100Y-131468100D01*
X158963100Y-131468100D01*
G37*
G36*
X182528100Y-129538100D02*
X181701900Y-129538100D01*
X181701900Y-128261900D01*
X182528100Y-128261900D01*
X182528100Y-129538100D01*
X182528100Y-129538100D01*
G37*
G36*
X209839100Y-129486700D02*
X207730900Y-129486700D01*
X207730900Y-127683300D01*
X209839100Y-127683300D01*
X209839100Y-129486700D01*
X209839100Y-129486700D01*
G37*
G36*
X205118510Y-129423200D02*
X201443130Y-129423200D01*
X201443130Y-127746800D01*
X205118510Y-127746800D01*
X205118510Y-129423200D01*
X205118510Y-129423200D01*
G37*
G36*
X199616870Y-129423200D02*
X195941490Y-129423200D01*
X195941490Y-127746800D01*
X199616870Y-127746800D01*
X199616870Y-129423200D01*
X199616870Y-129423200D01*
G37*
G36*
X192448100Y-129073100D02*
X191171900Y-129073100D01*
X191171900Y-128096900D01*
X192448100Y-128096900D01*
X192448100Y-129073100D01*
X192448100Y-129073100D01*
G37*
G36*
X194648100Y-129073100D02*
X193371900Y-129073100D01*
X193371900Y-128096900D01*
X194648100Y-128096900D01*
X194648100Y-129073100D01*
X194648100Y-129073100D01*
G37*
G36*
X178478100Y-129073100D02*
X177201900Y-129073100D01*
X177201900Y-128096900D01*
X178478100Y-128096900D01*
X178478100Y-129073100D01*
X178478100Y-129073100D01*
G37*
G36*
X180678100Y-129073100D02*
X179401900Y-129073100D01*
X179401900Y-128096900D01*
X180678100Y-128096900D01*
X180678100Y-129073100D01*
X180678100Y-129073100D01*
G37*
G36*
X184993100Y-128923100D02*
X184316900Y-128923100D01*
X184316900Y-127296900D01*
X184993100Y-127296900D01*
X184993100Y-128923100D01*
X184993100Y-128923100D01*
G37*
G36*
X186263100Y-128923100D02*
X185586900Y-128923100D01*
X185586900Y-127296900D01*
X186263100Y-127296900D01*
X186263100Y-128923100D01*
X186263100Y-128923100D01*
G37*
G36*
X187533100Y-128923100D02*
X186856900Y-128923100D01*
X186856900Y-127296900D01*
X187533100Y-127296900D01*
X187533100Y-128923100D01*
X187533100Y-128923100D01*
G37*
G36*
X188803100Y-128923100D02*
X188126900Y-128923100D01*
X188126900Y-127296900D01*
X188803100Y-127296900D01*
X188803100Y-128923100D01*
X188803100Y-128923100D01*
G37*
G36*
X182528100Y-127638100D02*
X181701900Y-127638100D01*
X181701900Y-126361900D01*
X182528100Y-126361900D01*
X182528100Y-127638100D01*
X182528100Y-127638100D01*
G37*
G36*
X208953035Y-125143373D02*
X208953041Y-125143374D01*
X208955090Y-125143388D01*
X209129974Y-125163004D01*
X209297717Y-125216216D01*
X209451931Y-125300995D01*
X209586740Y-125414114D01*
X209697010Y-125551262D01*
X209778542Y-125707217D01*
X209828228Y-125876038D01*
X209828231Y-125876069D01*
X209828235Y-125876083D01*
X209844180Y-126051292D01*
X209825789Y-126226265D01*
X209825787Y-126226270D01*
X209825783Y-126226312D01*
X209773744Y-126394423D01*
X209690043Y-126549224D01*
X209577869Y-126684820D01*
X209441493Y-126796045D01*
X209286111Y-126878663D01*
X209117641Y-126929527D01*
X208942500Y-126946700D01*
X208627466Y-126946700D01*
X208616965Y-126946627D01*
X208616959Y-126946626D01*
X208614910Y-126946612D01*
X208440026Y-126926996D01*
X208272283Y-126873784D01*
X208118069Y-126789005D01*
X207983260Y-126675886D01*
X207872990Y-126538738D01*
X207791458Y-126382783D01*
X207741772Y-126213962D01*
X207741769Y-126213931D01*
X207741765Y-126213917D01*
X207725820Y-126038708D01*
X207744211Y-125863735D01*
X207744213Y-125863730D01*
X207744217Y-125863688D01*
X207796256Y-125695577D01*
X207879957Y-125540776D01*
X207992131Y-125405180D01*
X208128507Y-125293955D01*
X208283889Y-125211337D01*
X208452359Y-125160473D01*
X208627500Y-125143300D01*
X208942534Y-125143300D01*
X208953035Y-125143373D01*
X208953035Y-125143373D01*
G37*
G36*
X156012690Y-126898440D02*
X154536950Y-126898440D01*
X154536950Y-125821480D01*
X156012690Y-125821480D01*
X156012690Y-126898440D01*
X156012690Y-126898440D01*
G37*
G36*
X153813050Y-126898440D02*
X152337310Y-126898440D01*
X152337310Y-125821480D01*
X153813050Y-125821480D01*
X153813050Y-126898440D01*
X153813050Y-126898440D01*
G37*
G36*
X153813050Y-125277920D02*
X152337310Y-125277920D01*
X152337310Y-124002840D01*
X153813050Y-124002840D01*
X153813050Y-125277920D01*
X153813050Y-125277920D01*
G37*
G36*
X156012690Y-124998520D02*
X154536950Y-124998520D01*
X154536950Y-123921560D01*
X156012690Y-123921560D01*
X156012690Y-124998520D01*
X156012690Y-124998520D01*
G37*
G36*
X158473100Y-124608100D02*
X157496900Y-124608100D01*
X157496900Y-123331900D01*
X158473100Y-123331900D01*
X158473100Y-124608100D01*
X158473100Y-124608100D01*
G37*
G36*
X150853100Y-124608100D02*
X149876900Y-124608100D01*
X149876900Y-123331900D01*
X150853100Y-123331900D01*
X150853100Y-124608100D01*
X150853100Y-124608100D01*
G37*
G36*
X181803100Y-124553100D02*
X180526900Y-124553100D01*
X180526900Y-123726900D01*
X181803100Y-123726900D01*
X181803100Y-124553100D01*
X181803100Y-124553100D01*
G37*
G36*
X183703100Y-124553100D02*
X182426900Y-124553100D01*
X182426900Y-123726900D01*
X183703100Y-123726900D01*
X183703100Y-124553100D01*
X183703100Y-124553100D01*
G37*
G36*
X208953035Y-122603373D02*
X208953041Y-122603374D01*
X208955090Y-122603388D01*
X209129974Y-122623004D01*
X209297717Y-122676216D01*
X209451931Y-122760995D01*
X209586740Y-122874114D01*
X209697010Y-123011262D01*
X209778542Y-123167217D01*
X209828228Y-123336038D01*
X209828231Y-123336069D01*
X209828235Y-123336083D01*
X209844180Y-123511292D01*
X209825789Y-123686265D01*
X209825787Y-123686270D01*
X209825783Y-123686312D01*
X209773744Y-123854423D01*
X209690043Y-124009224D01*
X209577869Y-124144820D01*
X209441493Y-124256045D01*
X209286111Y-124338663D01*
X209117641Y-124389527D01*
X208942500Y-124406700D01*
X208627466Y-124406700D01*
X208616965Y-124406627D01*
X208616959Y-124406626D01*
X208614910Y-124406612D01*
X208440026Y-124386996D01*
X208272283Y-124333784D01*
X208118069Y-124249005D01*
X207983260Y-124135886D01*
X207872990Y-123998738D01*
X207791458Y-123842783D01*
X207741772Y-123673962D01*
X207741769Y-123673931D01*
X207741765Y-123673917D01*
X207725820Y-123498708D01*
X207744211Y-123323735D01*
X207744213Y-123323730D01*
X207744217Y-123323688D01*
X207796256Y-123155577D01*
X207879957Y-123000776D01*
X207992131Y-122865180D01*
X208128507Y-122753955D01*
X208283889Y-122671337D01*
X208452359Y-122620473D01*
X208627500Y-122603300D01*
X208942534Y-122603300D01*
X208953035Y-122603373D01*
X208953035Y-122603373D01*
G37*
G36*
X188803100Y-123523100D02*
X188126900Y-123523100D01*
X188126900Y-121896900D01*
X188803100Y-121896900D01*
X188803100Y-123523100D01*
X188803100Y-123523100D01*
G37*
G36*
X187533100Y-123523100D02*
X186856900Y-123523100D01*
X186856900Y-121896900D01*
X187533100Y-121896900D01*
X187533100Y-123523100D01*
X187533100Y-123523100D01*
G37*
G36*
X186263100Y-123523100D02*
X185586900Y-123523100D01*
X185586900Y-121896900D01*
X186263100Y-121896900D01*
X186263100Y-123523100D01*
X186263100Y-123523100D01*
G37*
G36*
X184993100Y-123523100D02*
X184316900Y-123523100D01*
X184316900Y-121896900D01*
X184993100Y-121896900D01*
X184993100Y-123523100D01*
X184993100Y-123523100D01*
G37*
G36*
X178478100Y-122723100D02*
X177201900Y-122723100D01*
X177201900Y-121746900D01*
X178478100Y-121746900D01*
X178478100Y-122723100D01*
X178478100Y-122723100D01*
G37*
G36*
X180678100Y-122723100D02*
X179401900Y-122723100D01*
X179401900Y-121746900D01*
X180678100Y-121746900D01*
X180678100Y-122723100D01*
X180678100Y-122723100D01*
G37*
G36*
X155763100Y-122648100D02*
X154486900Y-122648100D01*
X154486900Y-121821900D01*
X155763100Y-121821900D01*
X155763100Y-122648100D01*
X155763100Y-122648100D01*
G37*
G36*
X153863100Y-122648100D02*
X152586900Y-122648100D01*
X152586900Y-121821900D01*
X153863100Y-121821900D01*
X153863100Y-122648100D01*
X153863100Y-122648100D01*
G37*
G36*
X199616870Y-122438200D02*
X195941490Y-122438200D01*
X195941490Y-120761800D01*
X199616870Y-120761800D01*
X199616870Y-122438200D01*
X199616870Y-122438200D01*
G37*
G36*
X205118510Y-122438200D02*
X201443130Y-122438200D01*
X201443130Y-120761800D01*
X205118510Y-120761800D01*
X205118510Y-122438200D01*
X205118510Y-122438200D01*
G37*
G36*
X150853100Y-122408100D02*
X149876900Y-122408100D01*
X149876900Y-121131900D01*
X150853100Y-121131900D01*
X150853100Y-122408100D01*
X150853100Y-122408100D01*
G37*
G36*
X158473100Y-122408100D02*
X157496900Y-122408100D01*
X157496900Y-121131900D01*
X158473100Y-121131900D01*
X158473100Y-122408100D01*
X158473100Y-122408100D01*
G37*
G36*
X192448100Y-122088100D02*
X191171900Y-122088100D01*
X191171900Y-121111900D01*
X192448100Y-121111900D01*
X192448100Y-122088100D01*
X192448100Y-122088100D01*
G37*
G36*
X194648100Y-122088100D02*
X193371900Y-122088100D01*
X193371900Y-121111900D01*
X194648100Y-121111900D01*
X194648100Y-122088100D01*
X194648100Y-122088100D01*
G37*
G36*
X182758100Y-120743100D02*
X181481900Y-120743100D01*
X181481900Y-119916900D01*
X182758100Y-119916900D01*
X182758100Y-120743100D01*
X182758100Y-120743100D01*
G37*
G36*
X184658100Y-120743100D02*
X183381900Y-120743100D01*
X183381900Y-119916900D01*
X184658100Y-119916900D01*
X184658100Y-120743100D01*
X184658100Y-120743100D01*
G37*
G36*
X188933100Y-119548100D02*
X187656900Y-119548100D01*
X187656900Y-118571900D01*
X188933100Y-118571900D01*
X188933100Y-119548100D01*
X188933100Y-119548100D01*
G37*
G36*
X186733100Y-119548100D02*
X185456900Y-119548100D01*
X185456900Y-118571900D01*
X186733100Y-118571900D01*
X186733100Y-119548100D01*
X186733100Y-119548100D01*
G37*
G36*
X192593100Y-119473100D02*
X191316900Y-119473100D01*
X191316900Y-118646900D01*
X192593100Y-118646900D01*
X192593100Y-119473100D01*
X192593100Y-119473100D01*
G37*
G36*
X190693100Y-119473100D02*
X189416900Y-119473100D01*
X189416900Y-118646900D01*
X190693100Y-118646900D01*
X190693100Y-119473100D01*
X190693100Y-119473100D01*
G37*
G36*
X185758100Y-117643100D02*
X184481900Y-117643100D01*
X184481900Y-116666900D01*
X185758100Y-116666900D01*
X185758100Y-117643100D01*
X185758100Y-117643100D01*
G37*
G36*
X183558100Y-117643100D02*
X182281900Y-117643100D01*
X182281900Y-116666900D01*
X183558100Y-116666900D01*
X183558100Y-117643100D01*
X183558100Y-117643100D01*
G37*
G36*
X187518100Y-117568100D02*
X186241900Y-117568100D01*
X186241900Y-116741900D01*
X187518100Y-116741900D01*
X187518100Y-117568100D01*
X187518100Y-117568100D01*
G37*
G36*
X189418100Y-117568100D02*
X188141900Y-117568100D01*
X188141900Y-116741900D01*
X189418100Y-116741900D01*
X189418100Y-117568100D01*
X189418100Y-117568100D01*
G37*
G36*
X209839100Y-115516700D02*
X207730900Y-115516700D01*
X207730900Y-113713300D01*
X209839100Y-113713300D01*
X209839100Y-115516700D01*
X209839100Y-115516700D01*
G37*
G36*
X199616870Y-115453200D02*
X195941490Y-115453200D01*
X195941490Y-113776800D01*
X199616870Y-113776800D01*
X199616870Y-115453200D01*
X199616870Y-115453200D01*
G37*
G36*
X205118510Y-115453200D02*
X201443130Y-115453200D01*
X201443130Y-113776800D01*
X205118510Y-113776800D01*
X205118510Y-115453200D01*
X205118510Y-115453200D01*
G37*
G36*
X182528100Y-115253100D02*
X181701900Y-115253100D01*
X181701900Y-113976900D01*
X182528100Y-113976900D01*
X182528100Y-115253100D01*
X182528100Y-115253100D01*
G37*
G36*
X192448100Y-115103100D02*
X191171900Y-115103100D01*
X191171900Y-114126900D01*
X192448100Y-114126900D01*
X192448100Y-115103100D01*
X192448100Y-115103100D01*
G37*
G36*
X194648100Y-115103100D02*
X193371900Y-115103100D01*
X193371900Y-114126900D01*
X194648100Y-114126900D01*
X194648100Y-115103100D01*
X194648100Y-115103100D01*
G37*
G36*
X187533100Y-114953100D02*
X186856900Y-114953100D01*
X186856900Y-113326900D01*
X187533100Y-113326900D01*
X187533100Y-114953100D01*
X187533100Y-114953100D01*
G37*
G36*
X188803100Y-114953100D02*
X188126900Y-114953100D01*
X188126900Y-113326900D01*
X188803100Y-113326900D01*
X188803100Y-114953100D01*
X188803100Y-114953100D01*
G37*
G36*
X186263100Y-114953100D02*
X185586900Y-114953100D01*
X185586900Y-113326900D01*
X186263100Y-113326900D01*
X186263100Y-114953100D01*
X186263100Y-114953100D01*
G37*
G36*
X184993100Y-114953100D02*
X184316900Y-114953100D01*
X184316900Y-113326900D01*
X184993100Y-113326900D01*
X184993100Y-114953100D01*
X184993100Y-114953100D01*
G37*
G36*
X119264898Y-113078373D02*
X119264904Y-113078374D01*
X119266953Y-113078388D01*
X119441837Y-113098004D01*
X119609580Y-113151216D01*
X119763794Y-113235995D01*
X119898603Y-113349114D01*
X120008873Y-113486262D01*
X120090405Y-113642217D01*
X120140091Y-113811038D01*
X120140094Y-113811069D01*
X120140098Y-113811083D01*
X120156043Y-113986292D01*
X120137652Y-114161265D01*
X120137650Y-114161270D01*
X120137646Y-114161312D01*
X120085607Y-114329423D01*
X120001906Y-114484224D01*
X119889732Y-114619820D01*
X119753356Y-114731045D01*
X119597974Y-114813663D01*
X119429504Y-114864527D01*
X119254363Y-114881700D01*
X119245603Y-114881700D01*
X119235102Y-114881627D01*
X119235096Y-114881626D01*
X119233047Y-114881612D01*
X119058163Y-114861996D01*
X118890420Y-114808784D01*
X118736206Y-114724005D01*
X118601397Y-114610886D01*
X118491127Y-114473738D01*
X118409595Y-114317783D01*
X118359909Y-114148962D01*
X118359906Y-114148931D01*
X118359902Y-114148917D01*
X118343957Y-113973708D01*
X118362348Y-113798735D01*
X118362350Y-113798730D01*
X118362354Y-113798688D01*
X118414393Y-113630577D01*
X118498094Y-113475776D01*
X118610268Y-113340180D01*
X118746644Y-113228955D01*
X118902026Y-113146337D01*
X119070496Y-113095473D01*
X119245637Y-113078300D01*
X119254397Y-113078300D01*
X119264898Y-113078373D01*
X119264898Y-113078373D01*
G37*
G36*
X116724898Y-113078373D02*
X116724904Y-113078374D01*
X116726953Y-113078388D01*
X116901837Y-113098004D01*
X117069580Y-113151216D01*
X117223794Y-113235995D01*
X117358603Y-113349114D01*
X117468873Y-113486262D01*
X117550405Y-113642217D01*
X117600091Y-113811038D01*
X117600094Y-113811069D01*
X117600098Y-113811083D01*
X117616043Y-113986292D01*
X117597652Y-114161265D01*
X117597650Y-114161270D01*
X117597646Y-114161312D01*
X117545607Y-114329423D01*
X117461906Y-114484224D01*
X117349732Y-114619820D01*
X117213356Y-114731045D01*
X117057974Y-114813663D01*
X116889504Y-114864527D01*
X116714363Y-114881700D01*
X116705603Y-114881700D01*
X116695102Y-114881627D01*
X116695096Y-114881626D01*
X116693047Y-114881612D01*
X116518163Y-114861996D01*
X116350420Y-114808784D01*
X116196206Y-114724005D01*
X116061397Y-114610886D01*
X115951127Y-114473738D01*
X115869595Y-114317783D01*
X115819909Y-114148962D01*
X115819906Y-114148931D01*
X115819902Y-114148917D01*
X115803957Y-113973708D01*
X115822348Y-113798735D01*
X115822350Y-113798730D01*
X115822354Y-113798688D01*
X115874393Y-113630577D01*
X115958094Y-113475776D01*
X116070268Y-113340180D01*
X116206644Y-113228955D01*
X116362026Y-113146337D01*
X116530496Y-113095473D01*
X116705637Y-113078300D01*
X116714397Y-113078300D01*
X116724898Y-113078373D01*
X116724898Y-113078373D01*
G37*
G36*
X178478100Y-114468100D02*
X177201900Y-114468100D01*
X177201900Y-113491900D01*
X178478100Y-113491900D01*
X178478100Y-114468100D01*
X178478100Y-114468100D01*
G37*
G36*
X180678100Y-114468100D02*
X179401900Y-114468100D01*
X179401900Y-113491900D01*
X180678100Y-113491900D01*
X180678100Y-114468100D01*
X180678100Y-114468100D01*
G37*
G36*
X182528100Y-113353100D02*
X181701900Y-113353100D01*
X181701900Y-112076900D01*
X182528100Y-112076900D01*
X182528100Y-113353100D01*
X182528100Y-113353100D01*
G37*
G36*
X208953035Y-111173373D02*
X208953041Y-111173374D01*
X208955090Y-111173388D01*
X209129974Y-111193004D01*
X209297717Y-111246216D01*
X209451931Y-111330995D01*
X209586740Y-111444114D01*
X209697010Y-111581262D01*
X209778542Y-111737217D01*
X209828228Y-111906038D01*
X209828231Y-111906069D01*
X209828235Y-111906083D01*
X209844180Y-112081292D01*
X209825789Y-112256265D01*
X209825787Y-112256270D01*
X209825783Y-112256312D01*
X209773744Y-112424423D01*
X209690043Y-112579224D01*
X209577869Y-112714820D01*
X209441493Y-112826045D01*
X209286111Y-112908663D01*
X209117641Y-112959527D01*
X208942500Y-112976700D01*
X208627466Y-112976700D01*
X208616965Y-112976627D01*
X208616959Y-112976626D01*
X208614910Y-112976612D01*
X208440026Y-112956996D01*
X208272283Y-112903784D01*
X208118069Y-112819005D01*
X207983260Y-112705886D01*
X207872990Y-112568738D01*
X207791458Y-112412783D01*
X207741772Y-112243962D01*
X207741769Y-112243931D01*
X207741765Y-112243917D01*
X207725820Y-112068708D01*
X207744211Y-111893735D01*
X207744213Y-111893730D01*
X207744217Y-111893688D01*
X207796256Y-111725577D01*
X207879957Y-111570776D01*
X207992131Y-111435180D01*
X208128507Y-111323955D01*
X208283889Y-111241337D01*
X208452359Y-111190473D01*
X208627500Y-111173300D01*
X208942534Y-111173300D01*
X208953035Y-111173373D01*
X208953035Y-111173373D01*
G37*
G36*
X116724898Y-110538373D02*
X116724904Y-110538374D01*
X116726953Y-110538388D01*
X116901837Y-110558004D01*
X117069580Y-110611216D01*
X117223794Y-110695995D01*
X117358603Y-110809114D01*
X117468873Y-110946262D01*
X117550405Y-111102217D01*
X117600091Y-111271038D01*
X117600094Y-111271069D01*
X117600098Y-111271083D01*
X117616043Y-111446292D01*
X117597652Y-111621265D01*
X117597650Y-111621270D01*
X117597646Y-111621312D01*
X117545607Y-111789423D01*
X117461906Y-111944224D01*
X117349732Y-112079820D01*
X117213356Y-112191045D01*
X117057974Y-112273663D01*
X116889504Y-112324527D01*
X116714363Y-112341700D01*
X116705603Y-112341700D01*
X116695102Y-112341627D01*
X116695096Y-112341626D01*
X116693047Y-112341612D01*
X116518163Y-112321996D01*
X116350420Y-112268784D01*
X116196206Y-112184005D01*
X116061397Y-112070886D01*
X115951127Y-111933738D01*
X115869595Y-111777783D01*
X115819909Y-111608962D01*
X115819906Y-111608931D01*
X115819902Y-111608917D01*
X115803957Y-111433708D01*
X115822348Y-111258735D01*
X115822350Y-111258730D01*
X115822354Y-111258688D01*
X115874393Y-111090577D01*
X115958094Y-110935776D01*
X116070268Y-110800180D01*
X116206644Y-110688955D01*
X116362026Y-110606337D01*
X116530496Y-110555473D01*
X116705637Y-110538300D01*
X116714397Y-110538300D01*
X116724898Y-110538373D01*
X116724898Y-110538373D01*
G37*
G36*
X119264898Y-110538373D02*
X119264904Y-110538374D01*
X119266953Y-110538388D01*
X119441837Y-110558004D01*
X119609580Y-110611216D01*
X119763794Y-110695995D01*
X119898603Y-110809114D01*
X120008873Y-110946262D01*
X120090405Y-111102217D01*
X120140091Y-111271038D01*
X120140094Y-111271069D01*
X120140098Y-111271083D01*
X120156043Y-111446292D01*
X120137652Y-111621265D01*
X120137650Y-111621270D01*
X120137646Y-111621312D01*
X120085607Y-111789423D01*
X120001906Y-111944224D01*
X119889732Y-112079820D01*
X119753356Y-112191045D01*
X119597974Y-112273663D01*
X119429504Y-112324527D01*
X119254363Y-112341700D01*
X119245603Y-112341700D01*
X119235102Y-112341627D01*
X119235096Y-112341626D01*
X119233047Y-112341612D01*
X119058163Y-112321996D01*
X118890420Y-112268784D01*
X118736206Y-112184005D01*
X118601397Y-112070886D01*
X118491127Y-111933738D01*
X118409595Y-111777783D01*
X118359909Y-111608962D01*
X118359906Y-111608931D01*
X118359902Y-111608917D01*
X118343957Y-111433708D01*
X118362348Y-111258735D01*
X118362350Y-111258730D01*
X118362354Y-111258688D01*
X118414393Y-111090577D01*
X118498094Y-110935776D01*
X118610268Y-110800180D01*
X118746644Y-110688955D01*
X118902026Y-110606337D01*
X119070496Y-110555473D01*
X119245637Y-110538300D01*
X119254397Y-110538300D01*
X119264898Y-110538373D01*
X119264898Y-110538373D01*
G37*
G36*
X129456100Y-112182100D02*
X128179900Y-112182100D01*
X128179900Y-111205900D01*
X129456100Y-111205900D01*
X129456100Y-112182100D01*
X129456100Y-112182100D01*
G37*
G36*
X131656100Y-112182100D02*
X130379900Y-112182100D01*
X130379900Y-111205900D01*
X131656100Y-111205900D01*
X131656100Y-112182100D01*
X131656100Y-112182100D01*
G37*
G36*
X124798100Y-111928100D02*
X123521900Y-111928100D01*
X123521900Y-110951900D01*
X124798100Y-110951900D01*
X124798100Y-111928100D01*
X124798100Y-111928100D01*
G37*
G36*
X122598100Y-111928100D02*
X121321900Y-111928100D01*
X121321900Y-110951900D01*
X122598100Y-110951900D01*
X122598100Y-111928100D01*
X122598100Y-111928100D01*
G37*
G36*
X181803100Y-110583100D02*
X180526900Y-110583100D01*
X180526900Y-109756900D01*
X181803100Y-109756900D01*
X181803100Y-110583100D01*
X181803100Y-110583100D01*
G37*
G36*
X183703100Y-110583100D02*
X182426900Y-110583100D01*
X182426900Y-109756900D01*
X183703100Y-109756900D01*
X183703100Y-110583100D01*
X183703100Y-110583100D01*
G37*
G36*
X208953035Y-108633373D02*
X208953041Y-108633374D01*
X208955090Y-108633388D01*
X209129974Y-108653004D01*
X209297717Y-108706216D01*
X209451931Y-108790995D01*
X209586740Y-108904114D01*
X209697010Y-109041262D01*
X209778542Y-109197217D01*
X209828228Y-109366038D01*
X209828231Y-109366069D01*
X209828235Y-109366083D01*
X209844180Y-109541292D01*
X209825789Y-109716265D01*
X209825787Y-109716270D01*
X209825783Y-109716312D01*
X209773744Y-109884423D01*
X209690043Y-110039224D01*
X209577869Y-110174820D01*
X209441493Y-110286045D01*
X209286111Y-110368663D01*
X209117641Y-110419527D01*
X208942500Y-110436700D01*
X208627466Y-110436700D01*
X208616965Y-110436627D01*
X208616959Y-110436626D01*
X208614910Y-110436612D01*
X208440026Y-110416996D01*
X208272283Y-110363784D01*
X208118069Y-110279005D01*
X207983260Y-110165886D01*
X207872990Y-110028738D01*
X207791458Y-109872783D01*
X207741772Y-109703962D01*
X207741769Y-109703931D01*
X207741765Y-109703917D01*
X207725820Y-109528708D01*
X207744211Y-109353735D01*
X207744213Y-109353730D01*
X207744217Y-109353688D01*
X207796256Y-109185577D01*
X207879957Y-109030776D01*
X207992131Y-108895180D01*
X208128507Y-108783955D01*
X208283889Y-108701337D01*
X208452359Y-108650473D01*
X208627500Y-108633300D01*
X208942534Y-108633300D01*
X208953035Y-108633373D01*
X208953035Y-108633373D01*
G37*
G36*
X116724898Y-107998373D02*
X116724904Y-107998374D01*
X116726953Y-107998388D01*
X116901837Y-108018004D01*
X117069580Y-108071216D01*
X117223794Y-108155995D01*
X117358603Y-108269114D01*
X117468873Y-108406262D01*
X117550405Y-108562217D01*
X117600091Y-108731038D01*
X117600094Y-108731069D01*
X117600098Y-108731083D01*
X117616043Y-108906292D01*
X117597652Y-109081265D01*
X117597650Y-109081270D01*
X117597646Y-109081312D01*
X117545607Y-109249423D01*
X117461906Y-109404224D01*
X117349732Y-109539820D01*
X117213356Y-109651045D01*
X117057974Y-109733663D01*
X116889504Y-109784527D01*
X116714363Y-109801700D01*
X116705603Y-109801700D01*
X116695102Y-109801627D01*
X116695096Y-109801626D01*
X116693047Y-109801612D01*
X116518163Y-109781996D01*
X116350420Y-109728784D01*
X116196206Y-109644005D01*
X116061397Y-109530886D01*
X115951127Y-109393738D01*
X115869595Y-109237783D01*
X115819909Y-109068962D01*
X115819906Y-109068931D01*
X115819902Y-109068917D01*
X115803957Y-108893708D01*
X115822348Y-108718735D01*
X115822350Y-108718730D01*
X115822354Y-108718688D01*
X115874393Y-108550577D01*
X115958094Y-108395776D01*
X116070268Y-108260180D01*
X116206644Y-108148955D01*
X116362026Y-108066337D01*
X116530496Y-108015473D01*
X116705637Y-107998300D01*
X116714397Y-107998300D01*
X116724898Y-107998373D01*
X116724898Y-107998373D01*
G37*
G36*
X119264898Y-107998373D02*
X119264904Y-107998374D01*
X119266953Y-107998388D01*
X119441837Y-108018004D01*
X119609580Y-108071216D01*
X119763794Y-108155995D01*
X119898603Y-108269114D01*
X120008873Y-108406262D01*
X120090405Y-108562217D01*
X120140091Y-108731038D01*
X120140094Y-108731069D01*
X120140098Y-108731083D01*
X120156043Y-108906292D01*
X120137652Y-109081265D01*
X120137650Y-109081270D01*
X120137646Y-109081312D01*
X120085607Y-109249423D01*
X120001906Y-109404224D01*
X119889732Y-109539820D01*
X119753356Y-109651045D01*
X119597974Y-109733663D01*
X119429504Y-109784527D01*
X119254363Y-109801700D01*
X119245603Y-109801700D01*
X119235102Y-109801627D01*
X119235096Y-109801626D01*
X119233047Y-109801612D01*
X119058163Y-109781996D01*
X118890420Y-109728784D01*
X118736206Y-109644005D01*
X118601397Y-109530886D01*
X118491127Y-109393738D01*
X118409595Y-109237783D01*
X118359909Y-109068962D01*
X118359906Y-109068931D01*
X118359902Y-109068917D01*
X118343957Y-108893708D01*
X118362348Y-108718735D01*
X118362350Y-108718730D01*
X118362354Y-108718688D01*
X118414393Y-108550577D01*
X118498094Y-108395776D01*
X118610268Y-108260180D01*
X118746644Y-108148955D01*
X118902026Y-108066337D01*
X119070496Y-108015473D01*
X119245637Y-107998300D01*
X119254397Y-107998300D01*
X119264898Y-107998373D01*
X119264898Y-107998373D01*
G37*
G36*
X188803100Y-109553100D02*
X188126900Y-109553100D01*
X188126900Y-107926900D01*
X188803100Y-107926900D01*
X188803100Y-109553100D01*
X188803100Y-109553100D01*
G37*
G36*
X184993100Y-109553100D02*
X184316900Y-109553100D01*
X184316900Y-107926900D01*
X184993100Y-107926900D01*
X184993100Y-109553100D01*
X184993100Y-109553100D01*
G37*
G36*
X186263100Y-109553100D02*
X185586900Y-109553100D01*
X185586900Y-107926900D01*
X186263100Y-107926900D01*
X186263100Y-109553100D01*
X186263100Y-109553100D01*
G37*
G36*
X187533100Y-109553100D02*
X186856900Y-109553100D01*
X186856900Y-107926900D01*
X187533100Y-107926900D01*
X187533100Y-109553100D01*
X187533100Y-109553100D01*
G37*
G36*
X122598100Y-109388100D02*
X121321900Y-109388100D01*
X121321900Y-108411900D01*
X122598100Y-108411900D01*
X122598100Y-109388100D01*
X122598100Y-109388100D01*
G37*
G36*
X124798100Y-109388100D02*
X123521900Y-109388100D01*
X123521900Y-108411900D01*
X124798100Y-108411900D01*
X124798100Y-109388100D01*
X124798100Y-109388100D01*
G37*
G36*
X178478100Y-108753100D02*
X177201900Y-108753100D01*
X177201900Y-107776900D01*
X178478100Y-107776900D01*
X178478100Y-108753100D01*
X178478100Y-108753100D01*
G37*
G36*
X180678100Y-108753100D02*
X179401900Y-108753100D01*
X179401900Y-107776900D01*
X180678100Y-107776900D01*
X180678100Y-108753100D01*
X180678100Y-108753100D01*
G37*
G36*
X205118510Y-108468200D02*
X201443130Y-108468200D01*
X201443130Y-106791800D01*
X205118510Y-106791800D01*
X205118510Y-108468200D01*
X205118510Y-108468200D01*
G37*
G36*
X199616870Y-108468200D02*
X195941490Y-108468200D01*
X195941490Y-106791800D01*
X199616870Y-106791800D01*
X199616870Y-108468200D01*
X199616870Y-108468200D01*
G37*
G36*
X194648100Y-108118100D02*
X193371900Y-108118100D01*
X193371900Y-107141900D01*
X194648100Y-107141900D01*
X194648100Y-108118100D01*
X194648100Y-108118100D01*
G37*
G36*
X192448100Y-108118100D02*
X191171900Y-108118100D01*
X191171900Y-107141900D01*
X192448100Y-107141900D01*
X192448100Y-108118100D01*
X192448100Y-108118100D01*
G37*
G36*
X143158100Y-107948100D02*
X142331900Y-107948100D01*
X142331900Y-106671900D01*
X143158100Y-106671900D01*
X143158100Y-107948100D01*
X143158100Y-107948100D01*
G37*
G36*
X119264898Y-105458373D02*
X119264904Y-105458374D01*
X119266953Y-105458388D01*
X119441837Y-105478004D01*
X119609580Y-105531216D01*
X119763794Y-105615995D01*
X119898603Y-105729114D01*
X120008873Y-105866262D01*
X120090405Y-106022217D01*
X120140091Y-106191038D01*
X120140094Y-106191069D01*
X120140098Y-106191083D01*
X120156043Y-106366292D01*
X120137652Y-106541265D01*
X120137650Y-106541270D01*
X120137646Y-106541312D01*
X120085607Y-106709423D01*
X120001906Y-106864224D01*
X119889732Y-106999820D01*
X119753356Y-107111045D01*
X119597974Y-107193663D01*
X119429504Y-107244527D01*
X119254363Y-107261700D01*
X119245603Y-107261700D01*
X119235102Y-107261627D01*
X119235096Y-107261626D01*
X119233047Y-107261612D01*
X119058163Y-107241996D01*
X118890420Y-107188784D01*
X118736206Y-107104005D01*
X118601397Y-106990886D01*
X118491127Y-106853738D01*
X118409595Y-106697783D01*
X118359909Y-106528962D01*
X118359906Y-106528931D01*
X118359902Y-106528917D01*
X118343957Y-106353708D01*
X118362348Y-106178735D01*
X118362350Y-106178730D01*
X118362354Y-106178688D01*
X118414393Y-106010577D01*
X118498094Y-105855776D01*
X118610268Y-105720180D01*
X118746644Y-105608955D01*
X118902026Y-105526337D01*
X119070496Y-105475473D01*
X119245637Y-105458300D01*
X119254397Y-105458300D01*
X119264898Y-105458373D01*
X119264898Y-105458373D01*
G37*
G36*
X116724898Y-105458373D02*
X116724904Y-105458374D01*
X116726953Y-105458388D01*
X116901837Y-105478004D01*
X117069580Y-105531216D01*
X117223794Y-105615995D01*
X117358603Y-105729114D01*
X117468873Y-105866262D01*
X117550405Y-106022217D01*
X117600091Y-106191038D01*
X117600094Y-106191069D01*
X117600098Y-106191083D01*
X117616043Y-106366292D01*
X117597652Y-106541265D01*
X117597650Y-106541270D01*
X117597646Y-106541312D01*
X117545607Y-106709423D01*
X117461906Y-106864224D01*
X117349732Y-106999820D01*
X117213356Y-107111045D01*
X117057974Y-107193663D01*
X116889504Y-107244527D01*
X116714363Y-107261700D01*
X116705603Y-107261700D01*
X116695102Y-107261627D01*
X116695096Y-107261626D01*
X116693047Y-107261612D01*
X116518163Y-107241996D01*
X116350420Y-107188784D01*
X116196206Y-107104005D01*
X116061397Y-106990886D01*
X115951127Y-106853738D01*
X115869595Y-106697783D01*
X115819909Y-106528962D01*
X115819906Y-106528931D01*
X115819902Y-106528917D01*
X115803957Y-106353708D01*
X115822348Y-106178735D01*
X115822350Y-106178730D01*
X115822354Y-106178688D01*
X115874393Y-106010577D01*
X115958094Y-105855776D01*
X116070268Y-105720180D01*
X116206644Y-105608955D01*
X116362026Y-105526337D01*
X116530496Y-105475473D01*
X116705637Y-105458300D01*
X116714397Y-105458300D01*
X116724898Y-105458373D01*
X116724898Y-105458373D01*
G37*
G36*
X154982720Y-107198200D02*
X152305560Y-107198200D01*
X152305560Y-105521800D01*
X154982720Y-105521800D01*
X154982720Y-107198200D01*
X154982720Y-107198200D01*
G37*
G36*
X158584440Y-107198200D02*
X155907280Y-107198200D01*
X155907280Y-105521800D01*
X158584440Y-105521800D01*
X158584440Y-107198200D01*
X158584440Y-107198200D01*
G37*
G36*
X124798100Y-106848100D02*
X123521900Y-106848100D01*
X123521900Y-105871900D01*
X124798100Y-105871900D01*
X124798100Y-106848100D01*
X124798100Y-106848100D01*
G37*
G36*
X122598100Y-106848100D02*
X121321900Y-106848100D01*
X121321900Y-105871900D01*
X122598100Y-105871900D01*
X122598100Y-106848100D01*
X122598100Y-106848100D01*
G37*
G36*
X182753100Y-106773100D02*
X181476900Y-106773100D01*
X181476900Y-105946900D01*
X182753100Y-105946900D01*
X182753100Y-106773100D01*
X182753100Y-106773100D01*
G37*
G36*
X150683100Y-106773100D02*
X149406900Y-106773100D01*
X149406900Y-105946900D01*
X150683100Y-105946900D01*
X150683100Y-106773100D01*
X150683100Y-106773100D01*
G37*
G36*
X184653100Y-106773100D02*
X183376900Y-106773100D01*
X183376900Y-105946900D01*
X184653100Y-105946900D01*
X184653100Y-106773100D01*
X184653100Y-106773100D01*
G37*
G36*
X148783100Y-106773100D02*
X147506900Y-106773100D01*
X147506900Y-105946900D01*
X148783100Y-105946900D01*
X148783100Y-106773100D01*
X148783100Y-106773100D01*
G37*
G36*
X163533100Y-106213100D02*
X162256900Y-106213100D01*
X162256900Y-105236900D01*
X163533100Y-105236900D01*
X163533100Y-106213100D01*
X163533100Y-106213100D01*
G37*
G36*
X161333100Y-106213100D02*
X160056900Y-106213100D01*
X160056900Y-105236900D01*
X161333100Y-105236900D01*
X161333100Y-106213100D01*
X161333100Y-106213100D01*
G37*
G36*
X143158100Y-106048100D02*
X142331900Y-106048100D01*
X142331900Y-104771900D01*
X143158100Y-104771900D01*
X143158100Y-106048100D01*
X143158100Y-106048100D01*
G37*
G36*
X186733100Y-105578100D02*
X185456900Y-105578100D01*
X185456900Y-104601900D01*
X186733100Y-104601900D01*
X186733100Y-105578100D01*
X186733100Y-105578100D01*
G37*
G36*
X188933100Y-105578100D02*
X187656900Y-105578100D01*
X187656900Y-104601900D01*
X188933100Y-104601900D01*
X188933100Y-105578100D01*
X188933100Y-105578100D01*
G37*
G36*
X190693100Y-105503100D02*
X189416900Y-105503100D01*
X189416900Y-104676900D01*
X190693100Y-104676900D01*
X190693100Y-105503100D01*
X190693100Y-105503100D01*
G37*
G36*
X192593100Y-105503100D02*
X191316900Y-105503100D01*
X191316900Y-104676900D01*
X192593100Y-104676900D01*
X192593100Y-105503100D01*
X192593100Y-105503100D01*
G37*
G36*
X116724898Y-102918373D02*
X116724904Y-102918374D01*
X116726953Y-102918388D01*
X116901837Y-102938004D01*
X117069580Y-102991216D01*
X117223794Y-103075995D01*
X117358603Y-103189114D01*
X117468873Y-103326262D01*
X117550405Y-103482217D01*
X117600091Y-103651038D01*
X117600094Y-103651069D01*
X117600098Y-103651083D01*
X117616043Y-103826292D01*
X117597652Y-104001265D01*
X117597650Y-104001270D01*
X117597646Y-104001312D01*
X117545607Y-104169423D01*
X117461906Y-104324224D01*
X117349732Y-104459820D01*
X117213356Y-104571045D01*
X117057974Y-104653663D01*
X116889504Y-104704527D01*
X116714363Y-104721700D01*
X116705603Y-104721700D01*
X116695102Y-104721627D01*
X116695096Y-104721626D01*
X116693047Y-104721612D01*
X116518163Y-104701996D01*
X116350420Y-104648784D01*
X116196206Y-104564005D01*
X116061397Y-104450886D01*
X115951127Y-104313738D01*
X115869595Y-104157783D01*
X115819909Y-103988962D01*
X115819906Y-103988931D01*
X115819902Y-103988917D01*
X115803957Y-103813708D01*
X115822348Y-103638735D01*
X115822350Y-103638730D01*
X115822354Y-103638688D01*
X115874393Y-103470577D01*
X115958094Y-103315776D01*
X116070268Y-103180180D01*
X116206644Y-103068955D01*
X116362026Y-102986337D01*
X116530496Y-102935473D01*
X116705637Y-102918300D01*
X116714397Y-102918300D01*
X116724898Y-102918373D01*
X116724898Y-102918373D01*
G37*
G36*
X119264898Y-102918373D02*
X119264904Y-102918374D01*
X119266953Y-102918388D01*
X119441837Y-102938004D01*
X119609580Y-102991216D01*
X119763794Y-103075995D01*
X119898603Y-103189114D01*
X120008873Y-103326262D01*
X120090405Y-103482217D01*
X120140091Y-103651038D01*
X120140094Y-103651069D01*
X120140098Y-103651083D01*
X120156043Y-103826292D01*
X120137652Y-104001265D01*
X120137650Y-104001270D01*
X120137646Y-104001312D01*
X120085607Y-104169423D01*
X120001906Y-104324224D01*
X119889732Y-104459820D01*
X119753356Y-104571045D01*
X119597974Y-104653663D01*
X119429504Y-104704527D01*
X119254363Y-104721700D01*
X119245603Y-104721700D01*
X119235102Y-104721627D01*
X119235096Y-104721626D01*
X119233047Y-104721612D01*
X119058163Y-104701996D01*
X118890420Y-104648784D01*
X118736206Y-104564005D01*
X118601397Y-104450886D01*
X118491127Y-104313738D01*
X118409595Y-104157783D01*
X118359909Y-103988962D01*
X118359906Y-103988931D01*
X118359902Y-103988917D01*
X118343957Y-103813708D01*
X118362348Y-103638735D01*
X118362350Y-103638730D01*
X118362354Y-103638688D01*
X118414393Y-103470577D01*
X118498094Y-103315776D01*
X118610268Y-103180180D01*
X118746644Y-103068955D01*
X118902026Y-102986337D01*
X119070496Y-102935473D01*
X119245637Y-102918300D01*
X119254397Y-102918300D01*
X119264898Y-102918373D01*
X119264898Y-102918373D01*
G37*
G36*
X124798100Y-104308100D02*
X123521900Y-104308100D01*
X123521900Y-103331900D01*
X124798100Y-103331900D01*
X124798100Y-104308100D01*
X124798100Y-104308100D01*
G37*
G36*
X122598100Y-104308100D02*
X121321900Y-104308100D01*
X121321900Y-103331900D01*
X122598100Y-103331900D01*
X122598100Y-104308100D01*
X122598100Y-104308100D01*
G37*
G36*
X160093200Y-103784440D02*
X158416800Y-103784440D01*
X158416800Y-101107280D01*
X160093200Y-101107280D01*
X160093200Y-103784440D01*
X160093200Y-103784440D01*
G37*
G36*
X183558100Y-103673100D02*
X182281900Y-103673100D01*
X182281900Y-102696900D01*
X183558100Y-102696900D01*
X183558100Y-103673100D01*
X183558100Y-103673100D01*
G37*
G36*
X185758100Y-103673100D02*
X184481900Y-103673100D01*
X184481900Y-102696900D01*
X185758100Y-102696900D01*
X185758100Y-103673100D01*
X185758100Y-103673100D01*
G37*
G36*
X187518100Y-103598100D02*
X186241900Y-103598100D01*
X186241900Y-102771900D01*
X187518100Y-102771900D01*
X187518100Y-103598100D01*
X187518100Y-103598100D01*
G37*
G36*
X189418100Y-103598100D02*
X188141900Y-103598100D01*
X188141900Y-102771900D01*
X189418100Y-102771900D01*
X189418100Y-103598100D01*
X189418100Y-103598100D01*
G37*
G36*
X138888100Y-103143100D02*
X138561900Y-103143100D01*
X138561900Y-101766900D01*
X138888100Y-101766900D01*
X138888100Y-103143100D01*
X138888100Y-103143100D01*
G37*
G36*
X139388100Y-103143100D02*
X139061900Y-103143100D01*
X139061900Y-101766900D01*
X139388100Y-101766900D01*
X139388100Y-103143100D01*
X139388100Y-103143100D01*
G37*
G36*
X139888100Y-103143100D02*
X139561900Y-103143100D01*
X139561900Y-101766900D01*
X139888100Y-101766900D01*
X139888100Y-103143100D01*
X139888100Y-103143100D01*
G37*
G36*
X140388100Y-103143100D02*
X140061900Y-103143100D01*
X140061900Y-101766900D01*
X140388100Y-101766900D01*
X140388100Y-103143100D01*
X140388100Y-103143100D01*
G37*
G36*
X140888100Y-103143100D02*
X140561900Y-103143100D01*
X140561900Y-101766900D01*
X140888100Y-101766900D01*
X140888100Y-103143100D01*
X140888100Y-103143100D01*
G37*
G36*
X141388100Y-103143100D02*
X141061900Y-103143100D01*
X141061900Y-101766900D01*
X141388100Y-101766900D01*
X141388100Y-103143100D01*
X141388100Y-103143100D01*
G37*
G36*
X142388100Y-103143100D02*
X142061900Y-103143100D01*
X142061900Y-101766900D01*
X142388100Y-101766900D01*
X142388100Y-103143100D01*
X142388100Y-103143100D01*
G37*
G36*
X143388100Y-103143100D02*
X143061900Y-103143100D01*
X143061900Y-101766900D01*
X143388100Y-101766900D01*
X143388100Y-103143100D01*
X143388100Y-103143100D01*
G37*
G36*
X143888100Y-103143100D02*
X143561900Y-103143100D01*
X143561900Y-101766900D01*
X143888100Y-101766900D01*
X143888100Y-103143100D01*
X143888100Y-103143100D01*
G37*
G36*
X142888100Y-103143100D02*
X142561900Y-103143100D01*
X142561900Y-101766900D01*
X142888100Y-101766900D01*
X142888100Y-103143100D01*
X142888100Y-103143100D01*
G37*
G36*
X144388100Y-103143100D02*
X144061900Y-103143100D01*
X144061900Y-101766900D01*
X144388100Y-101766900D01*
X144388100Y-103143100D01*
X144388100Y-103143100D01*
G37*
G36*
X141888100Y-103143100D02*
X141561900Y-103143100D01*
X141561900Y-101766900D01*
X141888100Y-101766900D01*
X141888100Y-103143100D01*
X141888100Y-103143100D01*
G37*
G36*
X150683100Y-102963100D02*
X149406900Y-102963100D01*
X149406900Y-102136900D01*
X150683100Y-102136900D01*
X150683100Y-102963100D01*
X150683100Y-102963100D01*
G37*
G36*
X148783100Y-102963100D02*
X147506900Y-102963100D01*
X147506900Y-102136900D01*
X148783100Y-102136900D01*
X148783100Y-102963100D01*
X148783100Y-102963100D01*
G37*
G36*
X163553100Y-102383100D02*
X162576900Y-102383100D01*
X162576900Y-101106900D01*
X163553100Y-101106900D01*
X163553100Y-102383100D01*
X163553100Y-102383100D01*
G37*
G36*
X116724898Y-100378373D02*
X116724904Y-100378374D01*
X116726953Y-100378388D01*
X116901837Y-100398004D01*
X117069580Y-100451216D01*
X117223794Y-100535995D01*
X117358603Y-100649114D01*
X117468873Y-100786262D01*
X117550405Y-100942217D01*
X117600091Y-101111038D01*
X117600094Y-101111069D01*
X117600098Y-101111083D01*
X117616043Y-101286292D01*
X117597652Y-101461265D01*
X117597650Y-101461270D01*
X117597646Y-101461312D01*
X117545607Y-101629423D01*
X117461906Y-101784224D01*
X117349732Y-101919820D01*
X117213356Y-102031045D01*
X117057974Y-102113663D01*
X116889504Y-102164527D01*
X116714363Y-102181700D01*
X116705603Y-102181700D01*
X116695102Y-102181627D01*
X116695096Y-102181626D01*
X116693047Y-102181612D01*
X116518163Y-102161996D01*
X116350420Y-102108784D01*
X116196206Y-102024005D01*
X116061397Y-101910886D01*
X115951127Y-101773738D01*
X115869595Y-101617783D01*
X115819909Y-101448962D01*
X115819906Y-101448931D01*
X115819902Y-101448917D01*
X115803957Y-101273708D01*
X115822348Y-101098735D01*
X115822350Y-101098730D01*
X115822354Y-101098688D01*
X115874393Y-100930577D01*
X115958094Y-100775776D01*
X116070268Y-100640180D01*
X116206644Y-100528955D01*
X116362026Y-100446337D01*
X116530496Y-100395473D01*
X116705637Y-100378300D01*
X116714397Y-100378300D01*
X116724898Y-100378373D01*
X116724898Y-100378373D01*
G37*
G36*
X119264898Y-100378373D02*
X119264904Y-100378374D01*
X119266953Y-100378388D01*
X119441837Y-100398004D01*
X119609580Y-100451216D01*
X119763794Y-100535995D01*
X119898603Y-100649114D01*
X120008873Y-100786262D01*
X120090405Y-100942217D01*
X120140091Y-101111038D01*
X120140094Y-101111069D01*
X120140098Y-101111083D01*
X120156043Y-101286292D01*
X120137652Y-101461265D01*
X120137650Y-101461270D01*
X120137646Y-101461312D01*
X120085607Y-101629423D01*
X120001906Y-101784224D01*
X119889732Y-101919820D01*
X119753356Y-102031045D01*
X119597974Y-102113663D01*
X119429504Y-102164527D01*
X119254363Y-102181700D01*
X119245603Y-102181700D01*
X119235102Y-102181627D01*
X119235096Y-102181626D01*
X119233047Y-102181612D01*
X119058163Y-102161996D01*
X118890420Y-102108784D01*
X118736206Y-102024005D01*
X118601397Y-101910886D01*
X118491127Y-101773738D01*
X118409595Y-101617783D01*
X118359909Y-101448962D01*
X118359906Y-101448931D01*
X118359902Y-101448917D01*
X118343957Y-101273708D01*
X118362348Y-101098735D01*
X118362350Y-101098730D01*
X118362354Y-101098688D01*
X118414393Y-100930577D01*
X118498094Y-100775776D01*
X118610268Y-100640180D01*
X118746644Y-100528955D01*
X118902026Y-100446337D01*
X119070496Y-100395473D01*
X119245637Y-100378300D01*
X119254397Y-100378300D01*
X119264898Y-100378373D01*
X119264898Y-100378373D01*
G37*
G36*
X122598100Y-101768100D02*
X121321900Y-101768100D01*
X121321900Y-100791900D01*
X122598100Y-100791900D01*
X122598100Y-101768100D01*
X122598100Y-101768100D01*
G37*
G36*
X124798100Y-101768100D02*
X123521900Y-101768100D01*
X123521900Y-100791900D01*
X124798100Y-100791900D01*
X124798100Y-101768100D01*
X124798100Y-101768100D01*
G37*
G36*
X182528100Y-101598100D02*
X181701900Y-101598100D01*
X181701900Y-100321900D01*
X182528100Y-100321900D01*
X182528100Y-101598100D01*
X182528100Y-101598100D01*
G37*
G36*
X209839100Y-101546700D02*
X207730900Y-101546700D01*
X207730900Y-99743300D01*
X209839100Y-99743300D01*
X209839100Y-101546700D01*
X209839100Y-101546700D01*
G37*
G36*
X199616870Y-101483200D02*
X195941490Y-101483200D01*
X195941490Y-99806800D01*
X199616870Y-99806800D01*
X199616870Y-101483200D01*
X199616870Y-101483200D01*
G37*
G36*
X205118510Y-101483200D02*
X201443130Y-101483200D01*
X201443130Y-99806800D01*
X205118510Y-99806800D01*
X205118510Y-101483200D01*
X205118510Y-101483200D01*
G37*
G36*
X194648100Y-101133100D02*
X193371900Y-101133100D01*
X193371900Y-100156900D01*
X194648100Y-100156900D01*
X194648100Y-101133100D01*
X194648100Y-101133100D01*
G37*
G36*
X192448100Y-101133100D02*
X191171900Y-101133100D01*
X191171900Y-100156900D01*
X192448100Y-100156900D01*
X192448100Y-101133100D01*
X192448100Y-101133100D01*
G37*
G36*
X137813100Y-101018100D02*
X136436900Y-101018100D01*
X136436900Y-100691900D01*
X137813100Y-100691900D01*
X137813100Y-101018100D01*
X137813100Y-101018100D01*
G37*
G36*
X146513100Y-101018100D02*
X145136900Y-101018100D01*
X145136900Y-100691900D01*
X146513100Y-100691900D01*
X146513100Y-101018100D01*
X146513100Y-101018100D01*
G37*
G36*
X184993100Y-100983100D02*
X184316900Y-100983100D01*
X184316900Y-99356900D01*
X184993100Y-99356900D01*
X184993100Y-100983100D01*
X184993100Y-100983100D01*
G37*
G36*
X188803100Y-100983100D02*
X188126900Y-100983100D01*
X188126900Y-99356900D01*
X188803100Y-99356900D01*
X188803100Y-100983100D01*
X188803100Y-100983100D01*
G37*
G36*
X187533100Y-100983100D02*
X186856900Y-100983100D01*
X186856900Y-99356900D01*
X187533100Y-99356900D01*
X187533100Y-100983100D01*
X187533100Y-100983100D01*
G37*
G36*
X186263100Y-100983100D02*
X185586900Y-100983100D01*
X185586900Y-99356900D01*
X186263100Y-99356900D01*
X186263100Y-100983100D01*
X186263100Y-100983100D01*
G37*
G36*
X137813100Y-100518100D02*
X136436900Y-100518100D01*
X136436900Y-100191900D01*
X137813100Y-100191900D01*
X137813100Y-100518100D01*
X137813100Y-100518100D01*
G37*
G36*
X146513100Y-100518100D02*
X145136900Y-100518100D01*
X145136900Y-100191900D01*
X146513100Y-100191900D01*
X146513100Y-100518100D01*
X146513100Y-100518100D01*
G37*
G36*
X178478100Y-100498100D02*
X177201900Y-100498100D01*
X177201900Y-99521900D01*
X178478100Y-99521900D01*
X178478100Y-100498100D01*
X178478100Y-100498100D01*
G37*
G36*
X180678100Y-100498100D02*
X179401900Y-100498100D01*
X179401900Y-99521900D01*
X180678100Y-99521900D01*
X180678100Y-100498100D01*
X180678100Y-100498100D01*
G37*
G36*
X156398100Y-100423100D02*
X155121900Y-100423100D01*
X155121900Y-99596900D01*
X156398100Y-99596900D01*
X156398100Y-100423100D01*
X156398100Y-100423100D01*
G37*
G36*
X154498100Y-100423100D02*
X153221900Y-100423100D01*
X153221900Y-99596900D01*
X154498100Y-99596900D01*
X154498100Y-100423100D01*
X154498100Y-100423100D01*
G37*
G36*
X163553100Y-100183100D02*
X162576900Y-100183100D01*
X162576900Y-98906900D01*
X163553100Y-98906900D01*
X163553100Y-100183100D01*
X163553100Y-100183100D01*
G37*
G36*
X160093200Y-100182720D02*
X158416800Y-100182720D01*
X158416800Y-97505560D01*
X160093200Y-97505560D01*
X160093200Y-100182720D01*
X160093200Y-100182720D01*
G37*
G36*
X137813100Y-100018100D02*
X136436900Y-100018100D01*
X136436900Y-99691900D01*
X137813100Y-99691900D01*
X137813100Y-100018100D01*
X137813100Y-100018100D01*
G37*
G36*
X146513100Y-100018100D02*
X145136900Y-100018100D01*
X145136900Y-99691900D01*
X146513100Y-99691900D01*
X146513100Y-100018100D01*
X146513100Y-100018100D01*
G37*
G36*
X182528100Y-99698100D02*
X181701900Y-99698100D01*
X181701900Y-98421900D01*
X182528100Y-98421900D01*
X182528100Y-99698100D01*
X182528100Y-99698100D01*
G37*
G36*
X119264898Y-97838373D02*
X119264904Y-97838374D01*
X119266953Y-97838388D01*
X119441837Y-97858004D01*
X119609580Y-97911216D01*
X119763794Y-97995995D01*
X119898603Y-98109114D01*
X120008873Y-98246262D01*
X120090405Y-98402217D01*
X120140091Y-98571038D01*
X120140094Y-98571069D01*
X120140098Y-98571083D01*
X120156043Y-98746292D01*
X120137652Y-98921265D01*
X120137650Y-98921270D01*
X120137646Y-98921312D01*
X120085607Y-99089423D01*
X120001906Y-99244224D01*
X119889732Y-99379820D01*
X119753356Y-99491045D01*
X119597974Y-99573663D01*
X119429504Y-99624527D01*
X119254363Y-99641700D01*
X119245603Y-99641700D01*
X119235102Y-99641627D01*
X119235096Y-99641626D01*
X119233047Y-99641612D01*
X119058163Y-99621996D01*
X118890420Y-99568784D01*
X118736206Y-99484005D01*
X118601397Y-99370886D01*
X118491127Y-99233738D01*
X118409595Y-99077783D01*
X118359909Y-98908962D01*
X118359906Y-98908931D01*
X118359902Y-98908917D01*
X118343957Y-98733708D01*
X118362348Y-98558735D01*
X118362350Y-98558730D01*
X118362354Y-98558688D01*
X118414393Y-98390577D01*
X118498094Y-98235776D01*
X118610268Y-98100180D01*
X118746644Y-97988955D01*
X118902026Y-97906337D01*
X119070496Y-97855473D01*
X119245637Y-97838300D01*
X119254397Y-97838300D01*
X119264898Y-97838373D01*
X119264898Y-97838373D01*
G37*
G36*
X116724898Y-97838373D02*
X116724904Y-97838374D01*
X116726953Y-97838388D01*
X116901837Y-97858004D01*
X117069580Y-97911216D01*
X117223794Y-97995995D01*
X117358603Y-98109114D01*
X117468873Y-98246262D01*
X117550405Y-98402217D01*
X117600091Y-98571038D01*
X117600094Y-98571069D01*
X117600098Y-98571083D01*
X117616043Y-98746292D01*
X117597652Y-98921265D01*
X117597650Y-98921270D01*
X117597646Y-98921312D01*
X117545607Y-99089423D01*
X117461906Y-99244224D01*
X117349732Y-99379820D01*
X117213356Y-99491045D01*
X117057974Y-99573663D01*
X116889504Y-99624527D01*
X116714363Y-99641700D01*
X116705603Y-99641700D01*
X116695102Y-99641627D01*
X116695096Y-99641626D01*
X116693047Y-99641612D01*
X116518163Y-99621996D01*
X116350420Y-99568784D01*
X116196206Y-99484005D01*
X116061397Y-99370886D01*
X115951127Y-99233738D01*
X115869595Y-99077783D01*
X115819909Y-98908962D01*
X115819906Y-98908931D01*
X115819902Y-98908917D01*
X115803957Y-98733708D01*
X115822348Y-98558735D01*
X115822350Y-98558730D01*
X115822354Y-98558688D01*
X115874393Y-98390577D01*
X115958094Y-98235776D01*
X116070268Y-98100180D01*
X116206644Y-97988955D01*
X116362026Y-97906337D01*
X116530496Y-97855473D01*
X116705637Y-97838300D01*
X116714397Y-97838300D01*
X116724898Y-97838373D01*
X116724898Y-97838373D01*
G37*
G36*
X137813100Y-99518100D02*
X136436900Y-99518100D01*
X136436900Y-99191900D01*
X137813100Y-99191900D01*
X137813100Y-99518100D01*
X137813100Y-99518100D01*
G37*
G36*
X146513100Y-99518100D02*
X145136900Y-99518100D01*
X145136900Y-99191900D01*
X146513100Y-99191900D01*
X146513100Y-99518100D01*
X146513100Y-99518100D01*
G37*
G36*
X122598100Y-99228100D02*
X121321900Y-99228100D01*
X121321900Y-98251900D01*
X122598100Y-98251900D01*
X122598100Y-99228100D01*
X122598100Y-99228100D01*
G37*
G36*
X124798100Y-99228100D02*
X123521900Y-99228100D01*
X123521900Y-98251900D01*
X124798100Y-98251900D01*
X124798100Y-99228100D01*
X124798100Y-99228100D01*
G37*
G36*
X146513100Y-99018100D02*
X145136900Y-99018100D01*
X145136900Y-98691900D01*
X146513100Y-98691900D01*
X146513100Y-99018100D01*
X146513100Y-99018100D01*
G37*
G36*
X137813100Y-99018100D02*
X136436900Y-99018100D01*
X136436900Y-98691900D01*
X137813100Y-98691900D01*
X137813100Y-99018100D01*
X137813100Y-99018100D01*
G37*
G36*
X208953035Y-97203373D02*
X208953041Y-97203374D01*
X208955090Y-97203388D01*
X209129974Y-97223004D01*
X209297717Y-97276216D01*
X209451931Y-97360995D01*
X209586740Y-97474114D01*
X209697010Y-97611262D01*
X209778542Y-97767217D01*
X209828228Y-97936038D01*
X209828231Y-97936069D01*
X209828235Y-97936083D01*
X209844180Y-98111292D01*
X209825789Y-98286265D01*
X209825787Y-98286270D01*
X209825783Y-98286312D01*
X209773744Y-98454423D01*
X209690043Y-98609224D01*
X209577869Y-98744820D01*
X209441493Y-98856045D01*
X209286111Y-98938663D01*
X209117641Y-98989527D01*
X208942500Y-99006700D01*
X208627466Y-99006700D01*
X208616965Y-99006627D01*
X208616959Y-99006626D01*
X208614910Y-99006612D01*
X208440026Y-98986996D01*
X208272283Y-98933784D01*
X208118069Y-98849005D01*
X207983260Y-98735886D01*
X207872990Y-98598738D01*
X207791458Y-98442783D01*
X207741772Y-98273962D01*
X207741769Y-98273931D01*
X207741765Y-98273917D01*
X207725820Y-98098708D01*
X207744211Y-97923735D01*
X207744213Y-97923730D01*
X207744217Y-97923688D01*
X207796256Y-97755577D01*
X207879957Y-97600776D01*
X207992131Y-97465180D01*
X208128507Y-97353955D01*
X208283889Y-97271337D01*
X208452359Y-97220473D01*
X208627500Y-97203300D01*
X208942534Y-97203300D01*
X208953035Y-97203373D01*
X208953035Y-97203373D01*
G37*
G36*
X146513100Y-98518100D02*
X145136900Y-98518100D01*
X145136900Y-98191900D01*
X146513100Y-98191900D01*
X146513100Y-98518100D01*
X146513100Y-98518100D01*
G37*
G36*
X137813100Y-98518100D02*
X136436900Y-98518100D01*
X136436900Y-98191900D01*
X137813100Y-98191900D01*
X137813100Y-98518100D01*
X137813100Y-98518100D01*
G37*
G36*
X146513100Y-98018100D02*
X145136900Y-98018100D01*
X145136900Y-97691900D01*
X146513100Y-97691900D01*
X146513100Y-98018100D01*
X146513100Y-98018100D01*
G37*
G36*
X137813100Y-98018100D02*
X136436900Y-98018100D01*
X136436900Y-97691900D01*
X137813100Y-97691900D01*
X137813100Y-98018100D01*
X137813100Y-98018100D01*
G37*
G36*
X137813100Y-97518100D02*
X136436900Y-97518100D01*
X136436900Y-97191900D01*
X137813100Y-97191900D01*
X137813100Y-97518100D01*
X137813100Y-97518100D01*
G37*
G36*
X146513100Y-97518100D02*
X145136900Y-97518100D01*
X145136900Y-97191900D01*
X146513100Y-97191900D01*
X146513100Y-97518100D01*
X146513100Y-97518100D01*
G37*
G36*
X116724898Y-95298373D02*
X116724904Y-95298374D01*
X116726953Y-95298388D01*
X116901837Y-95318004D01*
X117069580Y-95371216D01*
X117223794Y-95455995D01*
X117358603Y-95569114D01*
X117468873Y-95706262D01*
X117550405Y-95862217D01*
X117600091Y-96031038D01*
X117600094Y-96031069D01*
X117600098Y-96031083D01*
X117616043Y-96206292D01*
X117597652Y-96381265D01*
X117597650Y-96381270D01*
X117597646Y-96381312D01*
X117545607Y-96549423D01*
X117461906Y-96704224D01*
X117349732Y-96839820D01*
X117213356Y-96951045D01*
X117057974Y-97033663D01*
X116889504Y-97084527D01*
X116714363Y-97101700D01*
X116705603Y-97101700D01*
X116695102Y-97101627D01*
X116695096Y-97101626D01*
X116693047Y-97101612D01*
X116518163Y-97081996D01*
X116350420Y-97028784D01*
X116196206Y-96944005D01*
X116061397Y-96830886D01*
X115951127Y-96693738D01*
X115869595Y-96537783D01*
X115819909Y-96368962D01*
X115819906Y-96368931D01*
X115819902Y-96368917D01*
X115803957Y-96193708D01*
X115822348Y-96018735D01*
X115822350Y-96018730D01*
X115822354Y-96018688D01*
X115874393Y-95850577D01*
X115958094Y-95695776D01*
X116070268Y-95560180D01*
X116206644Y-95448955D01*
X116362026Y-95366337D01*
X116530496Y-95315473D01*
X116705637Y-95298300D01*
X116714397Y-95298300D01*
X116724898Y-95298373D01*
X116724898Y-95298373D01*
G37*
G36*
X119264898Y-95298373D02*
X119264904Y-95298374D01*
X119266953Y-95298388D01*
X119441837Y-95318004D01*
X119609580Y-95371216D01*
X119763794Y-95455995D01*
X119898603Y-95569114D01*
X120008873Y-95706262D01*
X120090405Y-95862217D01*
X120140091Y-96031038D01*
X120140094Y-96031069D01*
X120140098Y-96031083D01*
X120156043Y-96206292D01*
X120137652Y-96381265D01*
X120137650Y-96381270D01*
X120137646Y-96381312D01*
X120085607Y-96549423D01*
X120001906Y-96704224D01*
X119889732Y-96839820D01*
X119753356Y-96951045D01*
X119597974Y-97033663D01*
X119429504Y-97084527D01*
X119254363Y-97101700D01*
X119245603Y-97101700D01*
X119235102Y-97101627D01*
X119235096Y-97101626D01*
X119233047Y-97101612D01*
X119058163Y-97081996D01*
X118890420Y-97028784D01*
X118736206Y-96944005D01*
X118601397Y-96830886D01*
X118491127Y-96693738D01*
X118409595Y-96537783D01*
X118359909Y-96368962D01*
X118359906Y-96368931D01*
X118359902Y-96368917D01*
X118343957Y-96193708D01*
X118362348Y-96018735D01*
X118362350Y-96018730D01*
X118362354Y-96018688D01*
X118414393Y-95850577D01*
X118498094Y-95695776D01*
X118610268Y-95560180D01*
X118746644Y-95448955D01*
X118902026Y-95366337D01*
X119070496Y-95315473D01*
X119245637Y-95298300D01*
X119254397Y-95298300D01*
X119264898Y-95298373D01*
X119264898Y-95298373D01*
G37*
G36*
X146513100Y-97018100D02*
X145136900Y-97018100D01*
X145136900Y-96691900D01*
X146513100Y-96691900D01*
X146513100Y-97018100D01*
X146513100Y-97018100D01*
G37*
G36*
X137813100Y-97018100D02*
X136436900Y-97018100D01*
X136436900Y-96691900D01*
X137813100Y-96691900D01*
X137813100Y-97018100D01*
X137813100Y-97018100D01*
G37*
G36*
X181803100Y-96613100D02*
X180526900Y-96613100D01*
X180526900Y-95786900D01*
X181803100Y-95786900D01*
X181803100Y-96613100D01*
X181803100Y-96613100D01*
G37*
G36*
X183703100Y-96613100D02*
X182426900Y-96613100D01*
X182426900Y-95786900D01*
X183703100Y-95786900D01*
X183703100Y-96613100D01*
X183703100Y-96613100D01*
G37*
G36*
X137813100Y-96518100D02*
X136436900Y-96518100D01*
X136436900Y-96191900D01*
X137813100Y-96191900D01*
X137813100Y-96518100D01*
X137813100Y-96518100D01*
G37*
G36*
X146513100Y-96518100D02*
X145136900Y-96518100D01*
X145136900Y-96191900D01*
X146513100Y-96191900D01*
X146513100Y-96518100D01*
X146513100Y-96518100D01*
G37*
G36*
X208953035Y-94663373D02*
X208953041Y-94663374D01*
X208955090Y-94663388D01*
X209129974Y-94683004D01*
X209297717Y-94736216D01*
X209451931Y-94820995D01*
X209586740Y-94934114D01*
X209697010Y-95071262D01*
X209778542Y-95227217D01*
X209828228Y-95396038D01*
X209828231Y-95396069D01*
X209828235Y-95396083D01*
X209844180Y-95571292D01*
X209825789Y-95746265D01*
X209825787Y-95746270D01*
X209825783Y-95746312D01*
X209773744Y-95914423D01*
X209690043Y-96069224D01*
X209577869Y-96204820D01*
X209441493Y-96316045D01*
X209286111Y-96398663D01*
X209117641Y-96449527D01*
X208942500Y-96466700D01*
X208627466Y-96466700D01*
X208616965Y-96466627D01*
X208616959Y-96466626D01*
X208614910Y-96466612D01*
X208440026Y-96446996D01*
X208272283Y-96393784D01*
X208118069Y-96309005D01*
X207983260Y-96195886D01*
X207872990Y-96058738D01*
X207791458Y-95902783D01*
X207741772Y-95733962D01*
X207741769Y-95733931D01*
X207741765Y-95733917D01*
X207725820Y-95558708D01*
X207744211Y-95383735D01*
X207744213Y-95383730D01*
X207744217Y-95383688D01*
X207796256Y-95215577D01*
X207879957Y-95060776D01*
X207992131Y-94925180D01*
X208128507Y-94813955D01*
X208283889Y-94731337D01*
X208452359Y-94680473D01*
X208627500Y-94663300D01*
X208942534Y-94663300D01*
X208953035Y-94663373D01*
X208953035Y-94663373D01*
G37*
G36*
X137813100Y-96018100D02*
X136436900Y-96018100D01*
X136436900Y-95691900D01*
X137813100Y-95691900D01*
X137813100Y-96018100D01*
X137813100Y-96018100D01*
G37*
G36*
X146513100Y-96018100D02*
X145136900Y-96018100D01*
X145136900Y-95691900D01*
X146513100Y-95691900D01*
X146513100Y-96018100D01*
X146513100Y-96018100D01*
G37*
G36*
X186263100Y-95583100D02*
X185586900Y-95583100D01*
X185586900Y-93956900D01*
X186263100Y-93956900D01*
X186263100Y-95583100D01*
X186263100Y-95583100D01*
G37*
G36*
X184993100Y-95583100D02*
X184316900Y-95583100D01*
X184316900Y-93956900D01*
X184993100Y-93956900D01*
X184993100Y-95583100D01*
X184993100Y-95583100D01*
G37*
G36*
X187533100Y-95583100D02*
X186856900Y-95583100D01*
X186856900Y-93956900D01*
X187533100Y-93956900D01*
X187533100Y-95583100D01*
X187533100Y-95583100D01*
G37*
G36*
X188803100Y-95583100D02*
X188126900Y-95583100D01*
X188126900Y-93956900D01*
X188803100Y-93956900D01*
X188803100Y-95583100D01*
X188803100Y-95583100D01*
G37*
G36*
X137813100Y-95518100D02*
X136436900Y-95518100D01*
X136436900Y-95191900D01*
X137813100Y-95191900D01*
X137813100Y-95518100D01*
X137813100Y-95518100D01*
G37*
G36*
X146513100Y-95518100D02*
X145136900Y-95518100D01*
X145136900Y-95191900D01*
X146513100Y-95191900D01*
X146513100Y-95518100D01*
X146513100Y-95518100D01*
G37*
G36*
X134808100Y-95343100D02*
X133531900Y-95343100D01*
X133531900Y-94516900D01*
X134808100Y-94516900D01*
X134808100Y-95343100D01*
X134808100Y-95343100D01*
G37*
G36*
X132908100Y-95343100D02*
X131631900Y-95343100D01*
X131631900Y-94516900D01*
X132908100Y-94516900D01*
X132908100Y-95343100D01*
X132908100Y-95343100D01*
G37*
G36*
X180678100Y-94783100D02*
X179401900Y-94783100D01*
X179401900Y-93806900D01*
X180678100Y-93806900D01*
X180678100Y-94783100D01*
X180678100Y-94783100D01*
G37*
G36*
X178478100Y-94783100D02*
X177201900Y-94783100D01*
X177201900Y-93806900D01*
X178478100Y-93806900D01*
X178478100Y-94783100D01*
X178478100Y-94783100D01*
G37*
G36*
X116724898Y-92758373D02*
X116724904Y-92758374D01*
X116726953Y-92758388D01*
X116901837Y-92778004D01*
X117069580Y-92831216D01*
X117223794Y-92915995D01*
X117358603Y-93029114D01*
X117468873Y-93166262D01*
X117550405Y-93322217D01*
X117600091Y-93491038D01*
X117600094Y-93491069D01*
X117600098Y-93491083D01*
X117616043Y-93666292D01*
X117597652Y-93841265D01*
X117597650Y-93841270D01*
X117597646Y-93841312D01*
X117545607Y-94009423D01*
X117461906Y-94164224D01*
X117349732Y-94299820D01*
X117213356Y-94411045D01*
X117057974Y-94493663D01*
X116889504Y-94544527D01*
X116714363Y-94561700D01*
X116705603Y-94561700D01*
X116695102Y-94561627D01*
X116695096Y-94561626D01*
X116693047Y-94561612D01*
X116518163Y-94541996D01*
X116350420Y-94488784D01*
X116196206Y-94404005D01*
X116061397Y-94290886D01*
X115951127Y-94153738D01*
X115869595Y-93997783D01*
X115819909Y-93828962D01*
X115819906Y-93828931D01*
X115819902Y-93828917D01*
X115803957Y-93653708D01*
X115822348Y-93478735D01*
X115822350Y-93478730D01*
X115822354Y-93478688D01*
X115874393Y-93310577D01*
X115958094Y-93155776D01*
X116070268Y-93020180D01*
X116206644Y-92908955D01*
X116362026Y-92826337D01*
X116530496Y-92775473D01*
X116705637Y-92758300D01*
X116714397Y-92758300D01*
X116724898Y-92758373D01*
X116724898Y-92758373D01*
G37*
G36*
X119264898Y-92758373D02*
X119264904Y-92758374D01*
X119266953Y-92758388D01*
X119441837Y-92778004D01*
X119609580Y-92831216D01*
X119763794Y-92915995D01*
X119898603Y-93029114D01*
X120008873Y-93166262D01*
X120090405Y-93322217D01*
X120140091Y-93491038D01*
X120140094Y-93491069D01*
X120140098Y-93491083D01*
X120156043Y-93666292D01*
X120137652Y-93841265D01*
X120137650Y-93841270D01*
X120137646Y-93841312D01*
X120085607Y-94009423D01*
X120001906Y-94164224D01*
X119889732Y-94299820D01*
X119753356Y-94411045D01*
X119597974Y-94493663D01*
X119429504Y-94544527D01*
X119254363Y-94561700D01*
X119245603Y-94561700D01*
X119235102Y-94561627D01*
X119235096Y-94561626D01*
X119233047Y-94561612D01*
X119058163Y-94541996D01*
X118890420Y-94488784D01*
X118736206Y-94404005D01*
X118601397Y-94290886D01*
X118491127Y-94153738D01*
X118409595Y-93997783D01*
X118359909Y-93828962D01*
X118359906Y-93828931D01*
X118359902Y-93828917D01*
X118343957Y-93653708D01*
X118362348Y-93478735D01*
X118362350Y-93478730D01*
X118362354Y-93478688D01*
X118414393Y-93310577D01*
X118498094Y-93155776D01*
X118610268Y-93020180D01*
X118746644Y-92908955D01*
X118902026Y-92826337D01*
X119070496Y-92775473D01*
X119245637Y-92758300D01*
X119254397Y-92758300D01*
X119264898Y-92758373D01*
X119264898Y-92758373D01*
G37*
G36*
X199616870Y-94498200D02*
X195941490Y-94498200D01*
X195941490Y-92821800D01*
X199616870Y-92821800D01*
X199616870Y-94498200D01*
X199616870Y-94498200D01*
G37*
G36*
X205118510Y-94498200D02*
X201443130Y-94498200D01*
X201443130Y-92821800D01*
X205118510Y-92821800D01*
X205118510Y-94498200D01*
X205118510Y-94498200D01*
G37*
G36*
X141388100Y-94443100D02*
X141061900Y-94443100D01*
X141061900Y-93066900D01*
X141388100Y-93066900D01*
X141388100Y-94443100D01*
X141388100Y-94443100D01*
G37*
G36*
X141888100Y-94443100D02*
X141561900Y-94443100D01*
X141561900Y-93066900D01*
X141888100Y-93066900D01*
X141888100Y-94443100D01*
X141888100Y-94443100D01*
G37*
G36*
X143388100Y-94443100D02*
X143061900Y-94443100D01*
X143061900Y-93066900D01*
X143388100Y-93066900D01*
X143388100Y-94443100D01*
X143388100Y-94443100D01*
G37*
G36*
X140888100Y-94443100D02*
X140561900Y-94443100D01*
X140561900Y-93066900D01*
X140888100Y-93066900D01*
X140888100Y-94443100D01*
X140888100Y-94443100D01*
G37*
G36*
X138888100Y-94443100D02*
X138561900Y-94443100D01*
X138561900Y-93066900D01*
X138888100Y-93066900D01*
X138888100Y-94443100D01*
X138888100Y-94443100D01*
G37*
G36*
X139388100Y-94443100D02*
X139061900Y-94443100D01*
X139061900Y-93066900D01*
X139388100Y-93066900D01*
X139388100Y-94443100D01*
X139388100Y-94443100D01*
G37*
G36*
X140388100Y-94443100D02*
X140061900Y-94443100D01*
X140061900Y-93066900D01*
X140388100Y-93066900D01*
X140388100Y-94443100D01*
X140388100Y-94443100D01*
G37*
G36*
X139888100Y-94443100D02*
X139561900Y-94443100D01*
X139561900Y-93066900D01*
X139888100Y-93066900D01*
X139888100Y-94443100D01*
X139888100Y-94443100D01*
G37*
G36*
X144388100Y-94443100D02*
X144061900Y-94443100D01*
X144061900Y-93066900D01*
X144388100Y-93066900D01*
X144388100Y-94443100D01*
X144388100Y-94443100D01*
G37*
G36*
X143888100Y-94443100D02*
X143561900Y-94443100D01*
X143561900Y-93066900D01*
X143888100Y-93066900D01*
X143888100Y-94443100D01*
X143888100Y-94443100D01*
G37*
G36*
X142388100Y-94443100D02*
X142061900Y-94443100D01*
X142061900Y-93066900D01*
X142388100Y-93066900D01*
X142388100Y-94443100D01*
X142388100Y-94443100D01*
G37*
G36*
X142888100Y-94443100D02*
X142561900Y-94443100D01*
X142561900Y-93066900D01*
X142888100Y-93066900D01*
X142888100Y-94443100D01*
X142888100Y-94443100D01*
G37*
G36*
X192448100Y-94148100D02*
X191171900Y-94148100D01*
X191171900Y-93171900D01*
X192448100Y-93171900D01*
X192448100Y-94148100D01*
X192448100Y-94148100D01*
G37*
G36*
X194648100Y-94148100D02*
X193371900Y-94148100D01*
X193371900Y-93171900D01*
X194648100Y-93171900D01*
X194648100Y-94148100D01*
X194648100Y-94148100D01*
G37*
G36*
X147603100Y-93978100D02*
X146776900Y-93978100D01*
X146776900Y-92701900D01*
X147603100Y-92701900D01*
X147603100Y-93978100D01*
X147603100Y-93978100D01*
G37*
G36*
X184658100Y-92803100D02*
X183381900Y-92803100D01*
X183381900Y-91976900D01*
X184658100Y-91976900D01*
X184658100Y-92803100D01*
X184658100Y-92803100D01*
G37*
G36*
X182758100Y-92803100D02*
X181481900Y-92803100D01*
X181481900Y-91976900D01*
X182758100Y-91976900D01*
X182758100Y-92803100D01*
X182758100Y-92803100D01*
G37*
G36*
X151413100Y-92388100D02*
X150586900Y-92388100D01*
X150586900Y-91111900D01*
X151413100Y-91111900D01*
X151413100Y-92388100D01*
X151413100Y-92388100D01*
G37*
G36*
X152683100Y-92388100D02*
X151856900Y-92388100D01*
X151856900Y-91111900D01*
X152683100Y-91111900D01*
X152683100Y-92388100D01*
X152683100Y-92388100D01*
G37*
G36*
X147603100Y-92078100D02*
X146776900Y-92078100D01*
X146776900Y-90801900D01*
X147603100Y-90801900D01*
X147603100Y-92078100D01*
X147603100Y-92078100D01*
G37*
G36*
X119264898Y-90218373D02*
X119264904Y-90218374D01*
X119266953Y-90218388D01*
X119441837Y-90238004D01*
X119609580Y-90291216D01*
X119763794Y-90375995D01*
X119898603Y-90489114D01*
X120008873Y-90626262D01*
X120090405Y-90782217D01*
X120140091Y-90951038D01*
X120140094Y-90951069D01*
X120140098Y-90951083D01*
X120156043Y-91126292D01*
X120137652Y-91301265D01*
X120137650Y-91301270D01*
X120137646Y-91301312D01*
X120085607Y-91469423D01*
X120001906Y-91624224D01*
X119889732Y-91759820D01*
X119753356Y-91871045D01*
X119597974Y-91953663D01*
X119429504Y-92004527D01*
X119254363Y-92021700D01*
X119245603Y-92021700D01*
X119235102Y-92021627D01*
X119235096Y-92021626D01*
X119233047Y-92021612D01*
X119058163Y-92001996D01*
X118890420Y-91948784D01*
X118736206Y-91864005D01*
X118601397Y-91750886D01*
X118491127Y-91613738D01*
X118409595Y-91457783D01*
X118359909Y-91288962D01*
X118359906Y-91288931D01*
X118359902Y-91288917D01*
X118343957Y-91113708D01*
X118362348Y-90938735D01*
X118362350Y-90938730D01*
X118362354Y-90938688D01*
X118414393Y-90770577D01*
X118498094Y-90615776D01*
X118610268Y-90480180D01*
X118746644Y-90368955D01*
X118902026Y-90286337D01*
X119070496Y-90235473D01*
X119245637Y-90218300D01*
X119254397Y-90218300D01*
X119264898Y-90218373D01*
X119264898Y-90218373D01*
G37*
G36*
X117611700Y-92021700D02*
X115808300Y-92021700D01*
X115808300Y-90218300D01*
X117611700Y-90218300D01*
X117611700Y-92021700D01*
X117611700Y-92021700D01*
G37*
G36*
X188933100Y-91608100D02*
X187656900Y-91608100D01*
X187656900Y-90631900D01*
X188933100Y-90631900D01*
X188933100Y-91608100D01*
X188933100Y-91608100D01*
G37*
G36*
X186733100Y-91608100D02*
X185456900Y-91608100D01*
X185456900Y-90631900D01*
X186733100Y-90631900D01*
X186733100Y-91608100D01*
X186733100Y-91608100D01*
G37*
G36*
X192593100Y-91533100D02*
X191316900Y-91533100D01*
X191316900Y-90706900D01*
X192593100Y-90706900D01*
X192593100Y-91533100D01*
X192593100Y-91533100D01*
G37*
G36*
X190693100Y-91533100D02*
X189416900Y-91533100D01*
X189416900Y-90706900D01*
X190693100Y-90706900D01*
X190693100Y-91533100D01*
X190693100Y-91533100D01*
G37*
G36*
X152683100Y-90488100D02*
X151856900Y-90488100D01*
X151856900Y-89211900D01*
X152683100Y-89211900D01*
X152683100Y-90488100D01*
X152683100Y-90488100D01*
G37*
G36*
X151413100Y-90488100D02*
X150586900Y-90488100D01*
X150586900Y-89211900D01*
X151413100Y-89211900D01*
X151413100Y-90488100D01*
X151413100Y-90488100D01*
G37*
G36*
X185758100Y-89703100D02*
X184481900Y-89703100D01*
X184481900Y-88726900D01*
X185758100Y-88726900D01*
X185758100Y-89703100D01*
X185758100Y-89703100D01*
G37*
G36*
X183558100Y-89703100D02*
X182281900Y-89703100D01*
X182281900Y-88726900D01*
X183558100Y-88726900D01*
X183558100Y-89703100D01*
X183558100Y-89703100D01*
G37*
G36*
X189418100Y-89628100D02*
X188141900Y-89628100D01*
X188141900Y-88801900D01*
X189418100Y-88801900D01*
X189418100Y-89628100D01*
X189418100Y-89628100D01*
G37*
G36*
X187518100Y-89628100D02*
X186241900Y-89628100D01*
X186241900Y-88801900D01*
X187518100Y-88801900D01*
X187518100Y-89628100D01*
X187518100Y-89628100D01*
G37*
G36*
X145698100Y-89533100D02*
X144871900Y-89533100D01*
X144871900Y-88256900D01*
X145698100Y-88256900D01*
X145698100Y-89533100D01*
X145698100Y-89533100D01*
G37*
G36*
X143848100Y-89068100D02*
X142571900Y-89068100D01*
X142571900Y-88091900D01*
X143848100Y-88091900D01*
X143848100Y-89068100D01*
X143848100Y-89068100D01*
G37*
G36*
X141648100Y-89068100D02*
X140371900Y-89068100D01*
X140371900Y-88091900D01*
X141648100Y-88091900D01*
X141648100Y-89068100D01*
X141648100Y-89068100D01*
G37*
G36*
X135443100Y-88993100D02*
X134166900Y-88993100D01*
X134166900Y-88166900D01*
X135443100Y-88166900D01*
X135443100Y-88993100D01*
X135443100Y-88993100D01*
G37*
G36*
X133543100Y-88993100D02*
X132266900Y-88993100D01*
X132266900Y-88166900D01*
X133543100Y-88166900D01*
X133543100Y-88993100D01*
X133543100Y-88993100D01*
G37*
G36*
X153543100Y-88433100D02*
X152266900Y-88433100D01*
X152266900Y-87456900D01*
X153543100Y-87456900D01*
X153543100Y-88433100D01*
X153543100Y-88433100D01*
G37*
G36*
X151343100Y-88433100D02*
X150066900Y-88433100D01*
X150066900Y-87456900D01*
X151343100Y-87456900D01*
X151343100Y-88433100D01*
X151343100Y-88433100D01*
G37*
G36*
X145698100Y-87633100D02*
X144871900Y-87633100D01*
X144871900Y-86356900D01*
X145698100Y-86356900D01*
X145698100Y-87633100D01*
X145698100Y-87633100D01*
G37*
G36*
X182528100Y-87628100D02*
X181701900Y-87628100D01*
X181701900Y-86351900D01*
X182528100Y-86351900D01*
X182528100Y-87628100D01*
X182528100Y-87628100D01*
G37*
G36*
X209839100Y-87576700D02*
X207730900Y-87576700D01*
X207730900Y-85773300D01*
X209839100Y-85773300D01*
X209839100Y-87576700D01*
X209839100Y-87576700D01*
G37*
G36*
X205118510Y-87513200D02*
X201443130Y-87513200D01*
X201443130Y-85836800D01*
X205118510Y-85836800D01*
X205118510Y-87513200D01*
X205118510Y-87513200D01*
G37*
G36*
X199616870Y-87513200D02*
X195941490Y-87513200D01*
X195941490Y-85836800D01*
X199616870Y-85836800D01*
X199616870Y-87513200D01*
X199616870Y-87513200D01*
G37*
G36*
X192448100Y-87163100D02*
X191171900Y-87163100D01*
X191171900Y-86186900D01*
X192448100Y-86186900D01*
X192448100Y-87163100D01*
X192448100Y-87163100D01*
G37*
G36*
X194648100Y-87163100D02*
X193371900Y-87163100D01*
X193371900Y-86186900D01*
X194648100Y-86186900D01*
X194648100Y-87163100D01*
X194648100Y-87163100D01*
G37*
G36*
X186263100Y-87013100D02*
X185586900Y-87013100D01*
X185586900Y-85386900D01*
X186263100Y-85386900D01*
X186263100Y-87013100D01*
X186263100Y-87013100D01*
G37*
G36*
X184993100Y-87013100D02*
X184316900Y-87013100D01*
X184316900Y-85386900D01*
X184993100Y-85386900D01*
X184993100Y-87013100D01*
X184993100Y-87013100D01*
G37*
G36*
X188803100Y-87013100D02*
X188126900Y-87013100D01*
X188126900Y-85386900D01*
X188803100Y-85386900D01*
X188803100Y-87013100D01*
X188803100Y-87013100D01*
G37*
G36*
X187533100Y-87013100D02*
X186856900Y-87013100D01*
X186856900Y-85386900D01*
X187533100Y-85386900D01*
X187533100Y-87013100D01*
X187533100Y-87013100D01*
G37*
G36*
X178478100Y-86528100D02*
X177201900Y-86528100D01*
X177201900Y-85551900D01*
X178478100Y-85551900D01*
X178478100Y-86528100D01*
X178478100Y-86528100D01*
G37*
G36*
X180678100Y-86528100D02*
X179401900Y-86528100D01*
X179401900Y-85551900D01*
X180678100Y-85551900D01*
X180678100Y-86528100D01*
X180678100Y-86528100D01*
G37*
G36*
X145786650Y-85807590D02*
X140211350Y-85807590D01*
X140211350Y-83732410D01*
X145786650Y-83732410D01*
X145786650Y-85807590D01*
X145786650Y-85807590D01*
G37*
G36*
X136388650Y-85807590D02*
X130813350Y-85807590D01*
X130813350Y-83732410D01*
X136388650Y-83732410D01*
X136388650Y-85807590D01*
X136388650Y-85807590D01*
G37*
G36*
X182528100Y-85728100D02*
X181701900Y-85728100D01*
X181701900Y-84451900D01*
X182528100Y-84451900D01*
X182528100Y-85728100D01*
X182528100Y-85728100D01*
G37*
G36*
X208953035Y-83233373D02*
X208953041Y-83233374D01*
X208955090Y-83233388D01*
X209129974Y-83253004D01*
X209297717Y-83306216D01*
X209451931Y-83390995D01*
X209586740Y-83504114D01*
X209697010Y-83641262D01*
X209778542Y-83797217D01*
X209828228Y-83966038D01*
X209828231Y-83966069D01*
X209828235Y-83966083D01*
X209844180Y-84141292D01*
X209825789Y-84316265D01*
X209825787Y-84316270D01*
X209825783Y-84316312D01*
X209773744Y-84484423D01*
X209690043Y-84639224D01*
X209577869Y-84774820D01*
X209441493Y-84886045D01*
X209286111Y-84968663D01*
X209117641Y-85019527D01*
X208942500Y-85036700D01*
X208627466Y-85036700D01*
X208616965Y-85036627D01*
X208616959Y-85036626D01*
X208614910Y-85036612D01*
X208440026Y-85016996D01*
X208272283Y-84963784D01*
X208118069Y-84879005D01*
X207983260Y-84765886D01*
X207872990Y-84628738D01*
X207791458Y-84472783D01*
X207741772Y-84303962D01*
X207741769Y-84303931D01*
X207741765Y-84303917D01*
X207725820Y-84128708D01*
X207744211Y-83953735D01*
X207744213Y-83953730D01*
X207744217Y-83953688D01*
X207796256Y-83785577D01*
X207879957Y-83630776D01*
X207992131Y-83495180D01*
X208128507Y-83383955D01*
X208283889Y-83301337D01*
X208452359Y-83250473D01*
X208627500Y-83233300D01*
X208942534Y-83233300D01*
X208953035Y-83233373D01*
X208953035Y-83233373D01*
G37*
G36*
X181803100Y-82643100D02*
X180526900Y-82643100D01*
X180526900Y-81816900D01*
X181803100Y-81816900D01*
X181803100Y-82643100D01*
X181803100Y-82643100D01*
G37*
G36*
X183703100Y-82643100D02*
X182426900Y-82643100D01*
X182426900Y-81816900D01*
X183703100Y-81816900D01*
X183703100Y-82643100D01*
X183703100Y-82643100D01*
G37*
G36*
X208953035Y-80693373D02*
X208953041Y-80693374D01*
X208955090Y-80693388D01*
X209129974Y-80713004D01*
X209297717Y-80766216D01*
X209451931Y-80850995D01*
X209586740Y-80964114D01*
X209697010Y-81101262D01*
X209778542Y-81257217D01*
X209828228Y-81426038D01*
X209828231Y-81426069D01*
X209828235Y-81426083D01*
X209844180Y-81601292D01*
X209825789Y-81776265D01*
X209825787Y-81776270D01*
X209825783Y-81776312D01*
X209773744Y-81944423D01*
X209690043Y-82099224D01*
X209577869Y-82234820D01*
X209441493Y-82346045D01*
X209286111Y-82428663D01*
X209117641Y-82479527D01*
X208942500Y-82496700D01*
X208627466Y-82496700D01*
X208616965Y-82496627D01*
X208616959Y-82496626D01*
X208614910Y-82496612D01*
X208440026Y-82476996D01*
X208272283Y-82423784D01*
X208118069Y-82339005D01*
X207983260Y-82225886D01*
X207872990Y-82088738D01*
X207791458Y-81932783D01*
X207741772Y-81763962D01*
X207741769Y-81763931D01*
X207741765Y-81763917D01*
X207725820Y-81588708D01*
X207744211Y-81413735D01*
X207744213Y-81413730D01*
X207744217Y-81413688D01*
X207796256Y-81245577D01*
X207879957Y-81090776D01*
X207992131Y-80955180D01*
X208128507Y-80843955D01*
X208283889Y-80761337D01*
X208452359Y-80710473D01*
X208627500Y-80693300D01*
X208942534Y-80693300D01*
X208953035Y-80693373D01*
X208953035Y-80693373D01*
G37*
G36*
X119461909Y-79922323D02*
X119461919Y-79922326D01*
X119461956Y-79922330D01*
X119658480Y-79983164D01*
X119839445Y-80081011D01*
X119997959Y-80212145D01*
X120127982Y-80371570D01*
X120224564Y-80553214D01*
X120284025Y-80750158D01*
X120304100Y-80954900D01*
X120304100Y-80965133D01*
X120304012Y-80977761D01*
X120304011Y-80977767D01*
X120303997Y-80979818D01*
X120281065Y-81184260D01*
X120218861Y-81380354D01*
X120119752Y-81560632D01*
X119987515Y-81718226D01*
X119827186Y-81847133D01*
X119644873Y-81942445D01*
X119447519Y-82000529D01*
X119447483Y-82000532D01*
X119447474Y-82000535D01*
X119242643Y-82019176D01*
X119038091Y-81997677D01*
X119038081Y-81997674D01*
X119038044Y-81997670D01*
X118841520Y-81936836D01*
X118660555Y-81838989D01*
X118502041Y-81707855D01*
X118372018Y-81548430D01*
X118275436Y-81366786D01*
X118215975Y-81169842D01*
X118195900Y-80965100D01*
X118195900Y-80954867D01*
X118195988Y-80942239D01*
X118195989Y-80942233D01*
X118196003Y-80940182D01*
X118218935Y-80735740D01*
X118281139Y-80539646D01*
X118380248Y-80359368D01*
X118512485Y-80201774D01*
X118672814Y-80072867D01*
X118855127Y-79977555D01*
X119052481Y-79919471D01*
X119052517Y-79919468D01*
X119052526Y-79919465D01*
X119257357Y-79900824D01*
X119461909Y-79922323D01*
X119461909Y-79922323D01*
G37*
G36*
X117764100Y-82014100D02*
X115655900Y-82014100D01*
X115655900Y-79905900D01*
X117764100Y-79905900D01*
X117764100Y-82014100D01*
X117764100Y-82014100D01*
G37*
G36*
X187533100Y-81613100D02*
X186856900Y-81613100D01*
X186856900Y-79986900D01*
X187533100Y-79986900D01*
X187533100Y-81613100D01*
X187533100Y-81613100D01*
G37*
G36*
X186263100Y-81613100D02*
X185586900Y-81613100D01*
X185586900Y-79986900D01*
X186263100Y-79986900D01*
X186263100Y-81613100D01*
X186263100Y-81613100D01*
G37*
G36*
X188803100Y-81613100D02*
X188126900Y-81613100D01*
X188126900Y-79986900D01*
X188803100Y-79986900D01*
X188803100Y-81613100D01*
X188803100Y-81613100D01*
G37*
G36*
X184993100Y-81613100D02*
X184316900Y-81613100D01*
X184316900Y-79986900D01*
X184993100Y-79986900D01*
X184993100Y-81613100D01*
X184993100Y-81613100D01*
G37*
G36*
X178478100Y-80813100D02*
X177201900Y-80813100D01*
X177201900Y-79836900D01*
X178478100Y-79836900D01*
X178478100Y-80813100D01*
X178478100Y-80813100D01*
G37*
G36*
X180678100Y-80813100D02*
X179401900Y-80813100D01*
X179401900Y-79836900D01*
X180678100Y-79836900D01*
X180678100Y-80813100D01*
X180678100Y-80813100D01*
G37*
G36*
X205118510Y-80528200D02*
X201443130Y-80528200D01*
X201443130Y-78851800D01*
X205118510Y-78851800D01*
X205118510Y-80528200D01*
X205118510Y-80528200D01*
G37*
G36*
X199616870Y-80528200D02*
X195941490Y-80528200D01*
X195941490Y-78851800D01*
X199616870Y-78851800D01*
X199616870Y-80528200D01*
X199616870Y-80528200D01*
G37*
G36*
X192448100Y-80178100D02*
X191171900Y-80178100D01*
X191171900Y-79201900D01*
X192448100Y-79201900D01*
X192448100Y-80178100D01*
X192448100Y-80178100D01*
G37*
G36*
X194648100Y-80178100D02*
X193371900Y-80178100D01*
X193371900Y-79201900D01*
X194648100Y-79201900D01*
X194648100Y-80178100D01*
X194648100Y-80178100D01*
G37*
G36*
X184653100Y-78833100D02*
X183376900Y-78833100D01*
X183376900Y-78006900D01*
X184653100Y-78006900D01*
X184653100Y-78833100D01*
X184653100Y-78833100D01*
G37*
G36*
X182753100Y-78833100D02*
X181476900Y-78833100D01*
X181476900Y-78006900D01*
X182753100Y-78006900D01*
X182753100Y-78833100D01*
X182753100Y-78833100D01*
G37*
G36*
X186733100Y-77638100D02*
X185456900Y-77638100D01*
X185456900Y-76661900D01*
X186733100Y-76661900D01*
X186733100Y-77638100D01*
X186733100Y-77638100D01*
G37*
G36*
X188933100Y-77638100D02*
X187656900Y-77638100D01*
X187656900Y-76661900D01*
X188933100Y-76661900D01*
X188933100Y-77638100D01*
X188933100Y-77638100D01*
G37*
G36*
X190693100Y-77563100D02*
X189416900Y-77563100D01*
X189416900Y-76736900D01*
X190693100Y-76736900D01*
X190693100Y-77563100D01*
X190693100Y-77563100D01*
G37*
G36*
X192593100Y-77563100D02*
X191316900Y-77563100D01*
X191316900Y-76736900D01*
X192593100Y-76736900D01*
X192593100Y-77563100D01*
X192593100Y-77563100D01*
G37*
G36*
X192598100Y-75023100D02*
X191321900Y-75023100D01*
X191321900Y-74196900D01*
X192598100Y-74196900D01*
X192598100Y-75023100D01*
X192598100Y-75023100D01*
G37*
G36*
X194498100Y-75023100D02*
X193221900Y-75023100D01*
X193221900Y-74196900D01*
X194498100Y-74196900D01*
X194498100Y-75023100D01*
X194498100Y-75023100D01*
G37*
G36*
X184193100Y-73828100D02*
X182916900Y-73828100D01*
X182916900Y-72851900D01*
X184193100Y-72851900D01*
X184193100Y-73828100D01*
X184193100Y-73828100D01*
G37*
G36*
X186393100Y-73828100D02*
X185116900Y-73828100D01*
X185116900Y-72851900D01*
X186393100Y-72851900D01*
X186393100Y-73828100D01*
X186393100Y-73828100D01*
G37*
G36*
X209839100Y-73606700D02*
X207730900Y-73606700D01*
X207730900Y-71803300D01*
X209839100Y-71803300D01*
X209839100Y-73606700D01*
X209839100Y-73606700D01*
G37*
G36*
X205118510Y-73543200D02*
X201443130Y-73543200D01*
X201443130Y-71866800D01*
X205118510Y-71866800D01*
X205118510Y-73543200D01*
X205118510Y-73543200D01*
G37*
G36*
X199616870Y-73543200D02*
X195941490Y-73543200D01*
X195941490Y-71866800D01*
X199616870Y-71866800D01*
X199616870Y-73543200D01*
X199616870Y-73543200D01*
G37*
G36*
X192448100Y-73193100D02*
X191171900Y-73193100D01*
X191171900Y-72216900D01*
X192448100Y-72216900D01*
X192448100Y-73193100D01*
X192448100Y-73193100D01*
G37*
G36*
X194648100Y-73193100D02*
X193371900Y-73193100D01*
X193371900Y-72216900D01*
X194648100Y-72216900D01*
X194648100Y-73193100D01*
X194648100Y-73193100D01*
G37*
G36*
X188803100Y-71773100D02*
X188126900Y-71773100D01*
X188126900Y-70146900D01*
X188803100Y-70146900D01*
X188803100Y-71773100D01*
X188803100Y-71773100D01*
G37*
G36*
X187533100Y-71773100D02*
X186856900Y-71773100D01*
X186856900Y-70146900D01*
X187533100Y-70146900D01*
X187533100Y-71773100D01*
X187533100Y-71773100D01*
G37*
G36*
X186263100Y-71773100D02*
X185586900Y-71773100D01*
X185586900Y-70146900D01*
X186263100Y-70146900D01*
X186263100Y-71773100D01*
X186263100Y-71773100D01*
G37*
G36*
X184993100Y-71773100D02*
X184316900Y-71773100D01*
X184316900Y-70146900D01*
X184993100Y-70146900D01*
X184993100Y-71773100D01*
X184993100Y-71773100D01*
G37*
G36*
X175938100Y-71463100D02*
X174361900Y-71463100D01*
X174361900Y-70136900D01*
X175938100Y-70136900D01*
X175938100Y-71463100D01*
X175938100Y-71463100D01*
G37*
G36*
X178438100Y-71463100D02*
X176861900Y-71463100D01*
X176861900Y-70136900D01*
X178438100Y-70136900D01*
X178438100Y-71463100D01*
X178438100Y-71463100D01*
G37*
G36*
X181018100Y-71288100D02*
X179741900Y-71288100D01*
X179741900Y-70311900D01*
X181018100Y-70311900D01*
X181018100Y-71288100D01*
X181018100Y-71288100D01*
G37*
G36*
X183218100Y-71288100D02*
X181941900Y-71288100D01*
X181941900Y-70311900D01*
X183218100Y-70311900D01*
X183218100Y-71288100D01*
X183218100Y-71288100D01*
G37*
G36*
X208953035Y-69263373D02*
X208953041Y-69263374D01*
X208955090Y-69263388D01*
X209129974Y-69283004D01*
X209297717Y-69336216D01*
X209451931Y-69420995D01*
X209586740Y-69534114D01*
X209697010Y-69671262D01*
X209778542Y-69827217D01*
X209828228Y-69996038D01*
X209828231Y-69996069D01*
X209828235Y-69996083D01*
X209844180Y-70171292D01*
X209825789Y-70346265D01*
X209825787Y-70346270D01*
X209825783Y-70346312D01*
X209773744Y-70514423D01*
X209690043Y-70669224D01*
X209577869Y-70804820D01*
X209441493Y-70916045D01*
X209286111Y-70998663D01*
X209117641Y-71049527D01*
X208942500Y-71066700D01*
X208627466Y-71066700D01*
X208616965Y-71066627D01*
X208616959Y-71066626D01*
X208614910Y-71066612D01*
X208440026Y-71046996D01*
X208272283Y-70993784D01*
X208118069Y-70909005D01*
X207983260Y-70795886D01*
X207872990Y-70658738D01*
X207791458Y-70502783D01*
X207741772Y-70333962D01*
X207741769Y-70333931D01*
X207741765Y-70333917D01*
X207725820Y-70158708D01*
X207744211Y-69983735D01*
X207744213Y-69983730D01*
X207744217Y-69983688D01*
X207796256Y-69815577D01*
X207879957Y-69660776D01*
X207992131Y-69525180D01*
X208128507Y-69413955D01*
X208283889Y-69331337D01*
X208452359Y-69280473D01*
X208627500Y-69263300D01*
X208942534Y-69263300D01*
X208953035Y-69263373D01*
X208953035Y-69263373D01*
G37*
G36*
X160438100Y-70888100D02*
X159161900Y-70888100D01*
X159161900Y-69911900D01*
X160438100Y-69911900D01*
X160438100Y-70888100D01*
X160438100Y-70888100D01*
G37*
G36*
X158238100Y-70888100D02*
X156961900Y-70888100D01*
X156961900Y-69911900D01*
X158238100Y-69911900D01*
X158238100Y-70888100D01*
X158238100Y-70888100D01*
G37*
G36*
X130983530Y-70728880D02*
X129106470Y-70728880D01*
X129106470Y-67503080D01*
X130983530Y-67503080D01*
X130983530Y-70728880D01*
X130983530Y-70728880D01*
G37*
G36*
X151653100Y-70663100D02*
X149076900Y-70663100D01*
X149076900Y-68586900D01*
X151653100Y-68586900D01*
X151653100Y-70663100D01*
X151653100Y-70663100D01*
G37*
G36*
X194668100Y-69998100D02*
X193691900Y-69998100D01*
X193691900Y-68721900D01*
X194668100Y-68721900D01*
X194668100Y-69998100D01*
X194668100Y-69998100D01*
G37*
G36*
X125618100Y-69393100D02*
X123041900Y-69393100D01*
X123041900Y-67316900D01*
X125618100Y-67316900D01*
X125618100Y-69393100D01*
X125618100Y-69393100D01*
G37*
G36*
X174908100Y-69213100D02*
X174081900Y-69213100D01*
X174081900Y-67936900D01*
X174908100Y-67936900D01*
X174908100Y-69213100D01*
X174908100Y-69213100D01*
G37*
G36*
X160388100Y-68938100D02*
X159411900Y-68938100D01*
X159411900Y-67661900D01*
X160388100Y-67661900D01*
X160388100Y-68938100D01*
X160388100Y-68938100D01*
G37*
G36*
X155988100Y-68938100D02*
X155011900Y-68938100D01*
X155011900Y-67661900D01*
X155988100Y-67661900D01*
X155988100Y-68938100D01*
X155988100Y-68938100D01*
G37*
G36*
X158188100Y-68938100D02*
X157211900Y-68938100D01*
X157211900Y-67661900D01*
X158188100Y-67661900D01*
X158188100Y-68938100D01*
X158188100Y-68938100D01*
G37*
G36*
X153913100Y-68588100D02*
X153086900Y-68588100D01*
X153086900Y-67311900D01*
X153913100Y-67311900D01*
X153913100Y-68588100D01*
X153913100Y-68588100D01*
G37*
G36*
X208953035Y-66723373D02*
X208953041Y-66723374D01*
X208955090Y-66723388D01*
X209129974Y-66743004D01*
X209297717Y-66796216D01*
X209451931Y-66880995D01*
X209586740Y-66994114D01*
X209697010Y-67131262D01*
X209778542Y-67287217D01*
X209828228Y-67456038D01*
X209828231Y-67456069D01*
X209828235Y-67456083D01*
X209844180Y-67631292D01*
X209825789Y-67806265D01*
X209825787Y-67806270D01*
X209825783Y-67806312D01*
X209773744Y-67974423D01*
X209690043Y-68129224D01*
X209577869Y-68264820D01*
X209441493Y-68376045D01*
X209286111Y-68458663D01*
X209117641Y-68509527D01*
X208942500Y-68526700D01*
X208627466Y-68526700D01*
X208616965Y-68526627D01*
X208616959Y-68526626D01*
X208614910Y-68526612D01*
X208440026Y-68506996D01*
X208272283Y-68453784D01*
X208118069Y-68369005D01*
X207983260Y-68255886D01*
X207872990Y-68118738D01*
X207791458Y-67962783D01*
X207741772Y-67793962D01*
X207741769Y-67793931D01*
X207741765Y-67793917D01*
X207725820Y-67618708D01*
X207744211Y-67443735D01*
X207744213Y-67443730D01*
X207744217Y-67443688D01*
X207796256Y-67275577D01*
X207879957Y-67120776D01*
X207992131Y-66985180D01*
X208128507Y-66873955D01*
X208283889Y-66791337D01*
X208452359Y-66740473D01*
X208627500Y-66723300D01*
X208942534Y-66723300D01*
X208953035Y-66723373D01*
X208953035Y-66723373D01*
G37*
G36*
X194668100Y-67798100D02*
X193691900Y-67798100D01*
X193691900Y-66521900D01*
X194668100Y-66521900D01*
X194668100Y-67798100D01*
X194668100Y-67798100D01*
G37*
G36*
X181803100Y-67403100D02*
X180526900Y-67403100D01*
X180526900Y-66576900D01*
X181803100Y-66576900D01*
X181803100Y-67403100D01*
X181803100Y-67403100D01*
G37*
G36*
X183703100Y-67403100D02*
X182426900Y-67403100D01*
X182426900Y-66576900D01*
X183703100Y-66576900D01*
X183703100Y-67403100D01*
X183703100Y-67403100D01*
G37*
G36*
X174908100Y-67313100D02*
X174081900Y-67313100D01*
X174081900Y-66036900D01*
X174908100Y-66036900D01*
X174908100Y-67313100D01*
X174908100Y-67313100D01*
G37*
G36*
X176813100Y-67308100D02*
X175986900Y-67308100D01*
X175986900Y-66031900D01*
X176813100Y-66031900D01*
X176813100Y-67308100D01*
X176813100Y-67308100D01*
G37*
G36*
X178718100Y-67308100D02*
X177891900Y-67308100D01*
X177891900Y-66031900D01*
X178718100Y-66031900D01*
X178718100Y-67308100D01*
X178718100Y-67308100D01*
G37*
G36*
X160388100Y-66738100D02*
X159411900Y-66738100D01*
X159411900Y-65461900D01*
X160388100Y-65461900D01*
X160388100Y-66738100D01*
X160388100Y-66738100D01*
G37*
G36*
X158188100Y-66738100D02*
X157211900Y-66738100D01*
X157211900Y-65461900D01*
X158188100Y-65461900D01*
X158188100Y-66738100D01*
X158188100Y-66738100D01*
G37*
G36*
X155988100Y-66738100D02*
X155011900Y-66738100D01*
X155011900Y-65461900D01*
X155988100Y-65461900D01*
X155988100Y-66738100D01*
X155988100Y-66738100D01*
G37*
G36*
X153913100Y-66688100D02*
X153086900Y-66688100D01*
X153086900Y-65411900D01*
X153913100Y-65411900D01*
X153913100Y-66688100D01*
X153913100Y-66688100D01*
G37*
G36*
X151653100Y-66663100D02*
X149076900Y-66663100D01*
X149076900Y-64586900D01*
X151653100Y-64586900D01*
X151653100Y-66663100D01*
X151653100Y-66663100D01*
G37*
G36*
X199616870Y-66558200D02*
X195941490Y-66558200D01*
X195941490Y-64881800D01*
X199616870Y-64881800D01*
X199616870Y-66558200D01*
X199616870Y-66558200D01*
G37*
G36*
X205118510Y-66558200D02*
X201443130Y-66558200D01*
X201443130Y-64881800D01*
X205118510Y-64881800D01*
X205118510Y-66558200D01*
X205118510Y-66558200D01*
G37*
G36*
X130983530Y-66476920D02*
X129106470Y-66476920D01*
X129106470Y-63251120D01*
X130983530Y-63251120D01*
X130983530Y-66476920D01*
X130983530Y-66476920D01*
G37*
G36*
X184993100Y-66373100D02*
X184316900Y-66373100D01*
X184316900Y-64746900D01*
X184993100Y-64746900D01*
X184993100Y-66373100D01*
X184993100Y-66373100D01*
G37*
G36*
X186263100Y-66373100D02*
X185586900Y-66373100D01*
X185586900Y-64746900D01*
X186263100Y-64746900D01*
X186263100Y-66373100D01*
X186263100Y-66373100D01*
G37*
G36*
X187533100Y-66373100D02*
X186856900Y-66373100D01*
X186856900Y-64746900D01*
X187533100Y-64746900D01*
X187533100Y-66373100D01*
X187533100Y-66373100D01*
G37*
G36*
X188803100Y-66373100D02*
X188126900Y-66373100D01*
X188126900Y-64746900D01*
X188803100Y-64746900D01*
X188803100Y-66373100D01*
X188803100Y-66373100D01*
G37*
G36*
X193228100Y-65498100D02*
X191951900Y-65498100D01*
X191951900Y-64671900D01*
X193228100Y-64671900D01*
X193228100Y-65498100D01*
X193228100Y-65498100D01*
G37*
G36*
X191328100Y-65498100D02*
X190051900Y-65498100D01*
X190051900Y-64671900D01*
X191328100Y-64671900D01*
X191328100Y-65498100D01*
X191328100Y-65498100D01*
G37*
G36*
X178718100Y-65408100D02*
X177891900Y-65408100D01*
X177891900Y-64131900D01*
X178718100Y-64131900D01*
X178718100Y-65408100D01*
X178718100Y-65408100D01*
G37*
G36*
X176813100Y-65408100D02*
X175986900Y-65408100D01*
X175986900Y-64131900D01*
X176813100Y-64131900D01*
X176813100Y-65408100D01*
X176813100Y-65408100D01*
G37*
G36*
X125618100Y-65393100D02*
X123041900Y-65393100D01*
X123041900Y-63316900D01*
X125618100Y-63316900D01*
X125618100Y-65393100D01*
X125618100Y-65393100D01*
G37*
G36*
X181613100Y-63208100D02*
X180036900Y-63208100D01*
X180036900Y-61881900D01*
X181613100Y-61881900D01*
X181613100Y-63208100D01*
X181613100Y-63208100D01*
G37*
G36*
X179113100Y-63208100D02*
X177536900Y-63208100D01*
X177536900Y-61881900D01*
X179113100Y-61881900D01*
X179113100Y-63208100D01*
X179113100Y-63208100D01*
G37*
G36*
X155868100Y-63148100D02*
X154341900Y-63148100D01*
X154341900Y-62621900D01*
X155868100Y-62621900D01*
X155868100Y-63148100D01*
X155868100Y-63148100D01*
G37*
G36*
X151468100Y-63148100D02*
X149941900Y-63148100D01*
X149941900Y-62621900D01*
X151468100Y-62621900D01*
X151468100Y-63148100D01*
X151468100Y-63148100D01*
G37*
G36*
X190838100Y-63033100D02*
X189561900Y-63033100D01*
X189561900Y-62056900D01*
X190838100Y-62056900D01*
X190838100Y-63033100D01*
X190838100Y-63033100D01*
G37*
G36*
X188638100Y-63033100D02*
X187361900Y-63033100D01*
X187361900Y-62056900D01*
X188638100Y-62056900D01*
X188638100Y-63033100D01*
X188638100Y-63033100D01*
G37*
G36*
X184193100Y-63033100D02*
X182916900Y-63033100D01*
X182916900Y-62056900D01*
X184193100Y-62056900D01*
X184193100Y-63033100D01*
X184193100Y-63033100D01*
G37*
G36*
X148928100Y-63033100D02*
X147651900Y-63033100D01*
X147651900Y-62056900D01*
X148928100Y-62056900D01*
X148928100Y-63033100D01*
X148928100Y-63033100D01*
G37*
G36*
X146728100Y-63033100D02*
X145451900Y-63033100D01*
X145451900Y-62056900D01*
X146728100Y-62056900D01*
X146728100Y-63033100D01*
X146728100Y-63033100D01*
G37*
G36*
X186393100Y-63033100D02*
X185116900Y-63033100D01*
X185116900Y-62056900D01*
X186393100Y-62056900D01*
X186393100Y-63033100D01*
X186393100Y-63033100D01*
G37*
G36*
X141043200Y-62688510D02*
X139366800Y-62688510D01*
X139366800Y-59013130D01*
X141043200Y-59013130D01*
X141043200Y-62688510D01*
X141043200Y-62688510D01*
G37*
G36*
X151468100Y-62498100D02*
X149941900Y-62498100D01*
X149941900Y-61971900D01*
X151468100Y-61971900D01*
X151468100Y-62498100D01*
X151468100Y-62498100D01*
G37*
G36*
X155868100Y-62498100D02*
X154341900Y-62498100D01*
X154341900Y-61971900D01*
X155868100Y-61971900D01*
X155868100Y-62498100D01*
X155868100Y-62498100D01*
G37*
G36*
X155868100Y-61848100D02*
X154341900Y-61848100D01*
X154341900Y-61321900D01*
X155868100Y-61321900D01*
X155868100Y-61848100D01*
X155868100Y-61848100D01*
G37*
G36*
X151468100Y-61848100D02*
X149941900Y-61848100D01*
X149941900Y-61321900D01*
X151468100Y-61321900D01*
X151468100Y-61848100D01*
X151468100Y-61848100D01*
G37*
G36*
X151468100Y-61198100D02*
X149941900Y-61198100D01*
X149941900Y-60671900D01*
X151468100Y-60671900D01*
X151468100Y-61198100D01*
X151468100Y-61198100D01*
G37*
G36*
X155868100Y-61198100D02*
X154341900Y-61198100D01*
X154341900Y-60671900D01*
X155868100Y-60671900D01*
X155868100Y-61198100D01*
X155868100Y-61198100D01*
G37*
G36*
X146573100Y-61138100D02*
X143996900Y-61138100D01*
X143996900Y-59061900D01*
X146573100Y-59061900D01*
X146573100Y-61138100D01*
X146573100Y-61138100D01*
G37*
G36*
X192598100Y-61053100D02*
X191321900Y-61053100D01*
X191321900Y-60226900D01*
X192598100Y-60226900D01*
X192598100Y-61053100D01*
X192598100Y-61053100D01*
G37*
G36*
X194498100Y-61053100D02*
X193221900Y-61053100D01*
X193221900Y-60226900D01*
X194498100Y-60226900D01*
X194498100Y-61053100D01*
X194498100Y-61053100D01*
G37*
G36*
X134401100Y-60932100D02*
X132292900Y-60932100D01*
X132292900Y-59839900D01*
X134401100Y-59839900D01*
X134401100Y-60932100D01*
X134401100Y-60932100D01*
G37*
G36*
X127797100Y-59966900D02*
X125688900Y-59966900D01*
X125688900Y-56233100D01*
X127797100Y-56233100D01*
X127797100Y-59966900D01*
X127797100Y-59966900D01*
G37*
G36*
X209839100Y-59636700D02*
X207730900Y-59636700D01*
X207730900Y-57833300D01*
X209839100Y-57833300D01*
X209839100Y-59636700D01*
X209839100Y-59636700D01*
G37*
G36*
X205118510Y-59573200D02*
X201443130Y-59573200D01*
X201443130Y-57896800D01*
X205118510Y-57896800D01*
X205118510Y-59573200D01*
X205118510Y-59573200D01*
G37*
G36*
X199616870Y-59573200D02*
X195941490Y-59573200D01*
X195941490Y-57896800D01*
X199616870Y-57896800D01*
X199616870Y-59573200D01*
X199616870Y-59573200D01*
G37*
G36*
X192448100Y-59223100D02*
X191171900Y-59223100D01*
X191171900Y-58246900D01*
X192448100Y-58246900D01*
X192448100Y-59223100D01*
X192448100Y-59223100D01*
G37*
G36*
X184193100Y-59223100D02*
X182916900Y-59223100D01*
X182916900Y-58246900D01*
X184193100Y-58246900D01*
X184193100Y-59223100D01*
X184193100Y-59223100D01*
G37*
G36*
X186393100Y-59223100D02*
X185116900Y-59223100D01*
X185116900Y-58246900D01*
X186393100Y-58246900D01*
X186393100Y-59223100D01*
X186393100Y-59223100D01*
G37*
G36*
X194648100Y-59223100D02*
X193371900Y-59223100D01*
X193371900Y-58246900D01*
X194648100Y-58246900D01*
X194648100Y-59223100D01*
X194648100Y-59223100D01*
G37*
G36*
X153378100Y-58813100D02*
X151881900Y-58813100D01*
X151881900Y-54846900D01*
X153378100Y-54846900D01*
X153378100Y-58813100D01*
X153378100Y-58813100D01*
G37*
G36*
X150478100Y-58813100D02*
X148981900Y-58813100D01*
X148981900Y-54846900D01*
X150478100Y-54846900D01*
X150478100Y-58813100D01*
X150478100Y-58813100D01*
G37*
G36*
X134401100Y-58646100D02*
X132292900Y-58646100D01*
X132292900Y-57553900D01*
X134401100Y-57553900D01*
X134401100Y-58646100D01*
X134401100Y-58646100D01*
G37*
G36*
X141043200Y-57186870D02*
X139366800Y-57186870D01*
X139366800Y-53511490D01*
X141043200Y-53511490D01*
X141043200Y-57186870D01*
X141043200Y-57186870D01*
G37*
G36*
X188803100Y-57168100D02*
X188126900Y-57168100D01*
X188126900Y-55541900D01*
X188803100Y-55541900D01*
X188803100Y-57168100D01*
X188803100Y-57168100D01*
G37*
G36*
X184993100Y-57168100D02*
X184316900Y-57168100D01*
X184316900Y-55541900D01*
X184993100Y-55541900D01*
X184993100Y-57168100D01*
X184993100Y-57168100D01*
G37*
G36*
X187533100Y-57168100D02*
X186856900Y-57168100D01*
X186856900Y-55541900D01*
X187533100Y-55541900D01*
X187533100Y-57168100D01*
X187533100Y-57168100D01*
G37*
G36*
X186263100Y-57168100D02*
X185586900Y-57168100D01*
X185586900Y-55541900D01*
X186263100Y-55541900D01*
X186263100Y-57168100D01*
X186263100Y-57168100D01*
G37*
G36*
X146573100Y-57138100D02*
X143996900Y-57138100D01*
X143996900Y-55061900D01*
X146573100Y-55061900D01*
X146573100Y-57138100D01*
X146573100Y-57138100D01*
G37*
G36*
X208953035Y-55293373D02*
X208953041Y-55293374D01*
X208955090Y-55293388D01*
X209129974Y-55313004D01*
X209297717Y-55366216D01*
X209451931Y-55450995D01*
X209586740Y-55564114D01*
X209697010Y-55701262D01*
X209778542Y-55857217D01*
X209828228Y-56026038D01*
X209828231Y-56026069D01*
X209828235Y-56026083D01*
X209844180Y-56201292D01*
X209825789Y-56376265D01*
X209825787Y-56376270D01*
X209825783Y-56376312D01*
X209773744Y-56544423D01*
X209690043Y-56699224D01*
X209577869Y-56834820D01*
X209441493Y-56946045D01*
X209286111Y-57028663D01*
X209117641Y-57079527D01*
X208942500Y-57096700D01*
X208627466Y-57096700D01*
X208616965Y-57096627D01*
X208616959Y-57096626D01*
X208614910Y-57096612D01*
X208440026Y-57076996D01*
X208272283Y-57023784D01*
X208118069Y-56939005D01*
X207983260Y-56825886D01*
X207872990Y-56688738D01*
X207791458Y-56532783D01*
X207741772Y-56363962D01*
X207741769Y-56363931D01*
X207741765Y-56363917D01*
X207725820Y-56188708D01*
X207744211Y-56013735D01*
X207744213Y-56013730D01*
X207744217Y-56013688D01*
X207796256Y-55845577D01*
X207879957Y-55690776D01*
X207992131Y-55555180D01*
X208128507Y-55443955D01*
X208283889Y-55361337D01*
X208452359Y-55310473D01*
X208627500Y-55293300D01*
X208942534Y-55293300D01*
X208953035Y-55293373D01*
X208953035Y-55293373D01*
G37*
G36*
X175938100Y-56858100D02*
X174361900Y-56858100D01*
X174361900Y-55531900D01*
X175938100Y-55531900D01*
X175938100Y-56858100D01*
X175938100Y-56858100D01*
G37*
G36*
X178438100Y-56858100D02*
X176861900Y-56858100D01*
X176861900Y-55531900D01*
X178438100Y-55531900D01*
X178438100Y-56858100D01*
X178438100Y-56858100D01*
G37*
G36*
X181018100Y-56683100D02*
X179741900Y-56683100D01*
X179741900Y-55706900D01*
X181018100Y-55706900D01*
X181018100Y-56683100D01*
X181018100Y-56683100D01*
G37*
G36*
X183218100Y-56683100D02*
X181941900Y-56683100D01*
X181941900Y-55706900D01*
X183218100Y-55706900D01*
X183218100Y-56683100D01*
X183218100Y-56683100D01*
G37*
G36*
X134401100Y-56360100D02*
X132292900Y-56360100D01*
X132292900Y-55267900D01*
X134401100Y-55267900D01*
X134401100Y-56360100D01*
X134401100Y-56360100D01*
G37*
G36*
X194668100Y-56028100D02*
X193691900Y-56028100D01*
X193691900Y-54751900D01*
X194668100Y-54751900D01*
X194668100Y-56028100D01*
X194668100Y-56028100D01*
G37*
G36*
X174908100Y-54608100D02*
X174081900Y-54608100D01*
X174081900Y-53331900D01*
X174908100Y-53331900D01*
X174908100Y-54608100D01*
X174908100Y-54608100D01*
G37*
G36*
X208953035Y-52753373D02*
X208953041Y-52753374D01*
X208955090Y-52753388D01*
X209129974Y-52773004D01*
X209297717Y-52826216D01*
X209451931Y-52910995D01*
X209586740Y-53024114D01*
X209697010Y-53161262D01*
X209778542Y-53317217D01*
X209828228Y-53486038D01*
X209828231Y-53486069D01*
X209828235Y-53486083D01*
X209844180Y-53661292D01*
X209825789Y-53836265D01*
X209825787Y-53836270D01*
X209825783Y-53836312D01*
X209773744Y-54004423D01*
X209690043Y-54159224D01*
X209577869Y-54294820D01*
X209441493Y-54406045D01*
X209286111Y-54488663D01*
X209117641Y-54539527D01*
X208942500Y-54556700D01*
X208627466Y-54556700D01*
X208616965Y-54556627D01*
X208616959Y-54556626D01*
X208614910Y-54556612D01*
X208440026Y-54536996D01*
X208272283Y-54483784D01*
X208118069Y-54399005D01*
X207983260Y-54285886D01*
X207872990Y-54148738D01*
X207791458Y-53992783D01*
X207741772Y-53823962D01*
X207741769Y-53823931D01*
X207741765Y-53823917D01*
X207725820Y-53648708D01*
X207744211Y-53473735D01*
X207744213Y-53473730D01*
X207744217Y-53473688D01*
X207796256Y-53305577D01*
X207879957Y-53150776D01*
X207992131Y-53015180D01*
X208128507Y-52903955D01*
X208283889Y-52821337D01*
X208452359Y-52770473D01*
X208627500Y-52753300D01*
X208942534Y-52753300D01*
X208953035Y-52753373D01*
X208953035Y-52753373D01*
G37*
G36*
X194668100Y-53828100D02*
X193691900Y-53828100D01*
X193691900Y-52551900D01*
X194668100Y-52551900D01*
X194668100Y-53828100D01*
X194668100Y-53828100D01*
G37*
G36*
X116727761Y-50695988D02*
X116727767Y-50695989D01*
X116729818Y-50696003D01*
X116934260Y-50718935D01*
X117130354Y-50781139D01*
X117310632Y-50880248D01*
X117468226Y-51012485D01*
X117597133Y-51172814D01*
X117692445Y-51355127D01*
X117750529Y-51552481D01*
X117750532Y-51552517D01*
X117750535Y-51552526D01*
X117769176Y-51757357D01*
X117747677Y-51961909D01*
X117747674Y-51961919D01*
X117747670Y-51961956D01*
X117686836Y-52158480D01*
X117588989Y-52339445D01*
X117457855Y-52497959D01*
X117298430Y-52627982D01*
X117116786Y-52724564D01*
X116919842Y-52784025D01*
X116715100Y-52804100D01*
X116704867Y-52804100D01*
X116692239Y-52804012D01*
X116692233Y-52804011D01*
X116690182Y-52803997D01*
X116485740Y-52781065D01*
X116289646Y-52718861D01*
X116109368Y-52619752D01*
X115951774Y-52487515D01*
X115822867Y-52327186D01*
X115727555Y-52144873D01*
X115669471Y-51947519D01*
X115669468Y-51947483D01*
X115669465Y-51947474D01*
X115650824Y-51742643D01*
X115672323Y-51538091D01*
X115672326Y-51538081D01*
X115672330Y-51538044D01*
X115733164Y-51341520D01*
X115831011Y-51160555D01*
X115962145Y-51002041D01*
X116121570Y-50872018D01*
X116303214Y-50775436D01*
X116500158Y-50715975D01*
X116704900Y-50695900D01*
X116715133Y-50695900D01*
X116727761Y-50695988D01*
X116727761Y-50695988D01*
G37*
G36*
X183703100Y-52798100D02*
X182426900Y-52798100D01*
X182426900Y-51971900D01*
X183703100Y-51971900D01*
X183703100Y-52798100D01*
X183703100Y-52798100D01*
G37*
G36*
X181803100Y-52798100D02*
X180526900Y-52798100D01*
X180526900Y-51971900D01*
X181803100Y-51971900D01*
X181803100Y-52798100D01*
X181803100Y-52798100D01*
G37*
G36*
X174908100Y-52708100D02*
X174081900Y-52708100D01*
X174081900Y-51431900D01*
X174908100Y-51431900D01*
X174908100Y-52708100D01*
X174908100Y-52708100D01*
G37*
G36*
X178718100Y-52703100D02*
X177891900Y-52703100D01*
X177891900Y-51426900D01*
X178718100Y-51426900D01*
X178718100Y-52703100D01*
X178718100Y-52703100D01*
G37*
G36*
X176813100Y-52703100D02*
X175986900Y-52703100D01*
X175986900Y-51426900D01*
X176813100Y-51426900D01*
X176813100Y-52703100D01*
X176813100Y-52703100D01*
G37*
G36*
X205118510Y-52588200D02*
X201443130Y-52588200D01*
X201443130Y-50911800D01*
X205118510Y-50911800D01*
X205118510Y-52588200D01*
X205118510Y-52588200D01*
G37*
G36*
X199616870Y-52588200D02*
X195941490Y-52588200D01*
X195941490Y-50911800D01*
X199616870Y-50911800D01*
X199616870Y-52588200D01*
X199616870Y-52588200D01*
G37*
G36*
X131388100Y-52438100D02*
X129811900Y-52438100D01*
X129811900Y-51061900D01*
X131388100Y-51061900D01*
X131388100Y-52438100D01*
X131388100Y-52438100D01*
G37*
G36*
X134088100Y-52438100D02*
X132511900Y-52438100D01*
X132511900Y-51061900D01*
X134088100Y-51061900D01*
X134088100Y-52438100D01*
X134088100Y-52438100D01*
G37*
G36*
X123918100Y-52398100D02*
X122931900Y-52398100D01*
X122931900Y-51101900D01*
X123918100Y-51101900D01*
X123918100Y-52398100D01*
X123918100Y-52398100D01*
G37*
G36*
X120648100Y-52398100D02*
X119661900Y-52398100D01*
X119661900Y-51101900D01*
X120648100Y-51101900D01*
X120648100Y-52398100D01*
X120648100Y-52398100D01*
G37*
G36*
X187533100Y-51768100D02*
X186856900Y-51768100D01*
X186856900Y-50141900D01*
X187533100Y-50141900D01*
X187533100Y-51768100D01*
X187533100Y-51768100D01*
G37*
G36*
X188803100Y-51768100D02*
X188126900Y-51768100D01*
X188126900Y-50141900D01*
X188803100Y-50141900D01*
X188803100Y-51768100D01*
X188803100Y-51768100D01*
G37*
G36*
X186263100Y-51768100D02*
X185586900Y-51768100D01*
X185586900Y-50141900D01*
X186263100Y-50141900D01*
X186263100Y-51768100D01*
X186263100Y-51768100D01*
G37*
G36*
X184993100Y-51768100D02*
X184316900Y-51768100D01*
X184316900Y-50141900D01*
X184993100Y-50141900D01*
X184993100Y-51768100D01*
X184993100Y-51768100D01*
G37*
G36*
X191328100Y-50893100D02*
X190051900Y-50893100D01*
X190051900Y-50066900D01*
X191328100Y-50066900D01*
X191328100Y-50893100D01*
X191328100Y-50893100D01*
G37*
G36*
X193228100Y-50893100D02*
X191951900Y-50893100D01*
X191951900Y-50066900D01*
X193228100Y-50066900D01*
X193228100Y-50893100D01*
X193228100Y-50893100D01*
G37*
G36*
X176813100Y-50803100D02*
X175986900Y-50803100D01*
X175986900Y-49526900D01*
X176813100Y-49526900D01*
X176813100Y-50803100D01*
X176813100Y-50803100D01*
G37*
G36*
X178718100Y-50803100D02*
X177891900Y-50803100D01*
X177891900Y-49526900D01*
X178718100Y-49526900D01*
X178718100Y-50803100D01*
X178718100Y-50803100D01*
G37*
G36*
X117764100Y-50264100D02*
X115655900Y-50264100D01*
X115655900Y-48155900D01*
X117764100Y-48155900D01*
X117764100Y-50264100D01*
X117764100Y-50264100D01*
G37*
G36*
X179113100Y-48603100D02*
X177536900Y-48603100D01*
X177536900Y-47276900D01*
X179113100Y-47276900D01*
X179113100Y-48603100D01*
X179113100Y-48603100D01*
G37*
G36*
X181613100Y-48603100D02*
X180036900Y-48603100D01*
X180036900Y-47276900D01*
X181613100Y-47276900D01*
X181613100Y-48603100D01*
X181613100Y-48603100D01*
G37*
G36*
X184193100Y-48428100D02*
X182916900Y-48428100D01*
X182916900Y-47451900D01*
X184193100Y-47451900D01*
X184193100Y-48428100D01*
X184193100Y-48428100D01*
G37*
G36*
X186393100Y-48428100D02*
X185116900Y-48428100D01*
X185116900Y-47451900D01*
X186393100Y-47451900D01*
X186393100Y-48428100D01*
X186393100Y-48428100D01*
G37*
G36*
X190838100Y-48428100D02*
X189561900Y-48428100D01*
X189561900Y-47451900D01*
X190838100Y-47451900D01*
X190838100Y-48428100D01*
X190838100Y-48428100D01*
G37*
G36*
X188638100Y-48428100D02*
X187361900Y-48428100D01*
X187361900Y-47451900D01*
X188638100Y-47451900D01*
X188638100Y-48428100D01*
X188638100Y-48428100D01*
G37*
G36*
X197666265Y-44832348D02*
X197666270Y-44832350D01*
X197666312Y-44832354D01*
X197834423Y-44884393D01*
X197989224Y-44968094D01*
X198124820Y-45080268D01*
X198236045Y-45216644D01*
X198318663Y-45372026D01*
X198369527Y-45540496D01*
X198386700Y-45715637D01*
X198386700Y-45724397D01*
X198386627Y-45734898D01*
X198386626Y-45734904D01*
X198386612Y-45736953D01*
X198366996Y-45911837D01*
X198313784Y-46079580D01*
X198229005Y-46233794D01*
X198115886Y-46368603D01*
X197978738Y-46478873D01*
X197822783Y-46560405D01*
X197653962Y-46610091D01*
X197653931Y-46610094D01*
X197653917Y-46610098D01*
X197478708Y-46626043D01*
X197303735Y-46607652D01*
X197303730Y-46607650D01*
X197303688Y-46607646D01*
X197135577Y-46555607D01*
X196980776Y-46471906D01*
X196845180Y-46359732D01*
X196733955Y-46223356D01*
X196651337Y-46067974D01*
X196600473Y-45899504D01*
X196583300Y-45724363D01*
X196583300Y-45715603D01*
X196583373Y-45705102D01*
X196583374Y-45705096D01*
X196583388Y-45703047D01*
X196603004Y-45528163D01*
X196656216Y-45360420D01*
X196740995Y-45206206D01*
X196854114Y-45071397D01*
X196991262Y-44961127D01*
X197147217Y-44879595D01*
X197316038Y-44829909D01*
X197316069Y-44829906D01*
X197316083Y-44829902D01*
X197491292Y-44813957D01*
X197666265Y-44832348D01*
X197666265Y-44832348D01*
G37*
G36*
X200206265Y-44832348D02*
X200206270Y-44832350D01*
X200206312Y-44832354D01*
X200374423Y-44884393D01*
X200529224Y-44968094D01*
X200664820Y-45080268D01*
X200776045Y-45216644D01*
X200858663Y-45372026D01*
X200909527Y-45540496D01*
X200926700Y-45715637D01*
X200926700Y-45724397D01*
X200926627Y-45734898D01*
X200926626Y-45734904D01*
X200926612Y-45736953D01*
X200906996Y-45911837D01*
X200853784Y-46079580D01*
X200769005Y-46233794D01*
X200655886Y-46368603D01*
X200518738Y-46478873D01*
X200362783Y-46560405D01*
X200193962Y-46610091D01*
X200193931Y-46610094D01*
X200193917Y-46610098D01*
X200018708Y-46626043D01*
X199843735Y-46607652D01*
X199843730Y-46607650D01*
X199843688Y-46607646D01*
X199675577Y-46555607D01*
X199520776Y-46471906D01*
X199385180Y-46359732D01*
X199273955Y-46223356D01*
X199191337Y-46067974D01*
X199140473Y-45899504D01*
X199123300Y-45724363D01*
X199123300Y-45715603D01*
X199123373Y-45705102D01*
X199123374Y-45705096D01*
X199123388Y-45703047D01*
X199143004Y-45528163D01*
X199196216Y-45360420D01*
X199280995Y-45206206D01*
X199394114Y-45071397D01*
X199531262Y-44961127D01*
X199687217Y-44879595D01*
X199856038Y-44829909D01*
X199856069Y-44829906D01*
X199856083Y-44829902D01*
X200031292Y-44813957D01*
X200206265Y-44832348D01*
X200206265Y-44832348D01*
G37*
G36*
X202746265Y-44832348D02*
X202746270Y-44832350D01*
X202746312Y-44832354D01*
X202914423Y-44884393D01*
X203069224Y-44968094D01*
X203204820Y-45080268D01*
X203316045Y-45216644D01*
X203398663Y-45372026D01*
X203449527Y-45540496D01*
X203466700Y-45715637D01*
X203466700Y-45724397D01*
X203466627Y-45734898D01*
X203466626Y-45734904D01*
X203466612Y-45736953D01*
X203446996Y-45911837D01*
X203393784Y-46079580D01*
X203309005Y-46233794D01*
X203195886Y-46368603D01*
X203058738Y-46478873D01*
X202902783Y-46560405D01*
X202733962Y-46610091D01*
X202733931Y-46610094D01*
X202733917Y-46610098D01*
X202558708Y-46626043D01*
X202383735Y-46607652D01*
X202383730Y-46607650D01*
X202383688Y-46607646D01*
X202215577Y-46555607D01*
X202060776Y-46471906D01*
X201925180Y-46359732D01*
X201813955Y-46223356D01*
X201731337Y-46067974D01*
X201680473Y-45899504D01*
X201663300Y-45724363D01*
X201663300Y-45715603D01*
X201663373Y-45705102D01*
X201663374Y-45705096D01*
X201663388Y-45703047D01*
X201683004Y-45528163D01*
X201736216Y-45360420D01*
X201820995Y-45206206D01*
X201934114Y-45071397D01*
X202071262Y-44961127D01*
X202227217Y-44879595D01*
X202396038Y-44829909D01*
X202396069Y-44829906D01*
X202396083Y-44829902D01*
X202571292Y-44813957D01*
X202746265Y-44832348D01*
X202746265Y-44832348D01*
G37*
G36*
X195846700Y-46621700D02*
X194043300Y-46621700D01*
X194043300Y-44818300D01*
X195846700Y-44818300D01*
X195846700Y-46621700D01*
X195846700Y-46621700D01*
G37*
G36*
X202746265Y-42292348D02*
X202746270Y-42292350D01*
X202746312Y-42292354D01*
X202914423Y-42344393D01*
X203069224Y-42428094D01*
X203204820Y-42540268D01*
X203316045Y-42676644D01*
X203398663Y-42832026D01*
X203449527Y-43000496D01*
X203466700Y-43175637D01*
X203466700Y-43184397D01*
X203466627Y-43194898D01*
X203466626Y-43194904D01*
X203466612Y-43196953D01*
X203446996Y-43371837D01*
X203393784Y-43539580D01*
X203309005Y-43693794D01*
X203195886Y-43828603D01*
X203058738Y-43938873D01*
X202902783Y-44020405D01*
X202733962Y-44070091D01*
X202733931Y-44070094D01*
X202733917Y-44070098D01*
X202558708Y-44086043D01*
X202383735Y-44067652D01*
X202383730Y-44067650D01*
X202383688Y-44067646D01*
X202215577Y-44015607D01*
X202060776Y-43931906D01*
X201925180Y-43819732D01*
X201813955Y-43683356D01*
X201731337Y-43527974D01*
X201680473Y-43359504D01*
X201663300Y-43184363D01*
X201663300Y-43175603D01*
X201663373Y-43165102D01*
X201663374Y-43165096D01*
X201663388Y-43163047D01*
X201683004Y-42988163D01*
X201736216Y-42820420D01*
X201820995Y-42666206D01*
X201934114Y-42531397D01*
X202071262Y-42421127D01*
X202227217Y-42339595D01*
X202396038Y-42289909D01*
X202396069Y-42289906D01*
X202396083Y-42289902D01*
X202571292Y-42273957D01*
X202746265Y-42292348D01*
X202746265Y-42292348D01*
G37*
G36*
X200206265Y-42292348D02*
X200206270Y-42292350D01*
X200206312Y-42292354D01*
X200374423Y-42344393D01*
X200529224Y-42428094D01*
X200664820Y-42540268D01*
X200776045Y-42676644D01*
X200858663Y-42832026D01*
X200909527Y-43000496D01*
X200926700Y-43175637D01*
X200926700Y-43184397D01*
X200926627Y-43194898D01*
X200926626Y-43194904D01*
X200926612Y-43196953D01*
X200906996Y-43371837D01*
X200853784Y-43539580D01*
X200769005Y-43693794D01*
X200655886Y-43828603D01*
X200518738Y-43938873D01*
X200362783Y-44020405D01*
X200193962Y-44070091D01*
X200193931Y-44070094D01*
X200193917Y-44070098D01*
X200018708Y-44086043D01*
X199843735Y-44067652D01*
X199843730Y-44067650D01*
X199843688Y-44067646D01*
X199675577Y-44015607D01*
X199520776Y-43931906D01*
X199385180Y-43819732D01*
X199273955Y-43683356D01*
X199191337Y-43527974D01*
X199140473Y-43359504D01*
X199123300Y-43184363D01*
X199123300Y-43175603D01*
X199123373Y-43165102D01*
X199123374Y-43165096D01*
X199123388Y-43163047D01*
X199143004Y-42988163D01*
X199196216Y-42820420D01*
X199280995Y-42666206D01*
X199394114Y-42531397D01*
X199531262Y-42421127D01*
X199687217Y-42339595D01*
X199856038Y-42289909D01*
X199856069Y-42289906D01*
X199856083Y-42289902D01*
X200031292Y-42273957D01*
X200206265Y-42292348D01*
X200206265Y-42292348D01*
G37*
G36*
X197666265Y-42292348D02*
X197666270Y-42292350D01*
X197666312Y-42292354D01*
X197834423Y-42344393D01*
X197989224Y-42428094D01*
X198124820Y-42540268D01*
X198236045Y-42676644D01*
X198318663Y-42832026D01*
X198369527Y-43000496D01*
X198386700Y-43175637D01*
X198386700Y-43184397D01*
X198386627Y-43194898D01*
X198386626Y-43194904D01*
X198386612Y-43196953D01*
X198366996Y-43371837D01*
X198313784Y-43539580D01*
X198229005Y-43693794D01*
X198115886Y-43828603D01*
X197978738Y-43938873D01*
X197822783Y-44020405D01*
X197653962Y-44070091D01*
X197653931Y-44070094D01*
X197653917Y-44070098D01*
X197478708Y-44086043D01*
X197303735Y-44067652D01*
X197303730Y-44067650D01*
X197303688Y-44067646D01*
X197135577Y-44015607D01*
X196980776Y-43931906D01*
X196845180Y-43819732D01*
X196733955Y-43683356D01*
X196651337Y-43527974D01*
X196600473Y-43359504D01*
X196583300Y-43184363D01*
X196583300Y-43175603D01*
X196583373Y-43165102D01*
X196583374Y-43165096D01*
X196583388Y-43163047D01*
X196603004Y-42988163D01*
X196656216Y-42820420D01*
X196740995Y-42666206D01*
X196854114Y-42531397D01*
X196991262Y-42421127D01*
X197147217Y-42339595D01*
X197316038Y-42289909D01*
X197316069Y-42289906D01*
X197316083Y-42289902D01*
X197491292Y-42273957D01*
X197666265Y-42292348D01*
X197666265Y-42292348D01*
G37*
G36*
X195126265Y-42292348D02*
X195126270Y-42292350D01*
X195126312Y-42292354D01*
X195294423Y-42344393D01*
X195449224Y-42428094D01*
X195584820Y-42540268D01*
X195696045Y-42676644D01*
X195778663Y-42832026D01*
X195829527Y-43000496D01*
X195846700Y-43175637D01*
X195846700Y-43184397D01*
X195846627Y-43194898D01*
X195846626Y-43194904D01*
X195846612Y-43196953D01*
X195826996Y-43371837D01*
X195773784Y-43539580D01*
X195689005Y-43693794D01*
X195575886Y-43828603D01*
X195438738Y-43938873D01*
X195282783Y-44020405D01*
X195113962Y-44070091D01*
X195113931Y-44070094D01*
X195113917Y-44070098D01*
X194938708Y-44086043D01*
X194763735Y-44067652D01*
X194763730Y-44067650D01*
X194763688Y-44067646D01*
X194595577Y-44015607D01*
X194440776Y-43931906D01*
X194305180Y-43819732D01*
X194193955Y-43683356D01*
X194111337Y-43527974D01*
X194060473Y-43359504D01*
X194043300Y-43184363D01*
X194043300Y-43175603D01*
X194043373Y-43165102D01*
X194043374Y-43165096D01*
X194043388Y-43163047D01*
X194063004Y-42988163D01*
X194116216Y-42820420D01*
X194200995Y-42666206D01*
X194314114Y-42531397D01*
X194451262Y-42421127D01*
X194607217Y-42339595D01*
X194776038Y-42289909D01*
X194776069Y-42289906D01*
X194776083Y-42289902D01*
X194951292Y-42273957D01*
X195126265Y-42292348D01*
X195126265Y-42292348D01*
G37*
M02*
