G04 #@! TF.FileFunction,Soldermask,Bot*
%FSLAX46Y46*%
G04 Gerber Fmt 4.6, Leading zero omitted, Abs format (unit mm)*
G04 Created by KiCad (PCBNEW 4.0.1-stable) date 13/02/2016 21:15:23*
%MOMM*%
G01*
G04 APERTURE LIST*
%ADD10C,0.100000*%
%ADD11R,2.127200X2.127200*%
%ADD12O,2.127200X2.127200*%
%ADD13R,1.600000X1.150000*%
%ADD14C,3.400000*%
%ADD15R,2.635200X2.635200*%
%ADD16R,2.432000X2.432000*%
%ADD17O,2.432000X2.432000*%
%ADD18R,1.300000X1.600000*%
%ADD19R,1.600000X1.300000*%
%ADD20C,1.924000*%
%ADD21R,1.900000X1.000000*%
G04 APERTURE END LIST*
D10*
D11*
X111040000Y-116540000D03*
D12*
X108500000Y-116540000D03*
X111040000Y-114000000D03*
X108500000Y-114000000D03*
D11*
X102235000Y-94500700D03*
D12*
X99695000Y-94500700D03*
X102235000Y-91960700D03*
X99695000Y-91960700D03*
X102235000Y-89420700D03*
X99695000Y-89420700D03*
X102235000Y-86880700D03*
X99695000Y-86880700D03*
X102235000Y-84340700D03*
X99695000Y-84340700D03*
X102235000Y-81800700D03*
X99695000Y-81800700D03*
D11*
X102222300Y-74180700D03*
D12*
X99682300Y-74180700D03*
X102222300Y-71640700D03*
X99682300Y-71640700D03*
X102222300Y-69100700D03*
X99682300Y-69100700D03*
D11*
X113210000Y-78120000D03*
D12*
X115750000Y-78120000D03*
X113210000Y-80660000D03*
X115750000Y-80660000D03*
X113210000Y-83200000D03*
X115750000Y-83200000D03*
X113210000Y-85740000D03*
X115750000Y-85740000D03*
X113210000Y-88280000D03*
X115750000Y-88280000D03*
X113210000Y-90820000D03*
X115750000Y-90820000D03*
X113210000Y-93360000D03*
X115750000Y-93360000D03*
X113210000Y-95900000D03*
X115750000Y-95900000D03*
X113210000Y-98440000D03*
X115750000Y-98440000D03*
X113210000Y-100980000D03*
X115750000Y-100980000D03*
D13*
X128950000Y-90000000D03*
X127050000Y-90000000D03*
X120050000Y-90000000D03*
X121950000Y-90000000D03*
X128950000Y-88500000D03*
X127050000Y-88500000D03*
X120050000Y-88500000D03*
X121950000Y-88500000D03*
D14*
X125500000Y-40500000D03*
X125500000Y-34300000D03*
X120500000Y-37400000D03*
D15*
X137000000Y-48500000D03*
D16*
X102235000Y-107213400D03*
D17*
X102235000Y-104673400D03*
D15*
X107000000Y-78500000D03*
X107000000Y-82000000D03*
X112000000Y-66500000D03*
X116500000Y-66500000D03*
D18*
X106500000Y-99600000D03*
X106500000Y-97400000D03*
D19*
X108100000Y-69000000D03*
X105900000Y-69000000D03*
X108100000Y-71500000D03*
X105900000Y-71500000D03*
X108100000Y-73000000D03*
X105900000Y-73000000D03*
D20*
X134000000Y-55500000D03*
X131460000Y-55500000D03*
X128920000Y-55500000D03*
X123840000Y-55500000D03*
X121300000Y-55500000D03*
X118760000Y-55500000D03*
X116220000Y-55500000D03*
D21*
X128200000Y-92055000D03*
X128200000Y-93325000D03*
X128200000Y-94595000D03*
X128200000Y-95865000D03*
X128200000Y-97135000D03*
X128200000Y-98405000D03*
X128200000Y-99675000D03*
X128200000Y-100945000D03*
X122800000Y-100945000D03*
X122800000Y-99675000D03*
X122800000Y-98405000D03*
X122800000Y-97135000D03*
X122800000Y-95865000D03*
X122800000Y-94595000D03*
X122800000Y-93325000D03*
X122800000Y-92055000D03*
X122800000Y-86445000D03*
X122800000Y-85175000D03*
X122800000Y-83905000D03*
X122800000Y-82635000D03*
X122800000Y-81365000D03*
X122800000Y-80095000D03*
X122800000Y-78825000D03*
X122800000Y-77555000D03*
X128200000Y-77555000D03*
X128200000Y-78825000D03*
X128200000Y-80095000D03*
X128200000Y-81365000D03*
X128200000Y-82635000D03*
X128200000Y-83905000D03*
X128200000Y-85175000D03*
X128200000Y-86445000D03*
D16*
X113210000Y-36210000D03*
D17*
X113210000Y-38750000D03*
M02*
