G04 #@! TF.FileFunction,Legend,Bot*
%FSLAX46Y46*%
G04 Gerber Fmt 4.6, Leading zero omitted, Abs format (unit mm)*
G04 Created by KiCad (PCBNEW 4.0.1-stable) date 13/02/2016 21:15:23*
%MOMM*%
G01*
G04 APERTURE LIST*
%ADD10C,0.100000*%
%ADD11C,0.150000*%
G04 APERTURE END LIST*
D10*
D11*
X128350000Y-89400000D02*
X127650000Y-89400000D01*
X127650000Y-90600000D02*
X128350000Y-90600000D01*
X120650000Y-90600000D02*
X121350000Y-90600000D01*
X121350000Y-89400000D02*
X120650000Y-89400000D01*
X128350000Y-87900000D02*
X127650000Y-87900000D01*
X127650000Y-89100000D02*
X128350000Y-89100000D01*
X120650000Y-89100000D02*
X121350000Y-89100000D01*
X121350000Y-87900000D02*
X120650000Y-87900000D01*
X105825000Y-98000000D02*
X105825000Y-99000000D01*
X107175000Y-99000000D02*
X107175000Y-98000000D01*
X106500000Y-69675000D02*
X107500000Y-69675000D01*
X107500000Y-68325000D02*
X106500000Y-68325000D01*
X106500000Y-72175000D02*
X107500000Y-72175000D01*
X107500000Y-70825000D02*
X106500000Y-70825000D01*
X106500000Y-73675000D02*
X107500000Y-73675000D01*
X107500000Y-72325000D02*
X106500000Y-72325000D01*
X127575000Y-91425000D02*
X127575000Y-91530000D01*
X123425000Y-91425000D02*
X123425000Y-91530000D01*
X123425000Y-101575000D02*
X123425000Y-101470000D01*
X127575000Y-101575000D02*
X127575000Y-101470000D01*
X127575000Y-91425000D02*
X123425000Y-91425000D01*
X127575000Y-101575000D02*
X123425000Y-101575000D01*
X127575000Y-91530000D02*
X128950000Y-91530000D01*
X123425000Y-87075000D02*
X123425000Y-86970000D01*
X127575000Y-87075000D02*
X127575000Y-86970000D01*
X127575000Y-76925000D02*
X127575000Y-77030000D01*
X123425000Y-76925000D02*
X123425000Y-77030000D01*
X123425000Y-87075000D02*
X127575000Y-87075000D01*
X123425000Y-76925000D02*
X127575000Y-76925000D01*
X123425000Y-86970000D02*
X122050000Y-86970000D01*
X133119047Y-90357143D02*
X133166666Y-90404762D01*
X133309523Y-90452381D01*
X133404761Y-90452381D01*
X133547619Y-90404762D01*
X133642857Y-90309524D01*
X133690476Y-90214286D01*
X133738095Y-90023810D01*
X133738095Y-89880952D01*
X133690476Y-89690476D01*
X133642857Y-89595238D01*
X133547619Y-89500000D01*
X133404761Y-89452381D01*
X133309523Y-89452381D01*
X133166666Y-89500000D01*
X133119047Y-89547619D01*
X132785714Y-89452381D02*
X132166666Y-89452381D01*
X132500000Y-89833333D01*
X132357142Y-89833333D01*
X132261904Y-89880952D01*
X132214285Y-89928571D01*
X132166666Y-90023810D01*
X132166666Y-90261905D01*
X132214285Y-90357143D01*
X132261904Y-90404762D01*
X132357142Y-90452381D01*
X132642857Y-90452381D01*
X132738095Y-90404762D01*
X132785714Y-90357143D01*
X131547619Y-89452381D02*
X131452380Y-89452381D01*
X131357142Y-89500000D01*
X131309523Y-89547619D01*
X131261904Y-89642857D01*
X131214285Y-89833333D01*
X131214285Y-90071429D01*
X131261904Y-90261905D01*
X131309523Y-90357143D01*
X131357142Y-90404762D01*
X131452380Y-90452381D01*
X131547619Y-90452381D01*
X131642857Y-90404762D01*
X131690476Y-90357143D01*
X131738095Y-90261905D01*
X131785714Y-90071429D01*
X131785714Y-89833333D01*
X131738095Y-89642857D01*
X131690476Y-89547619D01*
X131642857Y-89500000D01*
X131547619Y-89452381D01*
X130261904Y-90452381D02*
X130833333Y-90452381D01*
X130547619Y-90452381D02*
X130547619Y-89452381D01*
X130642857Y-89595238D01*
X130738095Y-89690476D01*
X130833333Y-89738095D01*
X120619047Y-91857143D02*
X120666666Y-91904762D01*
X120809523Y-91952381D01*
X120904761Y-91952381D01*
X121047619Y-91904762D01*
X121142857Y-91809524D01*
X121190476Y-91714286D01*
X121238095Y-91523810D01*
X121238095Y-91380952D01*
X121190476Y-91190476D01*
X121142857Y-91095238D01*
X121047619Y-91000000D01*
X120904761Y-90952381D01*
X120809523Y-90952381D01*
X120666666Y-91000000D01*
X120619047Y-91047619D01*
X120285714Y-90952381D02*
X119666666Y-90952381D01*
X120000000Y-91333333D01*
X119857142Y-91333333D01*
X119761904Y-91380952D01*
X119714285Y-91428571D01*
X119666666Y-91523810D01*
X119666666Y-91761905D01*
X119714285Y-91857143D01*
X119761904Y-91904762D01*
X119857142Y-91952381D01*
X120142857Y-91952381D01*
X120238095Y-91904762D01*
X120285714Y-91857143D01*
X119047619Y-90952381D02*
X118952380Y-90952381D01*
X118857142Y-91000000D01*
X118809523Y-91047619D01*
X118761904Y-91142857D01*
X118714285Y-91333333D01*
X118714285Y-91571429D01*
X118761904Y-91761905D01*
X118809523Y-91857143D01*
X118857142Y-91904762D01*
X118952380Y-91952381D01*
X119047619Y-91952381D01*
X119142857Y-91904762D01*
X119190476Y-91857143D01*
X119238095Y-91761905D01*
X119285714Y-91571429D01*
X119285714Y-91333333D01*
X119238095Y-91142857D01*
X119190476Y-91047619D01*
X119142857Y-91000000D01*
X119047619Y-90952381D01*
X118333333Y-91047619D02*
X118285714Y-91000000D01*
X118190476Y-90952381D01*
X117952380Y-90952381D01*
X117857142Y-91000000D01*
X117809523Y-91047619D01*
X117761904Y-91142857D01*
X117761904Y-91238095D01*
X117809523Y-91380952D01*
X118380952Y-91952381D01*
X117761904Y-91952381D01*
X133119047Y-88857143D02*
X133166666Y-88904762D01*
X133309523Y-88952381D01*
X133404761Y-88952381D01*
X133547619Y-88904762D01*
X133642857Y-88809524D01*
X133690476Y-88714286D01*
X133738095Y-88523810D01*
X133738095Y-88380952D01*
X133690476Y-88190476D01*
X133642857Y-88095238D01*
X133547619Y-88000000D01*
X133404761Y-87952381D01*
X133309523Y-87952381D01*
X133166666Y-88000000D01*
X133119047Y-88047619D01*
X132785714Y-87952381D02*
X132166666Y-87952381D01*
X132500000Y-88333333D01*
X132357142Y-88333333D01*
X132261904Y-88380952D01*
X132214285Y-88428571D01*
X132166666Y-88523810D01*
X132166666Y-88761905D01*
X132214285Y-88857143D01*
X132261904Y-88904762D01*
X132357142Y-88952381D01*
X132642857Y-88952381D01*
X132738095Y-88904762D01*
X132785714Y-88857143D01*
X131547619Y-87952381D02*
X131452380Y-87952381D01*
X131357142Y-88000000D01*
X131309523Y-88047619D01*
X131261904Y-88142857D01*
X131214285Y-88333333D01*
X131214285Y-88571429D01*
X131261904Y-88761905D01*
X131309523Y-88857143D01*
X131357142Y-88904762D01*
X131452380Y-88952381D01*
X131547619Y-88952381D01*
X131642857Y-88904762D01*
X131690476Y-88857143D01*
X131738095Y-88761905D01*
X131785714Y-88571429D01*
X131785714Y-88333333D01*
X131738095Y-88142857D01*
X131690476Y-88047619D01*
X131642857Y-88000000D01*
X131547619Y-87952381D01*
X130880952Y-87952381D02*
X130261904Y-87952381D01*
X130595238Y-88333333D01*
X130452380Y-88333333D01*
X130357142Y-88380952D01*
X130309523Y-88428571D01*
X130261904Y-88523810D01*
X130261904Y-88761905D01*
X130309523Y-88857143D01*
X130357142Y-88904762D01*
X130452380Y-88952381D01*
X130738095Y-88952381D01*
X130833333Y-88904762D01*
X130880952Y-88857143D01*
X120619047Y-87357143D02*
X120666666Y-87404762D01*
X120809523Y-87452381D01*
X120904761Y-87452381D01*
X121047619Y-87404762D01*
X121142857Y-87309524D01*
X121190476Y-87214286D01*
X121238095Y-87023810D01*
X121238095Y-86880952D01*
X121190476Y-86690476D01*
X121142857Y-86595238D01*
X121047619Y-86500000D01*
X120904761Y-86452381D01*
X120809523Y-86452381D01*
X120666666Y-86500000D01*
X120619047Y-86547619D01*
X120285714Y-86452381D02*
X119666666Y-86452381D01*
X120000000Y-86833333D01*
X119857142Y-86833333D01*
X119761904Y-86880952D01*
X119714285Y-86928571D01*
X119666666Y-87023810D01*
X119666666Y-87261905D01*
X119714285Y-87357143D01*
X119761904Y-87404762D01*
X119857142Y-87452381D01*
X120142857Y-87452381D01*
X120238095Y-87404762D01*
X120285714Y-87357143D01*
X119047619Y-86452381D02*
X118952380Y-86452381D01*
X118857142Y-86500000D01*
X118809523Y-86547619D01*
X118761904Y-86642857D01*
X118714285Y-86833333D01*
X118714285Y-87071429D01*
X118761904Y-87261905D01*
X118809523Y-87357143D01*
X118857142Y-87404762D01*
X118952380Y-87452381D01*
X119047619Y-87452381D01*
X119142857Y-87404762D01*
X119190476Y-87357143D01*
X119238095Y-87261905D01*
X119285714Y-87071429D01*
X119285714Y-86833333D01*
X119238095Y-86642857D01*
X119190476Y-86547619D01*
X119142857Y-86500000D01*
X119047619Y-86452381D01*
X117857142Y-86785714D02*
X117857142Y-87452381D01*
X118095238Y-86404762D02*
X118333333Y-87119048D01*
X117714285Y-87119048D01*
X108452381Y-97380953D02*
X107976190Y-97047619D01*
X108452381Y-96809524D02*
X107452381Y-96809524D01*
X107452381Y-97190477D01*
X107500000Y-97285715D01*
X107547619Y-97333334D01*
X107642857Y-97380953D01*
X107785714Y-97380953D01*
X107880952Y-97333334D01*
X107928571Y-97285715D01*
X107976190Y-97190477D01*
X107976190Y-96809524D01*
X107452381Y-97714286D02*
X107452381Y-98333334D01*
X107833333Y-98000000D01*
X107833333Y-98142858D01*
X107880952Y-98238096D01*
X107928571Y-98285715D01*
X108023810Y-98333334D01*
X108261905Y-98333334D01*
X108357143Y-98285715D01*
X108404762Y-98238096D01*
X108452381Y-98142858D01*
X108452381Y-97857143D01*
X108404762Y-97761905D01*
X108357143Y-97714286D01*
X107452381Y-98952381D02*
X107452381Y-99047620D01*
X107500000Y-99142858D01*
X107547619Y-99190477D01*
X107642857Y-99238096D01*
X107833333Y-99285715D01*
X108071429Y-99285715D01*
X108261905Y-99238096D01*
X108357143Y-99190477D01*
X108404762Y-99142858D01*
X108452381Y-99047620D01*
X108452381Y-98952381D01*
X108404762Y-98857143D01*
X108357143Y-98809524D01*
X108261905Y-98761905D01*
X108071429Y-98714286D01*
X107833333Y-98714286D01*
X107642857Y-98761905D01*
X107547619Y-98809524D01*
X107500000Y-98857143D01*
X107452381Y-98952381D01*
X108452381Y-100238096D02*
X108452381Y-99666667D01*
X108452381Y-99952381D02*
X107452381Y-99952381D01*
X107595238Y-99857143D01*
X107690476Y-99761905D01*
X107738095Y-99666667D01*
X108119047Y-67952381D02*
X108452381Y-67476190D01*
X108690476Y-67952381D02*
X108690476Y-66952381D01*
X108309523Y-66952381D01*
X108214285Y-67000000D01*
X108166666Y-67047619D01*
X108119047Y-67142857D01*
X108119047Y-67285714D01*
X108166666Y-67380952D01*
X108214285Y-67428571D01*
X108309523Y-67476190D01*
X108690476Y-67476190D01*
X107785714Y-66952381D02*
X107166666Y-66952381D01*
X107500000Y-67333333D01*
X107357142Y-67333333D01*
X107261904Y-67380952D01*
X107214285Y-67428571D01*
X107166666Y-67523810D01*
X107166666Y-67761905D01*
X107214285Y-67857143D01*
X107261904Y-67904762D01*
X107357142Y-67952381D01*
X107642857Y-67952381D01*
X107738095Y-67904762D01*
X107785714Y-67857143D01*
X106547619Y-66952381D02*
X106452380Y-66952381D01*
X106357142Y-67000000D01*
X106309523Y-67047619D01*
X106261904Y-67142857D01*
X106214285Y-67333333D01*
X106214285Y-67571429D01*
X106261904Y-67761905D01*
X106309523Y-67857143D01*
X106357142Y-67904762D01*
X106452380Y-67952381D01*
X106547619Y-67952381D01*
X106642857Y-67904762D01*
X106690476Y-67857143D01*
X106738095Y-67761905D01*
X106785714Y-67571429D01*
X106785714Y-67333333D01*
X106738095Y-67142857D01*
X106690476Y-67047619D01*
X106642857Y-67000000D01*
X106547619Y-66952381D01*
X105880952Y-66952381D02*
X105261904Y-66952381D01*
X105595238Y-67333333D01*
X105452380Y-67333333D01*
X105357142Y-67380952D01*
X105309523Y-67428571D01*
X105261904Y-67523810D01*
X105261904Y-67761905D01*
X105309523Y-67857143D01*
X105357142Y-67904762D01*
X105452380Y-67952381D01*
X105738095Y-67952381D01*
X105833333Y-67904762D01*
X105880952Y-67857143D01*
X112119047Y-71952381D02*
X112452381Y-71476190D01*
X112690476Y-71952381D02*
X112690476Y-70952381D01*
X112309523Y-70952381D01*
X112214285Y-71000000D01*
X112166666Y-71047619D01*
X112119047Y-71142857D01*
X112119047Y-71285714D01*
X112166666Y-71380952D01*
X112214285Y-71428571D01*
X112309523Y-71476190D01*
X112690476Y-71476190D01*
X111785714Y-70952381D02*
X111166666Y-70952381D01*
X111500000Y-71333333D01*
X111357142Y-71333333D01*
X111261904Y-71380952D01*
X111214285Y-71428571D01*
X111166666Y-71523810D01*
X111166666Y-71761905D01*
X111214285Y-71857143D01*
X111261904Y-71904762D01*
X111357142Y-71952381D01*
X111642857Y-71952381D01*
X111738095Y-71904762D01*
X111785714Y-71857143D01*
X110547619Y-70952381D02*
X110452380Y-70952381D01*
X110357142Y-71000000D01*
X110309523Y-71047619D01*
X110261904Y-71142857D01*
X110214285Y-71333333D01*
X110214285Y-71571429D01*
X110261904Y-71761905D01*
X110309523Y-71857143D01*
X110357142Y-71904762D01*
X110452380Y-71952381D01*
X110547619Y-71952381D01*
X110642857Y-71904762D01*
X110690476Y-71857143D01*
X110738095Y-71761905D01*
X110785714Y-71571429D01*
X110785714Y-71333333D01*
X110738095Y-71142857D01*
X110690476Y-71047619D01*
X110642857Y-71000000D01*
X110547619Y-70952381D01*
X109309523Y-70952381D02*
X109785714Y-70952381D01*
X109833333Y-71428571D01*
X109785714Y-71380952D01*
X109690476Y-71333333D01*
X109452380Y-71333333D01*
X109357142Y-71380952D01*
X109309523Y-71428571D01*
X109261904Y-71523810D01*
X109261904Y-71761905D01*
X109309523Y-71857143D01*
X109357142Y-71904762D01*
X109452380Y-71952381D01*
X109690476Y-71952381D01*
X109785714Y-71904762D01*
X109833333Y-71857143D01*
X112119047Y-73452381D02*
X112452381Y-72976190D01*
X112690476Y-73452381D02*
X112690476Y-72452381D01*
X112309523Y-72452381D01*
X112214285Y-72500000D01*
X112166666Y-72547619D01*
X112119047Y-72642857D01*
X112119047Y-72785714D01*
X112166666Y-72880952D01*
X112214285Y-72928571D01*
X112309523Y-72976190D01*
X112690476Y-72976190D01*
X111785714Y-72452381D02*
X111166666Y-72452381D01*
X111500000Y-72833333D01*
X111357142Y-72833333D01*
X111261904Y-72880952D01*
X111214285Y-72928571D01*
X111166666Y-73023810D01*
X111166666Y-73261905D01*
X111214285Y-73357143D01*
X111261904Y-73404762D01*
X111357142Y-73452381D01*
X111642857Y-73452381D01*
X111738095Y-73404762D01*
X111785714Y-73357143D01*
X110547619Y-72452381D02*
X110452380Y-72452381D01*
X110357142Y-72500000D01*
X110309523Y-72547619D01*
X110261904Y-72642857D01*
X110214285Y-72833333D01*
X110214285Y-73071429D01*
X110261904Y-73261905D01*
X110309523Y-73357143D01*
X110357142Y-73404762D01*
X110452380Y-73452381D01*
X110547619Y-73452381D01*
X110642857Y-73404762D01*
X110690476Y-73357143D01*
X110738095Y-73261905D01*
X110785714Y-73071429D01*
X110785714Y-72833333D01*
X110738095Y-72642857D01*
X110690476Y-72547619D01*
X110642857Y-72500000D01*
X110547619Y-72452381D01*
X109357142Y-72452381D02*
X109547619Y-72452381D01*
X109642857Y-72500000D01*
X109690476Y-72547619D01*
X109785714Y-72690476D01*
X109833333Y-72880952D01*
X109833333Y-73261905D01*
X109785714Y-73357143D01*
X109738095Y-73404762D01*
X109642857Y-73452381D01*
X109452380Y-73452381D01*
X109357142Y-73404762D01*
X109309523Y-73357143D01*
X109261904Y-73261905D01*
X109261904Y-73023810D01*
X109309523Y-72928571D01*
X109357142Y-72880952D01*
X109452380Y-72833333D01*
X109642857Y-72833333D01*
X109738095Y-72880952D01*
X109785714Y-72928571D01*
X109833333Y-73023810D01*
X127714286Y-102452381D02*
X127714286Y-103261905D01*
X127666667Y-103357143D01*
X127619048Y-103404762D01*
X127523810Y-103452381D01*
X127333333Y-103452381D01*
X127238095Y-103404762D01*
X127190476Y-103357143D01*
X127142857Y-103261905D01*
X127142857Y-102452381D01*
X126761905Y-102452381D02*
X126142857Y-102452381D01*
X126476191Y-102833333D01*
X126333333Y-102833333D01*
X126238095Y-102880952D01*
X126190476Y-102928571D01*
X126142857Y-103023810D01*
X126142857Y-103261905D01*
X126190476Y-103357143D01*
X126238095Y-103404762D01*
X126333333Y-103452381D01*
X126619048Y-103452381D01*
X126714286Y-103404762D01*
X126761905Y-103357143D01*
X125523810Y-102452381D02*
X125428571Y-102452381D01*
X125333333Y-102500000D01*
X125285714Y-102547619D01*
X125238095Y-102642857D01*
X125190476Y-102833333D01*
X125190476Y-103071429D01*
X125238095Y-103261905D01*
X125285714Y-103357143D01*
X125333333Y-103404762D01*
X125428571Y-103452381D01*
X125523810Y-103452381D01*
X125619048Y-103404762D01*
X125666667Y-103357143D01*
X125714286Y-103261905D01*
X125761905Y-103071429D01*
X125761905Y-102833333D01*
X125714286Y-102642857D01*
X125666667Y-102547619D01*
X125619048Y-102500000D01*
X125523810Y-102452381D01*
X124238095Y-103452381D02*
X124809524Y-103452381D01*
X124523810Y-103452381D02*
X124523810Y-102452381D01*
X124619048Y-102595238D01*
X124714286Y-102690476D01*
X124809524Y-102738095D01*
X128214286Y-75452381D02*
X128214286Y-76261905D01*
X128166667Y-76357143D01*
X128119048Y-76404762D01*
X128023810Y-76452381D01*
X127833333Y-76452381D01*
X127738095Y-76404762D01*
X127690476Y-76357143D01*
X127642857Y-76261905D01*
X127642857Y-75452381D01*
X127261905Y-75452381D02*
X126642857Y-75452381D01*
X126976191Y-75833333D01*
X126833333Y-75833333D01*
X126738095Y-75880952D01*
X126690476Y-75928571D01*
X126642857Y-76023810D01*
X126642857Y-76261905D01*
X126690476Y-76357143D01*
X126738095Y-76404762D01*
X126833333Y-76452381D01*
X127119048Y-76452381D01*
X127214286Y-76404762D01*
X127261905Y-76357143D01*
X126023810Y-75452381D02*
X125928571Y-75452381D01*
X125833333Y-75500000D01*
X125785714Y-75547619D01*
X125738095Y-75642857D01*
X125690476Y-75833333D01*
X125690476Y-76071429D01*
X125738095Y-76261905D01*
X125785714Y-76357143D01*
X125833333Y-76404762D01*
X125928571Y-76452381D01*
X126023810Y-76452381D01*
X126119048Y-76404762D01*
X126166667Y-76357143D01*
X126214286Y-76261905D01*
X126261905Y-76071429D01*
X126261905Y-75833333D01*
X126214286Y-75642857D01*
X126166667Y-75547619D01*
X126119048Y-75500000D01*
X126023810Y-75452381D01*
X125309524Y-75547619D02*
X125261905Y-75500000D01*
X125166667Y-75452381D01*
X124928571Y-75452381D01*
X124833333Y-75500000D01*
X124785714Y-75547619D01*
X124738095Y-75642857D01*
X124738095Y-75738095D01*
X124785714Y-75880952D01*
X125357143Y-76452381D01*
X124738095Y-76452381D01*
M02*
