M48
;DRILL file {KiCad 4.0.1-stable} date 13/02/2016 21:15:26
;FORMAT={-:-/ absolute / inch / decimal}
FMAT,2
INCH,TZ
T1C0.020
T2C0.030
T3C0.040
T4C0.063
T5C0.118
%
G90
G05
M72
T1
X4.0945Y-3.3661
X4.0945Y-3.4055
X4.1397Y-4.1071
X4.1624Y-3.4843
X4.1644Y-4.1535
X4.1732Y-2.9921
X4.1818Y-4.049
X4.2007Y-4.1176
X4.2069Y-4.1601
X4.2126Y-2.9921
X4.2323Y-3.4055
X4.2323Y-3.4449
X4.2323Y-3.5827
X4.2412Y-3.7008
X4.252Y-2.9921
X4.265Y-4.2575
X4.311Y-4.2628
X4.3701Y-3.8189
X4.3898Y-4.3701
X4.4291Y-4.3701
X4.4882Y-2.7559
X4.5472Y-2.7559
X4.6063Y-2.7559
X4.6565Y-3.8557
X4.6672Y-3.7186
X4.7061Y-3.7001
X4.7244Y-3.878
X4.7264Y-3.5881
X4.7441Y-3.7598
X4.7544Y-3.4449
X4.7604Y-3.622
X4.7694Y-3.8054
X4.7829Y-3.4163
X4.8031Y-3.0118
X4.8031Y-4.0157
X4.8425Y-3.0118
X4.8425Y-4.0157
X4.8819Y-3.0118
X4.8819Y-4.0157
X5.1181Y-2.9134
X5.1181Y-3.9764
X5.1181Y-4.0157
X5.1378Y-3.4843
X5.1378Y-3.5433
X5.1575Y-3.248
X5.1772Y-2.6772
X5.1772Y-3.3268
X5.1969Y-3.4055
X5.1969Y-3.4449
X5.2165Y-2.7165
X5.2165Y-4.252
X5.2559Y-2.7559
X5.2559Y-3.7795
X5.2559Y-4.252
X5.2953Y-3.7795
X5.2953Y-3.8189
X5.2953Y-4.1732
X5.2953Y-4.2126
X5.2953Y-4.252
X5.3346Y-3.2874
X5.3346Y-3.3268
X5.374Y-3.2874
X5.374Y-3.3268
X5.4134Y-3.2874
X5.4134Y-3.3268
T2
X4.5756Y-2.185
X4.6756Y-2.185
X4.7756Y-2.185
X4.8756Y-2.185
X5.0756Y-2.185
X5.1756Y-2.185
X5.2756Y-2.185
T3
X3.9245Y-2.7205
X3.9245Y-2.8205
X3.9245Y-2.9205
X3.925Y-3.2205
X3.925Y-3.3205
X3.925Y-3.4205
X3.925Y-3.5205
X3.925Y-3.6205
X3.925Y-3.7205
X4.0245Y-2.7205
X4.0245Y-2.8205
X4.0245Y-2.9205
X4.025Y-3.2205
X4.025Y-3.3205
X4.025Y-3.4205
X4.025Y-3.5205
X4.025Y-3.6205
X4.025Y-3.7205
X4.025Y-4.121
X4.025Y-4.221
X4.2126Y-3.0906
X4.2126Y-3.2283
X4.2717Y-4.4882
X4.2717Y-4.5882
X4.3717Y-4.4882
X4.3717Y-4.5882
X4.4094Y-2.6181
X4.4571Y-1.4256
X4.4571Y-1.5256
X4.4571Y-3.0756
X4.4571Y-3.1756
X4.4571Y-3.2756
X4.4571Y-3.3756
X4.4571Y-3.4756
X4.4571Y-3.5756
X4.4571Y-3.6756
X4.4571Y-3.7756
X4.4571Y-3.8756
X4.4571Y-3.9756
X4.5571Y-3.0756
X4.5571Y-3.1756
X4.5571Y-3.2756
X4.5571Y-3.3756
X4.5571Y-3.4756
X4.5571Y-3.5756
X4.5571Y-3.6756
X4.5571Y-3.7756
X4.5571Y-3.8756
X4.5571Y-3.9756
X4.5866Y-2.6181
X5.3937Y-1.9094
T4
X4.7441Y-1.4724
X4.9409Y-1.3504
X4.9409Y-1.5945
T5
X4.4094Y-1.1811
X4.4094Y-4.8819
X5.4331Y-1.1811
X5.4331Y-4.8819
T0
M30
