G04 #@! TF.FileFunction,Profile,NP*
%FSLAX46Y46*%
G04 Gerber Fmt 4.6, Leading zero omitted, Abs format (unit mm)*
G04 Created by KiCad (PCBNEW 4.0.1-stable) date 13/02/2016 21:15:23*
%MOMM*%
G01*
G04 APERTURE LIST*
%ADD10C,0.100000*%
%ADD11C,0.150000*%
G04 APERTURE END LIST*
D10*
D11*
X109000000Y-62200000D02*
X109000000Y-29500000D01*
X103900000Y-67300000D02*
X109000000Y-62200000D01*
X105200000Y-110200000D02*
X105200000Y-110400000D01*
X104000000Y-109000000D02*
X105200000Y-110200000D01*
X100500000Y-109000000D02*
X104000000Y-109000000D01*
X100500000Y-102900000D02*
X100500000Y-109000000D01*
X103800000Y-102900000D02*
X100500000Y-102900000D01*
X103800000Y-96200000D02*
X103800000Y-102900000D01*
X97900000Y-96200000D02*
X103800000Y-96200000D01*
X97900000Y-80100000D02*
X97900000Y-96200000D01*
X103800000Y-80100000D02*
X97900000Y-80100000D01*
X103800000Y-75900000D02*
X103800000Y-80100000D01*
X97900000Y-75900000D02*
X103800000Y-75900000D01*
X97900000Y-67300000D02*
X97900000Y-75900000D01*
X97900000Y-67300000D02*
X103900000Y-67300000D01*
X109000000Y-121400000D02*
X109000000Y-124500000D01*
X108000000Y-120400000D02*
X107000000Y-120400000D01*
X109000000Y-121400000D02*
G75*
G03X108000000Y-120400000I-1000000J0D01*
G01*
X105200000Y-118600000D02*
G75*
G03X107000000Y-120400000I1800000J0D01*
G01*
X105200000Y-110400000D02*
X105200000Y-118600000D01*
X138500000Y-27000000D02*
X111500000Y-27000000D01*
X141000000Y-29500000D02*
X141000000Y-124500000D01*
X111500000Y-127000000D02*
X138500000Y-127000000D01*
X111500000Y-27000000D02*
G75*
G03X109000000Y-29500000I0J-2500000D01*
G01*
X141000000Y-29500000D02*
G75*
G03X138500000Y-27000000I-2500000J0D01*
G01*
X138500000Y-127000000D02*
G75*
G03X141000000Y-124500000I0J2500000D01*
G01*
X109000000Y-124500000D02*
G75*
G03X111500000Y-127000000I2500000J0D01*
G01*
M02*
